<svg width="20" height="20" viewBox="0 0 20 20" fill="none" xmlns="http://www.w3.org/2000/svg">
<mask id="path-1-outside-1_2_5505" maskUnits="userSpaceOnUse" x="0" y="0" width="21" height="19" fill="black">
<rect fill="white" width="21" height="19"/>
<path d="M17.6645 8.80081C17.6645 8.89525 17.6569 8.96701 17.6645 9.03879C17.8308 10.24 17.6305 11.3884 17.1617 12.5028C17.0975 12.6577 17.0332 12.8126 16.9538 12.9599C16.5456 13.7418 16.1374 14.52 15.646 15.2529C15.423 15.5815 15.1886 15.9064 14.9429 16.2237C14.5271 16.7525 14.1 17.2701 13.6804 17.7989C13.5443 17.9689 13.3818 18.0709 13.1739 18.154C12.7203 18.3315 12.2591 18.4033 11.779 18.4147C11.1554 18.426 10.5279 18.4487 9.90418 18.46C9.56398 18.4675 9.22757 18.426 8.89493 18.3542C8.66813 18.3051 8.43755 18.2636 8.20697 18.222C7.93103 18.1729 7.70045 18.0709 7.57949 17.8027C7.55681 17.7574 7.51901 17.7158 7.48122 17.6818C7.29222 17.5269 7.15236 17.3305 7.00494 17.1341C6.60048 16.5977 6.24138 16.031 5.90497 15.4493C5.17543 14.1838 4.51771 12.8881 3.98851 11.532C3.7088 10.818 3.51602 10.0814 3.4253 9.31833C3.40262 9.13323 3.39884 8.94435 3.3875 8.76303C3.35348 8.74036 3.3308 8.7177 3.30056 8.70637C2.74868 8.49483 2.33667 8.10951 1.97379 7.66376C1.63737 7.25579 1.36899 6.81004 1.18377 6.3114C0.994773 5.80899 0.953193 5.29525 1.05147 4.77017C1.22157 3.86734 1.98891 3.13449 2.90744 2.9645C3.41396 2.87006 3.87512 2.96072 4.30225 3.24026C4.66891 3.47825 4.99021 3.76156 5.25481 4.1091C5.36821 4.25642 5.49294 4.39997 5.60634 4.53974C5.69328 4.54729 5.72353 4.48308 5.76889 4.4453C6.07506 4.15821 6.38124 3.86733 6.68364 3.57646C6.78192 3.48203 6.87264 3.38381 6.97848 3.27048C6.918 3.21382 6.87642 3.17227 6.83106 3.13449C6.63072 2.97584 6.51732 2.76807 6.47952 2.52253C6.43416 2.2241 6.49086 1.93701 6.62316 1.6688C6.71388 1.4837 6.87642 1.36283 7.06164 1.27594C7.26576 1.17773 7.47744 1.11728 7.70045 1.09462C8.10113 1.05684 8.50181 1.01151 8.90627 1.00773C9.70006 0.996401 10.4976 0.996402 11.2914 1.01529C12.055 1.0304 12.8185 1.06062 13.5821 1.10217C13.8769 1.11728 14.1718 1.16261 14.4666 1.21172C15.1546 1.32882 15.4418 1.83879 15.3095 2.4772C15.2302 2.86628 15.1281 3.00605 14.7312 3.26293C15.0676 3.6369 15.404 4.0071 15.7367 4.37353C15.8312 4.35842 15.8312 4.27908 15.8614 4.23375C15.9521 4.09398 16.0353 3.94666 16.126 3.80689C16.4322 3.35359 16.8707 3.07405 17.3885 2.90406C17.6494 2.82096 17.9102 2.82095 18.1748 2.8474C18.6586 2.89273 19.1122 3.01738 19.494 3.33092C19.838 3.61424 20.0723 3.96555 20.1744 4.39997C20.2953 4.9326 20.2916 5.45768 20.1177 5.97898C19.838 6.80626 19.3957 7.53533 18.7002 8.0944C18.3713 8.35505 18.05 8.63082 17.6645 8.80081ZM14.5687 3.31959C13.9979 3.36114 13.4385 3.36492 12.8752 3.34981C12.1419 3.32714 11.4124 3.3007 10.6791 3.28559C10.1688 3.27426 9.66226 3.2667 9.15196 3.27803C8.56985 3.28937 7.98773 3.32337 7.40183 3.33848C7.26575 3.34225 7.15991 3.38381 7.06542 3.48203C6.87264 3.67468 6.65718 3.84844 6.47574 4.05243C6.06372 4.51329 5.65926 4.98926 5.25859 5.46145C4.97131 5.79766 4.73317 6.16786 4.49881 6.54183C4.14728 7.10091 3.92804 7.70532 3.81464 8.35128C3.75038 8.70637 3.74282 9.05768 3.79196 9.41277C3.88646 10.0776 4.05278 10.7236 4.29848 11.3506C4.63111 12.1893 5.01667 13.0014 5.42491 13.8061C5.51563 13.9836 5.61769 14.1536 5.70463 14.3122C5.98813 14.3651 6.24894 14.4142 6.50598 14.4671C6.54756 14.4747 6.58158 14.5162 6.63828 14.554C6.38502 14.6296 6.15445 14.6296 5.91253 14.6031C5.90497 14.6938 5.92764 14.7467 5.9919 14.7693C6.07128 14.7958 6.15444 14.8109 6.2376 14.8298C6.52488 14.894 6.81594 14.9582 7.10322 15.0262C7.15992 15.0413 7.21284 15.0715 7.30356 15.1131C7.14858 15.1811 7.02384 15.1886 6.90288 15.1849C6.7668 15.1811 6.63072 15.1584 6.49464 15.1357C6.37746 15.1169 6.27162 15.0413 6.1431 15.064C6.20736 15.3511 6.38502 15.4531 6.6534 15.4606C6.86508 15.4644 7.07676 15.4946 7.28844 15.5097C7.56438 15.5286 7.82519 15.6268 8.08979 15.6948C8.10491 15.6986 8.11625 15.725 8.14271 15.759C7.96883 15.7855 7.80251 15.8195 7.63997 15.8346C7.25442 15.8686 6.89532 15.725 6.5022 15.6646C6.52488 15.8081 6.60804 15.8988 6.68742 16.0159C6.9936 16.0612 7.30733 16.1104 7.62107 16.1481C8.01041 16.1935 8.39975 16.2426 8.77774 16.3483C8.842 16.3672 8.90248 16.4012 8.98564 16.4352C8.93272 16.4617 8.91005 16.4881 8.87981 16.4919C8.59631 16.5259 8.30903 16.5485 8.02553 16.4919C7.70423 16.4277 7.38294 16.3559 7.06164 16.2917C7.00872 16.2803 6.94068 16.2388 6.89532 16.3143C6.93312 16.507 7.09944 16.5448 7.25064 16.575C7.66643 16.6619 8.08223 16.7412 8.49803 16.8205C8.56985 16.8356 8.64545 16.8394 8.72105 16.8394C9.12928 16.8356 9.51862 16.9414 9.90796 17.0434C9.94198 17.051 9.96466 17.0887 10.0176 17.1303C9.53374 17.2209 9.08014 17.2285 8.62655 17.1832C8.24477 17.1454 7.88189 17.0245 7.51146 16.9301C7.45476 16.915 7.39806 16.9187 7.32246 16.9112C7.4094 17.1567 7.55303 17.2889 7.79117 17.3569C8.27501 17.4929 8.76262 17.5723 9.26158 17.5911C9.5791 17.6025 9.89662 17.6403 10.2104 17.6705C10.2708 17.678 10.3389 17.678 10.3842 17.7649C10.2368 17.7876 10.0932 17.8102 9.94954 17.8254C9.80212 17.8405 9.6547 17.8518 9.50351 17.8594C9.35609 17.8669 9.20488 17.8669 9.05746 17.8631C8.91005 17.8594 8.75885 17.8518 8.61521 17.8291C8.46779 17.8065 8.32793 17.7649 8.18051 17.7385C8.04065 17.712 7.91591 17.6289 7.72313 17.6251C7.77983 17.6969 7.80251 17.7498 7.84031 17.7725C7.93103 17.8216 8.02931 17.8745 8.13137 17.8971C8.61521 18.018 9.09905 18.1351 9.60178 18.1502C10.4939 18.1842 11.3821 18.1465 12.2742 18.086C12.4632 18.0747 12.6484 18.018 12.8374 17.9878C12.9849 17.9651 13.0869 17.8971 13.1474 17.7574C13.1852 17.6743 13.257 17.6063 13.3175 17.5307C13.6615 17.119 14.0017 16.7034 14.3532 16.2992C14.8522 15.725 15.2869 15.1093 15.6762 14.4596C15.9748 13.9647 16.2545 13.4623 16.5343 12.9561C16.7686 12.533 16.9463 12.0835 17.0899 11.6264C17.3167 10.9087 17.415 10.1758 17.3356 9.43166C17.2827 8.93302 17.2184 8.43438 17.1202 7.9433C16.9387 7.04425 16.6439 6.18297 16.1071 5.42746C15.6157 4.70972 15.0865 4.01843 14.5687 3.31959ZM10.4409 2.96072C11.1667 2.9985 11.9265 3.04005 12.69 3.07783C13.1965 3.10427 13.7031 3.17605 14.2058 3.04005C14.3381 3.00228 14.478 2.99094 14.6065 2.95317C14.7312 2.91917 14.8371 2.83984 14.8975 2.72274C14.9807 2.56408 15.0336 2.39409 15.0336 2.21277C15.0298 1.8879 14.89 1.64992 14.5725 1.53281C14.4931 1.50259 14.4137 1.47615 14.3305 1.46482C14.1529 1.4346 13.9752 1.40437 13.7938 1.39682C12.8828 1.35527 11.9718 1.31372 11.0609 1.28727C10.5619 1.27216 10.0629 1.29105 9.56776 1.28349C8.95163 1.27216 8.33927 1.31749 7.73069 1.40815C7.54548 1.43459 7.36404 1.49881 7.18638 1.56303C7.06542 1.60459 6.96714 1.68769 6.89154 1.79346C6.6723 2.11455 6.7101 2.67363 6.96714 2.97205C7.02006 3.0325 7.08053 3.06271 7.15991 3.05894C7.20149 3.05894 7.24308 3.05516 7.28844 3.05139C8.32793 3.02117 9.36364 2.99094 10.4409 2.96072ZM4.90327 5.39724C4.72561 5.07237 4.46857 4.8495 4.22665 4.61529C3.98852 4.38486 3.69368 4.23753 3.37994 4.13554C3.1985 4.0751 3.00572 4.05999 2.81294 4.08265C2.54456 4.11665 2.33667 4.24131 2.18547 4.46796C1.97757 4.78528 1.92843 5.12526 2.03049 5.4879C2.10609 5.76366 2.24595 6.0092 2.40849 6.24341C2.72978 6.70049 3.09266 7.1198 3.5009 7.50133C3.53492 7.53155 3.5765 7.55422 3.63698 7.59577C3.90914 6.76093 4.39297 6.07719 4.90327 5.39724ZM17.4377 7.61843C17.5208 7.5731 17.5851 7.54288 17.6418 7.50133C17.9366 7.27846 18.2126 7.03292 18.4432 6.74582C18.6548 6.47762 18.806 6.17919 18.9005 5.85432C19.0064 5.48412 19.0328 5.11392 18.9232 4.73995C18.7682 4.19976 18.1521 3.91266 17.6305 4.12798C17.4112 4.21864 17.2298 4.35842 17.0899 4.55107C16.8934 4.8155 16.7611 5.11014 16.6439 5.41613C16.6099 5.51056 16.6212 5.59367 16.6703 5.68433C16.9879 6.23208 17.192 6.82515 17.3734 7.42956C17.3923 7.48244 17.4112 7.53911 17.4377 7.61843ZM17.6191 8.49105C17.7514 8.41172 17.8724 8.3475 17.982 8.26817C18.1332 8.15485 18.2731 8.02641 18.4205 7.90553C19.0517 7.39178 19.4524 6.72315 19.7321 5.9752C19.9136 5.49167 19.9438 5.0006 19.8342 4.4944C19.7094 3.92777 19.3617 3.55002 18.8249 3.33848C18.651 3.27048 18.4583 3.23649 18.2731 3.19871C17.6267 3.05894 17.0786 3.27048 16.5985 3.67468C16.3075 3.92022 16.0958 4.23753 15.9068 4.55485C16.1071 4.88727 16.3566 5.19703 16.4965 5.28769C16.5758 4.99304 16.6703 4.70595 16.8291 4.44152C16.9954 4.16198 17.2298 3.96177 17.5284 3.82578C18.3109 3.47069 19.1198 4.01466 19.2861 4.63418C19.3655 4.92883 19.3957 5.22725 19.3503 5.53323C19.2407 6.26607 18.9005 6.87803 18.3222 7.35023C18.0689 7.55421 17.8006 7.73554 17.5208 7.93953C17.5171 8.10952 17.5397 8.29084 17.6191 8.49105ZM5.11117 5.13659C5.24347 5.01948 5.36443 4.90993 5.43247 4.76639C5.20189 4.30553 4.57819 3.75023 4.13216 3.48203C3.7277 3.23649 3.30056 3.19115 2.84697 3.31959C1.87551 3.59535 1.14597 4.45285 1.32741 5.65411C1.49373 6.77604 2.14767 7.62599 3.09266 8.26062C3.19094 8.32861 3.30434 8.39283 3.4442 8.38527C3.49334 8.16995 3.5387 7.96597 3.58406 7.76576C3.5387 7.72798 3.50846 7.69776 3.47444 7.6751C2.94902 7.30867 2.52188 6.84781 2.14011 6.34162C1.98891 6.13764 1.86795 5.91854 1.77723 5.68055C1.69407 5.46145 1.65627 5.23481 1.67895 5.00437C1.73565 4.41508 2.13632 3.68979 3.10778 3.7729C3.62564 3.81823 4.05655 4.04866 4.44211 4.37353C4.57063 4.48307 4.68781 4.60395 4.79743 4.73239C4.90705 4.85327 5.00155 4.98926 5.11117 5.13659Z"/>
</mask>
<path d="M17.6645 8.80081C17.6645 8.89525 17.6569 8.96701 17.6645 9.03879C17.8308 10.24 17.6305 11.3884 17.1617 12.5028C17.0975 12.6577 17.0332 12.8126 16.9538 12.9599C16.5456 13.7418 16.1374 14.52 15.646 15.2529C15.423 15.5815 15.1886 15.9064 14.9429 16.2237C14.5271 16.7525 14.1 17.2701 13.6804 17.7989C13.5443 17.9689 13.3818 18.0709 13.1739 18.154C12.7203 18.3315 12.2591 18.4033 11.779 18.4147C11.1554 18.426 10.5279 18.4487 9.90418 18.46C9.56398 18.4675 9.22757 18.426 8.89493 18.3542C8.66813 18.3051 8.43755 18.2636 8.20697 18.222C7.93103 18.1729 7.70045 18.0709 7.57949 17.8027C7.55681 17.7574 7.51901 17.7158 7.48122 17.6818C7.29222 17.5269 7.15236 17.3305 7.00494 17.1341C6.60048 16.5977 6.24138 16.031 5.90497 15.4493C5.17543 14.1838 4.51771 12.8881 3.98851 11.532C3.7088 10.818 3.51602 10.0814 3.4253 9.31833C3.40262 9.13323 3.39884 8.94435 3.3875 8.76303C3.35348 8.74036 3.3308 8.7177 3.30056 8.70637C2.74868 8.49483 2.33667 8.10951 1.97379 7.66376C1.63737 7.25579 1.36899 6.81004 1.18377 6.3114C0.994773 5.80899 0.953193 5.29525 1.05147 4.77017C1.22157 3.86734 1.98891 3.13449 2.90744 2.9645C3.41396 2.87006 3.87512 2.96072 4.30225 3.24026C4.66891 3.47825 4.99021 3.76156 5.25481 4.1091C5.36821 4.25642 5.49294 4.39997 5.60634 4.53974C5.69328 4.54729 5.72353 4.48308 5.76889 4.4453C6.07506 4.15821 6.38124 3.86733 6.68364 3.57646C6.78192 3.48203 6.87264 3.38381 6.97848 3.27048C6.918 3.21382 6.87642 3.17227 6.83106 3.13449C6.63072 2.97584 6.51732 2.76807 6.47952 2.52253C6.43416 2.2241 6.49086 1.93701 6.62316 1.6688C6.71388 1.4837 6.87642 1.36283 7.06164 1.27594C7.26576 1.17773 7.47744 1.11728 7.70045 1.09462C8.10113 1.05684 8.50181 1.01151 8.90627 1.00773C9.70006 0.996401 10.4976 0.996402 11.2914 1.01529C12.055 1.0304 12.8185 1.06062 13.5821 1.10217C13.8769 1.11728 14.1718 1.16261 14.4666 1.21172C15.1546 1.32882 15.4418 1.83879 15.3095 2.4772C15.2302 2.86628 15.1281 3.00605 14.7312 3.26293C15.0676 3.6369 15.404 4.0071 15.7367 4.37353C15.8312 4.35842 15.8312 4.27908 15.8614 4.23375C15.9521 4.09398 16.0353 3.94666 16.126 3.80689C16.4322 3.35359 16.8707 3.07405 17.3885 2.90406C17.6494 2.82096 17.9102 2.82095 18.1748 2.8474C18.6586 2.89273 19.1122 3.01738 19.494 3.33092C19.838 3.61424 20.0723 3.96555 20.1744 4.39997C20.2953 4.9326 20.2916 5.45768 20.1177 5.97898C19.838 6.80626 19.3957 7.53533 18.7002 8.0944C18.3713 8.35505 18.05 8.63082 17.6645 8.80081ZM14.5687 3.31959C13.9979 3.36114 13.4385 3.36492 12.8752 3.34981C12.1419 3.32714 11.4124 3.3007 10.6791 3.28559C10.1688 3.27426 9.66226 3.2667 9.15196 3.27803C8.56985 3.28937 7.98773 3.32337 7.40183 3.33848C7.26575 3.34225 7.15991 3.38381 7.06542 3.48203C6.87264 3.67468 6.65718 3.84844 6.47574 4.05243C6.06372 4.51329 5.65926 4.98926 5.25859 5.46145C4.97131 5.79766 4.73317 6.16786 4.49881 6.54183C4.14728 7.10091 3.92804 7.70532 3.81464 8.35128C3.75038 8.70637 3.74282 9.05768 3.79196 9.41277C3.88646 10.0776 4.05278 10.7236 4.29848 11.3506C4.63111 12.1893 5.01667 13.0014 5.42491 13.8061C5.51563 13.9836 5.61769 14.1536 5.70463 14.3122C5.98813 14.3651 6.24894 14.4142 6.50598 14.4671C6.54756 14.4747 6.58158 14.5162 6.63828 14.554C6.38502 14.6296 6.15445 14.6296 5.91253 14.6031C5.90497 14.6938 5.92764 14.7467 5.9919 14.7693C6.07128 14.7958 6.15444 14.8109 6.2376 14.8298C6.52488 14.894 6.81594 14.9582 7.10322 15.0262C7.15992 15.0413 7.21284 15.0715 7.30356 15.1131C7.14858 15.1811 7.02384 15.1886 6.90288 15.1849C6.7668 15.1811 6.63072 15.1584 6.49464 15.1357C6.37746 15.1169 6.27162 15.0413 6.1431 15.064C6.20736 15.3511 6.38502 15.4531 6.6534 15.4606C6.86508 15.4644 7.07676 15.4946 7.28844 15.5097C7.56438 15.5286 7.82519 15.6268 8.08979 15.6948C8.10491 15.6986 8.11625 15.725 8.14271 15.759C7.96883 15.7855 7.80251 15.8195 7.63997 15.8346C7.25442 15.8686 6.89532 15.725 6.5022 15.6646C6.52488 15.8081 6.60804 15.8988 6.68742 16.0159C6.9936 16.0612 7.30733 16.1104 7.62107 16.1481C8.01041 16.1935 8.39975 16.2426 8.77774 16.3483C8.842 16.3672 8.90248 16.4012 8.98564 16.4352C8.93272 16.4617 8.91005 16.4881 8.87981 16.4919C8.59631 16.5259 8.30903 16.5485 8.02553 16.4919C7.70423 16.4277 7.38294 16.3559 7.06164 16.2917C7.00872 16.2803 6.94068 16.2388 6.89532 16.3143C6.93312 16.507 7.09944 16.5448 7.25064 16.575C7.66643 16.6619 8.08223 16.7412 8.49803 16.8205C8.56985 16.8356 8.64545 16.8394 8.72105 16.8394C9.12928 16.8356 9.51862 16.9414 9.90796 17.0434C9.94198 17.051 9.96466 17.0887 10.0176 17.1303C9.53374 17.2209 9.08014 17.2285 8.62655 17.1832C8.24477 17.1454 7.88189 17.0245 7.51146 16.9301C7.45476 16.915 7.39806 16.9187 7.32246 16.9112C7.4094 17.1567 7.55303 17.2889 7.79117 17.3569C8.27501 17.4929 8.76262 17.5723 9.26158 17.5911C9.5791 17.6025 9.89662 17.6403 10.2104 17.6705C10.2708 17.678 10.3389 17.678 10.3842 17.7649C10.2368 17.7876 10.0932 17.8102 9.94954 17.8254C9.80212 17.8405 9.6547 17.8518 9.50351 17.8594C9.35609 17.8669 9.20488 17.8669 9.05746 17.8631C8.91005 17.8594 8.75885 17.8518 8.61521 17.8291C8.46779 17.8065 8.32793 17.7649 8.18051 17.7385C8.04065 17.712 7.91591 17.6289 7.72313 17.6251C7.77983 17.6969 7.80251 17.7498 7.84031 17.7725C7.93103 17.8216 8.02931 17.8745 8.13137 17.8971C8.61521 18.018 9.09905 18.1351 9.60178 18.1502C10.4939 18.1842 11.3821 18.1465 12.2742 18.086C12.4632 18.0747 12.6484 18.018 12.8374 17.9878C12.9849 17.9651 13.0869 17.8971 13.1474 17.7574C13.1852 17.6743 13.257 17.6063 13.3175 17.5307C13.6615 17.119 14.0017 16.7034 14.3532 16.2992C14.8522 15.725 15.2869 15.1093 15.6762 14.4596C15.9748 13.9647 16.2545 13.4623 16.5343 12.9561C16.7686 12.533 16.9463 12.0835 17.0899 11.6264C17.3167 10.9087 17.415 10.1758 17.3356 9.43166C17.2827 8.93302 17.2184 8.43438 17.1202 7.9433C16.9387 7.04425 16.6439 6.18297 16.1071 5.42746C15.6157 4.70972 15.0865 4.01843 14.5687 3.31959ZM10.4409 2.96072C11.1667 2.9985 11.9265 3.04005 12.69 3.07783C13.1965 3.10427 13.7031 3.17605 14.2058 3.04005C14.3381 3.00228 14.478 2.99094 14.6065 2.95317C14.7312 2.91917 14.8371 2.83984 14.8975 2.72274C14.9807 2.56408 15.0336 2.39409 15.0336 2.21277C15.0298 1.8879 14.89 1.64992 14.5725 1.53281C14.4931 1.50259 14.4137 1.47615 14.3305 1.46482C14.1529 1.4346 13.9752 1.40437 13.7938 1.39682C12.8828 1.35527 11.9718 1.31372 11.0609 1.28727C10.5619 1.27216 10.0629 1.29105 9.56776 1.28349C8.95163 1.27216 8.33927 1.31749 7.73069 1.40815C7.54548 1.43459 7.36404 1.49881 7.18638 1.56303C7.06542 1.60459 6.96714 1.68769 6.89154 1.79346C6.6723 2.11455 6.7101 2.67363 6.96714 2.97205C7.02006 3.0325 7.08053 3.06271 7.15991 3.05894C7.20149 3.05894 7.24308 3.05516 7.28844 3.05139C8.32793 3.02117 9.36364 2.99094 10.4409 2.96072ZM4.90327 5.39724C4.72561 5.07237 4.46857 4.8495 4.22665 4.61529C3.98852 4.38486 3.69368 4.23753 3.37994 4.13554C3.1985 4.0751 3.00572 4.05999 2.81294 4.08265C2.54456 4.11665 2.33667 4.24131 2.18547 4.46796C1.97757 4.78528 1.92843 5.12526 2.03049 5.4879C2.10609 5.76366 2.24595 6.0092 2.40849 6.24341C2.72978 6.70049 3.09266 7.1198 3.5009 7.50133C3.53492 7.53155 3.5765 7.55422 3.63698 7.59577C3.90914 6.76093 4.39297 6.07719 4.90327 5.39724ZM17.4377 7.61843C17.5208 7.5731 17.5851 7.54288 17.6418 7.50133C17.9366 7.27846 18.2126 7.03292 18.4432 6.74582C18.6548 6.47762 18.806 6.17919 18.9005 5.85432C19.0064 5.48412 19.0328 5.11392 18.9232 4.73995C18.7682 4.19976 18.1521 3.91266 17.6305 4.12798C17.4112 4.21864 17.2298 4.35842 17.0899 4.55107C16.8934 4.8155 16.7611 5.11014 16.6439 5.41613C16.6099 5.51056 16.6212 5.59367 16.6703 5.68433C16.9879 6.23208 17.192 6.82515 17.3734 7.42956C17.3923 7.48244 17.4112 7.53911 17.4377 7.61843ZM17.6191 8.49105C17.7514 8.41172 17.8724 8.3475 17.982 8.26817C18.1332 8.15485 18.2731 8.02641 18.4205 7.90553C19.0517 7.39178 19.4524 6.72315 19.7321 5.9752C19.9136 5.49167 19.9438 5.0006 19.8342 4.4944C19.7094 3.92777 19.3617 3.55002 18.8249 3.33848C18.651 3.27048 18.4583 3.23649 18.2731 3.19871C17.6267 3.05894 17.0786 3.27048 16.5985 3.67468C16.3075 3.92022 16.0958 4.23753 15.9068 4.55485C16.1071 4.88727 16.3566 5.19703 16.4965 5.28769C16.5758 4.99304 16.6703 4.70595 16.8291 4.44152C16.9954 4.16198 17.2298 3.96177 17.5284 3.82578C18.3109 3.47069 19.1198 4.01466 19.2861 4.63418C19.3655 4.92883 19.3957 5.22725 19.3503 5.53323C19.2407 6.26607 18.9005 6.87803 18.3222 7.35023C18.0689 7.55421 17.8006 7.73554 17.5208 7.93953C17.5171 8.10952 17.5397 8.29084 17.6191 8.49105ZM5.11117 5.13659C5.24347 5.01948 5.36443 4.90993 5.43247 4.76639C5.20189 4.30553 4.57819 3.75023 4.13216 3.48203C3.7277 3.23649 3.30056 3.19115 2.84697 3.31959C1.87551 3.59535 1.14597 4.45285 1.32741 5.65411C1.49373 6.77604 2.14767 7.62599 3.09266 8.26062C3.19094 8.32861 3.30434 8.39283 3.4442 8.38527C3.49334 8.16995 3.5387 7.96597 3.58406 7.76576C3.5387 7.72798 3.50846 7.69776 3.47444 7.6751C2.94902 7.30867 2.52188 6.84781 2.14011 6.34162C1.98891 6.13764 1.86795 5.91854 1.77723 5.68055C1.69407 5.46145 1.65627 5.23481 1.67895 5.00437C1.73565 4.41508 2.13632 3.68979 3.10778 3.7729C3.62564 3.81823 4.05655 4.04866 4.44211 4.37353C4.57063 4.48307 4.68781 4.60395 4.79743 4.73239C4.90705 4.85327 5.00155 4.98926 5.11117 5.13659Z" fill="#020304"/>
<path d="M17.6645 8.80081C17.6645 8.89525 17.6569 8.96701 17.6645 9.03879C17.8308 10.24 17.6305 11.3884 17.1617 12.5028C17.0975 12.6577 17.0332 12.8126 16.9538 12.9599C16.5456 13.7418 16.1374 14.52 15.646 15.2529C15.423 15.5815 15.1886 15.9064 14.9429 16.2237C14.5271 16.7525 14.1 17.2701 13.6804 17.7989C13.5443 17.9689 13.3818 18.0709 13.1739 18.154C12.7203 18.3315 12.2591 18.4033 11.779 18.4147C11.1554 18.426 10.5279 18.4487 9.90418 18.46C9.56398 18.4675 9.22757 18.426 8.89493 18.3542C8.66813 18.3051 8.43755 18.2636 8.20697 18.222C7.93103 18.1729 7.70045 18.0709 7.57949 17.8027C7.55681 17.7574 7.51901 17.7158 7.48122 17.6818C7.29222 17.5269 7.15236 17.3305 7.00494 17.1341C6.60048 16.5977 6.24138 16.031 5.90497 15.4493C5.17543 14.1838 4.51771 12.8881 3.98851 11.532C3.7088 10.818 3.51602 10.0814 3.4253 9.31833C3.40262 9.13323 3.39884 8.94435 3.3875 8.76303C3.35348 8.74036 3.3308 8.7177 3.30056 8.70637C2.74868 8.49483 2.33667 8.10951 1.97379 7.66376C1.63737 7.25579 1.36899 6.81004 1.18377 6.3114C0.994773 5.80899 0.953193 5.29525 1.05147 4.77017C1.22157 3.86734 1.98891 3.13449 2.90744 2.9645C3.41396 2.87006 3.87512 2.96072 4.30225 3.24026C4.66891 3.47825 4.99021 3.76156 5.25481 4.1091C5.36821 4.25642 5.49294 4.39997 5.60634 4.53974C5.69328 4.54729 5.72353 4.48308 5.76889 4.4453C6.07506 4.15821 6.38124 3.86733 6.68364 3.57646C6.78192 3.48203 6.87264 3.38381 6.97848 3.27048C6.918 3.21382 6.87642 3.17227 6.83106 3.13449C6.63072 2.97584 6.51732 2.76807 6.47952 2.52253C6.43416 2.2241 6.49086 1.93701 6.62316 1.6688C6.71388 1.4837 6.87642 1.36283 7.06164 1.27594C7.26576 1.17773 7.47744 1.11728 7.70045 1.09462C8.10113 1.05684 8.50181 1.01151 8.90627 1.00773C9.70006 0.996401 10.4976 0.996402 11.2914 1.01529C12.055 1.0304 12.8185 1.06062 13.5821 1.10217C13.8769 1.11728 14.1718 1.16261 14.4666 1.21172C15.1546 1.32882 15.4418 1.83879 15.3095 2.4772C15.2302 2.86628 15.1281 3.00605 14.7312 3.26293C15.0676 3.6369 15.404 4.0071 15.7367 4.37353C15.8312 4.35842 15.8312 4.27908 15.8614 4.23375C15.9521 4.09398 16.0353 3.94666 16.126 3.80689C16.4322 3.35359 16.8707 3.07405 17.3885 2.90406C17.6494 2.82096 17.9102 2.82095 18.1748 2.8474C18.6586 2.89273 19.1122 3.01738 19.494 3.33092C19.838 3.61424 20.0723 3.96555 20.1744 4.39997C20.2953 4.9326 20.2916 5.45768 20.1177 5.97898C19.838 6.80626 19.3957 7.53533 18.7002 8.0944C18.3713 8.35505 18.05 8.63082 17.6645 8.80081ZM14.5687 3.31959C13.9979 3.36114 13.4385 3.36492 12.8752 3.34981C12.1419 3.32714 11.4124 3.3007 10.6791 3.28559C10.1688 3.27426 9.66226 3.2667 9.15196 3.27803C8.56985 3.28937 7.98773 3.32337 7.40183 3.33848C7.26575 3.34225 7.15991 3.38381 7.06542 3.48203C6.87264 3.67468 6.65718 3.84844 6.47574 4.05243C6.06372 4.51329 5.65926 4.98926 5.25859 5.46145C4.97131 5.79766 4.73317 6.16786 4.49881 6.54183C4.14728 7.10091 3.92804 7.70532 3.81464 8.35128C3.75038 8.70637 3.74282 9.05768 3.79196 9.41277C3.88646 10.0776 4.05278 10.7236 4.29848 11.3506C4.63111 12.1893 5.01667 13.0014 5.42491 13.8061C5.51563 13.9836 5.61769 14.1536 5.70463 14.3122C5.98813 14.3651 6.24894 14.4142 6.50598 14.4671C6.54756 14.4747 6.58158 14.5162 6.63828 14.554C6.38502 14.6296 6.15445 14.6296 5.91253 14.6031C5.90497 14.6938 5.92764 14.7467 5.9919 14.7693C6.07128 14.7958 6.15444 14.8109 6.2376 14.8298C6.52488 14.894 6.81594 14.9582 7.10322 15.0262C7.15992 15.0413 7.21284 15.0715 7.30356 15.1131C7.14858 15.1811 7.02384 15.1886 6.90288 15.1849C6.7668 15.1811 6.63072 15.1584 6.49464 15.1357C6.37746 15.1169 6.27162 15.0413 6.1431 15.064C6.20736 15.3511 6.38502 15.4531 6.6534 15.4606C6.86508 15.4644 7.07676 15.4946 7.28844 15.5097C7.56438 15.5286 7.82519 15.6268 8.08979 15.6948C8.10491 15.6986 8.11625 15.725 8.14271 15.759C7.96883 15.7855 7.80251 15.8195 7.63997 15.8346C7.25442 15.8686 6.89532 15.725 6.5022 15.6646C6.52488 15.8081 6.60804 15.8988 6.68742 16.0159C6.9936 16.0612 7.30733 16.1104 7.62107 16.1481C8.01041 16.1935 8.39975 16.2426 8.77774 16.3483C8.842 16.3672 8.90248 16.4012 8.98564 16.4352C8.93272 16.4617 8.91005 16.4881 8.87981 16.4919C8.59631 16.5259 8.30903 16.5485 8.02553 16.4919C7.70423 16.4277 7.38294 16.3559 7.06164 16.2917C7.00872 16.2803 6.94068 16.2388 6.89532 16.3143C6.93312 16.507 7.09944 16.5448 7.25064 16.575C7.66643 16.6619 8.08223 16.7412 8.49803 16.8205C8.56985 16.8356 8.64545 16.8394 8.72105 16.8394C9.12928 16.8356 9.51862 16.9414 9.90796 17.0434C9.94198 17.051 9.96466 17.0887 10.0176 17.1303C9.53374 17.2209 9.08014 17.2285 8.62655 17.1832C8.24477 17.1454 7.88189 17.0245 7.51146 16.9301C7.45476 16.915 7.39806 16.9187 7.32246 16.9112C7.4094 17.1567 7.55303 17.2889 7.79117 17.3569C8.27501 17.4929 8.76262 17.5723 9.26158 17.5911C9.5791 17.6025 9.89662 17.6403 10.2104 17.6705C10.2708 17.678 10.3389 17.678 10.3842 17.7649C10.2368 17.7876 10.0932 17.8102 9.94954 17.8254C9.80212 17.8405 9.6547 17.8518 9.50351 17.8594C9.35609 17.8669 9.20488 17.8669 9.05746 17.8631C8.91005 17.8594 8.75885 17.8518 8.61521 17.8291C8.46779 17.8065 8.32793 17.7649 8.18051 17.7385C8.04065 17.712 7.91591 17.6289 7.72313 17.6251C7.77983 17.6969 7.80251 17.7498 7.84031 17.7725C7.93103 17.8216 8.02931 17.8745 8.13137 17.8971C8.61521 18.018 9.09905 18.1351 9.60178 18.1502C10.4939 18.1842 11.3821 18.1465 12.2742 18.086C12.4632 18.0747 12.6484 18.018 12.8374 17.9878C12.9849 17.9651 13.0869 17.8971 13.1474 17.7574C13.1852 17.6743 13.257 17.6063 13.3175 17.5307C13.6615 17.119 14.0017 16.7034 14.3532 16.2992C14.8522 15.725 15.2869 15.1093 15.6762 14.4596C15.9748 13.9647 16.2545 13.4623 16.5343 12.9561C16.7686 12.533 16.9463 12.0835 17.0899 11.6264C17.3167 10.9087 17.415 10.1758 17.3356 9.43166C17.2827 8.93302 17.2184 8.43438 17.1202 7.9433C16.9387 7.04425 16.6439 6.18297 16.1071 5.42746C15.6157 4.70972 15.0865 4.01843 14.5687 3.31959ZM10.4409 2.96072C11.1667 2.9985 11.9265 3.04005 12.69 3.07783C13.1965 3.10427 13.7031 3.17605 14.2058 3.04005C14.3381 3.00228 14.478 2.99094 14.6065 2.95317C14.7312 2.91917 14.8371 2.83984 14.8975 2.72274C14.9807 2.56408 15.0336 2.39409 15.0336 2.21277C15.0298 1.8879 14.89 1.64992 14.5725 1.53281C14.4931 1.50259 14.4137 1.47615 14.3305 1.46482C14.1529 1.4346 13.9752 1.40437 13.7938 1.39682C12.8828 1.35527 11.9718 1.31372 11.0609 1.28727C10.5619 1.27216 10.0629 1.29105 9.56776 1.28349C8.95163 1.27216 8.33927 1.31749 7.73069 1.40815C7.54548 1.43459 7.36404 1.49881 7.18638 1.56303C7.06542 1.60459 6.96714 1.68769 6.89154 1.79346C6.6723 2.11455 6.7101 2.67363 6.96714 2.97205C7.02006 3.0325 7.08053 3.06271 7.15991 3.05894C7.20149 3.05894 7.24308 3.05516 7.28844 3.05139C8.32793 3.02117 9.36364 2.99094 10.4409 2.96072ZM4.90327 5.39724C4.72561 5.07237 4.46857 4.8495 4.22665 4.61529C3.98852 4.38486 3.69368 4.23753 3.37994 4.13554C3.1985 4.0751 3.00572 4.05999 2.81294 4.08265C2.54456 4.11665 2.33667 4.24131 2.18547 4.46796C1.97757 4.78528 1.92843 5.12526 2.03049 5.4879C2.10609 5.76366 2.24595 6.0092 2.40849 6.24341C2.72978 6.70049 3.09266 7.1198 3.5009 7.50133C3.53492 7.53155 3.5765 7.55422 3.63698 7.59577C3.90914 6.76093 4.39297 6.07719 4.90327 5.39724ZM17.4377 7.61843C17.5208 7.5731 17.5851 7.54288 17.6418 7.50133C17.9366 7.27846 18.2126 7.03292 18.4432 6.74582C18.6548 6.47762 18.806 6.17919 18.9005 5.85432C19.0064 5.48412 19.0328 5.11392 18.9232 4.73995C18.7682 4.19976 18.1521 3.91266 17.6305 4.12798C17.4112 4.21864 17.2298 4.35842 17.0899 4.55107C16.8934 4.8155 16.7611 5.11014 16.6439 5.41613C16.6099 5.51056 16.6212 5.59367 16.6703 5.68433C16.9879 6.23208 17.192 6.82515 17.3734 7.42956C17.3923 7.48244 17.4112 7.53911 17.4377 7.61843ZM17.6191 8.49105C17.7514 8.41172 17.8724 8.3475 17.982 8.26817C18.1332 8.15485 18.2731 8.02641 18.4205 7.90553C19.0517 7.39178 19.4524 6.72315 19.7321 5.9752C19.9136 5.49167 19.9438 5.0006 19.8342 4.4944C19.7094 3.92777 19.3617 3.55002 18.8249 3.33848C18.651 3.27048 18.4583 3.23649 18.2731 3.19871C17.6267 3.05894 17.0786 3.27048 16.5985 3.67468C16.3075 3.92022 16.0958 4.23753 15.9068 4.55485C16.1071 4.88727 16.3566 5.19703 16.4965 5.28769C16.5758 4.99304 16.6703 4.70595 16.8291 4.44152C16.9954 4.16198 17.2298 3.96177 17.5284 3.82578C18.3109 3.47069 19.1198 4.01466 19.2861 4.63418C19.3655 4.92883 19.3957 5.22725 19.3503 5.53323C19.2407 6.26607 18.9005 6.87803 18.3222 7.35023C18.0689 7.55421 17.8006 7.73554 17.5208 7.93953C17.5171 8.10952 17.5397 8.29084 17.6191 8.49105ZM5.11117 5.13659C5.24347 5.01948 5.36443 4.90993 5.43247 4.76639C5.20189 4.30553 4.57819 3.75023 4.13216 3.48203C3.7277 3.23649 3.30056 3.19115 2.84697 3.31959C1.87551 3.59535 1.14597 4.45285 1.32741 5.65411C1.49373 6.77604 2.14767 7.62599 3.09266 8.26062C3.19094 8.32861 3.30434 8.39283 3.4442 8.38527C3.49334 8.16995 3.5387 7.96597 3.58406 7.76576C3.5387 7.72798 3.50846 7.69776 3.47444 7.6751C2.94902 7.30867 2.52188 6.84781 2.14011 6.34162C1.98891 6.13764 1.86795 5.91854 1.77723 5.68055C1.69407 5.46145 1.65627 5.23481 1.67895 5.00437C1.73565 4.41508 2.13632 3.68979 3.10778 3.7729C3.62564 3.81823 4.05655 4.04866 4.44211 4.37353C4.57063 4.48307 4.68781 4.60395 4.79743 4.73239C4.90705 4.85327 5.00155 4.98926 5.11117 5.13659Z" stroke="black" stroke-width="0.2" mask="url(#path-1-outside-1_2_5505)"/>
<path d="M12.9716 5.70397L12.9743 5.75738C12.9824 5.91962 12.9337 6.07146 12.8801 6.20532L12.8799 6.20587C12.7436 6.5349 12.5999 6.86006 12.4564 7.18459L12.456 7.18534L12.4559 7.18565C12.4258 7.2524 12.3955 7.3181 12.3646 7.38511C12.3307 7.45876 12.296 7.53399 12.2601 7.61393C12.3314 7.64936 12.4007 7.68316 12.47 7.71705C12.5422 7.75228 12.6145 7.7876 12.6894 7.8248C12.7392 7.76849 12.7835 7.71733 12.825 7.66634C12.9143 7.55485 13.0033 7.44195 13.0925 7.32881C13.2441 7.13658 13.3962 6.94365 13.5509 6.75573M12.9716 5.70397L13.5511 6.75559C13.551 6.75563 13.551 6.75568 13.5509 6.75573M12.9716 5.70397L12.9185 5.71022C12.8389 5.71958 12.7887 5.7574 12.7557 5.80506C12.7319 5.83938 12.7165 5.88071 12.7048 5.91219C12.7022 5.91929 12.6997 5.92588 12.6974 5.93178C12.4522 6.40682 12.2107 6.88183 11.9694 7.35669C11.9459 7.39775 11.9222 7.43926 11.8966 7.48628C11.8487 7.46815 11.8001 7.45766 11.7563 7.44817C11.7441 7.44553 11.7322 7.44296 11.7209 7.44033C11.6622 7.42677 11.6118 7.41104 11.5676 7.3783C11.608 7.0666 11.6485 6.75847 11.6925 6.44683L11.6925 6.44635C11.7171 6.25967 11.7435 6.0739 11.77 5.88781L11.77 5.8878C11.7964 5.7018 11.8229 5.51549 11.8475 5.32819L11.7979 5.32168M12.9716 5.70397L10.3305 7.32478M13.5509 6.75573C13.5546 6.75123 13.5585 6.74628 13.5627 6.741C13.5829 6.71529 13.6091 6.68195 13.6421 6.6569C13.6855 6.62392 13.741 6.60383 13.8151 6.61309L13.8679 6.61969L13.858 6.67201C13.8432 6.75011 13.8107 6.81636 13.7747 6.87601C13.757 6.90527 13.7381 6.93354 13.72 6.96066L13.7192 6.96193C13.7006 6.98976 13.6828 7.0164 13.6665 7.04353L13.6663 7.04394C13.6214 7.11714 13.5746 7.18959 13.5285 7.26089C13.5008 7.30382 13.4733 7.34632 13.4467 7.38832L13.4465 7.38861L13.4464 7.38881C13.3786 7.49419 13.3101 7.60059 13.2378 7.70336C13.1929 7.77056 13.1446 7.83771 13.0949 7.90666C13.0691 7.9425 13.0429 7.97883 13.0167 8.01592C13.0241 8.02293 13.0313 8.02982 13.0384 8.03661C13.0739 8.07034 13.1065 8.1014 13.1414 8.13131C13.1416 8.13153 13.1419 8.13175 13.1421 8.13198L13.1096 8.16995C13.5367 8.50615 13.8694 8.92546 14.1567 9.38254L13.5509 6.75573ZM11.7979 5.32168C11.7989 5.31506 11.8001 5.30821 11.8014 5.3012C11.8103 5.25214 11.8206 5.19513 11.7413 5.15547C11.6725 5.24138 11.6412 5.3398 11.6105 5.43651C11.6075 5.4461 11.6045 5.45568 11.6014 5.46523L11.643 6.43983C11.6675 6.25285 11.694 6.0668 11.7205 5.88076C11.7469 5.69471 11.7734 5.50867 11.7979 5.32168ZM11.7979 5.32168L11.8474 5.32875C11.8482 5.32323 11.8493 5.31732 11.8506 5.31013L11.8507 5.3098C11.8519 5.303 11.8533 5.29512 11.8545 5.28702C11.8569 5.27065 11.8588 5.25058 11.856 5.22934C11.8532 5.2074 11.8455 5.18458 11.8295 5.16317C11.8137 5.14204 11.7916 5.12473 11.7636 5.11074L11.7275 5.09268L11.7022 5.12422C11.6273 5.21781 11.5933 5.32512 11.5631 5.4208C11.5599 5.43064 11.5569 5.44035 11.5538 5.44992L11.5537 5.45035C11.4092 5.91375 11.3028 6.3849 11.2381 6.86378L11.2381 6.86378L11.238 6.8647C11.2365 6.87771 11.235 6.89069 11.2335 6.90366C11.2176 7.04258 11.202 7.17935 11.1549 7.32333C11.1025 7.31944 11.0504 7.31871 11.0001 7.31801C10.9773 7.31769 10.9548 7.31737 10.9328 7.31677C10.8603 7.31478 10.7897 7.30975 10.7177 7.2928V7.29276V7.2921V7.29143V7.29076V7.2901V7.28943V7.28877V7.2881V7.28743V7.28677V7.2861V7.28544V7.28478V7.28411V7.28345V7.28279V7.28212V7.28146V7.2808V7.28014V7.27947V7.27881V7.27815V7.27749V7.27683V7.27617V7.27551V7.27485V7.27419V7.27353V7.27287V7.27222V7.27156V7.2709V7.27024V7.26958V7.26893V7.26827V7.26761V7.26696V7.2663V7.26565V7.26499V7.26434V7.26368V7.26303V7.26237V7.26172V7.26106V7.26041V7.25976V7.2591V7.25845V7.2578V7.25715V7.2565V7.25584V7.25519V7.25454V7.25389V7.25324V7.25259V7.25194V7.25129V7.25064V7.24999V7.24934V7.2487V7.24805V7.2474V7.24675V7.2461V7.24546V7.24481V7.24416V7.24352V7.24287V7.24222V7.24158V7.24093V7.24029V7.23964V7.239V7.23835V7.23771V7.23706V7.23642V7.23578V7.23513V7.23449V7.23385V7.23321V7.23256V7.23192V7.23128V7.23064V7.23V7.22936V7.22872V7.22807V7.22743V7.22679V7.22615V7.22552V7.22488V7.22424V7.2236V7.22296V7.22232V7.22168V7.22104V7.22041V7.21977V7.21913V7.2185V7.21786V7.21722V7.21659V7.21595V7.21531V7.21468V7.21404V7.21341V7.21277V7.21214V7.2115V7.21087V7.21023V7.2096V7.20897V7.20833V7.2077V7.20707V7.20643V7.2058V7.20517V7.20454V7.20391V7.20327V7.20264V7.20201V7.20138V7.20075V7.20012V7.19949V7.19886V7.19823V7.1976V7.19697V7.19634V7.19571V7.19508V7.19445V7.19382V7.1932V7.19257V7.19194V7.19131V7.19069V7.19006V7.18943V7.1888V7.18818V7.18755V7.18692V7.1863V7.18567V7.18505V7.18442V7.1838V7.18317V7.18255V7.18192V7.1813V7.18067V7.18005V7.17942V7.1788V7.17818V7.17755V7.17693V7.17631V7.17568V7.17506V7.17444V7.17382V7.17319V7.17257V7.17195V7.17133V7.17071V7.17009V7.16946V7.16884V7.16822V7.1676V7.16698V7.16636V7.16574V7.16512V7.1645V7.16388V7.16326V7.16264V7.16202V7.16141V7.16079V7.16017V7.15955V7.15893V7.15831V7.1577V7.15708V7.15646V7.15584V7.15523V7.15461V7.15399V7.15338V7.15276V7.15214V7.15153V7.15091V7.1503V7.14968V7.14906V7.14845V7.14783V7.14722V7.1466V7.14599V7.14537V7.14476V7.14415V7.14353V7.14292V7.1423V7.14169V7.14108V7.14046V7.13985V7.13924V7.13862V7.13801V7.1374V7.13678V7.13617V7.13556V7.13495V7.13434V7.13372V7.13311V7.1325V7.13189V7.13128V7.13067V7.13006V7.12944V7.12883V7.12822V7.12761V7.127V7.12639V7.12578V7.12517V7.12456V7.12395V7.12334V7.12273V7.12212V7.12151V7.12091V7.1203V7.11969V7.11908V7.11847V7.11786V7.11725V7.11664V7.11604V7.11543V7.11482V7.11421V7.11361V7.113V7.11239V7.11178V7.11118V7.11057V7.10996V7.10935V7.10875V7.10814V7.10753V7.10693V7.10632V7.10572V7.10511V7.1045V7.1039V7.10329V7.10269V7.10208V7.10148V7.10087V7.10026V7.09966V7.09905V7.09845V7.09784V7.09724V7.09664V7.09603V7.09543V7.09482V7.09422V7.09361V7.09301V7.0924V7.0918V7.0912V7.09059V7.08999V7.08939V7.08878V7.08818V7.08758V7.08697V7.08637V7.08577V7.08516V7.08456V7.08396V7.08336V7.08275V7.08215V7.08155V7.08095V7.08034V7.07974V7.07914V7.07854V7.07793V7.07733V7.07673V7.07613V7.07553V7.07493V7.07432V7.07372V7.07312V7.07252V7.07192V7.07132V7.07072V7.07012V7.06951V7.06891V7.06831V7.06771V7.06711V7.06651V7.06591V7.06531V7.06471V7.06411V7.06351V7.06291V7.06231V7.06171V7.06111V7.06051V7.05991V7.05931V7.05871V7.05811V7.05751V7.05691V7.05631V7.05571V7.05511V7.05451V7.05391V7.05331V7.05271V7.05211V7.05151V7.05091V7.05032V7.04972V7.04912V7.04852V7.04792V7.04732V7.04672V7.04612V7.04552V7.04493V7.04433V7.04373V7.04313V7.04253V7.04193V7.04133V7.04073V7.04014V7.03954V7.03894V7.03834V7.03774V7.03714V7.03655V7.03595V7.03535V7.03475V7.03415V7.03356V7.03296V7.03236V7.03176V7.03116V7.03056V7.02997V7.02937V7.02877V7.02817V7.02758V7.02698V7.02638V7.02578V7.02518V7.02459V7.02399V7.02339V7.02279V7.02219V7.0216V7.021V7.0204V7.0198V7.01921V7.01861V7.01801V7.01741V7.01682V7.01622V7.01562V7.01502V7.01442V7.01383V7.01323V7.01263V7.01203V7.01144V7.01084L10.7177 7.01024L10.7177 7.00967C10.7152 6.79139 10.7144 6.57271 10.7135 6.3538C10.7119 5.91513 10.7102 5.47556 10.695 5.03664L10.695 5.03642C10.6867 4.82424 10.6525 4.6126 10.6187 4.40365C10.6056 4.3231 10.5927 4.24295 10.5813 4.16332C10.5812 4.16231 10.5811 4.16111 10.5809 4.15974C10.5797 4.14554 10.5768 4.11348 10.5594 4.08767C10.5351 4.05188 10.4938 4.03792 10.4424 4.04025L10.409 4.04177L10.3976 4.07333C10.3492 4.20841 10.3418 4.34687 10.3437 4.48142C10.3444 4.52818 10.3461 4.57378 10.3478 4.61871C10.3511 4.70608 10.3544 4.79092 10.3494 4.87685L10.3494 4.87693C10.3393 5.05958 10.3393 5.2434 10.3393 5.42558C10.3393 5.51589 10.3393 5.6058 10.338 5.69496L10.338 5.69499L10.3379 5.70651C10.3341 5.98583 10.3305 6.26196 10.3305 6.54182V6.54342V6.54501V6.5466V6.5482V6.54979V6.55138V6.55298V6.55457V6.55616V6.55776V6.55935V6.56094V6.56253V6.56413V6.56572V6.56731V6.5689V6.5705V6.57209V6.57368V6.57527V6.57686V6.57846V6.58005V6.58164V6.58323V6.58482V6.58641V6.58801V6.5896V6.59119V6.59278V6.59437V6.59596V6.59755V6.59914V6.60073V6.60232V6.60392V6.60551V6.6071V6.60869V6.61028V6.61187V6.61346V6.61505V6.61664V6.61823V6.61982V6.62141V6.623V6.62459V6.62618V6.62777V6.62936V6.63095V6.63254V6.63413V6.63572V6.63731V6.6389V6.64048V6.64207V6.64366V6.64525V6.64684V6.64843V6.65002V6.65161V6.6532V6.65479V6.65637V6.65796V6.65955V6.66114V6.66273V6.66432V6.66591V6.66749V6.66908V6.67067V6.67226V6.67385V6.67544V6.67702V6.67861V6.6802V6.68179V6.68338V6.68496V6.68655V6.68814V6.68973V6.69132V6.6929V6.69449V6.69608V6.69767V6.69925V6.70084V6.70243V6.70402V6.7056V6.70719V6.70878V6.71037V6.71195V6.71354V6.71513V6.71671V6.7183V6.71989V6.72148V6.72306V6.72465V6.72624V6.72782V6.72941V6.731V6.73259V6.73417V6.73576V6.73735V6.73893V6.74052V6.74211V6.74369V6.74528V6.74687V6.74845V6.75004V6.75163V6.75321V6.7548V6.75639V6.75797V6.75956V6.76115V6.76273V6.76432V6.76591V6.76749V6.76908V6.77067V6.77225V6.77384V6.77542V6.77701V6.7786V6.78018V6.78177V6.78336V6.78494V6.78653V6.78812V6.7897V6.79129V6.79287V6.79446V6.79605V6.79763V6.79922V6.80081V6.80239V6.80398V6.80557V6.80715V6.80874V6.81032V6.81191V6.8135V6.81508V6.81667V6.81826V6.81984V6.82143V6.82301V6.8246V6.82619V6.82777V6.82936V6.83095V6.83253V6.83412V6.8357V6.83729V6.83888V6.84046V6.84205V6.84364V6.84522V6.84681V6.8484V6.84998V6.85157V6.85315V6.85474V6.85633V6.85791V6.8595V6.86109V6.86267V6.86426V6.86585V6.86743V6.86902V6.87061V6.87219V6.87378V6.87537V6.87695V6.87854V6.88013V6.88171V6.8833V6.88489V6.88647V6.88806V6.88965V6.89123V6.89282V6.89441V6.896V6.89758V6.89917V6.90076V6.90234V6.90393V6.90552V6.9071V6.90869V6.91028V6.91187V6.91345V6.91504V6.91663V6.91822V6.9198V6.92139V6.92298V6.92457V6.92615V6.92774V6.92933V6.93092V6.9325V6.93409V6.93568V6.93727V6.93885V6.94044V6.94203V6.94362V6.94521V6.94679V6.94838V6.94997V6.95156V6.95315V6.95474V6.95632V6.95791V6.9595V6.96109V6.96268V6.96427V6.96585V6.96744V6.96903V6.97062V6.97221V6.9738V6.97539V6.97698V6.97857V6.98015V6.98174V6.98333V6.98492V6.98651V6.9881V6.98969V6.99128V6.99287V6.99446V6.99605V6.99764V6.99923V7.00082V7.00241V7.004V7.00559V7.00718V7.00877V7.01036V7.01195V7.01354V7.01513V7.01672V7.01831V7.0199V7.02149V7.02308V7.02467V7.02626V7.02785V7.02944V7.03104V7.03263V7.03422V7.03581V7.0374V7.03899V7.04058V7.04217V7.04377V7.04536V7.04695V7.04854V7.05013V7.05173V7.05332V7.05491V7.0565V7.05809V7.05969V7.06128V7.06287V7.06446V7.06606V7.06765V7.06924V7.07083V7.07243V7.07402V7.07561V7.07721V7.0788V7.08039V7.08199V7.08358V7.08517V7.08677V7.08836V7.08996V7.09155V7.09314V7.09474V7.09633V7.09793V7.09952V7.10112V7.10271V7.10431V7.1059V7.1075V7.10909V7.11069V7.11228V7.11388V7.11547V7.11707V7.11866V7.12026V7.12185V7.12345V7.12505V7.12664V7.12824V7.12983V7.13143V7.13303V7.13462V7.13622V7.13782V7.13941V7.14101V7.14261V7.14421V7.1458V7.1474V7.149V7.1506V7.15219V7.15379V7.15539V7.15699V7.15859V7.16018V7.16178V7.16338V7.16498V7.16658V7.16818V7.16978V7.17138V7.17297V7.17457V7.17617V7.17777V7.17937V7.18097V7.18257V7.18417V7.18577V7.18737V7.18897V7.19057V7.19217V7.19377V7.19538V7.19698V7.19858V7.20018V7.20178V7.20338V7.20498V7.20658V7.20819V7.20979V7.21139V7.21299V7.2146V7.2162V7.2178V7.2194V7.22101V7.22261V7.22421V7.22582V7.22742V7.22902V7.23063V7.23223V7.23383V7.23544V7.23704V7.23865V7.24025V7.24185V7.24346V7.24506V7.24667V7.24827V7.24988V7.25149V7.25309V7.2547V7.2563V7.25791V7.25951V7.26112V7.26273V7.26433V7.26594V7.26755V7.26915V7.27076V7.27237V7.27398V7.27558V7.27719V7.2788V7.28041V7.28202V7.28362V7.28523V7.28684V7.28845V7.29006V7.29167V7.29328V7.29489V7.2965V7.2981V7.29971V7.30132V7.30293V7.30454V7.30616V7.30777V7.30938V7.31099V7.3126V7.31421V7.31582V7.31743V7.31904V7.32066V7.32227V7.32388V7.32478M10.3305 7.32478C10.176 7.38759 10.0205 7.40114 9.85499 7.41139C9.84763 7.39246 9.84039 7.37518 9.83347 7.35895C9.83119 7.3536 9.82897 7.34841 9.82679 7.34334C9.81831 7.32356 9.81062 7.30561 9.80343 7.28693L9.80343 7.28693L9.80318 7.28631C9.76065 7.18005 9.71831 7.07315 9.67586 6.96598C9.55266 6.65493 9.42854 6.34156 9.29615 6.03471L9.29611 6.03461C9.21887 5.85675 9.12398 5.6848 9.03083 5.516C9.01786 5.4925 9.00493 5.46906 8.99208 5.44567C8.99194 5.44542 8.99181 5.44518 8.99167 5.44493L8.94785 5.469C8.93589 5.44511 8.91183 5.42726 8.88046 5.40398C8.87695 5.40137 8.87335 5.3987 8.86966 5.39595C8.86922 5.38297 8.8691 5.36983 8.86932 5.35651L8.81933 5.35568L8.78641 5.39331C8.79822 5.40364 8.80987 5.41307 8.82085 5.42162C8.82911 5.55318 8.86707 5.66733 8.90346 5.77673C8.92107 5.82966 8.9383 5.88149 8.95163 5.93364L10.3305 7.32478ZM8.70215 7.79597C8.64305 7.66423 8.56756 7.54615 8.49293 7.42941C8.44344 7.352 8.39432 7.27517 8.35061 7.19534L8.30679 7.21942C8.30678 7.2194 8.30677 7.21938 8.30676 7.21936C8.26341 7.14046 8.21805 7.06092 8.17251 6.98108C8.10872 6.86924 8.04459 6.75681 7.98521 6.64472C7.95347 6.58582 7.91843 6.52623 7.88188 6.4641C7.80054 6.3258 7.71176 6.17485 7.63537 5.99056L7.58232 5.86261L7.70486 5.92718C7.92269 6.04197 8.0264 6.17378 8.11888 6.30086L8.11897 6.30098C8.39514 6.68283 8.66369 7.07217 8.93187 7.46097L8.9323 7.4616L8.93234 7.46165C8.94887 7.48569 8.96424 7.50882 8.97964 7.53201C8.99895 7.56108 9.0183 7.59022 9.04007 7.62129C9.06775 7.61378 9.09407 7.60706 9.11937 7.60065C9.1232 7.59968 9.127 7.59872 9.13078 7.59776C9.16179 7.58992 9.19118 7.58249 9.22054 7.57436C9.24251 7.56705 9.26464 7.5598 9.28741 7.55235C9.32469 7.54015 9.36367 7.5274 9.40638 7.51287C9.39265 7.43704 9.36577 7.36563 9.33505 7.29265C9.3281 7.27616 9.3209 7.25946 9.31361 7.24258C9.28395 7.17381 9.25293 7.1019 9.23229 7.02735L9.23222 7.0271C9.19738 6.89854 9.15696 6.77243 9.11587 6.64423C9.0994 6.59284 9.08281 6.54111 9.06644 6.48875C9.05338 6.44699 9.04005 6.4052 9.02669 6.36336C8.9826 6.22522 8.93833 6.08648 8.90315 5.94591L8.63794 7.77657M8.70215 7.79597L8.67605 7.75332C8.66325 7.76116 8.65055 7.76891 8.63794 7.77657M8.70215 7.79597L8.65653 7.81643C8.65051 7.80302 8.64431 7.78973 8.63794 7.77657M8.70215 7.79597C8.51693 7.9093 8.35061 8.00751 8.15405 8.07929M8.63794 7.77657C8.4784 7.87358 8.33347 7.95672 8.16866 8.02039M8.15405 8.07929L8.19158 8.04624C8.1839 8.03753 8.17627 8.02892 8.16866 8.02039M8.15405 8.07929C8.11445 8.03431 8.0757 7.99191 8.03781 7.95044C7.99614 7.90484 7.95551 7.86037 7.91591 7.81486C7.87811 7.77142 7.84031 7.72703 7.80251 7.68264C7.76471 7.63826 7.72691 7.59387 7.68912 7.55043L8.16866 8.02039M8.15405 8.07929L8.1369 8.03232C8.14757 8.02842 8.15816 8.02444 8.16866 8.02039M7.05408 9.79807L7.01982 9.83449C6.94088 9.76025 6.91963 9.66297 6.9366 9.56017C6.98303 9.22066 7.10003 8.91323 7.37282 8.67617L7.37309 8.67594C7.48429 8.58069 7.59142 8.48201 7.70478 8.3776C7.74297 8.34242 7.78187 8.3066 7.82187 8.27003C7.79145 8.21938 7.76097 8.17062 7.73023 8.12146C7.56785 7.87617 7.4053 7.63061 7.24651 7.38501L7.88567 8.2795C7.83548 8.32519 7.78694 8.3699 7.73936 8.41373C7.62569 8.51842 7.51753 8.61804 7.40562 8.71391C7.1448 8.94056 7.0314 9.23522 6.98604 9.56764C6.97092 9.6583 6.98982 9.73763 7.05408 9.79807ZM7.05408 9.79807C7.06236 9.80603 7.07064 9.81401 7.07892 9.822C7.16902 9.90887 7.26019 9.99677 7.36404 10.0625M7.05408 9.79807L7.01943 9.83412C7.02781 9.84217 7.03622 9.85029 7.04468 9.85845C7.13407 9.94466 7.22885 10.0361 7.33721 10.1047M7.36404 10.0625L7.33721 10.1047M7.36404 10.0625C7.53036 10.1683 7.70801 10.2703 7.89323 10.3458M7.36404 10.0625L7.89323 10.3458M7.33721 10.1047C7.50464 10.2112 7.68516 10.3149 7.87435 10.3921L7.87474 10.3923C8.75313 10.7419 9.66694 10.9361 10.6195 10.9171M7.33721 10.1047L10.6195 10.9171M10.6195 10.9171C10.6196 10.9171 10.6196 10.9171 10.6196 10.9171L10.6186 10.8671M10.6195 10.9171C10.8681 10.9133 11.1122 10.8865 11.3543 10.8563M10.6186 10.8671C10.8643 10.8633 11.1062 10.8369 11.3481 10.8067M10.6186 10.8671C9.6736 10.886 8.76641 10.6933 7.89323 10.3458M10.6186 10.8671L7.89323 10.3458M11.3481 10.8067L11.3542 10.8563L11.3543 10.8563M11.3481 10.8067L11.3543 10.8563M11.3481 10.8067L11.3482 10.8067C11.7186 10.7613 12.089 10.716 12.4368 10.5838L11.3543 10.8563M12.535 9.05011L12.5826 9.06547C12.5826 9.06554 12.5826 9.06561 12.5826 9.06569C12.3909 9.65938 12.0674 10.1612 11.5224 10.5088L11.5204 10.5102L11.5203 10.5101C11.5162 10.5125 11.512 10.5152 11.5079 10.5182C12.3879 10.421 13.1758 10.0632 13.9635 9.63938C13.9795 9.63074 13.9956 9.62208 14.0116 9.61339C13.6888 9.36301 13.358 9.14424 12.9924 8.96701C12.9798 8.96072 12.9673 8.95434 12.9547 8.94796C12.8467 8.8931 12.7385 8.83818 12.6031 8.8348M12.535 9.05011C12.5459 9.01742 12.556 8.98474 12.5664 8.95079C12.5776 8.91412 12.5893 8.87599 12.6031 8.8348M12.535 9.05011C12.346 9.63563 12.0285 10.1267 11.4956 10.4667L12.535 9.05011ZM12.6031 8.8348L12.6018 8.88478C12.6143 8.88509 12.6266 8.88588 12.6386 8.8871C12.6424 8.87518 12.6464 8.86303 12.6505 8.85062L12.6031 8.8348ZM9.25024 6.05452C9.38231 6.36061 9.50602 6.67296 9.62915 6.98381C9.67165 7.09112 9.71408 7.19826 9.75676 7.30489C9.76432 7.32453 9.77249 7.34357 9.78102 7.36346C9.79381 7.39328 9.80741 7.42501 9.82102 7.46355C10.01 7.45221 10.1952 7.44088 10.3805 7.35777V6.54182C10.3805 6.26229 10.3841 5.98644 10.3879 5.70701L9.25024 6.05452ZM13.5531 8.94953C13.5786 8.97829 13.6043 9.00726 13.6305 9.03626L11.1667 8.23794C10.1083 8.16617 9.1066 8.3966 8.13515 8.79324L8.11627 8.74695C8.11626 8.74695 8.11626 8.74695 8.11625 8.74695C7.96714 8.80777 7.82049 8.87346 7.66537 8.94365C7.66549 8.94353 7.66562 8.9434 7.66575 8.94328C7.6722 8.93715 7.67919 8.93051 7.68666 8.92305L7.68677 8.92294C8.28396 8.3224 9.00798 7.95664 9.84182 7.79596L9.84182 7.79596L9.8424 7.79584C9.98917 7.76576 10.132 7.73947 10.2784 7.71696C11.4186 7.54195 12.3945 7.89103 13.2468 8.63449L13.2472 8.63478C13.3577 8.72946 13.454 8.83789 13.5531 8.94953ZM11.0882 9.71038L11.088 9.71039C10.9216 9.72078 10.7787 9.66241 10.6543 9.55935L10.6538 9.55896C10.4054 9.35836 10.4229 8.96673 10.6899 8.76922L10.69 8.76918C10.9209 8.59786 11.2881 8.60854 11.5084 8.79722C11.5955 8.87187 11.6537 8.95429 11.6829 9.04266C11.712 9.13072 11.7134 9.22791 11.682 9.33438L11.6819 9.33447C11.6238 9.53253 11.4784 9.64653 11.2693 9.69257L11.2693 9.69255L11.268 9.69289C11.2247 9.7037 11.1801 9.70583 11.1293 9.70826C11.116 9.70889 11.1023 9.70954 11.0882 9.71038ZM9.7182 10.5361C8.82984 10.4167 8.00108 10.1665 7.22699 9.66971C7.75308 9.26431 8.31612 8.98566 8.74938 8.90324C8.77618 9.00045 8.79739 9.08743 8.81729 9.16901C8.83002 9.2212 8.84221 9.27119 8.85499 9.32024C8.89027 9.45572 8.929 9.57965 8.99343 9.70769C9.11075 9.94085 9.31046 10.182 9.7182 10.5361Z" fill="#020304" stroke="black" stroke-width="0.1"/>
<path d="M16.2261 11.097L16.2326 11.1884C16.2634 11.6197 16.1751 12.1164 15.97 12.507C15.9621 12.5222 15.9543 12.5374 15.9464 12.5526C15.7427 12.9452 15.5365 13.3429 15.2948 13.7161L15.2947 13.7163C15.0269 14.1256 14.7355 14.5192 14.4455 14.911C14.3865 14.9908 14.3275 15.0705 14.2687 15.1503L14.2686 15.1505C14.1715 15.281 14.0575 15.4301 13.8824 15.4926L13.8592 15.5009L13.8384 15.4875C13.8183 15.4745 13.8016 15.4593 13.7906 15.4408C13.7789 15.4213 13.7751 15.4009 13.7771 15.3814C13.779 15.363 13.7858 15.3476 13.7917 15.3365C13.7961 15.3282 13.8016 15.3195 13.8055 15.3136C13.8065 15.312 13.8074 15.3106 13.8081 15.3094L16.2261 11.097ZM16.2261 11.097L16.1527 11.152M16.2261 11.097L16.1527 11.152M16.1527 11.152C16.138 11.163 16.1272 11.1701 16.1171 11.1768C16.1121 11.1801 16.1073 11.1833 16.1023 11.1867C16.09 11.1953 16.0717 11.2085 16.0617 11.2315L16.1527 11.152Z" fill="#020304" stroke="black" stroke-width="0.1"/>
<path d="M4.51771 8.21152L4.56757 8.20768C4.56747 8.20643 4.56737 8.20511 4.56727 8.20372C4.56568 8.18192 4.56289 8.14381 4.5423 8.11294C4.51602 8.07354 4.4712 8.05726 4.41366 8.05956L4.37988 8.06091L4.36855 8.09276C4.24756 8.43281 4.13741 8.7871 4.19609 9.17453C4.32176 10.027 4.60351 10.8257 5.00264 11.5855L5.00273 11.5856C5.06305 11.6995 5.13787 11.8075 5.21018 11.912C5.22149 11.9283 5.23273 11.9446 5.24386 11.9607L5.24384 11.9607L5.24462 11.9618C5.26679 11.9923 5.29483 12.0214 5.31962 12.0471C5.33064 12.0585 5.34101 12.0693 5.34995 12.0792L5.37329 12.1051L5.40566 12.0922L5.40668 12.0917C5.4154 12.0883 5.42699 12.0836 5.43742 12.0781C5.44745 12.0728 5.4632 12.0633 5.47406 12.047L5.48604 12.0291L5.48119 12.008L5.48075 12.0061C5.46971 11.9583 5.45757 11.9057 5.43704 11.8565L5.43705 11.8565L5.43651 11.8553C5.17625 11.2753 5.00478 10.6688 4.83167 10.0565C4.81995 10.015 4.80821 9.97345 4.79644 9.93192C4.71046 9.62181 4.65814 9.30804 4.63945 8.98679C4.62746 8.78014 4.606 8.57562 4.58454 8.3711C4.57879 8.31624 4.57303 8.26137 4.56746 8.20647L4.51771 8.21152ZM4.51771 8.21152C4.52333 8.2668 4.52911 8.32192 4.53488 8.37694C4.55632 8.58131 4.57762 8.78433 4.58953 8.98969L5.04691 11.5622C4.65001 10.8067 4.37029 10.0134 4.24556 9.16724C4.18886 8.79326 4.29469 8.4495 4.41565 8.10952C4.50958 8.10577 4.51389 8.16173 4.51765 8.21063L4.51771 8.21152Z" fill="#020304" stroke="black" stroke-width="0.1"/>
<path d="M10.5701 14.5726L10.612 14.6563L10.6583 14.575C10.7896 14.3442 10.8009 14.1138 10.8084 13.8988C10.8377 13.2904 10.806 12.6858 10.7744 12.0835C10.765 11.9054 10.7557 11.7275 10.748 11.5497C10.7478 11.4841 10.7356 11.4161 10.7202 11.3542C10.7144 11.329 10.7024 11.3074 10.6918 11.2904C10.6869 11.2823 10.6826 11.2758 10.6787 11.2697C10.6728 11.2607 10.6677 11.2529 10.6623 11.2433L10.6376 11.1987L10.5935 11.2243C10.5214 11.2662 10.4908 11.3216 10.4793 11.3797C10.4739 11.4069 10.4728 11.434 10.4724 11.4579C10.4723 11.4642 10.4722 11.4701 10.4721 11.4759C10.4719 11.4932 10.4718 11.5085 10.4705 11.5239C10.4325 11.9419 10.4297 12.3603 10.4316 12.7774C10.4319 12.8427 10.4323 12.9079 10.4327 12.9731C10.4349 13.3251 10.4371 13.6758 10.4212 14.0267H10.4212L10.4212 14.0272C10.4177 14.1294 10.4446 14.2374 10.4684 14.3329C10.4722 14.3479 10.4758 14.3626 10.4793 14.3769L10.4793 14.3769L10.4796 14.378C10.4885 14.4114 10.5026 14.4425 10.5183 14.4733C10.525 14.4866 10.5324 14.5004 10.5398 14.5144C10.541 14.5165 10.5421 14.5187 10.5432 14.5208C10.552 14.5373 10.5609 14.5543 10.5701 14.5726Z" fill="#020304" stroke="black" stroke-width="0.1"/>
<path d="M6.99418 4.42345L7.04229 4.31128L6.92931 4.35747C6.89371 4.37202 6.86963 4.38084 6.85203 4.38728C6.84955 4.38819 6.8472 4.38905 6.84496 4.38988L6.84391 4.39027C6.82797 4.39613 6.81149 4.40219 6.79729 4.41284L6.79727 4.41282L6.79592 4.4139C6.24716 4.85568 5.79072 5.38053 5.37357 5.93764C5.26761 6.07882 5.18542 6.2363 5.10518 6.39006C5.08865 6.42172 5.07221 6.45322 5.05566 6.48439L5.05565 6.48438L5.05511 6.48546C5.04117 6.51333 5.03686 6.54417 5.03399 6.57385C5.03292 6.58488 5.03204 6.59588 5.03112 6.60737C5.02935 6.62951 5.02744 6.65346 5.02375 6.68295L5.00877 6.80269L5.10405 6.72863C5.13007 6.70841 5.15117 6.69358 5.16977 6.6805C5.1747 6.67704 5.17945 6.6737 5.18407 6.67042C5.20524 6.65537 5.22542 6.64034 5.24276 6.6207C5.3629 6.49139 5.4815 6.36241 5.59976 6.23379C5.77228 6.04616 5.94408 5.85931 6.11892 5.67339C6.43617 5.34103 6.69155 4.96743 6.92669 4.58083L6.92672 4.58085L6.92767 4.57914C6.93881 4.5591 6.94738 4.53854 6.95685 4.51488C6.9587 4.51026 6.9606 4.50547 6.96258 4.50049C6.97092 4.47951 6.98069 4.45491 6.99418 4.42345Z" fill="#020304" stroke="black" stroke-width="0.1"/>
<path d="M9.91381 11.2268L9.9236 11.3109C9.95219 11.5566 9.91523 11.7765 9.88072 11.9819C9.8685 12.0547 9.85658 12.1256 9.84799 12.1952C9.84798 12.1953 9.84797 12.1953 9.84796 12.1954L9.79834 12.1893C9.78232 12.328 9.75311 12.4648 9.72401 12.6011C9.7119 12.6578 9.69982 12.7144 9.68872 12.771L9.91381 11.2268ZM9.91381 11.2268L9.84489 11.276C9.71747 11.3669 9.67991 11.4712 9.65124 11.5508C9.64684 11.563 9.64265 11.5746 9.63838 11.5855L9.63836 11.5855L9.63783 11.587C9.4973 11.9817 9.38303 12.3849 9.31438 12.8002L9.91381 11.2268Z" fill="#020304" stroke="black" stroke-width="0.1"/>
<path d="M11.9971 13.5016L11.9365 13.441C11.7461 13.2507 11.6416 13.0684 11.6015 12.8638M11.9971 13.5016L11.6505 12.8541M11.9971 13.5016L12.02 13.419C12.0909 13.163 12.071 12.9612 12.0202 12.766L12.0202 12.7657C11.9674 12.5547 11.9141 12.3416 11.8455 12.1321L11.8455 12.1321L11.8454 12.1319C11.7904 11.967 11.7265 11.804 11.6627 11.6413C11.6426 11.5902 11.6226 11.5392 11.6029 11.4881M11.9971 13.5016L11.798 12.1477C11.7434 11.9842 11.6802 11.8229 11.6165 11.6604C11.5963 11.6089 11.576 11.5573 11.556 11.5055M11.6015 12.8638C11.6015 12.8638 11.6015 12.8638 11.6015 12.8637L11.6505 12.8541M11.6015 12.8638C11.6015 12.8638 11.6015 12.8638 11.6015 12.8638L11.6505 12.8541M11.6015 12.8638C11.5182 12.4438 11.4463 12.0239 11.3745 11.6047L11.3745 11.6046L11.3743 11.6038L11.3743 11.6038C11.3696 11.5734 11.371 11.5432 11.3729 11.5177C11.3736 11.5091 11.3743 11.5012 11.3749 11.494C11.3764 11.4781 11.3775 11.4652 11.3775 11.4526V11.4224L11.4043 11.4083C11.4516 11.3836 11.499 11.3763 11.54 11.4007C11.5759 11.422 11.593 11.4606 11.6029 11.4881M11.6505 12.8541C11.5674 12.4348 11.4956 12.0155 11.4237 11.5962C11.4189 11.5646 11.4218 11.5315 11.4245 11.5009C11.4261 11.4838 11.4275 11.4675 11.4275 11.4526C11.5069 11.4111 11.5371 11.4526 11.556 11.5055M11.6029 11.4881C11.6028 11.4879 11.6028 11.4877 11.6027 11.4875L11.556 11.5055M11.6029 11.4881C11.603 11.4883 11.603 11.4885 11.6031 11.4887L11.556 11.5055" fill="#020304" stroke="black" stroke-width="0.1"/>
<path d="M12.7926 12.3651C12.9187 12.5462 13.0834 12.6828 13.269 12.7949L13.3128 12.8214L13.3382 12.7769C13.3436 12.7675 13.3482 12.7606 13.3527 12.7541C13.3535 12.7527 13.3544 12.7514 13.3553 12.7501C13.3576 12.7467 13.361 12.7415 13.3638 12.7361C13.3663 12.7312 13.3713 12.7205 13.3713 12.7068H13.3715L13.3711 12.7023C13.3703 12.6932 13.3698 12.6839 13.3694 12.6737C13.3694 12.6723 13.3693 12.671 13.3692 12.6696C13.3689 12.6607 13.3685 12.651 13.3679 12.6414C13.3663 12.6194 13.363 12.5938 13.3529 12.5681C13.178 12.0872 12.8517 11.7056 12.5332 11.3332C12.5074 11.303 12.4816 11.2728 12.4559 11.2427L12.4561 11.2426L12.4532 11.2397C12.4326 11.2191 12.4053 11.2122 12.3873 11.2083C12.3797 11.2066 12.3714 11.2051 12.3637 11.2037C12.3615 11.2033 12.3594 11.2029 12.3573 11.2026C12.3474 11.2007 12.3377 11.1988 12.3279 11.1964L12.2606 11.1796L12.266 11.2487C12.2672 11.2649 12.267 11.2798 12.2669 11.2963C12.2668 11.3022 12.2667 11.3083 12.2667 11.3148C12.2667 11.3366 12.2675 11.3637 12.2759 11.3891L12.2758 11.3892L12.2772 11.3925C12.4178 11.7306 12.582 12.0627 12.7926 12.3651ZM12.7926 12.3651L12.8337 12.3366M12.7926 12.3651C12.7926 12.3652 12.7926 12.3652 12.7926 12.3652L12.8337 12.3366M12.8337 12.3366C12.6258 12.0382 12.4632 11.7095 12.3234 11.3733L12.4179 11.2751C12.4433 11.3049 12.4687 11.3347 12.4942 11.3645C12.8139 11.7385 13.1346 12.1136 13.3062 12.5859C13.317 12.6129 13.3181 12.6419 13.3193 12.6714C13.3197 12.6832 13.3202 12.695 13.3213 12.7068C13.3213 12.7112 13.3175 12.7168 13.3113 12.7259C13.3089 12.7295 13.3061 12.7337 13.303 12.7385L13.2948 12.7521L13.2514 12.7273C13.2517 12.7268 13.252 12.7263 13.2523 12.7257C13.0886 12.6214 12.9451 12.4966 12.8337 12.3366Z" fill="#020304" stroke="black" stroke-width="0.1"/>
<path d="M9.00496 11.14L8.99918 11.0966H8.9554C8.90066 11.0966 8.86158 11.1209 8.83351 11.1516C8.81145 11.1756 8.7946 11.2057 8.78182 11.2285C8.77986 11.232 8.778 11.2353 8.77623 11.2384C8.70052 11.3632 8.62673 11.4899 8.55321 11.6161L8.5531 11.6163C8.47935 11.7429 8.40587 11.8691 8.33054 11.9933L8.33054 11.9933L8.33035 11.9936C8.2096 12.1961 8.14019 12.4204 8.08326 12.644C8.07555 12.6693 8.081 12.6946 8.08439 12.7103C8.08536 12.7147 8.08636 12.7191 8.08738 12.7236C8.09078 12.7386 8.09429 12.754 8.09693 12.7738L8.10787 12.8558L8.17538 12.808C8.45834 12.6077 8.61028 12.3411 8.73975 12.0671C8.97738 11.5696 9.03741 11.3832 9.00496 11.14Z" fill="#020304" stroke="black" stroke-width="0.1"/>
<path d="M13.3039 10.7275L13.2214 10.6717L13.226 10.7712C13.2335 10.9371 13.3011 11.0365 13.3578 11.1199C13.3634 11.1281 13.3689 11.1362 13.3742 11.1442L13.3742 11.1442L13.375 11.1453C13.4181 11.2063 13.4615 11.2661 13.5045 11.3256C13.572 11.4187 13.6388 11.511 13.7033 11.6055L13.7033 11.6055L13.7035 11.6057C13.8176 11.7709 13.963 11.9002 14.1308 12.0016L14.1308 12.0016L14.1324 12.0025C14.1368 12.005 14.1406 12.0074 14.1457 12.0108C14.1484 12.0126 14.1516 12.0147 14.1554 12.0171C14.1646 12.023 14.1775 12.0308 14.1925 12.0359C14.2082 12.0413 14.2278 12.0442 14.2492 12.0385C14.2703 12.0329 14.2881 12.0203 14.3031 12.004L14.3215 11.984L14.3147 11.9577C14.2084 11.5447 13.8348 11.0862 13.3039 10.7275Z" fill="#020304" stroke="black" stroke-width="0.1"/>
<path d="M16.0647 8.00412C16.0647 8.17351 16.0839 8.34565 16.1728 8.5074C16.1887 8.53688 16.2096 8.56284 16.2302 8.58631C16.24 8.59753 16.2489 8.60727 16.2575 8.61676C16.2689 8.62924 16.2799 8.64126 16.292 8.65557L16.3353 8.70678L16.4435 8.24173L16.4933 8.2366C16.4933 8.23656 16.4933 8.23651 16.4933 8.23646C16.4662 7.97433 16.4002 7.72424 16.2434 7.48523L16.1942 7.41028L16.1563 7.49151C16.1159 7.57799 16.0911 7.64212 16.0777 7.71838C16.0645 7.79337 16.0628 7.87786 16.0647 8.00412ZM16.0647 8.00412C16.0647 8.00425 16.0647 8.00437 16.0647 8.00449L16.1147 8.00375H16.0647C16.0647 8.00387 16.0647 8.004 16.0647 8.00412Z" fill="#020304" stroke="black" stroke-width="0.1"/>
<path d="M8.21351 10.8845L8.25955 10.7214L8.13234 10.8334C7.7515 11.1688 7.42138 11.4665 7.2311 11.9128L7.18284 12.026L7.29637 11.9785C7.51197 11.8884 7.63127 11.8006 7.80564 11.607L7.80565 11.607L7.80588 11.6067C8.01783 11.368 8.12794 11.1877 8.21351 10.8845Z" fill="#020304" stroke="black" stroke-width="0.1"/>
<path d="M16.4747 9.43159L16.4522 9.37671L16.4019 9.40812C16.393 9.41367 16.386 9.41731 16.3782 9.42129C16.3741 9.42343 16.3697 9.42567 16.3648 9.42835C16.3593 9.43134 16.3508 9.43616 16.3433 9.44273C16.3376 9.44779 16.327 9.45865 16.3232 9.47535C16.224 9.74018 16.177 10.0128 16.2319 10.2949L16.2319 10.2949L16.232 10.2952C16.2326 10.2985 16.2333 10.3021 16.2341 10.306C16.2387 10.3303 16.2451 10.3639 16.2591 10.393C16.2774 10.4309 16.3093 10.4639 16.3634 10.4774L16.3882 10.4836L16.4077 10.4671C16.4154 10.4607 16.4227 10.4546 16.4296 10.4488C16.4493 10.4322 16.466 10.4182 16.4797 10.406C16.4983 10.3894 16.5141 10.3737 16.5267 10.356C16.553 10.3192 16.561 10.2797 16.572 10.2232C16.6273 9.94658 16.5793 9.68709 16.4747 9.43159Z" fill="#020304" stroke="black" stroke-width="0.1"/>
<path d="M4.84941 7.06494L4.82909 6.99133L4.76974 7.03939C4.65781 7.13004 4.57005 7.22313 4.52325 7.33244C4.47558 7.44377 4.47282 7.56604 4.51929 7.7094L4.53935 7.77131L4.594 7.73597C4.61456 7.72268 4.63336 7.71262 4.65273 7.70227C4.66212 7.69725 4.67164 7.69216 4.68156 7.68659C4.70923 7.67107 4.7403 7.65157 4.76226 7.62141L4.76228 7.62143L4.76325 7.61999C4.86502 7.46947 4.9142 7.29965 4.84941 7.06494Z" fill="#020304" stroke="black" stroke-width="0.1"/>
<path d="M11.5182 17.7045L11.5362 17.7511C11.5372 17.7507 11.5384 17.7503 11.5395 17.7498C11.5617 17.7414 11.5963 17.7281 11.6211 17.7006C11.6509 17.6674 11.6599 17.6229 11.6507 17.5678L11.6424 17.5182L11.5929 17.5268C11.5487 17.5344 11.5024 17.535 11.4517 17.5341C11.442 17.5339 11.4321 17.5337 11.422 17.5335C11.3808 17.5326 11.3367 17.5315 11.2927 17.5341C11.1798 17.5408 11.0613 17.5712 10.9465 17.6839L10.8928 17.7365L10.9621 17.7657C11.1949 17.8636 11.3725 17.8174 11.537 17.7508L11.5182 17.7045ZM11.5182 17.7045C11.3725 17.7634 11.2236 17.8033 11.0335 17.7393M11.5182 17.7045L11.5182 17.7045C11.5565 17.6898 11.5947 17.675 11.6027 17.6265C11.6051 17.6261 11.6075 17.6257 11.6099 17.6253L11.6014 17.576L11.0335 17.7393M11.0335 17.7393C11.0278 17.7444 11.0222 17.7497 11.0165 17.7553L10.9815 17.7196L11.0335 17.7393Z" fill="#020304" stroke="black" stroke-width="0.1"/>
<path d="M9.43004 16.4334L9.34828 16.4625L9.41445 16.5187C9.51712 16.6058 9.60669 16.6587 9.71026 16.6659C9.81225 16.6731 9.91823 16.6352 10.0518 16.5666L10.1423 16.52L10.0502 16.4768C9.85655 16.386 9.66873 16.3485 9.43004 16.4334Z" fill="#020304" stroke="black" stroke-width="0.1"/>
<path d="M9.05749 15.7523L9.20544 15.6599H9.031H9.02985H9.0287H9.02755H9.02641H9.02526H9.02412H9.02298H9.02184H9.0207H9.01957H9.01843H9.0173H9.01617H9.01504H9.01391H9.01278H9.01166H9.01053H9.00941H9.00829H9.00717H9.00606H9.00494H9.00383H9.00271H9.0016H9.00049H8.99939H8.99828H8.99718H8.99607H8.99497H8.99387H8.99277H8.99168H8.99058H8.98949H8.98839H8.9873H8.98621H8.98513H8.98404H8.98296H8.98187H8.98079H8.97971H8.97863H8.97755H8.97648H8.9754H8.97433H8.97326H8.97219H8.97112H8.97005H8.96899H8.96793H8.96686H8.9658H8.96474H8.96368H8.96263H8.96157H8.96052H8.95947H8.95842H8.95737H8.95632H8.95527H8.95423H8.95318H8.95214H8.9511H8.95006H8.94902H8.94798H8.94695H8.94591H8.94488H8.94385H8.94282H8.94179H8.94077H8.93974H8.93872H8.93769H8.93667H8.93565H8.93463H8.93361H8.9326H8.93158H8.93057H8.92956H8.92855H8.92754H8.92653H8.92552H8.92452H8.92351H8.92251H8.92151H8.92051H8.91951H8.91851H8.91752H8.91652H8.91553H8.91454H8.91355H8.91256H8.91157H8.91058H8.9096H8.90861H8.90763H8.90665H8.90566H8.90469H8.90371H8.90273H8.90175H8.90078H8.89981H8.89883H8.89786H8.89689H8.89593H8.89496H8.89399H8.89303H8.89207H8.8911H8.89014H8.88918H8.88822H8.88727H8.88631H8.88536H8.8844H8.88345H8.8825H8.88155H8.8806H8.87965H8.87871H8.87776H8.87682H8.87587H8.87493H8.87399H8.87305H8.87211H8.87118H8.87024H8.8693H8.86837H8.86744H8.86651H8.86558H8.86465H8.86372H8.86279H8.86187H8.86094H8.86002H8.8591H8.85817H8.85725H8.85633H8.85542H8.8545H8.85358H8.85267H8.85175H8.85084H8.84993H8.84902H8.84811H8.8472H8.84629H8.84539H8.84448H8.84358H8.84268H8.84177H8.84087H8.83997H8.83907H8.83818H8.83728H8.83638H8.83549H8.8346H8.8337H8.83281H8.83192H8.83103H8.83014H8.82925H8.82837H8.82748H8.8266H8.82571H8.82483H8.82395H8.82307H8.82219H8.82131H8.82043H8.81956H8.81868H8.8178H8.81693H8.81606H8.81519H8.81431H8.81344H8.81258H8.81171H8.81084H8.80997H8.80911H8.80824H8.80738H8.80652H8.80566H8.80479H8.80393H8.80308H8.80222H8.80136H8.8005H8.79965H8.79879H8.79794H8.79709H8.79624H8.79538H8.79453H8.79369H8.79284H8.79199H8.79114H8.7903H8.78945H8.78861H8.78776H8.78692H8.78608H8.78524H8.7844H8.78356H8.78272H8.78189H8.78105H8.78021H8.77938H8.77854H8.77771H8.77688H8.77605H8.77522H8.77439H8.77356H8.77273H8.7719H8.77107H8.77025H8.76942H8.7686H8.76777H8.76695H8.76613H8.76531H8.76449H8.76367H8.76285H8.76203H8.76121H8.7604H8.75958H8.75876H8.75795H8.75713H8.75632H8.75551H8.7547H8.75389H8.75308H8.75227H8.75146H8.75065H8.74984H8.74903H8.74823H8.74742H8.74662H8.74581H8.74501H8.74421H8.74341H8.7426H8.7418H8.741H8.7402H8.73941H8.73861H8.73781H8.73701H8.73622H8.73542H8.73463H8.73383H8.73304H8.73225H8.73145H8.73066H8.72987H8.72908H8.72829H8.7275H8.72671H8.72593H8.72514H8.72435H8.72357H8.72278H8.722H8.72121H8.72043H8.71964H8.71886H8.71808H8.7173H8.71652H8.71574H8.71496H8.71418H8.7134H8.71262H8.71184H8.71107H8.71029H8.70951H8.70874H8.70796H8.70719H8.70642H8.70564H8.70487H8.7041H8.70333H8.70255H8.70178H8.70101H8.70024H8.69947H8.69871H8.69794H8.69717H8.6964H8.69564H8.69487H8.6941H8.69334H8.69257H8.69181H8.69104H8.69028H8.68952H8.68876H8.68799H8.68723H8.68647H8.68571H8.68495H8.68419H8.68343H8.68267H8.68191H8.68115H8.6804H8.67964H8.67888H8.67813H8.67737H8.67661H8.67586H8.6751H8.67435H8.67359H8.67284H8.67209H8.67133H8.67058H8.66983H8.66908H8.66833H8.66757H8.66682H8.66607H8.66532H8.66457H8.66382H8.66307H8.66233H8.66158H8.66083H8.66008H8.65933H8.65859H8.65784H8.65709H8.65635H8.6556H8.65486H8.65411H8.65337H8.65262H8.65188H8.65113H8.65039H8.64965H8.6489H8.64816H8.64742H8.64667H8.64593H8.64519H8.64445H8.64371H8.64297H8.64223H8.64148H8.64074H8.64H8.63926H8.63853H8.63779H8.63705H8.63631H8.63557H8.63483H8.63409H8.63335H8.63262H8.63188H8.63114H8.6304H8.62967H8.62893H8.62819H8.62746H8.62672H8.62599H8.62525H8.62451H8.62378H8.62304H8.62231H8.62157H8.62084H8.6201H8.61937H8.61863H8.6179H8.61717H8.61643H8.6157H8.61497H8.61423H8.6135H8.61276H8.61203H8.6113H8.61057H8.60983H8.6091H8.60837H8.60764H8.6069H8.60617H8.60544H8.60471H8.60397H8.60324H8.60251H8.60178H8.60105H8.60032H8.59958H8.59885H8.59812H8.59739H8.59666H8.59593H8.5952H8.59446H8.59373H8.593H8.59227H8.59154H8.59081H8.59008H8.58935H8.58862H8.58789H8.58715H8.58642H8.58569H8.58496V15.6584L8.57284 15.6614C8.55348 15.6663 8.54117 15.6794 8.53579 15.6856C8.52929 15.6931 8.5237 15.7016 8.51951 15.7083C8.51666 15.7128 8.5142 15.7168 8.51198 15.7205C8.50627 15.7297 8.50218 15.7364 8.49742 15.7421L8.45254 15.7959L8.51803 15.8209C8.6336 15.8649 8.70975 15.8928 8.7886 15.8823C8.82842 15.877 8.86621 15.8624 8.90797 15.8409C8.94931 15.8196 8.99745 15.7898 9.05749 15.7523Z" fill="#020304" stroke="black" stroke-width="0.1"/>
<path d="M10.6262 17.1128L10.5616 17.1333L10.6002 17.189C10.6587 17.2735 10.7357 17.3205 10.8329 17.3181C10.9249 17.3159 11.0267 17.2692 11.1388 17.19L11.2356 17.1217L11.1191 17.1C10.9527 17.0691 10.7922 17.0602 10.6262 17.1128Z" fill="#020304" stroke="black" stroke-width="0.1"/>
<path d="M13.0538 2.71533L13.0763 2.75937L13.1206 2.73725C13.1273 2.73389 13.1315 2.73207 13.1361 2.73007C13.1393 2.72868 13.1427 2.72721 13.1473 2.72508C13.1514 2.72315 13.1575 2.72018 13.1634 2.7161C13.1693 2.71203 13.1784 2.70457 13.1846 2.69222L13.1846 2.69223L13.1848 2.69183C13.2739 2.50973 13.3027 2.32511 13.2703 2.14984C13.2379 1.97476 13.145 1.81265 12.9967 1.67423C12.9846 1.66248 12.9707 1.657 12.9594 1.65418C12.9484 1.65143 12.9371 1.65055 12.9281 1.65005C12.9228 1.64975 12.9177 1.64955 12.9126 1.64935C12.8985 1.64879 12.8846 1.64823 12.8672 1.64575L12.7909 1.63486L12.812 1.709C12.8495 1.83989 12.8694 1.97003 12.8895 2.10175C12.8952 2.13926 12.901 2.17689 12.9072 2.2147C12.9348 2.38342 12.9707 2.55321 13.0538 2.71533Z" fill="#020304" stroke="black" stroke-width="0.1"/>
<path d="M9.2208 1.71134C9.21964 1.6867 9.2033 1.67214 9.19731 1.6673C9.18971 1.66117 9.18125 1.6568 9.17621 1.65428L9.168 1.65031L9.16132 1.64708L9.1568 1.64469C9.15585 1.64414 9.15546 1.64386 9.15546 1.64386L9.11746 1.61538L9.08707 1.65192C8.95077 1.81577 8.8828 1.98842 8.89369 2.16716C8.90453 2.34525 8.99316 2.52097 9.1532 2.6926L9.20228 2.74524L9.23448 2.68088C9.24307 2.6637 9.25032 2.65091 9.25651 2.64C9.25799 2.63738 9.25942 2.63486 9.26079 2.63242C9.26408 2.62655 9.26781 2.61974 9.27069 2.61311C9.27336 2.60698 9.27756 2.59612 9.27756 2.58296H9.27763L9.27749 2.58036C9.26237 2.2894 9.24347 2.00223 9.2208 1.71134ZM9.2208 1.71134C9.22084 1.71225 9.22086 1.71318 9.22086 1.71412H9.17086M9.2208 1.71134C9.22077 1.71097 9.22074 1.7106 9.22071 1.71023L9.17086 1.71412M9.17086 1.71412C9.19354 2.00499 9.21244 2.29209 9.22756 2.58296C9.22756 2.58924 9.22291 2.59785 9.2149 2.612C9.21866 2.61613 9.22247 2.62027 9.22633 2.62441L9.18976 2.65851L9.14505 2.63613C9.14818 2.62988 9.15119 2.62407 9.15404 2.6187C8.87904 2.29986 8.8751 1.98491 9.12551 1.6839C9.1312 1.68817 9.13903 1.6919 9.14659 1.6955C9.15911 1.70146 9.17086 1.70705 9.17086 1.71412Z" fill="#020304" stroke="black" stroke-width="0.1"/>
<path d="M14.3843 2.89807L14.4173 3.02174L14.4768 2.90845C14.5969 2.68016 14.6582 2.43086 14.6256 2.23115L14.6256 2.23115L14.6255 2.23071C14.6098 2.13947 14.5763 2.04985 14.5451 1.96601C14.5369 1.94402 14.5288 1.92242 14.5213 1.9013L14.5213 1.9013L14.5208 1.90017C14.5106 1.87367 14.4945 1.83983 14.4657 1.81619C14.4333 1.78964 14.3915 1.7811 14.3436 1.7944L14.3088 1.80406L14.307 1.84015C14.2805 2.38675 14.2917 2.55113 14.3843 2.89807Z" fill="#020304" stroke="black" stroke-width="0.1"/>
<path d="M13.8814 2.66578L13.9278 2.75862L13.9714 2.66443C14.0698 2.45217 14.0885 2.27174 14.0184 2.08977C13.9567 1.91262 13.8758 1.72886 13.6449 1.5953L13.5495 1.54006L13.5708 1.64828C13.6318 1.9566 13.7041 2.21148 13.7799 2.46507L13.7798 2.46509L13.7807 2.46758C13.7916 2.49808 13.8066 2.5266 13.8231 2.55692C13.8265 2.56303 13.8299 2.56925 13.8334 2.57563C13.8477 2.60156 13.8636 2.63028 13.8814 2.66578Z" fill="#020304" stroke="black" stroke-width="0.1"/>
<path d="M10.9126 2.54645C10.913 2.57671 10.9278 2.60206 10.9386 2.61865C10.9433 2.62599 10.9486 2.63359 10.9535 2.64047C10.9546 2.64203 10.9556 2.64355 10.9567 2.64503C10.9626 2.65347 10.9679 2.66127 10.9726 2.66915L11.0065 2.72551L11.0517 2.67785C11.1991 2.52278 11.2765 2.36624 11.2734 2.1925C11.2703 2.02091 11.1885 1.84255 11.0405 1.64281L11.0039 1.59336L10.963 1.63935C10.9531 1.65049 10.9443 1.65863 10.9354 1.66691C10.9324 1.66975 10.9293 1.6726 10.9262 1.67559C10.9208 1.68071 10.9136 1.68776 10.9078 1.69582C10.902 1.70387 10.8937 1.71798 10.8937 1.73679L10.8937 1.7375L10.8938 1.7439C10.8975 2.00963 10.9013 2.27984 10.9126 2.54645ZM10.9126 2.54645C10.9126 2.54603 10.9126 2.54561 10.9126 2.54519H10.9626M10.9126 2.54645C10.9126 2.54673 10.9126 2.54702 10.9126 2.54731L10.9626 2.54519M10.9626 2.54519C10.9513 2.27901 10.9475 2.0091 10.9438 1.74287L10.9437 1.73679C10.9437 1.72835 10.9519 1.71991 10.9645 1.70817C10.9631 1.70623 10.9616 1.70429 10.9602 1.70234L11.0004 1.67258L11.0377 1.70581C11.0352 1.70861 11.0327 1.71133 11.0303 1.71395C11.28 2.06875 11.2887 2.33129 11.0504 2.60504C11.0531 2.6091 11.0557 2.61332 11.0584 2.61767L11.0155 2.64341L10.9792 2.60897C10.9818 2.60628 10.9843 2.60359 10.9868 2.6009C10.9733 2.58126 10.9626 2.56323 10.9626 2.54519Z" fill="#020304" stroke="black" stroke-width="0.1"/>
<path d="M7.94645 1.58493L7.9432 1.67811C7.93187 2.00267 7.92053 2.30108 7.90542 2.60331C7.9054 2.60366 7.90539 2.60401 7.90537 2.60436L7.85543 2.60186C7.85543 2.6134 7.85183 2.62495 7.84714 2.63681L7.94645 1.58493ZM7.94645 1.58493L7.86703 1.63377C7.85073 1.6438 7.83575 1.65104 7.81997 1.65867C7.81439 1.66137 7.80871 1.66411 7.80284 1.66705C7.78366 1.67663 7.75668 1.69075 7.73915 1.71528L7.73914 1.71527L7.7385 1.7162C7.60994 1.90491 7.57114 2.12367 7.57107 2.33683L7.94645 1.58493Z" fill="#020304" stroke="black" stroke-width="0.1"/>
<path d="M10.4342 1.66391L10.432 1.56432L10.3535 1.62558L10.3492 1.62895C10.2756 1.68632 10.2355 1.71762 10.2116 1.73993C10.1987 1.75207 10.189 1.76288 10.1807 1.77503C10.1732 1.78608 10.1677 1.79722 10.1625 1.80757C10.1623 1.808 10.1621 1.80842 10.1619 1.80884L10.1618 1.80881L10.1607 1.81138C10.0849 1.98682 10.0649 2.17078 10.1008 2.35815L10.1008 2.35815L10.1008 2.35855C10.1028 2.36834 10.1047 2.37868 10.1066 2.38947C10.1221 2.47556 10.1426 2.59001 10.2602 2.67616L10.3153 2.71654L10.3371 2.65182C10.4487 2.3211 10.4419 2.01341 10.4345 1.67534C10.4344 1.67154 10.4343 1.66772 10.4342 1.66391Z" fill="#020304" stroke="black" stroke-width="0.1"/>
<path d="M9.82187 1.66237L9.82369 1.58333L9.7515 1.61557C9.65147 1.66023 9.59524 1.72396 9.5628 1.79606C9.53504 1.85776 9.52548 1.92479 9.5173 1.98215C9.51636 1.98873 9.51544 1.99518 9.51452 2.00148L9.51451 2.00148L9.51444 2.00204C9.48217 2.23989 9.53618 2.45845 9.74604 2.69192L9.82244 2.77692L9.83301 2.66312C9.85035 2.4763 9.84548 2.3063 9.83742 2.14322C9.83589 2.11239 9.83426 2.08187 9.83264 2.05156C9.82564 1.92076 9.81885 1.79386 9.82187 1.66237ZM9.73751 2.60473C9.57545 2.40248 9.53619 2.21359 9.56398 2.00876L9.73751 2.60473Z" fill="#020304" stroke="black" stroke-width="0.1"/>
<path d="M12.2094 2.41854C12.2138 2.4595 12.2245 2.49825 12.2379 2.54052C12.2431 2.55665 12.2485 2.57293 12.2542 2.59017C12.2641 2.61986 12.2749 2.6524 12.2869 2.69191L12.317 2.79134L12.3759 2.70574C12.4621 2.58038 12.5132 2.46186 12.5306 2.34429C12.5482 2.22631 12.5314 2.11272 12.4872 1.99831L12.4872 1.99827C12.4805 1.98113 12.475 1.96502 12.4691 1.94789C12.465 1.93574 12.4606 1.92307 12.4556 1.90917C12.4443 1.87797 12.4308 1.84479 12.4121 1.81352C12.3729 1.7483 12.3125 1.69477 12.209 1.67277L12.1436 1.65885L12.1488 1.72558C12.1522 1.7699 12.1556 1.81379 12.1589 1.85731C12.1736 2.05022 12.1877 2.23571 12.2094 2.41854ZM12.2094 2.41854C12.2094 2.41843 12.2094 2.41832 12.2094 2.41821L12.2591 2.41297M12.2094 2.41854C12.2094 2.41865 12.2094 2.41876 12.2095 2.41887L12.2591 2.41297M12.2591 2.41297C12.2375 2.23118 12.2235 2.04688 12.2088 1.85391C12.2068 1.82745 12.2047 1.80083 12.2027 1.77402C12.198 1.77279 12.1932 1.77165 12.1882 1.77059L12.1986 1.72168L12.2485 1.71778C12.249 1.72419 12.2495 1.73059 12.25 1.73697C12.3586 1.78011 12.3903 1.87238 12.4213 1.96246C12.4275 1.98065 12.4337 1.99874 12.4405 2.01633C12.5174 2.2153 12.5039 2.40459 12.3701 2.62295C12.3742 2.63571 12.3783 2.64903 12.3826 2.66289L12.3347 2.6774L12.2935 2.64906C12.3011 2.63797 12.3084 2.62699 12.3154 2.61612C12.3105 2.60093 12.3057 2.58667 12.3012 2.57318C12.2799 2.50885 12.2642 2.46178 12.2591 2.41297Z" fill="#020304" stroke="black" stroke-width="0.1"/>
<path d="M8.50591 1.63715L8.48335 1.58642L8.43525 1.61415C8.3223 1.67927 8.27155 1.7752 8.23237 1.8731L8.23236 1.87309L8.23202 1.87397C8.17577 2.02254 8.1636 2.1758 8.19584 2.32885L8.19588 2.32902C8.19703 2.33437 8.19817 2.33979 8.19933 2.34528C8.22079 2.4469 8.24681 2.57015 8.38015 2.67514L8.45244 2.73206L8.46087 2.64043C8.49101 2.31283 8.51744 2.02241 8.5401 1.72829C8.54443 1.70127 8.53055 1.67924 8.52566 1.67149C8.52539 1.67106 8.52515 1.67067 8.52493 1.67033C8.52341 1.66787 8.52195 1.66557 8.52055 1.66335C8.51511 1.65476 8.51049 1.64746 8.50591 1.63715Z" fill="#020304" stroke="black" stroke-width="0.1"/>
<path d="M7.35134 2.70106L7.43294 2.76758V2.6623V2.66018V2.65806V2.65593V2.65381V2.6517V2.64958V2.64746V2.64535V2.64324V2.64113V2.63902V2.63691V2.6348V2.6327V2.63059V2.62849V2.62639V2.62429V2.62219V2.62009V2.618V2.61591V2.61381V2.61172V2.60963V2.60754V2.60546V2.60337V2.60129V2.59921V2.59712V2.59504V2.59297V2.59089V2.58881V2.58674V2.58467V2.58259V2.58052V2.57845V2.57639V2.57432V2.57226V2.57019V2.56813V2.56607V2.56401V2.56195V2.55989V2.55784V2.55579V2.55373V2.55168V2.54963V2.54758V2.54553V2.54349V2.54144V2.5394V2.53736V2.53532V2.53328V2.53124V2.5292V2.52717V2.52513V2.5231V2.52107V2.51904V2.51701V2.51498V2.51295V2.51093V2.5089V2.50688V2.50486V2.50284V2.50082V2.4988V2.49679V2.49477V2.49276V2.49074V2.48873V2.48672V2.48471V2.4827V2.4807V2.47869V2.47669V2.47469V2.47268V2.47068V2.46868V2.46669V2.46469V2.46269V2.4607V2.45871V2.45671V2.45472V2.45273V2.45075V2.44876V2.44677V2.44479V2.4428V2.44082V2.43884V2.43686V2.43488V2.4329V2.43093V2.42895V2.42698V2.425V2.42303V2.42106V2.41909V2.41712V2.41516V2.41319V2.41122V2.40926V2.4073V2.40534V2.40337V2.40142V2.39946V2.3975V2.39554V2.39359V2.39164V2.38968V2.38773V2.38578V2.38383V2.38188V2.37994V2.37799V2.37604V2.3741V2.37216V2.37022V2.36827V2.36634V2.3644V2.36246V2.36052V2.35859V2.35665V2.35472V2.35279V2.35086V2.34893V2.347V2.34507V2.34314V2.34122V2.33929V2.33737V2.33545V2.33352V2.3316V2.32968V2.32777V2.32585V2.32393V2.32202V2.3201V2.31819V2.31628V2.31436V2.31245V2.31054V2.30863V2.30673V2.30482V2.30292V2.30101V2.29911V2.2972V2.2953V2.2934V2.2915V2.2896V2.28771V2.28581V2.28391V2.28202V2.28013V2.27823V2.27634V2.27445V2.27256V2.27067V2.26878V2.26689V2.26501V2.26312V2.26124V2.25935V2.25747V2.25559V2.25371V2.25183V2.24995V2.24807V2.2462V2.24432V2.24244V2.24057V2.2387V2.23682V2.23495V2.23308V2.23121V2.22934V2.22747V2.22561V2.22374V2.22187V2.22001V2.21815V2.21628V2.21442V2.21256V2.2107V2.20884V2.20698V2.20512V2.20327V2.20141V2.19955V2.1977V2.19585V2.19399V2.19214V2.19029V2.18844V2.18659V2.18474V2.18289V2.18105V2.1792V2.17736V2.17551V2.17367V2.17182V2.16998V2.16814V2.1663V2.16446V2.16262V2.16078V2.15894V2.15711V2.15527V2.15344V2.1516V2.14977V2.14794V2.1461V2.14427V2.14244V2.14061V2.13878V2.13695V2.13513V2.1333V2.13147V2.12965V2.12782V2.126V2.12418V2.12235V2.12053V2.11871V2.11689V2.11507V2.11325V2.11143V2.10962V2.1078V2.10598V2.10417V2.10235V2.10054V2.09873V2.09691V2.0951V2.09329V2.09148V2.08967V2.08786V2.08605V2.08425V2.08244V2.08063V2.07883V2.07702V2.07522V2.07341V2.07161V2.06981V2.068V2.0662V2.0644V2.0626V2.0608V2.059V2.05721V2.05541V2.05361V2.05182V2.05002V2.04823V2.04643V2.04464V2.04284V2.04105V2.03926V2.03747V2.03568V2.03389V2.0321V2.03031V2.02852V2.02673V2.02495V2.02316V2.02137V2.01959V2.0178V2.01602V2.01423V2.01245V2.01067V2.00889V2.0071V2.00532V2.00354V2.00176V1.99998V1.9982V1.99643V1.99465V1.99287V1.99109V1.98932V1.98754V1.98577V1.98399V1.98222V1.98045V1.97867V1.9769V1.97513V1.97336V1.97159V1.96981V1.96804V1.96627V1.96451V1.96274V1.96097V1.9592V1.95743V1.95567V1.9539V1.95214V1.95037V1.94861V1.94684V1.94508V1.94331V1.94155V1.93979V1.93803V1.93626V1.9345V1.93274V1.93098V1.92922V1.92746V1.9257V1.92395V1.92219V1.92043V1.91867V1.91692V1.91516V1.9134V1.91165V1.90989V1.90814V1.90638V1.90463V1.90287V1.90112V1.89937V1.89762V1.89586V1.89411V1.89236V1.89061V1.88886V1.88711V1.88536V1.88361V1.88186V1.88011V1.87836V1.87662V1.87487V1.87312V1.87137V1.86963V1.86788V1.86613V1.86439V1.86264V1.8609V1.85915V1.85741V1.85567V1.85392V1.85218V1.85043V1.84869V1.84695V1.84521V1.84347V1.84172V1.83998V1.83824V1.8365V1.83476V1.83302V1.83128V1.82954V1.8278V1.82606V1.82432V1.82259V1.82085V1.81911V1.81737V1.81563V1.8139V1.81216V1.81042V1.80869V1.80695V1.80522V1.80348V1.80174V1.80001V1.79827V1.79654V1.79481V1.79307V1.79134V1.7896V1.78787V1.78614V1.7844V1.78267V1.78094V1.7792V1.77747V1.77574V1.77401V1.77228V1.77054V1.76881V1.76708V1.76535V1.76362V1.76189V1.76016V1.75843V1.7567V1.75497V1.75324V1.75151V1.74978V1.74805V1.74632V1.74459V1.74286V1.74113V1.73941V1.73768V1.73595V1.73422V1.73249V1.73076V1.72904V1.72731V1.72558V1.72385V1.72213V1.7204V1.71867V1.71694V1.71522V1.71349V1.71176V1.71004V1.70831V1.70658V1.66157L7.38817 1.65686C7.33819 1.6516 7.29906 1.66652 7.27057 1.69578C7.24575 1.72127 7.23233 1.75473 7.22318 1.77847C7.14374 1.96551 7.1285 2.15925 7.14796 2.35374L7.14796 2.35374L7.14802 2.35429C7.15407 2.40873 7.16556 2.46464 7.1965 2.52322C7.22732 2.58157 7.27574 2.63942 7.35134 2.70106Z" fill="#020304" stroke="black" stroke-width="0.1"/>
<path d="M11.6549 2.5862L11.701 2.6373L11.7354 2.57776C11.8421 2.3932 11.8341 2.2339 11.777 2.08248C11.7734 2.07213 11.7699 2.06156 11.7663 2.05081C11.7253 1.9285 11.6769 1.78364 11.5193 1.67991L11.456 1.63827L11.4426 1.71282C11.4238 1.81714 11.4387 1.91089 11.4571 1.99531C11.4611 2.01388 11.4652 2.03175 11.4692 2.04911C11.484 2.11312 11.4971 2.1701 11.4985 2.22903L11.4985 2.22903L11.4985 2.23014C11.5007 2.2783 11.5127 2.32388 11.5265 2.36582C11.5334 2.38683 11.541 2.40755 11.5483 2.42735L11.5489 2.42882C11.5561 2.44835 11.5629 2.46695 11.5691 2.48545L11.5689 2.48551L11.5706 2.48934C11.5806 2.51269 11.5978 2.53008 11.6111 2.54294C11.6151 2.5468 11.619 2.55046 11.6228 2.55407C11.6334 2.56402 11.6436 2.57363 11.6549 2.5862ZM11.6165 2.46963C11.6101 2.45039 11.603 2.43114 11.5959 2.41184C11.5737 2.35159 11.5513 2.29081 11.5485 2.22787L11.6165 2.46963Z" fill="#020304" stroke="black" stroke-width="0.1"/>
</svg>
