<svg width="18" height="21" viewBox="0 0 18 21" fill="none" xmlns="http://www.w3.org/2000/svg">
<mask id="path-1-outside-1_2_5549" maskUnits="userSpaceOnUse" x="0" y="0" width="18" height="21" fill="black">
<rect fill="white" width="18" height="21"/>
<path d="M7.76444 4.89425C7.6397 4.86403 7.53764 4.84136 7.43558 4.81114C7.17476 4.73559 6.94797 4.60716 6.79677 4.37295C6.58131 4.04808 6.60777 3.71565 6.86859 3.42478C6.98955 3.28879 7.13319 3.18302 7.30706 3.1188C7.38644 3.08858 7.46582 3.06214 7.55276 3.03192C7.55276 2.97148 7.56032 2.90726 7.55276 2.8506C7.49606 2.37463 7.43936 1.89488 7.38266 1.41891C7.37888 1.40002 7.37888 1.37736 7.37888 1.35469C7.37888 1.17715 7.42802 1.11293 7.61324 1.08271C7.6964 1.0676 7.78334 1.0676 7.8665 1.06005C8.23694 1.04116 8.60738 1.02982 8.97781 1.00715C9.41629 0.980712 9.84721 1.0336 10.2781 1.0676C10.3084 1.07137 10.3424 1.07893 10.3726 1.08271C10.5956 1.12804 10.6486 1.18093 10.6297 1.40002C10.6108 1.60779 10.573 1.81555 10.5314 2.01953C10.4709 2.29529 10.3991 2.56729 10.3348 2.84305C10.3197 2.91482 10.3084 2.98658 10.297 3.06969C10.4104 3.13013 10.5238 3.1868 10.6259 3.25102C10.9094 3.43234 11.0833 3.68543 11.0833 4.02919C11.0833 4.38806 10.9245 4.65627 10.5919 4.80359C10.4218 4.87914 10.2328 4.92447 10.0362 4.98491C10.0967 5.1889 10.2176 5.34755 10.418 5.44199C10.573 5.51754 10.7355 5.55909 10.9094 5.56287C11.0908 5.56665 11.2685 5.56666 11.4499 5.57043C12.0207 5.58554 12.5953 5.60442 13.166 5.61953C14.3681 5.64975 15.5625 6.49593 16.0502 7.28921C16.2543 7.62163 16.447 7.95784 16.568 8.32804C16.7116 8.76623 16.8515 9.20442 16.9725 9.64639C17.1804 10.3981 17.1539 11.1612 17.0329 11.9167C16.9498 12.4418 16.8099 12.9593 16.6852 13.4768C16.568 13.9679 16.379 14.4325 16.122 14.8707C15.812 15.4034 15.4907 15.9322 15.1619 16.4573C14.9124 16.8615 14.5911 17.2128 14.2395 17.5301C13.9334 17.8059 13.6272 18.0779 13.3248 18.3574C12.8069 18.8296 12.1984 19.1734 11.5822 19.4982C11.3932 19.5965 11.1853 19.6418 10.9774 19.6795C10.7922 19.7135 10.6032 19.7513 10.4218 19.808C10.0324 19.9327 9.62797 19.9553 9.22729 19.9666C8.14244 19.9969 7.09161 19.8307 6.08991 19.4151C5.34904 19.1091 4.68754 18.6747 4.12054 18.1119C3.26249 17.2581 2.57453 16.2835 2.02266 15.2145C1.65222 14.493 1.35738 13.7488 1.17972 12.9555C0.843304 11.4483 0.975603 9.98638 1.60686 8.5698C1.83366 8.05984 2.0907 7.57253 2.42711 7.123C2.65391 6.82079 2.91473 6.54503 3.21335 6.30705C3.65183 5.95574 4.15834 5.7593 4.71778 5.67997C5.10712 5.62709 5.50024 5.62709 5.89335 5.62709C6.26757 5.62709 6.63423 5.59687 6.99711 5.50243C7.11807 5.47221 7.23903 5.42688 7.35243 5.37399C7.5641 5.28333 7.6397 5.1889 7.76444 4.89425ZM7.96478 4.93958C7.93832 4.99624 7.91564 5.03402 7.9043 5.07558C7.79846 5.38533 7.583 5.58932 7.28439 5.70642C7.09917 5.77819 6.90639 5.83863 6.70983 5.88397C6.34695 5.96707 5.97273 5.97462 5.60229 5.99729C5.30746 6.01617 5.00884 6.03507 4.71778 6.07284C4.24528 6.13706 3.82571 6.32972 3.45905 6.63192C3.15665 6.88124 2.89205 7.16833 2.67659 7.4932C1.54638 9.21954 1.16082 11.0781 1.69002 13.0915C1.87902 13.8017 2.15874 14.4779 2.50271 15.1276C2.97899 16.0304 3.56111 16.8653 4.26418 17.6132C4.97104 18.365 5.81775 18.9052 6.81189 19.2074C7.66238 19.468 8.528 19.57 9.41629 19.5096C9.95683 19.4718 10.4898 19.3811 11.019 19.2829C11.1853 19.2527 11.3479 19.2036 11.4953 19.1167C12.1454 18.7389 12.7805 18.3423 13.3059 17.8021C13.51 17.5906 13.7368 17.3979 13.9523 17.1977C14.2547 16.9182 14.5306 16.6122 14.7498 16.2647C15.1052 15.6942 15.4567 15.1238 15.7969 14.5459C16.0577 14.1001 16.2392 13.6204 16.3639 13.1217C16.4622 12.7251 16.568 12.3322 16.6398 11.9318C16.757 11.2783 16.7872 10.621 16.6587 9.96749C16.5415 9.3933 16.3639 8.83423 16.1522 8.28649C16.0237 7.95406 15.8536 7.63675 15.6381 7.35343C15.1392 6.69614 14.4928 6.23905 13.6688 6.06151C13.3512 5.99351 13.0186 5.96707 12.6898 5.95196C12.2362 5.93307 11.7788 5.94441 11.3214 5.93307C11.0984 5.9293 10.8754 5.91796 10.6561 5.88397C10.2365 5.81975 9.93037 5.60821 9.79429 5.19268C9.77161 5.12468 9.73759 5.06423 9.71491 5.0189C9.12523 4.99624 8.55446 4.9698 7.96478 4.93958ZM7.44692 3.46634C7.26927 3.53056 7.23903 3.54945 7.16343 3.63255C6.98955 3.82521 6.94041 3.98386 7.15586 4.24451C7.22012 4.32384 7.3184 4.38051 7.40912 4.42584C7.49228 4.46739 7.59056 4.49005 7.68128 4.50516C7.9232 4.54294 8.16134 4.58072 8.40704 4.60338C8.92489 4.65249 9.44275 4.68271 9.96439 4.6336C10.1345 4.61849 10.3008 4.58071 10.452 4.50138C10.7204 4.36161 10.8073 4.06696 10.6675 3.80253C10.5692 3.62121 10.4142 3.51167 10.1874 3.43234C10.2139 3.62878 10.3084 3.78743 10.263 4.01031C10.2063 3.93853 10.1723 3.90076 10.1458 3.85921C10.0778 3.75344 10.0097 3.64765 9.94171 3.54188C9.84343 3.39078 9.71113 3.31146 9.51835 3.31524C9.13657 3.3228 8.7548 3.31901 8.37302 3.31901C8.3201 3.31901 8.27096 3.33035 8.22938 3.33412C8.08952 3.489 8.14244 3.71188 8.00258 3.85543C7.87028 3.7081 7.93454 3.53434 7.93454 3.34924C7.87406 3.38323 7.83248 3.39457 7.80602 3.42101C7.6775 3.55322 7.61702 3.71943 7.57922 3.89697C7.5641 3.97252 7.55654 4.05941 7.47338 4.10475C7.33353 3.88565 7.33353 3.88565 7.44692 3.46634ZM9.18571 2.93749C9.18571 2.38596 9.21595 2.18953 9.35203 1.9931C9.36715 2.3293 9.38227 2.63906 9.39739 2.97148C9.47299 2.97904 9.54859 2.98281 9.61285 2.99037C9.67711 2.49173 9.74137 2.01576 9.79807 1.54357C9.80563 1.48691 9.79429 1.42269 9.79051 1.36603C9.61285 1.30559 9.44275 1.32069 9.27265 1.31692C9.09121 1.31314 8.91355 1.31692 8.73211 1.31692C8.56202 1.32069 8.39192 1.32069 8.2256 1.32825C8.05172 1.3358 7.87028 1.32447 7.70396 1.38869C7.7153 1.94021 7.72664 2.46529 7.73798 3.0017C7.87028 3.0017 7.98368 3.00548 8.09708 3.0017C8.13866 3.0017 8.17646 2.98658 8.2256 2.97525C8.17268 2.5635 8.12354 2.1593 8.16134 1.69089C8.30876 2.15175 8.34656 2.57106 8.42216 2.99415C8.50154 2.97904 8.55824 2.9677 8.61872 2.95637C8.55824 2.25375 8.55824 2.15176 8.6414 1.90999C8.78504 2.2613 8.79259 2.60128 8.81149 2.9337C8.94001 2.97903 9.04963 2.97148 9.18571 2.93749ZM9.81319 2.99793C9.98329 3.00548 9.99463 3.00548 10.0173 2.90349C10.1118 2.51062 10.2063 2.11398 10.2932 1.71733C10.3159 1.61912 10.3424 1.51335 10.2781 1.40002C10.1761 1.36602 10.0664 1.35091 9.95305 1.38491C9.90769 1.9251 9.86233 2.45018 9.81319 2.99793Z"/>
</mask>
<path d="M7.76444 4.89425C7.6397 4.86403 7.53764 4.84136 7.43558 4.81114C7.17476 4.73559 6.94797 4.60716 6.79677 4.37295C6.58131 4.04808 6.60777 3.71565 6.86859 3.42478C6.98955 3.28879 7.13319 3.18302 7.30706 3.1188C7.38644 3.08858 7.46582 3.06214 7.55276 3.03192C7.55276 2.97148 7.56032 2.90726 7.55276 2.8506C7.49606 2.37463 7.43936 1.89488 7.38266 1.41891C7.37888 1.40002 7.37888 1.37736 7.37888 1.35469C7.37888 1.17715 7.42802 1.11293 7.61324 1.08271C7.6964 1.0676 7.78334 1.0676 7.8665 1.06005C8.23694 1.04116 8.60738 1.02982 8.97781 1.00715C9.41629 0.980712 9.84721 1.0336 10.2781 1.0676C10.3084 1.07137 10.3424 1.07893 10.3726 1.08271C10.5956 1.12804 10.6486 1.18093 10.6297 1.40002C10.6108 1.60779 10.573 1.81555 10.5314 2.01953C10.4709 2.29529 10.3991 2.56729 10.3348 2.84305C10.3197 2.91482 10.3084 2.98658 10.297 3.06969C10.4104 3.13013 10.5238 3.1868 10.6259 3.25102C10.9094 3.43234 11.0833 3.68543 11.0833 4.02919C11.0833 4.38806 10.9245 4.65627 10.5919 4.80359C10.4218 4.87914 10.2328 4.92447 10.0362 4.98491C10.0967 5.1889 10.2176 5.34755 10.418 5.44199C10.573 5.51754 10.7355 5.55909 10.9094 5.56287C11.0908 5.56665 11.2685 5.56666 11.4499 5.57043C12.0207 5.58554 12.5953 5.60442 13.166 5.61953C14.3681 5.64975 15.5625 6.49593 16.0502 7.28921C16.2543 7.62163 16.447 7.95784 16.568 8.32804C16.7116 8.76623 16.8515 9.20442 16.9725 9.64639C17.1804 10.3981 17.1539 11.1612 17.0329 11.9167C16.9498 12.4418 16.8099 12.9593 16.6852 13.4768C16.568 13.9679 16.379 14.4325 16.122 14.8707C15.812 15.4034 15.4907 15.9322 15.1619 16.4573C14.9124 16.8615 14.5911 17.2128 14.2395 17.5301C13.9334 17.8059 13.6272 18.0779 13.3248 18.3574C12.8069 18.8296 12.1984 19.1734 11.5822 19.4982C11.3932 19.5965 11.1853 19.6418 10.9774 19.6795C10.7922 19.7135 10.6032 19.7513 10.4218 19.808C10.0324 19.9327 9.62797 19.9553 9.22729 19.9666C8.14244 19.9969 7.09161 19.8307 6.08991 19.4151C5.34904 19.1091 4.68754 18.6747 4.12054 18.1119C3.26249 17.2581 2.57453 16.2835 2.02266 15.2145C1.65222 14.493 1.35738 13.7488 1.17972 12.9555C0.843304 11.4483 0.975603 9.98638 1.60686 8.5698C1.83366 8.05984 2.0907 7.57253 2.42711 7.123C2.65391 6.82079 2.91473 6.54503 3.21335 6.30705C3.65183 5.95574 4.15834 5.7593 4.71778 5.67997C5.10712 5.62709 5.50024 5.62709 5.89335 5.62709C6.26757 5.62709 6.63423 5.59687 6.99711 5.50243C7.11807 5.47221 7.23903 5.42688 7.35243 5.37399C7.5641 5.28333 7.6397 5.1889 7.76444 4.89425ZM7.96478 4.93958C7.93832 4.99624 7.91564 5.03402 7.9043 5.07558C7.79846 5.38533 7.583 5.58932 7.28439 5.70642C7.09917 5.77819 6.90639 5.83863 6.70983 5.88397C6.34695 5.96707 5.97273 5.97462 5.60229 5.99729C5.30746 6.01617 5.00884 6.03507 4.71778 6.07284C4.24528 6.13706 3.82571 6.32972 3.45905 6.63192C3.15665 6.88124 2.89205 7.16833 2.67659 7.4932C1.54638 9.21954 1.16082 11.0781 1.69002 13.0915C1.87902 13.8017 2.15874 14.4779 2.50271 15.1276C2.97899 16.0304 3.56111 16.8653 4.26418 17.6132C4.97104 18.365 5.81775 18.9052 6.81189 19.2074C7.66238 19.468 8.528 19.57 9.41629 19.5096C9.95683 19.4718 10.4898 19.3811 11.019 19.2829C11.1853 19.2527 11.3479 19.2036 11.4953 19.1167C12.1454 18.7389 12.7805 18.3423 13.3059 17.8021C13.51 17.5906 13.7368 17.3979 13.9523 17.1977C14.2547 16.9182 14.5306 16.6122 14.7498 16.2647C15.1052 15.6942 15.4567 15.1238 15.7969 14.5459C16.0577 14.1001 16.2392 13.6204 16.3639 13.1217C16.4622 12.7251 16.568 12.3322 16.6398 11.9318C16.757 11.2783 16.7872 10.621 16.6587 9.96749C16.5415 9.3933 16.3639 8.83423 16.1522 8.28649C16.0237 7.95406 15.8536 7.63675 15.6381 7.35343C15.1392 6.69614 14.4928 6.23905 13.6688 6.06151C13.3512 5.99351 13.0186 5.96707 12.6898 5.95196C12.2362 5.93307 11.7788 5.94441 11.3214 5.93307C11.0984 5.9293 10.8754 5.91796 10.6561 5.88397C10.2365 5.81975 9.93037 5.60821 9.79429 5.19268C9.77161 5.12468 9.73759 5.06423 9.71491 5.0189C9.12523 4.99624 8.55446 4.9698 7.96478 4.93958ZM7.44692 3.46634C7.26927 3.53056 7.23903 3.54945 7.16343 3.63255C6.98955 3.82521 6.94041 3.98386 7.15586 4.24451C7.22012 4.32384 7.3184 4.38051 7.40912 4.42584C7.49228 4.46739 7.59056 4.49005 7.68128 4.50516C7.9232 4.54294 8.16134 4.58072 8.40704 4.60338C8.92489 4.65249 9.44275 4.68271 9.96439 4.6336C10.1345 4.61849 10.3008 4.58071 10.452 4.50138C10.7204 4.36161 10.8073 4.06696 10.6675 3.80253C10.5692 3.62121 10.4142 3.51167 10.1874 3.43234C10.2139 3.62878 10.3084 3.78743 10.263 4.01031C10.2063 3.93853 10.1723 3.90076 10.1458 3.85921C10.0778 3.75344 10.0097 3.64765 9.94171 3.54188C9.84343 3.39078 9.71113 3.31146 9.51835 3.31524C9.13657 3.3228 8.7548 3.31901 8.37302 3.31901C8.3201 3.31901 8.27096 3.33035 8.22938 3.33412C8.08952 3.489 8.14244 3.71188 8.00258 3.85543C7.87028 3.7081 7.93454 3.53434 7.93454 3.34924C7.87406 3.38323 7.83248 3.39457 7.80602 3.42101C7.6775 3.55322 7.61702 3.71943 7.57922 3.89697C7.5641 3.97252 7.55654 4.05941 7.47338 4.10475C7.33353 3.88565 7.33353 3.88565 7.44692 3.46634ZM9.18571 2.93749C9.18571 2.38596 9.21595 2.18953 9.35203 1.9931C9.36715 2.3293 9.38227 2.63906 9.39739 2.97148C9.47299 2.97904 9.54859 2.98281 9.61285 2.99037C9.67711 2.49173 9.74137 2.01576 9.79807 1.54357C9.80563 1.48691 9.79429 1.42269 9.79051 1.36603C9.61285 1.30559 9.44275 1.32069 9.27265 1.31692C9.09121 1.31314 8.91355 1.31692 8.73211 1.31692C8.56202 1.32069 8.39192 1.32069 8.2256 1.32825C8.05172 1.3358 7.87028 1.32447 7.70396 1.38869C7.7153 1.94021 7.72664 2.46529 7.73798 3.0017C7.87028 3.0017 7.98368 3.00548 8.09708 3.0017C8.13866 3.0017 8.17646 2.98658 8.2256 2.97525C8.17268 2.5635 8.12354 2.1593 8.16134 1.69089C8.30876 2.15175 8.34656 2.57106 8.42216 2.99415C8.50154 2.97904 8.55824 2.9677 8.61872 2.95637C8.55824 2.25375 8.55824 2.15176 8.6414 1.90999C8.78504 2.2613 8.79259 2.60128 8.81149 2.9337C8.94001 2.97903 9.04963 2.97148 9.18571 2.93749ZM9.81319 2.99793C9.98329 3.00548 9.99463 3.00548 10.0173 2.90349C10.1118 2.51062 10.2063 2.11398 10.2932 1.71733C10.3159 1.61912 10.3424 1.51335 10.2781 1.40002C10.1761 1.36602 10.0664 1.35091 9.95305 1.38491C9.90769 1.9251 9.86233 2.45018 9.81319 2.99793Z" fill="#020304"/>
<path d="M7.76444 4.89425C7.6397 4.86403 7.53764 4.84136 7.43558 4.81114C7.17476 4.73559 6.94797 4.60716 6.79677 4.37295C6.58131 4.04808 6.60777 3.71565 6.86859 3.42478C6.98955 3.28879 7.13319 3.18302 7.30706 3.1188C7.38644 3.08858 7.46582 3.06214 7.55276 3.03192C7.55276 2.97148 7.56032 2.90726 7.55276 2.8506C7.49606 2.37463 7.43936 1.89488 7.38266 1.41891C7.37888 1.40002 7.37888 1.37736 7.37888 1.35469C7.37888 1.17715 7.42802 1.11293 7.61324 1.08271C7.6964 1.0676 7.78334 1.0676 7.8665 1.06005C8.23694 1.04116 8.60738 1.02982 8.97781 1.00715C9.41629 0.980712 9.84721 1.0336 10.2781 1.0676C10.3084 1.07137 10.3424 1.07893 10.3726 1.08271C10.5956 1.12804 10.6486 1.18093 10.6297 1.40002C10.6108 1.60779 10.573 1.81555 10.5314 2.01953C10.4709 2.29529 10.3991 2.56729 10.3348 2.84305C10.3197 2.91482 10.3084 2.98658 10.297 3.06969C10.4104 3.13013 10.5238 3.1868 10.6259 3.25102C10.9094 3.43234 11.0833 3.68543 11.0833 4.02919C11.0833 4.38806 10.9245 4.65627 10.5919 4.80359C10.4218 4.87914 10.2328 4.92447 10.0362 4.98491C10.0967 5.1889 10.2176 5.34755 10.418 5.44199C10.573 5.51754 10.7355 5.55909 10.9094 5.56287C11.0908 5.56665 11.2685 5.56666 11.4499 5.57043C12.0207 5.58554 12.5953 5.60442 13.166 5.61953C14.3681 5.64975 15.5625 6.49593 16.0502 7.28921C16.2543 7.62163 16.447 7.95784 16.568 8.32804C16.7116 8.76623 16.8515 9.20442 16.9725 9.64639C17.1804 10.3981 17.1539 11.1612 17.0329 11.9167C16.9498 12.4418 16.8099 12.9593 16.6852 13.4768C16.568 13.9679 16.379 14.4325 16.122 14.8707C15.812 15.4034 15.4907 15.9322 15.1619 16.4573C14.9124 16.8615 14.5911 17.2128 14.2395 17.5301C13.9334 17.8059 13.6272 18.0779 13.3248 18.3574C12.8069 18.8296 12.1984 19.1734 11.5822 19.4982C11.3932 19.5965 11.1853 19.6418 10.9774 19.6795C10.7922 19.7135 10.6032 19.7513 10.4218 19.808C10.0324 19.9327 9.62797 19.9553 9.22729 19.9666C8.14244 19.9969 7.09161 19.8307 6.08991 19.4151C5.34904 19.1091 4.68754 18.6747 4.12054 18.1119C3.26249 17.2581 2.57453 16.2835 2.02266 15.2145C1.65222 14.493 1.35738 13.7488 1.17972 12.9555C0.843304 11.4483 0.975603 9.98638 1.60686 8.5698C1.83366 8.05984 2.0907 7.57253 2.42711 7.123C2.65391 6.82079 2.91473 6.54503 3.21335 6.30705C3.65183 5.95574 4.15834 5.7593 4.71778 5.67997C5.10712 5.62709 5.50024 5.62709 5.89335 5.62709C6.26757 5.62709 6.63423 5.59687 6.99711 5.50243C7.11807 5.47221 7.23903 5.42688 7.35243 5.37399C7.5641 5.28333 7.6397 5.1889 7.76444 4.89425ZM7.96478 4.93958C7.93832 4.99624 7.91564 5.03402 7.9043 5.07558C7.79846 5.38533 7.583 5.58932 7.28439 5.70642C7.09917 5.77819 6.90639 5.83863 6.70983 5.88397C6.34695 5.96707 5.97273 5.97462 5.60229 5.99729C5.30746 6.01617 5.00884 6.03507 4.71778 6.07284C4.24528 6.13706 3.82571 6.32972 3.45905 6.63192C3.15665 6.88124 2.89205 7.16833 2.67659 7.4932C1.54638 9.21954 1.16082 11.0781 1.69002 13.0915C1.87902 13.8017 2.15874 14.4779 2.50271 15.1276C2.97899 16.0304 3.56111 16.8653 4.26418 17.6132C4.97104 18.365 5.81775 18.9052 6.81189 19.2074C7.66238 19.468 8.528 19.57 9.41629 19.5096C9.95683 19.4718 10.4898 19.3811 11.019 19.2829C11.1853 19.2527 11.3479 19.2036 11.4953 19.1167C12.1454 18.7389 12.7805 18.3423 13.3059 17.8021C13.51 17.5906 13.7368 17.3979 13.9523 17.1977C14.2547 16.9182 14.5306 16.6122 14.7498 16.2647C15.1052 15.6942 15.4567 15.1238 15.7969 14.5459C16.0577 14.1001 16.2392 13.6204 16.3639 13.1217C16.4622 12.7251 16.568 12.3322 16.6398 11.9318C16.757 11.2783 16.7872 10.621 16.6587 9.96749C16.5415 9.3933 16.3639 8.83423 16.1522 8.28649C16.0237 7.95406 15.8536 7.63675 15.6381 7.35343C15.1392 6.69614 14.4928 6.23905 13.6688 6.06151C13.3512 5.99351 13.0186 5.96707 12.6898 5.95196C12.2362 5.93307 11.7788 5.94441 11.3214 5.93307C11.0984 5.9293 10.8754 5.91796 10.6561 5.88397C10.2365 5.81975 9.93037 5.60821 9.79429 5.19268C9.77161 5.12468 9.73759 5.06423 9.71491 5.0189C9.12523 4.99624 8.55446 4.9698 7.96478 4.93958ZM7.44692 3.46634C7.26927 3.53056 7.23903 3.54945 7.16343 3.63255C6.98955 3.82521 6.94041 3.98386 7.15586 4.24451C7.22012 4.32384 7.3184 4.38051 7.40912 4.42584C7.49228 4.46739 7.59056 4.49005 7.68128 4.50516C7.9232 4.54294 8.16134 4.58072 8.40704 4.60338C8.92489 4.65249 9.44275 4.68271 9.96439 4.6336C10.1345 4.61849 10.3008 4.58071 10.452 4.50138C10.7204 4.36161 10.8073 4.06696 10.6675 3.80253C10.5692 3.62121 10.4142 3.51167 10.1874 3.43234C10.2139 3.62878 10.3084 3.78743 10.263 4.01031C10.2063 3.93853 10.1723 3.90076 10.1458 3.85921C10.0778 3.75344 10.0097 3.64765 9.94171 3.54188C9.84343 3.39078 9.71113 3.31146 9.51835 3.31524C9.13657 3.3228 8.7548 3.31901 8.37302 3.31901C8.3201 3.31901 8.27096 3.33035 8.22938 3.33412C8.08952 3.489 8.14244 3.71188 8.00258 3.85543C7.87028 3.7081 7.93454 3.53434 7.93454 3.34924C7.87406 3.38323 7.83248 3.39457 7.80602 3.42101C7.6775 3.55322 7.61702 3.71943 7.57922 3.89697C7.5641 3.97252 7.55654 4.05941 7.47338 4.10475C7.33353 3.88565 7.33353 3.88565 7.44692 3.46634ZM9.18571 2.93749C9.18571 2.38596 9.21595 2.18953 9.35203 1.9931C9.36715 2.3293 9.38227 2.63906 9.39739 2.97148C9.47299 2.97904 9.54859 2.98281 9.61285 2.99037C9.67711 2.49173 9.74137 2.01576 9.79807 1.54357C9.80563 1.48691 9.79429 1.42269 9.79051 1.36603C9.61285 1.30559 9.44275 1.32069 9.27265 1.31692C9.09121 1.31314 8.91355 1.31692 8.73211 1.31692C8.56202 1.32069 8.39192 1.32069 8.2256 1.32825C8.05172 1.3358 7.87028 1.32447 7.70396 1.38869C7.7153 1.94021 7.72664 2.46529 7.73798 3.0017C7.87028 3.0017 7.98368 3.00548 8.09708 3.0017C8.13866 3.0017 8.17646 2.98658 8.2256 2.97525C8.17268 2.5635 8.12354 2.1593 8.16134 1.69089C8.30876 2.15175 8.34656 2.57106 8.42216 2.99415C8.50154 2.97904 8.55824 2.9677 8.61872 2.95637C8.55824 2.25375 8.55824 2.15176 8.6414 1.90999C8.78504 2.2613 8.79259 2.60128 8.81149 2.9337C8.94001 2.97903 9.04963 2.97148 9.18571 2.93749ZM9.81319 2.99793C9.98329 3.00548 9.99463 3.00548 10.0173 2.90349C10.1118 2.51062 10.2063 2.11398 10.2932 1.71733C10.3159 1.61912 10.3424 1.51335 10.2781 1.40002C10.1761 1.36602 10.0664 1.35091 9.95305 1.38491C9.90769 1.9251 9.86233 2.45018 9.81319 2.99793Z" stroke="black" stroke-width="0.2" mask="url(#path-1-outside-1_2_5549)"/>
<mask id="path-2-outside-2_2_5549" maskUnits="userSpaceOnUse" x="1.06601" y="6.34315" width="16" height="13" fill="black">
<rect fill="white" x="1.06601" y="6.34315" width="16" height="13"/>
<path d="M15.6003 9.41598C15.5814 9.31399 15.5814 9.24222 15.5588 9.18177C15.4038 8.78891 15.1959 8.42627 14.9729 8.07118C14.8557 7.88608 14.7347 7.70097 14.6213 7.5121C14.5949 7.47054 14.5797 7.42144 14.5608 7.38366C14.6062 7.31566 14.644 7.34966 14.678 7.36855C15.0296 7.5612 15.2828 7.83696 15.4869 8.1845C15.8876 8.86823 16.0653 9.58975 16.0388 10.3717C16.0237 10.8401 16.0124 11.3085 15.933 11.7769C15.8347 12.3474 15.6533 12.8913 15.3849 13.4051C15.1089 13.9339 14.8179 14.4552 14.4815 14.9539C14.3529 15.1465 14.2206 15.3354 14.1035 15.5356C13.8162 16.0267 13.4722 16.4762 13.1131 16.9144C12.3344 17.8588 11.3441 18.4556 10.1458 18.7276C9.10633 18.9656 8.08196 18.8938 7.07648 18.5576C6.42255 18.3385 5.86689 17.9532 5.35282 17.515C3.96934 16.344 2.97521 14.9085 2.43845 13.186C2.1474 12.2529 1.99997 11.2934 2.09447 10.3113C2.12093 10.0544 2.17385 9.79373 2.23055 9.54063C2.26079 9.4122 2.29481 9.27621 2.44223 9.15533C2.43089 9.34043 2.42333 9.48775 2.41577 9.66907C2.48381 9.63129 2.52917 9.61241 2.56697 9.58596C2.73707 9.4613 2.89961 9.32532 3.06971 9.20444C3.44015 8.94379 3.85972 8.81913 4.30954 8.75491C5.00128 8.65669 5.65899 8.77002 6.30159 9.01556C6.52839 9.10245 6.76275 9.17044 6.99711 9.23465C7.21634 9.29132 7.43936 9.28755 7.6586 9.23088C7.95722 9.15533 8.25206 9.076 8.55068 9.00045C8.68298 8.96645 8.81527 8.92868 8.95135 8.89468C9.42007 8.78513 9.88123 8.84935 10.331 8.98157C10.5843 9.05334 10.8338 9.144 11.087 9.2271C11.1664 9.25355 11.2458 9.28377 11.3252 9.31021C11.7032 9.43109 12.0736 9.42731 12.4441 9.27998C12.7389 9.16288 13.0337 9.04578 13.3512 8.9929C13.7519 8.9249 14.1564 8.92112 14.5533 8.97778C14.8708 9.01934 15.1694 9.12888 15.434 9.31398C15.4718 9.3442 15.5172 9.36687 15.6003 9.41598ZM9.03829 10.4435C8.82283 10.7986 8.61116 11.1499 8.40326 11.4936C8.41838 11.5238 8.42216 11.5352 8.42972 11.5427C8.93245 11.8487 9.47677 11.9167 10.0513 11.8261C10.1534 11.8109 10.2176 11.7543 10.2668 11.6598C10.3915 11.4181 10.5465 11.1914 10.7279 10.9874C10.7582 10.9534 10.7998 10.927 10.8754 10.8552C10.7884 11.1952 10.5767 11.4067 10.4331 11.6938C10.5276 11.6825 10.5843 11.6598 10.641 11.6372C10.9056 11.5276 11.1362 11.3576 11.3668 11.1914C11.4613 11.1196 11.5331 11.0365 11.5898 10.9345C11.7863 10.5757 12.0207 10.2395 12.2815 9.92217C12.3118 9.88439 12.3344 9.83906 12.3722 9.77862C12.2929 9.77862 12.2399 9.76729 12.1908 9.77862C11.9262 9.83906 11.6654 9.80885 11.4008 9.75974C11.3403 9.74841 11.2798 9.73707 11.2307 9.72574C10.4444 10.7192 10.3273 10.8477 10.1194 10.9383C10.2857 10.7117 10.4407 10.5001 10.5919 10.2886C10.7431 10.077 10.9358 9.8995 11.0795 9.66907C10.9094 9.60107 10.7657 9.51042 10.5881 9.51042C10.4218 9.78996 10.2706 10.0619 10.0967 10.3264C9.92281 10.5946 9.74137 10.859 9.50323 11.0894C9.45409 11.0063 9.51457 10.9572 9.54103 10.9043C9.77539 10.4586 10.0513 10.0393 10.3386 9.62374C10.3764 9.56708 10.3991 9.50286 10.4293 9.43865C9.71491 9.12889 9.03073 9.17799 8.32766 9.44998C8.1122 9.92973 7.83626 10.3868 7.52252 10.825C7.51496 10.8401 7.52252 10.8628 7.52252 10.9043C7.57544 10.9421 7.64348 10.9912 7.71908 11.0479C7.81358 10.9006 7.89674 10.7683 7.98368 10.6399C8.15 10.3944 8.15756 10.3868 8.33144 10.2886C8.31254 10.3415 8.30498 10.383 8.28608 10.417C8.1689 10.6172 8.04794 10.8137 7.93076 11.0101C7.90052 11.0592 7.87784 11.1159 7.8476 11.1763C7.98746 11.2745 8.09708 11.3879 8.25962 11.4445C8.47886 11.0705 8.65274 10.6852 9.03829 10.4435ZM15.4038 9.88439C15.2866 9.71818 15.1241 9.60864 14.9426 9.52553C14.678 9.40465 14.3983 9.35932 14.111 9.34421C13.5554 9.31021 13.0413 9.45753 12.5423 9.6993C12.4743 9.82396 12.4063 9.9524 12.3344 10.0808C12.2664 10.1979 12.1946 10.315 12.1265 10.4321C12.0585 10.553 11.9527 10.6588 11.9035 10.8212C12.1303 10.7608 12.3307 10.6966 12.5348 10.655C12.6482 10.6323 12.72 10.5795 12.7842 10.485C12.9014 10.3113 13.0299 10.145 13.1585 9.97883C13.1774 9.95239 13.2189 9.93729 13.2908 9.89195C13.2189 10.1224 13.1131 10.2735 13.0148 10.4321C12.9921 10.4699 12.9846 10.519 12.9619 10.587C13.2114 10.5644 13.4306 10.5455 13.6574 10.5228C13.8729 10.2433 14.0165 9.91839 14.2887 9.68418C14.2622 9.82773 14.1791 9.94861 14.1072 10.0695C14.0316 10.2017 13.9182 10.315 13.854 10.4661C14.3567 10.4964 15.0447 10.2357 15.4038 9.88439ZM8.12732 9.51042C8.04794 9.51797 7.97234 9.51798 7.90808 9.53686C7.39022 9.68419 6.8837 9.62374 6.38097 9.44998C6.29403 9.41976 6.20709 9.39709 6.11259 9.36687C6.02943 9.53308 5.95383 9.68041 5.88201 9.83151C5.81019 9.97506 5.69301 10.0959 5.64387 10.2773C5.71947 10.281 5.77239 10.2848 5.82153 10.2848C5.88579 10.2848 5.94627 10.2848 5.99541 10.2848C6.33183 9.82773 6.33183 9.82773 6.54351 9.73329C6.44901 9.8995 6.35451 10.0317 6.26379 10.1677C6.23733 10.2055 6.23355 10.2546 6.21843 10.3075C6.36585 10.3339 6.48681 10.3566 6.61911 10.3792C6.66069 10.3264 6.70227 10.281 6.74007 10.2319C6.78543 10.1753 6.82701 10.1148 6.87237 10.0544C6.91017 10.0053 6.95553 9.95995 7.00089 9.91462C7.04625 9.86929 7.0916 9.81639 7.19744 9.78617C7.08026 10.0393 6.91773 10.2168 6.77787 10.4208C6.98576 10.5341 7.17476 10.6399 7.36376 10.7457C7.60568 10.4208 8.04794 9.71063 8.12732 9.51042ZM3.11507 12.3587C3.09617 12.3662 3.08105 12.3738 3.06215 12.3776C3.06593 12.4191 3.05837 12.4607 3.06971 12.4985C3.26249 13.288 3.54599 14.0359 4.04116 14.6932C4.24906 14.969 4.46452 15.241 4.68376 15.5092C5.04664 15.9549 5.49267 16.3062 5.96895 16.6198C5.99541 16.6386 6.03699 16.6386 6.13149 16.6613C5.87823 16.3175 5.65521 16.0267 5.38683 15.7736C4.93324 15.3429 4.54768 14.8632 4.17346 14.3646C3.9013 14.0019 3.6745 13.6128 3.49685 13.1973C3.40235 12.9782 3.31163 12.7516 3.21713 12.5325C3.18689 12.4758 3.14909 12.4191 3.11507 12.3587ZM6.75141 11.6901C6.73251 11.6712 6.71361 11.6447 6.69093 11.6296C6.23733 11.3501 5.74971 11.1537 5.23186 11.0328C4.90678 10.9572 4.57792 10.9421 4.2604 11.0554C4.0525 11.1272 3.85216 11.2254 3.64805 11.3161C3.61403 11.3312 3.56867 11.3539 3.59513 11.4219C3.64049 11.4219 3.68962 11.4294 3.73876 11.4219C3.8824 11.3916 4.02604 11.3539 4.16968 11.3199C4.48342 11.2443 4.80094 11.2405 5.1109 11.335C5.33392 11.403 5.55315 11.4747 5.77617 11.5465C6.08613 11.6447 6.40365 11.7089 6.75141 11.6901ZM3.03947 10.7192C3.11885 10.7343 3.16799 10.7532 3.22091 10.757C3.31541 10.7646 3.40991 10.7608 3.50441 10.7608C3.59891 10.7608 3.65939 10.7192 3.70096 10.6323C3.85594 10.2999 4.08274 10.0128 4.2982 9.71818C4.41538 9.55952 4.52878 9.3971 4.64218 9.23088C4.66864 9.19311 4.6762 9.14399 4.6951 9.09111C4.54768 9.09111 4.42294 9.09111 4.30198 9.09111C3.8824 9.63129 3.47417 10.1564 3.03947 10.7192ZM3.82948 10.6966C4.00336 10.7192 4.147 10.6399 4.2982 10.6059C4.40404 10.5832 4.46074 10.519 4.50988 10.4359C4.73668 10.0204 5.00884 9.63886 5.2999 9.26488C5.32258 9.23466 5.33014 9.19688 5.34904 9.15155C5.17516 9.07222 5.01262 9.07222 4.86898 9.09111C4.51744 9.63507 4.17724 10.1602 3.82948 10.6966ZM11.0417 11.9734C10.9245 11.9809 10.864 11.9772 10.8111 11.9923C10.5881 12.0527 10.3613 12.1056 10.142 12.1849C9.57883 12.3889 9.01183 12.4267 8.42972 12.2982C8.35412 12.2831 8.26718 12.2529 8.19158 12.3096C8.28608 12.4456 8.28986 12.4493 8.47886 12.5173C8.98159 12.6949 9.49189 12.7138 10.006 12.5778C10.384 12.4758 10.709 12.2794 11.0417 11.9734ZM6.05211 13.4731C6.04455 13.4919 6.04077 13.5071 6.03321 13.5259C6.15417 13.6544 6.27513 13.7828 6.39609 13.915C6.74763 14.3041 7.19744 14.4892 7.71908 14.4817C8.00258 14.4779 8.28608 14.4326 8.56957 14.3986C8.60359 14.3948 8.63384 14.3608 8.69809 14.3155C8.60738 14.3003 8.55824 14.289 8.5091 14.2815C8.18402 14.2437 7.85894 14.2021 7.53386 14.1681C7.14452 14.1266 6.80055 13.9792 6.50949 13.7186C6.41499 13.6355 6.30915 13.5675 6.20331 13.4995C6.15795 13.4768 6.10125 13.4806 6.05211 13.4731ZM5.55693 9.18177C5.51536 9.22711 5.48512 9.25355 5.46244 9.28755C5.2054 9.65774 4.95214 10.0279 4.69888 10.3981C4.6951 10.4057 4.69132 10.4208 4.6951 10.4284C4.6951 10.4359 4.70644 10.4435 4.72156 10.4586C4.94836 10.4057 5.17893 10.349 5.40951 10.2961C5.50401 10.1224 5.59095 9.95617 5.67789 9.78995C5.76483 9.62374 5.89713 9.48776 5.95761 9.28755C5.81775 9.24977 5.68923 9.21577 5.55693 9.18177ZM13.6007 13.6959C13.4684 13.7979 13.4193 13.949 13.3437 14.0812C13.2605 14.2248 13.1811 14.3759 13.1018 14.5194C13.0262 14.6554 12.9506 14.7952 12.8674 14.9274C12.7843 15.0596 12.6935 15.1881 12.599 15.3127C12.497 15.4449 12.3911 15.5734 12.2853 15.7056C12.1908 15.8227 12.0698 15.9247 11.9867 16.072C12.1379 16.0871 12.2286 16.0116 12.3155 15.9398C12.686 15.6376 13.011 15.3014 13.2416 14.8821C13.4382 14.5157 13.5554 14.119 13.6007 13.6959ZM4.02226 9.13645C3.6745 9.178 3.44015 9.2611 3.28139 9.53308C3.08483 9.86551 2.84669 10.1753 2.62745 10.4964C2.60477 10.5266 2.59721 10.5681 2.58209 10.6097C2.68793 10.6626 2.77865 10.7117 2.89205 10.6928C3.06215 10.4359 3.22091 10.1753 3.39857 9.92972C3.58378 9.67285 3.7879 9.43487 4.02226 9.13645ZM11.363 15.1881C11.174 15.2447 11.0303 15.3618 10.8867 15.4827C10.5654 15.7585 10.2101 15.9738 9.81319 16.1325C9.77161 16.1513 9.73003 16.1778 9.65821 16.2156C9.94927 16.2269 10.1912 16.1589 10.5276 15.9738C10.8791 15.7887 11.1815 15.5545 11.363 15.1881ZM6.76653 17.1297C6.97443 17.5679 7.51874 17.821 7.94588 17.6775C7.54898 17.4659 7.15964 17.2997 6.76653 17.1297ZM2.42333 9.90329C2.36285 10.3037 2.36663 10.3566 2.46869 10.5341C2.48759 10.5001 2.51027 10.4775 2.52161 10.451C2.65769 10.1299 2.85425 9.84662 3.06971 9.57841C3.08483 9.55952 3.08483 9.52553 3.09995 9.46131C2.85047 9.62752 2.63123 9.7673 2.42333 9.90329ZM14.988 11.6561C14.9502 11.6938 14.9162 11.7203 14.8973 11.7505C14.7272 12.0489 14.5571 12.3474 14.3907 12.6496C14.3832 12.6609 14.3983 12.6835 14.4021 12.7024C14.7536 12.5249 15.0296 12.0414 14.988 11.6561ZM10.4218 14.0699C10.8413 14.1266 11.2647 13.9755 11.5784 13.6695C11.1589 13.7262 10.8187 13.915 10.4218 14.0699ZM8.65652 17.7757C8.82661 17.9381 8.98537 17.9721 9.15169 17.991C9.34447 18.0099 9.53347 17.9986 9.72247 17.8852C9.50701 17.7946 9.19327 17.7644 8.65652 17.7757ZM12.5008 11.7769C12.7956 11.7883 13.0791 11.7165 13.3664 11.5767C13.4042 11.5578 13.4306 11.5201 13.4873 11.4672C13.1131 11.437 12.8145 11.5276 12.5008 11.7769ZM11.2458 17.4924C11.3403 17.4735 11.3932 17.4697 11.4386 17.4508C11.6465 17.3602 11.7939 17.1977 11.93 17.0277C11.9564 16.9937 11.9753 16.9597 11.9149 16.9257C11.6767 17.0731 11.465 17.2468 11.2458 17.4924Z"/>
</mask>
<path d="M15.6003 9.41598C15.5814 9.31399 15.5814 9.24222 15.5588 9.18177C15.4038 8.78891 15.1959 8.42627 14.9729 8.07118C14.8557 7.88608 14.7347 7.70097 14.6213 7.5121C14.5949 7.47054 14.5797 7.42144 14.5608 7.38366C14.6062 7.31566 14.644 7.34966 14.678 7.36855C15.0296 7.5612 15.2828 7.83696 15.4869 8.1845C15.8876 8.86823 16.0653 9.58975 16.0388 10.3717C16.0237 10.8401 16.0124 11.3085 15.933 11.7769C15.8347 12.3474 15.6533 12.8913 15.3849 13.4051C15.1089 13.9339 14.8179 14.4552 14.4815 14.9539C14.3529 15.1465 14.2206 15.3354 14.1035 15.5356C13.8162 16.0267 13.4722 16.4762 13.1131 16.9144C12.3344 17.8588 11.3441 18.4556 10.1458 18.7276C9.10633 18.9656 8.08196 18.8938 7.07648 18.5576C6.42255 18.3385 5.86689 17.9532 5.35282 17.515C3.96934 16.344 2.97521 14.9085 2.43845 13.186C2.1474 12.2529 1.99997 11.2934 2.09447 10.3113C2.12093 10.0544 2.17385 9.79373 2.23055 9.54063C2.26079 9.4122 2.29481 9.27621 2.44223 9.15533C2.43089 9.34043 2.42333 9.48775 2.41577 9.66907C2.48381 9.63129 2.52917 9.61241 2.56697 9.58596C2.73707 9.4613 2.89961 9.32532 3.06971 9.20444C3.44015 8.94379 3.85972 8.81913 4.30954 8.75491C5.00128 8.65669 5.65899 8.77002 6.30159 9.01556C6.52839 9.10245 6.76275 9.17044 6.99711 9.23465C7.21634 9.29132 7.43936 9.28755 7.6586 9.23088C7.95722 9.15533 8.25206 9.076 8.55068 9.00045C8.68298 8.96645 8.81527 8.92868 8.95135 8.89468C9.42007 8.78513 9.88123 8.84935 10.331 8.98157C10.5843 9.05334 10.8338 9.144 11.087 9.2271C11.1664 9.25355 11.2458 9.28377 11.3252 9.31021C11.7032 9.43109 12.0736 9.42731 12.4441 9.27998C12.7389 9.16288 13.0337 9.04578 13.3512 8.9929C13.7519 8.9249 14.1564 8.92112 14.5533 8.97778C14.8708 9.01934 15.1694 9.12888 15.434 9.31398C15.4718 9.3442 15.5172 9.36687 15.6003 9.41598ZM9.03829 10.4435C8.82283 10.7986 8.61116 11.1499 8.40326 11.4936C8.41838 11.5238 8.42216 11.5352 8.42972 11.5427C8.93245 11.8487 9.47677 11.9167 10.0513 11.8261C10.1534 11.8109 10.2176 11.7543 10.2668 11.6598C10.3915 11.4181 10.5465 11.1914 10.7279 10.9874C10.7582 10.9534 10.7998 10.927 10.8754 10.8552C10.7884 11.1952 10.5767 11.4067 10.4331 11.6938C10.5276 11.6825 10.5843 11.6598 10.641 11.6372C10.9056 11.5276 11.1362 11.3576 11.3668 11.1914C11.4613 11.1196 11.5331 11.0365 11.5898 10.9345C11.7863 10.5757 12.0207 10.2395 12.2815 9.92217C12.3118 9.88439 12.3344 9.83906 12.3722 9.77862C12.2929 9.77862 12.2399 9.76729 12.1908 9.77862C11.9262 9.83906 11.6654 9.80885 11.4008 9.75974C11.3403 9.74841 11.2798 9.73707 11.2307 9.72574C10.4444 10.7192 10.3273 10.8477 10.1194 10.9383C10.2857 10.7117 10.4407 10.5001 10.5919 10.2886C10.7431 10.077 10.9358 9.8995 11.0795 9.66907C10.9094 9.60107 10.7657 9.51042 10.5881 9.51042C10.4218 9.78996 10.2706 10.0619 10.0967 10.3264C9.92281 10.5946 9.74137 10.859 9.50323 11.0894C9.45409 11.0063 9.51457 10.9572 9.54103 10.9043C9.77539 10.4586 10.0513 10.0393 10.3386 9.62374C10.3764 9.56708 10.3991 9.50286 10.4293 9.43865C9.71491 9.12889 9.03073 9.17799 8.32766 9.44998C8.1122 9.92973 7.83626 10.3868 7.52252 10.825C7.51496 10.8401 7.52252 10.8628 7.52252 10.9043C7.57544 10.9421 7.64348 10.9912 7.71908 11.0479C7.81358 10.9006 7.89674 10.7683 7.98368 10.6399C8.15 10.3944 8.15756 10.3868 8.33144 10.2886C8.31254 10.3415 8.30498 10.383 8.28608 10.417C8.1689 10.6172 8.04794 10.8137 7.93076 11.0101C7.90052 11.0592 7.87784 11.1159 7.8476 11.1763C7.98746 11.2745 8.09708 11.3879 8.25962 11.4445C8.47886 11.0705 8.65274 10.6852 9.03829 10.4435ZM15.4038 9.88439C15.2866 9.71818 15.1241 9.60864 14.9426 9.52553C14.678 9.40465 14.3983 9.35932 14.111 9.34421C13.5554 9.31021 13.0413 9.45753 12.5423 9.6993C12.4743 9.82396 12.4063 9.9524 12.3344 10.0808C12.2664 10.1979 12.1946 10.315 12.1265 10.4321C12.0585 10.553 11.9527 10.6588 11.9035 10.8212C12.1303 10.7608 12.3307 10.6966 12.5348 10.655C12.6482 10.6323 12.72 10.5795 12.7842 10.485C12.9014 10.3113 13.0299 10.145 13.1585 9.97883C13.1774 9.95239 13.2189 9.93729 13.2908 9.89195C13.2189 10.1224 13.1131 10.2735 13.0148 10.4321C12.9921 10.4699 12.9846 10.519 12.9619 10.587C13.2114 10.5644 13.4306 10.5455 13.6574 10.5228C13.8729 10.2433 14.0165 9.91839 14.2887 9.68418C14.2622 9.82773 14.1791 9.94861 14.1072 10.0695C14.0316 10.2017 13.9182 10.315 13.854 10.4661C14.3567 10.4964 15.0447 10.2357 15.4038 9.88439ZM8.12732 9.51042C8.04794 9.51797 7.97234 9.51798 7.90808 9.53686C7.39022 9.68419 6.8837 9.62374 6.38097 9.44998C6.29403 9.41976 6.20709 9.39709 6.11259 9.36687C6.02943 9.53308 5.95383 9.68041 5.88201 9.83151C5.81019 9.97506 5.69301 10.0959 5.64387 10.2773C5.71947 10.281 5.77239 10.2848 5.82153 10.2848C5.88579 10.2848 5.94627 10.2848 5.99541 10.2848C6.33183 9.82773 6.33183 9.82773 6.54351 9.73329C6.44901 9.8995 6.35451 10.0317 6.26379 10.1677C6.23733 10.2055 6.23355 10.2546 6.21843 10.3075C6.36585 10.3339 6.48681 10.3566 6.61911 10.3792C6.66069 10.3264 6.70227 10.281 6.74007 10.2319C6.78543 10.1753 6.82701 10.1148 6.87237 10.0544C6.91017 10.0053 6.95553 9.95995 7.00089 9.91462C7.04625 9.86929 7.0916 9.81639 7.19744 9.78617C7.08026 10.0393 6.91773 10.2168 6.77787 10.4208C6.98576 10.5341 7.17476 10.6399 7.36376 10.7457C7.60568 10.4208 8.04794 9.71063 8.12732 9.51042ZM3.11507 12.3587C3.09617 12.3662 3.08105 12.3738 3.06215 12.3776C3.06593 12.4191 3.05837 12.4607 3.06971 12.4985C3.26249 13.288 3.54599 14.0359 4.04116 14.6932C4.24906 14.969 4.46452 15.241 4.68376 15.5092C5.04664 15.9549 5.49267 16.3062 5.96895 16.6198C5.99541 16.6386 6.03699 16.6386 6.13149 16.6613C5.87823 16.3175 5.65521 16.0267 5.38683 15.7736C4.93324 15.3429 4.54768 14.8632 4.17346 14.3646C3.9013 14.0019 3.6745 13.6128 3.49685 13.1973C3.40235 12.9782 3.31163 12.7516 3.21713 12.5325C3.18689 12.4758 3.14909 12.4191 3.11507 12.3587ZM6.75141 11.6901C6.73251 11.6712 6.71361 11.6447 6.69093 11.6296C6.23733 11.3501 5.74971 11.1537 5.23186 11.0328C4.90678 10.9572 4.57792 10.9421 4.2604 11.0554C4.0525 11.1272 3.85216 11.2254 3.64805 11.3161C3.61403 11.3312 3.56867 11.3539 3.59513 11.4219C3.64049 11.4219 3.68962 11.4294 3.73876 11.4219C3.8824 11.3916 4.02604 11.3539 4.16968 11.3199C4.48342 11.2443 4.80094 11.2405 5.1109 11.335C5.33392 11.403 5.55315 11.4747 5.77617 11.5465C6.08613 11.6447 6.40365 11.7089 6.75141 11.6901ZM3.03947 10.7192C3.11885 10.7343 3.16799 10.7532 3.22091 10.757C3.31541 10.7646 3.40991 10.7608 3.50441 10.7608C3.59891 10.7608 3.65939 10.7192 3.70096 10.6323C3.85594 10.2999 4.08274 10.0128 4.2982 9.71818C4.41538 9.55952 4.52878 9.3971 4.64218 9.23088C4.66864 9.19311 4.6762 9.14399 4.6951 9.09111C4.54768 9.09111 4.42294 9.09111 4.30198 9.09111C3.8824 9.63129 3.47417 10.1564 3.03947 10.7192ZM3.82948 10.6966C4.00336 10.7192 4.147 10.6399 4.2982 10.6059C4.40404 10.5832 4.46074 10.519 4.50988 10.4359C4.73668 10.0204 5.00884 9.63886 5.2999 9.26488C5.32258 9.23466 5.33014 9.19688 5.34904 9.15155C5.17516 9.07222 5.01262 9.07222 4.86898 9.09111C4.51744 9.63507 4.17724 10.1602 3.82948 10.6966ZM11.0417 11.9734C10.9245 11.9809 10.864 11.9772 10.8111 11.9923C10.5881 12.0527 10.3613 12.1056 10.142 12.1849C9.57883 12.3889 9.01183 12.4267 8.42972 12.2982C8.35412 12.2831 8.26718 12.2529 8.19158 12.3096C8.28608 12.4456 8.28986 12.4493 8.47886 12.5173C8.98159 12.6949 9.49189 12.7138 10.006 12.5778C10.384 12.4758 10.709 12.2794 11.0417 11.9734ZM6.05211 13.4731C6.04455 13.4919 6.04077 13.5071 6.03321 13.5259C6.15417 13.6544 6.27513 13.7828 6.39609 13.915C6.74763 14.3041 7.19744 14.4892 7.71908 14.4817C8.00258 14.4779 8.28608 14.4326 8.56957 14.3986C8.60359 14.3948 8.63384 14.3608 8.69809 14.3155C8.60738 14.3003 8.55824 14.289 8.5091 14.2815C8.18402 14.2437 7.85894 14.2021 7.53386 14.1681C7.14452 14.1266 6.80055 13.9792 6.50949 13.7186C6.41499 13.6355 6.30915 13.5675 6.20331 13.4995C6.15795 13.4768 6.10125 13.4806 6.05211 13.4731ZM5.55693 9.18177C5.51536 9.22711 5.48512 9.25355 5.46244 9.28755C5.2054 9.65774 4.95214 10.0279 4.69888 10.3981C4.6951 10.4057 4.69132 10.4208 4.6951 10.4284C4.6951 10.4359 4.70644 10.4435 4.72156 10.4586C4.94836 10.4057 5.17893 10.349 5.40951 10.2961C5.50401 10.1224 5.59095 9.95617 5.67789 9.78995C5.76483 9.62374 5.89713 9.48776 5.95761 9.28755C5.81775 9.24977 5.68923 9.21577 5.55693 9.18177ZM13.6007 13.6959C13.4684 13.7979 13.4193 13.949 13.3437 14.0812C13.2605 14.2248 13.1811 14.3759 13.1018 14.5194C13.0262 14.6554 12.9506 14.7952 12.8674 14.9274C12.7843 15.0596 12.6935 15.1881 12.599 15.3127C12.497 15.4449 12.3911 15.5734 12.2853 15.7056C12.1908 15.8227 12.0698 15.9247 11.9867 16.072C12.1379 16.0871 12.2286 16.0116 12.3155 15.9398C12.686 15.6376 13.011 15.3014 13.2416 14.8821C13.4382 14.5157 13.5554 14.119 13.6007 13.6959ZM4.02226 9.13645C3.6745 9.178 3.44015 9.2611 3.28139 9.53308C3.08483 9.86551 2.84669 10.1753 2.62745 10.4964C2.60477 10.5266 2.59721 10.5681 2.58209 10.6097C2.68793 10.6626 2.77865 10.7117 2.89205 10.6928C3.06215 10.4359 3.22091 10.1753 3.39857 9.92972C3.58378 9.67285 3.7879 9.43487 4.02226 9.13645ZM11.363 15.1881C11.174 15.2447 11.0303 15.3618 10.8867 15.4827C10.5654 15.7585 10.2101 15.9738 9.81319 16.1325C9.77161 16.1513 9.73003 16.1778 9.65821 16.2156C9.94927 16.2269 10.1912 16.1589 10.5276 15.9738C10.8791 15.7887 11.1815 15.5545 11.363 15.1881ZM6.76653 17.1297C6.97443 17.5679 7.51874 17.821 7.94588 17.6775C7.54898 17.4659 7.15964 17.2997 6.76653 17.1297ZM2.42333 9.90329C2.36285 10.3037 2.36663 10.3566 2.46869 10.5341C2.48759 10.5001 2.51027 10.4775 2.52161 10.451C2.65769 10.1299 2.85425 9.84662 3.06971 9.57841C3.08483 9.55952 3.08483 9.52553 3.09995 9.46131C2.85047 9.62752 2.63123 9.7673 2.42333 9.90329ZM14.988 11.6561C14.9502 11.6938 14.9162 11.7203 14.8973 11.7505C14.7272 12.0489 14.5571 12.3474 14.3907 12.6496C14.3832 12.6609 14.3983 12.6835 14.4021 12.7024C14.7536 12.5249 15.0296 12.0414 14.988 11.6561ZM10.4218 14.0699C10.8413 14.1266 11.2647 13.9755 11.5784 13.6695C11.1589 13.7262 10.8187 13.915 10.4218 14.0699ZM8.65652 17.7757C8.82661 17.9381 8.98537 17.9721 9.15169 17.991C9.34447 18.0099 9.53347 17.9986 9.72247 17.8852C9.50701 17.7946 9.19327 17.7644 8.65652 17.7757ZM12.5008 11.7769C12.7956 11.7883 13.0791 11.7165 13.3664 11.5767C13.4042 11.5578 13.4306 11.5201 13.4873 11.4672C13.1131 11.437 12.8145 11.5276 12.5008 11.7769ZM11.2458 17.4924C11.3403 17.4735 11.3932 17.4697 11.4386 17.4508C11.6465 17.3602 11.7939 17.1977 11.93 17.0277C11.9564 16.9937 11.9753 16.9597 11.9149 16.9257C11.6767 17.0731 11.465 17.2468 11.2458 17.4924Z" fill="#020304"/>
<path d="M15.6003 9.41598C15.5814 9.31399 15.5814 9.24222 15.5588 9.18177C15.4038 8.78891 15.1959 8.42627 14.9729 8.07118C14.8557 7.88608 14.7347 7.70097 14.6213 7.5121C14.5949 7.47054 14.5797 7.42144 14.5608 7.38366C14.6062 7.31566 14.644 7.34966 14.678 7.36855C15.0296 7.5612 15.2828 7.83696 15.4869 8.1845C15.8876 8.86823 16.0653 9.58975 16.0388 10.3717C16.0237 10.8401 16.0124 11.3085 15.933 11.7769C15.8347 12.3474 15.6533 12.8913 15.3849 13.4051C15.1089 13.9339 14.8179 14.4552 14.4815 14.9539C14.3529 15.1465 14.2206 15.3354 14.1035 15.5356C13.8162 16.0267 13.4722 16.4762 13.1131 16.9144C12.3344 17.8588 11.3441 18.4556 10.1458 18.7276C9.10633 18.9656 8.08196 18.8938 7.07648 18.5576C6.42255 18.3385 5.86689 17.9532 5.35282 17.515C3.96934 16.344 2.97521 14.9085 2.43845 13.186C2.1474 12.2529 1.99997 11.2934 2.09447 10.3113C2.12093 10.0544 2.17385 9.79373 2.23055 9.54063C2.26079 9.4122 2.29481 9.27621 2.44223 9.15533C2.43089 9.34043 2.42333 9.48775 2.41577 9.66907C2.48381 9.63129 2.52917 9.61241 2.56697 9.58596C2.73707 9.4613 2.89961 9.32532 3.06971 9.20444C3.44015 8.94379 3.85972 8.81913 4.30954 8.75491C5.00128 8.65669 5.65899 8.77002 6.30159 9.01556C6.52839 9.10245 6.76275 9.17044 6.99711 9.23465C7.21634 9.29132 7.43936 9.28755 7.6586 9.23088C7.95722 9.15533 8.25206 9.076 8.55068 9.00045C8.68298 8.96645 8.81527 8.92868 8.95135 8.89468C9.42007 8.78513 9.88123 8.84935 10.331 8.98157C10.5843 9.05334 10.8338 9.144 11.087 9.2271C11.1664 9.25355 11.2458 9.28377 11.3252 9.31021C11.7032 9.43109 12.0736 9.42731 12.4441 9.27998C12.7389 9.16288 13.0337 9.04578 13.3512 8.9929C13.7519 8.9249 14.1564 8.92112 14.5533 8.97778C14.8708 9.01934 15.1694 9.12888 15.434 9.31398C15.4718 9.3442 15.5172 9.36687 15.6003 9.41598ZM9.03829 10.4435C8.82283 10.7986 8.61116 11.1499 8.40326 11.4936C8.41838 11.5238 8.42216 11.5352 8.42972 11.5427C8.93245 11.8487 9.47677 11.9167 10.0513 11.8261C10.1534 11.8109 10.2176 11.7543 10.2668 11.6598C10.3915 11.4181 10.5465 11.1914 10.7279 10.9874C10.7582 10.9534 10.7998 10.927 10.8754 10.8552C10.7884 11.1952 10.5767 11.4067 10.4331 11.6938C10.5276 11.6825 10.5843 11.6598 10.641 11.6372C10.9056 11.5276 11.1362 11.3576 11.3668 11.1914C11.4613 11.1196 11.5331 11.0365 11.5898 10.9345C11.7863 10.5757 12.0207 10.2395 12.2815 9.92217C12.3118 9.88439 12.3344 9.83906 12.3722 9.77862C12.2929 9.77862 12.2399 9.76729 12.1908 9.77862C11.9262 9.83906 11.6654 9.80885 11.4008 9.75974C11.3403 9.74841 11.2798 9.73707 11.2307 9.72574C10.4444 10.7192 10.3273 10.8477 10.1194 10.9383C10.2857 10.7117 10.4407 10.5001 10.5919 10.2886C10.7431 10.077 10.9358 9.8995 11.0795 9.66907C10.9094 9.60107 10.7657 9.51042 10.5881 9.51042C10.4218 9.78996 10.2706 10.0619 10.0967 10.3264C9.92281 10.5946 9.74137 10.859 9.50323 11.0894C9.45409 11.0063 9.51457 10.9572 9.54103 10.9043C9.77539 10.4586 10.0513 10.0393 10.3386 9.62374C10.3764 9.56708 10.3991 9.50286 10.4293 9.43865C9.71491 9.12889 9.03073 9.17799 8.32766 9.44998C8.1122 9.92973 7.83626 10.3868 7.52252 10.825C7.51496 10.8401 7.52252 10.8628 7.52252 10.9043C7.57544 10.9421 7.64348 10.9912 7.71908 11.0479C7.81358 10.9006 7.89674 10.7683 7.98368 10.6399C8.15 10.3944 8.15756 10.3868 8.33144 10.2886C8.31254 10.3415 8.30498 10.383 8.28608 10.417C8.1689 10.6172 8.04794 10.8137 7.93076 11.0101C7.90052 11.0592 7.87784 11.1159 7.8476 11.1763C7.98746 11.2745 8.09708 11.3879 8.25962 11.4445C8.47886 11.0705 8.65274 10.6852 9.03829 10.4435ZM15.4038 9.88439C15.2866 9.71818 15.1241 9.60864 14.9426 9.52553C14.678 9.40465 14.3983 9.35932 14.111 9.34421C13.5554 9.31021 13.0413 9.45753 12.5423 9.6993C12.4743 9.82396 12.4063 9.9524 12.3344 10.0808C12.2664 10.1979 12.1946 10.315 12.1265 10.4321C12.0585 10.553 11.9527 10.6588 11.9035 10.8212C12.1303 10.7608 12.3307 10.6966 12.5348 10.655C12.6482 10.6323 12.72 10.5795 12.7842 10.485C12.9014 10.3113 13.0299 10.145 13.1585 9.97883C13.1774 9.95239 13.2189 9.93729 13.2908 9.89195C13.2189 10.1224 13.1131 10.2735 13.0148 10.4321C12.9921 10.4699 12.9846 10.519 12.9619 10.587C13.2114 10.5644 13.4306 10.5455 13.6574 10.5228C13.8729 10.2433 14.0165 9.91839 14.2887 9.68418C14.2622 9.82773 14.1791 9.94861 14.1072 10.0695C14.0316 10.2017 13.9182 10.315 13.854 10.4661C14.3567 10.4964 15.0447 10.2357 15.4038 9.88439ZM8.12732 9.51042C8.04794 9.51797 7.97234 9.51798 7.90808 9.53686C7.39022 9.68419 6.8837 9.62374 6.38097 9.44998C6.29403 9.41976 6.20709 9.39709 6.11259 9.36687C6.02943 9.53308 5.95383 9.68041 5.88201 9.83151C5.81019 9.97506 5.69301 10.0959 5.64387 10.2773C5.71947 10.281 5.77239 10.2848 5.82153 10.2848C5.88579 10.2848 5.94627 10.2848 5.99541 10.2848C6.33183 9.82773 6.33183 9.82773 6.54351 9.73329C6.44901 9.8995 6.35451 10.0317 6.26379 10.1677C6.23733 10.2055 6.23355 10.2546 6.21843 10.3075C6.36585 10.3339 6.48681 10.3566 6.61911 10.3792C6.66069 10.3264 6.70227 10.281 6.74007 10.2319C6.78543 10.1753 6.82701 10.1148 6.87237 10.0544C6.91017 10.0053 6.95553 9.95995 7.00089 9.91462C7.04625 9.86929 7.0916 9.81639 7.19744 9.78617C7.08026 10.0393 6.91773 10.2168 6.77787 10.4208C6.98576 10.5341 7.17476 10.6399 7.36376 10.7457C7.60568 10.4208 8.04794 9.71063 8.12732 9.51042ZM3.11507 12.3587C3.09617 12.3662 3.08105 12.3738 3.06215 12.3776C3.06593 12.4191 3.05837 12.4607 3.06971 12.4985C3.26249 13.288 3.54599 14.0359 4.04116 14.6932C4.24906 14.969 4.46452 15.241 4.68376 15.5092C5.04664 15.9549 5.49267 16.3062 5.96895 16.6198C5.99541 16.6386 6.03699 16.6386 6.13149 16.6613C5.87823 16.3175 5.65521 16.0267 5.38683 15.7736C4.93324 15.3429 4.54768 14.8632 4.17346 14.3646C3.9013 14.0019 3.6745 13.6128 3.49685 13.1973C3.40235 12.9782 3.31163 12.7516 3.21713 12.5325C3.18689 12.4758 3.14909 12.4191 3.11507 12.3587ZM6.75141 11.6901C6.73251 11.6712 6.71361 11.6447 6.69093 11.6296C6.23733 11.3501 5.74971 11.1537 5.23186 11.0328C4.90678 10.9572 4.57792 10.9421 4.2604 11.0554C4.0525 11.1272 3.85216 11.2254 3.64805 11.3161C3.61403 11.3312 3.56867 11.3539 3.59513 11.4219C3.64049 11.4219 3.68962 11.4294 3.73876 11.4219C3.8824 11.3916 4.02604 11.3539 4.16968 11.3199C4.48342 11.2443 4.80094 11.2405 5.1109 11.335C5.33392 11.403 5.55315 11.4747 5.77617 11.5465C6.08613 11.6447 6.40365 11.7089 6.75141 11.6901ZM3.03947 10.7192C3.11885 10.7343 3.16799 10.7532 3.22091 10.757C3.31541 10.7646 3.40991 10.7608 3.50441 10.7608C3.59891 10.7608 3.65939 10.7192 3.70096 10.6323C3.85594 10.2999 4.08274 10.0128 4.2982 9.71818C4.41538 9.55952 4.52878 9.3971 4.64218 9.23088C4.66864 9.19311 4.6762 9.14399 4.6951 9.09111C4.54768 9.09111 4.42294 9.09111 4.30198 9.09111C3.8824 9.63129 3.47417 10.1564 3.03947 10.7192ZM3.82948 10.6966C4.00336 10.7192 4.147 10.6399 4.2982 10.6059C4.40404 10.5832 4.46074 10.519 4.50988 10.4359C4.73668 10.0204 5.00884 9.63886 5.2999 9.26488C5.32258 9.23466 5.33014 9.19688 5.34904 9.15155C5.17516 9.07222 5.01262 9.07222 4.86898 9.09111C4.51744 9.63507 4.17724 10.1602 3.82948 10.6966ZM11.0417 11.9734C10.9245 11.9809 10.864 11.9772 10.8111 11.9923C10.5881 12.0527 10.3613 12.1056 10.142 12.1849C9.57883 12.3889 9.01183 12.4267 8.42972 12.2982C8.35412 12.2831 8.26718 12.2529 8.19158 12.3096C8.28608 12.4456 8.28986 12.4493 8.47886 12.5173C8.98159 12.6949 9.49189 12.7138 10.006 12.5778C10.384 12.4758 10.709 12.2794 11.0417 11.9734ZM6.05211 13.4731C6.04455 13.4919 6.04077 13.5071 6.03321 13.5259C6.15417 13.6544 6.27513 13.7828 6.39609 13.915C6.74763 14.3041 7.19744 14.4892 7.71908 14.4817C8.00258 14.4779 8.28608 14.4326 8.56957 14.3986C8.60359 14.3948 8.63384 14.3608 8.69809 14.3155C8.60738 14.3003 8.55824 14.289 8.5091 14.2815C8.18402 14.2437 7.85894 14.2021 7.53386 14.1681C7.14452 14.1266 6.80055 13.9792 6.50949 13.7186C6.41499 13.6355 6.30915 13.5675 6.20331 13.4995C6.15795 13.4768 6.10125 13.4806 6.05211 13.4731ZM5.55693 9.18177C5.51536 9.22711 5.48512 9.25355 5.46244 9.28755C5.2054 9.65774 4.95214 10.0279 4.69888 10.3981C4.6951 10.4057 4.69132 10.4208 4.6951 10.4284C4.6951 10.4359 4.70644 10.4435 4.72156 10.4586C4.94836 10.4057 5.17893 10.349 5.40951 10.2961C5.50401 10.1224 5.59095 9.95617 5.67789 9.78995C5.76483 9.62374 5.89713 9.48776 5.95761 9.28755C5.81775 9.24977 5.68923 9.21577 5.55693 9.18177ZM13.6007 13.6959C13.4684 13.7979 13.4193 13.949 13.3437 14.0812C13.2605 14.2248 13.1811 14.3759 13.1018 14.5194C13.0262 14.6554 12.9506 14.7952 12.8674 14.9274C12.7843 15.0596 12.6935 15.1881 12.599 15.3127C12.497 15.4449 12.3911 15.5734 12.2853 15.7056C12.1908 15.8227 12.0698 15.9247 11.9867 16.072C12.1379 16.0871 12.2286 16.0116 12.3155 15.9398C12.686 15.6376 13.011 15.3014 13.2416 14.8821C13.4382 14.5157 13.5554 14.119 13.6007 13.6959ZM4.02226 9.13645C3.6745 9.178 3.44015 9.2611 3.28139 9.53308C3.08483 9.86551 2.84669 10.1753 2.62745 10.4964C2.60477 10.5266 2.59721 10.5681 2.58209 10.6097C2.68793 10.6626 2.77865 10.7117 2.89205 10.6928C3.06215 10.4359 3.22091 10.1753 3.39857 9.92972C3.58378 9.67285 3.7879 9.43487 4.02226 9.13645ZM11.363 15.1881C11.174 15.2447 11.0303 15.3618 10.8867 15.4827C10.5654 15.7585 10.2101 15.9738 9.81319 16.1325C9.77161 16.1513 9.73003 16.1778 9.65821 16.2156C9.94927 16.2269 10.1912 16.1589 10.5276 15.9738C10.8791 15.7887 11.1815 15.5545 11.363 15.1881ZM6.76653 17.1297C6.97443 17.5679 7.51874 17.821 7.94588 17.6775C7.54898 17.4659 7.15964 17.2997 6.76653 17.1297ZM2.42333 9.90329C2.36285 10.3037 2.36663 10.3566 2.46869 10.5341C2.48759 10.5001 2.51027 10.4775 2.52161 10.451C2.65769 10.1299 2.85425 9.84662 3.06971 9.57841C3.08483 9.55952 3.08483 9.52553 3.09995 9.46131C2.85047 9.62752 2.63123 9.7673 2.42333 9.90329ZM14.988 11.6561C14.9502 11.6938 14.9162 11.7203 14.8973 11.7505C14.7272 12.0489 14.5571 12.3474 14.3907 12.6496C14.3832 12.6609 14.3983 12.6835 14.4021 12.7024C14.7536 12.5249 15.0296 12.0414 14.988 11.6561ZM10.4218 14.0699C10.8413 14.1266 11.2647 13.9755 11.5784 13.6695C11.1589 13.7262 10.8187 13.915 10.4218 14.0699ZM8.65652 17.7757C8.82661 17.9381 8.98537 17.9721 9.15169 17.991C9.34447 18.0099 9.53347 17.9986 9.72247 17.8852C9.50701 17.7946 9.19327 17.7644 8.65652 17.7757ZM12.5008 11.7769C12.7956 11.7883 13.0791 11.7165 13.3664 11.5767C13.4042 11.5578 13.4306 11.5201 13.4873 11.4672C13.1131 11.437 12.8145 11.5276 12.5008 11.7769ZM11.2458 17.4924C11.3403 17.4735 11.3932 17.4697 11.4386 17.4508C11.6465 17.3602 11.7939 17.1977 11.93 17.0277C11.9564 16.9937 11.9753 16.9597 11.9149 16.9257C11.6767 17.0731 11.465 17.2468 11.2458 17.4924Z" stroke="black" stroke-width="0.2" mask="url(#path-2-outside-2_2_5549)"/>
<path d="M3.33053 7.47056L3.28976 7.44161C3.2874 7.44494 3.28502 7.44828 3.28263 7.45164C3.20068 7.5668 3.10535 7.70077 3.13347 7.93363L3.1485 8.05804L3.22324 7.95746C3.6951 7.32253 4.29267 6.98811 5.01287 6.81657L5.01292 6.81656C5.21049 6.76928 5.40122 6.69938 5.58944 6.63041C5.65968 6.60467 5.72956 6.57905 5.79932 6.55479C5.82465 6.54695 5.86102 6.53328 5.8854 6.50498C5.89885 6.48937 5.90845 6.4696 5.91061 6.44596C5.91271 6.423 5.90748 6.39994 5.89746 6.37742L5.88637 6.35248L5.8594 6.34832C5.18509 6.24435 4.68252 6.37227 4.11888 6.68648L4.1187 6.68658C3.78321 6.87541 3.50539 7.12992 3.28941 7.44211L3.33053 7.47056ZM3.33053 7.47056C3.54221 7.16458 3.81437 6.91525 4.14323 6.73015M3.33053 7.47056C3.32842 7.47353 3.3263 7.47651 3.32418 7.47949C3.25312 7.57941 3.17888 7.6838 3.17843 7.85095C3.16654 7.86639 3.15472 7.88201 3.14298 7.89781L3.18311 7.92764L3.23275 7.92164C3.23049 7.9029 3.22915 7.88497 3.22865 7.86777C3.70145 7.26052 4.29462 6.93625 5.00128 6.76793C5.1958 6.72138 5.38238 6.65301 5.56965 6.58438C5.64076 6.55832 5.71196 6.53223 5.78374 6.50728L4.14323 6.73015M4.14323 6.73015C4.69888 6.42039 5.19028 6.29574 5.85178 6.39774L4.14323 6.73015Z" fill="#020304" stroke="black" stroke-width="0.1"/>
<path d="M14.0891 6.94258L14.1714 6.94133L14.1324 6.86887C14.0216 6.66325 13.855 6.6012 13.7097 6.54709C13.7031 6.54464 13.6966 6.54221 13.6901 6.53979L13.6901 6.53979L13.6899 6.53972C13.4716 6.45892 13.2838 6.47976 13.0881 6.57155L13.0188 6.60407L13.0764 6.65446C13.202 6.76427 13.3284 6.83916 13.4887 6.88494C13.6477 6.93035 13.8377 6.94639 14.0891 6.94258ZM13.1602 6.5946C13.3268 6.52726 13.4872 6.518 13.6725 6.58661L13.1602 6.5946Z" fill="#020304" stroke="black" stroke-width="0.1"/>
<path d="M5.56773 7.06502L5.64912 7.00496L5.55197 6.97677C5.18523 6.87037 4.84237 6.99306 4.73156 7.28269L4.70126 7.36189L4.78523 7.35007C5.05654 7.31188 5.31207 7.2537 5.56773 7.06502Z" fill="#020304" stroke="black" stroke-width="0.1"/>
</svg>
