<svg width="22" height="24" viewBox="0 0 22 24" fill="none" xmlns="http://www.w3.org/2000/svg">
<mask id="path-1-outside-1_2_5061" maskUnits="userSpaceOnUse" x="0" y="5.13333" width="22" height="12" fill="black">
<rect fill="white" y="5.13333" width="22" height="12"/>
<path d="M21.0616 7.34251C20.9293 7.65227 20.7176 7.91292 20.4681 8.12824C19.7008 8.79687 19.2207 9.64681 18.8465 10.5723C18.7634 10.7801 18.6915 10.9954 18.6046 11.2032C18.5252 11.3883 18.4458 11.5734 18.3438 11.7509C18.1434 12.1098 17.8448 12.3515 17.4366 12.4422C17.3685 12.4573 17.3005 12.4762 17.206 12.4989C17.2325 12.5555 17.2476 12.6122 17.2816 12.65C17.7806 13.2506 17.7843 14.1496 17.2967 14.8447C16.6844 15.7135 15.8868 16.318 14.836 16.5522C14.6621 16.5899 14.4844 16.6202 14.3068 16.6315C13.7246 16.6617 13.2673 16.4124 12.9271 15.9515C12.8137 15.8004 12.723 15.6304 12.6436 15.4567C12.4697 15.0789 12.3109 14.6936 12.1408 14.3121C12.0426 14.0854 11.9405 13.8588 11.7893 13.6699C11.7061 13.6775 11.7024 13.7266 11.6986 13.7719C11.6759 14.1383 11.6457 14.5085 11.6343 14.8749C11.623 15.366 11.5247 15.842 11.4 16.3142C11.366 16.4388 11.313 16.5635 11.2412 16.6693C11.0257 16.9828 10.6666 16.9488 10.5079 16.6088C10.4663 16.5219 10.4398 16.4313 10.4209 16.3368C10.3151 15.7778 10.213 15.2149 10.1148 14.6521C10.0618 14.3574 10.0581 14.059 10.0845 13.7643C10.0883 13.7228 10.077 13.6775 10.0694 13.5906C9.99759 13.6548 9.94467 13.685 9.91443 13.7266C9.72165 13.9985 9.51375 14.2592 9.34743 14.5463C9.10552 14.9618 8.82958 15.3471 8.47804 15.672C8.10761 16.0158 7.68802 16.2877 7.17395 16.3671C6.69011 16.4426 6.22518 16.3822 5.79804 16.1291C5.71488 16.08 5.63551 16.0309 5.55235 15.9818C4.81147 15.5436 4.49016 14.856 4.39566 14.0363C4.38432 13.9305 4.38811 13.821 4.37677 13.7152C4.33897 13.2884 4.46748 12.9182 4.73964 12.5933C4.85304 12.4573 4.96645 12.3251 5.10253 12.1664C5.02693 12.1475 4.98534 12.1362 4.94376 12.1249C4.22557 11.9096 3.71906 11.4638 3.46202 10.7499C3.41288 10.6139 3.37129 10.4779 3.32593 10.3419C3.14827 9.81303 2.87233 9.34839 2.47165 8.9593C2.24108 8.73643 1.99538 8.52866 1.75346 8.31712C1.62116 8.20002 1.48509 8.08291 1.35657 7.95825C1.22049 7.82226 1.11465 7.6636 1.05039 7.48228C0.921872 7.10453 1.04282 6.73811 1.37168 6.50768C1.54934 6.38302 1.75346 6.3188 1.96514 6.27347C2.36582 6.18658 2.77028 6.18281 3.17474 6.22058C4.01389 6.29613 4.81525 6.5039 5.57124 6.87788C6.02862 7.10453 6.486 7.34251 6.9207 7.60694C7.97909 8.24912 9.0148 8.9253 10.0127 9.65815C10.0883 9.71481 10.1677 9.7677 10.2509 9.82436C10.368 9.77148 10.3454 9.63548 10.4172 9.56371C10.4928 9.48816 10.557 9.40505 10.644 9.30683C10.6175 8.73642 10.5192 8.16602 10.3302 7.61072C10.2584 7.3954 10.1412 7.19896 9.99004 7.02898C9.85774 6.87787 9.6952 6.79099 9.49486 6.77588C9.355 6.76455 9.23404 6.80988 9.1471 6.91943C9.10174 6.97609 9.06394 7.03653 9.10174 7.11208C9.13576 7.18763 9.20002 7.2103 9.2794 7.20274C9.37012 7.19141 9.46083 7.18008 9.57045 7.16497C9.60825 7.33873 9.55534 7.45962 9.43816 7.55405C9.3361 7.63716 9.2227 7.64472 9.10174 7.60316C8.70484 7.46339 8.56876 7.04787 8.81824 6.70789C9.00346 6.45479 9.25672 6.34902 9.56668 6.38302C9.86152 6.41702 10.111 6.54923 10.3 6.78344C10.4814 7.00631 10.6175 7.25563 10.7007 7.53516C10.8103 7.90159 10.8557 8.27935 10.8557 8.66088C10.8557 8.84975 10.8557 9.03863 10.8557 9.23884C10.9161 9.25017 10.9615 9.26528 11.0031 9.26528C11.0484 9.26528 11.0938 9.25773 11.1656 9.2464C11.1732 9.09907 11.1807 8.9593 11.1883 8.81953C11.2072 8.44933 11.2714 8.08669 11.4037 7.73916C11.5171 7.43317 11.6835 7.16119 11.9065 6.92698C12.0993 6.72299 12.3298 6.57567 12.602 6.50768C13.0896 6.3868 13.5319 6.74566 13.5054 7.23297C13.5016 7.30474 13.4865 7.37651 13.4601 7.44073C13.3996 7.58805 13.2975 7.70516 13.1388 7.75049C13.0027 7.78826 12.8968 7.74293 12.6965 7.55028C12.7834 7.48606 12.8666 7.42939 12.946 7.36518C13.014 7.30851 13.0443 7.23296 13.0102 7.1423C12.9724 7.04031 12.8968 6.97609 12.7986 6.97987C12.7154 6.98743 12.6322 7.00254 12.5566 7.03276C12.3865 7.09697 12.2505 7.21407 12.1257 7.34629C11.8951 7.59561 11.7402 7.88648 11.6305 8.20757C11.5058 8.56644 11.4302 8.94041 11.3584 9.30683C11.4604 9.46171 11.5549 9.60904 11.6608 9.77148C11.8044 9.75637 11.9027 9.65437 12.0123 9.56748C12.4621 9.2124 12.8931 8.83842 13.3656 8.51355C14.7226 7.57672 16.1703 6.8061 17.7768 6.38302C18.3438 6.23569 18.9146 6.12614 19.5042 6.1337C19.7159 6.13748 19.9314 6.16392 20.143 6.19792C20.5513 6.26591 20.8839 6.44724 21.0578 6.84388C21.0616 7.00631 21.0616 7.1763 21.0616 7.34251ZM13.048 9.2464C13.0934 9.25395 13.1161 9.26528 13.1388 9.25773C13.5356 9.1784 13.9288 9.08774 14.3257 9.01219C14.972 8.88753 15.6222 8.81198 16.2761 8.91397C16.5937 8.96308 16.9074 9.02729 17.2211 9.08774C17.3043 9.10285 17.3799 9.13685 17.463 9.09529C17.9658 8.86486 18.4269 8.57399 18.7747 8.13202C18.8994 7.97336 18.9939 7.79204 19.0809 7.61072C19.1716 7.41807 19.1527 7.21408 19.062 7.0252C18.9561 6.8061 18.786 6.70411 18.5441 6.74566C18.2266 6.80232 17.9129 6.86277 17.6029 6.94965C15.9813 7.40296 14.5184 8.18868 13.1388 9.14062C13.1085 9.16706 13.0858 9.20484 13.048 9.2464ZM7.87703 8.7402C7.82789 8.68354 7.80899 8.65332 7.78253 8.63443C7.04543 8.17735 6.30456 7.72782 5.51454 7.3614C5.08363 7.16119 4.64137 6.98365 4.17643 6.88165C3.93451 6.82877 3.68503 6.78722 3.43933 6.76077C3.20497 6.73811 2.9933 6.80988 2.80808 6.96098C2.60774 7.12342 2.56994 7.34251 2.69846 7.56539C2.7854 7.71271 2.90635 7.82604 3.06133 7.89781C3.37507 8.04136 3.68881 8.17735 4.01011 8.30201C4.10461 8.33979 4.21801 8.34734 4.32385 8.33978C5.46163 8.27557 6.58049 8.37378 7.67291 8.69487C7.72961 8.70998 7.78631 8.72131 7.87703 8.7402ZM7.57085 14.9656C7.88837 15.0185 8.13785 14.9543 8.37221 14.7805C8.53474 14.6596 8.68216 14.5312 8.79556 14.3574C8.91652 14.1685 9.04881 13.9872 9.18111 13.8021C9.44571 13.4319 9.72543 13.0806 10.1866 12.9673C10.2357 12.6688 10.2395 12.6575 10.1601 12.3855C10.077 12.1098 10.0392 11.8302 10.0997 11.5431C10.1034 11.5243 10.0883 11.5016 10.0808 11.4789C10.0581 11.4827 10.0278 11.4789 10.0127 11.4903C9.66496 11.7736 9.30586 12.0456 8.98456 12.3629C8.75776 12.5857 8.5045 12.786 8.25124 12.9824C8.13784 13.0693 8.08493 13.1637 8.05469 13.2997C7.98287 13.6246 7.89592 13.9419 7.80142 14.263C7.73717 14.4934 7.65401 14.7163 7.57085 14.9656ZM7.41587 11.1276C7.55951 10.7045 7.85056 10.3948 8.19076 10.1303C8.34952 10.0057 8.51963 9.89613 8.68217 9.77525C8.72375 9.74503 8.75776 9.70347 8.8069 9.65437C8.6557 9.5977 8.53474 9.55238 8.41378 9.50327C8.221 9.42394 8.03578 9.41638 7.8241 9.46549C6.73925 9.72614 5.78292 10.2399 4.89841 10.901C4.86817 10.9236 4.85305 10.9727 4.81903 11.0218C5.68842 11.3769 6.5427 11.3127 7.41587 11.1276ZM12.8931 9.79414C13.581 10.2021 14.1858 10.5799 14.5336 11.2598C14.972 11.4147 15.4143 11.5809 15.8679 11.7245C16.2572 11.8453 16.6315 11.7547 16.9981 11.6111C16.9906 11.5771 16.9943 11.562 16.9868 11.5545C16.9112 11.4789 16.8318 11.4071 16.7562 11.3316C16.0607 10.6328 15.2366 10.119 14.3483 9.6997C14.2727 9.6657 14.1971 9.62793 14.1178 9.60904C14.027 9.59015 13.9288 9.56749 13.8418 9.5826C13.5508 9.63548 13.2635 9.70726 12.8931 9.79414ZM14.6092 9.44283C14.7037 9.57504 14.836 9.57882 14.938 9.62037C15.8679 10.0057 16.7184 10.5043 17.3875 11.2976C17.5538 11.1541 17.6558 10.9727 17.7201 10.7687C17.8713 10.3003 17.807 9.88102 17.4366 9.52971C17.3648 9.46172 17.2929 9.42016 17.1909 9.40505C16.3442 9.28417 15.4937 9.23506 14.6092 9.44283ZM7.22309 9.1444C7.16639 9.12929 7.1097 9.1104 7.053 9.09907C6.2214 8.9253 5.38225 8.86487 4.53553 8.86864C4.29739 8.86864 4.11595 9.01974 4.05925 9.26906C3.95341 9.75636 4.03279 10.2097 4.37298 10.6252C4.80012 10.2814 5.25373 10.0019 5.73001 9.75636C6.20628 9.51082 6.71657 9.35594 7.22309 9.1444ZM14.5903 13.4886C14.4202 13.447 14.2614 13.3979 14.0989 13.3715C13.9401 13.345 13.7927 13.243 13.6188 13.2808C13.5735 13.855 13.5243 14.4141 13.479 14.9769C13.6755 15.1054 13.8721 15.1771 14.0875 15.2149C14.2992 15.2527 14.5109 15.2754 14.7226 15.2338C14.9229 15.196 15.1421 15.2074 15.316 15.0789C15.0703 14.5501 14.8397 14.0363 14.5903 13.4886ZM12.98 14.5463C13.0783 14.0363 13.1728 13.5377 13.2711 13.0315C12.757 12.5895 12.2731 12.1249 11.7364 11.7018C11.6343 11.9813 11.6343 12.1664 11.725 12.8237C12.1219 13.107 12.3639 13.5264 12.568 13.9721C12.6209 14.0892 12.67 14.2101 12.723 14.331C12.7645 14.4292 12.8212 14.5161 12.98 14.5463ZM12.0463 11.3089C12.1522 11.4071 12.2164 11.4714 12.2883 11.5318C12.636 11.8378 12.9989 12.1249 13.3278 12.4498C13.7624 12.8804 14.3105 13.0013 14.8775 13.073C14.8964 13.0768 14.9191 13.0579 14.9607 13.039C14.9267 12.9673 14.904 12.8879 14.8549 12.8275C14.6432 12.5593 14.4239 12.2911 14.2009 12.0267C13.8721 11.6414 13.4676 11.3958 12.9535 11.3467C12.6776 11.3203 12.3979 11.2372 12.0463 11.3089ZM8.06603 11.0709C8.22101 11.0483 8.30038 11.0332 8.37976 11.0256C8.71996 10.9841 9.06016 10.935 9.40036 10.8972C9.65362 10.8707 9.89553 10.8972 10.1261 11.0181C10.1526 11.0332 10.1904 11.0181 10.2433 11.0181C10.2886 10.7536 10.2886 10.4968 10.2584 10.2248C9.98247 10.1115 9.70654 10.0095 9.43816 9.8848C9.2605 9.80169 9.12064 9.81681 8.99212 9.96035C8.72374 10.2588 8.45159 10.5572 8.18699 10.8556C8.14919 10.901 8.13029 10.9576 8.06603 11.0709ZM14.6054 11.8227C14.6659 11.9133 14.681 11.9473 14.7037 11.9738C14.9456 12.2193 15.1762 12.4724 15.3576 12.7708C15.3916 12.8275 15.4521 12.8804 15.5126 12.9068C15.9851 13.1297 16.4576 13.3488 16.8998 13.6699C17.017 13.2544 16.983 12.8766 16.8469 12.4951C16.4462 12.4535 16.0871 12.3364 15.728 12.208C15.3765 12.0871 15.0401 11.9058 14.6054 11.8227ZM6.98873 12.971C7.03409 12.9824 7.05678 12.9937 7.07568 12.9899C7.51793 12.8842 7.93372 12.7331 8.2966 12.4422C8.62924 12.174 8.97322 11.9209 9.30586 11.6602C9.39658 11.5885 9.47596 11.5091 9.5629 11.4298C9.52132 11.4034 9.50242 11.3845 9.48352 11.3845C8.93542 11.4034 8.40622 11.5318 7.87325 11.6489C7.78631 11.6678 7.73717 11.7282 7.69559 11.8076C7.59731 11.9813 7.49146 12.1551 7.38562 12.3213C7.27601 12.4913 7.15883 12.6537 7.04921 12.8237C7.02653 12.8615 7.01141 12.9182 6.98873 12.971ZM7.16261 11.8265C7.01897 11.8453 6.95093 11.8491 6.88289 11.8642C6.6183 11.9247 6.35369 11.9889 6.08531 12.0493C5.59392 12.1589 5.59014 12.1551 5.3898 12.6046C5.32176 12.7557 5.27262 12.9144 5.23105 13.0768C5.19703 13.2015 5.17435 13.3299 5.21971 13.4584C5.23483 13.4621 5.24617 13.4735 5.25751 13.4697C5.65063 13.311 6.04751 13.1524 6.41795 13.0051C6.65987 12.6197 6.89423 12.2533 7.16261 11.8265ZM14.9985 13.5604C15.0968 13.7228 15.1837 13.8588 15.2707 13.9985C15.3614 14.1496 15.4597 14.3007 15.5428 14.4594C15.6184 14.6029 15.6789 14.7541 15.7469 14.9014C16.1552 14.7352 16.5521 14.3725 16.7033 14.0212C16.2459 13.8474 15.9095 13.481 15.471 13.2317C15.3727 13.4319 15.1875 13.4886 14.9985 13.5604ZM7.02275 14.924C7.26467 14.4065 7.48769 13.9268 7.71071 13.4432C7.72583 13.413 7.73717 13.379 7.74851 13.345C7.75229 13.3337 7.75229 13.3224 7.74851 13.311C7.74473 13.2997 7.72961 13.2959 7.70693 13.277C7.39319 13.3753 7.06811 13.4735 6.73547 13.5755C6.66365 13.7643 6.59183 13.9494 6.52379 14.1383C6.45575 14.3347 6.32345 14.5047 6.28943 14.7238C6.53513 14.8258 6.76193 14.924 7.02275 14.924ZM13.8002 11.0218C13.649 10.833 13.5432 10.7272 13.4298 10.629C13.1766 10.4174 12.9195 10.2097 12.6587 10.0019C12.5907 9.94902 12.5151 9.93391 12.4281 9.9679C12.1862 10.0586 11.9443 10.1454 11.7061 10.2588C11.7326 10.4552 11.7591 10.6403 11.7893 10.8481C12.4546 10.6554 13.0745 10.9047 13.8002 11.0218ZM5.82072 14.4858C6.03996 14.1308 6.24408 13.7983 6.44441 13.4659C6.45953 13.4432 6.45575 13.379 6.44441 13.3752C6.40661 13.3601 6.34992 13.345 6.31968 13.3639C5.9946 13.5566 5.67708 13.753 5.33688 13.9608C5.45028 14.1761 5.58636 14.3461 5.82072 14.4858ZM10.9464 13.039C11.0635 12.8955 11.0522 12.7633 11.0522 12.6348C11.0522 12.5064 11.0295 12.3742 11.0409 12.2458C11.0635 11.9473 11.0446 11.6565 10.9312 11.3732C10.8972 11.2863 10.9048 11.1881 10.8897 11.0936C10.8859 11.0672 10.8632 11.0445 10.8367 10.9916C10.7347 11.1578 10.7422 11.3127 10.78 11.4563C10.8556 11.7245 10.8443 11.9927 10.8405 12.2684C10.8443 12.514 10.833 12.7671 10.9464 13.039ZM10.3869 14.3914C10.3907 14.399 10.3907 14.4292 10.4058 14.4443C10.5835 14.6332 10.8216 14.6672 11.056 14.6672C11.1845 14.6672 11.3017 14.603 11.3395 14.4405C11.0069 14.4254 10.6931 14.4103 10.3869 14.3914ZM10.4663 15.2754C10.489 15.3245 10.4965 15.3698 10.5192 15.3811C10.6591 15.4416 10.7989 15.5058 10.9464 15.536C11.0295 15.5511 11.1278 15.5133 11.2147 15.4793C11.2525 15.4642 11.2715 15.4038 11.3168 15.3434C11.0144 15.3207 10.7498 15.298 10.4663 15.2754ZM10.5154 13.6057C10.9388 13.9154 11.2147 13.9192 11.3924 13.6435C11.1165 13.6283 10.8556 13.617 10.5154 13.6057ZM10.5759 15.9213C10.5835 16.0762 10.6893 16.114 10.7838 16.1593C10.8746 16.2008 10.969 16.2122 11.0598 16.1706C11.1202 16.1404 11.1883 16.1026 11.158 16.0006C10.969 15.9704 10.7725 15.944 10.5759 15.9213Z"/>
</mask>
<path d="M21.0616 7.34251C20.9293 7.65227 20.7176 7.91292 20.4681 8.12824C19.7008 8.79687 19.2207 9.64681 18.8465 10.5723C18.7634 10.7801 18.6915 10.9954 18.6046 11.2032C18.5252 11.3883 18.4458 11.5734 18.3438 11.7509C18.1434 12.1098 17.8448 12.3515 17.4366 12.4422C17.3685 12.4573 17.3005 12.4762 17.206 12.4989C17.2325 12.5555 17.2476 12.6122 17.2816 12.65C17.7806 13.2506 17.7843 14.1496 17.2967 14.8447C16.6844 15.7135 15.8868 16.318 14.836 16.5522C14.6621 16.5899 14.4844 16.6202 14.3068 16.6315C13.7246 16.6617 13.2673 16.4124 12.9271 15.9515C12.8137 15.8004 12.723 15.6304 12.6436 15.4567C12.4697 15.0789 12.3109 14.6936 12.1408 14.3121C12.0426 14.0854 11.9405 13.8588 11.7893 13.6699C11.7061 13.6775 11.7024 13.7266 11.6986 13.7719C11.6759 14.1383 11.6457 14.5085 11.6343 14.8749C11.623 15.366 11.5247 15.842 11.4 16.3142C11.366 16.4388 11.313 16.5635 11.2412 16.6693C11.0257 16.9828 10.6666 16.9488 10.5079 16.6088C10.4663 16.5219 10.4398 16.4313 10.4209 16.3368C10.3151 15.7778 10.213 15.2149 10.1148 14.6521C10.0618 14.3574 10.0581 14.059 10.0845 13.7643C10.0883 13.7228 10.077 13.6775 10.0694 13.5906C9.99759 13.6548 9.94467 13.685 9.91443 13.7266C9.72165 13.9985 9.51375 14.2592 9.34743 14.5463C9.10552 14.9618 8.82958 15.3471 8.47804 15.672C8.10761 16.0158 7.68802 16.2877 7.17395 16.3671C6.69011 16.4426 6.22518 16.3822 5.79804 16.1291C5.71488 16.08 5.63551 16.0309 5.55235 15.9818C4.81147 15.5436 4.49016 14.856 4.39566 14.0363C4.38432 13.9305 4.38811 13.821 4.37677 13.7152C4.33897 13.2884 4.46748 12.9182 4.73964 12.5933C4.85304 12.4573 4.96645 12.3251 5.10253 12.1664C5.02693 12.1475 4.98534 12.1362 4.94376 12.1249C4.22557 11.9096 3.71906 11.4638 3.46202 10.7499C3.41288 10.6139 3.37129 10.4779 3.32593 10.3419C3.14827 9.81303 2.87233 9.34839 2.47165 8.9593C2.24108 8.73643 1.99538 8.52866 1.75346 8.31712C1.62116 8.20002 1.48509 8.08291 1.35657 7.95825C1.22049 7.82226 1.11465 7.6636 1.05039 7.48228C0.921872 7.10453 1.04282 6.73811 1.37168 6.50768C1.54934 6.38302 1.75346 6.3188 1.96514 6.27347C2.36582 6.18658 2.77028 6.18281 3.17474 6.22058C4.01389 6.29613 4.81525 6.5039 5.57124 6.87788C6.02862 7.10453 6.486 7.34251 6.9207 7.60694C7.97909 8.24912 9.0148 8.9253 10.0127 9.65815C10.0883 9.71481 10.1677 9.7677 10.2509 9.82436C10.368 9.77148 10.3454 9.63548 10.4172 9.56371C10.4928 9.48816 10.557 9.40505 10.644 9.30683C10.6175 8.73642 10.5192 8.16602 10.3302 7.61072C10.2584 7.3954 10.1412 7.19896 9.99004 7.02898C9.85774 6.87787 9.6952 6.79099 9.49486 6.77588C9.355 6.76455 9.23404 6.80988 9.1471 6.91943C9.10174 6.97609 9.06394 7.03653 9.10174 7.11208C9.13576 7.18763 9.20002 7.2103 9.2794 7.20274C9.37012 7.19141 9.46083 7.18008 9.57045 7.16497C9.60825 7.33873 9.55534 7.45962 9.43816 7.55405C9.3361 7.63716 9.2227 7.64472 9.10174 7.60316C8.70484 7.46339 8.56876 7.04787 8.81824 6.70789C9.00346 6.45479 9.25672 6.34902 9.56668 6.38302C9.86152 6.41702 10.111 6.54923 10.3 6.78344C10.4814 7.00631 10.6175 7.25563 10.7007 7.53516C10.8103 7.90159 10.8557 8.27935 10.8557 8.66088C10.8557 8.84975 10.8557 9.03863 10.8557 9.23884C10.9161 9.25017 10.9615 9.26528 11.0031 9.26528C11.0484 9.26528 11.0938 9.25773 11.1656 9.2464C11.1732 9.09907 11.1807 8.9593 11.1883 8.81953C11.2072 8.44933 11.2714 8.08669 11.4037 7.73916C11.5171 7.43317 11.6835 7.16119 11.9065 6.92698C12.0993 6.72299 12.3298 6.57567 12.602 6.50768C13.0896 6.3868 13.5319 6.74566 13.5054 7.23297C13.5016 7.30474 13.4865 7.37651 13.4601 7.44073C13.3996 7.58805 13.2975 7.70516 13.1388 7.75049C13.0027 7.78826 12.8968 7.74293 12.6965 7.55028C12.7834 7.48606 12.8666 7.42939 12.946 7.36518C13.014 7.30851 13.0443 7.23296 13.0102 7.1423C12.9724 7.04031 12.8968 6.97609 12.7986 6.97987C12.7154 6.98743 12.6322 7.00254 12.5566 7.03276C12.3865 7.09697 12.2505 7.21407 12.1257 7.34629C11.8951 7.59561 11.7402 7.88648 11.6305 8.20757C11.5058 8.56644 11.4302 8.94041 11.3584 9.30683C11.4604 9.46171 11.5549 9.60904 11.6608 9.77148C11.8044 9.75637 11.9027 9.65437 12.0123 9.56748C12.4621 9.2124 12.8931 8.83842 13.3656 8.51355C14.7226 7.57672 16.1703 6.8061 17.7768 6.38302C18.3438 6.23569 18.9146 6.12614 19.5042 6.1337C19.7159 6.13748 19.9314 6.16392 20.143 6.19792C20.5513 6.26591 20.8839 6.44724 21.0578 6.84388C21.0616 7.00631 21.0616 7.1763 21.0616 7.34251ZM13.048 9.2464C13.0934 9.25395 13.1161 9.26528 13.1388 9.25773C13.5356 9.1784 13.9288 9.08774 14.3257 9.01219C14.972 8.88753 15.6222 8.81198 16.2761 8.91397C16.5937 8.96308 16.9074 9.02729 17.2211 9.08774C17.3043 9.10285 17.3799 9.13685 17.463 9.09529C17.9658 8.86486 18.4269 8.57399 18.7747 8.13202C18.8994 7.97336 18.9939 7.79204 19.0809 7.61072C19.1716 7.41807 19.1527 7.21408 19.062 7.0252C18.9561 6.8061 18.786 6.70411 18.5441 6.74566C18.2266 6.80232 17.9129 6.86277 17.6029 6.94965C15.9813 7.40296 14.5184 8.18868 13.1388 9.14062C13.1085 9.16706 13.0858 9.20484 13.048 9.2464ZM7.87703 8.7402C7.82789 8.68354 7.80899 8.65332 7.78253 8.63443C7.04543 8.17735 6.30456 7.72782 5.51454 7.3614C5.08363 7.16119 4.64137 6.98365 4.17643 6.88165C3.93451 6.82877 3.68503 6.78722 3.43933 6.76077C3.20497 6.73811 2.9933 6.80988 2.80808 6.96098C2.60774 7.12342 2.56994 7.34251 2.69846 7.56539C2.7854 7.71271 2.90635 7.82604 3.06133 7.89781C3.37507 8.04136 3.68881 8.17735 4.01011 8.30201C4.10461 8.33979 4.21801 8.34734 4.32385 8.33978C5.46163 8.27557 6.58049 8.37378 7.67291 8.69487C7.72961 8.70998 7.78631 8.72131 7.87703 8.7402ZM7.57085 14.9656C7.88837 15.0185 8.13785 14.9543 8.37221 14.7805C8.53474 14.6596 8.68216 14.5312 8.79556 14.3574C8.91652 14.1685 9.04881 13.9872 9.18111 13.8021C9.44571 13.4319 9.72543 13.0806 10.1866 12.9673C10.2357 12.6688 10.2395 12.6575 10.1601 12.3855C10.077 12.1098 10.0392 11.8302 10.0997 11.5431C10.1034 11.5243 10.0883 11.5016 10.0808 11.4789C10.0581 11.4827 10.0278 11.4789 10.0127 11.4903C9.66496 11.7736 9.30586 12.0456 8.98456 12.3629C8.75776 12.5857 8.5045 12.786 8.25124 12.9824C8.13784 13.0693 8.08493 13.1637 8.05469 13.2997C7.98287 13.6246 7.89592 13.9419 7.80142 14.263C7.73717 14.4934 7.65401 14.7163 7.57085 14.9656ZM7.41587 11.1276C7.55951 10.7045 7.85056 10.3948 8.19076 10.1303C8.34952 10.0057 8.51963 9.89613 8.68217 9.77525C8.72375 9.74503 8.75776 9.70347 8.8069 9.65437C8.6557 9.5977 8.53474 9.55238 8.41378 9.50327C8.221 9.42394 8.03578 9.41638 7.8241 9.46549C6.73925 9.72614 5.78292 10.2399 4.89841 10.901C4.86817 10.9236 4.85305 10.9727 4.81903 11.0218C5.68842 11.3769 6.5427 11.3127 7.41587 11.1276ZM12.8931 9.79414C13.581 10.2021 14.1858 10.5799 14.5336 11.2598C14.972 11.4147 15.4143 11.5809 15.8679 11.7245C16.2572 11.8453 16.6315 11.7547 16.9981 11.6111C16.9906 11.5771 16.9943 11.562 16.9868 11.5545C16.9112 11.4789 16.8318 11.4071 16.7562 11.3316C16.0607 10.6328 15.2366 10.119 14.3483 9.6997C14.2727 9.6657 14.1971 9.62793 14.1178 9.60904C14.027 9.59015 13.9288 9.56749 13.8418 9.5826C13.5508 9.63548 13.2635 9.70726 12.8931 9.79414ZM14.6092 9.44283C14.7037 9.57504 14.836 9.57882 14.938 9.62037C15.8679 10.0057 16.7184 10.5043 17.3875 11.2976C17.5538 11.1541 17.6558 10.9727 17.7201 10.7687C17.8713 10.3003 17.807 9.88102 17.4366 9.52971C17.3648 9.46172 17.2929 9.42016 17.1909 9.40505C16.3442 9.28417 15.4937 9.23506 14.6092 9.44283ZM7.22309 9.1444C7.16639 9.12929 7.1097 9.1104 7.053 9.09907C6.2214 8.9253 5.38225 8.86487 4.53553 8.86864C4.29739 8.86864 4.11595 9.01974 4.05925 9.26906C3.95341 9.75636 4.03279 10.2097 4.37298 10.6252C4.80012 10.2814 5.25373 10.0019 5.73001 9.75636C6.20628 9.51082 6.71657 9.35594 7.22309 9.1444ZM14.5903 13.4886C14.4202 13.447 14.2614 13.3979 14.0989 13.3715C13.9401 13.345 13.7927 13.243 13.6188 13.2808C13.5735 13.855 13.5243 14.4141 13.479 14.9769C13.6755 15.1054 13.8721 15.1771 14.0875 15.2149C14.2992 15.2527 14.5109 15.2754 14.7226 15.2338C14.9229 15.196 15.1421 15.2074 15.316 15.0789C15.0703 14.5501 14.8397 14.0363 14.5903 13.4886ZM12.98 14.5463C13.0783 14.0363 13.1728 13.5377 13.2711 13.0315C12.757 12.5895 12.2731 12.1249 11.7364 11.7018C11.6343 11.9813 11.6343 12.1664 11.725 12.8237C12.1219 13.107 12.3639 13.5264 12.568 13.9721C12.6209 14.0892 12.67 14.2101 12.723 14.331C12.7645 14.4292 12.8212 14.5161 12.98 14.5463ZM12.0463 11.3089C12.1522 11.4071 12.2164 11.4714 12.2883 11.5318C12.636 11.8378 12.9989 12.1249 13.3278 12.4498C13.7624 12.8804 14.3105 13.0013 14.8775 13.073C14.8964 13.0768 14.9191 13.0579 14.9607 13.039C14.9267 12.9673 14.904 12.8879 14.8549 12.8275C14.6432 12.5593 14.4239 12.2911 14.2009 12.0267C13.8721 11.6414 13.4676 11.3958 12.9535 11.3467C12.6776 11.3203 12.3979 11.2372 12.0463 11.3089ZM8.06603 11.0709C8.22101 11.0483 8.30038 11.0332 8.37976 11.0256C8.71996 10.9841 9.06016 10.935 9.40036 10.8972C9.65362 10.8707 9.89553 10.8972 10.1261 11.0181C10.1526 11.0332 10.1904 11.0181 10.2433 11.0181C10.2886 10.7536 10.2886 10.4968 10.2584 10.2248C9.98247 10.1115 9.70654 10.0095 9.43816 9.8848C9.2605 9.80169 9.12064 9.81681 8.99212 9.96035C8.72374 10.2588 8.45159 10.5572 8.18699 10.8556C8.14919 10.901 8.13029 10.9576 8.06603 11.0709ZM14.6054 11.8227C14.6659 11.9133 14.681 11.9473 14.7037 11.9738C14.9456 12.2193 15.1762 12.4724 15.3576 12.7708C15.3916 12.8275 15.4521 12.8804 15.5126 12.9068C15.9851 13.1297 16.4576 13.3488 16.8998 13.6699C17.017 13.2544 16.983 12.8766 16.8469 12.4951C16.4462 12.4535 16.0871 12.3364 15.728 12.208C15.3765 12.0871 15.0401 11.9058 14.6054 11.8227ZM6.98873 12.971C7.03409 12.9824 7.05678 12.9937 7.07568 12.9899C7.51793 12.8842 7.93372 12.7331 8.2966 12.4422C8.62924 12.174 8.97322 11.9209 9.30586 11.6602C9.39658 11.5885 9.47596 11.5091 9.5629 11.4298C9.52132 11.4034 9.50242 11.3845 9.48352 11.3845C8.93542 11.4034 8.40622 11.5318 7.87325 11.6489C7.78631 11.6678 7.73717 11.7282 7.69559 11.8076C7.59731 11.9813 7.49146 12.1551 7.38562 12.3213C7.27601 12.4913 7.15883 12.6537 7.04921 12.8237C7.02653 12.8615 7.01141 12.9182 6.98873 12.971ZM7.16261 11.8265C7.01897 11.8453 6.95093 11.8491 6.88289 11.8642C6.6183 11.9247 6.35369 11.9889 6.08531 12.0493C5.59392 12.1589 5.59014 12.1551 5.3898 12.6046C5.32176 12.7557 5.27262 12.9144 5.23105 13.0768C5.19703 13.2015 5.17435 13.3299 5.21971 13.4584C5.23483 13.4621 5.24617 13.4735 5.25751 13.4697C5.65063 13.311 6.04751 13.1524 6.41795 13.0051C6.65987 12.6197 6.89423 12.2533 7.16261 11.8265ZM14.9985 13.5604C15.0968 13.7228 15.1837 13.8588 15.2707 13.9985C15.3614 14.1496 15.4597 14.3007 15.5428 14.4594C15.6184 14.6029 15.6789 14.7541 15.7469 14.9014C16.1552 14.7352 16.5521 14.3725 16.7033 14.0212C16.2459 13.8474 15.9095 13.481 15.471 13.2317C15.3727 13.4319 15.1875 13.4886 14.9985 13.5604ZM7.02275 14.924C7.26467 14.4065 7.48769 13.9268 7.71071 13.4432C7.72583 13.413 7.73717 13.379 7.74851 13.345C7.75229 13.3337 7.75229 13.3224 7.74851 13.311C7.74473 13.2997 7.72961 13.2959 7.70693 13.277C7.39319 13.3753 7.06811 13.4735 6.73547 13.5755C6.66365 13.7643 6.59183 13.9494 6.52379 14.1383C6.45575 14.3347 6.32345 14.5047 6.28943 14.7238C6.53513 14.8258 6.76193 14.924 7.02275 14.924ZM13.8002 11.0218C13.649 10.833 13.5432 10.7272 13.4298 10.629C13.1766 10.4174 12.9195 10.2097 12.6587 10.0019C12.5907 9.94902 12.5151 9.93391 12.4281 9.9679C12.1862 10.0586 11.9443 10.1454 11.7061 10.2588C11.7326 10.4552 11.7591 10.6403 11.7893 10.8481C12.4546 10.6554 13.0745 10.9047 13.8002 11.0218ZM5.82072 14.4858C6.03996 14.1308 6.24408 13.7983 6.44441 13.4659C6.45953 13.4432 6.45575 13.379 6.44441 13.3752C6.40661 13.3601 6.34992 13.345 6.31968 13.3639C5.9946 13.5566 5.67708 13.753 5.33688 13.9608C5.45028 14.1761 5.58636 14.3461 5.82072 14.4858ZM10.9464 13.039C11.0635 12.8955 11.0522 12.7633 11.0522 12.6348C11.0522 12.5064 11.0295 12.3742 11.0409 12.2458C11.0635 11.9473 11.0446 11.6565 10.9312 11.3732C10.8972 11.2863 10.9048 11.1881 10.8897 11.0936C10.8859 11.0672 10.8632 11.0445 10.8367 10.9916C10.7347 11.1578 10.7422 11.3127 10.78 11.4563C10.8556 11.7245 10.8443 11.9927 10.8405 12.2684C10.8443 12.514 10.833 12.7671 10.9464 13.039ZM10.3869 14.3914C10.3907 14.399 10.3907 14.4292 10.4058 14.4443C10.5835 14.6332 10.8216 14.6672 11.056 14.6672C11.1845 14.6672 11.3017 14.603 11.3395 14.4405C11.0069 14.4254 10.6931 14.4103 10.3869 14.3914ZM10.4663 15.2754C10.489 15.3245 10.4965 15.3698 10.5192 15.3811C10.6591 15.4416 10.7989 15.5058 10.9464 15.536C11.0295 15.5511 11.1278 15.5133 11.2147 15.4793C11.2525 15.4642 11.2715 15.4038 11.3168 15.3434C11.0144 15.3207 10.7498 15.298 10.4663 15.2754ZM10.5154 13.6057C10.9388 13.9154 11.2147 13.9192 11.3924 13.6435C11.1165 13.6283 10.8556 13.617 10.5154 13.6057ZM10.5759 15.9213C10.5835 16.0762 10.6893 16.114 10.7838 16.1593C10.8746 16.2008 10.969 16.2122 11.0598 16.1706C11.1202 16.1404 11.1883 16.1026 11.158 16.0006C10.969 15.9704 10.7725 15.944 10.5759 15.9213Z" fill="#020304"/>
<path d="M21.0616 7.34251C20.9293 7.65227 20.7176 7.91292 20.4681 8.12824C19.7008 8.79687 19.2207 9.64681 18.8465 10.5723C18.7634 10.7801 18.6915 10.9954 18.6046 11.2032C18.5252 11.3883 18.4458 11.5734 18.3438 11.7509C18.1434 12.1098 17.8448 12.3515 17.4366 12.4422C17.3685 12.4573 17.3005 12.4762 17.206 12.4989C17.2325 12.5555 17.2476 12.6122 17.2816 12.65C17.7806 13.2506 17.7843 14.1496 17.2967 14.8447C16.6844 15.7135 15.8868 16.318 14.836 16.5522C14.6621 16.5899 14.4844 16.6202 14.3068 16.6315C13.7246 16.6617 13.2673 16.4124 12.9271 15.9515C12.8137 15.8004 12.723 15.6304 12.6436 15.4567C12.4697 15.0789 12.3109 14.6936 12.1408 14.3121C12.0426 14.0854 11.9405 13.8588 11.7893 13.6699C11.7061 13.6775 11.7024 13.7266 11.6986 13.7719C11.6759 14.1383 11.6457 14.5085 11.6343 14.8749C11.623 15.366 11.5247 15.842 11.4 16.3142C11.366 16.4388 11.313 16.5635 11.2412 16.6693C11.0257 16.9828 10.6666 16.9488 10.5079 16.6088C10.4663 16.5219 10.4398 16.4313 10.4209 16.3368C10.3151 15.7778 10.213 15.2149 10.1148 14.6521C10.0618 14.3574 10.0581 14.059 10.0845 13.7643C10.0883 13.7228 10.077 13.6775 10.0694 13.5906C9.99759 13.6548 9.94467 13.685 9.91443 13.7266C9.72165 13.9985 9.51375 14.2592 9.34743 14.5463C9.10552 14.9618 8.82958 15.3471 8.47804 15.672C8.10761 16.0158 7.68802 16.2877 7.17395 16.3671C6.69011 16.4426 6.22518 16.3822 5.79804 16.1291C5.71488 16.08 5.63551 16.0309 5.55235 15.9818C4.81147 15.5436 4.49016 14.856 4.39566 14.0363C4.38432 13.9305 4.38811 13.821 4.37677 13.7152C4.33897 13.2884 4.46748 12.9182 4.73964 12.5933C4.85304 12.4573 4.96645 12.3251 5.10253 12.1664C5.02693 12.1475 4.98534 12.1362 4.94376 12.1249C4.22557 11.9096 3.71906 11.4638 3.46202 10.7499C3.41288 10.6139 3.37129 10.4779 3.32593 10.3419C3.14827 9.81303 2.87233 9.34839 2.47165 8.9593C2.24108 8.73643 1.99538 8.52866 1.75346 8.31712C1.62116 8.20002 1.48509 8.08291 1.35657 7.95825C1.22049 7.82226 1.11465 7.6636 1.05039 7.48228C0.921872 7.10453 1.04282 6.73811 1.37168 6.50768C1.54934 6.38302 1.75346 6.3188 1.96514 6.27347C2.36582 6.18658 2.77028 6.18281 3.17474 6.22058C4.01389 6.29613 4.81525 6.5039 5.57124 6.87788C6.02862 7.10453 6.486 7.34251 6.9207 7.60694C7.97909 8.24912 9.0148 8.9253 10.0127 9.65815C10.0883 9.71481 10.1677 9.7677 10.2509 9.82436C10.368 9.77148 10.3454 9.63548 10.4172 9.56371C10.4928 9.48816 10.557 9.40505 10.644 9.30683C10.6175 8.73642 10.5192 8.16602 10.3302 7.61072C10.2584 7.3954 10.1412 7.19896 9.99004 7.02898C9.85774 6.87787 9.6952 6.79099 9.49486 6.77588C9.355 6.76455 9.23404 6.80988 9.1471 6.91943C9.10174 6.97609 9.06394 7.03653 9.10174 7.11208C9.13576 7.18763 9.20002 7.2103 9.2794 7.20274C9.37012 7.19141 9.46083 7.18008 9.57045 7.16497C9.60825 7.33873 9.55534 7.45962 9.43816 7.55405C9.3361 7.63716 9.2227 7.64472 9.10174 7.60316C8.70484 7.46339 8.56876 7.04787 8.81824 6.70789C9.00346 6.45479 9.25672 6.34902 9.56668 6.38302C9.86152 6.41702 10.111 6.54923 10.3 6.78344C10.4814 7.00631 10.6175 7.25563 10.7007 7.53516C10.8103 7.90159 10.8557 8.27935 10.8557 8.66088C10.8557 8.84975 10.8557 9.03863 10.8557 9.23884C10.9161 9.25017 10.9615 9.26528 11.0031 9.26528C11.0484 9.26528 11.0938 9.25773 11.1656 9.2464C11.1732 9.09907 11.1807 8.9593 11.1883 8.81953C11.2072 8.44933 11.2714 8.08669 11.4037 7.73916C11.5171 7.43317 11.6835 7.16119 11.9065 6.92698C12.0993 6.72299 12.3298 6.57567 12.602 6.50768C13.0896 6.3868 13.5319 6.74566 13.5054 7.23297C13.5016 7.30474 13.4865 7.37651 13.4601 7.44073C13.3996 7.58805 13.2975 7.70516 13.1388 7.75049C13.0027 7.78826 12.8968 7.74293 12.6965 7.55028C12.7834 7.48606 12.8666 7.42939 12.946 7.36518C13.014 7.30851 13.0443 7.23296 13.0102 7.1423C12.9724 7.04031 12.8968 6.97609 12.7986 6.97987C12.7154 6.98743 12.6322 7.00254 12.5566 7.03276C12.3865 7.09697 12.2505 7.21407 12.1257 7.34629C11.8951 7.59561 11.7402 7.88648 11.6305 8.20757C11.5058 8.56644 11.4302 8.94041 11.3584 9.30683C11.4604 9.46171 11.5549 9.60904 11.6608 9.77148C11.8044 9.75637 11.9027 9.65437 12.0123 9.56748C12.4621 9.2124 12.8931 8.83842 13.3656 8.51355C14.7226 7.57672 16.1703 6.8061 17.7768 6.38302C18.3438 6.23569 18.9146 6.12614 19.5042 6.1337C19.7159 6.13748 19.9314 6.16392 20.143 6.19792C20.5513 6.26591 20.8839 6.44724 21.0578 6.84388C21.0616 7.00631 21.0616 7.1763 21.0616 7.34251ZM13.048 9.2464C13.0934 9.25395 13.1161 9.26528 13.1388 9.25773C13.5356 9.1784 13.9288 9.08774 14.3257 9.01219C14.972 8.88753 15.6222 8.81198 16.2761 8.91397C16.5937 8.96308 16.9074 9.02729 17.2211 9.08774C17.3043 9.10285 17.3799 9.13685 17.463 9.09529C17.9658 8.86486 18.4269 8.57399 18.7747 8.13202C18.8994 7.97336 18.9939 7.79204 19.0809 7.61072C19.1716 7.41807 19.1527 7.21408 19.062 7.0252C18.9561 6.8061 18.786 6.70411 18.5441 6.74566C18.2266 6.80232 17.9129 6.86277 17.6029 6.94965C15.9813 7.40296 14.5184 8.18868 13.1388 9.14062C13.1085 9.16706 13.0858 9.20484 13.048 9.2464ZM7.87703 8.7402C7.82789 8.68354 7.80899 8.65332 7.78253 8.63443C7.04543 8.17735 6.30456 7.72782 5.51454 7.3614C5.08363 7.16119 4.64137 6.98365 4.17643 6.88165C3.93451 6.82877 3.68503 6.78722 3.43933 6.76077C3.20497 6.73811 2.9933 6.80988 2.80808 6.96098C2.60774 7.12342 2.56994 7.34251 2.69846 7.56539C2.7854 7.71271 2.90635 7.82604 3.06133 7.89781C3.37507 8.04136 3.68881 8.17735 4.01011 8.30201C4.10461 8.33979 4.21801 8.34734 4.32385 8.33978C5.46163 8.27557 6.58049 8.37378 7.67291 8.69487C7.72961 8.70998 7.78631 8.72131 7.87703 8.7402ZM7.57085 14.9656C7.88837 15.0185 8.13785 14.9543 8.37221 14.7805C8.53474 14.6596 8.68216 14.5312 8.79556 14.3574C8.91652 14.1685 9.04881 13.9872 9.18111 13.8021C9.44571 13.4319 9.72543 13.0806 10.1866 12.9673C10.2357 12.6688 10.2395 12.6575 10.1601 12.3855C10.077 12.1098 10.0392 11.8302 10.0997 11.5431C10.1034 11.5243 10.0883 11.5016 10.0808 11.4789C10.0581 11.4827 10.0278 11.4789 10.0127 11.4903C9.66496 11.7736 9.30586 12.0456 8.98456 12.3629C8.75776 12.5857 8.5045 12.786 8.25124 12.9824C8.13784 13.0693 8.08493 13.1637 8.05469 13.2997C7.98287 13.6246 7.89592 13.9419 7.80142 14.263C7.73717 14.4934 7.65401 14.7163 7.57085 14.9656ZM7.41587 11.1276C7.55951 10.7045 7.85056 10.3948 8.19076 10.1303C8.34952 10.0057 8.51963 9.89613 8.68217 9.77525C8.72375 9.74503 8.75776 9.70347 8.8069 9.65437C8.6557 9.5977 8.53474 9.55238 8.41378 9.50327C8.221 9.42394 8.03578 9.41638 7.8241 9.46549C6.73925 9.72614 5.78292 10.2399 4.89841 10.901C4.86817 10.9236 4.85305 10.9727 4.81903 11.0218C5.68842 11.3769 6.5427 11.3127 7.41587 11.1276ZM12.8931 9.79414C13.581 10.2021 14.1858 10.5799 14.5336 11.2598C14.972 11.4147 15.4143 11.5809 15.8679 11.7245C16.2572 11.8453 16.6315 11.7547 16.9981 11.6111C16.9906 11.5771 16.9943 11.562 16.9868 11.5545C16.9112 11.4789 16.8318 11.4071 16.7562 11.3316C16.0607 10.6328 15.2366 10.119 14.3483 9.6997C14.2727 9.6657 14.1971 9.62793 14.1178 9.60904C14.027 9.59015 13.9288 9.56749 13.8418 9.5826C13.5508 9.63548 13.2635 9.70726 12.8931 9.79414ZM14.6092 9.44283C14.7037 9.57504 14.836 9.57882 14.938 9.62037C15.8679 10.0057 16.7184 10.5043 17.3875 11.2976C17.5538 11.1541 17.6558 10.9727 17.7201 10.7687C17.8713 10.3003 17.807 9.88102 17.4366 9.52971C17.3648 9.46172 17.2929 9.42016 17.1909 9.40505C16.3442 9.28417 15.4937 9.23506 14.6092 9.44283ZM7.22309 9.1444C7.16639 9.12929 7.1097 9.1104 7.053 9.09907C6.2214 8.9253 5.38225 8.86487 4.53553 8.86864C4.29739 8.86864 4.11595 9.01974 4.05925 9.26906C3.95341 9.75636 4.03279 10.2097 4.37298 10.6252C4.80012 10.2814 5.25373 10.0019 5.73001 9.75636C6.20628 9.51082 6.71657 9.35594 7.22309 9.1444ZM14.5903 13.4886C14.4202 13.447 14.2614 13.3979 14.0989 13.3715C13.9401 13.345 13.7927 13.243 13.6188 13.2808C13.5735 13.855 13.5243 14.4141 13.479 14.9769C13.6755 15.1054 13.8721 15.1771 14.0875 15.2149C14.2992 15.2527 14.5109 15.2754 14.7226 15.2338C14.9229 15.196 15.1421 15.2074 15.316 15.0789C15.0703 14.5501 14.8397 14.0363 14.5903 13.4886ZM12.98 14.5463C13.0783 14.0363 13.1728 13.5377 13.2711 13.0315C12.757 12.5895 12.2731 12.1249 11.7364 11.7018C11.6343 11.9813 11.6343 12.1664 11.725 12.8237C12.1219 13.107 12.3639 13.5264 12.568 13.9721C12.6209 14.0892 12.67 14.2101 12.723 14.331C12.7645 14.4292 12.8212 14.5161 12.98 14.5463ZM12.0463 11.3089C12.1522 11.4071 12.2164 11.4714 12.2883 11.5318C12.636 11.8378 12.9989 12.1249 13.3278 12.4498C13.7624 12.8804 14.3105 13.0013 14.8775 13.073C14.8964 13.0768 14.9191 13.0579 14.9607 13.039C14.9267 12.9673 14.904 12.8879 14.8549 12.8275C14.6432 12.5593 14.4239 12.2911 14.2009 12.0267C13.8721 11.6414 13.4676 11.3958 12.9535 11.3467C12.6776 11.3203 12.3979 11.2372 12.0463 11.3089ZM8.06603 11.0709C8.22101 11.0483 8.30038 11.0332 8.37976 11.0256C8.71996 10.9841 9.06016 10.935 9.40036 10.8972C9.65362 10.8707 9.89553 10.8972 10.1261 11.0181C10.1526 11.0332 10.1904 11.0181 10.2433 11.0181C10.2886 10.7536 10.2886 10.4968 10.2584 10.2248C9.98247 10.1115 9.70654 10.0095 9.43816 9.8848C9.2605 9.80169 9.12064 9.81681 8.99212 9.96035C8.72374 10.2588 8.45159 10.5572 8.18699 10.8556C8.14919 10.901 8.13029 10.9576 8.06603 11.0709ZM14.6054 11.8227C14.6659 11.9133 14.681 11.9473 14.7037 11.9738C14.9456 12.2193 15.1762 12.4724 15.3576 12.7708C15.3916 12.8275 15.4521 12.8804 15.5126 12.9068C15.9851 13.1297 16.4576 13.3488 16.8998 13.6699C17.017 13.2544 16.983 12.8766 16.8469 12.4951C16.4462 12.4535 16.0871 12.3364 15.728 12.208C15.3765 12.0871 15.0401 11.9058 14.6054 11.8227ZM6.98873 12.971C7.03409 12.9824 7.05678 12.9937 7.07568 12.9899C7.51793 12.8842 7.93372 12.7331 8.2966 12.4422C8.62924 12.174 8.97322 11.9209 9.30586 11.6602C9.39658 11.5885 9.47596 11.5091 9.5629 11.4298C9.52132 11.4034 9.50242 11.3845 9.48352 11.3845C8.93542 11.4034 8.40622 11.5318 7.87325 11.6489C7.78631 11.6678 7.73717 11.7282 7.69559 11.8076C7.59731 11.9813 7.49146 12.1551 7.38562 12.3213C7.27601 12.4913 7.15883 12.6537 7.04921 12.8237C7.02653 12.8615 7.01141 12.9182 6.98873 12.971ZM7.16261 11.8265C7.01897 11.8453 6.95093 11.8491 6.88289 11.8642C6.6183 11.9247 6.35369 11.9889 6.08531 12.0493C5.59392 12.1589 5.59014 12.1551 5.3898 12.6046C5.32176 12.7557 5.27262 12.9144 5.23105 13.0768C5.19703 13.2015 5.17435 13.3299 5.21971 13.4584C5.23483 13.4621 5.24617 13.4735 5.25751 13.4697C5.65063 13.311 6.04751 13.1524 6.41795 13.0051C6.65987 12.6197 6.89423 12.2533 7.16261 11.8265ZM14.9985 13.5604C15.0968 13.7228 15.1837 13.8588 15.2707 13.9985C15.3614 14.1496 15.4597 14.3007 15.5428 14.4594C15.6184 14.6029 15.6789 14.7541 15.7469 14.9014C16.1552 14.7352 16.5521 14.3725 16.7033 14.0212C16.2459 13.8474 15.9095 13.481 15.471 13.2317C15.3727 13.4319 15.1875 13.4886 14.9985 13.5604ZM7.02275 14.924C7.26467 14.4065 7.48769 13.9268 7.71071 13.4432C7.72583 13.413 7.73717 13.379 7.74851 13.345C7.75229 13.3337 7.75229 13.3224 7.74851 13.311C7.74473 13.2997 7.72961 13.2959 7.70693 13.277C7.39319 13.3753 7.06811 13.4735 6.73547 13.5755C6.66365 13.7643 6.59183 13.9494 6.52379 14.1383C6.45575 14.3347 6.32345 14.5047 6.28943 14.7238C6.53513 14.8258 6.76193 14.924 7.02275 14.924ZM13.8002 11.0218C13.649 10.833 13.5432 10.7272 13.4298 10.629C13.1766 10.4174 12.9195 10.2097 12.6587 10.0019C12.5907 9.94902 12.5151 9.93391 12.4281 9.9679C12.1862 10.0586 11.9443 10.1454 11.7061 10.2588C11.7326 10.4552 11.7591 10.6403 11.7893 10.8481C12.4546 10.6554 13.0745 10.9047 13.8002 11.0218ZM5.82072 14.4858C6.03996 14.1308 6.24408 13.7983 6.44441 13.4659C6.45953 13.4432 6.45575 13.379 6.44441 13.3752C6.40661 13.3601 6.34992 13.345 6.31968 13.3639C5.9946 13.5566 5.67708 13.753 5.33688 13.9608C5.45028 14.1761 5.58636 14.3461 5.82072 14.4858ZM10.9464 13.039C11.0635 12.8955 11.0522 12.7633 11.0522 12.6348C11.0522 12.5064 11.0295 12.3742 11.0409 12.2458C11.0635 11.9473 11.0446 11.6565 10.9312 11.3732C10.8972 11.2863 10.9048 11.1881 10.8897 11.0936C10.8859 11.0672 10.8632 11.0445 10.8367 10.9916C10.7347 11.1578 10.7422 11.3127 10.78 11.4563C10.8556 11.7245 10.8443 11.9927 10.8405 12.2684C10.8443 12.514 10.833 12.7671 10.9464 13.039ZM10.3869 14.3914C10.3907 14.399 10.3907 14.4292 10.4058 14.4443C10.5835 14.6332 10.8216 14.6672 11.056 14.6672C11.1845 14.6672 11.3017 14.603 11.3395 14.4405C11.0069 14.4254 10.6931 14.4103 10.3869 14.3914ZM10.4663 15.2754C10.489 15.3245 10.4965 15.3698 10.5192 15.3811C10.6591 15.4416 10.7989 15.5058 10.9464 15.536C11.0295 15.5511 11.1278 15.5133 11.2147 15.4793C11.2525 15.4642 11.2715 15.4038 11.3168 15.3434C11.0144 15.3207 10.7498 15.298 10.4663 15.2754ZM10.5154 13.6057C10.9388 13.9154 11.2147 13.9192 11.3924 13.6435C11.1165 13.6283 10.8556 13.617 10.5154 13.6057ZM10.5759 15.9213C10.5835 16.0762 10.6893 16.114 10.7838 16.1593C10.8746 16.2008 10.969 16.2122 11.0598 16.1706C11.1202 16.1404 11.1883 16.1026 11.158 16.0006C10.969 15.9704 10.7725 15.944 10.5759 15.9213Z" stroke="black" stroke-width="0.2" mask="url(#path-1-outside-1_2_5061)"/>
<path d="M11.1342 0.914071L11.1535 0.987268C11.1724 1.05934 11.1886 1.12381 11.2037 1.1842L11.2037 1.1843C11.2188 1.24481 11.2329 1.30109 11.2479 1.35731L11.2481 1.35788L11.2481 1.35788C11.4315 2.07984 11.4159 2.81177 11.3743 3.53751C11.3743 3.53754 11.3743 3.53756 11.3743 3.53759L11.3244 3.53473C11.2947 4.08283 11.2505 4.6273 11.2061 5.17525L11.1342 0.914071ZM11.1342 0.914071L11.0744 0.960523C11.0501 0.979466 11.0312 0.993003 11.0161 1.00388C11.0106 1.00789 11.0055 1.01153 11.0008 1.01495C10.993 1.02072 10.9843 1.02727 10.9775 1.03395C10.9731 1.03837 10.959 1.05234 10.9571 1.07416C10.9413 1.18564 10.9229 1.29807 10.9045 1.4111C10.8576 1.6984 10.8101 1.98961 10.8019 2.27917L10.8019 2.27928C10.7812 3.07011 10.7919 3.86089 10.8025 4.65051C10.8035 4.7296 10.8046 4.80868 10.8056 4.88774L10.8056 4.88776C10.8085 5.10393 10.8311 5.32297 10.8532 5.53828C10.8604 5.6078 10.8675 5.67694 10.8739 5.74546L10.8739 5.74556C10.8777 5.78577 10.8839 5.83343 10.9058 5.87769C10.9286 5.92401 10.9668 5.96328 11.0281 5.9905L11.0738 6.01078L11.0941 5.96512C11.103 5.945 11.1107 5.92932 11.1183 5.91363C11.1243 5.9013 11.1302 5.88898 11.1369 5.87449C11.1502 5.8453 11.1625 5.81477 11.1693 5.78085L11.1693 5.78085L11.1694 5.78007C11.2034 5.59525 11.2379 5.40399 11.2532 5.21223L11.1342 0.914071ZM10.8556 4.88709C10.8546 4.80804 10.8535 4.72899 10.8525 4.64994C10.8419 3.86016 10.8312 3.07037 10.8519 2.28059L10.8556 4.88709ZM11.0048 5.91986C10.9416 5.87341 10.93 5.80711 10.9237 5.74081C10.9172 5.67123 10.91 5.60141 10.9028 5.53148L11.0048 5.91986Z" fill="#020304" stroke="black" stroke-width="0.1"/>
<path d="M10.1497 17.6088V17.7005C10.1497 17.7387 10.151 17.7724 10.1524 17.8048C10.1529 17.818 10.1535 17.8309 10.1539 17.8438C10.1553 17.8874 10.1555 17.9299 10.1491 17.9723L10.149 17.9733L10.1489 17.9733C9.99776 18.8647 9.84654 19.7525 9.69155 20.6403C9.62568 21.032 9.49282 21.4037 9.36226 21.7689C9.33365 21.8489 9.30514 21.9286 9.27748 22.0082L9.27724 22.0089L9.27724 22.0089C9.26711 22.0367 9.25123 22.0603 9.23454 22.0829C9.22791 22.0919 9.22137 22.1004 9.21462 22.1092C9.20305 22.1243 9.19088 22.1402 9.17659 22.1604L9.13097 22.225L9.09218 22.1561C9.08121 22.1366 9.07105 22.1213 9.06091 22.1061C9.05607 22.0988 9.05124 22.0915 9.04633 22.0838C9.03286 22.0627 9.01746 22.0362 9.01421 22.0047M10.1497 17.6088L9.06393 21.9993M10.1497 17.6088L10.0726 17.6585C9.95082 17.737 9.90194 17.8356 9.85967 17.921C9.85669 17.927 9.85375 17.9329 9.85081 17.9388L9.8508 17.9388L9.85036 17.9397C9.67509 18.3091 9.53795 18.6898 9.43512 19.0856L9.43511 19.0857C9.38752 19.2696 9.34522 19.4542 9.30314 19.6378C9.29489 19.6738 9.28666 19.7098 9.27839 19.7457C9.22786 19.9651 9.17614 20.1831 9.11417 20.3989M10.1497 17.6088L9.16221 20.4128M9.01421 22.0047C9.0142 22.0046 9.01419 22.0044 9.01418 22.0043L9.06393 21.9993M9.01421 22.0047C9.01422 22.0048 9.01424 22.0049 9.01425 22.0049L9.06393 21.9993M9.01421 22.0047C8.95331 21.4643 8.96059 20.9323 9.11417 20.3989M9.06393 21.9993C9.00345 21.4629 9.01101 20.9379 9.16221 20.4128M9.11417 20.3989C9.11416 20.399 9.11416 20.399 9.11416 20.399L9.16221 20.4128M9.11417 20.3989L9.16221 20.4128M9.10729 22.0855C9.10321 22.0911 9.09907 22.0968 9.09491 22.1027L9.13575 22.1316L9.17932 22.107C9.17561 22.1004 9.17181 22.094 9.16804 22.0878C9.17074 22.0843 9.17338 22.0808 9.17595 22.0774C9.20114 22.0446 9.22002 22.0199 9.23025 21.9918C9.25823 21.9113 9.28694 21.831 9.31569 21.7506C9.44617 21.3855 9.57722 21.0188 9.64227 20.6319C9.79725 19.7442 9.94845 18.8564 10.0997 17.9649L9.10729 22.0855ZM10.1007 17.7607C10.1089 17.7545 10.1175 17.7485 10.1267 17.7425L10.0997 17.7005H10.0497C10.0497 17.713 10.0498 17.7253 10.05 17.7371C9.97537 17.8004 9.93932 17.873 9.90399 17.9441C9.90117 17.9498 9.89836 17.9555 9.89553 17.9612C9.72165 18.3276 9.58557 18.7053 9.48351 19.0982L10.1007 17.7607Z" fill="#020304" stroke="black" stroke-width="0.1"/>
<path d="M18.0413 4.33455L17.9863 4.42877C17.9689 4.45853 17.9554 4.48358 17.9431 4.50633C17.9368 4.51797 17.9309 4.52901 17.9249 4.53977C17.9083 4.56966 17.8913 4.59774 17.869 4.62009C17.8689 4.62015 17.8689 4.6202 17.8688 4.62025L17.8335 4.58488C17.3912 5.03441 16.9301 5.46127 16.382 5.78237C16.2031 5.88713 16.0299 5.99971 15.8568 6.11221C15.7115 6.2066 15.5664 6.30093 15.4181 6.39055C15.2555 6.48877 15.0854 6.57565 14.9153 6.65876L18.0413 4.33455ZM18.0413 4.33455L17.934 4.3544C17.9004 4.36062 17.8726 4.36455 17.8473 4.36815C17.8346 4.36995 17.8225 4.37166 17.8106 4.37353C17.778 4.37865 17.7455 4.3851 17.7169 4.40023C17.6223 4.44283 17.5282 4.48879 17.4346 4.53453C17.3788 4.56175 17.3233 4.58889 17.2679 4.6152C16.2599 5.08657 15.4127 5.78537 14.5781 6.49489L18.0413 4.33455Z" fill="#020304" stroke="black" stroke-width="0.1"/>
<path d="M13.4426 22.0351L13.5141 22.0765L13.5176 21.9939C13.5194 21.9504 13.523 21.9179 13.5263 21.8894L13.5268 21.8849C13.5298 21.8586 13.5327 21.8332 13.5327 21.8067H13.533L13.5324 21.8013C13.4717 21.2438 13.3689 20.6905 13.1431 20.1665C13.0612 19.9751 12.9776 19.7851 12.8942 19.5955C12.6574 19.0569 12.422 18.5218 12.2296 17.9674L12.2297 17.9674L12.2288 17.9653C12.2282 17.9637 12.2275 17.9618 12.2267 17.9597C12.2204 17.9434 12.2089 17.9132 12.1866 17.8909C12.1563 17.8606 12.1138 17.8493 12.0601 17.8591L12.023 17.8658L12.0193 17.9033C12.0175 17.9211 12.015 17.9394 12.0123 17.9588C12.0122 17.9599 12.012 17.961 12.0119 17.9621C12.0094 17.9802 12.0067 17.9993 12.0047 18.0186C12.0002 18.0595 11.9979 18.1039 12.0044 18.1496L12.0044 18.1496L12.0044 18.1498C12.0141 18.2158 12.0227 18.2833 12.0313 18.3514C12.0555 18.5429 12.0805 18.7399 12.1344 18.927L12.1344 18.927C12.3188 19.5653 12.5218 20.2005 12.7235 20.8319C12.7452 20.9 12.767 20.9681 12.7887 21.0362L12.7888 21.0363C12.897 21.3725 13.0935 21.6646 13.2974 21.9439C13.3138 21.9703 13.3409 21.9839 13.3601 21.9933C13.3657 21.996 13.3715 21.9987 13.3774 22.0016C13.3961 22.0104 13.4168 22.0202 13.4426 22.0351ZM12.8363 21.021C12.8146 20.9529 12.7929 20.8849 12.7711 20.8167C12.5694 20.1853 12.3667 19.5507 12.1824 18.9131C12.1297 18.7301 12.1055 18.5389 12.0814 18.3485C12.0727 18.2796 12.0639 18.2108 12.0539 18.1425C12.0455 18.0841 12.0536 18.0256 12.0614 17.9687C12.0642 17.9484 12.067 17.9282 12.069 17.9083C12.1473 17.8941 12.1653 17.9401 12.1797 17.977C12.1806 17.9793 12.1815 17.9816 12.1824 17.9838L12.8363 21.021Z" fill="#020304" stroke="black" stroke-width="0.1"/>
<path d="M14.5788 2.09719L14.5835 2.20666C14.5849 2.2383 14.5878 2.26339 14.5904 2.2863C14.5912 2.29336 14.592 2.30022 14.5927 2.307C14.5956 2.33379 14.5979 2.36369 14.589 2.3932L14.5888 2.39408L14.5887 2.39408C14.2167 3.55515 13.6696 4.62599 12.9056 5.57944L12.9054 5.57965C12.8985 5.58822 12.8914 5.59747 12.884 5.60715C12.8283 5.67952 12.7546 5.77533 12.6008 5.78321L12.5521 5.78571L12.5484 5.73712C12.5476 5.72658 12.5461 5.71568 12.5444 5.70373C12.5442 5.70203 12.5439 5.7003 12.5437 5.69854C12.5422 5.68843 12.5406 5.67736 12.5395 5.66669C12.5371 5.64328 12.5355 5.61178 12.548 5.58239C12.5973 5.44996 12.6508 5.3163 12.716 5.18597C12.7485 5.11986 12.7811 5.05367 12.8136 4.98742C13.0117 4.58451 13.2108 4.17955 13.4155 3.78019L14.5788 2.09719ZM14.5788 2.09719L14.4992 2.17252M14.5788 2.09719L14.4992 2.17252M14.4992 2.17252C14.4738 2.19655 14.4514 2.21571 14.4306 2.23354C14.4227 2.24025 14.4151 2.24678 14.4076 2.25331C14.3814 2.27613 14.3563 2.29959 14.3372 2.32809M14.4992 2.17252L14.3372 2.32809M14.3372 2.32809C14.3015 2.37997 14.2656 2.43182 14.2298 2.4837C13.9401 2.90257 13.6492 3.32326 13.4156 3.78015L14.3372 2.32809ZM14.5411 2.37882C14.1707 3.53475 13.6264 4.60002 12.8666 5.54818L14.5411 2.37882Z" fill="#020304" stroke="black" stroke-width="0.1"/>
<path d="M9.04998 5.87353L9.12579 5.88331L9.10437 5.80993C9.09799 5.78807 9.09272 5.76792 9.08785 5.74898C9.08712 5.74615 9.08639 5.74332 9.08567 5.74051C9.08166 5.72483 9.07775 5.70961 9.07376 5.69555C9.06456 5.66311 9.05336 5.63091 9.03331 5.60293C8.96018 5.49149 8.8795 5.3879 8.79142 5.28839L8.79128 5.28823C8.69169 5.17669 8.59118 5.06745 8.49072 4.95826C8.36731 4.82412 8.24398 4.69008 8.12254 4.55198C7.68546 4.05023 7.14291 3.6786 6.60723 3.31169C6.57646 3.29061 6.54571 3.26955 6.515 3.24848C6.48622 3.22744 6.45103 3.22505 6.4249 3.22413C6.415 3.22379 6.40542 3.22366 6.39573 3.22354C6.37511 3.22328 6.35398 3.223 6.32819 3.22055L6.22597 3.21082L6.28134 3.29729C6.30089 3.32781 6.31678 3.35399 6.33147 3.37819C6.33943 3.3913 6.34703 3.40382 6.35467 3.41614C6.37586 3.45031 6.39637 3.48124 6.42158 3.51064L6.42158 3.51064L6.42168 3.51076C6.46908 3.56569 6.5165 3.62071 6.56396 3.67577C6.87198 4.03316 7.18163 4.39242 7.4998 4.74316L7.49979 4.74316L7.50005 4.74344C7.80827 5.07808 8.14748 5.38293 8.52537 5.63854C8.53446 5.64485 8.54358 5.65123 8.55275 5.65765C8.67992 5.74661 8.81873 5.84371 9.04998 5.87353Z" fill="#020304" stroke="black" stroke-width="0.1"/>
<path d="M9.02856 16.9371C9.04063 16.8983 9.04117 16.8582 9.03971 16.8194C9.03917 16.805 9.03838 16.7909 9.03757 16.7767C9.03608 16.7503 9.03455 16.7233 9.03455 16.6919V16.611L8.9622 16.6472C8.93661 16.66 8.91392 16.6691 8.89136 16.6782C8.88231 16.6818 8.87329 16.6854 8.86411 16.6893C8.83425 16.7018 8.80197 16.717 8.77576 16.743C8.68744 16.8275 8.60574 16.9168 8.53531 17.0184C7.99394 17.7902 7.49621 18.5872 7.14635 19.4727L7.14632 19.4727L7.14576 19.4743C7.12627 19.5288 7.11072 19.5832 7.08826 19.6618L7.08807 19.6624L7.06464 19.7444L8.98077 16.9224M9.02856 16.9371C9.02853 16.9371 9.02851 16.9372 9.02849 16.9373L8.98077 16.9224M9.02856 16.9371C9.02858 16.937 9.0286 16.9369 9.02862 16.9369L8.98077 16.9224M9.02856 16.9371C8.98964 17.0653 8.93537 17.1892 8.87374 17.3047M8.98077 16.9224C8.94297 17.047 8.89005 17.1679 8.82957 17.2812M8.87374 17.3047C8.87375 17.3046 8.87377 17.3046 8.87378 17.3046L8.82957 17.2812M8.87374 17.3047C8.87372 17.3047 8.8737 17.3047 8.87368 17.3048L8.82957 17.2812M8.87374 17.3047L8.82957 17.2812M8.98455 16.6919L9.0069 16.7367C8.99983 16.7402 8.99282 16.7435 8.98592 16.7467C8.98513 16.7294 8.98455 16.7112 8.98455 16.6919ZM8.98455 16.6919H8.93455C8.93455 16.6995 8.93464 16.707 8.9348 16.7145C8.95052 16.7079 8.96714 16.7006 8.98455 16.6919ZM7.13614 19.6762C7.14174 19.6566 7.14689 19.6386 7.15174 19.6218C7.14329 19.6234 7.13425 19.6253 7.12469 19.6275L7.13614 19.6762ZM7.13614 19.6762L7.18421 19.6899C7.1866 19.6816 7.18889 19.6736 7.19111 19.6658C7.19053 19.6659 7.18994 19.666 7.18936 19.6661C7.1738 19.6686 7.15606 19.6715 7.13614 19.6762ZM8.06602 18.6902L8.10962 18.7147C8.10965 18.7147 8.10968 18.7146 8.1097 18.7146L8.06602 18.6902ZM7.29837 19.6717C7.29946 19.6703 7.30052 19.6689 7.30156 19.6675L7.26088 19.6384L7.29577 19.6742C7.29664 19.6734 7.2975 19.6725 7.29837 19.6717Z" fill="#020304" stroke="black" stroke-width="0.1"/>
<path d="M10.9829 17.7311L11.0233 17.8376C11.0367 17.8728 11.049 17.9012 11.0604 17.9277C11.0667 17.9423 11.0728 17.9563 11.0786 17.9705C11.0941 18.0083 11.1073 18.0459 11.1097 18.0866L11.1097 18.087L11.1097 18.087C11.1173 18.2326 11.1269 18.379 11.1365 18.5258C11.1695 19.0301 11.2029 19.5401 11.1587 20.0468C11.1587 20.0469 11.1587 20.0469 11.1587 20.0469L11.1089 20.0426C11.0866 20.3098 11.0356 20.577 10.9846 20.8442C10.9664 20.9396 10.9482 21.0351 10.9312 21.1305L10.9829 17.7311ZM10.9829 17.7311L10.9319 17.833C10.9137 17.8694 10.8972 17.8992 10.882 17.9266C10.8755 17.9384 10.8692 17.9497 10.8631 17.961C10.8434 17.9976 10.826 18.0328 10.815 18.0724L10.8632 18.0858L10.9829 17.7311Z" fill="#020304" stroke="black" stroke-width="0.1"/>
<path d="M4.86815 16.7146L4.83563 16.6766C4.81341 16.6956 4.79117 16.7147 4.76892 16.7337C4.23567 17.1902 3.69541 17.6528 3.23537 18.1927C3.21424 18.2163 3.1988 18.2433 3.18613 18.2677C3.18119 18.2772 3.17683 18.2859 3.1727 18.2942C3.16523 18.3091 3.1585 18.3226 3.15044 18.3364L3.07931 18.4583L3.21131 18.4084C3.64952 18.2427 3.95998 18.0731 4.23608 17.8458C4.51148 17.6191 4.75059 17.3367 5.04771 16.949L5.0479 16.9487C5.10499 16.8733 5.13936 16.8276 5.15897 16.7777C5.17809 16.7291 5.18251 16.6782 5.18939 16.5989C5.18963 16.5961 5.18988 16.5933 5.19012 16.5905L5.194 16.5459L5.15011 16.5371C5.14874 16.5368 5.14709 16.5365 5.14522 16.5361C5.13698 16.5344 5.12444 16.5318 5.11272 16.5304C5.10074 16.5289 5.07583 16.5266 5.05371 16.5376L5.05367 16.5376L5.05102 16.5391C5.0379 16.5467 5.02424 16.5543 5.01026 16.5622C4.95185 16.595 4.88793 16.6309 4.83524 16.6769L4.86815 16.7146ZM4.86815 16.7146C4.91653 16.6723 4.97458 16.6396 5.03263 16.607C5.04716 16.5988 5.06168 16.5907 5.07606 16.5824L3.22844 18.2947C3.24131 18.2697 3.25506 18.2455 3.27301 18.2256C3.73052 17.6885 4.26824 17.2282 4.80243 16.7709C4.82435 16.7521 4.84626 16.7333 4.86815 16.7146Z" fill="#020304" stroke="black" stroke-width="0.1"/>
<path d="M13.3388 16.9855L13.2975 16.9601L13.2708 17.0007C13.1775 17.1428 13.2234 17.27 13.257 17.3634C13.2574 17.3643 13.2577 17.3652 13.258 17.3661L13.258 17.3662L13.2589 17.3685C13.5031 17.9518 13.8406 18.4707 14.3684 18.848L14.3684 18.848C14.3958 18.8676 14.4339 18.8907 14.4773 18.8899C14.5264 18.889 14.5653 18.8589 14.595 18.811L14.6075 18.7908L14.5997 18.7683C14.4973 18.4726 14.3742 18.1677 14.1724 17.9078L14.1724 17.9078L14.1722 17.9076C13.9814 17.6643 13.782 17.4296 13.5822 17.1944C13.5518 17.1585 13.5213 17.1226 13.4909 17.0867C13.4679 17.0588 13.4387 17.04 13.4126 17.0255C13.4001 17.0186 13.3895 17.0131 13.3795 17.0079C13.3656 17.0007 13.353 16.9942 13.3388 16.9855Z" fill="#020304" stroke="black" stroke-width="0.1"/>
<path d="M6.9347 17.314L6.95537 17.2427L6.8815 17.2504C6.70493 17.2688 6.61154 17.367 6.53636 17.4461C6.52528 17.4578 6.51459 17.469 6.50409 17.4795C6.04573 17.911 5.69911 18.4292 5.39946 18.9749C5.38184 19.0041 5.38238 19.0366 5.38385 19.059C5.38456 19.0699 5.38548 19.0791 5.38635 19.0876C5.38772 19.1011 5.38894 19.1131 5.38894 19.1284V19.2194L5.46574 19.1706C6.15846 18.7308 6.73044 18.0189 6.9347 17.314Z" fill="#020304" stroke="black" stroke-width="0.1"/>
<path d="M14.9986 19.5334L14.9191 19.4928L14.926 19.5818C14.9287 19.6167 14.9283 19.6461 14.9279 19.6743C14.9278 19.6837 14.9277 19.6929 14.9277 19.7021C14.9277 19.7365 14.9292 19.7743 14.9451 19.8095C14.9917 19.9218 15.0497 20.03 15.1154 20.1304L15.1154 20.1304L15.1157 20.1309C15.388 20.5372 15.7333 20.8706 16.1432 21.1348L16.143 21.135L16.1479 21.1375C16.1712 21.1491 16.1963 21.1494 16.2129 21.1489C16.2203 21.1486 16.228 21.1481 16.2349 21.1477C16.2362 21.1476 16.2376 21.1475 16.2389 21.1474C16.247 21.1469 16.2542 21.1465 16.261 21.1465H16.3162L16.3108 21.0916C16.2866 20.848 16.1181 20.5409 15.8807 20.257C15.642 19.9715 15.327 19.7014 14.9986 19.5334Z" fill="#020304" stroke="black" stroke-width="0.1"/>
<path d="M18.5321 17.5969L18.5979 17.6188V17.5494C18.5979 17.5326 18.5988 17.5193 18.5998 17.505C18.6005 17.4955 18.6012 17.4856 18.6016 17.474C18.6026 17.449 18.6021 17.4202 18.5918 17.3908C18.4274 16.7986 17.9289 16.3336 17.2896 16.1787L17.2493 16.1689L17.2323 16.2067C17.1999 16.2784 17.203 16.3446 17.2268 16.403C17.2497 16.459 17.2908 16.5055 17.3303 16.5431L17.3648 16.5068L17.3302 16.543C17.6818 16.8792 18.0372 17.2117 18.3923 17.5439C18.414 17.5653 18.4419 17.5733 18.4623 17.5785C18.4695 17.5804 18.4764 17.582 18.4832 17.5836C18.4987 17.5872 18.5139 17.5908 18.5321 17.5969Z" fill="#020304" stroke="black" stroke-width="0.1"/>
<path d="M16.8584 18.5387L16.9041 18.5279L15.6676 17.2321L15.6252 17.2586L15.6254 17.259L15.6254 17.259C15.8142 17.5609 16.0038 17.8641 16.2087 18.1561L16.2088 18.1562C16.2835 18.2623 16.3986 18.3443 16.4995 18.4163C16.5036 18.4192 16.5076 18.4221 16.5117 18.425L16.5117 18.425L16.5126 18.4256C16.523 18.4327 16.534 18.4409 16.5457 18.4496C16.6164 18.5021 16.7121 18.5733 16.8584 18.5387ZM16.7975 18.4975C16.7035 18.5031 16.6392 18.4559 16.5784 18.4112C16.5658 18.402 16.5533 18.3928 16.5407 18.3843C16.5376 18.382 16.5344 18.3797 16.5312 18.3775C16.4281 18.3039 16.3193 18.2263 16.2497 18.1274L16.7975 18.4975Z" fill="#020304" stroke="black" stroke-width="0.1"/>
<path d="M9.18157 1.63021L9.13064 1.55116L9.09358 1.63758C9.0868 1.65339 9.08025 1.66619 9.07332 1.67975C9.06891 1.68836 9.06434 1.69729 9.05947 1.70748C9.0488 1.72975 9.03661 1.75845 9.03661 1.7895H9.03645L9.03677 1.79351C9.04478 1.89319 9.05046 1.99533 9.05618 2.09828C9.06502 2.25717 9.07396 2.41799 9.09174 2.57473C9.12138 2.83603 9.17621 3.09636 9.2988 3.34528L9.2988 3.34528L9.29894 3.34556C9.30448 3.35663 9.30926 3.3682 9.31487 3.38176C9.31689 3.38665 9.31902 3.39179 9.32133 3.39727C9.32943 3.4165 9.33939 3.4387 9.3529 3.45926C9.36667 3.48019 9.38501 3.50084 9.41069 3.51603C9.43666 3.53139 9.46716 3.5394 9.50241 3.5394H9.53776L9.54955 3.50607C9.63136 3.27474 9.62781 2.94427 9.56139 2.6062C9.49472 2.26681 9.36322 1.91217 9.18157 1.63021Z" fill="#020304" stroke="black" stroke-width="0.1"/>
<path d="M7.86899 6.43325L7.92036 6.402L7.88027 6.35719C7.69784 6.15331 7.4042 5.96923 7.10453 5.84657C6.80616 5.72443 6.49077 5.65868 6.26468 5.70307L6.17391 5.72088L6.23853 5.78706C6.5501 6.10611 6.90167 6.32661 7.31585 6.43879L7.31585 6.43879L7.31654 6.43897C7.33215 6.44296 7.34826 6.44731 7.36481 6.45177C7.51159 6.49138 7.69296 6.54032 7.86899 6.43325Z" fill="#020304" stroke="black" stroke-width="0.1"/>
<path d="M15.2713 4.58013L15.2542 4.64763L15.3236 4.64229C15.5344 4.62609 15.7029 4.54005 15.9044 4.36583L15.9044 4.36584L15.9048 4.36543C16.1458 4.15184 16.3756 3.78756 16.4348 3.49165L16.4524 3.40346L16.3682 3.43502C16.0854 3.54102 15.8822 3.72925 15.6897 3.91413C15.4424 4.1497 15.3346 4.33136 15.2713 4.58013Z" fill="#020304" stroke="black" stroke-width="0.1"/>
<path d="M11.8314 5.33225L11.8586 5.38745L11.907 5.34954C12.0928 5.20423 12.1839 5.03763 12.2685 4.71857L12.2686 4.71846C12.3498 4.40908 12.3512 4.11759 12.2398 3.85516L12.2039 3.77063L12.1524 3.84664C11.9921 4.08313 11.8671 4.31603 11.8122 4.57449L11.8122 4.5746C11.8105 4.58265 11.8088 4.59073 11.8071 4.59886C11.7597 4.82373 11.7061 5.07787 11.8314 5.33225ZM12.2159 3.93146C12.2991 4.16619 12.2936 4.42628 12.2202 4.70575L12.2159 3.93146ZM11.8569 4.60477C11.8583 4.59813 11.8597 4.59149 11.8611 4.58487L11.8552 5.26306C11.7653 5.04021 11.8121 4.81795 11.8569 4.60477Z" fill="#020304" stroke="black" stroke-width="0.1"/>
<path d="M12.5226 2.99079L12.561 3.02281C12.6217 2.95007 12.6734 2.85835 12.709 2.76725L12.7091 2.76718C12.8254 2.46883 12.8484 2.15277 12.8597 1.84747C12.8622 1.82825 12.8549 1.81273 12.8497 1.80431C12.8437 1.79457 12.8361 1.78676 12.8306 1.78155C12.8252 1.77651 12.8194 1.77161 12.815 1.76788C12.8146 1.76758 12.8143 1.76729 12.814 1.767C12.8087 1.76261 12.8057 1.75996 12.8037 1.75794L12.7855 1.73976L12.7601 1.74398C12.7565 1.74458 12.7527 1.74505 12.7477 1.74568C12.7466 1.74581 12.7454 1.74596 12.7442 1.74611C12.738 1.74688 12.7301 1.74791 12.7222 1.74955C12.7146 1.75113 12.7044 1.75379 12.6944 1.75892C12.6851 1.76373 12.6735 1.77199 12.6653 1.7858C12.4827 2.05227 12.3283 2.33712 12.2547 2.66216C12.2353 2.74377 12.2225 2.83693 12.2348 2.92459C12.2378 2.95888 12.2527 2.99611 12.2715 3.02594C12.2894 3.05442 12.3189 3.08873 12.3583 3.09947C12.3953 3.10955 12.4383 3.09875 12.4702 3.08569C12.5035 3.07207 12.5393 3.04994 12.5616 3.02203L12.5226 2.99079ZM12.5226 2.99079C12.4924 3.02856 12.413 3.06256 12.3714 3.05123C12.3298 3.03989 12.2883 2.96812 12.2845 2.91902L12.7683 1.7933C12.7723 1.7973 12.7774 1.80157 12.7826 1.80596C12.7971 1.81815 12.8127 1.8313 12.8099 1.84241C12.7986 2.1484 12.7759 2.45815 12.6625 2.74902C12.6285 2.83591 12.5793 2.92279 12.5226 2.99079Z" fill="#020304" stroke="black" stroke-width="0.1"/>
<path d="M10.0845 5.30639L10.0398 5.32877C10.048 5.34508 10.0615 5.3567 10.0715 5.36391C10.0825 5.37194 10.0951 5.37879 10.1075 5.38405C10.1198 5.38926 10.1337 5.3937 10.1475 5.39571C10.1584 5.39731 10.1793 5.39899 10.1988 5.38829C10.2447 5.36499 10.2938 5.31831 10.3101 5.26411L10.3101 5.26411L10.3103 5.26348C10.3279 5.20189 10.3273 5.13046 10.3234 5.07264L10.3234 5.07254C10.2963 4.67759 10.1569 4.3227 9.95778 3.99331C9.94686 3.97398 9.9286 3.96795 9.92094 3.96594C9.91327 3.96392 9.90454 3.96302 9.89865 3.96241L9.89831 3.96238C9.89665 3.96221 9.89491 3.96203 9.89307 3.96185C9.87939 3.96047 9.86034 3.95855 9.83193 3.95382L9.7752 3.94437L9.77373 4.00186C9.77337 4.01579 9.773 4.02971 9.77264 4.04363C9.76529 4.32223 9.75797 4.59941 9.83213 4.87366M10.0845 5.30639L10.04 5.32922C10.0253 5.30039 10.0097 5.27121 9.994 5.24167C9.93188 5.12497 9.86677 5.00265 9.83213 4.87366M10.0845 5.30639C10.0689 5.27601 10.0529 5.24578 10.0368 5.21559C9.975 5.09938 9.91341 4.98358 9.88041 4.86065M10.0845 5.30639C10.0959 5.32906 10.1563 5.3555 10.1752 5.34417C10.213 5.32528 10.2509 5.28751 10.2622 5.24973L9.8224 4.05359C9.81514 4.33019 9.80913 4.5971 9.88041 4.86065M9.83213 4.87366C9.83213 4.87364 9.83212 4.87363 9.83212 4.87361L9.88041 4.86065M9.83213 4.87366C9.83214 4.87367 9.83214 4.87369 9.83214 4.8737L9.88041 4.86065M9.91443 4.01825C10.111 4.34312 10.2471 4.69065 10.2735 5.07596L9.91443 4.01825Z" fill="#020304" stroke="black" stroke-width="0.1"/>
<path d="M14.6025 5.15909L14.6259 5.10172L14.5649 5.09096C14.5371 5.08606 14.5164 5.08044 14.4994 5.07584C14.4983 5.07553 14.4971 5.07523 14.496 5.07493C14.4877 5.07268 14.4784 5.07018 14.4699 5.06866C14.462 5.06726 14.4488 5.06546 14.4345 5.06903L14.4342 5.06764L14.4235 5.07322C14.0842 5.25047 13.8002 5.49463 13.6093 5.83713C13.5933 5.86518 13.5763 5.90057 13.5736 5.93948C13.5707 5.98182 13.5849 6.02322 13.6213 6.05951L13.6396 6.07781L13.6651 6.07342C13.7745 6.05456 13.851 6.03878 13.9167 6.01312C13.9839 5.98688 14.0377 5.95128 14.1041 5.89661C14.3402 5.70385 14.484 5.44944 14.6025 5.15909Z" fill="#020304" stroke="black" stroke-width="0.1"/>
<path d="M10.6969 22.3431C10.6464 22.6529 10.6613 22.9524 10.8824 23.2612C10.8788 23.2689 10.875 23.2766 10.8712 23.2844L10.9161 23.3064L10.9556 23.2756C10.9503 23.2689 10.9452 23.2622 10.9402 23.2555L10.6969 22.3431ZM10.6969 22.3431C10.6971 22.3416 10.6974 22.3401 10.6976 22.3385M10.6969 22.3431L10.6976 22.3385M10.6976 22.3385C10.7012 22.317 10.7052 22.2927 10.7158 22.2751L10.6976 22.3385ZM10.8767 23.3371L10.9258 23.4001L11.0522 22.7926L11.1022 22.7946C11.1022 22.7944 11.1022 22.7943 11.1022 22.7942C11.11 22.5899 11.0706 22.3972 10.9496 22.2238L10.9496 22.2238L10.9486 22.2224C10.9292 22.1966 10.8994 22.18 10.873 22.1699C10.8457 22.1594 10.8151 22.1533 10.7876 22.1533C10.7661 22.1533 10.7493 22.1636 10.7398 22.1706C10.7293 22.1783 10.7201 22.1879 10.7126 22.1965C10.7 22.2109 10.6878 22.2282 10.6792 22.2403C10.6777 22.2424 10.6763 22.2443 10.6751 22.246L10.675 22.2459L10.6729 22.2494C10.6571 22.2758 10.6516 22.3097 10.6484 22.3295C10.6481 22.3315 10.6478 22.3332 10.6476 22.3349L10.6476 22.3349L10.6475 22.3351C10.5932 22.6686 10.6121 22.9978 10.8767 23.3371Z" fill="#020304" stroke="black" stroke-width="0.1"/>
<path d="M4.17839 4.7921L4.05517 4.77784L4.13405 4.87356C4.29838 5.07297 4.59968 5.29636 4.8853 5.42371C4.89914 5.4301 4.91318 5.43674 4.92745 5.44349C5.05988 5.50612 5.21195 5.57805 5.40319 5.54057L5.45661 5.5301L5.44165 5.47776C5.39126 5.30151 5.27293 5.20196 5.14191 5.13047C4.85152 4.96631 4.54641 4.83468 4.17839 4.7921Z" fill="#020304" stroke="black" stroke-width="0.1"/>
<path d="M6.42173 20.4657L6.39021 20.4268C6.29248 20.5062 6.19712 20.6352 6.11768 20.778C6.03787 20.9216 5.97185 21.0834 5.93475 21.2317L5.91427 21.3136L5.99591 21.2922C6.17047 21.2465 6.33019 21.1153 6.4954 20.9003L6.4954 20.9003L6.49588 20.8997C6.59437 20.7672 6.70081 20.6206 6.67168 20.3877L6.6639 20.3255L6.60499 20.3469C6.57701 20.3571 6.55157 20.3637 6.52573 20.3704C6.51539 20.3731 6.505 20.3758 6.49435 20.3788C6.45972 20.3884 6.42127 20.401 6.38974 20.4272L6.42173 20.4657ZM6.42173 20.4657C6.45054 20.4417 6.49002 20.4314 6.5363 20.4193C6.54828 20.4162 6.56072 20.413 6.57354 20.4094C6.57321 20.4063 6.57285 20.4032 6.57246 20.4001L6.62207 20.3939L6.63915 20.4409C6.63484 20.4425 6.63053 20.444 6.62624 20.4454C6.63268 20.6276 6.5458 20.7487 6.45575 20.8699C6.31259 21.0562 6.17822 21.1722 6.03974 21.2256C6.03694 21.2358 6.03427 21.2459 6.03176 21.256L5.98325 21.2438L5.97059 21.1955C5.97995 21.193 5.98931 21.1903 5.99867 21.1872C6.07915 20.9129 6.25209 20.6034 6.42173 20.4657Z" fill="#020304" stroke="black" stroke-width="0.1"/>
<path d="M17.2337 19.06L17.1527 19.0243L17.164 19.1122C17.2002 19.3936 17.3389 19.5396 17.4685 19.673C17.5366 19.7449 17.5954 19.795 17.667 19.8347C17.7381 19.874 17.8193 19.9017 17.9298 19.9321L18.0158 19.9558L17.9912 19.8701C17.8765 19.4712 17.6295 19.2345 17.2337 19.06Z" fill="#020304" stroke="black" stroke-width="0.1"/>
<path d="M4.444 20.2163L4.41123 20.2687L4.46931 20.2898C4.48402 20.2952 4.49551 20.3016 4.50771 20.3084C4.50904 20.3091 4.51038 20.3099 4.51173 20.3106C4.5178 20.314 4.52644 20.3187 4.53534 20.3221C4.54407 20.3253 4.55973 20.3299 4.57788 20.3253L4.57794 20.3256L4.58257 20.3239C4.80581 20.2442 4.97431 20.1 5.08606 19.8926L5.08608 19.8926L5.08676 19.8912C5.10277 19.8592 5.09658 19.8232 5.09264 19.8017C5.09125 19.7942 5.08984 19.7872 5.08847 19.7804C5.08493 19.7629 5.08178 19.7472 5.0806 19.7295L5.07648 19.6678L5.01698 19.6848C4.72186 19.769 4.58932 19.9824 4.46574 20.1814C4.45847 20.1931 4.45124 20.2047 4.444 20.2163Z" fill="#020304" stroke="black" stroke-width="0.1"/>
</svg>
