<svg width="14" height="28" viewBox="0 0 14 28" fill="none" xmlns="http://www.w3.org/2000/svg">
<mask id="path-1-outside-1_2_5538" maskUnits="userSpaceOnUse" x="0" y="5.97607" width="14" height="22" fill="black">
<rect fill="white" y="5.97607" width="14" height="22"/>
<path d="M7.5725 26.5022C7.51202 26.6004 7.46288 26.6911 7.40618 26.778C7.14536 27.1821 6.77871 27.3824 6.28353 27.3446C6.00003 27.3219 5.71275 27.3257 5.42547 27.3295C5.07393 27.3333 4.72617 27.3144 4.38976 27.2048C4.37086 27.1973 4.34818 27.1973 4.32928 27.1897C3.69046 26.9819 3.07433 27.0688 2.47709 27.3484C2.28431 27.4352 2.08775 27.507 1.88741 27.5826C1.45272 27.7412 0.957541 27.4352 1.0029 26.8384C1.01424 26.676 1.07472 26.5097 1.14654 26.3624C1.22592 26.1924 1.33176 26.0338 1.4376 25.8789C1.67573 25.52 1.91765 25.1649 2.16713 24.8136C2.37881 24.5114 2.48842 24.179 2.50732 23.8164C2.53378 23.3442 2.62451 22.8871 2.74169 22.43C2.82863 22.0976 2.90423 21.7576 2.94959 21.4176C3.01385 20.9492 2.96093 20.4808 2.86643 20.0162C2.82485 19.8235 2.79839 19.6271 2.76059 19.4306C2.68121 18.9811 2.70766 18.5316 2.77948 18.0896C2.9647 16.9337 2.93069 15.7777 2.83241 14.618C2.82107 14.4632 2.79083 14.3083 2.77193 14.1534C2.74169 13.9003 2.8513 13.7114 3.05164 13.5603C3.3616 13.3337 3.70937 13.2695 4.07602 13.3488C4.35952 13.4092 4.64301 13.4243 4.93029 13.4281C5.16087 13.4319 5.39523 13.4432 5.64093 13.4508C5.65605 13.3752 5.67495 13.3186 5.67495 13.2581C5.67873 13.0806 5.67495 12.903 5.67495 12.7142C5.64471 12.6953 5.61448 12.6688 5.57668 12.6537C4.9492 12.412 4.67326 11.9284 4.60522 11.3014C4.56742 10.9463 4.61278 10.5912 4.7035 10.2474C4.85848 9.67323 5.01346 9.09904 5.16088 8.52108C5.27805 8.064 5.38011 7.60692 5.48973 7.14984C5.50107 7.10451 5.52753 7.05917 5.56155 6.97607C5.61447 7.06295 5.64849 7.10829 5.67117 7.16117C5.76189 7.38405 5.85261 7.60692 5.93955 7.83358C6.12477 8.31332 6.33645 8.78173 6.62751 9.2086C6.90345 9.62035 7.03952 10.0737 7.09244 10.5572C7.13024 10.8934 7.14914 11.2258 7.0811 11.5545C7.05086 11.7056 7.00928 11.8604 6.95258 12.004C6.80894 12.3553 6.54812 12.5857 6.18146 12.6991C6.13232 12.7142 6.07941 12.7217 6.01893 12.7368C6.00759 12.9559 5.98113 13.1712 6.03783 13.379C6.15879 13.4281 6.26084 13.3866 6.35912 13.3488C6.7787 13.1939 7.1756 13.005 7.48934 12.6726C7.71614 12.4308 7.9883 12.242 8.32471 12.1853C8.49859 12.1551 8.68382 12.1437 8.86148 12.1589C9.06938 12.1777 9.20923 12.2949 9.25081 12.5102C9.27349 12.6424 9.31507 12.7746 9.34531 12.9068C9.40201 13.1524 9.43603 13.3979 9.43225 13.651C9.42846 14.195 9.43603 14.7389 9.43981 15.2791C9.43981 15.3924 9.44737 15.5095 9.43981 15.6229C9.39067 16.7826 9.44359 17.9423 9.45871 19.102C9.46627 19.7593 9.47383 20.4203 9.55699 21.0739C9.62125 21.5914 9.78757 22.0711 10.124 22.4829C10.4037 22.8229 10.5965 23.2006 10.6834 23.6275C10.7817 24.145 11.1181 24.5001 11.5226 24.8061C11.6549 24.9081 11.8023 24.9987 11.9422 25.0856C12.3958 25.3727 12.6868 25.792 12.9363 26.2453C12.9514 26.2718 12.9627 26.302 12.9741 26.3322C13.0686 26.6042 12.9552 26.8384 12.6792 26.9328C12.5394 26.9782 12.3882 27.0084 12.2408 26.9744C12.0669 26.9366 11.8892 26.8988 11.7191 26.8459C11.5679 26.8006 11.4243 26.7288 11.2769 26.6684C11.1181 26.608 10.9631 26.5475 10.8006 26.4909C10.4339 26.3662 10.0711 26.3775 9.70819 26.506C9.51919 26.574 9.33397 26.6533 9.14875 26.7288C8.79721 26.8724 8.44567 26.8686 8.09791 26.7251C7.93159 26.6533 7.75772 26.5815 7.5725 26.5022ZM7.94672 25.3614C7.9505 25.5503 7.84466 25.6787 7.80308 25.8222C7.75772 25.9809 7.67455 26.1282 7.65944 26.302C7.81819 26.3926 7.99208 26.3964 8.15084 26.4455C8.48348 26.5437 8.79721 26.5022 9.10717 26.3511C9.29617 26.2567 9.49273 26.1811 9.69306 26.1093C10.0408 25.9847 10.3961 25.9544 10.7552 26.0527C10.9896 26.1169 11.2202 26.2 11.447 26.2793C11.6171 26.3398 11.7796 26.4191 11.9497 26.4758C12.1198 26.5362 12.2975 26.5815 12.4789 26.5551C12.528 26.5475 12.5696 26.5173 12.615 26.4984C12.494 26.1207 12.1614 25.6862 11.8212 25.452C11.6549 25.3387 11.481 25.2367 11.3185 25.1196C10.7855 24.7381 10.3886 24.2659 10.2752 23.6048C10.2676 23.5633 10.2525 23.5255 10.2412 23.4839C10.1882 23.2686 10.09 23.0722 9.95767 22.8946C9.90097 22.8191 9.84426 22.7435 9.78756 22.668C9.46627 22.2525 9.27727 21.7803 9.19033 21.2665C9.10339 20.7377 9.08071 20.205 9.08449 19.6724C9.09205 18.3351 8.97109 16.9979 9.04669 15.6606C9.05047 15.5889 9.04669 15.5133 9.04669 15.4415C9.03535 14.8258 9.02401 14.2101 9.01267 13.5943C9.01267 13.549 9.03536 13.4886 8.95598 13.447C8.88794 13.5301 8.81611 13.617 8.74429 13.7039C8.49481 14.0023 8.18108 14.2138 7.79552 14.2969C7.66322 14.3272 7.52336 14.3309 7.38728 14.3423C7.1189 14.3612 6.86564 14.4254 6.6464 14.5916C6.60482 14.6218 6.55946 14.652 6.5141 14.6785C6.11342 14.9429 5.69007 14.9807 5.24404 14.7918C5.09662 14.7314 4.95297 14.6634 4.80177 14.618C4.43512 14.5085 4.07224 14.4896 3.73204 14.7087C3.69802 14.7314 3.66022 14.754 3.61864 14.7654C3.57328 14.7805 3.53549 14.8371 3.47501 14.7843C3.47501 14.7578 3.47122 14.7238 3.48256 14.6974C3.55816 14.4896 3.70558 14.3498 3.91348 14.2667C4.29903 14.1156 4.69216 14.0741 5.10039 14.161C5.19489 14.1798 5.28561 14.1987 5.38011 14.2138C5.48217 14.229 5.58045 14.2705 5.69763 14.2365C5.72409 14.0967 5.73543 13.9683 5.68251 13.8323C5.59557 13.8285 5.52375 13.8248 5.45193 13.821C4.94541 13.7983 4.43512 13.8361 3.93238 13.7077C3.72448 13.6548 3.50902 13.7077 3.3238 13.8248C3.11212 13.957 2.98739 14.1345 3.03275 14.3989C3.07055 14.6256 3.09701 14.8523 3.13103 15.0827C3.28601 16.08 3.34271 17.0772 3.20285 18.0783C3.12347 18.6525 3.14992 19.2229 3.2671 19.7933C3.33892 20.1408 3.3805 20.4959 3.40696 20.8472C3.44476 21.3836 3.32759 21.9087 3.19151 22.4224C3.07055 22.8795 2.97982 23.3366 2.95714 23.8088C2.93824 24.2772 2.79461 24.7079 2.51868 25.0969C2.2692 25.4483 2.03105 25.8071 1.78913 26.1622C1.67195 26.336 1.54344 26.506 1.48674 26.71C1.46028 26.7968 1.44893 26.8951 1.46027 26.9857C1.47917 27.1293 1.59635 27.201 1.73999 27.1708C1.85339 27.1444 1.96302 27.099 2.06886 27.0575C2.23518 26.9895 2.39393 26.9064 2.56403 26.8422C3.06677 26.6457 3.58463 26.5664 4.12138 26.6835C4.26502 26.7137 4.40865 26.7515 4.55229 26.7893C4.76775 26.8422 4.987 26.8799 5.21002 26.8799C5.60313 26.8799 5.99625 26.8837 6.38558 26.8951C6.64262 26.9026 6.84297 26.8082 6.98283 26.6004C7.06977 26.472 7.14915 26.3322 7.20584 26.1849C7.33058 25.8562 7.54604 25.6107 7.82576 25.4105C7.84466 25.3992 7.88246 25.3916 7.94672 25.3614ZM6.45362 11.5885C6.61238 11.63 6.61238 11.63 6.63506 11.6036C6.71066 11.5242 6.75981 11.4374 6.76737 11.3278C6.80139 10.629 6.72956 9.95277 6.33644 9.34081C6.05294 8.89884 5.83371 8.42287 5.65227 7.92801C5.63337 7.87891 5.61448 7.83357 5.57668 7.74669C5.53888 7.83735 5.50485 7.89023 5.49729 7.94312C5.39145 8.48708 5.29318 9.03105 5.18734 9.57502C5.11552 9.94522 5.02858 10.3116 4.96054 10.6781C4.90762 10.9576 4.93029 11.2409 5.00211 11.5167C5.06637 11.7622 5.17978 11.9889 5.39902 12.14C5.42548 12.1589 5.46327 12.1664 5.51997 12.1891C5.50485 12.1173 5.50107 12.0758 5.48595 12.038C5.38389 11.7622 5.3839 11.4827 5.44816 11.2031C5.4973 10.9954 5.50485 10.7914 5.51241 10.5798C5.51997 10.3834 5.54265 10.1832 5.56155 9.98677C5.56533 9.96033 5.58045 9.93389 5.59179 9.89611C5.62203 9.92255 5.65983 9.93389 5.66361 9.95655C5.79591 10.3683 5.87907 10.7876 5.75055 11.2183C5.72787 11.2976 5.70897 11.3807 5.69763 11.4638C5.67117 11.6451 5.6863 11.7471 5.75433 11.9095C5.77323 11.902 5.79968 11.8982 5.80346 11.8831C6.0983 11.2636 6.18902 10.629 5.93577 9.97167C5.90553 9.89234 5.87151 9.81678 5.84505 9.73745C5.75433 9.46169 5.72409 9.17837 5.75433 8.8875C5.82993 8.88373 5.84127 8.93284 5.85639 8.96684C5.97735 9.26904 6.09075 9.57124 6.21171 9.87345C6.48009 10.5383 6.40827 11.1805 6.10965 11.8151C6.06807 11.902 6.02271 11.9813 5.98491 12.0682C5.96979 12.0984 5.97357 12.1362 5.95845 12.2306C6.15122 11.9889 6.30242 11.7924 6.45362 11.5885ZM9.03535 12.5442C8.91061 12.5215 8.84257 12.4988 8.77075 12.4951C8.37385 12.4837 8.05633 12.6575 7.79174 12.9333C7.34948 13.3979 6.80138 13.6699 6.17391 13.7945C6.15501 13.7983 6.13989 13.8172 6.10209 13.8512C6.12099 13.9759 6.09075 14.1156 6.14367 14.2592C6.29865 14.2629 6.42338 14.2025 6.53678 14.1307C6.7598 13.9947 7.0055 13.9419 7.26254 13.9456C7.3457 13.9456 7.43263 13.9494 7.51579 13.9494C7.74637 13.9532 7.95428 13.8776 8.12816 13.7303C8.22266 13.651 8.31715 13.5603 8.39275 13.4621C8.60443 13.1788 8.80099 12.8842 9.03535 12.5442Z"/>
</mask>
<path d="M7.5725 26.5022C7.51202 26.6004 7.46288 26.6911 7.40618 26.778C7.14536 27.1821 6.77871 27.3824 6.28353 27.3446C6.00003 27.3219 5.71275 27.3257 5.42547 27.3295C5.07393 27.3333 4.72617 27.3144 4.38976 27.2048C4.37086 27.1973 4.34818 27.1973 4.32928 27.1897C3.69046 26.9819 3.07433 27.0688 2.47709 27.3484C2.28431 27.4352 2.08775 27.507 1.88741 27.5826C1.45272 27.7412 0.957541 27.4352 1.0029 26.8384C1.01424 26.676 1.07472 26.5097 1.14654 26.3624C1.22592 26.1924 1.33176 26.0338 1.4376 25.8789C1.67573 25.52 1.91765 25.1649 2.16713 24.8136C2.37881 24.5114 2.48842 24.179 2.50732 23.8164C2.53378 23.3442 2.62451 22.8871 2.74169 22.43C2.82863 22.0976 2.90423 21.7576 2.94959 21.4176C3.01385 20.9492 2.96093 20.4808 2.86643 20.0162C2.82485 19.8235 2.79839 19.6271 2.76059 19.4306C2.68121 18.9811 2.70766 18.5316 2.77948 18.0896C2.9647 16.9337 2.93069 15.7777 2.83241 14.618C2.82107 14.4632 2.79083 14.3083 2.77193 14.1534C2.74169 13.9003 2.8513 13.7114 3.05164 13.5603C3.3616 13.3337 3.70937 13.2695 4.07602 13.3488C4.35952 13.4092 4.64301 13.4243 4.93029 13.4281C5.16087 13.4319 5.39523 13.4432 5.64093 13.4508C5.65605 13.3752 5.67495 13.3186 5.67495 13.2581C5.67873 13.0806 5.67495 12.903 5.67495 12.7142C5.64471 12.6953 5.61448 12.6688 5.57668 12.6537C4.9492 12.412 4.67326 11.9284 4.60522 11.3014C4.56742 10.9463 4.61278 10.5912 4.7035 10.2474C4.85848 9.67323 5.01346 9.09904 5.16088 8.52108C5.27805 8.064 5.38011 7.60692 5.48973 7.14984C5.50107 7.10451 5.52753 7.05917 5.56155 6.97607C5.61447 7.06295 5.64849 7.10829 5.67117 7.16117C5.76189 7.38405 5.85261 7.60692 5.93955 7.83358C6.12477 8.31332 6.33645 8.78173 6.62751 9.2086C6.90345 9.62035 7.03952 10.0737 7.09244 10.5572C7.13024 10.8934 7.14914 11.2258 7.0811 11.5545C7.05086 11.7056 7.00928 11.8604 6.95258 12.004C6.80894 12.3553 6.54812 12.5857 6.18146 12.6991C6.13232 12.7142 6.07941 12.7217 6.01893 12.7368C6.00759 12.9559 5.98113 13.1712 6.03783 13.379C6.15879 13.4281 6.26084 13.3866 6.35912 13.3488C6.7787 13.1939 7.1756 13.005 7.48934 12.6726C7.71614 12.4308 7.9883 12.242 8.32471 12.1853C8.49859 12.1551 8.68382 12.1437 8.86148 12.1589C9.06938 12.1777 9.20923 12.2949 9.25081 12.5102C9.27349 12.6424 9.31507 12.7746 9.34531 12.9068C9.40201 13.1524 9.43603 13.3979 9.43225 13.651C9.42846 14.195 9.43603 14.7389 9.43981 15.2791C9.43981 15.3924 9.44737 15.5095 9.43981 15.6229C9.39067 16.7826 9.44359 17.9423 9.45871 19.102C9.46627 19.7593 9.47383 20.4203 9.55699 21.0739C9.62125 21.5914 9.78757 22.0711 10.124 22.4829C10.4037 22.8229 10.5965 23.2006 10.6834 23.6275C10.7817 24.145 11.1181 24.5001 11.5226 24.8061C11.6549 24.9081 11.8023 24.9987 11.9422 25.0856C12.3958 25.3727 12.6868 25.792 12.9363 26.2453C12.9514 26.2718 12.9627 26.302 12.9741 26.3322C13.0686 26.6042 12.9552 26.8384 12.6792 26.9328C12.5394 26.9782 12.3882 27.0084 12.2408 26.9744C12.0669 26.9366 11.8892 26.8988 11.7191 26.8459C11.5679 26.8006 11.4243 26.7288 11.2769 26.6684C11.1181 26.608 10.9631 26.5475 10.8006 26.4909C10.4339 26.3662 10.0711 26.3775 9.70819 26.506C9.51919 26.574 9.33397 26.6533 9.14875 26.7288C8.79721 26.8724 8.44567 26.8686 8.09791 26.7251C7.93159 26.6533 7.75772 26.5815 7.5725 26.5022ZM7.94672 25.3614C7.9505 25.5503 7.84466 25.6787 7.80308 25.8222C7.75772 25.9809 7.67455 26.1282 7.65944 26.302C7.81819 26.3926 7.99208 26.3964 8.15084 26.4455C8.48348 26.5437 8.79721 26.5022 9.10717 26.3511C9.29617 26.2567 9.49273 26.1811 9.69306 26.1093C10.0408 25.9847 10.3961 25.9544 10.7552 26.0527C10.9896 26.1169 11.2202 26.2 11.447 26.2793C11.6171 26.3398 11.7796 26.4191 11.9497 26.4758C12.1198 26.5362 12.2975 26.5815 12.4789 26.5551C12.528 26.5475 12.5696 26.5173 12.615 26.4984C12.494 26.1207 12.1614 25.6862 11.8212 25.452C11.6549 25.3387 11.481 25.2367 11.3185 25.1196C10.7855 24.7381 10.3886 24.2659 10.2752 23.6048C10.2676 23.5633 10.2525 23.5255 10.2412 23.4839C10.1882 23.2686 10.09 23.0722 9.95767 22.8946C9.90097 22.8191 9.84426 22.7435 9.78756 22.668C9.46627 22.2525 9.27727 21.7803 9.19033 21.2665C9.10339 20.7377 9.08071 20.205 9.08449 19.6724C9.09205 18.3351 8.97109 16.9979 9.04669 15.6606C9.05047 15.5889 9.04669 15.5133 9.04669 15.4415C9.03535 14.8258 9.02401 14.2101 9.01267 13.5943C9.01267 13.549 9.03536 13.4886 8.95598 13.447C8.88794 13.5301 8.81611 13.617 8.74429 13.7039C8.49481 14.0023 8.18108 14.2138 7.79552 14.2969C7.66322 14.3272 7.52336 14.3309 7.38728 14.3423C7.1189 14.3612 6.86564 14.4254 6.6464 14.5916C6.60482 14.6218 6.55946 14.652 6.5141 14.6785C6.11342 14.9429 5.69007 14.9807 5.24404 14.7918C5.09662 14.7314 4.95297 14.6634 4.80177 14.618C4.43512 14.5085 4.07224 14.4896 3.73204 14.7087C3.69802 14.7314 3.66022 14.754 3.61864 14.7654C3.57328 14.7805 3.53549 14.8371 3.47501 14.7843C3.47501 14.7578 3.47122 14.7238 3.48256 14.6974C3.55816 14.4896 3.70558 14.3498 3.91348 14.2667C4.29903 14.1156 4.69216 14.0741 5.10039 14.161C5.19489 14.1798 5.28561 14.1987 5.38011 14.2138C5.48217 14.229 5.58045 14.2705 5.69763 14.2365C5.72409 14.0967 5.73543 13.9683 5.68251 13.8323C5.59557 13.8285 5.52375 13.8248 5.45193 13.821C4.94541 13.7983 4.43512 13.8361 3.93238 13.7077C3.72448 13.6548 3.50902 13.7077 3.3238 13.8248C3.11212 13.957 2.98739 14.1345 3.03275 14.3989C3.07055 14.6256 3.09701 14.8523 3.13103 15.0827C3.28601 16.08 3.34271 17.0772 3.20285 18.0783C3.12347 18.6525 3.14992 19.2229 3.2671 19.7933C3.33892 20.1408 3.3805 20.4959 3.40696 20.8472C3.44476 21.3836 3.32759 21.9087 3.19151 22.4224C3.07055 22.8795 2.97982 23.3366 2.95714 23.8088C2.93824 24.2772 2.79461 24.7079 2.51868 25.0969C2.2692 25.4483 2.03105 25.8071 1.78913 26.1622C1.67195 26.336 1.54344 26.506 1.48674 26.71C1.46028 26.7968 1.44893 26.8951 1.46027 26.9857C1.47917 27.1293 1.59635 27.201 1.73999 27.1708C1.85339 27.1444 1.96302 27.099 2.06886 27.0575C2.23518 26.9895 2.39393 26.9064 2.56403 26.8422C3.06677 26.6457 3.58463 26.5664 4.12138 26.6835C4.26502 26.7137 4.40865 26.7515 4.55229 26.7893C4.76775 26.8422 4.987 26.8799 5.21002 26.8799C5.60313 26.8799 5.99625 26.8837 6.38558 26.8951C6.64262 26.9026 6.84297 26.8082 6.98283 26.6004C7.06977 26.472 7.14915 26.3322 7.20584 26.1849C7.33058 25.8562 7.54604 25.6107 7.82576 25.4105C7.84466 25.3992 7.88246 25.3916 7.94672 25.3614ZM6.45362 11.5885C6.61238 11.63 6.61238 11.63 6.63506 11.6036C6.71066 11.5242 6.75981 11.4374 6.76737 11.3278C6.80139 10.629 6.72956 9.95277 6.33644 9.34081C6.05294 8.89884 5.83371 8.42287 5.65227 7.92801C5.63337 7.87891 5.61448 7.83357 5.57668 7.74669C5.53888 7.83735 5.50485 7.89023 5.49729 7.94312C5.39145 8.48708 5.29318 9.03105 5.18734 9.57502C5.11552 9.94522 5.02858 10.3116 4.96054 10.6781C4.90762 10.9576 4.93029 11.2409 5.00211 11.5167C5.06637 11.7622 5.17978 11.9889 5.39902 12.14C5.42548 12.1589 5.46327 12.1664 5.51997 12.1891C5.50485 12.1173 5.50107 12.0758 5.48595 12.038C5.38389 11.7622 5.3839 11.4827 5.44816 11.2031C5.4973 10.9954 5.50485 10.7914 5.51241 10.5798C5.51997 10.3834 5.54265 10.1832 5.56155 9.98677C5.56533 9.96033 5.58045 9.93389 5.59179 9.89611C5.62203 9.92255 5.65983 9.93389 5.66361 9.95655C5.79591 10.3683 5.87907 10.7876 5.75055 11.2183C5.72787 11.2976 5.70897 11.3807 5.69763 11.4638C5.67117 11.6451 5.6863 11.7471 5.75433 11.9095C5.77323 11.902 5.79968 11.8982 5.80346 11.8831C6.0983 11.2636 6.18902 10.629 5.93577 9.97167C5.90553 9.89234 5.87151 9.81678 5.84505 9.73745C5.75433 9.46169 5.72409 9.17837 5.75433 8.8875C5.82993 8.88373 5.84127 8.93284 5.85639 8.96684C5.97735 9.26904 6.09075 9.57124 6.21171 9.87345C6.48009 10.5383 6.40827 11.1805 6.10965 11.8151C6.06807 11.902 6.02271 11.9813 5.98491 12.0682C5.96979 12.0984 5.97357 12.1362 5.95845 12.2306C6.15122 11.9889 6.30242 11.7924 6.45362 11.5885ZM9.03535 12.5442C8.91061 12.5215 8.84257 12.4988 8.77075 12.4951C8.37385 12.4837 8.05633 12.6575 7.79174 12.9333C7.34948 13.3979 6.80138 13.6699 6.17391 13.7945C6.15501 13.7983 6.13989 13.8172 6.10209 13.8512C6.12099 13.9759 6.09075 14.1156 6.14367 14.2592C6.29865 14.2629 6.42338 14.2025 6.53678 14.1307C6.7598 13.9947 7.0055 13.9419 7.26254 13.9456C7.3457 13.9456 7.43263 13.9494 7.51579 13.9494C7.74637 13.9532 7.95428 13.8776 8.12816 13.7303C8.22266 13.651 8.31715 13.5603 8.39275 13.4621C8.60443 13.1788 8.80099 12.8842 9.03535 12.5442Z" fill="#020304"/>
<path d="M7.5725 26.5022C7.51202 26.6004 7.46288 26.6911 7.40618 26.778C7.14536 27.1821 6.77871 27.3824 6.28353 27.3446C6.00003 27.3219 5.71275 27.3257 5.42547 27.3295C5.07393 27.3333 4.72617 27.3144 4.38976 27.2048C4.37086 27.1973 4.34818 27.1973 4.32928 27.1897C3.69046 26.9819 3.07433 27.0688 2.47709 27.3484C2.28431 27.4352 2.08775 27.507 1.88741 27.5826C1.45272 27.7412 0.957541 27.4352 1.0029 26.8384C1.01424 26.676 1.07472 26.5097 1.14654 26.3624C1.22592 26.1924 1.33176 26.0338 1.4376 25.8789C1.67573 25.52 1.91765 25.1649 2.16713 24.8136C2.37881 24.5114 2.48842 24.179 2.50732 23.8164C2.53378 23.3442 2.62451 22.8871 2.74169 22.43C2.82863 22.0976 2.90423 21.7576 2.94959 21.4176C3.01385 20.9492 2.96093 20.4808 2.86643 20.0162C2.82485 19.8235 2.79839 19.6271 2.76059 19.4306C2.68121 18.9811 2.70766 18.5316 2.77948 18.0896C2.9647 16.9337 2.93069 15.7777 2.83241 14.618C2.82107 14.4632 2.79083 14.3083 2.77193 14.1534C2.74169 13.9003 2.8513 13.7114 3.05164 13.5603C3.3616 13.3337 3.70937 13.2695 4.07602 13.3488C4.35952 13.4092 4.64301 13.4243 4.93029 13.4281C5.16087 13.4319 5.39523 13.4432 5.64093 13.4508C5.65605 13.3752 5.67495 13.3186 5.67495 13.2581C5.67873 13.0806 5.67495 12.903 5.67495 12.7142C5.64471 12.6953 5.61448 12.6688 5.57668 12.6537C4.9492 12.412 4.67326 11.9284 4.60522 11.3014C4.56742 10.9463 4.61278 10.5912 4.7035 10.2474C4.85848 9.67323 5.01346 9.09904 5.16088 8.52108C5.27805 8.064 5.38011 7.60692 5.48973 7.14984C5.50107 7.10451 5.52753 7.05917 5.56155 6.97607C5.61447 7.06295 5.64849 7.10829 5.67117 7.16117C5.76189 7.38405 5.85261 7.60692 5.93955 7.83358C6.12477 8.31332 6.33645 8.78173 6.62751 9.2086C6.90345 9.62035 7.03952 10.0737 7.09244 10.5572C7.13024 10.8934 7.14914 11.2258 7.0811 11.5545C7.05086 11.7056 7.00928 11.8604 6.95258 12.004C6.80894 12.3553 6.54812 12.5857 6.18146 12.6991C6.13232 12.7142 6.07941 12.7217 6.01893 12.7368C6.00759 12.9559 5.98113 13.1712 6.03783 13.379C6.15879 13.4281 6.26084 13.3866 6.35912 13.3488C6.7787 13.1939 7.1756 13.005 7.48934 12.6726C7.71614 12.4308 7.9883 12.242 8.32471 12.1853C8.49859 12.1551 8.68382 12.1437 8.86148 12.1589C9.06938 12.1777 9.20923 12.2949 9.25081 12.5102C9.27349 12.6424 9.31507 12.7746 9.34531 12.9068C9.40201 13.1524 9.43603 13.3979 9.43225 13.651C9.42846 14.195 9.43603 14.7389 9.43981 15.2791C9.43981 15.3924 9.44737 15.5095 9.43981 15.6229C9.39067 16.7826 9.44359 17.9423 9.45871 19.102C9.46627 19.7593 9.47383 20.4203 9.55699 21.0739C9.62125 21.5914 9.78757 22.0711 10.124 22.4829C10.4037 22.8229 10.5965 23.2006 10.6834 23.6275C10.7817 24.145 11.1181 24.5001 11.5226 24.8061C11.6549 24.9081 11.8023 24.9987 11.9422 25.0856C12.3958 25.3727 12.6868 25.792 12.9363 26.2453C12.9514 26.2718 12.9627 26.302 12.9741 26.3322C13.0686 26.6042 12.9552 26.8384 12.6792 26.9328C12.5394 26.9782 12.3882 27.0084 12.2408 26.9744C12.0669 26.9366 11.8892 26.8988 11.7191 26.8459C11.5679 26.8006 11.4243 26.7288 11.2769 26.6684C11.1181 26.608 10.9631 26.5475 10.8006 26.4909C10.4339 26.3662 10.0711 26.3775 9.70819 26.506C9.51919 26.574 9.33397 26.6533 9.14875 26.7288C8.79721 26.8724 8.44567 26.8686 8.09791 26.7251C7.93159 26.6533 7.75772 26.5815 7.5725 26.5022ZM7.94672 25.3614C7.9505 25.5503 7.84466 25.6787 7.80308 25.8222C7.75772 25.9809 7.67455 26.1282 7.65944 26.302C7.81819 26.3926 7.99208 26.3964 8.15084 26.4455C8.48348 26.5437 8.79721 26.5022 9.10717 26.3511C9.29617 26.2567 9.49273 26.1811 9.69306 26.1093C10.0408 25.9847 10.3961 25.9544 10.7552 26.0527C10.9896 26.1169 11.2202 26.2 11.447 26.2793C11.6171 26.3398 11.7796 26.4191 11.9497 26.4758C12.1198 26.5362 12.2975 26.5815 12.4789 26.5551C12.528 26.5475 12.5696 26.5173 12.615 26.4984C12.494 26.1207 12.1614 25.6862 11.8212 25.452C11.6549 25.3387 11.481 25.2367 11.3185 25.1196C10.7855 24.7381 10.3886 24.2659 10.2752 23.6048C10.2676 23.5633 10.2525 23.5255 10.2412 23.4839C10.1882 23.2686 10.09 23.0722 9.95767 22.8946C9.90097 22.8191 9.84426 22.7435 9.78756 22.668C9.46627 22.2525 9.27727 21.7803 9.19033 21.2665C9.10339 20.7377 9.08071 20.205 9.08449 19.6724C9.09205 18.3351 8.97109 16.9979 9.04669 15.6606C9.05047 15.5889 9.04669 15.5133 9.04669 15.4415C9.03535 14.8258 9.02401 14.2101 9.01267 13.5943C9.01267 13.549 9.03536 13.4886 8.95598 13.447C8.88794 13.5301 8.81611 13.617 8.74429 13.7039C8.49481 14.0023 8.18108 14.2138 7.79552 14.2969C7.66322 14.3272 7.52336 14.3309 7.38728 14.3423C7.1189 14.3612 6.86564 14.4254 6.6464 14.5916C6.60482 14.6218 6.55946 14.652 6.5141 14.6785C6.11342 14.9429 5.69007 14.9807 5.24404 14.7918C5.09662 14.7314 4.95297 14.6634 4.80177 14.618C4.43512 14.5085 4.07224 14.4896 3.73204 14.7087C3.69802 14.7314 3.66022 14.754 3.61864 14.7654C3.57328 14.7805 3.53549 14.8371 3.47501 14.7843C3.47501 14.7578 3.47122 14.7238 3.48256 14.6974C3.55816 14.4896 3.70558 14.3498 3.91348 14.2667C4.29903 14.1156 4.69216 14.0741 5.10039 14.161C5.19489 14.1798 5.28561 14.1987 5.38011 14.2138C5.48217 14.229 5.58045 14.2705 5.69763 14.2365C5.72409 14.0967 5.73543 13.9683 5.68251 13.8323C5.59557 13.8285 5.52375 13.8248 5.45193 13.821C4.94541 13.7983 4.43512 13.8361 3.93238 13.7077C3.72448 13.6548 3.50902 13.7077 3.3238 13.8248C3.11212 13.957 2.98739 14.1345 3.03275 14.3989C3.07055 14.6256 3.09701 14.8523 3.13103 15.0827C3.28601 16.08 3.34271 17.0772 3.20285 18.0783C3.12347 18.6525 3.14992 19.2229 3.2671 19.7933C3.33892 20.1408 3.3805 20.4959 3.40696 20.8472C3.44476 21.3836 3.32759 21.9087 3.19151 22.4224C3.07055 22.8795 2.97982 23.3366 2.95714 23.8088C2.93824 24.2772 2.79461 24.7079 2.51868 25.0969C2.2692 25.4483 2.03105 25.8071 1.78913 26.1622C1.67195 26.336 1.54344 26.506 1.48674 26.71C1.46028 26.7968 1.44893 26.8951 1.46027 26.9857C1.47917 27.1293 1.59635 27.201 1.73999 27.1708C1.85339 27.1444 1.96302 27.099 2.06886 27.0575C2.23518 26.9895 2.39393 26.9064 2.56403 26.8422C3.06677 26.6457 3.58463 26.5664 4.12138 26.6835C4.26502 26.7137 4.40865 26.7515 4.55229 26.7893C4.76775 26.8422 4.987 26.8799 5.21002 26.8799C5.60313 26.8799 5.99625 26.8837 6.38558 26.8951C6.64262 26.9026 6.84297 26.8082 6.98283 26.6004C7.06977 26.472 7.14915 26.3322 7.20584 26.1849C7.33058 25.8562 7.54604 25.6107 7.82576 25.4105C7.84466 25.3992 7.88246 25.3916 7.94672 25.3614ZM6.45362 11.5885C6.61238 11.63 6.61238 11.63 6.63506 11.6036C6.71066 11.5242 6.75981 11.4374 6.76737 11.3278C6.80139 10.629 6.72956 9.95277 6.33644 9.34081C6.05294 8.89884 5.83371 8.42287 5.65227 7.92801C5.63337 7.87891 5.61448 7.83357 5.57668 7.74669C5.53888 7.83735 5.50485 7.89023 5.49729 7.94312C5.39145 8.48708 5.29318 9.03105 5.18734 9.57502C5.11552 9.94522 5.02858 10.3116 4.96054 10.6781C4.90762 10.9576 4.93029 11.2409 5.00211 11.5167C5.06637 11.7622 5.17978 11.9889 5.39902 12.14C5.42548 12.1589 5.46327 12.1664 5.51997 12.1891C5.50485 12.1173 5.50107 12.0758 5.48595 12.038C5.38389 11.7622 5.3839 11.4827 5.44816 11.2031C5.4973 10.9954 5.50485 10.7914 5.51241 10.5798C5.51997 10.3834 5.54265 10.1832 5.56155 9.98677C5.56533 9.96033 5.58045 9.93389 5.59179 9.89611C5.62203 9.92255 5.65983 9.93389 5.66361 9.95655C5.79591 10.3683 5.87907 10.7876 5.75055 11.2183C5.72787 11.2976 5.70897 11.3807 5.69763 11.4638C5.67117 11.6451 5.6863 11.7471 5.75433 11.9095C5.77323 11.902 5.79968 11.8982 5.80346 11.8831C6.0983 11.2636 6.18902 10.629 5.93577 9.97167C5.90553 9.89234 5.87151 9.81678 5.84505 9.73745C5.75433 9.46169 5.72409 9.17837 5.75433 8.8875C5.82993 8.88373 5.84127 8.93284 5.85639 8.96684C5.97735 9.26904 6.09075 9.57124 6.21171 9.87345C6.48009 10.5383 6.40827 11.1805 6.10965 11.8151C6.06807 11.902 6.02271 11.9813 5.98491 12.0682C5.96979 12.0984 5.97357 12.1362 5.95845 12.2306C6.15122 11.9889 6.30242 11.7924 6.45362 11.5885ZM9.03535 12.5442C8.91061 12.5215 8.84257 12.4988 8.77075 12.4951C8.37385 12.4837 8.05633 12.6575 7.79174 12.9333C7.34948 13.3979 6.80138 13.6699 6.17391 13.7945C6.15501 13.7983 6.13989 13.8172 6.10209 13.8512C6.12099 13.9759 6.09075 14.1156 6.14367 14.2592C6.29865 14.2629 6.42338 14.2025 6.53678 14.1307C6.7598 13.9947 7.0055 13.9419 7.26254 13.9456C7.3457 13.9456 7.43263 13.9494 7.51579 13.9494C7.74637 13.9532 7.95428 13.8776 8.12816 13.7303C8.22266 13.651 8.31715 13.5603 8.39275 13.4621C8.60443 13.1788 8.80099 12.8842 9.03535 12.5442Z" stroke="black" stroke-width="0.2" mask="url(#path-1-outside-1_2_5538)"/>
<path d="M7.03603 8.8425L6.9316 8.76989C6.89945 8.74754 6.87163 8.73093 6.84607 8.71565C6.83838 8.71106 6.8309 8.70659 6.82357 8.70213C6.79333 8.68372 6.76296 8.66388 6.74001 8.63585L6.73957 8.63532L6.73958 8.63531C6.60107 8.46131 6.52314 8.25718 6.47305 8.04925L6.47296 8.04889C6.40718 7.7666 6.39961 7.47735 6.43421 7.19297M7.03603 8.8425L6.54129 6.22921C6.5068 6.55 6.47208 6.87306 6.43421 7.19297M7.03603 8.8425L7.009 8.71821M7.03603 8.8425L7.009 8.71821M6.43421 7.19297C6.43422 7.19294 6.43422 7.19292 6.43422 7.19289L6.48386 7.19893L6.4342 7.19305C6.43421 7.19302 6.43421 7.193 6.43421 7.19297ZM6.38558 4.05979C6.43471 4.26378 6.49897 4.46399 6.61993 4.63775L6.38558 4.05979ZM6.38558 4.05979L6.43421 4.04817C6.37368 3.79487 6.30938 3.54163 6.24518 3.28878L6.24504 3.28821L6.24506 3.2882L6.24465 3.28677C6.24437 3.2858 6.24409 3.28481 6.2438 3.28379C6.23707 3.26012 6.22659 3.22326 6.20076 3.19671C6.16884 3.16389 6.12421 3.15509 6.07084 3.16436L6.03226 3.17107M6.38558 4.05979L6.43418 4.04808C6.48289 4.25026 6.5454 4.44317 6.66097 4.60919L6.66119 4.60951L6.66119 4.60951C7.06433 5.19833 7.10127 5.8477 6.9982 6.51153L6.99815 6.51185C6.98413 6.59842 6.9709 6.68601 6.9576 6.77404C6.93178 6.94496 6.9057 7.11754 6.87318 7.28759M7.009 8.71821C7.00011 8.67736 6.99558 8.64791 6.99187 8.62382L6.9916 8.62207L6.99144 8.62102C6.98786 8.59778 6.98447 8.57579 6.97732 8.55436L6.97742 8.55433L6.97623 8.55138C6.81042 8.14267 6.79144 7.72207 6.87318 7.28759M7.009 8.71821L6.03226 3.17107M6.03226 3.17107L6.02952 3.21012M6.03226 3.17107L6.02952 3.21012M6.87318 7.28759C6.87317 7.28761 6.87317 7.28763 6.87316 7.28766L6.82405 7.27826L6.87319 7.28751C6.87319 7.28754 6.87318 7.28756 6.87318 7.28759ZM6.02952 3.21012C6.02466 3.27936 6.01852 3.3495 6.01232 3.42027C5.99959 3.5657 5.98663 3.71378 5.98405 3.86212C5.98405 3.86225 5.98405 3.86237 5.98405 3.8625L6.03404 3.86336L5.98407 3.86175L6.02952 3.21012ZM6.96014 8.72884C6.93905 8.71418 6.91952 8.70174 6.90155 8.69072C6.90416 8.70512 6.90732 8.72127 6.91128 8.73947L6.96014 8.72884ZM6.55132 6.13587C6.55132 6.13589 6.55132 6.13592 6.55132 6.13594L6.60104 6.14122L6.55132 6.13587Z" fill="#020304" stroke="black" stroke-width="0.1"/>
<path d="M4.3028 3.31185L4.25297 3.31597C4.25297 3.316 4.25298 3.31604 4.25298 3.31607C4.28753 3.73411 4.39908 4.13151 4.63124 4.49112L4.63123 4.49112L4.63165 4.49175C4.65638 4.52883 4.68093 4.56624 4.7056 4.60385C4.75542 4.6798 4.80574 4.7565 4.85909 4.83266L4.85918 4.83279C5.08918 5.15903 5.23262 5.513 5.25838 5.91026L5.25836 5.91026L5.25848 5.91155C5.25893 5.91647 5.2589 5.92087 5.25886 5.92742C5.25884 5.93119 5.25881 5.93568 5.25887 5.9414C5.259 5.95448 5.25973 5.9721 5.26486 5.9904C5.27023 6.00959 5.28031 6.02917 5.29821 6.04625C5.31572 6.06297 5.33835 6.07502 5.36555 6.0833L5.40783 6.09616L5.42578 6.05578C5.43006 6.04615 5.43421 6.03812 5.43897 6.02888C5.44241 6.02219 5.44619 6.01488 5.45057 6.00588C5.45968 5.98715 5.46944 5.96467 5.47448 5.9395L5.47449 5.9395L5.47463 5.93873C5.54447 5.55875 5.50192 5.18847 5.32245 4.84145L5.32235 4.84125C5.23475 4.67379 5.1397 4.51041 5.04118 4.34758C4.90371 4.11735 4.80025 3.87327 4.74488 3.61145C4.66323 3.21078 4.6755 2.82354 4.87581 2.45957L4.87582 2.45958L4.87639 2.45849C4.92997 2.35523 4.97986 2.24787 5.02218 2.14022L5.02218 2.14022L5.02233 2.13985C5.15188 1.80245 5.14357 1.34 5.0033 0.98177L4.98335 0.930812L4.46535 2.43168C4.31793 2.70366 4.27634 3.00587 4.3028 3.31185ZM4.3028 3.31185C4.33682 3.72361 4.44644 4.11269 4.67324 4.464C4.69843 4.50176 4.72321 4.53953 4.74798 4.57729C4.79755 4.65285 4.84712 4.72841 4.90004 4.80398C5.1344 5.1364 5.28182 5.49905 5.30828 5.90703C5.30894 5.91434 5.3089 5.92225 5.30886 5.93045C5.30873 5.95817 5.30858 5.98929 5.33554 6.01264L4.3028 3.31185ZM4.81317 1.17548C4.72627 1.60215 4.62911 2.02231 4.42136 2.40791L4.86224 1.1851L4.81325 1.17512C4.81322 1.17524 4.8132 1.17536 4.81317 1.17548Z" fill="#020304" stroke="black" stroke-width="0.1"/>
<path d="M4.50391 7.1805L4.49891 7.10551L4.43167 7.1391C4.41743 7.14622 4.40531 7.15113 4.39282 7.1562C4.38683 7.15862 4.38076 7.16109 4.37433 7.16384C4.36546 7.16764 4.35523 7.17234 4.34586 7.1783C4.3365 7.18425 4.325 7.19331 4.31666 7.2072L4.31656 7.20714L4.315 7.21019L4.31457 7.21103C4.22411 7.38807 4.13285 7.56666 4.0529 7.74929L4.0529 7.74929L4.05265 7.74989C3.97588 7.93159 3.97243 8.12054 4.02001 8.30681L4.02003 8.30689C4.02786 8.33729 4.03554 8.36794 4.04325 8.39871C4.06861 8.49993 4.09432 8.60254 4.12666 8.70247C4.26531 9.14445 4.34237 9.58523 4.26488 10.0388L4.26467 10.0401C4.26121 10.0643 4.26673 10.0872 4.27103 10.1034C4.2724 10.1086 4.27375 10.1135 4.27504 10.1181C4.27843 10.1303 4.28147 10.1412 4.28387 10.1544L4.29964 10.2411L4.36597 10.1831C4.37511 10.1751 4.38386 10.1689 4.39409 10.1617C4.3982 10.1589 4.40255 10.1558 4.40726 10.1524C4.42044 10.1429 4.44159 10.1271 4.45338 10.1036L4.4534 10.1036L4.4541 10.1021C4.60406 9.77546 4.68695 9.43262 4.62431 9.06823C4.59174 8.86224 4.54551 8.65985 4.49902 8.45633C4.4965 8.44529 4.49398 8.43425 4.49146 8.4232C4.44652 8.22107 4.41798 8.0246 4.45046 7.82261L4.45048 7.82253C4.47054 7.69651 4.4842 7.57006 4.4977 7.44507C4.50216 7.40377 4.5066 7.36262 4.51126 7.3217L4.51126 7.3217L4.51133 7.32102C4.5137 7.29734 4.5124 7.27468 4.51044 7.25259C4.50972 7.24447 4.50893 7.23664 4.50814 7.22872C4.50665 7.21386 4.50512 7.19865 4.50391 7.1805ZM4.46158 7.31605C4.45685 7.35759 4.45237 7.39913 4.44788 7.44067C4.43441 7.56534 4.42094 7.69 4.4011 7.81467C4.36708 8.02622 4.39732 8.23021 4.44268 8.4342C4.44518 8.44514 4.44768 8.45607 4.45017 8.46699C4.49678 8.67102 4.54268 8.87199 4.57497 9.07637L4.46158 7.31605Z" fill="#020304" stroke="black" stroke-width="0.1"/>
<path d="M7.50823 9.65812L7.46026 9.64404C7.37593 9.93132 7.33143 10.2261 7.43039 10.5347L7.43039 10.5347L7.43049 10.535C7.57797 10.9845 7.56359 11.4342 7.41182 11.8857C7.39435 11.9353 7.38481 11.9907 7.3742 12.0523C7.37008 12.0762 7.36581 12.101 7.36085 12.1267L7.34412 12.2137L7.42723 12.1831C7.45375 12.1733 7.47298 12.1669 7.48831 12.1617C7.49333 12.1601 7.49793 12.1585 7.50223 12.157C7.518 12.1516 7.53479 12.1457 7.54956 12.1346L7.55008 12.1353L7.55642 12.1284C7.59846 12.0826 7.64308 12.0303 7.67618 11.9725C7.87434 11.6384 7.95172 11.2773 7.93238 10.8946L7.93238 10.8945C7.914 10.5456 7.82701 10.2105 7.74126 9.88018C7.71964 9.79689 7.69809 9.7139 7.67775 9.63108L7.67779 9.63107L7.67727 9.62926C7.67102 9.60741 7.6592 9.58936 7.64908 9.57521C7.64441 9.56868 7.64031 9.56321 7.63637 9.55795C7.63029 9.54984 7.62461 9.54226 7.61786 9.53215L7.57705 9.47097L7.53517 9.53143C7.52323 9.54866 7.51276 9.56179 7.50278 9.57429C7.49946 9.57846 7.49619 9.58256 7.49294 9.58672C7.48127 9.60164 7.46691 9.62076 7.46016 9.64437L7.50823 9.65812ZM7.50823 9.65812C7.51291 9.64177 7.5248 9.62687 7.54123 9.60628C7.54235 9.60488 7.54349 9.60345 7.54465 9.602L7.42031 12.0793C7.42167 12.0715 7.42299 12.0638 7.42428 12.0564C7.43456 11.9966 7.44304 11.9474 7.45909 11.902C7.61407 11.4411 7.6292 10.9803 7.478 10.5194C7.3835 10.2247 7.42507 9.94143 7.50823 9.65812ZM7.6292 9.643C7.64989 9.72726 7.67167 9.81121 7.69344 9.89509C7.77902 10.2249 7.86437 10.5538 7.88245 10.8972L7.6292 9.643Z" fill="#020304" stroke="black" stroke-width="0.1"/>
<path d="M6.84657 21.4335C6.86267 21.5299 6.89865 21.6298 6.94679 21.7141M6.84657 21.4335C6.84656 21.4335 6.84656 21.4334 6.84655 21.4334L6.89587 21.4252L6.84659 21.4336C6.84658 21.4336 6.84658 21.4335 6.84657 21.4335ZM6.84657 21.4335C6.79731 21.1457 6.75564 20.8542 6.71409 20.5635C6.71409 20.5635 6.7141 20.5636 6.7141 20.5636L6.94679 21.7141M6.94679 21.7141C6.99406 21.7994 7.07231 21.85 7.1582 21.8588C7.24397 21.8676 7.33267 21.8343 7.40102 21.7616L7.40121 21.7614C7.45246 21.7063 7.50246 21.6405 7.53214 21.5642L7.53217 21.5641C7.57736 21.4474 7.62437 21.3226 7.64803 21.1967C7.75545 20.6559 7.7245 20.1199 7.60617 19.5897L7.60607 19.5893C7.5807 19.4803 7.5518 19.3707 7.52312 19.2619C7.50892 19.2081 7.49477 19.1544 7.48113 19.1011C7.39181 18.7365 7.3661 18.3735 7.42897 18.0037C7.49819 17.6116 7.48257 17.2207 7.42924 16.8324L7.42925 16.8324L7.42914 16.8317C7.41039 16.7081 7.39539 16.5844 7.38415 16.4607L7.38411 16.4603C7.36145 16.232 7.34068 16.0037 7.31989 15.7751L7.31987 15.7749C7.29912 15.5469 7.27835 15.3185 7.2557 15.0902C7.25566 15.0898 7.25562 15.0894 7.25559 15.0891L6.94679 21.7141ZM3.97017 15.3358C3.93802 15.3387 3.90586 15.3348 3.87545 15.3312C3.86654 15.3301 3.85778 15.3291 3.84921 15.3282C3.81311 15.2524 3.86321 15.2318 3.9073 15.2137C3.90937 15.2128 3.91143 15.212 3.91346 15.2111C4.22342 15.0865 4.49559 15.1393 4.72617 15.3773C4.76586 15.4189 4.80271 15.4633 4.83956 15.5076C4.87642 15.552 4.91327 15.5964 4.95296 15.638C5.0064 15.6962 5.06452 15.7514 5.1183 15.8024C5.14821 15.8308 5.17677 15.8579 5.20244 15.8835L3.97017 15.3358ZM3.97017 15.3358C4.24611 15.3093 4.4351 15.434 4.57874 15.6531C4.58545 15.6626 4.59215 15.6721 4.59886 15.6817C4.6641 15.7747 4.7305 15.8693 4.80933 15.9515C4.88871 16.0308 4.97942 16.1102 5.0777 16.1668L3.97017 15.3358ZM5.22221 15.8327C5.19925 15.8102 5.17516 15.7874 5.1505 15.764C5.09773 15.714 5.04234 15.6615 4.9898 15.6042L4.98981 15.6042L4.98911 15.6034C4.95083 15.5634 4.91507 15.5203 4.87803 15.4757L4.8775 15.4751C4.841 15.4311 4.80322 15.3856 4.76233 15.3428L4.76233 15.3428L4.76208 15.3425C4.64108 15.2176 4.50671 15.1389 4.35948 15.1092C4.21238 15.0795 4.05684 15.0996 3.89481 15.1647L3.89481 15.1647L3.89424 15.165C3.89259 15.1656 3.8908 15.1664 3.88891 15.1672C3.87945 15.171 3.86737 15.176 3.85625 15.1817C3.84268 15.1886 3.82628 15.1986 3.81279 15.2138C3.79838 15.23 3.78836 15.2509 3.787 15.2764C3.7857 15.3007 3.7924 15.3252 3.80407 15.3497L3.8162 15.3752L3.84424 15.378C3.85091 15.3786 3.85834 15.3795 3.86635 15.3805C3.8972 15.3842 3.93667 15.389 3.9747 15.3856L3.9747 15.3856L3.97494 15.3855C4.10383 15.3732 4.2098 15.3962 4.29984 15.4461C4.39046 15.4963 4.46813 15.5755 4.53693 15.6805L4.53691 15.6805L4.53786 15.6819C4.54458 15.6914 4.55133 15.701 4.55811 15.7107C4.623 15.8032 4.69161 15.901 4.77324 15.9861L4.77323 15.9861L4.77398 15.9869C4.8545 16.0673 4.94854 16.1499 5.05202 16.2097C5.21359 16.3097 5.38398 16.2763 5.52137 16.164L5.52149 16.1639C5.55785 16.1339 5.58794 16.0984 5.61475 16.0649C5.62124 16.0568 5.6275 16.0489 5.6336 16.0411C5.65365 16.0157 5.67214 15.9923 5.69251 15.9706L5.69267 15.9704C5.72965 15.9306 5.76665 15.893 5.81926 15.8402C5.86781 15.9735 5.87886 16.0822 5.882 16.1984L5.88198 16.1984L5.88206 16.1999L5.88602 16.2688C5.93007 17.0355 5.97432 17.806 6.02572 18.5764L5.22221 15.8327ZM5.22221 15.8327C5.26527 15.8292 5.29086 15.814 5.31042 15.7956C5.32268 15.7841 5.33355 15.7703 5.3451 15.7541C5.34857 15.7492 5.35242 15.7437 5.35649 15.7378C5.36456 15.7261 5.37348 15.7131 5.38197 15.702L5.38325 15.7004L5.38328 15.7004C5.38485 15.6985 5.38643 15.6966 5.388 15.6947C5.46093 15.6072 5.53963 15.5128 5.66394 15.4631L5.6825 15.5095L5.66343 15.4633C5.75948 15.4237 5.85953 15.4162 5.94849 15.4444C6.0381 15.4728 6.11301 15.5363 6.1585 15.6315M5.22221 15.8327L6.11341 15.6531M6.1585 15.6315C6.15851 15.6315 6.15852 15.6315 6.15853 15.6315L6.11341 15.6531M6.1585 15.6315C6.15848 15.6314 6.15847 15.6314 6.15846 15.6314L6.11341 15.6531M6.1585 15.6315C6.2104 15.7392 6.24197 15.8619 6.25385 15.9763M6.11341 15.6531C6.16255 15.7551 6.1928 15.8722 6.20414 15.9817M6.25385 15.9763C6.25384 15.9762 6.25383 15.9761 6.25382 15.976L6.20414 15.9817M6.25385 15.9763C6.29545 16.3391 6.33332 16.7025 6.35985 17.0698L6.20414 15.9817M6.25385 15.9763C6.25386 15.9764 6.25387 15.9765 6.25388 15.9766L6.20414 15.9817M7.07794 20.1549C7.06439 20.0081 7.03204 19.8705 6.95682 19.762C6.88054 19.6518 6.76386 19.5767 6.5933 19.548C6.59222 19.5473 6.58943 19.5455 6.58412 19.5414C6.58201 19.5397 6.57952 19.5377 6.57668 19.5355C6.57071 19.5306 6.56319 19.5246 6.55442 19.518C6.55002 19.5012 6.54488 19.4834 6.53979 19.4658C6.53615 19.4532 6.53253 19.4407 6.52923 19.4287C6.51908 19.3918 6.51056 19.3555 6.50719 19.3203L7.14914 21.1872L7.19877 21.1812C7.19873 21.1808 7.19869 21.1805 7.19865 21.1802C7.18764 21.0892 7.17638 20.9986 7.16516 20.9082C7.13392 20.6567 7.10289 20.407 7.07794 20.1549ZM7.07794 20.1549C7.07795 20.155 7.07796 20.155 7.07796 20.1551L7.02817 20.1597L7.07793 20.1548C7.07794 20.1548 7.07794 20.1549 7.07794 20.1549ZM7.23293 21.2165L7.23295 21.2165C7.33272 20.8214 7.31472 20.4245 7.26209 20.0188L7.26207 20.0187C7.23607 19.8145 7.18767 19.6133 7.12772 19.4149L7.12766 19.4147C6.97084 18.8872 6.92068 18.3579 7.01673 17.8127L7.01674 17.8127C7.06084 17.5629 7.05004 17.3044 7.00904 17.0474C7.00904 17.0473 7.00903 17.0473 7.00903 17.0473L7.05841 17.0394C7.02817 16.8543 7.00171 16.6692 6.97903 16.4804L7.23293 21.2165ZM7.23293 21.2165L7.23262 21.2179M7.23293 21.2165L7.23262 21.2179M7.23262 21.2179C7.23145 21.2231 7.23067 21.227 7.22999 21.2304C7.22908 21.235 7.22833 21.2387 7.22701 21.244C7.22514 21.2515 7.22335 21.2562 7.22166 21.2592C7.22022 21.2618 7.21922 21.2626 7.21859 21.2629C7.21833 21.2631 7.21773 21.2635 7.21664 21.2639L7.23262 21.2179ZM7.59894 21.1872C7.57626 21.3081 7.53091 21.4289 7.48555 21.546C7.45909 21.614 7.41373 21.6745 7.36459 21.7274C7.24741 21.852 7.06975 21.8331 6.99037 21.6896L7.59894 21.1872Z" fill="#020304" stroke="black" stroke-width="0.1"/>
<path d="M8.00985 23.8844L8.08496 23.9632C8.1134 23.993 8.13616 24.0156 8.15547 24.0347C8.16144 24.0406 8.16709 24.0462 8.17247 24.0516C8.19453 24.0736 8.21318 24.0931 8.22902 24.1155C8.32321 24.2398 8.41798 24.3648 8.50904 24.4937M8.00985 23.8844L8.46835 24.5228M8.00985 23.8844L7.99901 23.9927C7.97155 24.2671 8.02295 24.4562 8.08466 24.6335C8.13531 24.7814 8.20315 24.8995 8.30938 24.9752C8.41638 25.0515 8.55443 25.0794 8.73354 25.0636L8.7339 25.0636C8.88898 25.0488 9.04483 25.0525 9.20306 25.06L9.2034 25.06C9.37646 25.0671 9.52663 25.1301 9.6495 25.2563C9.73139 25.342 9.82572 25.4208 9.9289 25.4802L9.92944 25.4805C10.0662 25.5572 10.2052 25.5601 10.3106 25.4945C10.4157 25.429 10.475 25.303 10.4688 25.1478L10.4688 25.1478C10.4607 24.9497 10.3797 24.7821 10.2793 24.6277L10.2793 24.6277L10.279 24.6272C10.0214 24.2411 9.74146 23.8647 9.35613 23.5797L9.3264 23.6199L9.35624 23.5798C9.02263 23.3316 8.77729 23.0266 8.66382 22.6315L8.66383 22.6315L8.66355 22.6306C8.66278 22.6281 8.66196 22.6253 8.66108 22.6224C8.65491 22.6014 8.64557 22.5698 8.6269 22.5441C8.60187 22.5097 8.56344 22.4883 8.50842 22.4858L8.46111 22.4837L8.4564 22.5308C8.4551 22.5438 8.45282 22.5564 8.45015 22.5713C8.44943 22.5753 8.44868 22.5794 8.44792 22.5838C8.44454 22.6031 8.44103 22.6256 8.44103 22.6491H8.44099L8.44106 22.6509C8.45278 22.971 8.55836 23.2639 8.74932 23.521C8.84967 23.6599 8.96505 23.7866 9.08734 23.905C9.34557 24.1594 9.55331 24.4509 9.75922 24.7501C9.55707 24.6483 9.35553 24.6182 9.15579 24.6051L9.15529 24.6051C9.01983 24.5975 8.87743 24.5898 8.73831 24.5975M8.00985 23.8844L8.74051 24.6474M8.50904 24.4937C8.50909 24.4938 8.50914 24.4938 8.50919 24.4939L8.46835 24.5228M8.50904 24.4937C8.509 24.4937 8.50896 24.4936 8.50891 24.4935L8.46835 24.5228M8.50904 24.4937C8.53854 24.5346 8.57055 24.5604 8.6062 24.5762C8.64221 24.5921 8.68511 24.5991 8.73831 24.5975M8.46835 24.5228C8.53639 24.6172 8.62333 24.6512 8.74051 24.6474M8.73831 24.5975C8.73812 24.5975 8.73793 24.5975 8.73773 24.5975L8.74051 24.6474M8.73831 24.5975C8.73851 24.5975 8.7387 24.5974 8.73889 24.5974L8.74051 24.6474M8.04876 23.9977C8.066 24.0158 8.08127 24.0313 8.09489 24.0449C8.09587 24.0311 8.09708 24.017 8.09851 24.0027L8.04876 23.9977ZM8.04876 23.9977L8.01257 24.0322C8.02365 24.0438 8.03397 24.0544 8.04357 24.0642C8.04477 24.0426 8.04648 24.0204 8.04876 23.9977ZM8.55521 22.5471C8.55546 22.545 8.55569 22.5428 8.5559 22.5407L8.52432 22.5376C8.53631 22.5395 8.54649 22.5428 8.55521 22.5471ZM9.77871 24.817C9.79804 24.8277 9.81737 24.8392 9.8367 24.8514L9.76527 24.7589C9.76518 24.7587 9.76509 24.7586 9.765 24.7585C9.76673 24.7611 9.76903 24.7662 9.77255 24.7838C9.77353 24.7887 9.77465 24.7948 9.77596 24.802C9.77679 24.8066 9.77771 24.8116 9.77871 24.817Z" fill="#020304" stroke="black" stroke-width="0.1"/>
<path d="M4.01581 23.3145L4.09192 23.4068C4.11076 23.4297 4.127 23.4468 4.14168 23.4624C4.14669 23.4677 4.15152 23.4728 4.15621 23.4779C4.1722 23.4952 4.19279 23.5181 4.20011 23.5474L4.20072 23.5498L4.20066 23.5498C4.35493 24.3322 4.15751 25.0268 3.66169 25.6454C3.62078 25.6983 3.57354 25.7502 3.52816 25.8002C3.50401 25.8268 3.48038 25.8527 3.45851 25.878L3.45838 25.8795C3.45833 25.88 3.45828 25.8805 3.45822 25.881C3.46506 25.9026 3.47486 25.9083 3.48025 25.9103C3.489 25.9135 3.50542 25.9136 3.52824 25.9022C3.59918 25.8667 3.66398 25.8202 3.72672 25.7685L3.72709 25.7682L3.72709 25.7682C3.77142 25.7324 3.81346 25.6942 3.85698 25.6546C3.86034 25.6516 3.86371 25.6485 3.86709 25.6455C3.91378 25.603 3.96226 25.5594 4.01491 25.5185C4.10169 25.4499 4.19457 25.406 4.29381 25.3908C4.3932 25.3756 4.49585 25.3896 4.60124 25.4321L4.60222 25.4325L4.60221 25.4325C4.68063 25.4661 4.75697 25.495 4.83224 25.5129L4.83339 25.5132L4.83339 25.5132C4.90069 25.5309 4.94201 25.5289 4.97158 25.5156C5.00099 25.5023 5.02923 25.4729 5.0592 25.4113L5.05921 25.4113C5.10815 25.3107 5.15089 25.2068 5.19417 25.1016C5.21035 25.0622 5.22661 25.0227 5.2433 24.9831L5.24378 24.982L5.24379 24.982C5.27791 24.9062 5.31156 24.8315 5.33765 24.7681L5.34796 24.7431L5.37453 24.7381C5.42462 24.7285 5.46812 24.7373 5.4974 24.7686C5.52381 24.7968 5.52838 24.833 5.52838 24.8552V24.857L5.52835 24.857C5.52641 24.9103 5.52549 24.9647 5.52457 25.0197C5.52197 25.174 5.51929 25.3331 5.4937 25.4866C5.49369 25.4866 5.49369 25.4867 5.49368 25.4867L5.44436 25.4785C5.38388 25.8449 5.10416 26.0036 4.74128 25.9053L4.01581 23.3145ZM4.01581 23.3145L4.0036 23.4335C4.00253 23.4438 4.00149 23.454 4.00047 23.4639C3.98701 23.5948 3.97678 23.6941 3.97316 23.787C3.92089 24.4451 3.69062 25.0224 3.22028 25.4999C3.18023 25.5399 3.14459 25.5836 3.11327 25.6266L3.11326 25.6266L3.1127 25.6274C2.98968 25.8036 2.98081 26.0016 3.095 26.1509C3.2123 26.3058 3.44183 26.391 3.63464 26.3229C3.74768 26.2865 3.85468 26.2186 3.94914 26.1545C4.03672 26.0949 4.11484 26.02 4.18837 25.9494C4.19768 25.9405 4.20693 25.9316 4.21611 25.9229C4.26317 25.8793 4.30906 25.8566 4.35532 25.8494C4.40185 25.8423 4.45359 25.8501 4.5134 25.8756C4.58263 25.9064 4.6532 25.9339 4.72839 25.9537L4.01581 23.3145ZM4.58253 25.4785C4.38597 25.3991 4.20831 25.4294 4.04577 25.5578C3.99098 25.6004 3.94056 25.6462 3.8904 25.6918C3.84711 25.7312 3.80402 25.7704 3.7585 25.8071C3.69424 25.86 3.62619 25.9091 3.55059 25.9469C3.49011 25.9771 3.42585 25.9658 3.40695 25.8827L4.58253 25.4785ZM4.58253 25.4785C4.66191 25.5125 4.74129 25.5427 4.82067 25.5616C4.96431 25.5994 5.03991 25.5654 5.10417 25.4331C5.15385 25.3311 5.19749 25.225 5.24096 25.1193C5.25703 25.0802 5.27307 25.0412 5.28938 25.0025M4.58253 25.4785L5.28938 25.0025M5.28938 25.0025L5.28955 25.0021M5.28938 25.0025L5.28955 25.0021M5.28955 25.0021C5.32352 24.9267 5.35747 24.8513 5.38388 24.7872L5.28955 25.0021Z" fill="#020304" stroke="black" stroke-width="0.1"/>
<path d="M4.37906 19.0933L4.38645 19.1524C4.41552 19.3848 4.43273 19.6199 4.44981 19.8531C4.45943 19.9846 4.46902 20.1154 4.48066 20.2449C4.51315 20.6063 4.56189 20.9619 4.67177 21.308L4.6722 21.3094C4.6722 21.3094 4.67218 21.3094 4.67218 21.3094C4.67223 21.3096 4.67367 21.3133 4.68544 21.3251C4.68602 21.3257 4.68663 21.3263 4.68727 21.3269C4.73638 21.2426 4.76683 21.153 4.79228 21.0598C4.80166 21.0254 4.8105 20.9898 4.81947 20.9537C4.83905 20.8749 4.85925 20.7936 4.88706 20.7168L4.88715 20.7166C4.9411 20.5703 4.99142 20.4243 5.04441 20.2706C5.06922 20.1986 5.09461 20.1249 5.12122 20.0488L5.14879 19.9699L5.20527 20.0315C5.21971 20.0472 5.2325 20.0588 5.24459 20.0698C5.24841 20.0733 5.25216 20.0767 5.25588 20.0801C5.26284 20.0866 5.27134 20.0948 5.27811 20.1038C5.28482 20.1128 5.29394 20.128 5.29403 20.1481M4.37906 19.0933L5.22484 21.1563C5.22484 21.1563 5.22485 21.1563 5.22485 21.1563C5.29801 20.8214 5.2978 20.48 5.29403 20.1481M4.37906 19.0933L4.32214 19.1108C4.25887 19.1303 4.22264 19.1678 4.20183 19.2119C4.18727 19.2429 4.18016 19.2789 4.17475 19.3063C4.17337 19.3133 4.1721 19.3197 4.17085 19.3253L4.1708 19.3253L4.17041 19.3276C4.07485 19.8738 4.08266 20.4229 4.14732 20.9664L4.14731 20.9664L4.14745 20.9674C4.17052 21.1327 4.20894 21.3015 4.25883 21.4626L4.2588 21.4626L4.25935 21.4642C4.29583 21.5695 4.35618 21.6656 4.4274 21.7486L4.42766 21.7489C4.54828 21.8873 4.75671 21.8994 4.89755 21.7851C4.96093 21.7336 5.03146 21.66 5.06997 21.5788L5.02478 21.5574L4.37906 19.0933ZM5.29403 20.1481C5.29403 20.148 5.29403 20.1479 5.29403 20.1478L5.24403 20.1484H5.29403C5.29403 20.1483 5.29403 20.1482 5.29403 20.1481ZM4.34299 19.2093C4.36826 19.4239 4.38403 19.6394 4.39978 19.8547C4.43606 20.3504 4.47223 20.8447 4.62411 21.3232C4.62882 21.3396 4.64233 21.3532 4.66007 21.3702L4.34299 19.2093ZM4.34299 19.2093C4.3457 19.2083 4.34854 19.2074 4.35153 19.2064L4.33684 19.1586M4.34299 19.2093L4.33684 19.1586M4.33684 19.1586L4.28722 19.1648C4.28792 19.1704 4.28861 19.176 4.28929 19.1815M4.33684 19.1586L4.28929 19.1815M4.28929 19.1815C4.2442 19.214 4.23419 19.2642 4.2246 19.3123C4.223 19.3203 4.2214 19.3283 4.21966 19.3362C4.12516 19.8764 4.13271 20.4203 4.19697 20.9605C4.21965 21.123 4.25745 21.2892 4.30659 21.4478C4.34061 21.546 4.39732 21.6367 4.46536 21.716L4.28929 19.1815ZM4.72399 21.363C4.80112 21.2352 4.83518 21.098 4.86883 20.9625C4.88806 20.8851 4.90715 20.8082 4.93407 20.7339L4.72399 21.363Z" fill="#020304" stroke="black" stroke-width="0.1"/>
<path d="M8.77529 17.0424L8.77875 16.9848L8.72123 16.9896C8.61066 16.9988 8.54689 17.0678 8.496 17.1228C8.49518 17.1237 8.49436 17.1245 8.49355 17.1254C8.44768 17.175 8.41065 17.2137 8.35573 17.2294C8.27792 17.1053 8.23626 16.9745 8.21941 16.8298C8.20811 16.7263 8.19774 16.6236 8.18735 16.5207L8.18734 16.5206C8.17695 16.4177 8.16654 16.3146 8.15518 16.2105L8.1552 16.2105L8.155 16.2091C8.15296 16.1943 8.15128 16.1787 8.14954 16.1625C8.13944 16.0688 8.12723 15.9554 8.02805 15.8526L7.97897 15.8017L7.94735 15.8649C7.93865 15.8823 7.93004 15.8965 7.92119 15.9112C7.91757 15.9171 7.9139 15.9232 7.91018 15.9295C7.89883 15.9489 7.88507 15.9741 7.88189 16.0026L7.88189 16.0026L7.88181 16.0035C7.8753 16.0722 7.86805 16.1414 7.86077 16.2108C7.83875 16.421 7.81644 16.6338 7.81356 16.8458C7.80963 17.009 7.84935 17.1738 7.89934 17.3199C7.94 17.4416 8.02013 17.5611 8.1071 17.6519C8.18984 17.7388 8.29052 17.7774 8.38948 17.7622C8.48765 17.7471 8.57395 17.6807 8.63259 17.5782C8.72876 17.4139 8.76372 17.2352 8.77529 17.0424Z" fill="#020304" stroke="black" stroke-width="0.1"/>
</svg>
