<svg width="23" height="23" viewBox="0 0 23 23" fill="none" xmlns="http://www.w3.org/2000/svg">
<mask id="path-1-outside-1_2_5089" maskUnits="userSpaceOnUse" x="1.2096" y="1.44302" width="20" height="20" fill="black">
<rect fill="white" x="1.2096" y="1.44302" width="20" height="20"/>
<path d="M13.9351 17.3832C13.9464 17.4361 13.9502 17.4965 13.9729 17.5456C14.1997 18.0821 14.4189 18.6222 14.6608 19.1511C14.8158 19.4911 14.9254 19.8386 15.0086 20.1975C15.0199 20.2466 15.0048 20.3033 15.0048 20.3599C14.9595 20.3486 14.9292 20.3486 14.9141 20.3335C14.6419 20.0162 14.3736 19.6951 14.2186 19.3022C14.0447 18.8489 13.8859 18.388 13.7234 17.9272C13.644 17.7043 13.5798 17.4739 13.5117 17.2661C13.1602 17.1226 12.8238 17.0017 12.5025 16.8506C12.1925 16.7032 11.9015 16.5181 11.5991 16.3482C11.5272 16.3708 11.531 16.435 11.5348 16.4917C11.5613 16.9299 11.5877 17.3719 11.6142 17.8101C11.6558 18.4636 11.6709 19.1171 11.5839 19.7706C11.5499 20.0162 11.4857 20.2579 11.4063 20.5337C11.3534 20.4808 11.308 20.4544 11.3004 20.4241C11.2059 20.0653 11.1341 19.7064 11.1492 19.3324C11.1833 18.3691 11.2135 17.4059 11.24 16.4426C11.24 16.4086 11.2324 16.3746 11.2248 16.3255C11.0358 16.2424 10.8279 16.2953 10.6352 16.2651C10.4348 16.2311 10.2345 16.2046 10.0379 16.1631C9.84137 16.1215 9.64859 16.0611 9.42935 16.0044C9.40289 16.0686 9.37266 16.1291 9.34998 16.1895C9.22902 16.5106 9.1194 16.8392 8.9871 17.1566C8.71116 17.829 8.42766 18.4938 8.14417 19.1624C7.97785 19.5553 7.78884 19.8499 7.52047 20.137C7.49779 20.0917 7.45999 20.0577 7.46377 20.0237C7.49401 19.6535 7.58851 19.3022 7.7397 18.9584C8.0988 18.1425 8.48058 17.3379 8.91528 16.5559C9.0249 16.3595 9.1383 16.1631 9.25548 15.9515C8.97954 15.8042 8.7036 15.6682 8.44656 15.5096C8.18575 15.3471 7.94005 15.1545 7.67167 14.9656C7.59985 15.0411 7.52425 15.1129 7.45621 15.1922C6.94591 15.774 6.43183 16.3519 5.92531 16.9375C5.61158 17.3001 5.25626 17.6136 4.82535 17.8365C4.78377 17.8592 4.7384 17.8743 4.69682 17.8894C4.68926 17.8932 4.67792 17.8856 4.6439 17.8781C4.64768 17.8403 4.63634 17.7874 4.65524 17.7534C4.814 17.4474 5.003 17.1641 5.24492 16.9072C5.95178 16.1668 6.67753 15.4453 7.50913 14.8107C7.30879 14.5576 7.10845 14.3272 6.93835 14.0779C6.76447 13.8248 6.61705 13.5528 6.45451 13.2808C6.42427 13.2846 6.38269 13.277 6.35623 13.2959C5.91397 13.5566 5.44148 13.753 4.97276 13.9532C4.55697 14.1307 4.14117 14.3083 3.72537 14.4858C3.38139 14.6332 3.0223 14.6936 2.6632 14.7012C2.61028 14.6105 2.65564 14.5727 2.70099 14.5387C2.95047 14.3536 3.21129 14.1912 3.49479 14.0628C4.26591 13.719 5.06348 13.4432 5.8724 13.1977C6.03115 13.1486 6.18613 13.0957 6.36379 13.0315C6.16345 12.4951 6.05006 11.9624 6.00092 11.3996C5.91776 11.3996 5.84972 11.392 5.78546 11.3996C5.1353 11.494 4.48137 11.494 3.82743 11.528C3.33604 11.5545 2.8522 11.4865 2.37214 11.3882C2.31922 11.3769 2.27386 11.3429 2.2096 11.3127C2.25496 11.2749 2.27764 11.2447 2.30788 11.2334C2.68966 11.1352 3.06765 11.0407 3.46833 11.0558C4.21677 11.086 4.96899 11.1125 5.71742 11.1427C5.7968 11.1465 5.87996 11.1427 5.98202 11.1427C6.01604 10.5005 6.10675 9.88101 6.34489 9.26905C6.26551 9.23505 6.20504 9.20483 6.14078 9.18594C5.38478 8.96307 4.66659 8.6382 3.97485 8.27178C3.67245 8.11312 3.40785 7.88269 3.12813 7.68248C3.10545 7.66737 3.10167 7.62204 3.08655 7.57671C3.14325 7.57293 3.19239 7.5616 3.23397 7.56915C3.63087 7.64848 4.02399 7.73914 4.38309 7.93935C4.96521 8.26044 5.55488 8.57398 6.14078 8.89129C6.22394 8.93662 6.3071 8.98195 6.41293 9.03862C6.55657 8.7893 6.68887 8.53998 6.84385 8.30577C6.99883 8.06779 7.17649 7.84491 7.34659 7.61448C6.92701 7.19517 6.52256 6.77587 6.10676 6.37167C5.83082 6.10347 5.6078 5.79749 5.41124 5.46884C5.38856 5.43106 5.381 5.38195 5.36588 5.33662C5.3621 5.32907 5.37722 5.31774 5.38478 5.31018C5.40746 5.30641 5.43392 5.29129 5.44904 5.29885C5.82326 5.4915 6.15968 5.72571 6.44695 6.03925C6.80227 6.42456 7.15003 6.81742 7.44109 7.25184C7.47133 7.30095 7.51291 7.3425 7.55827 7.40672C7.73593 7.26317 7.89468 7.12718 8.06478 7.00252C8.23866 6.87786 8.41632 6.75698 8.60154 6.64743C8.78298 6.53788 8.97576 6.44722 9.1572 6.35656C9.18366 6.24701 9.12318 6.18279 9.08538 6.11102C8.92662 5.78993 8.76786 5.47261 8.6091 5.15152C8.39364 4.70955 8.30293 4.2298 8.21599 3.75006C8.21221 3.72361 8.2311 3.68962 8.24622 3.63295C8.41254 3.73495 8.46168 3.90116 8.54862 4.03337C8.63556 4.16181 8.71116 4.2978 8.7792 4.43379C8.8548 4.58111 8.92284 4.73222 8.9871 4.88709C9.0438 5.03064 9.09672 5.17797 9.14208 5.32529C9.195 5.48395 9.24036 5.64261 9.28194 5.80504C9.31974 5.95236 9.34998 6.09969 9.39156 6.2659C9.92076 6.1148 10.4386 5.98258 10.9943 5.9788C10.9943 5.86926 11.0018 5.79371 10.998 5.71438C10.9754 5.23841 10.9451 4.76621 10.9224 4.29024C10.9035 3.8936 10.9678 3.50829 11.0396 3.12298C11.051 3.06632 11.0699 3.00966 11.0812 2.96055C11.1757 2.92655 11.1984 2.98699 11.2173 3.03988C11.3571 3.48563 11.4668 3.93515 11.4365 4.40735C11.4176 4.72844 11.3987 5.04953 11.3836 5.37062C11.376 5.5595 11.3836 5.74837 11.3836 5.93725C11.5008 5.98258 11.5613 5.88815 11.6331 5.83904C12.1812 5.44617 12.7746 5.15153 13.4172 4.95509C13.542 4.91732 13.6705 4.88332 13.8066 4.84554C13.8444 4.76244 13.8859 4.67555 13.92 4.58867C14.1127 4.11648 14.3055 3.6405 14.4983 3.16831C14.6004 2.91144 14.7629 2.68857 14.9481 2.48836C14.967 2.46569 15.0086 2.46191 15.0653 2.44302C15.088 2.76411 15.0313 3.04743 14.9065 3.31564C14.7213 3.70094 14.521 4.0787 14.3282 4.46401C14.2828 4.55845 14.2337 4.65289 14.1694 4.7851C15.2354 4.62644 16.2258 4.77755 17.1821 5.17419C17.3522 5.0722 17.5147 4.97776 17.7113 4.86065C17.7075 4.94376 17.7188 5.0042 17.6962 5.04575C17.4996 5.41595 17.2766 5.76726 16.9515 6.03925C16.5244 6.40189 16.0972 6.76076 15.6701 7.11962C15.4622 7.29339 15.2467 7.46338 15.0199 7.6447C15.088 7.78825 15.1976 7.87891 15.277 7.99224C15.3639 8.12067 15.4584 8.24155 15.5416 8.37377C15.6172 8.49465 15.689 8.61931 15.757 8.74397C15.8251 8.86863 15.8856 8.99329 15.9574 9.13306C17.012 8.55509 18.1384 8.19622 19.2157 7.72025C19.5143 7.58804 19.8319 7.54648 20.1531 7.51249C20.172 7.50871 20.1947 7.5276 20.2136 7.53893C20.2439 7.6107 20.1985 7.64848 20.1531 7.68626C19.8205 7.95824 19.469 8.2 19.0645 8.35488C18.1649 8.70242 17.2463 8.99329 16.3089 9.21616C16.2409 9.23127 16.1691 9.25016 16.101 9.27282C16.0821 9.28038 16.0632 9.29927 16.0292 9.32949C16.2333 9.88101 16.324 10.4627 16.3618 11.0785C16.4601 11.0747 16.5395 11.0785 16.6189 11.0634C17.5639 10.9236 18.5126 10.8745 19.4614 10.799C19.9075 10.765 20.3421 10.8065 20.7693 10.9236C20.7995 10.9312 20.8298 10.9538 20.8562 10.9652C20.8865 11.052 20.826 11.0823 20.7731 11.1012C20.4177 11.2409 20.0511 11.3429 19.6618 11.3429C18.6034 11.3354 17.5412 11.324 16.4828 11.3165C16.4601 11.3165 16.4374 11.324 16.3883 11.3278C16.3732 11.3845 16.3429 11.4449 16.3354 11.5129C16.2938 12.0002 16.188 12.4762 16.0141 12.9597C16.0859 12.9975 16.1539 13.039 16.2258 13.0693C17.0838 13.4243 17.9419 13.7719 18.7961 14.1307C19.1893 14.297 19.6202 14.5878 19.8621 14.8258C19.8508 14.8863 19.8092 14.8976 19.7563 14.89C19.2875 14.7994 18.8302 14.686 18.3992 14.4669C17.613 14.0703 16.8154 13.6925 16.067 13.2317C16.0368 13.2128 16.0027 13.2052 15.9536 13.1864C15.7948 13.379 15.723 13.6246 15.5794 13.8248C15.4357 14.0288 15.2959 14.2365 15.1447 14.4556C15.1976 14.5009 15.2505 14.5425 15.3034 14.584C15.5567 14.7805 15.8251 14.9618 16.0632 15.1771C16.6378 15.6946 17.201 16.2235 17.7718 16.7486C18.1535 17.0999 18.403 17.5456 18.6374 17.9914C18.5845 18.0783 18.5315 18.0556 18.4824 18.0178C18.1346 17.7307 17.7604 17.4663 17.4429 17.149C16.6831 16.3935 15.9498 15.6115 15.2089 14.8409C15.1447 14.7729 15.0766 14.7087 14.9935 14.6256C14.8612 14.7465 14.744 14.8598 14.623 14.9656C14.4983 15.0751 14.3698 15.1809 14.2261 15.3018C14.2866 15.366 14.3358 15.4264 14.3962 15.4793C14.933 15.9251 15.5454 16.2386 16.1955 16.4804C16.3278 16.5295 16.4639 16.5748 16.5962 16.6277C16.6605 16.6541 16.7323 16.6806 16.7852 16.7259C16.9553 16.8695 16.9402 17.0583 16.7436 17.1603C16.6378 17.2132 16.5244 17.251 16.411 17.2812C15.6739 17.4776 14.9292 17.4928 14.1808 17.3908C14.1127 17.3832 14.0409 17.3757 13.9691 17.3719C13.9691 17.3643 13.9578 17.3719 13.9351 17.3832ZM10.8468 6.49633C8.90016 6.56811 6.57169 8.23022 6.54901 11.0596C6.52255 13.8588 8.8359 15.5851 10.7977 15.6682C10.6805 15.4567 10.4991 15.3131 10.3743 15.1318C10.2458 14.9467 10.1097 14.7654 9.98879 14.5765C9.87539 14.3952 9.76956 14.2101 9.67506 14.0174C9.57678 13.8134 9.48605 13.6057 9.41045 13.3941C9.33485 13.1826 9.26682 12.9673 9.21012 12.7482C9.15342 12.5291 9.11184 12.3062 9.07782 12.0871C9.0438 11.8642 9.02112 11.6376 9.00978 11.4147C8.99844 11.2031 8.99844 10.9878 9.00978 10.7725C9.02112 10.5459 9.0438 10.323 9.0816 10.1001C9.11562 9.87723 9.16098 9.65436 9.21768 9.43904C9.27438 9.21994 9.34241 9.00462 9.42179 8.79307C9.50117 8.58153 9.58811 8.37377 9.69017 8.16978C9.78467 7.97713 9.89051 7.79203 10.0039 7.61071C10.1249 7.42183 10.2534 7.23673 10.3933 7.05541C10.518 6.87786 10.6692 6.71165 10.8468 6.49633ZM13.9502 7.42183C13.8784 7.50116 13.8217 7.55782 13.7726 7.62581C12.8124 8.88751 12.3513 10.2965 12.4987 11.8869C12.5932 12.9182 12.9674 13.8437 13.6062 14.6596C13.6629 14.7314 13.731 14.7956 13.7915 14.856C16.2144 13.3148 16.5962 9.42393 13.9502 7.42183ZM16.7663 5.54061C16.702 5.52172 16.6907 5.51417 16.6831 5.51417C15.8478 5.82015 15.0993 6.27345 14.4492 6.88164C14.4076 6.91941 14.3849 6.9723 14.3433 7.02519C14.5248 7.18384 14.6911 7.33117 14.8574 7.47471C15.4962 6.82875 16.1199 6.1979 16.7663 5.54061Z"/>
</mask>
<path d="M13.9351 17.3832C13.9464 17.4361 13.9502 17.4965 13.9729 17.5456C14.1997 18.0821 14.4189 18.6222 14.6608 19.1511C14.8158 19.4911 14.9254 19.8386 15.0086 20.1975C15.0199 20.2466 15.0048 20.3033 15.0048 20.3599C14.9595 20.3486 14.9292 20.3486 14.9141 20.3335C14.6419 20.0162 14.3736 19.6951 14.2186 19.3022C14.0447 18.8489 13.8859 18.388 13.7234 17.9272C13.644 17.7043 13.5798 17.4739 13.5117 17.2661C13.1602 17.1226 12.8238 17.0017 12.5025 16.8506C12.1925 16.7032 11.9015 16.5181 11.5991 16.3482C11.5272 16.3708 11.531 16.435 11.5348 16.4917C11.5613 16.9299 11.5877 17.3719 11.6142 17.8101C11.6558 18.4636 11.6709 19.1171 11.5839 19.7706C11.5499 20.0162 11.4857 20.2579 11.4063 20.5337C11.3534 20.4808 11.308 20.4544 11.3004 20.4241C11.2059 20.0653 11.1341 19.7064 11.1492 19.3324C11.1833 18.3691 11.2135 17.4059 11.24 16.4426C11.24 16.4086 11.2324 16.3746 11.2248 16.3255C11.0358 16.2424 10.8279 16.2953 10.6352 16.2651C10.4348 16.2311 10.2345 16.2046 10.0379 16.1631C9.84137 16.1215 9.64859 16.0611 9.42935 16.0044C9.40289 16.0686 9.37266 16.1291 9.34998 16.1895C9.22902 16.5106 9.1194 16.8392 8.9871 17.1566C8.71116 17.829 8.42766 18.4938 8.14417 19.1624C7.97785 19.5553 7.78884 19.8499 7.52047 20.137C7.49779 20.0917 7.45999 20.0577 7.46377 20.0237C7.49401 19.6535 7.58851 19.3022 7.7397 18.9584C8.0988 18.1425 8.48058 17.3379 8.91528 16.5559C9.0249 16.3595 9.1383 16.1631 9.25548 15.9515C8.97954 15.8042 8.7036 15.6682 8.44656 15.5096C8.18575 15.3471 7.94005 15.1545 7.67167 14.9656C7.59985 15.0411 7.52425 15.1129 7.45621 15.1922C6.94591 15.774 6.43183 16.3519 5.92531 16.9375C5.61158 17.3001 5.25626 17.6136 4.82535 17.8365C4.78377 17.8592 4.7384 17.8743 4.69682 17.8894C4.68926 17.8932 4.67792 17.8856 4.6439 17.8781C4.64768 17.8403 4.63634 17.7874 4.65524 17.7534C4.814 17.4474 5.003 17.1641 5.24492 16.9072C5.95178 16.1668 6.67753 15.4453 7.50913 14.8107C7.30879 14.5576 7.10845 14.3272 6.93835 14.0779C6.76447 13.8248 6.61705 13.5528 6.45451 13.2808C6.42427 13.2846 6.38269 13.277 6.35623 13.2959C5.91397 13.5566 5.44148 13.753 4.97276 13.9532C4.55697 14.1307 4.14117 14.3083 3.72537 14.4858C3.38139 14.6332 3.0223 14.6936 2.6632 14.7012C2.61028 14.6105 2.65564 14.5727 2.70099 14.5387C2.95047 14.3536 3.21129 14.1912 3.49479 14.0628C4.26591 13.719 5.06348 13.4432 5.8724 13.1977C6.03115 13.1486 6.18613 13.0957 6.36379 13.0315C6.16345 12.4951 6.05006 11.9624 6.00092 11.3996C5.91776 11.3996 5.84972 11.392 5.78546 11.3996C5.1353 11.494 4.48137 11.494 3.82743 11.528C3.33604 11.5545 2.8522 11.4865 2.37214 11.3882C2.31922 11.3769 2.27386 11.3429 2.2096 11.3127C2.25496 11.2749 2.27764 11.2447 2.30788 11.2334C2.68966 11.1352 3.06765 11.0407 3.46833 11.0558C4.21677 11.086 4.96899 11.1125 5.71742 11.1427C5.7968 11.1465 5.87996 11.1427 5.98202 11.1427C6.01604 10.5005 6.10675 9.88101 6.34489 9.26905C6.26551 9.23505 6.20504 9.20483 6.14078 9.18594C5.38478 8.96307 4.66659 8.6382 3.97485 8.27178C3.67245 8.11312 3.40785 7.88269 3.12813 7.68248C3.10545 7.66737 3.10167 7.62204 3.08655 7.57671C3.14325 7.57293 3.19239 7.5616 3.23397 7.56915C3.63087 7.64848 4.02399 7.73914 4.38309 7.93935C4.96521 8.26044 5.55488 8.57398 6.14078 8.89129C6.22394 8.93662 6.3071 8.98195 6.41293 9.03862C6.55657 8.7893 6.68887 8.53998 6.84385 8.30577C6.99883 8.06779 7.17649 7.84491 7.34659 7.61448C6.92701 7.19517 6.52256 6.77587 6.10676 6.37167C5.83082 6.10347 5.6078 5.79749 5.41124 5.46884C5.38856 5.43106 5.381 5.38195 5.36588 5.33662C5.3621 5.32907 5.37722 5.31774 5.38478 5.31018C5.40746 5.30641 5.43392 5.29129 5.44904 5.29885C5.82326 5.4915 6.15968 5.72571 6.44695 6.03925C6.80227 6.42456 7.15003 6.81742 7.44109 7.25184C7.47133 7.30095 7.51291 7.3425 7.55827 7.40672C7.73593 7.26317 7.89468 7.12718 8.06478 7.00252C8.23866 6.87786 8.41632 6.75698 8.60154 6.64743C8.78298 6.53788 8.97576 6.44722 9.1572 6.35656C9.18366 6.24701 9.12318 6.18279 9.08538 6.11102C8.92662 5.78993 8.76786 5.47261 8.6091 5.15152C8.39364 4.70955 8.30293 4.2298 8.21599 3.75006C8.21221 3.72361 8.2311 3.68962 8.24622 3.63295C8.41254 3.73495 8.46168 3.90116 8.54862 4.03337C8.63556 4.16181 8.71116 4.2978 8.7792 4.43379C8.8548 4.58111 8.92284 4.73222 8.9871 4.88709C9.0438 5.03064 9.09672 5.17797 9.14208 5.32529C9.195 5.48395 9.24036 5.64261 9.28194 5.80504C9.31974 5.95236 9.34998 6.09969 9.39156 6.2659C9.92076 6.1148 10.4386 5.98258 10.9943 5.9788C10.9943 5.86926 11.0018 5.79371 10.998 5.71438C10.9754 5.23841 10.9451 4.76621 10.9224 4.29024C10.9035 3.8936 10.9678 3.50829 11.0396 3.12298C11.051 3.06632 11.0699 3.00966 11.0812 2.96055C11.1757 2.92655 11.1984 2.98699 11.2173 3.03988C11.3571 3.48563 11.4668 3.93515 11.4365 4.40735C11.4176 4.72844 11.3987 5.04953 11.3836 5.37062C11.376 5.5595 11.3836 5.74837 11.3836 5.93725C11.5008 5.98258 11.5613 5.88815 11.6331 5.83904C12.1812 5.44617 12.7746 5.15153 13.4172 4.95509C13.542 4.91732 13.6705 4.88332 13.8066 4.84554C13.8444 4.76244 13.8859 4.67555 13.92 4.58867C14.1127 4.11648 14.3055 3.6405 14.4983 3.16831C14.6004 2.91144 14.7629 2.68857 14.9481 2.48836C14.967 2.46569 15.0086 2.46191 15.0653 2.44302C15.088 2.76411 15.0313 3.04743 14.9065 3.31564C14.7213 3.70094 14.521 4.0787 14.3282 4.46401C14.2828 4.55845 14.2337 4.65289 14.1694 4.7851C15.2354 4.62644 16.2258 4.77755 17.1821 5.17419C17.3522 5.0722 17.5147 4.97776 17.7113 4.86065C17.7075 4.94376 17.7188 5.0042 17.6962 5.04575C17.4996 5.41595 17.2766 5.76726 16.9515 6.03925C16.5244 6.40189 16.0972 6.76076 15.6701 7.11962C15.4622 7.29339 15.2467 7.46338 15.0199 7.6447C15.088 7.78825 15.1976 7.87891 15.277 7.99224C15.3639 8.12067 15.4584 8.24155 15.5416 8.37377C15.6172 8.49465 15.689 8.61931 15.757 8.74397C15.8251 8.86863 15.8856 8.99329 15.9574 9.13306C17.012 8.55509 18.1384 8.19622 19.2157 7.72025C19.5143 7.58804 19.8319 7.54648 20.1531 7.51249C20.172 7.50871 20.1947 7.5276 20.2136 7.53893C20.2439 7.6107 20.1985 7.64848 20.1531 7.68626C19.8205 7.95824 19.469 8.2 19.0645 8.35488C18.1649 8.70242 17.2463 8.99329 16.3089 9.21616C16.2409 9.23127 16.1691 9.25016 16.101 9.27282C16.0821 9.28038 16.0632 9.29927 16.0292 9.32949C16.2333 9.88101 16.324 10.4627 16.3618 11.0785C16.4601 11.0747 16.5395 11.0785 16.6189 11.0634C17.5639 10.9236 18.5126 10.8745 19.4614 10.799C19.9075 10.765 20.3421 10.8065 20.7693 10.9236C20.7995 10.9312 20.8298 10.9538 20.8562 10.9652C20.8865 11.052 20.826 11.0823 20.7731 11.1012C20.4177 11.2409 20.0511 11.3429 19.6618 11.3429C18.6034 11.3354 17.5412 11.324 16.4828 11.3165C16.4601 11.3165 16.4374 11.324 16.3883 11.3278C16.3732 11.3845 16.3429 11.4449 16.3354 11.5129C16.2938 12.0002 16.188 12.4762 16.0141 12.9597C16.0859 12.9975 16.1539 13.039 16.2258 13.0693C17.0838 13.4243 17.9419 13.7719 18.7961 14.1307C19.1893 14.297 19.6202 14.5878 19.8621 14.8258C19.8508 14.8863 19.8092 14.8976 19.7563 14.89C19.2875 14.7994 18.8302 14.686 18.3992 14.4669C17.613 14.0703 16.8154 13.6925 16.067 13.2317C16.0368 13.2128 16.0027 13.2052 15.9536 13.1864C15.7948 13.379 15.723 13.6246 15.5794 13.8248C15.4357 14.0288 15.2959 14.2365 15.1447 14.4556C15.1976 14.5009 15.2505 14.5425 15.3034 14.584C15.5567 14.7805 15.8251 14.9618 16.0632 15.1771C16.6378 15.6946 17.201 16.2235 17.7718 16.7486C18.1535 17.0999 18.403 17.5456 18.6374 17.9914C18.5845 18.0783 18.5315 18.0556 18.4824 18.0178C18.1346 17.7307 17.7604 17.4663 17.4429 17.149C16.6831 16.3935 15.9498 15.6115 15.2089 14.8409C15.1447 14.7729 15.0766 14.7087 14.9935 14.6256C14.8612 14.7465 14.744 14.8598 14.623 14.9656C14.4983 15.0751 14.3698 15.1809 14.2261 15.3018C14.2866 15.366 14.3358 15.4264 14.3962 15.4793C14.933 15.9251 15.5454 16.2386 16.1955 16.4804C16.3278 16.5295 16.4639 16.5748 16.5962 16.6277C16.6605 16.6541 16.7323 16.6806 16.7852 16.7259C16.9553 16.8695 16.9402 17.0583 16.7436 17.1603C16.6378 17.2132 16.5244 17.251 16.411 17.2812C15.6739 17.4776 14.9292 17.4928 14.1808 17.3908C14.1127 17.3832 14.0409 17.3757 13.9691 17.3719C13.9691 17.3643 13.9578 17.3719 13.9351 17.3832ZM10.8468 6.49633C8.90016 6.56811 6.57169 8.23022 6.54901 11.0596C6.52255 13.8588 8.8359 15.5851 10.7977 15.6682C10.6805 15.4567 10.4991 15.3131 10.3743 15.1318C10.2458 14.9467 10.1097 14.7654 9.98879 14.5765C9.87539 14.3952 9.76956 14.2101 9.67506 14.0174C9.57678 13.8134 9.48605 13.6057 9.41045 13.3941C9.33485 13.1826 9.26682 12.9673 9.21012 12.7482C9.15342 12.5291 9.11184 12.3062 9.07782 12.0871C9.0438 11.8642 9.02112 11.6376 9.00978 11.4147C8.99844 11.2031 8.99844 10.9878 9.00978 10.7725C9.02112 10.5459 9.0438 10.323 9.0816 10.1001C9.11562 9.87723 9.16098 9.65436 9.21768 9.43904C9.27438 9.21994 9.34241 9.00462 9.42179 8.79307C9.50117 8.58153 9.58811 8.37377 9.69017 8.16978C9.78467 7.97713 9.89051 7.79203 10.0039 7.61071C10.1249 7.42183 10.2534 7.23673 10.3933 7.05541C10.518 6.87786 10.6692 6.71165 10.8468 6.49633ZM13.9502 7.42183C13.8784 7.50116 13.8217 7.55782 13.7726 7.62581C12.8124 8.88751 12.3513 10.2965 12.4987 11.8869C12.5932 12.9182 12.9674 13.8437 13.6062 14.6596C13.6629 14.7314 13.731 14.7956 13.7915 14.856C16.2144 13.3148 16.5962 9.42393 13.9502 7.42183ZM16.7663 5.54061C16.702 5.52172 16.6907 5.51417 16.6831 5.51417C15.8478 5.82015 15.0993 6.27345 14.4492 6.88164C14.4076 6.91941 14.3849 6.9723 14.3433 7.02519C14.5248 7.18384 14.6911 7.33117 14.8574 7.47471C15.4962 6.82875 16.1199 6.1979 16.7663 5.54061Z" fill="#020304"/>
<path d="M13.9351 17.3832C13.9464 17.4361 13.9502 17.4965 13.9729 17.5456C14.1997 18.0821 14.4189 18.6222 14.6608 19.1511C14.8158 19.4911 14.9254 19.8386 15.0086 20.1975C15.0199 20.2466 15.0048 20.3033 15.0048 20.3599C14.9595 20.3486 14.9292 20.3486 14.9141 20.3335C14.6419 20.0162 14.3736 19.6951 14.2186 19.3022C14.0447 18.8489 13.8859 18.388 13.7234 17.9272C13.644 17.7043 13.5798 17.4739 13.5117 17.2661C13.1602 17.1226 12.8238 17.0017 12.5025 16.8506C12.1925 16.7032 11.9015 16.5181 11.5991 16.3482C11.5272 16.3708 11.531 16.435 11.5348 16.4917C11.5613 16.9299 11.5877 17.3719 11.6142 17.8101C11.6558 18.4636 11.6709 19.1171 11.5839 19.7706C11.5499 20.0162 11.4857 20.2579 11.4063 20.5337C11.3534 20.4808 11.308 20.4544 11.3004 20.4241C11.2059 20.0653 11.1341 19.7064 11.1492 19.3324C11.1833 18.3691 11.2135 17.4059 11.24 16.4426C11.24 16.4086 11.2324 16.3746 11.2248 16.3255C11.0358 16.2424 10.8279 16.2953 10.6352 16.2651C10.4348 16.2311 10.2345 16.2046 10.0379 16.1631C9.84137 16.1215 9.64859 16.0611 9.42935 16.0044C9.40289 16.0686 9.37266 16.1291 9.34998 16.1895C9.22902 16.5106 9.1194 16.8392 8.9871 17.1566C8.71116 17.829 8.42766 18.4938 8.14417 19.1624C7.97785 19.5553 7.78884 19.8499 7.52047 20.137C7.49779 20.0917 7.45999 20.0577 7.46377 20.0237C7.49401 19.6535 7.58851 19.3022 7.7397 18.9584C8.0988 18.1425 8.48058 17.3379 8.91528 16.5559C9.0249 16.3595 9.1383 16.1631 9.25548 15.9515C8.97954 15.8042 8.7036 15.6682 8.44656 15.5096C8.18575 15.3471 7.94005 15.1545 7.67167 14.9656C7.59985 15.0411 7.52425 15.1129 7.45621 15.1922C6.94591 15.774 6.43183 16.3519 5.92531 16.9375C5.61158 17.3001 5.25626 17.6136 4.82535 17.8365C4.78377 17.8592 4.7384 17.8743 4.69682 17.8894C4.68926 17.8932 4.67792 17.8856 4.6439 17.8781C4.64768 17.8403 4.63634 17.7874 4.65524 17.7534C4.814 17.4474 5.003 17.1641 5.24492 16.9072C5.95178 16.1668 6.67753 15.4453 7.50913 14.8107C7.30879 14.5576 7.10845 14.3272 6.93835 14.0779C6.76447 13.8248 6.61705 13.5528 6.45451 13.2808C6.42427 13.2846 6.38269 13.277 6.35623 13.2959C5.91397 13.5566 5.44148 13.753 4.97276 13.9532C4.55697 14.1307 4.14117 14.3083 3.72537 14.4858C3.38139 14.6332 3.0223 14.6936 2.6632 14.7012C2.61028 14.6105 2.65564 14.5727 2.70099 14.5387C2.95047 14.3536 3.21129 14.1912 3.49479 14.0628C4.26591 13.719 5.06348 13.4432 5.8724 13.1977C6.03115 13.1486 6.18613 13.0957 6.36379 13.0315C6.16345 12.4951 6.05006 11.9624 6.00092 11.3996C5.91776 11.3996 5.84972 11.392 5.78546 11.3996C5.1353 11.494 4.48137 11.494 3.82743 11.528C3.33604 11.5545 2.8522 11.4865 2.37214 11.3882C2.31922 11.3769 2.27386 11.3429 2.2096 11.3127C2.25496 11.2749 2.27764 11.2447 2.30788 11.2334C2.68966 11.1352 3.06765 11.0407 3.46833 11.0558C4.21677 11.086 4.96899 11.1125 5.71742 11.1427C5.7968 11.1465 5.87996 11.1427 5.98202 11.1427C6.01604 10.5005 6.10675 9.88101 6.34489 9.26905C6.26551 9.23505 6.20504 9.20483 6.14078 9.18594C5.38478 8.96307 4.66659 8.6382 3.97485 8.27178C3.67245 8.11312 3.40785 7.88269 3.12813 7.68248C3.10545 7.66737 3.10167 7.62204 3.08655 7.57671C3.14325 7.57293 3.19239 7.5616 3.23397 7.56915C3.63087 7.64848 4.02399 7.73914 4.38309 7.93935C4.96521 8.26044 5.55488 8.57398 6.14078 8.89129C6.22394 8.93662 6.3071 8.98195 6.41293 9.03862C6.55657 8.7893 6.68887 8.53998 6.84385 8.30577C6.99883 8.06779 7.17649 7.84491 7.34659 7.61448C6.92701 7.19517 6.52256 6.77587 6.10676 6.37167C5.83082 6.10347 5.6078 5.79749 5.41124 5.46884C5.38856 5.43106 5.381 5.38195 5.36588 5.33662C5.3621 5.32907 5.37722 5.31774 5.38478 5.31018C5.40746 5.30641 5.43392 5.29129 5.44904 5.29885C5.82326 5.4915 6.15968 5.72571 6.44695 6.03925C6.80227 6.42456 7.15003 6.81742 7.44109 7.25184C7.47133 7.30095 7.51291 7.3425 7.55827 7.40672C7.73593 7.26317 7.89468 7.12718 8.06478 7.00252C8.23866 6.87786 8.41632 6.75698 8.60154 6.64743C8.78298 6.53788 8.97576 6.44722 9.1572 6.35656C9.18366 6.24701 9.12318 6.18279 9.08538 6.11102C8.92662 5.78993 8.76786 5.47261 8.6091 5.15152C8.39364 4.70955 8.30293 4.2298 8.21599 3.75006C8.21221 3.72361 8.2311 3.68962 8.24622 3.63295C8.41254 3.73495 8.46168 3.90116 8.54862 4.03337C8.63556 4.16181 8.71116 4.2978 8.7792 4.43379C8.8548 4.58111 8.92284 4.73222 8.9871 4.88709C9.0438 5.03064 9.09672 5.17797 9.14208 5.32529C9.195 5.48395 9.24036 5.64261 9.28194 5.80504C9.31974 5.95236 9.34998 6.09969 9.39156 6.2659C9.92076 6.1148 10.4386 5.98258 10.9943 5.9788C10.9943 5.86926 11.0018 5.79371 10.998 5.71438C10.9754 5.23841 10.9451 4.76621 10.9224 4.29024C10.9035 3.8936 10.9678 3.50829 11.0396 3.12298C11.051 3.06632 11.0699 3.00966 11.0812 2.96055C11.1757 2.92655 11.1984 2.98699 11.2173 3.03988C11.3571 3.48563 11.4668 3.93515 11.4365 4.40735C11.4176 4.72844 11.3987 5.04953 11.3836 5.37062C11.376 5.5595 11.3836 5.74837 11.3836 5.93725C11.5008 5.98258 11.5613 5.88815 11.6331 5.83904C12.1812 5.44617 12.7746 5.15153 13.4172 4.95509C13.542 4.91732 13.6705 4.88332 13.8066 4.84554C13.8444 4.76244 13.8859 4.67555 13.92 4.58867C14.1127 4.11648 14.3055 3.6405 14.4983 3.16831C14.6004 2.91144 14.7629 2.68857 14.9481 2.48836C14.967 2.46569 15.0086 2.46191 15.0653 2.44302C15.088 2.76411 15.0313 3.04743 14.9065 3.31564C14.7213 3.70094 14.521 4.0787 14.3282 4.46401C14.2828 4.55845 14.2337 4.65289 14.1694 4.7851C15.2354 4.62644 16.2258 4.77755 17.1821 5.17419C17.3522 5.0722 17.5147 4.97776 17.7113 4.86065C17.7075 4.94376 17.7188 5.0042 17.6962 5.04575C17.4996 5.41595 17.2766 5.76726 16.9515 6.03925C16.5244 6.40189 16.0972 6.76076 15.6701 7.11962C15.4622 7.29339 15.2467 7.46338 15.0199 7.6447C15.088 7.78825 15.1976 7.87891 15.277 7.99224C15.3639 8.12067 15.4584 8.24155 15.5416 8.37377C15.6172 8.49465 15.689 8.61931 15.757 8.74397C15.8251 8.86863 15.8856 8.99329 15.9574 9.13306C17.012 8.55509 18.1384 8.19622 19.2157 7.72025C19.5143 7.58804 19.8319 7.54648 20.1531 7.51249C20.172 7.50871 20.1947 7.5276 20.2136 7.53893C20.2439 7.6107 20.1985 7.64848 20.1531 7.68626C19.8205 7.95824 19.469 8.2 19.0645 8.35488C18.1649 8.70242 17.2463 8.99329 16.3089 9.21616C16.2409 9.23127 16.1691 9.25016 16.101 9.27282C16.0821 9.28038 16.0632 9.29927 16.0292 9.32949C16.2333 9.88101 16.324 10.4627 16.3618 11.0785C16.4601 11.0747 16.5395 11.0785 16.6189 11.0634C17.5639 10.9236 18.5126 10.8745 19.4614 10.799C19.9075 10.765 20.3421 10.8065 20.7693 10.9236C20.7995 10.9312 20.8298 10.9538 20.8562 10.9652C20.8865 11.052 20.826 11.0823 20.7731 11.1012C20.4177 11.2409 20.0511 11.3429 19.6618 11.3429C18.6034 11.3354 17.5412 11.324 16.4828 11.3165C16.4601 11.3165 16.4374 11.324 16.3883 11.3278C16.3732 11.3845 16.3429 11.4449 16.3354 11.5129C16.2938 12.0002 16.188 12.4762 16.0141 12.9597C16.0859 12.9975 16.1539 13.039 16.2258 13.0693C17.0838 13.4243 17.9419 13.7719 18.7961 14.1307C19.1893 14.297 19.6202 14.5878 19.8621 14.8258C19.8508 14.8863 19.8092 14.8976 19.7563 14.89C19.2875 14.7994 18.8302 14.686 18.3992 14.4669C17.613 14.0703 16.8154 13.6925 16.067 13.2317C16.0368 13.2128 16.0027 13.2052 15.9536 13.1864C15.7948 13.379 15.723 13.6246 15.5794 13.8248C15.4357 14.0288 15.2959 14.2365 15.1447 14.4556C15.1976 14.5009 15.2505 14.5425 15.3034 14.584C15.5567 14.7805 15.8251 14.9618 16.0632 15.1771C16.6378 15.6946 17.201 16.2235 17.7718 16.7486C18.1535 17.0999 18.403 17.5456 18.6374 17.9914C18.5845 18.0783 18.5315 18.0556 18.4824 18.0178C18.1346 17.7307 17.7604 17.4663 17.4429 17.149C16.6831 16.3935 15.9498 15.6115 15.2089 14.8409C15.1447 14.7729 15.0766 14.7087 14.9935 14.6256C14.8612 14.7465 14.744 14.8598 14.623 14.9656C14.4983 15.0751 14.3698 15.1809 14.2261 15.3018C14.2866 15.366 14.3358 15.4264 14.3962 15.4793C14.933 15.9251 15.5454 16.2386 16.1955 16.4804C16.3278 16.5295 16.4639 16.5748 16.5962 16.6277C16.6605 16.6541 16.7323 16.6806 16.7852 16.7259C16.9553 16.8695 16.9402 17.0583 16.7436 17.1603C16.6378 17.2132 16.5244 17.251 16.411 17.2812C15.6739 17.4776 14.9292 17.4928 14.1808 17.3908C14.1127 17.3832 14.0409 17.3757 13.9691 17.3719C13.9691 17.3643 13.9578 17.3719 13.9351 17.3832ZM10.8468 6.49633C8.90016 6.56811 6.57169 8.23022 6.54901 11.0596C6.52255 13.8588 8.8359 15.5851 10.7977 15.6682C10.6805 15.4567 10.4991 15.3131 10.3743 15.1318C10.2458 14.9467 10.1097 14.7654 9.98879 14.5765C9.87539 14.3952 9.76956 14.2101 9.67506 14.0174C9.57678 13.8134 9.48605 13.6057 9.41045 13.3941C9.33485 13.1826 9.26682 12.9673 9.21012 12.7482C9.15342 12.5291 9.11184 12.3062 9.07782 12.0871C9.0438 11.8642 9.02112 11.6376 9.00978 11.4147C8.99844 11.2031 8.99844 10.9878 9.00978 10.7725C9.02112 10.5459 9.0438 10.323 9.0816 10.1001C9.11562 9.87723 9.16098 9.65436 9.21768 9.43904C9.27438 9.21994 9.34241 9.00462 9.42179 8.79307C9.50117 8.58153 9.58811 8.37377 9.69017 8.16978C9.78467 7.97713 9.89051 7.79203 10.0039 7.61071C10.1249 7.42183 10.2534 7.23673 10.3933 7.05541C10.518 6.87786 10.6692 6.71165 10.8468 6.49633ZM13.9502 7.42183C13.8784 7.50116 13.8217 7.55782 13.7726 7.62581C12.8124 8.88751 12.3513 10.2965 12.4987 11.8869C12.5932 12.9182 12.9674 13.8437 13.6062 14.6596C13.6629 14.7314 13.731 14.7956 13.7915 14.856C16.2144 13.3148 16.5962 9.42393 13.9502 7.42183ZM16.7663 5.54061C16.702 5.52172 16.6907 5.51417 16.6831 5.51417C15.8478 5.82015 15.0993 6.27345 14.4492 6.88164C14.4076 6.91941 14.3849 6.9723 14.3433 7.02519C14.5248 7.18384 14.6911 7.33117 14.8574 7.47471C15.4962 6.82875 16.1199 6.1979 16.7663 5.54061Z" stroke="black" stroke-width="0.2" mask="url(#path-1-outside-1_2_5089)"/>
<path d="M11.4222 1.45458C11.4142 1.2829 11.3617 1.11138 11.2148 0.964633L11.177 0.926879L11.1419 0.967063C10.9733 1.15955 10.9183 1.3795 10.9065 1.59413L10.9065 1.59413L10.9065 1.59597C10.9025 1.82036 10.9578 2.03844 11.0889 2.23298L11.0881 2.23351L11.095 2.2404L11.0995 2.24533L11.0995 2.24534C11.1017 2.24773 11.1049 2.25121 11.1082 2.25457C11.1114 2.25776 11.1163 2.2624 11.1223 2.2665C11.1271 2.26978 11.1396 2.2777 11.1568 2.2777C11.1653 2.2777 11.1748 2.27829 11.1864 2.27902L11.1867 2.27903C11.1976 2.27972 11.2106 2.28053 11.2234 2.28053C11.2475 2.28053 11.2826 2.27804 11.3115 2.25638L11.3115 2.25638L11.3122 2.25585C11.3356 2.23764 11.3557 2.2122 11.3704 2.18621C11.3851 2.16034 11.3967 2.12985 11.3994 2.10001L11.3994 2.10002L11.3995 2.09905C11.401 2.07696 11.4027 2.05477 11.4043 2.03249C11.4182 1.84295 11.4325 1.6473 11.4222 1.45458ZM11.4222 1.45458C11.4222 1.45452 11.4222 1.45446 11.4222 1.4544L11.3723 1.45708L11.4222 1.45475C11.4222 1.4547 11.4222 1.45464 11.4222 1.45458Z" fill="#020304" stroke="black" stroke-width="0.1"/>
<path d="M7.9854 2.83966L8.03506 2.83378C7.99943 2.53317 7.8227 2.19831 7.55555 1.9352L7.4734 1.8543L7.47048 1.96956C7.46274 2.27504 7.51697 2.52488 7.6342 2.75942C7.63944 2.77066 7.64467 2.78238 7.65005 2.79445C7.69602 2.8974 7.75301 3.02507 7.91883 3.08674L7.97121 3.10621L7.98477 3.052C7.99067 3.02841 7.99803 3.00766 8.00591 2.98545C8.00993 2.97411 8.01409 2.96239 8.01825 2.94972C8.02947 2.91561 8.04026 2.8754 8.03502 2.83346L7.9854 2.83966ZM7.9854 2.83966C7.99037 2.87941 7.97573 2.9208 7.95974 2.96597C7.95673 2.97446 7.95367 2.9831 7.95069 2.99188L7.67922 2.73767C7.57488 2.52913 7.52175 2.3078 7.51981 2.04132C7.50852 2.02957 7.49705 2.01794 7.48538 2.00645L7.52046 1.97083L7.57045 1.97209C7.57002 1.98869 7.5698 2.00509 7.56976 2.02132C7.80265 2.26943 7.95358 2.57108 7.9854 2.83966Z" fill="#020304" stroke="black" stroke-width="0.1"/>
<path d="M3.63755 18.8601L3.60491 18.9395L3.69009 18.9287C3.94094 18.8969 4.20684 18.7505 4.36287 18.5386L4.36288 18.5386L4.3634 18.5378C4.36827 18.531 4.37347 18.5238 4.37887 18.5163C4.40633 18.4785 4.43895 18.4336 4.45868 18.3852C4.48405 18.323 4.49001 18.252 4.45048 18.173L4.43302 18.1381L4.39493 18.1466C4.39251 18.1471 4.39012 18.1476 4.38775 18.1482C4.29251 18.1693 4.23708 18.1816 4.19284 18.2011C4.14666 18.2214 4.11324 18.2493 4.06045 18.2932C4.05906 18.2944 4.05766 18.2955 4.05625 18.2967L4.05617 18.2968C3.86513 18.4565 3.72776 18.6406 3.63755 18.8601ZM3.7073 18.8251C3.79394 18.6371 3.919 18.4767 4.08825 18.3351L3.6775 18.8295C3.68741 18.8283 3.69734 18.8268 3.7073 18.8251Z" fill="#020304" stroke="black" stroke-width="0.1"/>
<path d="M18.1687 4.38847L18.1879 4.43462C18.4298 4.3339 18.6371 4.11474 18.8509 3.74088L18.909 3.63915L18.7954 3.66756C18.5317 3.73342 18.3489 3.83157 18.2011 3.98314C18.1368 4.04751 18.089 4.13179 18.0459 4.20779C18.0372 4.22318 18.0287 4.23824 18.0202 4.25272C18.0036 4.27889 18.0033 4.3118 18.0061 4.33391C18.0091 4.35687 18.0179 4.38785 18.0388 4.40872C18.0591 4.429 18.0884 4.43809 18.1108 4.44163C18.1338 4.44527 18.1632 4.44518 18.1883 4.43443L18.1687 4.38847ZM18.1687 4.38847C18.1422 4.3998 18.0931 4.39224 18.0742 4.37335C18.0553 4.35447 18.0477 4.30158 18.0628 4.27891L18.2367 4.01826C18.3638 3.88785 18.5189 3.79798 18.739 3.73447C18.7473 3.72033 18.7557 3.70592 18.7641 3.69125L18.8075 3.71606L18.8196 3.76457C18.8033 3.76865 18.7874 3.77284 18.7718 3.77715C18.5731 4.10934 18.3827 4.29935 18.1687 4.38847Z" fill="#020304" stroke="black" stroke-width="0.1"/>
<path d="M4.35071 4.08034L4.25562 4.02739L4.2774 4.13403C4.35472 4.51269 4.51868 4.75987 4.7801 4.91602C4.79236 4.92682 4.81352 4.94087 4.84046 4.94087V4.94118L4.84598 4.94056C4.85279 4.93981 4.86028 4.9394 4.86955 4.93891L4.87017 4.93888C4.87873 4.93843 4.88894 4.93789 4.8989 4.93679C4.91631 4.93485 4.94615 4.93021 4.96861 4.90899C4.99076 4.88967 5.00148 4.86227 5.0067 4.84084C5.01233 4.81768 5.01371 4.79269 5.01104 4.77134L5.01108 4.77133L5.01074 4.76932C5.00193 4.71646 4.98033 4.66564 4.95617 4.62137L4.95621 4.62135L4.95509 4.61948C4.81666 4.39024 4.6196 4.23005 4.35071 4.08034Z" fill="#020304" stroke="black" stroke-width="0.1"/>
<path d="M21.2753 10.9441L21.2211 10.9958L21.2897 11.026C21.473 11.1068 21.6687 11.1367 21.8434 11.1198C22.0173 11.1029 22.1752 11.039 22.2768 10.927L22.3267 10.8718L22.2568 10.8464C22.0263 10.7627 21.8467 10.7226 21.6908 10.7369C21.532 10.7514 21.4039 10.8216 21.2753 10.9441Z" fill="#020304" stroke="black" stroke-width="0.1"/>
<path d="M20.8071 7.18763L20.781 7.14496C20.7797 7.14576 20.7784 7.14657 20.777 7.14739C20.7454 7.1667 20.7029 7.1926 20.6737 7.23109C20.6401 7.27545 20.6267 7.33205 20.6453 7.40413L20.6525 7.43208L20.6803 7.4398C21.0461 7.54135 21.3262 7.35512 21.6367 7.14198L21.7367 7.07335L21.6174 7.05156C21.4191 7.01536 21.2661 7.0021 21.1343 7.01658C21.0009 7.03122 20.8915 7.07395 20.7801 7.14557L20.8071 7.18763ZM20.8071 7.18763C21.0057 7.06005 21.191 7.03221 21.5377 7.08853C21.5517 7.079 21.5659 7.06933 21.5801 7.05953L21.6084 7.10075L21.5995 7.14994C21.5823 7.14681 21.5656 7.14388 21.5493 7.14113C21.2613 7.33658 21.0123 7.48007 20.6937 7.39162C20.6636 7.27523 20.7381 7.22974 20.8058 7.18839L20.8071 7.18763Z" fill="#020304" stroke="black" stroke-width="0.1"/>
<path d="M1.72576 15.0336L1.70654 14.9874C1.698 14.991 1.68935 14.9945 1.6806 14.9982C1.55364 15.0505 1.40751 15.1107 1.30978 15.2592L1.26764 15.3232L1.34321 15.336C1.59824 15.3791 1.7942 15.3517 1.99724 15.2523L1.99725 15.2523L1.99876 15.2515C2.00172 15.2499 2.0047 15.2483 2.00769 15.2467C2.11699 15.1886 2.24958 15.1181 2.2922 14.9434L2.30399 14.8951L2.25574 14.8831C2.05833 14.8338 1.89128 14.9068 1.74686 14.9699C1.73306 14.9759 1.71947 14.9819 1.70608 14.9876L1.72576 15.0336ZM1.72576 15.0336C1.73908 15.0279 1.75243 15.0221 1.76582 15.0162C1.89855 14.9584 2.03565 14.8987 2.19452 14.9219L2.24262 14.9356L2.2315 14.9801C2.23047 14.9798 2.22943 14.9796 2.2284 14.9793C2.18091 15.0978 2.07955 15.1518 1.98017 15.2047C1.97853 15.2056 1.97688 15.2065 1.97524 15.2074C1.79715 15.2946 1.62551 15.3238 1.40668 15.295C1.40212 15.3012 1.39766 15.3076 1.39331 15.3142L1.35155 15.2867L1.35988 15.2374C1.36843 15.2388 1.3769 15.2402 1.38529 15.2415C1.47219 15.1384 1.58845 15.0904 1.70179 15.0435C1.7098 15.0402 1.71779 15.0369 1.72576 15.0336Z" fill="#020304" stroke="black" stroke-width="0.1"/>
<path d="M15.2981 20.7194L15.2378 20.6772L15.2208 20.7488C15.1625 20.9935 15.267 21.1672 15.3565 21.3161C15.3623 21.3257 15.3681 21.3352 15.3737 21.3447C15.4384 21.4573 15.4779 21.5248 15.5244 21.5708C15.5733 21.6191 15.6282 21.6421 15.712 21.6756L15.7988 21.7103L15.7795 21.6188C15.723 21.3514 15.6608 21.0876 15.4905 20.8659L15.4905 20.8659L15.4902 20.8654C15.4646 20.8329 15.433 20.8087 15.4009 20.7869C15.3876 20.7779 15.3735 20.7689 15.3595 20.7599C15.3566 20.7581 15.3537 20.7562 15.3508 20.7544C15.3336 20.7434 15.3161 20.732 15.2981 20.7194Z" fill="#020304" stroke="black" stroke-width="0.1"/>
<path d="M11.4282 22.0639L11.4757 22.178L11.5209 22.063C11.6407 21.7577 11.6819 21.446 11.5591 21.1324C11.55 21.105 11.5349 21.0644 11.5024 21.0388C11.4629 21.0078 11.4131 21.0087 11.3599 21.0318L11.3331 21.0434L11.3301 21.0724C11.2958 21.3997 11.291 21.7348 11.4282 22.0639Z" fill="#020304" stroke="black" stroke-width="0.1"/>
<path d="M19.8284 19.1975L19.94 19.2422L19.893 19.1315C19.7632 18.8264 19.6332 18.6215 19.4076 18.4886C19.3688 18.4654 19.324 18.4421 19.2755 18.4349C19.224 18.4273 19.1717 18.4382 19.1212 18.4767L19.1051 18.489L19.102 18.509C19.0801 18.6537 19.1727 18.7453 19.2397 18.8114C19.244 18.8157 19.2481 18.8198 19.2522 18.8238L19.2522 18.8238L19.2527 18.8243C19.3962 18.9639 19.5566 19.0889 19.8284 19.1975ZM19.7804 19.1232C19.5555 19.0242 19.4152 18.9126 19.2875 18.7885C19.2841 18.7851 19.2807 18.7816 19.2772 18.7782C19.2081 18.7094 19.1334 18.6352 19.1515 18.5165L19.7804 19.1232Z" fill="#020304" stroke="black" stroke-width="0.1"/>
<path d="M7.35036 20.6432L7.39718 20.6257C7.38278 20.5873 7.35821 20.5523 7.32272 20.527L7.32308 20.5265L7.31602 20.523C7.29553 20.5127 7.27157 20.5129 7.25581 20.5147C7.23935 20.5166 7.21704 20.522 7.19942 20.5352L7.19938 20.5352L7.19741 20.5368C7.19652 20.5376 7.19562 20.5383 7.19473 20.539C7.15119 20.5753 7.10043 20.6176 7.06587 20.6737L7.10845 20.6999L7.06601 20.6735C6.93612 20.8819 6.87038 21.1125 6.83206 21.4074L6.81484 21.5399L6.91482 21.4513C7.18829 21.2088 7.34709 20.9583 7.39919 20.722L7.39926 20.722L7.39968 20.7195C7.40158 20.7081 7.40397 20.6931 7.40458 20.6778C7.40517 20.663 7.40435 20.6435 7.39678 20.6247L7.35036 20.6432ZM7.35036 20.6432C7.35792 20.6621 7.35414 20.6886 7.35036 20.7112C7.30487 20.9176 7.17191 21.1401 6.93949 21.3608C6.9366 21.3803 6.93385 21.4001 6.93123 21.4203L6.88165 21.4138L6.84847 21.3764C6.86358 21.363 6.8783 21.3496 6.89262 21.3363C6.93162 21.0827 6.99504 20.8819 7.10845 20.6999C7.13868 20.6508 7.18404 20.613 7.2294 20.5752L7.22941 20.5752C7.24453 20.5639 7.27855 20.5601 7.29367 20.5677C7.32013 20.5866 7.33902 20.613 7.35036 20.6432Z" fill="#020304" stroke="black" stroke-width="0.1"/>
<path d="M20.4507 15.0516L20.3833 15.053L20.4042 15.1171C20.463 15.2973 20.5936 15.3699 20.6998 15.429C20.7086 15.4339 20.7173 15.4387 20.7257 15.4435L20.7257 15.4435L20.7272 15.4443C20.7456 15.4539 20.7643 15.4642 20.7835 15.4747C20.9151 15.5468 21.0662 15.6296 21.2742 15.6045L21.355 15.5948L21.3098 15.5271C21.2049 15.3697 21.0872 15.2482 20.9458 15.1672C20.804 15.0861 20.6417 15.0476 20.4507 15.0516Z" fill="#020304" stroke="black" stroke-width="0.1"/>
<path d="M1.67282 11.457C1.71659 11.4541 1.75527 11.4324 1.79079 11.4105C1.80112 11.4041 1.81152 11.3974 1.82228 11.3906C1.85139 11.372 1.88311 11.3517 1.92315 11.3304L2.01007 11.284L1.92138 11.2412C1.74618 11.1566 1.58666 11.1263 1.43164 11.1343C1.27742 11.1423 1.13051 11.1881 0.980529 11.2515L0.892052 11.2889L0.973448 11.3399C1.21161 11.4892 1.45353 11.4759 1.67282 11.457ZM1.67282 11.457C1.6726 11.457 1.67239 11.457 1.67217 11.457L1.66906 11.4071M1.67282 11.457C1.673 11.457 1.67317 11.457 1.67335 11.4569L1.66906 11.4071M1.66906 11.4071C1.46779 11.4245 1.26015 11.4354 1.05491 11.329C1.04316 11.3337 1.03135 11.3386 1.01947 11.3436L1 11.2976L1.02655 11.2552C1.03706 11.2618 1.04757 11.268 1.0581 11.2739C1.31399 11.1738 1.55434 11.1388 1.84289 11.2606C1.85347 11.2545 1.86454 11.2483 1.87612 11.2421L1.89964 11.2862L1.8779 11.3313C1.86729 11.3261 1.85676 11.3212 1.84631 11.3166C1.8272 11.3281 1.80994 11.3391 1.79405 11.3493C1.74379 11.3814 1.70718 11.4047 1.66906 11.4071Z" fill="#020304" stroke="black" stroke-width="0.1"/>
<path d="M15.1364 2.09548L15.1405 2.14931L15.1939 2.14111C15.3681 2.11432 15.4427 1.98187 15.5022 1.87409L15.5022 1.87411L15.5031 1.8723C15.5068 1.865 15.5106 1.85749 15.5146 1.84979C15.5602 1.76043 15.6196 1.64426 15.5654 1.50672L15.5432 1.45026L15.492 1.48291C15.3367 1.582 15.2372 1.65489 15.1833 1.74614C15.1279 1.8401 15.125 1.94599 15.1364 2.09548Z" fill="#020304" stroke="black" stroke-width="0.1"/>
<path d="M2.64436 7.49318L2.67495 7.48601L2.68176 7.45535C2.69668 7.38829 2.67874 7.3351 2.64529 7.29396C2.61448 7.25606 2.57106 7.22933 2.53806 7.20917L2.53806 7.20916L2.53733 7.20874C2.53005 7.20446 2.52269 7.2001 2.51527 7.1957C2.39536 7.12466 2.2562 7.04221 2.07252 7.07414L1.998 7.08709L2.03911 7.15058C2.1428 7.31073 2.22592 7.41499 2.31925 7.4689C2.41726 7.52552 2.51857 7.52264 2.64436 7.49318Z" fill="#020304" stroke="black" stroke-width="0.1"/>
</svg>
