<svg width="23" height="18" viewBox="0 0 23 18" fill="none" xmlns="http://www.w3.org/2000/svg">
<mask id="path-1-outside-1_2_5167" maskUnits="userSpaceOnUse" x="6.22826" y="1.5639" width="12" height="13" fill="black">
<rect fill="white" x="6.22826" y="1.5639" width="12" height="13"/>
<path d="M11.7189 13.7265C11.613 13.3299 11.5299 12.971 11.5223 12.6046C11.5072 12.0115 11.5185 11.4147 11.5223 10.8216C11.5261 10.5723 11.5412 10.323 11.5488 10.0737C11.5526 10.0132 11.5337 9.94522 11.4618 9.94522C11.424 9.94522 11.3711 9.97922 11.3522 10.0132C11.2993 10.1077 11.2577 10.2059 11.2199 10.3041C11.0082 10.8405 10.6907 11.3165 10.3392 11.766C10.3052 11.8113 10.2598 11.8453 10.1804 11.9209C10.1804 11.8264 10.1691 11.7811 10.1804 11.7433C10.3052 11.3467 10.445 10.9538 10.6718 10.5987C10.8344 10.3494 10.978 10.0888 11.1368 9.81679C11.0876 9.7639 11.046 9.71101 10.9969 9.66568C10.9553 9.62413 10.9024 9.59391 10.8419 9.5448C10.7663 9.60524 10.6869 9.65813 10.6189 9.71857C10.2144 10.0888 9.80622 10.4552 9.40932 10.8292C9.19764 11.0294 8.94816 11.1654 8.68734 11.2787C8.66088 11.29 8.62308 11.2787 8.55882 11.2787C8.79696 10.8141 9.15228 10.4892 9.5265 10.187C9.89315 9.88856 10.2787 9.60524 10.6643 9.30682C10.6491 9.2766 10.6302 9.23504 10.6038 9.17083C10.5433 9.19349 10.4866 9.20482 10.4375 9.22749C10.1615 9.36726 9.88559 9.50703 9.60966 9.6468C9.16362 9.87723 8.69111 10.0397 8.21862 10.1945C7.99182 10.2701 7.75747 10.3041 7.48153 10.2739C7.51555 10.2248 7.53066 10.1794 7.5609 10.1643C7.77258 10.0548 7.9767 9.93389 8.19594 9.84323C8.90279 9.55991 9.61343 9.29171 10.3241 9.01595C10.3694 8.99706 10.4223 8.98951 10.4526 8.95928C10.4828 8.93284 10.5055 8.87618 10.4979 8.8384C10.4904 8.80063 10.445 8.7553 10.4072 8.74774C10.3505 8.73641 10.29 8.75152 10.2296 8.7553C9.48113 8.82329 8.73269 8.87618 7.98426 8.85729C7.731 8.84973 7.49286 8.80063 7.22826 8.67219C7.2963 8.62686 7.33032 8.58908 7.37946 8.57397C7.64406 8.49465 7.91623 8.47576 8.19216 8.47954C8.90658 8.48709 9.62099 8.48709 10.3354 8.49087C10.3694 8.49087 10.4034 8.48331 10.4564 8.47576C10.4753 8.40398 10.4942 8.32843 10.5168 8.23022C10.411 8.19622 10.3241 8.166 10.2371 8.14333C9.61722 7.97334 8.9973 7.81469 8.37738 7.63714C8.05608 7.54648 7.8633 7.42182 7.6176 7.19895C7.62516 7.13095 7.67808 7.13851 7.72344 7.14228C8.04474 7.15739 8.36226 7.21406 8.66843 7.31983C9.29969 7.53515 9.92717 7.75425 10.5773 7.9809C10.6718 7.93179 10.7096 7.82602 10.7474 7.70514C10.7058 7.67114 10.6756 7.63714 10.6378 7.61448C10.1426 7.32361 9.71549 6.94208 9.26945 6.58321C8.94437 6.31878 8.70624 5.97502 8.45298 5.66149C8.49834 5.5746 8.53614 5.59727 8.57772 5.62371C9.10692 5.9448 9.60209 6.31878 10.0557 6.74187C10.3354 7.00252 10.6189 7.25561 10.91 7.52004C10.9931 7.4596 11.0687 7.40294 11.1557 7.33872C11.1065 7.25939 11.0649 7.19139 11.0196 7.12717C10.6416 6.60587 10.2976 6.06569 9.98009 5.50283C9.73439 5.06841 9.48114 4.63399 9.22032 4.21091C8.92926 3.74249 8.71002 3.24386 8.48322 2.74522C8.46432 2.70367 8.46432 2.65834 8.44164 2.5639C8.51724 2.61301 8.55882 2.62812 8.5815 2.65834C8.88768 3.02476 9.18629 3.39119 9.44711 3.79161C10.101 4.78888 10.634 5.85414 11.2313 6.88164C11.2842 6.9723 11.3409 7.06673 11.3976 7.15362C11.4089 7.16873 11.4429 7.18006 11.4581 7.17251C11.4883 7.1574 11.5299 7.13095 11.5337 7.10829C11.5412 7.02518 11.5337 6.94207 11.5299 6.85897C11.5034 5.9448 11.477 5.02686 11.4467 4.1127C11.4392 3.83694 11.4807 3.56873 11.545 3.30052C11.5601 3.24764 11.5904 3.19475 11.6244 3.1192C11.6735 3.16831 11.7151 3.19097 11.7302 3.22875C11.8625 3.5234 11.9495 3.83316 11.9457 4.1618C11.9306 4.99286 11.9154 5.8277 11.9003 6.65876C11.8965 6.79853 11.8776 6.94208 11.9079 7.09318C11.9608 7.10829 12.0024 7.12717 12.0477 7.13095C12.0931 7.13473 12.1385 7.12718 12.1725 7.1234C12.4333 6.58699 12.6941 6.06569 12.9436 5.54061C13.1401 5.12508 13.4388 4.7851 13.7336 4.44134C13.7525 4.41868 13.7903 4.41868 13.8205 4.40734C13.8772 4.47534 13.8319 4.52822 13.813 4.58111C13.6353 5.16663 13.3669 5.70682 13.0381 6.22057C12.8642 6.49255 12.6941 6.76075 12.5202 7.03274C12.49 7.08184 12.4673 7.13095 12.4295 7.20273C12.5429 7.26694 12.6412 7.32361 12.7432 7.38405C12.8226 7.31227 12.8831 7.25939 12.9436 7.20273C13.401 6.76453 13.8924 6.36789 14.4102 6.00902C14.6824 5.82014 14.9923 5.68793 15.2872 5.53305C15.3023 5.5255 15.3288 5.54061 15.3741 5.54816C15.3514 5.58971 15.3401 5.63505 15.3136 5.66527C14.9999 5.99391 14.6862 6.31878 14.3157 6.57943C13.9453 6.84008 13.5749 7.09696 13.2006 7.35383C13.1137 7.41427 13.0305 7.47471 12.9285 7.55026C13.0154 7.66736 13.0872 7.76936 13.1704 7.88268C13.537 7.72403 13.8886 7.58048 14.2288 7.41805C14.6106 7.23672 15.015 7.14984 15.4233 7.07429C15.4686 7.06673 15.5178 7.07429 15.5631 7.07807C15.5707 7.07807 15.5782 7.09318 15.582 7.10073C15.3892 7.30094 15.0264 7.50871 14.4783 7.71269C14.0814 7.86002 13.6769 7.99223 13.2573 8.13956C13.28 8.2491 13.2951 8.33977 13.314 8.43798C13.3518 8.44554 13.3858 8.46442 13.4199 8.46065C13.6656 8.42665 13.915 8.37754 14.1607 8.3511C14.7769 8.28688 15.393 8.21133 16.0092 8.17355C16.3947 8.15089 16.784 8.2 17.2074 8.32466C17.1394 8.37754 17.1091 8.41154 17.0713 8.42665C16.5573 8.59286 16.0318 8.6873 15.4951 8.70619C14.8525 8.72885 14.2099 8.75152 13.5673 8.77418C13.4841 8.77796 13.4047 8.78552 13.3102 8.78929C13.2838 8.86107 13.2611 8.92529 13.2422 8.97817C13.2649 9.01217 13.2762 9.04239 13.2951 9.04617C14.1721 9.34459 14.9545 9.82056 15.703 10.3532C15.8769 10.4779 16.0318 10.6252 16.1944 10.7649C16.2171 10.7838 16.2284 10.8216 16.2662 10.8821C16.1944 10.8745 16.1528 10.8783 16.115 10.8669C15.7672 10.7801 15.4422 10.6365 15.136 10.4439C14.5917 10.1039 14.0436 9.76768 13.4955 9.43525C13.3859 9.36726 13.2838 9.28038 13.1288 9.26526C13.0683 9.34082 13.0041 9.42392 12.9398 9.51081C13.0154 9.65435 13.1402 9.72613 13.246 9.82056C13.8168 10.323 14.2817 10.9009 14.637 11.5733C14.6635 11.6225 14.6824 11.6753 14.7277 11.7811C14.6408 11.7433 14.5992 11.7358 14.5652 11.7131C14.293 11.5167 14.0511 11.2938 13.8395 11.0332C13.5257 10.6441 13.2044 10.2625 12.8831 9.87722C12.8378 9.82434 12.7886 9.77523 12.7319 9.70724C12.6336 9.76768 12.5429 9.81679 12.4333 9.881C12.4711 9.949 12.5013 10.0094 12.5354 10.0661C12.9323 10.6743 13.3367 11.2749 13.7185 11.8907C13.8659 12.1324 13.9642 12.4044 14.0814 12.6651C14.0927 12.6915 14.0738 12.7293 14.0662 12.7859C13.7827 12.5933 13.5673 12.3628 13.3934 12.0909C13.2535 11.8718 13.125 11.6413 12.9927 11.4147C12.7395 10.9727 12.4862 10.527 12.233 10.0812C12.1574 9.949 12.1536 9.95278 11.9192 10.0094C11.9154 10.0472 11.9041 10.0925 11.9041 10.1341C11.9192 10.8481 11.9268 11.562 11.9495 12.276C11.9646 12.7331 11.8852 13.175 11.7983 13.6208C11.7983 13.651 11.7718 13.6661 11.7189 13.7265Z"/>
</mask>
<path d="M11.7189 13.7265C11.613 13.3299 11.5299 12.971 11.5223 12.6046C11.5072 12.0115 11.5185 11.4147 11.5223 10.8216C11.5261 10.5723 11.5412 10.323 11.5488 10.0737C11.5526 10.0132 11.5337 9.94522 11.4618 9.94522C11.424 9.94522 11.3711 9.97922 11.3522 10.0132C11.2993 10.1077 11.2577 10.2059 11.2199 10.3041C11.0082 10.8405 10.6907 11.3165 10.3392 11.766C10.3052 11.8113 10.2598 11.8453 10.1804 11.9209C10.1804 11.8264 10.1691 11.7811 10.1804 11.7433C10.3052 11.3467 10.445 10.9538 10.6718 10.5987C10.8344 10.3494 10.978 10.0888 11.1368 9.81679C11.0876 9.7639 11.046 9.71101 10.9969 9.66568C10.9553 9.62413 10.9024 9.59391 10.8419 9.5448C10.7663 9.60524 10.6869 9.65813 10.6189 9.71857C10.2144 10.0888 9.80622 10.4552 9.40932 10.8292C9.19764 11.0294 8.94816 11.1654 8.68734 11.2787C8.66088 11.29 8.62308 11.2787 8.55882 11.2787C8.79696 10.8141 9.15228 10.4892 9.5265 10.187C9.89315 9.88856 10.2787 9.60524 10.6643 9.30682C10.6491 9.2766 10.6302 9.23504 10.6038 9.17083C10.5433 9.19349 10.4866 9.20482 10.4375 9.22749C10.1615 9.36726 9.88559 9.50703 9.60966 9.6468C9.16362 9.87723 8.69111 10.0397 8.21862 10.1945C7.99182 10.2701 7.75747 10.3041 7.48153 10.2739C7.51555 10.2248 7.53066 10.1794 7.5609 10.1643C7.77258 10.0548 7.9767 9.93389 8.19594 9.84323C8.90279 9.55991 9.61343 9.29171 10.3241 9.01595C10.3694 8.99706 10.4223 8.98951 10.4526 8.95928C10.4828 8.93284 10.5055 8.87618 10.4979 8.8384C10.4904 8.80063 10.445 8.7553 10.4072 8.74774C10.3505 8.73641 10.29 8.75152 10.2296 8.7553C9.48113 8.82329 8.73269 8.87618 7.98426 8.85729C7.731 8.84973 7.49286 8.80063 7.22826 8.67219C7.2963 8.62686 7.33032 8.58908 7.37946 8.57397C7.64406 8.49465 7.91623 8.47576 8.19216 8.47954C8.90658 8.48709 9.62099 8.48709 10.3354 8.49087C10.3694 8.49087 10.4034 8.48331 10.4564 8.47576C10.4753 8.40398 10.4942 8.32843 10.5168 8.23022C10.411 8.19622 10.3241 8.166 10.2371 8.14333C9.61722 7.97334 8.9973 7.81469 8.37738 7.63714C8.05608 7.54648 7.8633 7.42182 7.6176 7.19895C7.62516 7.13095 7.67808 7.13851 7.72344 7.14228C8.04474 7.15739 8.36226 7.21406 8.66843 7.31983C9.29969 7.53515 9.92717 7.75425 10.5773 7.9809C10.6718 7.93179 10.7096 7.82602 10.7474 7.70514C10.7058 7.67114 10.6756 7.63714 10.6378 7.61448C10.1426 7.32361 9.71549 6.94208 9.26945 6.58321C8.94437 6.31878 8.70624 5.97502 8.45298 5.66149C8.49834 5.5746 8.53614 5.59727 8.57772 5.62371C9.10692 5.9448 9.60209 6.31878 10.0557 6.74187C10.3354 7.00252 10.6189 7.25561 10.91 7.52004C10.9931 7.4596 11.0687 7.40294 11.1557 7.33872C11.1065 7.25939 11.0649 7.19139 11.0196 7.12717C10.6416 6.60587 10.2976 6.06569 9.98009 5.50283C9.73439 5.06841 9.48114 4.63399 9.22032 4.21091C8.92926 3.74249 8.71002 3.24386 8.48322 2.74522C8.46432 2.70367 8.46432 2.65834 8.44164 2.5639C8.51724 2.61301 8.55882 2.62812 8.5815 2.65834C8.88768 3.02476 9.18629 3.39119 9.44711 3.79161C10.101 4.78888 10.634 5.85414 11.2313 6.88164C11.2842 6.9723 11.3409 7.06673 11.3976 7.15362C11.4089 7.16873 11.4429 7.18006 11.4581 7.17251C11.4883 7.1574 11.5299 7.13095 11.5337 7.10829C11.5412 7.02518 11.5337 6.94207 11.5299 6.85897C11.5034 5.9448 11.477 5.02686 11.4467 4.1127C11.4392 3.83694 11.4807 3.56873 11.545 3.30052C11.5601 3.24764 11.5904 3.19475 11.6244 3.1192C11.6735 3.16831 11.7151 3.19097 11.7302 3.22875C11.8625 3.5234 11.9495 3.83316 11.9457 4.1618C11.9306 4.99286 11.9154 5.8277 11.9003 6.65876C11.8965 6.79853 11.8776 6.94208 11.9079 7.09318C11.9608 7.10829 12.0024 7.12717 12.0477 7.13095C12.0931 7.13473 12.1385 7.12718 12.1725 7.1234C12.4333 6.58699 12.6941 6.06569 12.9436 5.54061C13.1401 5.12508 13.4388 4.7851 13.7336 4.44134C13.7525 4.41868 13.7903 4.41868 13.8205 4.40734C13.8772 4.47534 13.8319 4.52822 13.813 4.58111C13.6353 5.16663 13.3669 5.70682 13.0381 6.22057C12.8642 6.49255 12.6941 6.76075 12.5202 7.03274C12.49 7.08184 12.4673 7.13095 12.4295 7.20273C12.5429 7.26694 12.6412 7.32361 12.7432 7.38405C12.8226 7.31227 12.8831 7.25939 12.9436 7.20273C13.401 6.76453 13.8924 6.36789 14.4102 6.00902C14.6824 5.82014 14.9923 5.68793 15.2872 5.53305C15.3023 5.5255 15.3288 5.54061 15.3741 5.54816C15.3514 5.58971 15.3401 5.63505 15.3136 5.66527C14.9999 5.99391 14.6862 6.31878 14.3157 6.57943C13.9453 6.84008 13.5749 7.09696 13.2006 7.35383C13.1137 7.41427 13.0305 7.47471 12.9285 7.55026C13.0154 7.66736 13.0872 7.76936 13.1704 7.88268C13.537 7.72403 13.8886 7.58048 14.2288 7.41805C14.6106 7.23672 15.015 7.14984 15.4233 7.07429C15.4686 7.06673 15.5178 7.07429 15.5631 7.07807C15.5707 7.07807 15.5782 7.09318 15.582 7.10073C15.3892 7.30094 15.0264 7.50871 14.4783 7.71269C14.0814 7.86002 13.6769 7.99223 13.2573 8.13956C13.28 8.2491 13.2951 8.33977 13.314 8.43798C13.3518 8.44554 13.3858 8.46442 13.4199 8.46065C13.6656 8.42665 13.915 8.37754 14.1607 8.3511C14.7769 8.28688 15.393 8.21133 16.0092 8.17355C16.3947 8.15089 16.784 8.2 17.2074 8.32466C17.1394 8.37754 17.1091 8.41154 17.0713 8.42665C16.5573 8.59286 16.0318 8.6873 15.4951 8.70619C14.8525 8.72885 14.2099 8.75152 13.5673 8.77418C13.4841 8.77796 13.4047 8.78552 13.3102 8.78929C13.2838 8.86107 13.2611 8.92529 13.2422 8.97817C13.2649 9.01217 13.2762 9.04239 13.2951 9.04617C14.1721 9.34459 14.9545 9.82056 15.703 10.3532C15.8769 10.4779 16.0318 10.6252 16.1944 10.7649C16.2171 10.7838 16.2284 10.8216 16.2662 10.8821C16.1944 10.8745 16.1528 10.8783 16.115 10.8669C15.7672 10.7801 15.4422 10.6365 15.136 10.4439C14.5917 10.1039 14.0436 9.76768 13.4955 9.43525C13.3859 9.36726 13.2838 9.28038 13.1288 9.26526C13.0683 9.34082 13.0041 9.42392 12.9398 9.51081C13.0154 9.65435 13.1402 9.72613 13.246 9.82056C13.8168 10.323 14.2817 10.9009 14.637 11.5733C14.6635 11.6225 14.6824 11.6753 14.7277 11.7811C14.6408 11.7433 14.5992 11.7358 14.5652 11.7131C14.293 11.5167 14.0511 11.2938 13.8395 11.0332C13.5257 10.6441 13.2044 10.2625 12.8831 9.87722C12.8378 9.82434 12.7886 9.77523 12.7319 9.70724C12.6336 9.76768 12.5429 9.81679 12.4333 9.881C12.4711 9.949 12.5013 10.0094 12.5354 10.0661C12.9323 10.6743 13.3367 11.2749 13.7185 11.8907C13.8659 12.1324 13.9642 12.4044 14.0814 12.6651C14.0927 12.6915 14.0738 12.7293 14.0662 12.7859C13.7827 12.5933 13.5673 12.3628 13.3934 12.0909C13.2535 11.8718 13.125 11.6413 12.9927 11.4147C12.7395 10.9727 12.4862 10.527 12.233 10.0812C12.1574 9.949 12.1536 9.95278 11.9192 10.0094C11.9154 10.0472 11.9041 10.0925 11.9041 10.1341C11.9192 10.8481 11.9268 11.562 11.9495 12.276C11.9646 12.7331 11.8852 13.175 11.7983 13.6208C11.7983 13.651 11.7718 13.6661 11.7189 13.7265Z" fill="#020304"/>
<path d="M11.7189 13.7265C11.613 13.3299 11.5299 12.971 11.5223 12.6046C11.5072 12.0115 11.5185 11.4147 11.5223 10.8216C11.5261 10.5723 11.5412 10.323 11.5488 10.0737C11.5526 10.0132 11.5337 9.94522 11.4618 9.94522C11.424 9.94522 11.3711 9.97922 11.3522 10.0132C11.2993 10.1077 11.2577 10.2059 11.2199 10.3041C11.0082 10.8405 10.6907 11.3165 10.3392 11.766C10.3052 11.8113 10.2598 11.8453 10.1804 11.9209C10.1804 11.8264 10.1691 11.7811 10.1804 11.7433C10.3052 11.3467 10.445 10.9538 10.6718 10.5987C10.8344 10.3494 10.978 10.0888 11.1368 9.81679C11.0876 9.7639 11.046 9.71101 10.9969 9.66568C10.9553 9.62413 10.9024 9.59391 10.8419 9.5448C10.7663 9.60524 10.6869 9.65813 10.6189 9.71857C10.2144 10.0888 9.80622 10.4552 9.40932 10.8292C9.19764 11.0294 8.94816 11.1654 8.68734 11.2787C8.66088 11.29 8.62308 11.2787 8.55882 11.2787C8.79696 10.8141 9.15228 10.4892 9.5265 10.187C9.89315 9.88856 10.2787 9.60524 10.6643 9.30682C10.6491 9.2766 10.6302 9.23504 10.6038 9.17083C10.5433 9.19349 10.4866 9.20482 10.4375 9.22749C10.1615 9.36726 9.88559 9.50703 9.60966 9.6468C9.16362 9.87723 8.69111 10.0397 8.21862 10.1945C7.99182 10.2701 7.75747 10.3041 7.48153 10.2739C7.51555 10.2248 7.53066 10.1794 7.5609 10.1643C7.77258 10.0548 7.9767 9.93389 8.19594 9.84323C8.90279 9.55991 9.61343 9.29171 10.3241 9.01595C10.3694 8.99706 10.4223 8.98951 10.4526 8.95928C10.4828 8.93284 10.5055 8.87618 10.4979 8.8384C10.4904 8.80063 10.445 8.7553 10.4072 8.74774C10.3505 8.73641 10.29 8.75152 10.2296 8.7553C9.48113 8.82329 8.73269 8.87618 7.98426 8.85729C7.731 8.84973 7.49286 8.80063 7.22826 8.67219C7.2963 8.62686 7.33032 8.58908 7.37946 8.57397C7.64406 8.49465 7.91623 8.47576 8.19216 8.47954C8.90658 8.48709 9.62099 8.48709 10.3354 8.49087C10.3694 8.49087 10.4034 8.48331 10.4564 8.47576C10.4753 8.40398 10.4942 8.32843 10.5168 8.23022C10.411 8.19622 10.3241 8.166 10.2371 8.14333C9.61722 7.97334 8.9973 7.81469 8.37738 7.63714C8.05608 7.54648 7.8633 7.42182 7.6176 7.19895C7.62516 7.13095 7.67808 7.13851 7.72344 7.14228C8.04474 7.15739 8.36226 7.21406 8.66843 7.31983C9.29969 7.53515 9.92717 7.75425 10.5773 7.9809C10.6718 7.93179 10.7096 7.82602 10.7474 7.70514C10.7058 7.67114 10.6756 7.63714 10.6378 7.61448C10.1426 7.32361 9.71549 6.94208 9.26945 6.58321C8.94437 6.31878 8.70624 5.97502 8.45298 5.66149C8.49834 5.5746 8.53614 5.59727 8.57772 5.62371C9.10692 5.9448 9.60209 6.31878 10.0557 6.74187C10.3354 7.00252 10.6189 7.25561 10.91 7.52004C10.9931 7.4596 11.0687 7.40294 11.1557 7.33872C11.1065 7.25939 11.0649 7.19139 11.0196 7.12717C10.6416 6.60587 10.2976 6.06569 9.98009 5.50283C9.73439 5.06841 9.48114 4.63399 9.22032 4.21091C8.92926 3.74249 8.71002 3.24386 8.48322 2.74522C8.46432 2.70367 8.46432 2.65834 8.44164 2.5639C8.51724 2.61301 8.55882 2.62812 8.5815 2.65834C8.88768 3.02476 9.18629 3.39119 9.44711 3.79161C10.101 4.78888 10.634 5.85414 11.2313 6.88164C11.2842 6.9723 11.3409 7.06673 11.3976 7.15362C11.4089 7.16873 11.4429 7.18006 11.4581 7.17251C11.4883 7.1574 11.5299 7.13095 11.5337 7.10829C11.5412 7.02518 11.5337 6.94207 11.5299 6.85897C11.5034 5.9448 11.477 5.02686 11.4467 4.1127C11.4392 3.83694 11.4807 3.56873 11.545 3.30052C11.5601 3.24764 11.5904 3.19475 11.6244 3.1192C11.6735 3.16831 11.7151 3.19097 11.7302 3.22875C11.8625 3.5234 11.9495 3.83316 11.9457 4.1618C11.9306 4.99286 11.9154 5.8277 11.9003 6.65876C11.8965 6.79853 11.8776 6.94208 11.9079 7.09318C11.9608 7.10829 12.0024 7.12717 12.0477 7.13095C12.0931 7.13473 12.1385 7.12718 12.1725 7.1234C12.4333 6.58699 12.6941 6.06569 12.9436 5.54061C13.1401 5.12508 13.4388 4.7851 13.7336 4.44134C13.7525 4.41868 13.7903 4.41868 13.8205 4.40734C13.8772 4.47534 13.8319 4.52822 13.813 4.58111C13.6353 5.16663 13.3669 5.70682 13.0381 6.22057C12.8642 6.49255 12.6941 6.76075 12.5202 7.03274C12.49 7.08184 12.4673 7.13095 12.4295 7.20273C12.5429 7.26694 12.6412 7.32361 12.7432 7.38405C12.8226 7.31227 12.8831 7.25939 12.9436 7.20273C13.401 6.76453 13.8924 6.36789 14.4102 6.00902C14.6824 5.82014 14.9923 5.68793 15.2872 5.53305C15.3023 5.5255 15.3288 5.54061 15.3741 5.54816C15.3514 5.58971 15.3401 5.63505 15.3136 5.66527C14.9999 5.99391 14.6862 6.31878 14.3157 6.57943C13.9453 6.84008 13.5749 7.09696 13.2006 7.35383C13.1137 7.41427 13.0305 7.47471 12.9285 7.55026C13.0154 7.66736 13.0872 7.76936 13.1704 7.88268C13.537 7.72403 13.8886 7.58048 14.2288 7.41805C14.6106 7.23672 15.015 7.14984 15.4233 7.07429C15.4686 7.06673 15.5178 7.07429 15.5631 7.07807C15.5707 7.07807 15.5782 7.09318 15.582 7.10073C15.3892 7.30094 15.0264 7.50871 14.4783 7.71269C14.0814 7.86002 13.6769 7.99223 13.2573 8.13956C13.28 8.2491 13.2951 8.33977 13.314 8.43798C13.3518 8.44554 13.3858 8.46442 13.4199 8.46065C13.6656 8.42665 13.915 8.37754 14.1607 8.3511C14.7769 8.28688 15.393 8.21133 16.0092 8.17355C16.3947 8.15089 16.784 8.2 17.2074 8.32466C17.1394 8.37754 17.1091 8.41154 17.0713 8.42665C16.5573 8.59286 16.0318 8.6873 15.4951 8.70619C14.8525 8.72885 14.2099 8.75152 13.5673 8.77418C13.4841 8.77796 13.4047 8.78552 13.3102 8.78929C13.2838 8.86107 13.2611 8.92529 13.2422 8.97817C13.2649 9.01217 13.2762 9.04239 13.2951 9.04617C14.1721 9.34459 14.9545 9.82056 15.703 10.3532C15.8769 10.4779 16.0318 10.6252 16.1944 10.7649C16.2171 10.7838 16.2284 10.8216 16.2662 10.8821C16.1944 10.8745 16.1528 10.8783 16.115 10.8669C15.7672 10.7801 15.4422 10.6365 15.136 10.4439C14.5917 10.1039 14.0436 9.76768 13.4955 9.43525C13.3859 9.36726 13.2838 9.28038 13.1288 9.26526C13.0683 9.34082 13.0041 9.42392 12.9398 9.51081C13.0154 9.65435 13.1402 9.72613 13.246 9.82056C13.8168 10.323 14.2817 10.9009 14.637 11.5733C14.6635 11.6225 14.6824 11.6753 14.7277 11.7811C14.6408 11.7433 14.5992 11.7358 14.5652 11.7131C14.293 11.5167 14.0511 11.2938 13.8395 11.0332C13.5257 10.6441 13.2044 10.2625 12.8831 9.87722C12.8378 9.82434 12.7886 9.77523 12.7319 9.70724C12.6336 9.76768 12.5429 9.81679 12.4333 9.881C12.4711 9.949 12.5013 10.0094 12.5354 10.0661C12.9323 10.6743 13.3367 11.2749 13.7185 11.8907C13.8659 12.1324 13.9642 12.4044 14.0814 12.6651C14.0927 12.6915 14.0738 12.7293 14.0662 12.7859C13.7827 12.5933 13.5673 12.3628 13.3934 12.0909C13.2535 11.8718 13.125 11.6413 12.9927 11.4147C12.7395 10.9727 12.4862 10.527 12.233 10.0812C12.1574 9.949 12.1536 9.95278 11.9192 10.0094C11.9154 10.0472 11.9041 10.0925 11.9041 10.1341C11.9192 10.8481 11.9268 11.562 11.9495 12.276C11.9646 12.7331 11.8852 13.175 11.7983 13.6208C11.7983 13.651 11.7718 13.6661 11.7189 13.7265Z" stroke="black" stroke-width="0.2" mask="url(#path-1-outside-1_2_5167)"/>
<mask id="path-2-outside-2_2_5167" maskUnits="userSpaceOnUse" x="14.8837" y="0.707733" width="8" height="17" fill="black">
<rect fill="white" x="14.8837" y="0.707733" width="8" height="17"/>
<path d="M17.9143 15.6758C17.8235 15.9855 17.8991 16.3142 17.6988 16.6088C17.5552 16.2953 17.661 15.9742 17.5665 15.6833C17.4455 15.6304 17.3321 15.6267 17.2074 15.6644C17.1129 15.9629 17.1772 16.3028 16.9617 16.605C16.9277 16.5371 16.8975 16.4993 16.8975 16.4615C16.8899 16.3066 16.8899 16.1517 16.8823 15.9969C16.8785 15.8684 16.871 15.7362 16.8634 15.5964C16.7387 15.5587 16.6215 15.5284 16.5119 15.4907C16.3304 15.4265 16.1604 15.3433 16.0318 15.1922C15.7975 14.9127 15.8428 14.5916 16.1566 14.4065C16.2662 14.3423 16.3909 14.2932 16.5232 14.2327C16.493 14.1119 16.4627 13.9985 16.4325 13.889C16.2964 13.4281 16.2246 12.9635 16.2284 12.4837C16.2322 12.1098 16.2927 11.7509 16.4325 11.4034C16.6555 10.8518 16.905 10.3154 17.2339 9.81302C17.4796 9.43527 17.7064 9.0424 17.9407 8.65332C17.9747 8.59288 18.0012 8.52866 18.0314 8.46066C17.8991 8.38133 17.7215 8.46822 17.6345 8.29445C17.6345 8.20001 17.7139 8.16979 17.7971 8.15468C17.9256 8.13579 18.0541 8.13202 18.2053 8.11691C18.2545 8.00358 18.3036 7.88648 18.3565 7.76937C18.4057 7.65605 18.4094 7.54272 18.3527 7.42561C18.3149 7.35384 18.2885 7.27074 18.2771 7.18763C18.2318 6.90054 18.1146 6.63988 17.9936 6.38301C17.8878 6.15636 17.7782 5.93349 17.6761 5.70306C17.627 5.59351 17.5816 5.48396 17.5514 5.37063C17.4909 5.14776 17.4871 4.92488 17.6648 4.73223C17.5854 4.59246 17.506 4.46024 17.4304 4.32425C17.249 4.00316 17.2187 3.75007 17.3737 3.42142C17.2301 3.13433 17.1658 2.80946 17.1318 2.47703C17.1205 2.37126 17.1243 2.26171 17.1469 2.15972C17.1999 1.9444 17.3888 1.85374 17.5892 1.94062C17.6837 1.98218 17.7706 2.05395 17.85 2.12194C17.9861 2.23905 18.1108 2.35993 18.2469 2.48837C18.3187 2.47326 18.2923 2.40526 18.2998 2.35237C18.3187 2.2126 18.3187 2.06528 18.3603 1.93307C18.4359 1.70264 18.6438 1.63842 18.8441 1.78952C19.0218 1.92551 19.1957 2.08039 19.328 2.25794C19.5775 2.59036 19.8496 2.90767 20.1407 3.2061C20.3145 3.38364 20.4884 3.56497 20.6774 3.7274C20.908 3.92383 21.0857 4.15426 21.2217 4.42625C21.4448 4.87577 21.6035 5.34797 21.7358 5.83149C21.8492 6.24324 21.9853 6.65122 22.1554 7.04408C22.3671 7.53894 22.5145 8.04891 22.6203 8.57777C22.7526 9.24261 22.6846 9.88102 22.3898 10.4892C22.3028 10.6705 22.2083 10.8518 22.0987 11.0181C21.8001 11.4751 21.4826 11.9247 21.1839 12.3818C20.9496 12.7406 20.7228 13.1033 20.5073 13.4735C20.4015 13.6548 20.3108 13.8512 20.3108 14.093C20.3864 14.1081 20.4506 14.127 20.5187 14.1383C20.6736 14.1648 20.8173 14.2214 20.9382 14.3234C21.1424 14.4972 21.165 14.7578 20.976 14.9505C20.8778 15.0525 20.753 15.128 20.6321 15.2036C20.5111 15.2791 20.3788 15.332 20.2389 15.4038C20.2314 15.4793 20.2163 15.5624 20.22 15.6418C20.2389 15.9629 20.2616 16.284 20.2843 16.6013C20.2881 16.6655 20.2843 16.7335 20.2843 16.8506C20.1066 16.7184 20.1029 16.5559 20.0651 16.4162C20.0273 16.2802 20.0046 16.1366 19.9781 15.9969C19.9517 15.8458 19.9328 15.6947 19.9101 15.5247C19.5661 15.5662 19.2373 15.6116 18.9122 15.638C18.5795 15.6644 18.2507 15.6644 17.9143 15.6758ZM18.6892 2.23527C18.64 2.67724 18.7459 3.03611 18.9538 3.36476C19.1692 3.70473 19.3847 4.04849 19.6077 4.38847C19.6757 4.49424 19.74 4.61135 19.8685 4.66801C19.9252 4.63023 19.9744 4.59624 20.0273 4.56979C20.3183 4.42247 20.5414 4.51691 20.6321 4.82667C20.685 5.00043 20.6812 5.18176 20.6434 5.35552C20.5867 5.6124 20.5262 5.86549 20.4431 6.11103C20.375 6.31124 20.3523 6.49256 20.4393 6.69655C20.5035 6.84765 20.5451 7.01386 20.5678 7.1763C20.6585 7.76937 20.6623 8.35111 20.2163 8.81953C19.9819 9.06507 19.8987 9.33705 19.9139 9.65814C19.9176 9.72992 19.9063 9.80169 19.9063 9.87346C19.9101 10.2097 19.8458 10.5345 19.7816 10.8632C19.7702 10.9236 19.74 10.9841 19.706 11.0898C19.6644 11.0067 19.6342 10.969 19.6266 10.9236C19.5548 10.561 19.4943 10.1983 19.5132 9.82813C19.5434 9.21239 19.5661 8.59288 19.6039 7.97714C19.6417 7.34629 19.7702 6.73055 19.997 6.1337C20.0688 5.94482 20.1444 5.75594 20.1974 5.56329C20.2427 5.40463 20.2654 5.23842 20.2843 5.07221C20.2919 5.0231 20.2541 4.96643 20.2314 4.89466C20.1558 4.95888 20.0953 4.99665 20.05 5.04954C19.7967 5.32152 19.5812 5.61995 19.4527 5.97126C19.241 6.53789 19.0369 7.1083 18.8215 7.67493C18.6929 8.00736 18.572 8.34356 18.4094 8.66087C18.1562 9.1444 17.8727 9.61659 17.5854 10.0812C17.3019 10.5383 17.0713 11.0181 16.8748 11.5167C16.7349 11.8642 16.6744 12.2231 16.6744 12.5971C16.6744 13.0919 16.784 13.5641 16.9126 14.0325C17.0108 14.3876 17.094 14.7465 17.1847 15.1016C17.1923 15.1356 17.215 15.162 17.2339 15.196C17.3284 15.196 17.4153 15.196 17.5363 15.196C17.4833 14.9316 17.4418 14.6861 17.3813 14.4481C17.3095 14.1421 17.3246 13.8323 17.3624 13.5263C17.3662 13.4886 17.4002 13.4546 17.4342 13.3941C17.4758 13.4621 17.5098 13.4999 17.5249 13.5415C17.6799 13.9419 17.8084 14.3499 17.8424 14.7805C17.8538 14.9278 17.8538 15.0865 17.9256 15.2149C18.6022 15.2942 19.4867 15.1998 19.8836 15.0034C19.8836 14.8712 19.8836 14.7314 19.8836 14.5878C19.8799 14.0628 20.0121 13.5755 20.2843 13.1259C20.4733 12.8086 20.6736 12.4989 20.8778 12.1929C21.1688 11.7585 21.4712 11.3316 21.7623 10.8972C21.887 10.7083 22.0004 10.5119 22.0987 10.3117C22.3444 9.8168 22.4049 9.28794 22.3142 8.74775C22.231 8.24156 22.0987 7.74671 21.8795 7.28207C21.6829 6.86276 21.5279 6.42456 21.3956 5.97881C21.2595 5.5104 21.097 5.04954 20.8853 4.61135C20.7719 4.36958 20.6132 4.17315 20.409 3.9956C19.9063 3.55741 19.4263 3.10033 19.0369 2.55258C18.9462 2.43926 18.863 2.32215 18.6892 2.23527ZM19.585 4.98154C19.4603 4.83422 19.3431 4.71712 19.2486 4.58113C19.0445 4.29025 18.8479 3.99183 18.6514 3.6934C18.5909 3.60274 18.5417 3.5083 18.4926 3.41387C18.4057 3.24388 18.1373 2.87745 18.005 2.7528C17.9521 2.70369 17.9067 2.6508 17.8576 2.59791C17.782 2.52236 17.7101 2.43926 17.6308 2.37126C17.593 2.33726 17.5363 2.32593 17.4682 2.29571C17.4493 2.84345 17.5854 3.31187 17.9256 3.70851C18.0428 3.8445 18.1675 3.96916 18.2923 4.0976C18.6589 4.47913 18.9424 4.91355 19.0936 5.42729C19.1087 5.48018 19.1049 5.55195 19.2032 5.54818C19.3242 5.37441 19.4489 5.18553 19.585 4.98154ZM17.5249 3.67451C17.5022 3.68585 17.4833 3.69718 17.4607 3.70851C17.4833 3.79917 17.4909 3.89361 17.5325 3.97294C17.6043 4.10893 17.6912 4.23359 17.782 4.35825C18.1826 4.91733 18.5833 5.47262 18.8479 6.11481C18.8593 6.14125 18.8971 6.16014 18.9235 6.1828C19.0785 5.98637 19.0596 5.79749 18.9613 5.58217C18.8215 5.27997 18.6778 4.97777 18.4624 4.72467C18.1637 4.36958 17.8424 4.02205 17.5249 3.67451ZM17.7706 4.92488C17.7101 5.15531 17.7782 5.29508 17.8424 5.43485C17.9294 5.61617 18.0239 5.79372 18.1222 5.97126C18.2847 6.26213 18.417 6.56811 18.5153 6.8892C18.5304 6.93453 18.5115 7.00631 18.5984 7.0252C18.6816 6.91942 18.7156 6.79854 18.7383 6.69277C18.485 6.0657 18.2015 5.48396 17.7706 4.92488ZM20.2049 6.99498C20.1747 7.09697 20.1444 7.17252 20.1369 7.25185C20.0802 7.6976 20.0311 8.14335 19.9819 8.59288C19.9819 8.60421 19.9857 8.61932 19.9933 8.62687C20.0008 8.63443 20.0121 8.63065 20.0235 8.63065C20.3561 8.24534 20.4242 7.66738 20.2049 6.99498ZM16.2662 14.7692C16.2926 14.9127 16.372 14.9769 16.4703 15.026C16.561 15.0714 16.648 15.1205 16.7576 15.0978C16.7274 14.7767 16.7236 14.7654 16.5875 14.5123C16.4514 14.5538 16.3456 14.6369 16.2662 14.7692ZM20.2692 14.8712C20.3675 14.8485 20.4506 14.7956 20.5262 14.7238C20.5376 14.7125 20.5376 14.6861 20.5413 14.6634C20.4544 14.5992 20.3637 14.5689 20.2578 14.5916C20.2125 14.6861 20.186 14.7729 20.2692 14.8712Z"/>
</mask>
<path d="M17.9143 15.6758C17.8235 15.9855 17.8991 16.3142 17.6988 16.6088C17.5552 16.2953 17.661 15.9742 17.5665 15.6833C17.4455 15.6304 17.3321 15.6267 17.2074 15.6644C17.1129 15.9629 17.1772 16.3028 16.9617 16.605C16.9277 16.5371 16.8975 16.4993 16.8975 16.4615C16.8899 16.3066 16.8899 16.1517 16.8823 15.9969C16.8785 15.8684 16.871 15.7362 16.8634 15.5964C16.7387 15.5587 16.6215 15.5284 16.5119 15.4907C16.3304 15.4265 16.1604 15.3433 16.0318 15.1922C15.7975 14.9127 15.8428 14.5916 16.1566 14.4065C16.2662 14.3423 16.3909 14.2932 16.5232 14.2327C16.493 14.1119 16.4627 13.9985 16.4325 13.889C16.2964 13.4281 16.2246 12.9635 16.2284 12.4837C16.2322 12.1098 16.2927 11.7509 16.4325 11.4034C16.6555 10.8518 16.905 10.3154 17.2339 9.81302C17.4796 9.43527 17.7064 9.0424 17.9407 8.65332C17.9747 8.59288 18.0012 8.52866 18.0314 8.46066C17.8991 8.38133 17.7215 8.46822 17.6345 8.29445C17.6345 8.20001 17.7139 8.16979 17.7971 8.15468C17.9256 8.13579 18.0541 8.13202 18.2053 8.11691C18.2545 8.00358 18.3036 7.88648 18.3565 7.76937C18.4057 7.65605 18.4094 7.54272 18.3527 7.42561C18.3149 7.35384 18.2885 7.27074 18.2771 7.18763C18.2318 6.90054 18.1146 6.63988 17.9936 6.38301C17.8878 6.15636 17.7782 5.93349 17.6761 5.70306C17.627 5.59351 17.5816 5.48396 17.5514 5.37063C17.4909 5.14776 17.4871 4.92488 17.6648 4.73223C17.5854 4.59246 17.506 4.46024 17.4304 4.32425C17.249 4.00316 17.2187 3.75007 17.3737 3.42142C17.2301 3.13433 17.1658 2.80946 17.1318 2.47703C17.1205 2.37126 17.1243 2.26171 17.1469 2.15972C17.1999 1.9444 17.3888 1.85374 17.5892 1.94062C17.6837 1.98218 17.7706 2.05395 17.85 2.12194C17.9861 2.23905 18.1108 2.35993 18.2469 2.48837C18.3187 2.47326 18.2923 2.40526 18.2998 2.35237C18.3187 2.2126 18.3187 2.06528 18.3603 1.93307C18.4359 1.70264 18.6438 1.63842 18.8441 1.78952C19.0218 1.92551 19.1957 2.08039 19.328 2.25794C19.5775 2.59036 19.8496 2.90767 20.1407 3.2061C20.3145 3.38364 20.4884 3.56497 20.6774 3.7274C20.908 3.92383 21.0857 4.15426 21.2217 4.42625C21.4448 4.87577 21.6035 5.34797 21.7358 5.83149C21.8492 6.24324 21.9853 6.65122 22.1554 7.04408C22.3671 7.53894 22.5145 8.04891 22.6203 8.57777C22.7526 9.24261 22.6846 9.88102 22.3898 10.4892C22.3028 10.6705 22.2083 10.8518 22.0987 11.0181C21.8001 11.4751 21.4826 11.9247 21.1839 12.3818C20.9496 12.7406 20.7228 13.1033 20.5073 13.4735C20.4015 13.6548 20.3108 13.8512 20.3108 14.093C20.3864 14.1081 20.4506 14.127 20.5187 14.1383C20.6736 14.1648 20.8173 14.2214 20.9382 14.3234C21.1424 14.4972 21.165 14.7578 20.976 14.9505C20.8778 15.0525 20.753 15.128 20.6321 15.2036C20.5111 15.2791 20.3788 15.332 20.2389 15.4038C20.2314 15.4793 20.2163 15.5624 20.22 15.6418C20.2389 15.9629 20.2616 16.284 20.2843 16.6013C20.2881 16.6655 20.2843 16.7335 20.2843 16.8506C20.1066 16.7184 20.1029 16.5559 20.0651 16.4162C20.0273 16.2802 20.0046 16.1366 19.9781 15.9969C19.9517 15.8458 19.9328 15.6947 19.9101 15.5247C19.5661 15.5662 19.2373 15.6116 18.9122 15.638C18.5795 15.6644 18.2507 15.6644 17.9143 15.6758ZM18.6892 2.23527C18.64 2.67724 18.7459 3.03611 18.9538 3.36476C19.1692 3.70473 19.3847 4.04849 19.6077 4.38847C19.6757 4.49424 19.74 4.61135 19.8685 4.66801C19.9252 4.63023 19.9744 4.59624 20.0273 4.56979C20.3183 4.42247 20.5414 4.51691 20.6321 4.82667C20.685 5.00043 20.6812 5.18176 20.6434 5.35552C20.5867 5.6124 20.5262 5.86549 20.4431 6.11103C20.375 6.31124 20.3523 6.49256 20.4393 6.69655C20.5035 6.84765 20.5451 7.01386 20.5678 7.1763C20.6585 7.76937 20.6623 8.35111 20.2163 8.81953C19.9819 9.06507 19.8987 9.33705 19.9139 9.65814C19.9176 9.72992 19.9063 9.80169 19.9063 9.87346C19.9101 10.2097 19.8458 10.5345 19.7816 10.8632C19.7702 10.9236 19.74 10.9841 19.706 11.0898C19.6644 11.0067 19.6342 10.969 19.6266 10.9236C19.5548 10.561 19.4943 10.1983 19.5132 9.82813C19.5434 9.21239 19.5661 8.59288 19.6039 7.97714C19.6417 7.34629 19.7702 6.73055 19.997 6.1337C20.0688 5.94482 20.1444 5.75594 20.1974 5.56329C20.2427 5.40463 20.2654 5.23842 20.2843 5.07221C20.2919 5.0231 20.2541 4.96643 20.2314 4.89466C20.1558 4.95888 20.0953 4.99665 20.05 5.04954C19.7967 5.32152 19.5812 5.61995 19.4527 5.97126C19.241 6.53789 19.0369 7.1083 18.8215 7.67493C18.6929 8.00736 18.572 8.34356 18.4094 8.66087C18.1562 9.1444 17.8727 9.61659 17.5854 10.0812C17.3019 10.5383 17.0713 11.0181 16.8748 11.5167C16.7349 11.8642 16.6744 12.2231 16.6744 12.5971C16.6744 13.0919 16.784 13.5641 16.9126 14.0325C17.0108 14.3876 17.094 14.7465 17.1847 15.1016C17.1923 15.1356 17.215 15.162 17.2339 15.196C17.3284 15.196 17.4153 15.196 17.5363 15.196C17.4833 14.9316 17.4418 14.6861 17.3813 14.4481C17.3095 14.1421 17.3246 13.8323 17.3624 13.5263C17.3662 13.4886 17.4002 13.4546 17.4342 13.3941C17.4758 13.4621 17.5098 13.4999 17.5249 13.5415C17.6799 13.9419 17.8084 14.3499 17.8424 14.7805C17.8538 14.9278 17.8538 15.0865 17.9256 15.2149C18.6022 15.2942 19.4867 15.1998 19.8836 15.0034C19.8836 14.8712 19.8836 14.7314 19.8836 14.5878C19.8799 14.0628 20.0121 13.5755 20.2843 13.1259C20.4733 12.8086 20.6736 12.4989 20.8778 12.1929C21.1688 11.7585 21.4712 11.3316 21.7623 10.8972C21.887 10.7083 22.0004 10.5119 22.0987 10.3117C22.3444 9.8168 22.4049 9.28794 22.3142 8.74775C22.231 8.24156 22.0987 7.74671 21.8795 7.28207C21.6829 6.86276 21.5279 6.42456 21.3956 5.97881C21.2595 5.5104 21.097 5.04954 20.8853 4.61135C20.7719 4.36958 20.6132 4.17315 20.409 3.9956C19.9063 3.55741 19.4263 3.10033 19.0369 2.55258C18.9462 2.43926 18.863 2.32215 18.6892 2.23527ZM19.585 4.98154C19.4603 4.83422 19.3431 4.71712 19.2486 4.58113C19.0445 4.29025 18.8479 3.99183 18.6514 3.6934C18.5909 3.60274 18.5417 3.5083 18.4926 3.41387C18.4057 3.24388 18.1373 2.87745 18.005 2.7528C17.9521 2.70369 17.9067 2.6508 17.8576 2.59791C17.782 2.52236 17.7101 2.43926 17.6308 2.37126C17.593 2.33726 17.5363 2.32593 17.4682 2.29571C17.4493 2.84345 17.5854 3.31187 17.9256 3.70851C18.0428 3.8445 18.1675 3.96916 18.2923 4.0976C18.6589 4.47913 18.9424 4.91355 19.0936 5.42729C19.1087 5.48018 19.1049 5.55195 19.2032 5.54818C19.3242 5.37441 19.4489 5.18553 19.585 4.98154ZM17.5249 3.67451C17.5022 3.68585 17.4833 3.69718 17.4607 3.70851C17.4833 3.79917 17.4909 3.89361 17.5325 3.97294C17.6043 4.10893 17.6912 4.23359 17.782 4.35825C18.1826 4.91733 18.5833 5.47262 18.8479 6.11481C18.8593 6.14125 18.8971 6.16014 18.9235 6.1828C19.0785 5.98637 19.0596 5.79749 18.9613 5.58217C18.8215 5.27997 18.6778 4.97777 18.4624 4.72467C18.1637 4.36958 17.8424 4.02205 17.5249 3.67451ZM17.7706 4.92488C17.7101 5.15531 17.7782 5.29508 17.8424 5.43485C17.9294 5.61617 18.0239 5.79372 18.1222 5.97126C18.2847 6.26213 18.417 6.56811 18.5153 6.8892C18.5304 6.93453 18.5115 7.00631 18.5984 7.0252C18.6816 6.91942 18.7156 6.79854 18.7383 6.69277C18.485 6.0657 18.2015 5.48396 17.7706 4.92488ZM20.2049 6.99498C20.1747 7.09697 20.1444 7.17252 20.1369 7.25185C20.0802 7.6976 20.0311 8.14335 19.9819 8.59288C19.9819 8.60421 19.9857 8.61932 19.9933 8.62687C20.0008 8.63443 20.0121 8.63065 20.0235 8.63065C20.3561 8.24534 20.4242 7.66738 20.2049 6.99498ZM16.2662 14.7692C16.2926 14.9127 16.372 14.9769 16.4703 15.026C16.561 15.0714 16.648 15.1205 16.7576 15.0978C16.7274 14.7767 16.7236 14.7654 16.5875 14.5123C16.4514 14.5538 16.3456 14.6369 16.2662 14.7692ZM20.2692 14.8712C20.3675 14.8485 20.4506 14.7956 20.5262 14.7238C20.5376 14.7125 20.5376 14.6861 20.5413 14.6634C20.4544 14.5992 20.3637 14.5689 20.2578 14.5916C20.2125 14.6861 20.186 14.7729 20.2692 14.8712Z" fill="#020304"/>
<path d="M17.9143 15.6758C17.8235 15.9855 17.8991 16.3142 17.6988 16.6088C17.5552 16.2953 17.661 15.9742 17.5665 15.6833C17.4455 15.6304 17.3321 15.6267 17.2074 15.6644C17.1129 15.9629 17.1772 16.3028 16.9617 16.605C16.9277 16.5371 16.8975 16.4993 16.8975 16.4615C16.8899 16.3066 16.8899 16.1517 16.8823 15.9969C16.8785 15.8684 16.871 15.7362 16.8634 15.5964C16.7387 15.5587 16.6215 15.5284 16.5119 15.4907C16.3304 15.4265 16.1604 15.3433 16.0318 15.1922C15.7975 14.9127 15.8428 14.5916 16.1566 14.4065C16.2662 14.3423 16.3909 14.2932 16.5232 14.2327C16.493 14.1119 16.4627 13.9985 16.4325 13.889C16.2964 13.4281 16.2246 12.9635 16.2284 12.4837C16.2322 12.1098 16.2927 11.7509 16.4325 11.4034C16.6555 10.8518 16.905 10.3154 17.2339 9.81302C17.4796 9.43527 17.7064 9.0424 17.9407 8.65332C17.9747 8.59288 18.0012 8.52866 18.0314 8.46066C17.8991 8.38133 17.7215 8.46822 17.6345 8.29445C17.6345 8.20001 17.7139 8.16979 17.7971 8.15468C17.9256 8.13579 18.0541 8.13202 18.2053 8.11691C18.2545 8.00358 18.3036 7.88648 18.3565 7.76937C18.4057 7.65605 18.4094 7.54272 18.3527 7.42561C18.3149 7.35384 18.2885 7.27074 18.2771 7.18763C18.2318 6.90054 18.1146 6.63988 17.9936 6.38301C17.8878 6.15636 17.7782 5.93349 17.6761 5.70306C17.627 5.59351 17.5816 5.48396 17.5514 5.37063C17.4909 5.14776 17.4871 4.92488 17.6648 4.73223C17.5854 4.59246 17.506 4.46024 17.4304 4.32425C17.249 4.00316 17.2187 3.75007 17.3737 3.42142C17.2301 3.13433 17.1658 2.80946 17.1318 2.47703C17.1205 2.37126 17.1243 2.26171 17.1469 2.15972C17.1999 1.9444 17.3888 1.85374 17.5892 1.94062C17.6837 1.98218 17.7706 2.05395 17.85 2.12194C17.9861 2.23905 18.1108 2.35993 18.2469 2.48837C18.3187 2.47326 18.2923 2.40526 18.2998 2.35237C18.3187 2.2126 18.3187 2.06528 18.3603 1.93307C18.4359 1.70264 18.6438 1.63842 18.8441 1.78952C19.0218 1.92551 19.1957 2.08039 19.328 2.25794C19.5775 2.59036 19.8496 2.90767 20.1407 3.2061C20.3145 3.38364 20.4884 3.56497 20.6774 3.7274C20.908 3.92383 21.0857 4.15426 21.2217 4.42625C21.4448 4.87577 21.6035 5.34797 21.7358 5.83149C21.8492 6.24324 21.9853 6.65122 22.1554 7.04408C22.3671 7.53894 22.5145 8.04891 22.6203 8.57777C22.7526 9.24261 22.6846 9.88102 22.3898 10.4892C22.3028 10.6705 22.2083 10.8518 22.0987 11.0181C21.8001 11.4751 21.4826 11.9247 21.1839 12.3818C20.9496 12.7406 20.7228 13.1033 20.5073 13.4735C20.4015 13.6548 20.3108 13.8512 20.3108 14.093C20.3864 14.1081 20.4506 14.127 20.5187 14.1383C20.6736 14.1648 20.8173 14.2214 20.9382 14.3234C21.1424 14.4972 21.165 14.7578 20.976 14.9505C20.8778 15.0525 20.753 15.128 20.6321 15.2036C20.5111 15.2791 20.3788 15.332 20.2389 15.4038C20.2314 15.4793 20.2163 15.5624 20.22 15.6418C20.2389 15.9629 20.2616 16.284 20.2843 16.6013C20.2881 16.6655 20.2843 16.7335 20.2843 16.8506C20.1066 16.7184 20.1029 16.5559 20.0651 16.4162C20.0273 16.2802 20.0046 16.1366 19.9781 15.9969C19.9517 15.8458 19.9328 15.6947 19.9101 15.5247C19.5661 15.5662 19.2373 15.6116 18.9122 15.638C18.5795 15.6644 18.2507 15.6644 17.9143 15.6758ZM18.6892 2.23527C18.64 2.67724 18.7459 3.03611 18.9538 3.36476C19.1692 3.70473 19.3847 4.04849 19.6077 4.38847C19.6757 4.49424 19.74 4.61135 19.8685 4.66801C19.9252 4.63023 19.9744 4.59624 20.0273 4.56979C20.3183 4.42247 20.5414 4.51691 20.6321 4.82667C20.685 5.00043 20.6812 5.18176 20.6434 5.35552C20.5867 5.6124 20.5262 5.86549 20.4431 6.11103C20.375 6.31124 20.3523 6.49256 20.4393 6.69655C20.5035 6.84765 20.5451 7.01386 20.5678 7.1763C20.6585 7.76937 20.6623 8.35111 20.2163 8.81953C19.9819 9.06507 19.8987 9.33705 19.9139 9.65814C19.9176 9.72992 19.9063 9.80169 19.9063 9.87346C19.9101 10.2097 19.8458 10.5345 19.7816 10.8632C19.7702 10.9236 19.74 10.9841 19.706 11.0898C19.6644 11.0067 19.6342 10.969 19.6266 10.9236C19.5548 10.561 19.4943 10.1983 19.5132 9.82813C19.5434 9.21239 19.5661 8.59288 19.6039 7.97714C19.6417 7.34629 19.7702 6.73055 19.997 6.1337C20.0688 5.94482 20.1444 5.75594 20.1974 5.56329C20.2427 5.40463 20.2654 5.23842 20.2843 5.07221C20.2919 5.0231 20.2541 4.96643 20.2314 4.89466C20.1558 4.95888 20.0953 4.99665 20.05 5.04954C19.7967 5.32152 19.5812 5.61995 19.4527 5.97126C19.241 6.53789 19.0369 7.1083 18.8215 7.67493C18.6929 8.00736 18.572 8.34356 18.4094 8.66087C18.1562 9.1444 17.8727 9.61659 17.5854 10.0812C17.3019 10.5383 17.0713 11.0181 16.8748 11.5167C16.7349 11.8642 16.6744 12.2231 16.6744 12.5971C16.6744 13.0919 16.784 13.5641 16.9126 14.0325C17.0108 14.3876 17.094 14.7465 17.1847 15.1016C17.1923 15.1356 17.215 15.162 17.2339 15.196C17.3284 15.196 17.4153 15.196 17.5363 15.196C17.4833 14.9316 17.4418 14.6861 17.3813 14.4481C17.3095 14.1421 17.3246 13.8323 17.3624 13.5263C17.3662 13.4886 17.4002 13.4546 17.4342 13.3941C17.4758 13.4621 17.5098 13.4999 17.5249 13.5415C17.6799 13.9419 17.8084 14.3499 17.8424 14.7805C17.8538 14.9278 17.8538 15.0865 17.9256 15.2149C18.6022 15.2942 19.4867 15.1998 19.8836 15.0034C19.8836 14.8712 19.8836 14.7314 19.8836 14.5878C19.8799 14.0628 20.0121 13.5755 20.2843 13.1259C20.4733 12.8086 20.6736 12.4989 20.8778 12.1929C21.1688 11.7585 21.4712 11.3316 21.7623 10.8972C21.887 10.7083 22.0004 10.5119 22.0987 10.3117C22.3444 9.8168 22.4049 9.28794 22.3142 8.74775C22.231 8.24156 22.0987 7.74671 21.8795 7.28207C21.6829 6.86276 21.5279 6.42456 21.3956 5.97881C21.2595 5.5104 21.097 5.04954 20.8853 4.61135C20.7719 4.36958 20.6132 4.17315 20.409 3.9956C19.9063 3.55741 19.4263 3.10033 19.0369 2.55258C18.9462 2.43926 18.863 2.32215 18.6892 2.23527ZM19.585 4.98154C19.4603 4.83422 19.3431 4.71712 19.2486 4.58113C19.0445 4.29025 18.8479 3.99183 18.6514 3.6934C18.5909 3.60274 18.5417 3.5083 18.4926 3.41387C18.4057 3.24388 18.1373 2.87745 18.005 2.7528C17.9521 2.70369 17.9067 2.6508 17.8576 2.59791C17.782 2.52236 17.7101 2.43926 17.6308 2.37126C17.593 2.33726 17.5363 2.32593 17.4682 2.29571C17.4493 2.84345 17.5854 3.31187 17.9256 3.70851C18.0428 3.8445 18.1675 3.96916 18.2923 4.0976C18.6589 4.47913 18.9424 4.91355 19.0936 5.42729C19.1087 5.48018 19.1049 5.55195 19.2032 5.54818C19.3242 5.37441 19.4489 5.18553 19.585 4.98154ZM17.5249 3.67451C17.5022 3.68585 17.4833 3.69718 17.4607 3.70851C17.4833 3.79917 17.4909 3.89361 17.5325 3.97294C17.6043 4.10893 17.6912 4.23359 17.782 4.35825C18.1826 4.91733 18.5833 5.47262 18.8479 6.11481C18.8593 6.14125 18.8971 6.16014 18.9235 6.1828C19.0785 5.98637 19.0596 5.79749 18.9613 5.58217C18.8215 5.27997 18.6778 4.97777 18.4624 4.72467C18.1637 4.36958 17.8424 4.02205 17.5249 3.67451ZM17.7706 4.92488C17.7101 5.15531 17.7782 5.29508 17.8424 5.43485C17.9294 5.61617 18.0239 5.79372 18.1222 5.97126C18.2847 6.26213 18.417 6.56811 18.5153 6.8892C18.5304 6.93453 18.5115 7.00631 18.5984 7.0252C18.6816 6.91942 18.7156 6.79854 18.7383 6.69277C18.485 6.0657 18.2015 5.48396 17.7706 4.92488ZM20.2049 6.99498C20.1747 7.09697 20.1444 7.17252 20.1369 7.25185C20.0802 7.6976 20.0311 8.14335 19.9819 8.59288C19.9819 8.60421 19.9857 8.61932 19.9933 8.62687C20.0008 8.63443 20.0121 8.63065 20.0235 8.63065C20.3561 8.24534 20.4242 7.66738 20.2049 6.99498ZM16.2662 14.7692C16.2926 14.9127 16.372 14.9769 16.4703 15.026C16.561 15.0714 16.648 15.1205 16.7576 15.0978C16.7274 14.7767 16.7236 14.7654 16.5875 14.5123C16.4514 14.5538 16.3456 14.6369 16.2662 14.7692ZM20.2692 14.8712C20.3675 14.8485 20.4506 14.7956 20.5262 14.7238C20.5376 14.7125 20.5376 14.6861 20.5413 14.6634C20.4544 14.5992 20.3637 14.5689 20.2578 14.5916C20.2125 14.6861 20.186 14.7729 20.2692 14.8712Z" stroke="black" stroke-width="0.2" mask="url(#path-2-outside-2_2_5167)"/>
<mask id="path-3-outside-3_2_5167" maskUnits="userSpaceOnUse" x="0" y="0.971344" width="9" height="17" fill="black">
<rect fill="white" y="0.971344" width="9" height="17"/>
<path d="M6.77468 16.639C6.64238 16.3368 6.67262 16.0082 6.57434 15.6833C6.40424 15.6984 6.2417 15.7098 6.07916 15.7211C5.91284 16.0611 5.99978 16.4426 5.84858 16.8128C5.79944 16.7448 5.74652 16.707 5.74274 16.6655C5.72006 16.4426 5.70494 16.2159 5.68982 15.9893C5.68604 15.9213 5.68604 15.8533 5.68226 15.7702C5.05856 15.7891 4.45755 15.8042 3.85275 15.8231C3.73557 16.1328 3.61839 16.4426 3.49365 16.7524C3.44829 16.8619 3.38404 16.9639 3.32356 17.0621C3.31222 17.081 3.26307 17.081 3.23283 17.0734C3.21771 17.0697 3.19882 17.0357 3.2026 17.0168C3.2215 16.8997 3.24039 16.7826 3.27063 16.6655C3.31977 16.4577 3.37647 16.2499 3.42561 16.0422C3.44451 15.9515 3.45207 15.8571 3.47097 15.7475C3.34623 15.706 3.23283 15.6833 3.12699 15.6342C2.96823 15.5587 2.79814 15.4907 2.66206 15.3773C2.38612 15.1507 2.39368 14.8145 2.66206 14.5765C2.7868 14.4632 2.93799 14.3914 3.10431 14.3612C3.21015 14.3423 3.316 14.3309 3.44452 14.3158C3.43696 14.2478 3.44073 14.1798 3.42183 14.1156C3.38781 14.0023 3.34245 13.8928 3.29331 13.7832C3.03249 13.2204 2.71498 12.6915 2.36722 12.1777C2.25004 12.0002 2.09885 11.8453 1.95521 11.6867C1.83803 11.5545 1.7095 11.426 1.58477 11.3014C1.05557 10.7612 0.904372 10.1077 1.05557 9.38992C1.19165 8.74774 1.28237 8.10178 1.33529 7.44827C1.36931 7.00252 1.49026 6.58699 1.68682 6.18657C1.90228 5.73704 2.1442 5.29884 2.42014 4.87954C2.54488 4.69066 2.68852 4.51689 2.82838 4.33935C3.02872 4.08625 3.22906 3.83693 3.4294 3.58762C3.77715 3.14942 4.12492 2.71123 4.47267 2.27681C4.54071 2.1937 4.6163 2.11437 4.69946 2.05393C4.88468 1.91794 5.06235 1.95194 5.19087 2.14082C5.27403 2.2617 5.31938 2.39391 5.32694 2.54124C5.33072 2.6319 5.3345 2.72256 5.34206 2.80944C5.44034 2.83966 5.4668 2.77544 5.50838 2.73767C5.68604 2.57901 5.84858 2.40147 6.03758 2.2617C6.32108 2.05016 6.54788 2.1597 6.55922 2.51857C6.563 2.69612 6.52898 2.87366 6.49874 3.04743C6.47228 3.1872 6.42314 3.31941 6.38156 3.48185C6.57812 3.58762 6.77467 3.70094 6.89563 3.89738C6.93721 3.96159 6.97502 4.03337 7.02416 4.12025C6.75956 4.04092 6.68018 3.98048 6.374 3.62917C6.30218 3.63295 6.30974 3.68583 6.31352 3.72738C6.32108 3.81049 6.32864 3.8936 6.34754 3.97292C6.40424 4.2298 6.37022 4.47156 6.23792 4.69444C6.17744 4.79643 6.16987 4.88709 6.21145 4.99664C6.27571 5.18174 6.26438 5.37062 6.20768 5.55949C6.15476 5.72948 6.09806 5.89947 6.03758 6.06568C5.99978 6.17523 5.95442 6.28478 5.90906 6.40566C6.2795 6.56054 6.64237 6.69653 6.98257 6.87408C6.98257 6.97229 6.91831 6.96096 6.88429 6.95341C6.59323 6.89297 6.30596 6.82875 6.0149 6.76075C5.9582 6.74942 5.90528 6.73053 5.8259 6.70787C5.78432 6.84763 5.74653 6.96852 5.71251 7.09318C5.62179 7.4256 5.54619 7.7618 5.52351 8.10934C5.51217 8.27555 5.55374 8.41154 5.6747 8.52487C5.86748 8.5362 6.0527 8.54375 6.2417 8.55508C6.4307 8.56642 6.61591 8.57775 6.85027 8.58908C6.79357 8.6533 6.77468 8.70619 6.74066 8.71374C6.60458 8.75152 6.46472 8.77796 6.32486 8.80062C6.20012 8.81951 6.0716 8.82707 5.91284 8.84596C6.14342 9.20482 6.35888 9.52591 6.55922 9.85456C6.75956 10.1794 6.89563 10.5383 7.01659 10.8972C7.14133 11.2674 7.25473 11.6413 7.37191 12.0002C7.46641 12.038 7.49287 11.9662 7.53823 11.9398C7.67809 11.8491 7.81417 11.7509 7.95403 11.6678C7.98805 11.6489 8.04097 11.6602 8.10901 11.6564C7.95403 11.9587 7.70455 12.1211 7.44373 12.276C7.45129 12.378 7.45885 12.4724 7.46641 12.5631C7.50043 12.9446 7.49287 13.3223 7.40593 13.7001C7.34545 13.9645 7.30765 14.2365 7.25852 14.5198C7.38325 14.5614 7.49288 14.5954 7.60249 14.6369C7.78015 14.7011 7.92757 14.8069 7.94269 15.0109C7.95781 15.2149 7.82172 15.3433 7.65162 15.4227C7.47019 15.5058 7.27742 15.5662 7.06952 15.6418C7.03928 15.8042 7.00903 15.978 6.97123 16.1479C6.88807 16.4993 6.88808 16.4955 6.77468 16.639ZM4.03797 11.7547C3.98127 11.6224 4.01151 11.4827 4.01907 11.3467C4.03419 10.8821 4.05309 10.4174 3.95103 9.96033C3.93213 9.881 3.90945 9.7979 3.90189 9.71479C3.85653 9.18971 3.82251 9.25015 3.55413 8.97062C3.36513 8.77041 3.21394 8.5362 3.16102 8.26044C3.06652 7.78824 3.06273 7.31227 3.19881 6.84764C3.24039 6.70031 3.23662 6.57565 3.19126 6.43588C3.11566 6.1979 3.05139 5.95614 2.98713 5.71437C2.93421 5.49905 2.95312 5.28751 3.04761 5.0873C3.13455 4.89842 3.2782 4.78132 3.48988 4.7851C3.64108 4.7851 3.79606 4.80776 3.96237 4.82287C4.29123 4.40356 4.58985 3.94648 4.8431 3.46296C4.98674 3.19097 5.02076 2.89633 5.00942 2.5979C5.00564 2.51102 4.96407 2.42413 4.94139 2.34103C4.80153 2.34103 4.75238 2.43547 4.69946 2.50346C4.07199 3.28163 3.45208 4.06359 2.82838 4.84554C2.8057 4.87198 2.7868 4.9022 2.7679 4.93242C2.43904 5.4575 2.13287 5.99391 1.87205 6.55677C1.75487 6.80986 1.69439 7.07051 1.67171 7.34627C1.64525 7.72403 1.61123 8.10556 1.56209 8.48331C1.51295 8.86107 1.42979 9.23126 1.37309 9.60902C1.28615 10.1605 1.41467 10.6478 1.80778 11.0558C1.93252 11.1843 2.05727 11.3089 2.17822 11.4411C2.32186 11.5998 2.47684 11.7509 2.5978 11.9247C2.96445 12.4384 3.30087 12.971 3.59193 13.5301C3.84519 14.0136 3.96993 14.5274 3.94725 15.0751C3.94347 15.1545 3.95859 15.2338 3.96615 15.3093C4.36304 15.4 5.37986 15.3735 5.79188 15.264C5.8259 15.1431 5.85614 15.0185 5.90528 14.8976C5.95442 14.7767 6.01112 14.6558 6.07538 14.5463C6.13964 14.4443 6.1661 14.3045 6.32108 14.2478C6.34376 14.6067 6.23035 14.924 6.20011 15.2527C6.41557 15.3018 6.41558 15.298 6.66884 15.2338C6.69152 15.1658 6.72554 15.0902 6.74066 15.0109C6.8465 14.5123 6.94099 14.0099 7.05061 13.5074C7.14133 13.0919 7.15268 12.6764 7.04684 12.2722C6.9221 11.8038 6.76711 11.3391 6.61591 10.8783C6.46472 10.425 6.23414 10.0094 5.9582 9.61658C5.84858 9.4617 5.73897 9.30682 5.61801 9.15949C5.28537 8.74774 5.04723 8.2831 4.88469 7.78069C4.79019 7.48604 4.69947 7.19139 4.60119 6.89674C4.47645 6.52277 4.35927 6.14879 4.21941 5.78237C4.15137 5.6086 4.04931 5.44239 3.94347 5.28751C3.86031 5.16663 3.73557 5.09486 3.58059 5.09108C3.42561 5.08352 3.31977 5.14019 3.28576 5.29129C3.25552 5.41595 3.24418 5.55194 3.26686 5.6766C3.30088 5.87303 3.36513 6.06946 3.42561 6.26212C3.58437 6.78342 3.75069 7.30472 3.91323 7.8298C4.03041 8.21888 4.09845 8.61553 4.11735 9.01972C4.12869 9.29171 4.16271 9.56747 4.20807 9.83567C4.31769 10.4439 4.28367 11.0445 4.15893 11.6413C4.14381 11.6829 4.13625 11.7509 4.03797 11.7547ZM6.24926 2.49213C6.06026 2.56012 5.96576 2.65456 5.87126 2.73767C5.6747 2.91144 5.47814 3.0852 5.30048 3.27786C5.2211 3.36096 5.19087 3.48562 5.13417 3.59139C5.10015 3.65561 5.06234 3.71605 5.0321 3.78027C4.79774 4.23357 4.51046 4.65288 4.20429 5.04197C4.32903 5.26107 4.44621 5.46128 4.57095 5.6766C4.60118 5.63127 4.62764 5.60482 4.63898 5.5746C4.8242 5.03819 5.13794 4.57733 5.48948 4.13914C5.60666 3.99181 5.73518 3.84827 5.85613 3.70094C6.12451 3.36096 6.21524 2.96054 6.24926 2.49213ZM4.91114 6.59454C4.95272 6.48121 4.97918 6.42833 4.9943 6.37166C5.14172 5.82392 5.41767 5.34039 5.72385 4.87198C5.807 4.74354 5.9015 4.61889 5.98088 4.48667C6.0716 4.33557 6.12829 4.17691 6.06781 3.98048C6.01867 4.01448 5.98465 4.02959 5.96197 4.05225C5.55752 4.50934 5.20221 4.99664 4.97919 5.57083C4.93383 5.69171 4.88468 5.81637 4.82043 5.92969C4.68813 6.15635 4.75616 6.35278 4.91114 6.59454ZM6.02245 5.13263C5.9582 5.17041 5.93174 5.17419 5.9204 5.19307C5.48948 5.77859 5.30426 6.4661 5.11148 7.14984C5.07368 7.28205 5.09259 7.3085 5.23622 7.51248C5.25512 7.48226 5.28158 7.45204 5.28914 7.42182C5.429 6.83252 5.61422 6.26212 5.87881 5.71437C5.93551 5.59727 5.96576 5.46883 5.99978 5.34417C6.0149 5.28751 6.01112 5.23085 6.02245 5.13263ZM3.48988 7.43693C3.46342 7.45582 3.4483 7.46338 3.44452 7.47093C3.35002 7.91668 3.39537 8.33977 3.65997 8.7213C3.68643 8.76285 3.73557 8.78552 3.81495 8.84973C3.77337 8.32843 3.6562 7.88268 3.48988 7.43693ZM3.51256 14.7578C3.35758 14.7956 3.23284 14.8183 3.1081 14.8523C3.04006 14.8711 2.97958 14.9051 2.97958 15.0109C3.12322 15.1431 3.29331 15.2187 3.50499 15.2187C3.56547 15.0751 3.55414 14.9391 3.51256 14.7578ZM7.21693 14.7767C7.16401 14.9165 7.12622 15.026 7.17536 15.1582C7.32655 15.1469 7.45507 15.1167 7.56469 14.9958C7.48909 14.8636 7.37191 14.8183 7.21693 14.7767Z"/>
</mask>
<path d="M6.77468 16.639C6.64238 16.3368 6.67262 16.0082 6.57434 15.6833C6.40424 15.6984 6.2417 15.7098 6.07916 15.7211C5.91284 16.0611 5.99978 16.4426 5.84858 16.8128C5.79944 16.7448 5.74652 16.707 5.74274 16.6655C5.72006 16.4426 5.70494 16.2159 5.68982 15.9893C5.68604 15.9213 5.68604 15.8533 5.68226 15.7702C5.05856 15.7891 4.45755 15.8042 3.85275 15.8231C3.73557 16.1328 3.61839 16.4426 3.49365 16.7524C3.44829 16.8619 3.38404 16.9639 3.32356 17.0621C3.31222 17.081 3.26307 17.081 3.23283 17.0734C3.21771 17.0697 3.19882 17.0357 3.2026 17.0168C3.2215 16.8997 3.24039 16.7826 3.27063 16.6655C3.31977 16.4577 3.37647 16.2499 3.42561 16.0422C3.44451 15.9515 3.45207 15.8571 3.47097 15.7475C3.34623 15.706 3.23283 15.6833 3.12699 15.6342C2.96823 15.5587 2.79814 15.4907 2.66206 15.3773C2.38612 15.1507 2.39368 14.8145 2.66206 14.5765C2.7868 14.4632 2.93799 14.3914 3.10431 14.3612C3.21015 14.3423 3.316 14.3309 3.44452 14.3158C3.43696 14.2478 3.44073 14.1798 3.42183 14.1156C3.38781 14.0023 3.34245 13.8928 3.29331 13.7832C3.03249 13.2204 2.71498 12.6915 2.36722 12.1777C2.25004 12.0002 2.09885 11.8453 1.95521 11.6867C1.83803 11.5545 1.7095 11.426 1.58477 11.3014C1.05557 10.7612 0.904372 10.1077 1.05557 9.38992C1.19165 8.74774 1.28237 8.10178 1.33529 7.44827C1.36931 7.00252 1.49026 6.58699 1.68682 6.18657C1.90228 5.73704 2.1442 5.29884 2.42014 4.87954C2.54488 4.69066 2.68852 4.51689 2.82838 4.33935C3.02872 4.08625 3.22906 3.83693 3.4294 3.58762C3.77715 3.14942 4.12492 2.71123 4.47267 2.27681C4.54071 2.1937 4.6163 2.11437 4.69946 2.05393C4.88468 1.91794 5.06235 1.95194 5.19087 2.14082C5.27403 2.2617 5.31938 2.39391 5.32694 2.54124C5.33072 2.6319 5.3345 2.72256 5.34206 2.80944C5.44034 2.83966 5.4668 2.77544 5.50838 2.73767C5.68604 2.57901 5.84858 2.40147 6.03758 2.2617C6.32108 2.05016 6.54788 2.1597 6.55922 2.51857C6.563 2.69612 6.52898 2.87366 6.49874 3.04743C6.47228 3.1872 6.42314 3.31941 6.38156 3.48185C6.57812 3.58762 6.77467 3.70094 6.89563 3.89738C6.93721 3.96159 6.97502 4.03337 7.02416 4.12025C6.75956 4.04092 6.68018 3.98048 6.374 3.62917C6.30218 3.63295 6.30974 3.68583 6.31352 3.72738C6.32108 3.81049 6.32864 3.8936 6.34754 3.97292C6.40424 4.2298 6.37022 4.47156 6.23792 4.69444C6.17744 4.79643 6.16987 4.88709 6.21145 4.99664C6.27571 5.18174 6.26438 5.37062 6.20768 5.55949C6.15476 5.72948 6.09806 5.89947 6.03758 6.06568C5.99978 6.17523 5.95442 6.28478 5.90906 6.40566C6.2795 6.56054 6.64237 6.69653 6.98257 6.87408C6.98257 6.97229 6.91831 6.96096 6.88429 6.95341C6.59323 6.89297 6.30596 6.82875 6.0149 6.76075C5.9582 6.74942 5.90528 6.73053 5.8259 6.70787C5.78432 6.84763 5.74653 6.96852 5.71251 7.09318C5.62179 7.4256 5.54619 7.7618 5.52351 8.10934C5.51217 8.27555 5.55374 8.41154 5.6747 8.52487C5.86748 8.5362 6.0527 8.54375 6.2417 8.55508C6.4307 8.56642 6.61591 8.57775 6.85027 8.58908C6.79357 8.6533 6.77468 8.70619 6.74066 8.71374C6.60458 8.75152 6.46472 8.77796 6.32486 8.80062C6.20012 8.81951 6.0716 8.82707 5.91284 8.84596C6.14342 9.20482 6.35888 9.52591 6.55922 9.85456C6.75956 10.1794 6.89563 10.5383 7.01659 10.8972C7.14133 11.2674 7.25473 11.6413 7.37191 12.0002C7.46641 12.038 7.49287 11.9662 7.53823 11.9398C7.67809 11.8491 7.81417 11.7509 7.95403 11.6678C7.98805 11.6489 8.04097 11.6602 8.10901 11.6564C7.95403 11.9587 7.70455 12.1211 7.44373 12.276C7.45129 12.378 7.45885 12.4724 7.46641 12.5631C7.50043 12.9446 7.49287 13.3223 7.40593 13.7001C7.34545 13.9645 7.30765 14.2365 7.25852 14.5198C7.38325 14.5614 7.49288 14.5954 7.60249 14.6369C7.78015 14.7011 7.92757 14.8069 7.94269 15.0109C7.95781 15.2149 7.82172 15.3433 7.65162 15.4227C7.47019 15.5058 7.27742 15.5662 7.06952 15.6418C7.03928 15.8042 7.00903 15.978 6.97123 16.1479C6.88807 16.4993 6.88808 16.4955 6.77468 16.639ZM4.03797 11.7547C3.98127 11.6224 4.01151 11.4827 4.01907 11.3467C4.03419 10.8821 4.05309 10.4174 3.95103 9.96033C3.93213 9.881 3.90945 9.7979 3.90189 9.71479C3.85653 9.18971 3.82251 9.25015 3.55413 8.97062C3.36513 8.77041 3.21394 8.5362 3.16102 8.26044C3.06652 7.78824 3.06273 7.31227 3.19881 6.84764C3.24039 6.70031 3.23662 6.57565 3.19126 6.43588C3.11566 6.1979 3.05139 5.95614 2.98713 5.71437C2.93421 5.49905 2.95312 5.28751 3.04761 5.0873C3.13455 4.89842 3.2782 4.78132 3.48988 4.7851C3.64108 4.7851 3.79606 4.80776 3.96237 4.82287C4.29123 4.40356 4.58985 3.94648 4.8431 3.46296C4.98674 3.19097 5.02076 2.89633 5.00942 2.5979C5.00564 2.51102 4.96407 2.42413 4.94139 2.34103C4.80153 2.34103 4.75238 2.43547 4.69946 2.50346C4.07199 3.28163 3.45208 4.06359 2.82838 4.84554C2.8057 4.87198 2.7868 4.9022 2.7679 4.93242C2.43904 5.4575 2.13287 5.99391 1.87205 6.55677C1.75487 6.80986 1.69439 7.07051 1.67171 7.34627C1.64525 7.72403 1.61123 8.10556 1.56209 8.48331C1.51295 8.86107 1.42979 9.23126 1.37309 9.60902C1.28615 10.1605 1.41467 10.6478 1.80778 11.0558C1.93252 11.1843 2.05727 11.3089 2.17822 11.4411C2.32186 11.5998 2.47684 11.7509 2.5978 11.9247C2.96445 12.4384 3.30087 12.971 3.59193 13.5301C3.84519 14.0136 3.96993 14.5274 3.94725 15.0751C3.94347 15.1545 3.95859 15.2338 3.96615 15.3093C4.36304 15.4 5.37986 15.3735 5.79188 15.264C5.8259 15.1431 5.85614 15.0185 5.90528 14.8976C5.95442 14.7767 6.01112 14.6558 6.07538 14.5463C6.13964 14.4443 6.1661 14.3045 6.32108 14.2478C6.34376 14.6067 6.23035 14.924 6.20011 15.2527C6.41557 15.3018 6.41558 15.298 6.66884 15.2338C6.69152 15.1658 6.72554 15.0902 6.74066 15.0109C6.8465 14.5123 6.94099 14.0099 7.05061 13.5074C7.14133 13.0919 7.15268 12.6764 7.04684 12.2722C6.9221 11.8038 6.76711 11.3391 6.61591 10.8783C6.46472 10.425 6.23414 10.0094 5.9582 9.61658C5.84858 9.4617 5.73897 9.30682 5.61801 9.15949C5.28537 8.74774 5.04723 8.2831 4.88469 7.78069C4.79019 7.48604 4.69947 7.19139 4.60119 6.89674C4.47645 6.52277 4.35927 6.14879 4.21941 5.78237C4.15137 5.6086 4.04931 5.44239 3.94347 5.28751C3.86031 5.16663 3.73557 5.09486 3.58059 5.09108C3.42561 5.08352 3.31977 5.14019 3.28576 5.29129C3.25552 5.41595 3.24418 5.55194 3.26686 5.6766C3.30088 5.87303 3.36513 6.06946 3.42561 6.26212C3.58437 6.78342 3.75069 7.30472 3.91323 7.8298C4.03041 8.21888 4.09845 8.61553 4.11735 9.01972C4.12869 9.29171 4.16271 9.56747 4.20807 9.83567C4.31769 10.4439 4.28367 11.0445 4.15893 11.6413C4.14381 11.6829 4.13625 11.7509 4.03797 11.7547ZM6.24926 2.49213C6.06026 2.56012 5.96576 2.65456 5.87126 2.73767C5.6747 2.91144 5.47814 3.0852 5.30048 3.27786C5.2211 3.36096 5.19087 3.48562 5.13417 3.59139C5.10015 3.65561 5.06234 3.71605 5.0321 3.78027C4.79774 4.23357 4.51046 4.65288 4.20429 5.04197C4.32903 5.26107 4.44621 5.46128 4.57095 5.6766C4.60118 5.63127 4.62764 5.60482 4.63898 5.5746C4.8242 5.03819 5.13794 4.57733 5.48948 4.13914C5.60666 3.99181 5.73518 3.84827 5.85613 3.70094C6.12451 3.36096 6.21524 2.96054 6.24926 2.49213ZM4.91114 6.59454C4.95272 6.48121 4.97918 6.42833 4.9943 6.37166C5.14172 5.82392 5.41767 5.34039 5.72385 4.87198C5.807 4.74354 5.9015 4.61889 5.98088 4.48667C6.0716 4.33557 6.12829 4.17691 6.06781 3.98048C6.01867 4.01448 5.98465 4.02959 5.96197 4.05225C5.55752 4.50934 5.20221 4.99664 4.97919 5.57083C4.93383 5.69171 4.88468 5.81637 4.82043 5.92969C4.68813 6.15635 4.75616 6.35278 4.91114 6.59454ZM6.02245 5.13263C5.9582 5.17041 5.93174 5.17419 5.9204 5.19307C5.48948 5.77859 5.30426 6.4661 5.11148 7.14984C5.07368 7.28205 5.09259 7.3085 5.23622 7.51248C5.25512 7.48226 5.28158 7.45204 5.28914 7.42182C5.429 6.83252 5.61422 6.26212 5.87881 5.71437C5.93551 5.59727 5.96576 5.46883 5.99978 5.34417C6.0149 5.28751 6.01112 5.23085 6.02245 5.13263ZM3.48988 7.43693C3.46342 7.45582 3.4483 7.46338 3.44452 7.47093C3.35002 7.91668 3.39537 8.33977 3.65997 8.7213C3.68643 8.76285 3.73557 8.78552 3.81495 8.84973C3.77337 8.32843 3.6562 7.88268 3.48988 7.43693ZM3.51256 14.7578C3.35758 14.7956 3.23284 14.8183 3.1081 14.8523C3.04006 14.8711 2.97958 14.9051 2.97958 15.0109C3.12322 15.1431 3.29331 15.2187 3.50499 15.2187C3.56547 15.0751 3.55414 14.9391 3.51256 14.7578ZM7.21693 14.7767C7.16401 14.9165 7.12622 15.026 7.17536 15.1582C7.32655 15.1469 7.45507 15.1167 7.56469 14.9958C7.48909 14.8636 7.37191 14.8183 7.21693 14.7767Z" fill="#020304"/>
<path d="M6.77468 16.639C6.64238 16.3368 6.67262 16.0082 6.57434 15.6833C6.40424 15.6984 6.2417 15.7098 6.07916 15.7211C5.91284 16.0611 5.99978 16.4426 5.84858 16.8128C5.79944 16.7448 5.74652 16.707 5.74274 16.6655C5.72006 16.4426 5.70494 16.2159 5.68982 15.9893C5.68604 15.9213 5.68604 15.8533 5.68226 15.7702C5.05856 15.7891 4.45755 15.8042 3.85275 15.8231C3.73557 16.1328 3.61839 16.4426 3.49365 16.7524C3.44829 16.8619 3.38404 16.9639 3.32356 17.0621C3.31222 17.081 3.26307 17.081 3.23283 17.0734C3.21771 17.0697 3.19882 17.0357 3.2026 17.0168C3.2215 16.8997 3.24039 16.7826 3.27063 16.6655C3.31977 16.4577 3.37647 16.2499 3.42561 16.0422C3.44451 15.9515 3.45207 15.8571 3.47097 15.7475C3.34623 15.706 3.23283 15.6833 3.12699 15.6342C2.96823 15.5587 2.79814 15.4907 2.66206 15.3773C2.38612 15.1507 2.39368 14.8145 2.66206 14.5765C2.7868 14.4632 2.93799 14.3914 3.10431 14.3612C3.21015 14.3423 3.316 14.3309 3.44452 14.3158C3.43696 14.2478 3.44073 14.1798 3.42183 14.1156C3.38781 14.0023 3.34245 13.8928 3.29331 13.7832C3.03249 13.2204 2.71498 12.6915 2.36722 12.1777C2.25004 12.0002 2.09885 11.8453 1.95521 11.6867C1.83803 11.5545 1.7095 11.426 1.58477 11.3014C1.05557 10.7612 0.904372 10.1077 1.05557 9.38992C1.19165 8.74774 1.28237 8.10178 1.33529 7.44827C1.36931 7.00252 1.49026 6.58699 1.68682 6.18657C1.90228 5.73704 2.1442 5.29884 2.42014 4.87954C2.54488 4.69066 2.68852 4.51689 2.82838 4.33935C3.02872 4.08625 3.22906 3.83693 3.4294 3.58762C3.77715 3.14942 4.12492 2.71123 4.47267 2.27681C4.54071 2.1937 4.6163 2.11437 4.69946 2.05393C4.88468 1.91794 5.06235 1.95194 5.19087 2.14082C5.27403 2.2617 5.31938 2.39391 5.32694 2.54124C5.33072 2.6319 5.3345 2.72256 5.34206 2.80944C5.44034 2.83966 5.4668 2.77544 5.50838 2.73767C5.68604 2.57901 5.84858 2.40147 6.03758 2.2617C6.32108 2.05016 6.54788 2.1597 6.55922 2.51857C6.563 2.69612 6.52898 2.87366 6.49874 3.04743C6.47228 3.1872 6.42314 3.31941 6.38156 3.48185C6.57812 3.58762 6.77467 3.70094 6.89563 3.89738C6.93721 3.96159 6.97502 4.03337 7.02416 4.12025C6.75956 4.04092 6.68018 3.98048 6.374 3.62917C6.30218 3.63295 6.30974 3.68583 6.31352 3.72738C6.32108 3.81049 6.32864 3.8936 6.34754 3.97292C6.40424 4.2298 6.37022 4.47156 6.23792 4.69444C6.17744 4.79643 6.16987 4.88709 6.21145 4.99664C6.27571 5.18174 6.26438 5.37062 6.20768 5.55949C6.15476 5.72948 6.09806 5.89947 6.03758 6.06568C5.99978 6.17523 5.95442 6.28478 5.90906 6.40566C6.2795 6.56054 6.64237 6.69653 6.98257 6.87408C6.98257 6.97229 6.91831 6.96096 6.88429 6.95341C6.59323 6.89297 6.30596 6.82875 6.0149 6.76075C5.9582 6.74942 5.90528 6.73053 5.8259 6.70787C5.78432 6.84763 5.74653 6.96852 5.71251 7.09318C5.62179 7.4256 5.54619 7.7618 5.52351 8.10934C5.51217 8.27555 5.55374 8.41154 5.6747 8.52487C5.86748 8.5362 6.0527 8.54375 6.2417 8.55508C6.4307 8.56642 6.61591 8.57775 6.85027 8.58908C6.79357 8.6533 6.77468 8.70619 6.74066 8.71374C6.60458 8.75152 6.46472 8.77796 6.32486 8.80062C6.20012 8.81951 6.0716 8.82707 5.91284 8.84596C6.14342 9.20482 6.35888 9.52591 6.55922 9.85456C6.75956 10.1794 6.89563 10.5383 7.01659 10.8972C7.14133 11.2674 7.25473 11.6413 7.37191 12.0002C7.46641 12.038 7.49287 11.9662 7.53823 11.9398C7.67809 11.8491 7.81417 11.7509 7.95403 11.6678C7.98805 11.6489 8.04097 11.6602 8.10901 11.6564C7.95403 11.9587 7.70455 12.1211 7.44373 12.276C7.45129 12.378 7.45885 12.4724 7.46641 12.5631C7.50043 12.9446 7.49287 13.3223 7.40593 13.7001C7.34545 13.9645 7.30765 14.2365 7.25852 14.5198C7.38325 14.5614 7.49288 14.5954 7.60249 14.6369C7.78015 14.7011 7.92757 14.8069 7.94269 15.0109C7.95781 15.2149 7.82172 15.3433 7.65162 15.4227C7.47019 15.5058 7.27742 15.5662 7.06952 15.6418C7.03928 15.8042 7.00903 15.978 6.97123 16.1479C6.88807 16.4993 6.88808 16.4955 6.77468 16.639ZM4.03797 11.7547C3.98127 11.6224 4.01151 11.4827 4.01907 11.3467C4.03419 10.8821 4.05309 10.4174 3.95103 9.96033C3.93213 9.881 3.90945 9.7979 3.90189 9.71479C3.85653 9.18971 3.82251 9.25015 3.55413 8.97062C3.36513 8.77041 3.21394 8.5362 3.16102 8.26044C3.06652 7.78824 3.06273 7.31227 3.19881 6.84764C3.24039 6.70031 3.23662 6.57565 3.19126 6.43588C3.11566 6.1979 3.05139 5.95614 2.98713 5.71437C2.93421 5.49905 2.95312 5.28751 3.04761 5.0873C3.13455 4.89842 3.2782 4.78132 3.48988 4.7851C3.64108 4.7851 3.79606 4.80776 3.96237 4.82287C4.29123 4.40356 4.58985 3.94648 4.8431 3.46296C4.98674 3.19097 5.02076 2.89633 5.00942 2.5979C5.00564 2.51102 4.96407 2.42413 4.94139 2.34103C4.80153 2.34103 4.75238 2.43547 4.69946 2.50346C4.07199 3.28163 3.45208 4.06359 2.82838 4.84554C2.8057 4.87198 2.7868 4.9022 2.7679 4.93242C2.43904 5.4575 2.13287 5.99391 1.87205 6.55677C1.75487 6.80986 1.69439 7.07051 1.67171 7.34627C1.64525 7.72403 1.61123 8.10556 1.56209 8.48331C1.51295 8.86107 1.42979 9.23126 1.37309 9.60902C1.28615 10.1605 1.41467 10.6478 1.80778 11.0558C1.93252 11.1843 2.05727 11.3089 2.17822 11.4411C2.32186 11.5998 2.47684 11.7509 2.5978 11.9247C2.96445 12.4384 3.30087 12.971 3.59193 13.5301C3.84519 14.0136 3.96993 14.5274 3.94725 15.0751C3.94347 15.1545 3.95859 15.2338 3.96615 15.3093C4.36304 15.4 5.37986 15.3735 5.79188 15.264C5.8259 15.1431 5.85614 15.0185 5.90528 14.8976C5.95442 14.7767 6.01112 14.6558 6.07538 14.5463C6.13964 14.4443 6.1661 14.3045 6.32108 14.2478C6.34376 14.6067 6.23035 14.924 6.20011 15.2527C6.41557 15.3018 6.41558 15.298 6.66884 15.2338C6.69152 15.1658 6.72554 15.0902 6.74066 15.0109C6.8465 14.5123 6.94099 14.0099 7.05061 13.5074C7.14133 13.0919 7.15268 12.6764 7.04684 12.2722C6.9221 11.8038 6.76711 11.3391 6.61591 10.8783C6.46472 10.425 6.23414 10.0094 5.9582 9.61658C5.84858 9.4617 5.73897 9.30682 5.61801 9.15949C5.28537 8.74774 5.04723 8.2831 4.88469 7.78069C4.79019 7.48604 4.69947 7.19139 4.60119 6.89674C4.47645 6.52277 4.35927 6.14879 4.21941 5.78237C4.15137 5.6086 4.04931 5.44239 3.94347 5.28751C3.86031 5.16663 3.73557 5.09486 3.58059 5.09108C3.42561 5.08352 3.31977 5.14019 3.28576 5.29129C3.25552 5.41595 3.24418 5.55194 3.26686 5.6766C3.30088 5.87303 3.36513 6.06946 3.42561 6.26212C3.58437 6.78342 3.75069 7.30472 3.91323 7.8298C4.03041 8.21888 4.09845 8.61553 4.11735 9.01972C4.12869 9.29171 4.16271 9.56747 4.20807 9.83567C4.31769 10.4439 4.28367 11.0445 4.15893 11.6413C4.14381 11.6829 4.13625 11.7509 4.03797 11.7547ZM6.24926 2.49213C6.06026 2.56012 5.96576 2.65456 5.87126 2.73767C5.6747 2.91144 5.47814 3.0852 5.30048 3.27786C5.2211 3.36096 5.19087 3.48562 5.13417 3.59139C5.10015 3.65561 5.06234 3.71605 5.0321 3.78027C4.79774 4.23357 4.51046 4.65288 4.20429 5.04197C4.32903 5.26107 4.44621 5.46128 4.57095 5.6766C4.60118 5.63127 4.62764 5.60482 4.63898 5.5746C4.8242 5.03819 5.13794 4.57733 5.48948 4.13914C5.60666 3.99181 5.73518 3.84827 5.85613 3.70094C6.12451 3.36096 6.21524 2.96054 6.24926 2.49213ZM4.91114 6.59454C4.95272 6.48121 4.97918 6.42833 4.9943 6.37166C5.14172 5.82392 5.41767 5.34039 5.72385 4.87198C5.807 4.74354 5.9015 4.61889 5.98088 4.48667C6.0716 4.33557 6.12829 4.17691 6.06781 3.98048C6.01867 4.01448 5.98465 4.02959 5.96197 4.05225C5.55752 4.50934 5.20221 4.99664 4.97919 5.57083C4.93383 5.69171 4.88468 5.81637 4.82043 5.92969C4.68813 6.15635 4.75616 6.35278 4.91114 6.59454ZM6.02245 5.13263C5.9582 5.17041 5.93174 5.17419 5.9204 5.19307C5.48948 5.77859 5.30426 6.4661 5.11148 7.14984C5.07368 7.28205 5.09259 7.3085 5.23622 7.51248C5.25512 7.48226 5.28158 7.45204 5.28914 7.42182C5.429 6.83252 5.61422 6.26212 5.87881 5.71437C5.93551 5.59727 5.96576 5.46883 5.99978 5.34417C6.0149 5.28751 6.01112 5.23085 6.02245 5.13263ZM3.48988 7.43693C3.46342 7.45582 3.4483 7.46338 3.44452 7.47093C3.35002 7.91668 3.39537 8.33977 3.65997 8.7213C3.68643 8.76285 3.73557 8.78552 3.81495 8.84973C3.77337 8.32843 3.6562 7.88268 3.48988 7.43693ZM3.51256 14.7578C3.35758 14.7956 3.23284 14.8183 3.1081 14.8523C3.04006 14.8711 2.97958 14.9051 2.97958 15.0109C3.12322 15.1431 3.29331 15.2187 3.50499 15.2187C3.56547 15.0751 3.55414 14.9391 3.51256 14.7578ZM7.21693 14.7767C7.16401 14.9165 7.12622 15.026 7.17536 15.1582C7.32655 15.1469 7.45507 15.1167 7.56469 14.9958C7.48909 14.8636 7.37191 14.8183 7.21693 14.7767Z" stroke="black" stroke-width="0.2" mask="url(#path-3-outside-3_2_5167)"/>
<path d="M11.7114 14.547L11.6592 14.5204L11.6411 14.5761C11.5009 15.007 11.5632 15.4071 11.6234 15.7939C11.6301 15.8365 11.6367 15.8789 11.643 15.9211L11.643 15.9211L11.6431 15.9219C11.6463 15.9412 11.6567 15.9552 11.6648 15.9641C11.673 15.9731 11.6828 15.9809 11.6911 15.9871C11.6968 15.9914 11.7022 15.9954 11.7074 15.9992C11.7194 16.0079 11.7304 16.0159 11.7421 16.0264L11.7997 16.0782L11.8232 16.0045C11.9362 15.6505 12.0394 15.302 11.9567 14.9283L11.9567 14.9283L11.9565 14.9273C11.9537 14.9159 11.951 14.9039 11.9482 14.8914C11.937 14.8413 11.9241 14.784 11.8986 14.7309C11.865 14.661 11.8099 14.5973 11.7114 14.547Z" fill="#020304" stroke="black" stroke-width="0.1"/>
<path d="M11.7158 0.980572L11.6647 0.859462L11.6224 0.983896C11.5245 1.27168 11.4797 1.54584 11.486 1.78047C11.4923 2.01407 11.5496 2.21394 11.6618 2.34684L11.7093 2.40307L11.744 2.33822C11.9499 1.95447 11.9427 1.51853 11.7158 0.980572Z" fill="#020304" stroke="black" stroke-width="0.1"/>
<path d="M16.3866 6.59245L16.2968 6.67854H16.4212C16.7808 6.67854 17.0578 6.56092 17.3172 6.42746L17.3172 6.42748L17.3186 6.42671C17.3436 6.41283 17.3709 6.39955 17.3996 6.38562C17.5143 6.32988 17.6504 6.26373 17.7454 6.10666L17.7956 6.02367L17.6988 6.03094C17.1865 6.06943 16.7705 6.22429 16.3866 6.59245Z" fill="#020304" stroke="black" stroke-width="0.1"/>
<path d="M9.432 12.9295C9.27637 13.1492 9.14496 13.4537 9.09741 13.6832L9.432 12.9295ZM9.432 12.9295C9.4388 12.9199 9.44553 12.9104 9.45227 12.9008M9.432 12.9295L9.45227 12.9008M9.45227 12.9008C9.52042 12.804 9.58822 12.7076 9.7155 12.6801L9.45227 12.9008ZM9.03465 13.7541L9.01841 13.8798L9.1161 13.7991C9.34103 13.613 9.59164 13.2933 9.71967 13.0025C9.72584 12.9885 9.7321 12.9756 9.73879 12.9617C9.74324 12.9525 9.74789 12.943 9.75282 12.9324C9.76436 12.9077 9.77603 12.8805 9.784 12.8516C9.80057 12.7917 9.80083 12.7251 9.75836 12.6544L9.73993 12.6237L9.70494 12.6313C9.55745 12.6631 9.4783 12.7763 9.41179 12.8713C9.40485 12.8813 9.39805 12.891 9.39132 12.9004L9.39119 12.9006C9.21349 13.1515 9.06612 13.5104 9.03465 13.7541Z" fill="#020304" stroke="black" stroke-width="0.1"/>
<path d="M7.32391 4.52774L7.26162 4.53581L7.28345 4.5947C7.36303 4.80944 7.49096 4.95304 7.65255 5.06736C7.65904 5.07217 7.6656 5.07708 7.67225 5.08206C7.76689 5.15294 7.87843 5.23649 8.05527 5.21239L8.10392 5.20576L8.09818 5.157C8.07306 4.94362 7.93774 4.81918 7.82053 4.71716L7.82054 4.71715L7.81994 4.71665C7.6985 4.61425 7.5512 4.49829 7.32391 4.52774Z" fill="#020304" stroke="black" stroke-width="0.1"/>
<path d="M15.8823 5.0743L15.8298 5.16859L15.9357 5.14768C16.0883 5.11755 16.1834 5.09496 16.2624 5.05979C16.3427 5.02408 16.404 4.97651 16.4913 4.90257L16.4913 4.90257L16.4916 4.90234C16.586 4.82116 16.6462 4.76467 16.6918 4.69947C16.7376 4.63391 16.7669 4.56211 16.8048 4.45412L16.8441 4.34223L16.7365 4.39222C16.4119 4.5431 16.0951 4.69226 15.8823 5.0743Z" fill="#020304" stroke="black" stroke-width="0.1"/>
<path d="M13.9799 3.90414L13.9593 3.98683L14.0415 3.96453C14.1514 3.93475 14.2243 3.91325 14.2828 3.87643C14.3431 3.83848 14.3848 3.78658 14.44 3.70671L14.44 3.70671L14.4403 3.70629C14.4453 3.69886 14.4504 3.69136 14.4556 3.68381C14.5456 3.55153 14.6495 3.39874 14.6378 3.17329L14.6334 3.08743L14.5609 3.13375C14.2694 3.32021 14.0707 3.5414 13.9799 3.90414Z" fill="#020304" stroke="black" stroke-width="0.1"/>
<path d="M15.1246 12.1164H15.0479L15.0789 12.1866C15.1527 12.3535 15.2389 12.4799 15.348 12.5696C15.4577 12.6597 15.5871 12.7099 15.742 12.7298L15.821 12.7399L15.7958 12.6643C15.735 12.4822 15.6215 12.3535 15.4833 12.2509L15.4833 12.2509L15.4827 12.2505C15.3855 12.1805 15.2766 12.1164 15.1246 12.1164Z" fill="#020304" stroke="black" stroke-width="0.1"/>
<path d="M14.5461 13.3251L14.5176 13.3136L14.4945 13.3338C14.4404 13.3811 14.4181 13.4318 14.426 13.4854C14.4321 13.5273 14.457 13.5642 14.4738 13.589C14.4753 13.5913 14.4768 13.5934 14.4781 13.5954C14.5317 13.6777 14.5774 13.736 14.6365 13.7788C14.696 13.8219 14.765 13.8464 14.8595 13.8695L14.9505 13.8918L14.9183 13.8038C14.8469 13.6085 14.7653 13.4135 14.5461 13.3251Z" fill="#020304" stroke="black" stroke-width="0.1"/>
<path d="M20.9643 10.6355L20.9975 10.5504C21.0298 10.4675 21.0611 10.3883 21.0914 10.3114C21.168 10.1175 21.2384 9.93905 21.3032 9.75837C21.3208 9.70922 21.3377 9.65926 21.3548 9.60863C21.4243 9.40337 21.4974 9.18718 21.6371 8.97002L21.6872 8.89213L21.7248 8.97675C21.7346 8.99871 21.7436 9.01595 21.7524 9.0327C21.7568 9.04102 21.7611 9.04921 21.7654 9.0578C21.7769 9.0807 21.7894 9.1086 21.7896 9.13997M20.9643 10.6355L21.7896 9.14062C21.7896 9.1404 21.7896 9.14018 21.7896 9.13997M20.9643 10.6355L21.0539 10.6176M20.9643 10.6355L21.0539 10.6176M21.7896 9.13997C21.7904 9.17571 21.7916 9.21184 21.7928 9.24822M21.7896 9.13997L21.7928 9.24822M21.0539 10.6176C21.0797 10.6124 21.1002 10.6097 21.1191 10.6073C21.1266 10.6063 21.1338 10.6054 21.1411 10.6043C21.162 10.6013 21.1905 10.5966 21.2135 10.5787C21.5449 10.356 21.75 10.0451 21.7894 9.64031L21.7894 9.64011M21.0539 10.6176L21.7894 9.64011M21.7894 9.64011C21.8015 9.51045 21.7971 9.37773 21.7928 9.24822M21.7894 9.64011L21.7928 9.24822" fill="#020304" stroke="black" stroke-width="0.1"/>
<path d="M17.6918 11.4133L17.6836 11.3336L17.6156 11.3761C17.6102 11.3794 17.6038 11.3828 17.5955 11.387C17.5946 11.3874 17.5936 11.3879 17.5926 11.3884C17.5854 11.392 17.5767 11.3964 17.5685 11.4011C17.5513 11.411 17.5256 11.4282 17.5131 11.459C17.5026 11.481 17.4919 11.5032 17.4813 11.5254C17.416 11.6612 17.3492 11.8005 17.2965 11.9453L17.2965 11.9453L17.2964 11.9457C17.2285 12.1373 17.2248 12.3364 17.2762 12.5341L17.2762 12.5341L17.2765 12.5353C17.2837 12.5603 17.2944 12.5977 17.3179 12.6266C17.3452 12.6603 17.3856 12.6786 17.4392 12.6733L17.468 12.6704L17.4798 12.6439C17.5539 12.4784 17.6153 12.255 17.654 12.0324C17.6927 11.81 17.7095 11.584 17.6918 11.4133Z" fill="#020304" stroke="black" stroke-width="0.1"/>
<path d="M2.21309 8.71635C2.21285 8.6971 2.2069 8.6794 2.20356 8.66948C2.20335 8.66886 2.20316 8.66827 2.20297 8.66771C2.20278 8.66713 2.20257 8.66648 2.20233 8.66576C2.1992 8.65613 2.19207 8.63424 2.17576 8.61794L2.16741 8.6096L2.15622 8.60587C2.1433 8.60157 2.1303 8.59733 2.09456 8.58939L2.06218 8.5822L2.04296 8.60924C1.85316 8.87634 1.73315 9.18382 1.78476 9.52937C1.83842 9.89704 1.94953 10.257 2.11426 10.594C2.13432 10.6362 2.16257 10.6715 2.18999 10.7023C2.20134 10.7151 2.21196 10.7265 2.22209 10.7374C2.23826 10.7548 2.2532 10.7708 2.26794 10.7889L2.29114 10.8175L2.32529 10.8038C2.3461 10.7955 2.37026 10.7834 2.39197 10.7726L2.39334 10.7719L2.42606 10.7556L2.42038 10.7194C2.40359 10.6124 2.38599 10.5061 2.36844 10.4001C2.32245 10.1222 2.2768 9.84638 2.24683 9.56595M2.21309 8.71635C2.21309 8.71674 2.21309 8.71713 2.21309 8.71753H2.16309L2.21305 8.71553C2.21307 8.7158 2.21308 8.71607 2.21309 8.71635ZM2.21309 8.71635C2.21695 8.81305 2.21863 8.90895 2.22031 9.00434C2.22363 9.19281 2.22691 9.37929 2.24683 9.56595M2.24683 9.56595L2.19711 9.57125L2.24683 9.56595Z" fill="#020304" stroke="black" stroke-width="0.1"/>
<path d="M6.23985 11.0746L6.1694 10.9823L6.15076 11.0969C6.07417 11.5676 6.14003 11.881 6.36758 12.0794L6.42149 12.1264L6.44712 12.0597C6.51191 11.8909 6.53407 11.7384 6.5009 11.5787C6.46801 11.4205 6.38178 11.2605 6.23985 11.0746Z" fill="#020304" stroke="black" stroke-width="0.1"/>
<path d="M6.38686 13.6516L6.37085 13.5876C6.28494 13.2442 6.31648 12.9618 6.42926 12.6625L6.45302 12.5995L6.50648 12.6405C6.6747 12.7695 6.68149 12.9452 6.68687 13.0845L6.38686 13.6516ZM6.38686 13.6516L6.44415 13.6188M6.38686 13.6516L6.44415 13.6188M6.44415 13.6188C6.55903 13.5532 6.62499 13.472 6.65927 13.3828C6.69289 13.2953 6.69431 13.2046 6.6885 13.1229L6.44415 13.6188Z" fill="#020304" stroke="black" stroke-width="0.1"/>
</svg>
