<svg width="18" height="23" viewBox="0 0 18 23" fill="none" xmlns="http://www.w3.org/2000/svg">
<mask id="path-1-outside-1_2_5307" maskUnits="userSpaceOnUse" x="0" y="0" width="18" height="23" fill="black">
<rect fill="white" width="18" height="23"/>
<path d="M3.70941 12.2005C3.70941 12.0947 3.71319 12.004 3.70941 11.9134C3.68295 11.0559 3.64137 10.2021 3.63759 9.34464C3.63381 8.32092 3.69428 7.30099 3.79634 6.28105C3.8417 5.80886 3.92108 5.33666 4.00046 4.86825C4.0874 4.3545 4.28018 3.88609 4.6166 3.48189C4.8623 3.18347 5.14958 2.93792 5.53514 2.83593C6.01897 2.70749 6.45745 2.76038 6.80521 3.16458C6.82789 3.19102 6.86191 3.20613 6.91105 3.24013C6.94507 3.11547 6.97531 3.00592 7.00555 2.89259C7.11139 2.49973 7.25502 2.12575 7.49316 1.78955C7.96566 1.12093 8.68007 0.860275 9.46631 1.07182C9.76493 1.15115 9.99929 1.32869 10.1996 1.55534C10.5058 1.90665 10.6721 2.32218 10.7704 2.76793C10.812 2.95303 10.8309 3.14191 10.8649 3.33079C10.88 3.41012 10.9027 3.48567 10.9292 3.59522C10.9821 3.53855 11.0161 3.50455 11.0426 3.47056C11.103 3.39878 11.156 3.31568 11.224 3.25146C11.6965 2.80571 12.1879 2.73771 12.7473 3.09658C13.0044 3.26279 13.1896 3.49322 13.3408 3.75387C13.4958 4.02208 13.6054 4.31295 13.6885 4.61138C13.8927 5.33666 14.025 6.06951 14.0061 6.82879C13.9758 8.09049 13.9456 9.34841 13.9078 10.6101C13.8964 11.0256 13.8624 11.4412 13.8397 11.8567C13.836 11.9625 13.8397 12.0682 13.8397 12.1665C13.9531 12.2533 14.0628 12.2005 14.161 12.1929C14.5315 12.1665 14.8944 12.1665 15.261 12.2609C15.8923 12.4233 16.4101 12.7709 16.8751 13.2053C16.9166 13.2468 16.9582 13.2922 16.9885 13.3413C17.117 13.5339 17.0603 13.7077 16.841 13.7984C16.7654 13.8286 16.6823 13.8437 16.6029 13.8664C16.0057 14.0401 15.5407 14.3801 15.2308 14.9278C14.7658 15.7551 14.4408 16.6277 14.2858 17.5683C14.1951 18.135 14.0287 18.6789 13.783 19.2002C13.0762 20.6773 11.9422 21.6217 10.3319 21.9843C9.07697 22.2676 7.87116 22.1052 6.70315 21.6065C6.09079 21.3459 5.58428 20.9341 5.1458 20.4355C4.83206 20.0766 4.56746 19.68 4.34822 19.2569C3.9362 18.4636 3.59601 17.6401 3.35409 16.7788C3.18021 16.148 2.97231 15.5285 2.70771 14.9278C2.56785 14.6143 2.40909 14.3046 2.23143 14.0137C1.98195 13.6057 1.66065 13.2544 1.25998 12.9824C1.19194 12.9371 1.1239 12.8842 1.07098 12.8238C0.972698 12.718 0.976483 12.5707 1.08232 12.4724C1.15036 12.4082 1.23352 12.3591 1.31668 12.3138C1.71736 12.106 2.14071 12.004 2.59053 12.0418C2.89671 12.0682 3.20289 12.1287 3.50907 12.174C3.56577 12.1778 3.62247 12.1853 3.70941 12.2005ZM13.4164 12.3365C13.4164 12.2571 13.4164 12.1967 13.4164 12.14C13.4277 11.5696 13.4428 10.9992 13.4542 10.4288C13.4769 9.2162 13.4995 8.00361 13.5184 6.78724C13.5222 6.63236 13.5147 6.47748 13.5033 6.3226C13.4542 5.64264 13.3181 4.9778 13.0724 4.34317C12.9968 4.14674 12.8872 3.95786 12.7738 3.77654C12.6642 3.60277 12.5054 3.47811 12.3164 3.39123C12.1425 3.3119 11.9687 3.30435 11.7986 3.37234C11.534 3.47434 11.345 3.66699 11.19 3.9012C11.0463 4.11652 10.9707 4.33184 10.9934 4.60004C11.0955 5.65398 11.0804 6.71547 11.0615 7.77318C11.0388 9.09532 11.0161 10.4137 10.9934 11.7358C10.9859 12.0834 10.9065 12.4196 10.8158 12.752C10.8082 12.7822 10.7742 12.8086 10.7402 12.8502C10.7099 12.8011 10.6721 12.7671 10.6646 12.7293C10.6268 12.5442 10.589 12.3553 10.5663 12.1665C10.4793 11.5016 10.5134 10.8368 10.5323 10.1719C10.5474 9.62418 10.5663 9.07643 10.5852 8.53246C10.5965 8.11693 10.6041 7.70141 10.6192 7.2821C10.6683 6.04306 10.589 4.80781 10.4113 3.58011C10.3659 3.26279 10.2941 2.94926 10.211 2.6395C10.1354 2.36374 9.99928 2.11064 9.80651 1.89154C9.67799 1.748 9.52679 1.62334 9.33779 1.57801C8.81238 1.45713 8.33987 1.54779 7.98834 1.99354C7.85604 2.15975 7.73886 2.34485 7.64436 2.53373C7.45158 2.91526 7.33062 3.33079 7.21722 3.74254C7.1832 3.85964 7.18698 3.97297 7.21722 4.09385C7.37976 4.73226 7.42134 5.38577 7.42134 6.03929C7.4289 7.89406 7.43268 9.75261 7.44024 11.6074C7.44024 12.004 7.37976 12.3893 7.27771 12.7709C7.27393 12.786 7.24368 12.7935 7.21722 12.8086C7.19832 12.7822 7.16808 12.7595 7.16052 12.7331C7.1076 12.4762 7.05091 12.2231 7.00555 11.9625C6.91105 11.3958 6.95263 10.8254 6.96397 10.2512C6.97531 9.76394 6.97909 9.27664 6.97531 8.78934C6.96775 8.19626 6.9375 7.59941 6.92616 7.00634C6.9186 6.60214 6.92994 6.19794 6.9186 5.79375C6.90726 5.25734 6.85813 4.7247 6.71071 4.20718C6.65401 4.00319 6.57463 3.80298 6.48013 3.61033C6.36295 3.36479 6.14749 3.28546 5.88667 3.3119C5.67877 3.33457 5.49733 3.41012 5.33101 3.53478C4.96814 3.81054 4.73 4.17696 4.59392 4.6076C4.5221 4.84558 4.47296 5.09112 4.4276 5.33666C4.20458 6.56814 4.14032 7.81851 4.0685 9.0651C4.0118 10.0019 3.98912 10.9425 3.9551 11.8831C3.95132 12.0229 3.9551 12.1665 3.9551 12.3025C4.07984 12.3705 4.18568 12.4271 4.28774 12.4876C4.70732 12.7218 5.08154 13.0126 5.39906 13.3715C5.56537 13.5604 5.71657 13.7568 5.81485 13.991C5.82997 14.0288 5.82619 14.0741 5.83753 14.1648C5.75437 14.0968 5.70523 14.0628 5.66743 14.0212C5.56915 13.9192 5.47843 13.8097 5.37259 13.7077C4.5977 12.9673 3.71318 12.48 2.60943 12.4649C2.27679 12.4611 1.94794 12.48 1.63042 12.6575C1.66444 12.7029 1.68711 12.7444 1.72113 12.7709C2.32971 13.2771 2.74551 13.923 3.05925 14.6408C3.34275 15.298 3.58466 15.9667 3.77744 16.6542C4.00424 17.4588 4.32554 18.2256 4.71488 18.966C4.94924 19.4118 5.22517 19.8235 5.57293 20.19C5.94337 20.5828 6.36295 20.9153 6.86191 21.1306C7.85604 21.5537 8.8842 21.7501 9.96527 21.5537C10.6268 21.4328 11.258 21.2288 11.8099 20.8284C12.4487 20.3675 12.9439 19.7858 13.2954 19.0756C13.5827 18.4938 13.749 17.8743 13.8586 17.2397C14.0174 16.3255 14.3538 15.4794 14.8112 14.6785C15.1363 14.1043 15.6126 13.7115 16.2287 13.4886C16.2892 13.4659 16.3459 13.4282 16.4215 13.3904C15.9225 12.9673 15.3744 12.7331 14.7469 12.6953C14.0098 12.6538 13.3294 12.8238 12.7284 13.2657C12.4109 13.4999 12.0556 13.6661 11.6965 13.8286C11.6625 13.8437 11.6096 13.8324 11.5491 13.8324C11.6247 13.6095 11.791 13.4848 11.9157 13.3299C12.3051 12.8389 12.8343 12.548 13.4164 12.3365Z"/>
</mask>
<path d="M3.70941 12.2005C3.70941 12.0947 3.71319 12.004 3.70941 11.9134C3.68295 11.0559 3.64137 10.2021 3.63759 9.34464C3.63381 8.32092 3.69428 7.30099 3.79634 6.28105C3.8417 5.80886 3.92108 5.33666 4.00046 4.86825C4.0874 4.3545 4.28018 3.88609 4.6166 3.48189C4.8623 3.18347 5.14958 2.93792 5.53514 2.83593C6.01897 2.70749 6.45745 2.76038 6.80521 3.16458C6.82789 3.19102 6.86191 3.20613 6.91105 3.24013C6.94507 3.11547 6.97531 3.00592 7.00555 2.89259C7.11139 2.49973 7.25502 2.12575 7.49316 1.78955C7.96566 1.12093 8.68007 0.860275 9.46631 1.07182C9.76493 1.15115 9.99929 1.32869 10.1996 1.55534C10.5058 1.90665 10.6721 2.32218 10.7704 2.76793C10.812 2.95303 10.8309 3.14191 10.8649 3.33079C10.88 3.41012 10.9027 3.48567 10.9292 3.59522C10.9821 3.53855 11.0161 3.50455 11.0426 3.47056C11.103 3.39878 11.156 3.31568 11.224 3.25146C11.6965 2.80571 12.1879 2.73771 12.7473 3.09658C13.0044 3.26279 13.1896 3.49322 13.3408 3.75387C13.4958 4.02208 13.6054 4.31295 13.6885 4.61138C13.8927 5.33666 14.025 6.06951 14.0061 6.82879C13.9758 8.09049 13.9456 9.34841 13.9078 10.6101C13.8964 11.0256 13.8624 11.4412 13.8397 11.8567C13.836 11.9625 13.8397 12.0682 13.8397 12.1665C13.9531 12.2533 14.0628 12.2005 14.161 12.1929C14.5315 12.1665 14.8944 12.1665 15.261 12.2609C15.8923 12.4233 16.4101 12.7709 16.8751 13.2053C16.9166 13.2468 16.9582 13.2922 16.9885 13.3413C17.117 13.5339 17.0603 13.7077 16.841 13.7984C16.7654 13.8286 16.6823 13.8437 16.6029 13.8664C16.0057 14.0401 15.5407 14.3801 15.2308 14.9278C14.7658 15.7551 14.4408 16.6277 14.2858 17.5683C14.1951 18.135 14.0287 18.6789 13.783 19.2002C13.0762 20.6773 11.9422 21.6217 10.3319 21.9843C9.07697 22.2676 7.87116 22.1052 6.70315 21.6065C6.09079 21.3459 5.58428 20.9341 5.1458 20.4355C4.83206 20.0766 4.56746 19.68 4.34822 19.2569C3.9362 18.4636 3.59601 17.6401 3.35409 16.7788C3.18021 16.148 2.97231 15.5285 2.70771 14.9278C2.56785 14.6143 2.40909 14.3046 2.23143 14.0137C1.98195 13.6057 1.66065 13.2544 1.25998 12.9824C1.19194 12.9371 1.1239 12.8842 1.07098 12.8238C0.972698 12.718 0.976483 12.5707 1.08232 12.4724C1.15036 12.4082 1.23352 12.3591 1.31668 12.3138C1.71736 12.106 2.14071 12.004 2.59053 12.0418C2.89671 12.0682 3.20289 12.1287 3.50907 12.174C3.56577 12.1778 3.62247 12.1853 3.70941 12.2005ZM13.4164 12.3365C13.4164 12.2571 13.4164 12.1967 13.4164 12.14C13.4277 11.5696 13.4428 10.9992 13.4542 10.4288C13.4769 9.2162 13.4995 8.00361 13.5184 6.78724C13.5222 6.63236 13.5147 6.47748 13.5033 6.3226C13.4542 5.64264 13.3181 4.9778 13.0724 4.34317C12.9968 4.14674 12.8872 3.95786 12.7738 3.77654C12.6642 3.60277 12.5054 3.47811 12.3164 3.39123C12.1425 3.3119 11.9687 3.30435 11.7986 3.37234C11.534 3.47434 11.345 3.66699 11.19 3.9012C11.0463 4.11652 10.9707 4.33184 10.9934 4.60004C11.0955 5.65398 11.0804 6.71547 11.0615 7.77318C11.0388 9.09532 11.0161 10.4137 10.9934 11.7358C10.9859 12.0834 10.9065 12.4196 10.8158 12.752C10.8082 12.7822 10.7742 12.8086 10.7402 12.8502C10.7099 12.8011 10.6721 12.7671 10.6646 12.7293C10.6268 12.5442 10.589 12.3553 10.5663 12.1665C10.4793 11.5016 10.5134 10.8368 10.5323 10.1719C10.5474 9.62418 10.5663 9.07643 10.5852 8.53246C10.5965 8.11693 10.6041 7.70141 10.6192 7.2821C10.6683 6.04306 10.589 4.80781 10.4113 3.58011C10.3659 3.26279 10.2941 2.94926 10.211 2.6395C10.1354 2.36374 9.99928 2.11064 9.80651 1.89154C9.67799 1.748 9.52679 1.62334 9.33779 1.57801C8.81238 1.45713 8.33987 1.54779 7.98834 1.99354C7.85604 2.15975 7.73886 2.34485 7.64436 2.53373C7.45158 2.91526 7.33062 3.33079 7.21722 3.74254C7.1832 3.85964 7.18698 3.97297 7.21722 4.09385C7.37976 4.73226 7.42134 5.38577 7.42134 6.03929C7.4289 7.89406 7.43268 9.75261 7.44024 11.6074C7.44024 12.004 7.37976 12.3893 7.27771 12.7709C7.27393 12.786 7.24368 12.7935 7.21722 12.8086C7.19832 12.7822 7.16808 12.7595 7.16052 12.7331C7.1076 12.4762 7.05091 12.2231 7.00555 11.9625C6.91105 11.3958 6.95263 10.8254 6.96397 10.2512C6.97531 9.76394 6.97909 9.27664 6.97531 8.78934C6.96775 8.19626 6.9375 7.59941 6.92616 7.00634C6.9186 6.60214 6.92994 6.19794 6.9186 5.79375C6.90726 5.25734 6.85813 4.7247 6.71071 4.20718C6.65401 4.00319 6.57463 3.80298 6.48013 3.61033C6.36295 3.36479 6.14749 3.28546 5.88667 3.3119C5.67877 3.33457 5.49733 3.41012 5.33101 3.53478C4.96814 3.81054 4.73 4.17696 4.59392 4.6076C4.5221 4.84558 4.47296 5.09112 4.4276 5.33666C4.20458 6.56814 4.14032 7.81851 4.0685 9.0651C4.0118 10.0019 3.98912 10.9425 3.9551 11.8831C3.95132 12.0229 3.9551 12.1665 3.9551 12.3025C4.07984 12.3705 4.18568 12.4271 4.28774 12.4876C4.70732 12.7218 5.08154 13.0126 5.39906 13.3715C5.56537 13.5604 5.71657 13.7568 5.81485 13.991C5.82997 14.0288 5.82619 14.0741 5.83753 14.1648C5.75437 14.0968 5.70523 14.0628 5.66743 14.0212C5.56915 13.9192 5.47843 13.8097 5.37259 13.7077C4.5977 12.9673 3.71318 12.48 2.60943 12.4649C2.27679 12.4611 1.94794 12.48 1.63042 12.6575C1.66444 12.7029 1.68711 12.7444 1.72113 12.7709C2.32971 13.2771 2.74551 13.923 3.05925 14.6408C3.34275 15.298 3.58466 15.9667 3.77744 16.6542C4.00424 17.4588 4.32554 18.2256 4.71488 18.966C4.94924 19.4118 5.22517 19.8235 5.57293 20.19C5.94337 20.5828 6.36295 20.9153 6.86191 21.1306C7.85604 21.5537 8.8842 21.7501 9.96527 21.5537C10.6268 21.4328 11.258 21.2288 11.8099 20.8284C12.4487 20.3675 12.9439 19.7858 13.2954 19.0756C13.5827 18.4938 13.749 17.8743 13.8586 17.2397C14.0174 16.3255 14.3538 15.4794 14.8112 14.6785C15.1363 14.1043 15.6126 13.7115 16.2287 13.4886C16.2892 13.4659 16.3459 13.4282 16.4215 13.3904C15.9225 12.9673 15.3744 12.7331 14.7469 12.6953C14.0098 12.6538 13.3294 12.8238 12.7284 13.2657C12.4109 13.4999 12.0556 13.6661 11.6965 13.8286C11.6625 13.8437 11.6096 13.8324 11.5491 13.8324C11.6247 13.6095 11.791 13.4848 11.9157 13.3299C12.3051 12.8389 12.8343 12.548 13.4164 12.3365Z" fill="#020304"/>
<path d="M3.70941 12.2005C3.70941 12.0947 3.71319 12.004 3.70941 11.9134C3.68295 11.0559 3.64137 10.2021 3.63759 9.34464C3.63381 8.32092 3.69428 7.30099 3.79634 6.28105C3.8417 5.80886 3.92108 5.33666 4.00046 4.86825C4.0874 4.3545 4.28018 3.88609 4.6166 3.48189C4.8623 3.18347 5.14958 2.93792 5.53514 2.83593C6.01897 2.70749 6.45745 2.76038 6.80521 3.16458C6.82789 3.19102 6.86191 3.20613 6.91105 3.24013C6.94507 3.11547 6.97531 3.00592 7.00555 2.89259C7.11139 2.49973 7.25502 2.12575 7.49316 1.78955C7.96566 1.12093 8.68007 0.860275 9.46631 1.07182C9.76493 1.15115 9.99929 1.32869 10.1996 1.55534C10.5058 1.90665 10.6721 2.32218 10.7704 2.76793C10.812 2.95303 10.8309 3.14191 10.8649 3.33079C10.88 3.41012 10.9027 3.48567 10.9292 3.59522C10.9821 3.53855 11.0161 3.50455 11.0426 3.47056C11.103 3.39878 11.156 3.31568 11.224 3.25146C11.6965 2.80571 12.1879 2.73771 12.7473 3.09658C13.0044 3.26279 13.1896 3.49322 13.3408 3.75387C13.4958 4.02208 13.6054 4.31295 13.6885 4.61138C13.8927 5.33666 14.025 6.06951 14.0061 6.82879C13.9758 8.09049 13.9456 9.34841 13.9078 10.6101C13.8964 11.0256 13.8624 11.4412 13.8397 11.8567C13.836 11.9625 13.8397 12.0682 13.8397 12.1665C13.9531 12.2533 14.0628 12.2005 14.161 12.1929C14.5315 12.1665 14.8944 12.1665 15.261 12.2609C15.8923 12.4233 16.4101 12.7709 16.8751 13.2053C16.9166 13.2468 16.9582 13.2922 16.9885 13.3413C17.117 13.5339 17.0603 13.7077 16.841 13.7984C16.7654 13.8286 16.6823 13.8437 16.6029 13.8664C16.0057 14.0401 15.5407 14.3801 15.2308 14.9278C14.7658 15.7551 14.4408 16.6277 14.2858 17.5683C14.1951 18.135 14.0287 18.6789 13.783 19.2002C13.0762 20.6773 11.9422 21.6217 10.3319 21.9843C9.07697 22.2676 7.87116 22.1052 6.70315 21.6065C6.09079 21.3459 5.58428 20.9341 5.1458 20.4355C4.83206 20.0766 4.56746 19.68 4.34822 19.2569C3.9362 18.4636 3.59601 17.6401 3.35409 16.7788C3.18021 16.148 2.97231 15.5285 2.70771 14.9278C2.56785 14.6143 2.40909 14.3046 2.23143 14.0137C1.98195 13.6057 1.66065 13.2544 1.25998 12.9824C1.19194 12.9371 1.1239 12.8842 1.07098 12.8238C0.972698 12.718 0.976483 12.5707 1.08232 12.4724C1.15036 12.4082 1.23352 12.3591 1.31668 12.3138C1.71736 12.106 2.14071 12.004 2.59053 12.0418C2.89671 12.0682 3.20289 12.1287 3.50907 12.174C3.56577 12.1778 3.62247 12.1853 3.70941 12.2005ZM13.4164 12.3365C13.4164 12.2571 13.4164 12.1967 13.4164 12.14C13.4277 11.5696 13.4428 10.9992 13.4542 10.4288C13.4769 9.2162 13.4995 8.00361 13.5184 6.78724C13.5222 6.63236 13.5147 6.47748 13.5033 6.3226C13.4542 5.64264 13.3181 4.9778 13.0724 4.34317C12.9968 4.14674 12.8872 3.95786 12.7738 3.77654C12.6642 3.60277 12.5054 3.47811 12.3164 3.39123C12.1425 3.3119 11.9687 3.30435 11.7986 3.37234C11.534 3.47434 11.345 3.66699 11.19 3.9012C11.0463 4.11652 10.9707 4.33184 10.9934 4.60004C11.0955 5.65398 11.0804 6.71547 11.0615 7.77318C11.0388 9.09532 11.0161 10.4137 10.9934 11.7358C10.9859 12.0834 10.9065 12.4196 10.8158 12.752C10.8082 12.7822 10.7742 12.8086 10.7402 12.8502C10.7099 12.8011 10.6721 12.7671 10.6646 12.7293C10.6268 12.5442 10.589 12.3553 10.5663 12.1665C10.4793 11.5016 10.5134 10.8368 10.5323 10.1719C10.5474 9.62418 10.5663 9.07643 10.5852 8.53246C10.5965 8.11693 10.6041 7.70141 10.6192 7.2821C10.6683 6.04306 10.589 4.80781 10.4113 3.58011C10.3659 3.26279 10.2941 2.94926 10.211 2.6395C10.1354 2.36374 9.99928 2.11064 9.80651 1.89154C9.67799 1.748 9.52679 1.62334 9.33779 1.57801C8.81238 1.45713 8.33987 1.54779 7.98834 1.99354C7.85604 2.15975 7.73886 2.34485 7.64436 2.53373C7.45158 2.91526 7.33062 3.33079 7.21722 3.74254C7.1832 3.85964 7.18698 3.97297 7.21722 4.09385C7.37976 4.73226 7.42134 5.38577 7.42134 6.03929C7.4289 7.89406 7.43268 9.75261 7.44024 11.6074C7.44024 12.004 7.37976 12.3893 7.27771 12.7709C7.27393 12.786 7.24368 12.7935 7.21722 12.8086C7.19832 12.7822 7.16808 12.7595 7.16052 12.7331C7.1076 12.4762 7.05091 12.2231 7.00555 11.9625C6.91105 11.3958 6.95263 10.8254 6.96397 10.2512C6.97531 9.76394 6.97909 9.27664 6.97531 8.78934C6.96775 8.19626 6.9375 7.59941 6.92616 7.00634C6.9186 6.60214 6.92994 6.19794 6.9186 5.79375C6.90726 5.25734 6.85813 4.7247 6.71071 4.20718C6.65401 4.00319 6.57463 3.80298 6.48013 3.61033C6.36295 3.36479 6.14749 3.28546 5.88667 3.3119C5.67877 3.33457 5.49733 3.41012 5.33101 3.53478C4.96814 3.81054 4.73 4.17696 4.59392 4.6076C4.5221 4.84558 4.47296 5.09112 4.4276 5.33666C4.20458 6.56814 4.14032 7.81851 4.0685 9.0651C4.0118 10.0019 3.98912 10.9425 3.9551 11.8831C3.95132 12.0229 3.9551 12.1665 3.9551 12.3025C4.07984 12.3705 4.18568 12.4271 4.28774 12.4876C4.70732 12.7218 5.08154 13.0126 5.39906 13.3715C5.56537 13.5604 5.71657 13.7568 5.81485 13.991C5.82997 14.0288 5.82619 14.0741 5.83753 14.1648C5.75437 14.0968 5.70523 14.0628 5.66743 14.0212C5.56915 13.9192 5.47843 13.8097 5.37259 13.7077C4.5977 12.9673 3.71318 12.48 2.60943 12.4649C2.27679 12.4611 1.94794 12.48 1.63042 12.6575C1.66444 12.7029 1.68711 12.7444 1.72113 12.7709C2.32971 13.2771 2.74551 13.923 3.05925 14.6408C3.34275 15.298 3.58466 15.9667 3.77744 16.6542C4.00424 17.4588 4.32554 18.2256 4.71488 18.966C4.94924 19.4118 5.22517 19.8235 5.57293 20.19C5.94337 20.5828 6.36295 20.9153 6.86191 21.1306C7.85604 21.5537 8.8842 21.7501 9.96527 21.5537C10.6268 21.4328 11.258 21.2288 11.8099 20.8284C12.4487 20.3675 12.9439 19.7858 13.2954 19.0756C13.5827 18.4938 13.749 17.8743 13.8586 17.2397C14.0174 16.3255 14.3538 15.4794 14.8112 14.6785C15.1363 14.1043 15.6126 13.7115 16.2287 13.4886C16.2892 13.4659 16.3459 13.4282 16.4215 13.3904C15.9225 12.9673 15.3744 12.7331 14.7469 12.6953C14.0098 12.6538 13.3294 12.8238 12.7284 13.2657C12.4109 13.4999 12.0556 13.6661 11.6965 13.8286C11.6625 13.8437 11.6096 13.8324 11.5491 13.8324C11.6247 13.6095 11.791 13.4848 11.9157 13.3299C12.3051 12.8389 12.8343 12.548 13.4164 12.3365Z" stroke="black" stroke-width="0.2" mask="url(#path-1-outside-1_2_5307)"/>
<path d="M12.0443 17.5759L12.0806 17.6103C12.2841 17.3953 12.4506 17.1598 12.563 16.8847L12.5632 16.8843C12.6056 16.7783 12.605 16.6844 12.5806 16.5787L12.5805 16.5782C12.5204 16.33 12.3722 16.1517 12.1989 15.9939C11.8902 15.7124 11.5249 15.5247 11.1443 15.3725L11.1442 15.3725C10.4458 15.094 9.71403 14.9762 8.96535 14.9497L8.96536 14.9492L8.95849 14.9499C8.8607 14.9599 8.76244 14.9689 8.66399 14.978C8.42994 14.9995 8.1948 15.0212 7.96233 15.0559C7.18599 15.163 6.48757 15.4724 5.83346 15.8867L5.83334 15.8867C5.56914 16.0551 5.32659 16.2549 5.1259 16.5018L5.12575 16.5019C5.06255 16.5804 5.0219 16.6481 5.01882 16.7225C5.01575 16.7969 5.05075 16.8662 5.1042 16.9464C5.12345 16.9752 5.14476 17.0036 5.16516 17.0307C5.16982 17.0369 5.17444 17.043 5.17898 17.0491C5.20387 17.0824 5.22694 17.1145 5.24617 17.1477L5.24637 17.148C5.63833 17.8124 6.21098 18.2574 6.91552 18.5329L6.91566 18.5329C8.29305 19.0667 9.66042 19.0171 11.0032 18.3919L11.0034 18.3918C11.4097 18.2002 11.7701 17.9397 12.0806 17.6102L12.0443 17.5759ZM12.0443 17.5759C11.7381 17.9008 11.3828 18.1577 10.9821 18.3465M12.0443 17.5759C12.2446 17.3644 12.4071 17.1339 12.5168 16.8657C12.5546 16.7713 12.5546 16.6882 12.5319 16.59C12.4752 16.3558 12.3353 16.1858 12.1652 16.0309C11.8628 15.7551 11.5037 15.57 11.1257 15.4189L10.9821 18.3465M10.9821 18.3465C9.65153 18.966 8.2983 19.0152 6.93373 18.4863C6.23821 18.2143 5.67499 17.7761 5.28943 17.1226L10.9821 18.3465ZM10.5028 16.0401C10.5003 15.9686 10.4942 15.896 10.4883 15.8249C10.487 15.8095 10.4857 15.7942 10.4845 15.7789C10.7168 15.8019 10.9903 15.9032 11.2825 16.0727C11.5877 16.2498 11.9102 16.4994 12.223 16.8057C12.2163 16.8142 12.2098 16.8227 12.2034 16.8312C12.1703 16.8744 12.1381 16.9166 12.0959 16.9588L12.0958 16.9588L12.0943 16.9605C11.4371 17.6806 10.6118 18.1028 9.66087 18.2899C8.8112 18.4545 7.97433 18.4019 7.1639 18.081C6.74606 17.9132 6.3705 17.6788 6.05482 17.356C5.85031 17.1444 5.6817 16.9064 5.5743 16.6423C5.78608 16.4161 6.09166 16.1979 6.41915 16.0271C6.73329 15.8632 7.06378 15.7447 7.34628 15.7035C7.33852 15.751 7.33076 15.7967 7.32301 15.8406C7.24189 16.2771 7.28798 16.6937 7.51418 17.0835C8.06807 18.0423 9.34544 18.1674 10.0711 17.3291L10.0711 17.3291C10.3901 16.9598 10.526 16.524 10.5028 16.0401ZM10.5028 16.0401C10.5028 16.0402 10.5028 16.0403 10.5029 16.0404L10.4529 16.0422M10.5028 16.0401C10.5028 16.04 10.5028 16.0399 10.5028 16.0398L10.4529 16.0422M10.4529 16.0422C10.4504 15.9717 10.4445 15.9012 10.4386 15.8307C10.4371 15.8122 10.4355 15.7937 10.434 15.7752L10.4529 16.0422ZM12.29 16.8015C11.6609 16.1766 10.9859 15.7744 10.4806 15.7283L12.1312 16.9942C12.1759 16.9495 12.2114 16.9031 12.2454 16.8586C12.2603 16.8391 12.275 16.8199 12.29 16.8015ZM8.08392 17.0794L8.08369 17.0792C7.6709 16.6775 7.55649 16.1815 7.67534 15.6039C8.40643 15.4348 9.12497 15.4589 9.8706 15.595C10.0198 16.0457 10.007 16.4484 9.78954 16.8296L9.78943 16.8298C9.42344 17.478 8.61178 17.5997 8.08392 17.0794Z" fill="#020304" stroke="black" stroke-width="0.1"/>
<path d="M11.3959 15.0212C11.3958 15.0212 11.3958 15.0211 11.3958 15.0211C11.3589 15.0088 11.3227 14.9966 11.2883 14.9807M11.3959 15.0212L8.51376 11.5696C8.44288 11.8175 8.37789 12.0674 8.31314 12.3164C8.28811 12.4127 8.26311 12.5088 8.23782 12.6047C8.10552 13.126 8.09796 13.6397 8.35878 14.1308M11.3959 15.0212C11.3956 15.0222 11.3953 15.0232 11.395 15.0242L11.4432 15.0374L11.3959 15.0212ZM11.2883 14.9807C10.4264 14.6257 9.53057 14.4972 8.59692 14.5841C8.03748 14.637 7.49694 14.7692 6.96775 14.9656M11.2883 14.9807L11.2692 15.027C11.2689 15.0268 11.2686 15.0267 11.2683 15.0266C10.4145 14.675 9.52706 14.5478 8.60155 14.6339C8.04699 14.6863 7.51076 14.8174 6.9852 15.0125M11.2883 14.9807L6.9852 15.0125M6.96775 14.9656C6.84679 15.011 6.72205 15.0525 6.59731 15.0903C6.52927 15.1092 6.45745 15.1205 6.38941 15.1281C6.31381 15.1318 6.24955 15.1016 6.21553 15.0261C6.18529 14.9543 6.22309 14.8636 6.30247 14.8145M6.96775 14.9656L6.98515 15.0125C6.98516 15.0125 6.98518 15.0125 6.9852 15.0125M6.96775 14.9656L6.98529 15.0125C6.98526 15.0125 6.98523 15.0125 6.9852 15.0125M6.30247 14.8145C6.36295 14.7768 6.42721 14.7465 6.49147 14.7201M6.30247 14.8145L6.27617 14.772C6.27614 14.772 6.27611 14.772 6.27608 14.7721M6.30247 14.8145L6.27599 14.7721C6.27602 14.7721 6.27605 14.7721 6.27608 14.7721M6.49147 14.7201C6.99799 14.5086 7.51207 14.3272 8.05638 14.2403C8.12448 14.2306 8.19101 14.2162 8.25597 14.2021C8.29198 14.1943 8.32751 14.1866 8.36256 14.1799M6.49147 14.7201L6.4722 14.674C6.98021 14.4618 7.49849 14.2788 8.0485 14.191L8.04931 14.1908L8.04932 14.1908C8.11594 14.1813 8.17902 14.1676 8.2426 14.1539C8.26401 14.1492 8.28548 14.1446 8.30715 14.14C8.04619 13.6386 8.05648 13.1159 8.18936 12.5924L8.18947 12.5919L8.18947 12.5919C8.21467 12.4965 8.2396 12.4006 8.2646 12.3044C8.3294 12.0553 8.3946 11.8045 8.46564 11.556M6.49147 14.7201L6.47244 14.6739C6.40678 14.7009 6.33977 14.7323 6.27608 14.7721M8.36256 14.1799V14.1799C8.36256 14.1534 8.36256 14.1383 8.35878 14.1308M8.36256 14.1799L8.35365 14.1335L8.35878 14.1308M8.36256 14.1799H8.31256C8.31256 14.1661 8.31254 14.1574 8.31217 14.1512L8.31203 14.1493L8.35362 14.1334L8.35878 14.1308M8.46564 11.556L6.27608 14.7721M8.46564 11.556C8.57488 11.1645 8.65567 10.7834 8.60775 10.3818L8.60773 10.3817C8.57984 10.1428 8.63619 9.91793 8.74806 9.67504L8.77808 9.60988L8.82882 9.66059C8.84861 9.68037 8.86653 9.69688 8.8837 9.7127C8.89047 9.71893 8.89711 9.72505 8.90371 9.73122C8.92624 9.7523 8.94812 9.7739 8.96621 9.79875L8.96798 9.80119L8.9679 9.80123C9.20805 10.1767 9.31069 10.5869 9.20888 11.0292C9.12927 11.3778 9.03832 11.7224 8.93987 12.0668M8.46564 11.556L11.46 14.9903C11.4662 14.9744 11.4701 14.9626 11.4659 14.9543C11.4625 14.9475 11.4592 14.9406 11.4559 14.9337C11.4371 14.8948 11.4187 14.8565 11.3865 14.8372L11.4135 14.7951C11.4133 14.795 11.4131 14.7949 11.413 14.7947C11.384 14.7762 11.3546 14.7569 11.3249 14.7374C11.2069 14.6599 11.0827 14.5784 10.9494 14.5195L10.949 14.5193C10.3573 14.2637 9.73822 14.1261 9.09209 14.1261C9.00735 14.1261 8.92342 14.1228 8.83836 14.1195C8.80497 14.1182 8.77141 14.1169 8.73756 14.1157C8.72975 14.1009 8.72205 14.0867 8.71481 14.0734C8.71015 14.0648 8.70568 14.0565 8.70151 14.0487C8.68658 14.0207 8.67482 13.997 8.66668 13.9742L8.66673 13.9742L8.66582 13.972C8.64105 13.9119 8.62306 13.8438 8.61222 13.7788L8.61223 13.7788L8.612 13.7776C8.56087 13.5112 8.58617 13.2473 8.66011 12.9886L8.66018 12.9884C8.7034 12.8344 8.75135 12.6821 8.79959 12.529L8.7997 12.5287C8.84781 12.376 8.89619 12.2224 8.93987 12.0668M8.93987 12.0668C8.93988 12.0667 8.93989 12.0667 8.93989 12.0667L8.89175 12.0531L8.93983 12.0669C8.93984 12.0668 8.93985 12.0668 8.93987 12.0668Z" fill="#020304" stroke="black" stroke-width="0.1"/>
<path d="M5.24577 16.0632L5.19869 15.9612C5.18355 15.9284 5.16938 15.9015 5.15598 15.876C5.14969 15.864 5.14356 15.8523 5.13759 15.8406C5.11971 15.8053 5.10363 15.7697 5.0966 15.73M5.24577 16.0632L5.1458 15.7211M5.24577 16.0632L5.29003 15.9599C5.30073 15.935 5.31102 15.9124 5.32073 15.891L5.32178 15.8887C5.3317 15.8669 5.34117 15.846 5.34936 15.8262C5.36553 15.787 5.37831 15.7482 5.38086 15.7064M5.24577 16.0632L5.33102 15.7023M5.0966 15.73C5.09659 15.73 5.09658 15.7299 5.09656 15.7298L5.1458 15.7211M5.0966 15.73C5.09661 15.7301 5.09662 15.7302 5.09663 15.7302L5.1458 15.7211M5.0966 15.73C5.02753 15.3561 4.82961 15.0873 4.47917 14.932L4.47906 14.932C4.00767 14.7217 3.70561 14.3522 3.48688 13.9073L3.48651 13.9066L3.48651 13.9066C3.44382 13.8159 3.40465 13.7247 3.367 13.6371C3.35098 13.5999 3.33524 13.5632 3.31963 13.5276L3.30866 13.5025L3.32383 13.4798C3.3515 13.4383 3.38741 13.4108 3.43076 13.408C3.47216 13.4054 3.50583 13.4264 3.52841 13.4486M5.1458 15.7211C5.07398 15.3321 4.86608 15.0487 4.49942 14.8863C4.04204 14.6823 3.74721 14.3235 3.53175 13.8853C3.48944 13.7954 3.45082 13.7055 3.41332 13.6183C3.39722 13.5808 3.38133 13.5438 3.36543 13.5075C3.41079 13.4395 3.45993 13.4508 3.49395 13.4848M3.52841 13.4486C3.52816 13.4484 3.5279 13.4481 3.52765 13.4479L3.49395 13.4848M3.52841 13.4486C3.52871 13.4489 3.529 13.4492 3.52929 13.4495L3.49395 13.4848M3.52841 13.4486C3.57388 13.4901 3.62148 13.5314 3.66971 13.5733C3.80099 13.6873 3.9369 13.8054 4.04682 13.9406L4.04717 13.941L4.04717 13.941C4.24833 14.1942 4.46961 14.3999 4.75567 14.5391L4.75592 14.5393C5.09984 14.7091 5.30576 14.9988 5.37266 15.376M3.49395 13.4848C3.54165 13.5284 3.59078 13.571 3.64 13.6138C3.77019 13.7269 3.90105 13.8406 4.00802 13.9721C4.21214 14.229 4.43894 14.4406 4.73378 14.5841C5.06264 14.7465 5.25919 15.0223 5.32345 15.3849M5.24408 15.9402L5.19813 15.9205C5.204 15.9068 5.20974 15.8938 5.21527 15.8815C5.22451 15.8995 5.23421 15.9189 5.24408 15.9402ZM5.24408 15.9402L5.28947 15.9193C5.28318 15.9056 5.27687 15.8926 5.27069 15.8803C5.26229 15.8988 5.25334 15.9186 5.24408 15.9402ZM5.37266 15.376C5.37264 15.376 5.37263 15.3759 5.37262 15.3758L5.32345 15.3849M5.37266 15.376C5.37267 15.3761 5.37268 15.3762 5.37269 15.3762L5.32345 15.3849M5.37266 15.376C5.39256 15.4836 5.39242 15.5977 5.38086 15.7064M5.32345 15.3849C5.34235 15.4869 5.34236 15.5965 5.33102 15.7023M5.33102 15.7023L5.38094 15.705C5.38091 15.7055 5.38089 15.7059 5.38086 15.7064M5.33102 15.7023L5.38073 15.7076C5.38077 15.7072 5.38082 15.7068 5.38086 15.7064" fill="#020304" stroke="black" stroke-width="0.1"/>
<path d="M12.542 15.5814L12.5967 15.6179L12.6172 15.5554C12.6401 15.4855 12.6612 15.4186 12.6815 15.3539C12.729 15.2028 12.7727 15.0639 12.8277 14.9277L12.8277 14.9277L12.8279 14.9273C13.0196 14.4409 13.3533 14.0937 13.8557 13.9251L13.8557 13.9251L13.8573 13.9245C13.8726 13.9188 13.888 13.9131 13.9033 13.9074C13.9774 13.88 14.0518 13.8525 14.1259 13.817L14.1259 13.817L14.1264 13.8168C14.2448 13.7586 14.3381 13.6984 14.4221 13.6195C14.5058 13.5408 14.5784 13.4452 14.6571 13.3186L14.6943 13.2586L14.6255 13.2434C14.6165 13.2414 14.6097 13.2391 14.6012 13.2362C14.5951 13.2342 14.588 13.2318 14.5787 13.2291C14.5621 13.2242 14.5353 13.2174 14.5076 13.2249C14.1479 13.3119 13.7879 13.415 13.4575 13.5878L13.4573 13.588C12.7973 13.9371 12.4839 14.5162 12.3954 15.2272C12.3875 15.2822 12.3835 15.3448 12.4028 15.4073C12.4227 15.4716 12.4656 15.5306 12.542 15.5814Z" fill="#020304" stroke="black" stroke-width="0.1"/>
<path d="M5.60261 12.6937L5.69708 12.7841L5.68704 12.6537C5.68429 12.618 5.68364 12.5897 5.68306 12.5647C5.68287 12.5564 5.68269 12.5484 5.68244 12.5407C5.68151 12.5119 5.67971 12.4824 5.66883 12.4547C5.47016 11.9063 5.52456 11.368 5.74026 10.829C5.77875 10.7343 5.81055 10.6369 5.84189 10.541C5.85119 10.5125 5.86046 10.4841 5.86984 10.456L5.86984 10.456L5.87001 10.4554C5.97719 10.1222 5.92094 9.81475 5.71532 9.53419L5.71533 9.53418L5.71461 9.53325C5.69455 9.50718 5.66588 9.47571 5.62552 9.46277C5.58076 9.44842 5.53492 9.46045 5.49036 9.49326L5.47247 9.50644L5.47026 9.52854C5.46904 9.54072 5.46646 9.55403 5.46324 9.57064C5.46222 9.57593 5.46113 9.58155 5.46 9.58757C5.45568 9.61062 5.45111 9.63811 5.45111 9.66574H5.45108L5.45114 9.66754C5.46595 10.0781 5.3735 10.4718 5.2348 10.8615C5.12531 11.1664 5.12214 11.4848 5.16042 11.7986L5.16046 11.7988C5.19126 12.0413 5.25717 12.2799 5.39514 12.4887L5.39513 12.4887L5.39566 12.4895C5.41985 12.5246 5.45083 12.5552 5.48484 12.5863C5.4968 12.5972 5.50903 12.6082 5.52172 12.6195C5.54642 12.6416 5.57289 12.6652 5.60261 12.6937Z" fill="#020304" stroke="black" stroke-width="0.1"/>
<path d="M13.1448 18.0836L13.1496 18.0382L13.1049 18.0293C13.0468 18.0177 13.0013 18.0266 12.9635 18.0481C12.9347 18.0646 12.9115 18.0884 12.8945 18.106C12.8914 18.1091 12.8885 18.1121 12.8859 18.1147L12.8856 18.115C12.6611 18.3432 12.4504 18.5879 12.2777 18.868C12.0221 19.2812 11.734 19.6659 11.3723 19.9863L11.3723 19.9863L11.3713 19.9872C11.3394 20.0169 11.3126 20.0512 11.2872 20.0857C11.2797 20.0959 11.2723 20.1061 11.265 20.1163C11.2468 20.1414 11.2286 20.1666 11.2076 20.1927L11.1426 20.274H11.2467C11.5804 20.274 11.9328 20.0776 12.2883 19.7032C12.7224 19.2504 13.0751 18.7456 13.1448 18.0836Z" fill="#020304" stroke="black" stroke-width="0.1"/>
<path d="M8.42681 4.15647C8.39614 4.32119 8.37691 4.49009 8.37306 4.65554L8.37304 4.65554V4.6567C8.37304 4.81294 8.43076 4.96073 8.53702 5.07918L8.53725 5.07944C8.53878 5.08111 8.54042 5.08296 8.5422 5.08494C8.55836 5.10304 8.58473 5.13259 8.61887 5.14675C8.64017 5.15558 8.66439 5.15882 8.6907 5.15307C8.71614 5.1475 8.74056 5.1342 8.76445 5.11488L8.78544 5.0979L8.78275 5.07103C8.7815 5.05852 8.78072 5.04551 8.77984 5.03082C8.77947 5.02466 8.77909 5.0182 8.77864 5.01137C8.77719 4.98917 8.77517 4.96452 8.77098 4.93935L8.77099 4.93935L8.77079 4.93827C8.72012 4.67063 8.76325 4.42168 8.89406 4.18202C8.96301 4.0557 9.02453 3.92513 9.07464 3.79035C9.14792 3.59758 9.19576 3.39315 9.17591 3.17885L9.17591 3.17885L9.17584 3.17815C9.14442 2.88378 9.02909 2.63416 8.76406 2.4616L8.71058 2.42678L8.68957 2.48704C8.68601 2.49725 8.68255 2.50713 8.6792 2.51672C8.64246 2.62177 8.61832 2.6908 8.60886 2.75603C8.59813 2.83005 8.60626 2.8975 8.62724 3.00423L8.62725 3.00428C8.68547 3.29882 8.64221 3.57216 8.53168 3.84462L8.53168 3.84462L8.53135 3.84546C8.52473 3.86268 8.51771 3.88036 8.51054 3.89842C8.47836 3.97952 8.44317 4.0682 8.42681 4.15647ZM8.42681 4.15647L8.47596 4.16562M8.42681 4.15647C8.4268 4.15648 8.4268 4.1565 8.4268 4.15651L8.47596 4.16562M8.47596 4.16562C8.49134 4.08263 8.52423 3.99964 8.55632 3.91869C8.56367 3.90015 8.57097 3.88172 8.57802 3.86342L9.12612 3.18346C9.14502 3.38745 9.09965 3.58388 9.02784 3.77276C8.9787 3.90497 8.91822 4.03341 8.85018 4.15806C8.7141 4.40738 8.66874 4.66803 8.72166 4.94757C8.7265 4.97663 8.72824 5.00569 8.72986 5.03276C8.73077 5.04792 8.73164 5.06245 8.733 5.07601C8.65703 5.13746 8.61569 5.09168 8.57914 5.0512C8.5775 5.04939 8.57587 5.04758 8.57424 5.04579C8.47596 4.93624 8.42304 4.80025 8.42304 4.6567C8.42682 4.49427 8.44572 4.32806 8.47596 4.16562Z" fill="#020304" stroke="black" stroke-width="0.1"/>
<path d="M7.58389 20.3297L7.60396 20.2839C7.23616 20.1227 6.88833 19.9319 6.571 19.6894C6.48248 19.6216 6.39391 19.552 6.30504 19.482L6.3049 19.4819C6.21632 19.4122 6.12743 19.3423 6.0385 19.2742C6.03295 19.2697 6.02733 19.2639 6.01856 19.2547C6.01773 19.2538 6.01687 19.2529 6.01598 19.252C6.00671 19.2423 5.99417 19.2294 5.97912 19.2186C5.96349 19.2074 5.94364 19.1973 5.91906 19.1944C5.89435 19.1913 5.8691 19.196 5.84349 19.2075L5.8078 19.2236L5.8148 19.2621C5.81707 19.2745 5.81801 19.2853 5.81909 19.2977C5.8196 19.3037 5.82015 19.3099 5.82089 19.3169C5.82285 19.3355 5.82635 19.3608 5.83949 19.3837L5.83949 19.3837L5.83963 19.384C5.84505 19.3933 5.85053 19.4029 5.85607 19.4125C5.89205 19.4751 5.93075 19.5424 5.97548 19.6008L5.97548 19.6008L5.97581 19.6013C6.30424 20.0211 6.6871 20.3734 7.15876 20.6378L7.15898 20.6379C7.4825 20.8171 7.81978 20.8875 8.24436 20.798L8.32612 20.7807L8.27228 20.7168C8.25769 20.6995 8.24534 20.684 8.2342 20.6699C8.23288 20.6682 8.23156 20.6665 8.23026 20.6649C8.22078 20.6528 8.21175 20.6414 8.20325 20.6313C8.18497 20.6097 8.1643 20.5884 8.13553 20.5758C8.10596 20.5584 8.07622 20.5408 8.0463 20.523C7.90322 20.4379 7.75605 20.3504 7.60392 20.2839L7.58389 20.3297ZM7.58389 20.3297C7.73289 20.3949 7.8768 20.4804 8.0198 20.5654C8.05092 20.5839 8.082 20.6024 8.11308 20.6206L5.86399 19.2531C5.92271 19.2267 5.95406 19.2596 5.98285 19.2897C5.99113 19.2984 5.99919 19.3068 6.00764 19.3136C6.09647 19.3816 6.18529 19.4515 6.27412 19.5213C6.36295 19.5912 6.45178 19.6611 6.54061 19.7291C6.86191 19.9746 7.21345 20.1673 7.58389 20.3297ZM6.01519 19.5705C5.97263 19.5148 5.93574 19.4507 5.89961 19.3879C5.89403 19.3782 5.88846 19.3685 5.8829 19.3589L6.01519 19.5705Z" fill="#020304" stroke="black" stroke-width="0.1"/>
<path d="M12.0798 12.2738L12.0629 12.1667C12.0557 12.1211 12.0491 12.0829 12.0434 12.0497C12.0317 11.9814 12.0235 11.9339 12.0208 11.8859L12.0208 11.8859C12.0021 11.5457 11.9461 11.2159 11.8094 10.9021L11.8094 10.9019C11.6589 10.5537 11.6955 10.198 11.8674 9.86591C11.8865 9.82779 11.9116 9.78247 11.9538 9.75084C11.9987 9.71719 12.0563 9.7035 12.1309 9.71446L12.1736 9.72074V9.76393C12.1736 9.78473 12.1749 9.80434 12.1762 9.82579C12.1771 9.84104 12.1781 9.85722 12.1788 9.87543C12.1803 9.91535 12.1796 9.95975 12.1684 10.0027C12.1 10.2911 12.1499 10.562 12.2853 10.8252L12.2855 10.8257L12.2855 10.8257C12.3364 10.9274 12.3736 11.0355 12.4087 11.1374L12.0798 12.2738ZM12.0798 12.2738L12.1503 12.1914C12.2967 12.02 12.3961 11.8549 12.4422 11.6852C12.4885 11.5145 12.48 11.3427 12.4166 11.1604M12.0798 12.2738L12.1017 12.0937M12.4166 11.1604C12.4166 11.1604 12.4166 11.1603 12.4166 11.1603L12.3693 11.1767M12.4166 11.1604L12.1264 9.83147C12.1297 9.88489 12.1331 9.9405 12.1199 9.99058C12.048 10.2928 12.101 10.5761 12.2408 10.8481M12.4166 11.1604L12.3693 11.1767M12.3693 11.1767C12.3668 11.1693 12.3642 11.1618 12.3616 11.1543C12.3263 11.0518 12.2901 10.9467 12.2408 10.8481M12.3693 11.1767C12.4841 11.5065 12.4083 11.7921 12.1547 12.1078C12.1569 12.1213 12.1593 12.1357 12.1617 12.1511L12.1123 12.1589L12.0743 12.1264C12.0836 12.1155 12.0928 12.1046 12.1017 12.0937M12.2408 10.8481L12.2408 10.8481L12.2408 10.8481ZM12.1017 12.0937C12.0982 12.0732 12.095 12.0545 12.0921 12.0374C12.0807 11.9715 12.0732 11.9282 12.0707 11.8831C12.0518 11.5394 11.9951 11.2032 11.8553 10.8821C11.7116 10.5497 11.7456 10.2097 11.912 9.88859L12.1017 12.0937Z" fill="#020304" stroke="black" stroke-width="0.1"/>
<path d="M12.0652 5.6205L12.0373 5.58068C12.0189 5.55439 12.0006 5.53218 11.9821 5.5099C11.9754 5.50174 11.9686 5.49356 11.9619 5.48518C11.9379 5.45546 11.9135 5.42276 11.8992 5.38446L11.8986 5.38298L11.8986 5.38297C11.8264 5.17028 11.7619 4.95404 11.7013 4.73823M12.0652 5.6205L11.9755 3.91059C11.9767 3.89784 11.978 3.88432 11.9794 3.86994L12.0291 3.87476L12.0582 3.91546C12.0458 3.92433 12.034 3.93229 12.0231 3.93947C12.0226 3.94513 12.0221 3.95063 12.0216 3.95601C12.0153 4.0249 12.0111 4.07175 12.0027 4.11653C11.9535 4.35829 11.98 4.58494 12.1123 4.80026M12.0652 5.6205L12.1058 5.59373C12.206 5.52765 12.2714 5.45409 12.3031 5.3705C12.3351 5.28653 12.3306 5.19916 12.3038 5.11065L12.3038 5.11065L12.3034 5.10931C12.2651 4.99449 12.2183 4.87703 12.1549 4.77407M12.0652 5.6205L12.2559 5.12513C12.2181 5.01181 12.1728 4.89848 12.1123 4.80026M11.7013 4.73823L11.7494 4.72471L11.7013 4.73828C11.7013 4.73826 11.7013 4.73825 11.7013 4.73823ZM11.7013 4.73823C11.6212 4.45411 11.6782 4.19358 11.8402 3.95263L11.8817 3.98054L11.8401 3.95279C11.858 3.92599 11.8836 3.90887 11.9076 3.89379C11.9136 3.89002 11.9198 3.88623 11.9262 3.88229C11.9472 3.8694 11.9709 3.85488 12.0001 3.83407L12.0895 3.77025L12.0789 3.87958C12.0761 3.90857 12.0737 3.93461 12.0716 3.95835C12.0652 4.02833 12.0607 4.07845 12.0518 4.12575L12.0517 4.12649C12.0047 4.35777 12.0302 4.57114 12.1549 4.77407M12.1549 4.77407C12.1549 4.77406 12.1549 4.77405 12.1549 4.77405L12.1123 4.80026M12.1549 4.77407C12.1549 4.77407 12.1549 4.77408 12.1549 4.77409L12.1123 4.80026M12.1191 5.52308C12.117 5.52465 12.115 5.52621 12.1129 5.52777L12.1192 5.52331C12.1192 5.52323 12.1191 5.52316 12.1191 5.52308Z" fill="#020304" stroke="black" stroke-width="0.1"/>
<path d="M5.27809 4.91358L5.23115 4.93078C5.32965 5.1996 5.43569 5.46452 5.54141 5.72865L5.54163 5.72922L5.54147 5.72928L5.54334 5.73301C5.54931 5.74495 5.55769 5.75347 5.56442 5.7594C5.57106 5.76524 5.57885 5.77086 5.58606 5.77597C5.58832 5.77758 5.59068 5.77924 5.59315 5.78098C5.60717 5.79085 5.62462 5.80314 5.64755 5.82146L5.69326 5.85801L5.72222 5.80715C5.78689 5.69356 5.82798 5.58259 5.83727 5.47065C5.84661 5.35812 5.82355 5.24776 5.76483 5.13627C5.73666 5.08 5.70462 5.02289 5.67328 4.96701C5.65794 4.93966 5.64277 4.91261 5.6283 4.8861C5.53442 4.70919 5.49563 4.52728 5.52413 4.33148L5.47465 4.32428M5.27809 4.91358L5.23122 4.93098C5.13896 4.68245 5.16369 4.43419 5.27451 4.20084L5.27495 4.19991L5.27496 4.19991C5.27603 4.19778 5.27713 4.19556 5.27826 4.19327C5.29185 4.16587 5.31029 4.12869 5.34076 4.09938C5.37659 4.06489 5.42539 4.04385 5.49355 4.04385H5.54612L5.54349 4.09635C5.54339 4.09845 5.54328 4.10056 5.54318 4.10267C5.53952 4.17591 5.53555 4.25544 5.5241 4.3317L5.47465 4.32428M5.27809 4.91358C5.19115 4.67937 5.21383 4.44516 5.31967 4.22229C5.32062 4.2204 5.32156 4.21851 5.3225 4.21662C5.3468 4.16786 5.37277 4.11575 5.44322 4.09921C5.44328 4.09802 5.44334 4.09683 5.4434 4.09564C5.44347 4.09421 5.44355 4.09278 5.44362 4.09135L5.49355 4.09385V4.14385C5.49269 4.14385 5.49184 4.14385 5.491 4.14386C5.48776 4.20391 5.48351 4.26525 5.47465 4.32428M5.27809 4.91358C5.37634 5.1817 5.48215 5.44605 5.58796 5.7104L5.58805 5.71064C5.59239 5.7193 5.60293 5.72672 5.62182 5.74002C5.62681 5.74353 5.63238 5.74745 5.63858 5.75191C5.6375 5.75383 5.63641 5.75575 5.63532 5.75767L5.58427 4.9098C5.48599 4.7247 5.44441 4.53204 5.47465 4.32428" fill="#020304" stroke="black" stroke-width="0.1"/>
<path d="M5.53183 9.09604C5.61476 9.0891 5.69249 9.04486 5.75252 8.98275C5.81285 8.92035 5.85834 8.83696 5.87534 8.74561L5.87539 8.74562L5.87569 8.74354C5.87772 8.72928 5.87878 8.71608 5.87967 8.70494C5.87971 8.70434 5.87976 8.70374 5.87981 8.70315C5.88077 8.69114 5.88158 8.68184 5.88307 8.67291L5.88403 8.67307L5.88373 8.66315C5.8753 8.38942 5.61719 8.19644 5.37359 8.31365L5.37359 8.31365L5.37292 8.31398C5.22121 8.38979 5.13848 8.58782 5.17232 8.76115L5.17232 8.76115L5.17237 8.76138C5.19145 8.85673 5.24108 8.94232 5.30447 9.00301C5.36716 9.06303 5.44863 9.10332 5.53183 9.09604ZM5.53183 9.09604C5.53188 9.09603 5.53192 9.09603 5.53196 9.09603L5.52757 9.04622L5.53172 9.09605C5.53176 9.09604 5.5318 9.09604 5.53183 9.09604Z" fill="#020304" stroke="black" stroke-width="0.1"/>
<path d="M9.14389 8.35555L9.15227 8.33964L9.1486 8.32205C9.14424 8.30111 9.1404 8.28117 9.13673 8.26208C9.1255 8.20378 9.11581 8.15341 9.09729 8.10681C9.0717 8.03559 9.01585 7.976 8.95276 7.93554C8.88946 7.89495 8.81286 7.86975 8.74112 7.87438L8.74112 7.87437L8.7403 7.87444C8.57735 7.88764 8.42596 8.02765 8.42596 8.20759C8.42596 8.31604 8.4499 8.43658 8.49477 8.53442L8.49476 8.53442L8.4953 8.53553C8.589 8.72727 8.84991 8.7753 8.99639 8.61565C9.03547 8.57432 9.06354 8.5247 9.08597 8.4789C9.09592 8.45858 9.10511 8.43825 9.1136 8.41946C9.11474 8.41695 9.11586 8.41447 9.11697 8.41202C9.12658 8.3908 9.13523 8.372 9.14389 8.35555Z" fill="#020304" stroke="black" stroke-width="0.1"/>
<path d="M12.0783 5.95528V5.95512L12.0743 5.95543C11.9036 5.96891 11.7712 6.11112 11.7417 6.28792L11.7417 6.28792L11.7415 6.28893C11.7131 6.48374 11.7888 6.67316 11.9606 6.72896C12.0159 6.74735 12.0737 6.74675 12.1243 6.73833L12.1243 6.73842L12.1271 6.73777C12.4115 6.67319 12.5379 6.32114 12.3518 6.09506C12.2825 6.00461 12.1853 5.95528 12.0783 5.95528Z" fill="#020304" stroke="black" stroke-width="0.1"/>
<path d="M12.0661 9.16066L12.0663 9.15974C12.06 9.15869 12.0546 9.15811 12.0481 9.15739C12.0441 9.15695 12.0397 9.15646 12.0343 9.15579L12.0661 9.16066ZM12.0661 9.16066L12.0758 9.16041M12.0661 9.16066L12.0758 9.16041M12.0758 9.16041C12.2491 9.15585 12.3843 9.01178 12.4256 8.82727C12.4672 8.65984 12.4101 8.4869 12.2613 8.40941C12.2146 8.38181 12.1568 8.36914 12.1047 8.36914C11.9331 8.36914 11.7759 8.51871 11.7419 8.69287L11.7419 8.69287M12.0758 9.16041L11.7419 8.69287M11.7419 8.69287L11.7418 8.69369M11.7419 8.69287L11.7418 8.69369M11.7418 8.69369C11.7079 8.88414 11.8123 9.08849 11.9908 9.14659L11.7418 8.69369Z" fill="#020304" stroke="black" stroke-width="0.1"/>
<path d="M5.49474 6.15174C5.68667 6.15612 5.83875 6.30544 5.83461 6.49696L5.78461 6.49637C5.78461 6.66259 5.64854 6.78724 5.486 6.77591L5.4833 6.82584C5.3959 6.82112 5.31522 6.77017 5.25778 6.70381C5.20008 6.63716 5.16006 6.5485 5.16006 6.4586C5.16006 6.28358 5.3152 6.14739 5.49474 6.15174ZM5.49474 6.15174C5.49475 6.15174 5.49476 6.15174 5.49478 6.15174L5.49356 6.20173L5.49469 6.15174C5.49471 6.15174 5.49472 6.15174 5.49474 6.15174Z" fill="#020304" stroke="black" stroke-width="0.1"/>
<path d="M8.6246 6.29321L8.62466 6.29321C8.80031 6.30199 8.95865 6.17075 8.96812 6.00091C8.98151 5.81397 8.81916 5.65745 8.63209 5.6531L8.6321 5.65309H8.63093C8.45731 5.65309 8.30878 5.79497 8.30878 5.96751C8.30878 6.13874 8.45166 6.28435 8.6246 6.29321Z" fill="#020304" stroke="black" stroke-width="0.1"/>
<path d="M9.53887 20.7949L9.55555 20.7552L9.51878 20.7328C9.26311 20.5771 9.0131 20.5651 8.75833 20.6526L8.75832 20.6526L8.75703 20.6531C8.73425 20.6617 8.71135 20.6773 8.69387 20.6948C8.67885 20.7098 8.65767 20.7363 8.65658 20.7691C8.65439 20.7964 8.65815 20.8283 8.66602 20.8558C8.67011 20.8701 8.67576 20.8849 8.68344 20.8982C8.69073 20.9108 8.70214 20.9261 8.71954 20.936L8.71948 20.9361L8.72257 20.9376C8.74292 20.9474 8.76444 20.9584 8.78652 20.9696C8.82398 20.9886 8.86304 21.0084 8.90075 21.0252C8.96237 21.0525 9.02844 21.0757 9.09847 21.0821C9.19534 21.0926 9.28454 21.0736 9.36091 21.0237C9.4369 20.974 9.49634 20.896 9.53887 20.7949Z" fill="#020304" stroke="black" stroke-width="0.1"/>
<path d="M10.034 20.6058L10.0206 20.6324L10.0377 20.6568C10.1603 20.8318 10.3374 20.8369 10.4955 20.8215L10.4955 20.8215L10.4976 20.8212C10.6505 20.8 10.7681 20.7172 10.8319 20.5601L10.8446 20.5288L10.8203 20.5053C10.6906 20.3801 10.5425 20.3731 10.404 20.4056C10.3849 20.4098 10.3661 20.413 10.3459 20.4165C10.3354 20.4183 10.3246 20.4202 10.3131 20.4223C10.2811 20.4281 10.2467 20.4354 10.2131 20.4474C10.1436 20.4722 10.0785 20.5168 10.034 20.6058Z" fill="#020304" stroke="black" stroke-width="0.1"/>
<path d="M8.6684 6.71607L8.63053 6.69715L8.60562 6.73137C8.47501 6.91085 8.4474 7.107 8.49116 7.32199C8.51117 7.42618 8.60328 7.49101 8.69963 7.47496L8.69963 7.47497L8.70035 7.47484C8.75493 7.46492 8.79562 7.43676 8.82248 7.3988C8.84858 7.3619 8.86002 7.31815 8.8623 7.27731L8.8623 7.27731L8.86232 7.27686C8.87006 7.1106 8.85508 6.93747 8.76562 6.77853C8.75856 6.7652 8.74833 6.75654 8.74055 6.75111C8.73242 6.74545 8.72359 6.74104 8.71623 6.73763C8.70884 6.7342 8.70272 6.73158 8.69676 6.72903C8.6881 6.72532 8.67978 6.72175 8.6684 6.71607Z" fill="#020304" stroke="black" stroke-width="0.1"/>
<path d="M12.1006 7.88723L12.1356 7.89014L12.1502 7.85822C12.2041 7.74046 12.2274 7.62557 12.2149 7.51178C12.2024 7.39793 12.1544 7.28935 12.0725 7.1835L12.0416 7.14368L12.002 7.17478C11.9126 7.24503 11.8713 7.32605 11.8566 7.41092C11.8424 7.49189 11.8528 7.57506 11.8621 7.64862L11.8623 7.65095L11.8623 7.65095L11.8626 7.65265C11.8707 7.70362 11.8869 7.75935 11.9247 7.80436C11.9638 7.85107 12.0214 7.88063 12.1006 7.88723Z" fill="#020304" stroke="black" stroke-width="0.1"/>
<path d="M5.6213 7.32367C5.60561 7.29257 5.57534 7.27603 5.55554 7.2659C5.54726 7.26167 5.53964 7.25802 5.53231 7.2545C5.51781 7.24754 5.50446 7.24114 5.48951 7.23195L5.43489 7.19836L5.41563 7.25951C5.41474 7.26233 5.41386 7.26514 5.41297 7.26796C5.38229 7.36524 5.35092 7.46476 5.35142 7.56472C5.35196 7.67151 5.38845 7.77588 5.48707 7.88265L5.53206 7.93136L5.56652 7.87471C5.62755 7.77437 5.6642 7.68034 5.6737 7.5885C5.68329 7.49586 5.66491 7.40882 5.6213 7.32367ZM5.6213 7.32367C5.62134 7.32376 5.62139 7.32385 5.62143 7.32394L5.57672 7.34631M5.6213 7.32367C5.62127 7.32361 5.62124 7.32356 5.62122 7.3235L5.57672 7.34631M5.57672 7.34631C5.64974 7.48878 5.6428 7.63124 5.55001 7.80311C5.55341 7.80699 5.55692 7.81089 5.56053 7.8148L5.5238 7.84872L5.48108 7.82274C5.484 7.81794 5.48685 7.81318 5.48962 7.80844C5.36233 7.64389 5.39567 7.49308 5.44798 7.32353C5.44432 7.32146 5.44069 7.31932 5.43713 7.31713L5.46332 7.27454L5.51101 7.28956C5.51007 7.29253 5.50914 7.29548 5.50822 7.29842C5.50993 7.29925 5.51163 7.30007 5.51331 7.30087C5.54261 7.31496 5.56687 7.32663 5.57672 7.34631Z" fill="#020304" stroke="black" stroke-width="0.1"/>
<path d="M9.55789 16.325L9.55789 16.325C9.55381 15.9622 9.26026 15.6639 8.89989 15.6598C8.53908 15.6557 8.23759 15.9578 8.22942 16.313L8.22941 16.3131C8.22122 16.6857 8.53575 16.9991 8.9112 16.995L8.91121 16.995C9.27978 16.991 9.56197 16.6956 9.55789 16.325Z" fill="#020304" stroke="black" stroke-width="0.1"/>
</svg>
