<svg width="20" height="23" viewBox="0 0 20 23" fill="none" xmlns="http://www.w3.org/2000/svg">
<path d="M8.94287 10.2513C8.96341 10.2487 8.98429 10.2456 9.00551 10.242C8.86641 10.1053 8.73553 10.0369 8.60154 9.97166C8.20464 9.77145 7.84554 9.52969 7.54692 9.20104C7.54515 9.19902 7.54335 9.19692 7.54151 9.19477C7.51579 9.16475 7.4824 9.12576 7.42596 9.18216M8.94287 10.2513C8.81979 10.1375 8.70278 10.0766 8.57965 10.0166L8.57901 10.0163C8.17853 9.81429 7.81386 9.56917 7.50992 9.23467L7.5093 9.23399L7.5093 9.23398C7.50671 9.23101 7.50446 9.22839 7.5024 9.22598C7.49788 9.22071 7.49427 9.21649 7.48989 9.21208C7.48464 9.20679 7.48134 9.20454 7.47968 9.20366M8.94287 10.2513C8.95789 10.2652 8.973 10.2799 8.98822 10.2954C8.68056 10.3427 8.43991 10.2868 8.21598 10.1341M8.94287 10.2513C8.6648 10.2868 8.44751 10.2315 8.24417 10.0928M7.47968 9.20366C7.47993 9.20357 7.48013 9.20351 7.48026 9.20347C7.4807 9.20335 7.48039 9.20349 7.47962 9.20342C7.47933 9.2034 7.47912 9.20336 7.479 9.20333C7.47768 9.19473 7.47658 9.18606 7.47573 9.1773L7.42596 9.18216M7.47968 9.20366C7.47946 9.20355 7.47927 9.20346 7.47911 9.20339C7.47907 9.20337 7.47903 9.20336 7.47901 9.20334C7.47903 9.20353 7.47906 9.20371 7.47909 9.2039M7.47968 9.20366C7.47951 9.20373 7.47931 9.2038 7.47909 9.2039M7.42596 9.18216C7.44108 9.33703 7.52424 9.46547 7.61496 9.58635C7.7775 9.80923 7.98918 9.97922 8.21598 10.1341M7.42596 9.18216L7.46131 9.21752C7.47065 9.20819 7.47658 9.20495 7.47909 9.2039M7.47909 9.2039C7.49909 9.33252 7.57051 9.44382 7.65495 9.55634L7.65536 9.55689L7.65536 9.55689C7.81293 9.77296 8.01914 9.93913 8.24417 10.0928M8.24417 10.0928C8.24417 10.0928 8.24416 10.0928 8.24415 10.0928L8.21598 10.1341M8.24417 10.0928L8.21598 10.1341M9.45193 10.9887H9.45203C11.1842 10.9887 12.5978 9.58398 12.6016 7.85635C12.6055 6.13629 11.192 4.71633 9.46359 4.70865C7.73348 4.70097 6.35181 6.12622 6.35159 7.90869C6.32491 9.48036 7.62005 10.9849 9.45193 10.9887ZM8.4901 5.52367L8.49017 5.52363C8.70306 5.40258 8.93151 5.33066 9.17645 5.34119C9.19236 5.34273 9.2085 5.34645 9.23012 5.3523C9.23481 5.35357 9.23977 5.35494 9.24501 5.3564C9.24407 5.35807 9.24315 5.35969 9.24227 5.36125C9.2411 5.36332 9.23999 5.3653 9.23893 5.36717C9.23389 5.37603 9.23075 5.38123 9.22825 5.38469C9.22798 5.38506 9.22775 5.38537 9.22755 5.38562C9.11639 5.44846 9.00142 5.50774 8.88623 5.56345C8.40052 5.79081 8.02825 6.14841 7.70448 6.55191L7.70448 6.55191L7.70414 6.55235C7.60855 6.67423 7.53515 6.81301 7.4653 6.94509C7.45254 6.96921 7.4399 6.99311 7.42727 7.01664L7.42272 7.02505C7.33223 7.19256 7.24664 7.35099 7.10532 7.49838C7.10389 7.49541 7.10255 7.49258 7.1013 7.48991C7.09161 7.46915 7.08739 7.45693 7.08639 7.44718C7.0574 7.13896 7.14051 6.85933 7.30898 6.60312L7.30906 6.60301C7.61014 6.14239 8.01572 5.79244 8.4901 5.52367ZM6.98388 8.34665L6.98391 8.34664L6.98359 8.34506C6.97197 8.28698 6.97557 8.23508 6.99329 8.18709C7.00721 8.14936 7.03053 8.11224 7.06488 8.07546C7.12641 8.13738 7.14707 8.21031 7.15307 8.29422L7.15344 8.2998C7.16025 8.40155 7.16598 8.48711 7.11467 8.56573C7.07482 8.54565 7.04866 8.519 7.03009 8.48878C7.00589 8.44938 6.993 8.40129 6.98388 8.34665Z" fill="#020304" stroke="black" stroke-width="0.1"/>
<mask id="path-2-outside-1_2_5223" maskUnits="userSpaceOnUse" x="10.8561" y="4.42698" width="9" height="14" fill="black">
<rect fill="white" x="10.8561" y="4.42698" width="9" height="14"/>
<path d="M16.4261 8.14334C16.3656 8.00357 16.324 7.85247 16.2446 7.72026C16.0103 7.31984 15.7608 6.93075 15.5227 6.53033C15.4546 6.42078 15.3904 6.30368 15.3488 6.17902C15.2921 6.01281 15.4093 5.88815 15.5794 5.9297C15.6814 5.95614 15.7797 6.00903 15.8667 6.06569C16.135 6.24701 16.3656 6.46989 16.5659 6.72298C16.7285 6.92697 16.8835 7.13851 17.046 7.3425C17.2237 7.56915 17.3408 7.82603 17.424 8.13201C17.5336 8.04513 17.5676 7.9658 17.5261 7.85247C17.424 7.56916 17.2841 7.31228 17.1065 7.07052C16.9099 6.80232 16.7058 6.53789 16.5206 6.26213C16.4261 6.12614 16.3505 5.97503 16.29 5.82393C16.2484 5.71816 16.222 5.58217 16.3202 5.48773C16.4374 5.37818 16.5622 5.43862 16.6831 5.49906C16.891 5.60106 17.0611 5.74838 17.2085 5.92215C17.424 6.17524 17.6281 6.43967 17.836 6.70032C17.8927 6.77209 17.9494 6.84764 18.0137 6.9383C18.1195 6.82498 18.1498 6.69654 18.2027 6.58322C18.3236 6.32257 18.4635 6.07325 18.6638 5.86926C18.7394 5.79371 18.8226 5.72571 18.9171 5.67661C19.0305 5.61617 19.1741 5.66905 19.2119 5.79371C19.246 5.90326 19.2724 6.02792 19.2535 6.14125C19.1666 6.65877 19.0721 7.17251 18.8415 7.64848C18.7508 7.84114 18.6676 8.04135 18.5958 8.24156C18.4333 8.71375 18.2254 9.16706 18.0023 9.61658C17.8663 9.89234 17.7491 10.1794 17.613 10.4552C17.3711 10.9463 17.1065 11.4223 16.7134 11.8189C16.4979 12.038 16.3051 12.2835 16.1086 12.5215C15.9649 12.6953 15.8553 12.8955 15.7835 13.1108C15.7608 13.175 15.757 13.2468 15.7419 13.3261C15.8515 13.345 15.946 13.3526 16.0367 13.379C16.2787 13.4508 16.3505 13.6926 16.1842 13.8814C16.1237 13.9494 16.0405 14.0061 15.9612 14.0552C15.8818 14.1043 15.7911 14.1383 15.6928 14.1836C15.689 14.2516 15.6777 14.3234 15.6777 14.3914C15.6777 14.4481 15.6966 14.5047 15.7041 14.5689C15.8515 14.5916 15.9952 14.6067 16.1312 14.6332C16.222 14.652 16.3165 14.6785 16.3996 14.7238C16.6529 14.8636 16.6907 15.1205 16.479 15.3093C16.3656 15.4076 16.2182 15.4718 16.0821 15.5398C15.9763 15.5927 15.8629 15.6229 15.7457 15.6644C15.7495 16.148 15.7381 16.6164 15.5983 17.1452C15.5038 16.8581 15.5 16.6315 15.4811 16.4086C15.4622 16.1971 15.4433 15.9855 15.4206 15.7551C15.3639 15.7475 15.3186 15.7324 15.277 15.7362C14.7213 15.8269 14.1657 15.842 13.6024 15.8042C13.4966 15.7966 13.3908 15.8042 13.266 15.8042C13.2358 15.9515 13.2093 16.0875 13.1791 16.2273C13.1299 16.4615 13.1262 16.4653 13.009 16.6126C12.9561 16.4653 12.9901 16.3255 12.9901 16.1895C12.9901 16.0497 12.9901 15.9062 12.9901 15.7513C12.888 15.7135 12.7822 15.6871 12.6915 15.638C12.5781 15.5738 12.4609 15.5058 12.374 15.4151C12.2152 15.2527 12.2379 15.0298 12.4042 14.8749C12.4949 14.7918 12.597 14.7314 12.7179 14.72C12.8011 14.7125 12.8842 14.7125 12.975 14.7049C13.0392 14.6029 13.0165 14.5085 12.9598 14.4027C12.8502 14.3687 12.7368 14.3385 12.6272 14.297C12.5403 14.263 12.4496 14.2252 12.3702 14.1723C12.1207 13.9985 12.0753 13.7379 12.2568 13.4923C12.3815 13.3261 12.5403 13.2052 12.7482 13.1599C12.7935 13.1486 12.8389 13.1448 12.8729 13.141C12.9296 12.8615 12.9561 12.5895 13.0392 12.3326C13.1224 12.0758 13.2585 11.8378 13.3832 11.5696C13.0695 11.4562 12.82 11.2372 12.563 11.0332C12.3021 10.8292 12.0451 10.6214 11.8561 10.3419C11.9544 10.2625 12.0375 10.289 12.1094 10.3305C12.6045 10.6101 13.1186 10.867 13.4966 11.3165C13.5117 11.3316 13.5382 11.3354 13.5571 11.3467C14.0069 10.9916 14.6571 9.99056 14.8612 9.32571C14.71 9.17461 14.5474 9.01595 14.3887 8.8573C14.2526 8.72131 14.109 8.59665 13.988 8.44932C13.9086 8.35111 13.8444 8.23023 13.8066 8.10935C13.7612 7.97335 13.8935 7.84492 14.0334 7.87514C14.1127 7.89402 14.1921 7.92425 14.2639 7.96202C14.5928 8.1509 14.9179 8.34355 15.2543 8.53998C15.3034 8.44555 15.3526 8.33977 15.4093 8.234C15.4849 8.09423 15.5869 7.98091 15.7306 7.90913C15.9536 7.79581 16.1728 7.83736 16.3391 8.02624C16.3694 8.06024 16.3996 8.09801 16.4299 8.13201C16.4034 8.37755 16.3656 8.62309 16.2711 8.85352C16.2295 8.95173 16.1993 9.05373 16.169 9.15572C16.135 9.26905 16.1048 9.38238 16.1577 9.53726C16.2862 9.41637 16.4147 9.32194 16.513 9.17461C16.513 8.99329 16.5206 8.80441 16.5092 8.61931C16.5055 8.45688 16.5319 8.28689 16.4261 8.14334ZM15.5643 11.12C15.5302 10.9123 15.568 10.7801 15.5945 10.6441C15.6701 10.2965 15.7646 9.94901 15.8137 9.5977C15.8553 9.28794 15.9158 8.98951 16.033 8.70242C16.0821 8.58154 16.1048 8.4531 16.1199 8.32467C16.1275 8.27556 16.0934 8.20001 16.0557 8.17734C16.0141 8.15468 15.9385 8.16223 15.8893 8.18112C15.7495 8.24156 15.6777 8.36999 15.6323 8.50976C15.4735 8.98573 15.2278 9.42015 15.001 9.8659C14.8687 10.1303 14.7175 10.3872 14.5626 10.6403C14.366 10.9652 14.1241 11.2598 13.8633 11.5394C13.5306 11.8944 13.2963 12.31 13.232 12.7935C13.1791 13.1939 13.2093 13.5981 13.2774 13.991C13.7234 14.1307 14.8045 14.0552 15.3186 13.855C15.3223 13.8437 15.3337 13.8361 15.3337 13.8248C15.345 13.7417 15.3601 13.6623 15.3677 13.5792C15.4244 13.0957 15.5983 12.6575 15.9007 12.276C16.0783 12.0531 16.2522 11.8227 16.4488 11.6187C16.8116 11.2447 17.0611 10.8027 17.2841 10.3419C17.4429 10.0208 17.5979 9.69969 17.7642 9.38615C17.9797 8.98573 18.1762 8.58154 18.335 8.15845C18.403 7.98091 18.4673 7.79958 18.5504 7.6296C18.7735 7.17251 18.8642 6.68521 18.9398 6.19035C18.9473 6.14502 18.9473 6.09214 18.8717 6.08458C18.6903 6.25835 18.5807 6.47745 18.4748 6.7041C18.3161 7.04786 18.146 7.39161 17.9948 7.73914C17.7075 8.40021 17.2652 8.92907 16.6982 9.37104C16.5395 9.4957 16.3958 9.63925 16.2446 9.77146C16.1048 9.89612 16.0216 10.0472 15.9914 10.2285C15.9385 10.5421 15.8024 10.8178 15.5643 11.12ZM15.3375 14.297C14.9708 14.3498 14.6457 14.4103 14.3169 14.4367C13.988 14.4632 13.6591 14.4594 13.3114 14.4707C13.3114 14.6256 13.3076 14.7654 13.3114 14.9051C13.3189 15.0562 13.2622 15.2111 13.3227 15.3547C13.8444 15.4907 14.9519 15.4529 15.379 15.2753C15.3942 14.9656 15.3564 14.6483 15.3375 14.297ZM15.7268 6.32257C15.7759 6.51144 15.8591 6.61344 15.9233 6.71921C16.1123 7.03652 16.3051 7.35006 16.5017 7.66359C16.6907 7.96958 16.7587 8.29822 16.7209 8.65331C16.7096 8.7553 16.7209 8.8573 16.7209 8.97818C16.7663 8.95551 16.8041 8.95174 16.8268 8.92907C16.9591 8.79308 17.0876 8.65709 17.2048 8.53621C17.1972 8.1169 17.1556 7.90158 16.9704 7.66359C16.6453 7.23673 16.3127 6.81742 15.9158 6.45478C15.8704 6.417 15.8251 6.39056 15.7268 6.32257ZM17.6584 7.69759C17.8209 7.48983 17.923 7.30473 17.7793 7.06674C17.492 6.59833 17.1518 6.17524 16.7096 5.84659C16.6869 5.83148 16.6491 5.83148 16.6 5.82015C16.6264 5.98636 16.7323 6.08836 16.8079 6.20168C17.1178 6.67388 17.4845 7.11585 17.6584 7.69759ZM14.3395 8.32089C14.3206 8.33977 14.3017 8.35488 14.2791 8.37377C14.4681 8.59665 14.6457 8.82708 14.865 9.02351C14.9028 9.05751 14.9632 9.07262 15.0275 9.10284C15.0729 8.98573 15.1144 8.8913 15.1522 8.79686C14.8687 8.63065 14.6041 8.47577 14.3395 8.32089ZM16.2333 14.9996C16.0519 14.8711 15.9007 14.7994 15.7079 14.8107C15.689 14.9618 15.6777 15.0865 15.7419 15.2413C15.9045 15.1809 16.0821 15.1696 16.2333 14.9996ZM12.563 13.8021C12.6801 13.9003 12.7897 13.9608 12.9447 13.9343C12.9712 13.7945 12.9712 13.6623 12.8918 13.5377C12.7519 13.583 12.6385 13.6397 12.563 13.8021ZM13.0165 15.0374C12.8956 15.0714 12.7822 15.0676 12.7368 15.2187C12.8238 15.2489 12.9069 15.2753 13.0165 15.3131C13.0165 15.2073 13.0165 15.1318 13.0165 15.0374ZM15.6814 13.8248C15.81 13.7266 15.8704 13.6812 15.9612 13.6132C15.8591 13.5792 15.7948 13.5603 15.7079 13.5339C15.7003 13.6208 15.6928 13.6812 15.6814 13.8248Z"/>
</mask>
<path d="M16.4261 8.14334C16.3656 8.00357 16.324 7.85247 16.2446 7.72026C16.0103 7.31984 15.7608 6.93075 15.5227 6.53033C15.4546 6.42078 15.3904 6.30368 15.3488 6.17902C15.2921 6.01281 15.4093 5.88815 15.5794 5.9297C15.6814 5.95614 15.7797 6.00903 15.8667 6.06569C16.135 6.24701 16.3656 6.46989 16.5659 6.72298C16.7285 6.92697 16.8835 7.13851 17.046 7.3425C17.2237 7.56915 17.3408 7.82603 17.424 8.13201C17.5336 8.04513 17.5676 7.9658 17.5261 7.85247C17.424 7.56916 17.2841 7.31228 17.1065 7.07052C16.9099 6.80232 16.7058 6.53789 16.5206 6.26213C16.4261 6.12614 16.3505 5.97503 16.29 5.82393C16.2484 5.71816 16.222 5.58217 16.3202 5.48773C16.4374 5.37818 16.5622 5.43862 16.6831 5.49906C16.891 5.60106 17.0611 5.74838 17.2085 5.92215C17.424 6.17524 17.6281 6.43967 17.836 6.70032C17.8927 6.77209 17.9494 6.84764 18.0137 6.9383C18.1195 6.82498 18.1498 6.69654 18.2027 6.58322C18.3236 6.32257 18.4635 6.07325 18.6638 5.86926C18.7394 5.79371 18.8226 5.72571 18.9171 5.67661C19.0305 5.61617 19.1741 5.66905 19.2119 5.79371C19.246 5.90326 19.2724 6.02792 19.2535 6.14125C19.1666 6.65877 19.0721 7.17251 18.8415 7.64848C18.7508 7.84114 18.6676 8.04135 18.5958 8.24156C18.4333 8.71375 18.2254 9.16706 18.0023 9.61658C17.8663 9.89234 17.7491 10.1794 17.613 10.4552C17.3711 10.9463 17.1065 11.4223 16.7134 11.8189C16.4979 12.038 16.3051 12.2835 16.1086 12.5215C15.9649 12.6953 15.8553 12.8955 15.7835 13.1108C15.7608 13.175 15.757 13.2468 15.7419 13.3261C15.8515 13.345 15.946 13.3526 16.0367 13.379C16.2787 13.4508 16.3505 13.6926 16.1842 13.8814C16.1237 13.9494 16.0405 14.0061 15.9612 14.0552C15.8818 14.1043 15.7911 14.1383 15.6928 14.1836C15.689 14.2516 15.6777 14.3234 15.6777 14.3914C15.6777 14.4481 15.6966 14.5047 15.7041 14.5689C15.8515 14.5916 15.9952 14.6067 16.1312 14.6332C16.222 14.652 16.3165 14.6785 16.3996 14.7238C16.6529 14.8636 16.6907 15.1205 16.479 15.3093C16.3656 15.4076 16.2182 15.4718 16.0821 15.5398C15.9763 15.5927 15.8629 15.6229 15.7457 15.6644C15.7495 16.148 15.7381 16.6164 15.5983 17.1452C15.5038 16.8581 15.5 16.6315 15.4811 16.4086C15.4622 16.1971 15.4433 15.9855 15.4206 15.7551C15.3639 15.7475 15.3186 15.7324 15.277 15.7362C14.7213 15.8269 14.1657 15.842 13.6024 15.8042C13.4966 15.7966 13.3908 15.8042 13.266 15.8042C13.2358 15.9515 13.2093 16.0875 13.1791 16.2273C13.1299 16.4615 13.1262 16.4653 13.009 16.6126C12.9561 16.4653 12.9901 16.3255 12.9901 16.1895C12.9901 16.0497 12.9901 15.9062 12.9901 15.7513C12.888 15.7135 12.7822 15.6871 12.6915 15.638C12.5781 15.5738 12.4609 15.5058 12.374 15.4151C12.2152 15.2527 12.2379 15.0298 12.4042 14.8749C12.4949 14.7918 12.597 14.7314 12.7179 14.72C12.8011 14.7125 12.8842 14.7125 12.975 14.7049C13.0392 14.6029 13.0165 14.5085 12.9598 14.4027C12.8502 14.3687 12.7368 14.3385 12.6272 14.297C12.5403 14.263 12.4496 14.2252 12.3702 14.1723C12.1207 13.9985 12.0753 13.7379 12.2568 13.4923C12.3815 13.3261 12.5403 13.2052 12.7482 13.1599C12.7935 13.1486 12.8389 13.1448 12.8729 13.141C12.9296 12.8615 12.9561 12.5895 13.0392 12.3326C13.1224 12.0758 13.2585 11.8378 13.3832 11.5696C13.0695 11.4562 12.82 11.2372 12.563 11.0332C12.3021 10.8292 12.0451 10.6214 11.8561 10.3419C11.9544 10.2625 12.0375 10.289 12.1094 10.3305C12.6045 10.6101 13.1186 10.867 13.4966 11.3165C13.5117 11.3316 13.5382 11.3354 13.5571 11.3467C14.0069 10.9916 14.6571 9.99056 14.8612 9.32571C14.71 9.17461 14.5474 9.01595 14.3887 8.8573C14.2526 8.72131 14.109 8.59665 13.988 8.44932C13.9086 8.35111 13.8444 8.23023 13.8066 8.10935C13.7612 7.97335 13.8935 7.84492 14.0334 7.87514C14.1127 7.89402 14.1921 7.92425 14.2639 7.96202C14.5928 8.1509 14.9179 8.34355 15.2543 8.53998C15.3034 8.44555 15.3526 8.33977 15.4093 8.234C15.4849 8.09423 15.5869 7.98091 15.7306 7.90913C15.9536 7.79581 16.1728 7.83736 16.3391 8.02624C16.3694 8.06024 16.3996 8.09801 16.4299 8.13201C16.4034 8.37755 16.3656 8.62309 16.2711 8.85352C16.2295 8.95173 16.1993 9.05373 16.169 9.15572C16.135 9.26905 16.1048 9.38238 16.1577 9.53726C16.2862 9.41637 16.4147 9.32194 16.513 9.17461C16.513 8.99329 16.5206 8.80441 16.5092 8.61931C16.5055 8.45688 16.5319 8.28689 16.4261 8.14334ZM15.5643 11.12C15.5302 10.9123 15.568 10.7801 15.5945 10.6441C15.6701 10.2965 15.7646 9.94901 15.8137 9.5977C15.8553 9.28794 15.9158 8.98951 16.033 8.70242C16.0821 8.58154 16.1048 8.4531 16.1199 8.32467C16.1275 8.27556 16.0934 8.20001 16.0557 8.17734C16.0141 8.15468 15.9385 8.16223 15.8893 8.18112C15.7495 8.24156 15.6777 8.36999 15.6323 8.50976C15.4735 8.98573 15.2278 9.42015 15.001 9.8659C14.8687 10.1303 14.7175 10.3872 14.5626 10.6403C14.366 10.9652 14.1241 11.2598 13.8633 11.5394C13.5306 11.8944 13.2963 12.31 13.232 12.7935C13.1791 13.1939 13.2093 13.5981 13.2774 13.991C13.7234 14.1307 14.8045 14.0552 15.3186 13.855C15.3223 13.8437 15.3337 13.8361 15.3337 13.8248C15.345 13.7417 15.3601 13.6623 15.3677 13.5792C15.4244 13.0957 15.5983 12.6575 15.9007 12.276C16.0783 12.0531 16.2522 11.8227 16.4488 11.6187C16.8116 11.2447 17.0611 10.8027 17.2841 10.3419C17.4429 10.0208 17.5979 9.69969 17.7642 9.38615C17.9797 8.98573 18.1762 8.58154 18.335 8.15845C18.403 7.98091 18.4673 7.79958 18.5504 7.6296C18.7735 7.17251 18.8642 6.68521 18.9398 6.19035C18.9473 6.14502 18.9473 6.09214 18.8717 6.08458C18.6903 6.25835 18.5807 6.47745 18.4748 6.7041C18.3161 7.04786 18.146 7.39161 17.9948 7.73914C17.7075 8.40021 17.2652 8.92907 16.6982 9.37104C16.5395 9.4957 16.3958 9.63925 16.2446 9.77146C16.1048 9.89612 16.0216 10.0472 15.9914 10.2285C15.9385 10.5421 15.8024 10.8178 15.5643 11.12ZM15.3375 14.297C14.9708 14.3498 14.6457 14.4103 14.3169 14.4367C13.988 14.4632 13.6591 14.4594 13.3114 14.4707C13.3114 14.6256 13.3076 14.7654 13.3114 14.9051C13.3189 15.0562 13.2622 15.2111 13.3227 15.3547C13.8444 15.4907 14.9519 15.4529 15.379 15.2753C15.3942 14.9656 15.3564 14.6483 15.3375 14.297ZM15.7268 6.32257C15.7759 6.51144 15.8591 6.61344 15.9233 6.71921C16.1123 7.03652 16.3051 7.35006 16.5017 7.66359C16.6907 7.96958 16.7587 8.29822 16.7209 8.65331C16.7096 8.7553 16.7209 8.8573 16.7209 8.97818C16.7663 8.95551 16.8041 8.95174 16.8268 8.92907C16.9591 8.79308 17.0876 8.65709 17.2048 8.53621C17.1972 8.1169 17.1556 7.90158 16.9704 7.66359C16.6453 7.23673 16.3127 6.81742 15.9158 6.45478C15.8704 6.417 15.8251 6.39056 15.7268 6.32257ZM17.6584 7.69759C17.8209 7.48983 17.923 7.30473 17.7793 7.06674C17.492 6.59833 17.1518 6.17524 16.7096 5.84659C16.6869 5.83148 16.6491 5.83148 16.6 5.82015C16.6264 5.98636 16.7323 6.08836 16.8079 6.20168C17.1178 6.67388 17.4845 7.11585 17.6584 7.69759ZM14.3395 8.32089C14.3206 8.33977 14.3017 8.35488 14.2791 8.37377C14.4681 8.59665 14.6457 8.82708 14.865 9.02351C14.9028 9.05751 14.9632 9.07262 15.0275 9.10284C15.0729 8.98573 15.1144 8.8913 15.1522 8.79686C14.8687 8.63065 14.6041 8.47577 14.3395 8.32089ZM16.2333 14.9996C16.0519 14.8711 15.9007 14.7994 15.7079 14.8107C15.689 14.9618 15.6777 15.0865 15.7419 15.2413C15.9045 15.1809 16.0821 15.1696 16.2333 14.9996ZM12.563 13.8021C12.6801 13.9003 12.7897 13.9608 12.9447 13.9343C12.9712 13.7945 12.9712 13.6623 12.8918 13.5377C12.7519 13.583 12.6385 13.6397 12.563 13.8021ZM13.0165 15.0374C12.8956 15.0714 12.7822 15.0676 12.7368 15.2187C12.8238 15.2489 12.9069 15.2753 13.0165 15.3131C13.0165 15.2073 13.0165 15.1318 13.0165 15.0374ZM15.6814 13.8248C15.81 13.7266 15.8704 13.6812 15.9612 13.6132C15.8591 13.5792 15.7948 13.5603 15.7079 13.5339C15.7003 13.6208 15.6928 13.6812 15.6814 13.8248Z" fill="#020304"/>
<path d="M16.4261 8.14334C16.3656 8.00357 16.324 7.85247 16.2446 7.72026C16.0103 7.31984 15.7608 6.93075 15.5227 6.53033C15.4546 6.42078 15.3904 6.30368 15.3488 6.17902C15.2921 6.01281 15.4093 5.88815 15.5794 5.9297C15.6814 5.95614 15.7797 6.00903 15.8667 6.06569C16.135 6.24701 16.3656 6.46989 16.5659 6.72298C16.7285 6.92697 16.8835 7.13851 17.046 7.3425C17.2237 7.56915 17.3408 7.82603 17.424 8.13201C17.5336 8.04513 17.5676 7.9658 17.5261 7.85247C17.424 7.56916 17.2841 7.31228 17.1065 7.07052C16.9099 6.80232 16.7058 6.53789 16.5206 6.26213C16.4261 6.12614 16.3505 5.97503 16.29 5.82393C16.2484 5.71816 16.222 5.58217 16.3202 5.48773C16.4374 5.37818 16.5622 5.43862 16.6831 5.49906C16.891 5.60106 17.0611 5.74838 17.2085 5.92215C17.424 6.17524 17.6281 6.43967 17.836 6.70032C17.8927 6.77209 17.9494 6.84764 18.0137 6.9383C18.1195 6.82498 18.1498 6.69654 18.2027 6.58322C18.3236 6.32257 18.4635 6.07325 18.6638 5.86926C18.7394 5.79371 18.8226 5.72571 18.9171 5.67661C19.0305 5.61617 19.1741 5.66905 19.2119 5.79371C19.246 5.90326 19.2724 6.02792 19.2535 6.14125C19.1666 6.65877 19.0721 7.17251 18.8415 7.64848C18.7508 7.84114 18.6676 8.04135 18.5958 8.24156C18.4333 8.71375 18.2254 9.16706 18.0023 9.61658C17.8663 9.89234 17.7491 10.1794 17.613 10.4552C17.3711 10.9463 17.1065 11.4223 16.7134 11.8189C16.4979 12.038 16.3051 12.2835 16.1086 12.5215C15.9649 12.6953 15.8553 12.8955 15.7835 13.1108C15.7608 13.175 15.757 13.2468 15.7419 13.3261C15.8515 13.345 15.946 13.3526 16.0367 13.379C16.2787 13.4508 16.3505 13.6926 16.1842 13.8814C16.1237 13.9494 16.0405 14.0061 15.9612 14.0552C15.8818 14.1043 15.7911 14.1383 15.6928 14.1836C15.689 14.2516 15.6777 14.3234 15.6777 14.3914C15.6777 14.4481 15.6966 14.5047 15.7041 14.5689C15.8515 14.5916 15.9952 14.6067 16.1312 14.6332C16.222 14.652 16.3165 14.6785 16.3996 14.7238C16.6529 14.8636 16.6907 15.1205 16.479 15.3093C16.3656 15.4076 16.2182 15.4718 16.0821 15.5398C15.9763 15.5927 15.8629 15.6229 15.7457 15.6644C15.7495 16.148 15.7381 16.6164 15.5983 17.1452C15.5038 16.8581 15.5 16.6315 15.4811 16.4086C15.4622 16.1971 15.4433 15.9855 15.4206 15.7551C15.3639 15.7475 15.3186 15.7324 15.277 15.7362C14.7213 15.8269 14.1657 15.842 13.6024 15.8042C13.4966 15.7966 13.3908 15.8042 13.266 15.8042C13.2358 15.9515 13.2093 16.0875 13.1791 16.2273C13.1299 16.4615 13.1262 16.4653 13.009 16.6126C12.9561 16.4653 12.9901 16.3255 12.9901 16.1895C12.9901 16.0497 12.9901 15.9062 12.9901 15.7513C12.888 15.7135 12.7822 15.6871 12.6915 15.638C12.5781 15.5738 12.4609 15.5058 12.374 15.4151C12.2152 15.2527 12.2379 15.0298 12.4042 14.8749C12.4949 14.7918 12.597 14.7314 12.7179 14.72C12.8011 14.7125 12.8842 14.7125 12.975 14.7049C13.0392 14.6029 13.0165 14.5085 12.9598 14.4027C12.8502 14.3687 12.7368 14.3385 12.6272 14.297C12.5403 14.263 12.4496 14.2252 12.3702 14.1723C12.1207 13.9985 12.0753 13.7379 12.2568 13.4923C12.3815 13.3261 12.5403 13.2052 12.7482 13.1599C12.7935 13.1486 12.8389 13.1448 12.8729 13.141C12.9296 12.8615 12.9561 12.5895 13.0392 12.3326C13.1224 12.0758 13.2585 11.8378 13.3832 11.5696C13.0695 11.4562 12.82 11.2372 12.563 11.0332C12.3021 10.8292 12.0451 10.6214 11.8561 10.3419C11.9544 10.2625 12.0375 10.289 12.1094 10.3305C12.6045 10.6101 13.1186 10.867 13.4966 11.3165C13.5117 11.3316 13.5382 11.3354 13.5571 11.3467C14.0069 10.9916 14.6571 9.99056 14.8612 9.32571C14.71 9.17461 14.5474 9.01595 14.3887 8.8573C14.2526 8.72131 14.109 8.59665 13.988 8.44932C13.9086 8.35111 13.8444 8.23023 13.8066 8.10935C13.7612 7.97335 13.8935 7.84492 14.0334 7.87514C14.1127 7.89402 14.1921 7.92425 14.2639 7.96202C14.5928 8.1509 14.9179 8.34355 15.2543 8.53998C15.3034 8.44555 15.3526 8.33977 15.4093 8.234C15.4849 8.09423 15.5869 7.98091 15.7306 7.90913C15.9536 7.79581 16.1728 7.83736 16.3391 8.02624C16.3694 8.06024 16.3996 8.09801 16.4299 8.13201C16.4034 8.37755 16.3656 8.62309 16.2711 8.85352C16.2295 8.95173 16.1993 9.05373 16.169 9.15572C16.135 9.26905 16.1048 9.38238 16.1577 9.53726C16.2862 9.41637 16.4147 9.32194 16.513 9.17461C16.513 8.99329 16.5206 8.80441 16.5092 8.61931C16.5055 8.45688 16.5319 8.28689 16.4261 8.14334ZM15.5643 11.12C15.5302 10.9123 15.568 10.7801 15.5945 10.6441C15.6701 10.2965 15.7646 9.94901 15.8137 9.5977C15.8553 9.28794 15.9158 8.98951 16.033 8.70242C16.0821 8.58154 16.1048 8.4531 16.1199 8.32467C16.1275 8.27556 16.0934 8.20001 16.0557 8.17734C16.0141 8.15468 15.9385 8.16223 15.8893 8.18112C15.7495 8.24156 15.6777 8.36999 15.6323 8.50976C15.4735 8.98573 15.2278 9.42015 15.001 9.8659C14.8687 10.1303 14.7175 10.3872 14.5626 10.6403C14.366 10.9652 14.1241 11.2598 13.8633 11.5394C13.5306 11.8944 13.2963 12.31 13.232 12.7935C13.1791 13.1939 13.2093 13.5981 13.2774 13.991C13.7234 14.1307 14.8045 14.0552 15.3186 13.855C15.3223 13.8437 15.3337 13.8361 15.3337 13.8248C15.345 13.7417 15.3601 13.6623 15.3677 13.5792C15.4244 13.0957 15.5983 12.6575 15.9007 12.276C16.0783 12.0531 16.2522 11.8227 16.4488 11.6187C16.8116 11.2447 17.0611 10.8027 17.2841 10.3419C17.4429 10.0208 17.5979 9.69969 17.7642 9.38615C17.9797 8.98573 18.1762 8.58154 18.335 8.15845C18.403 7.98091 18.4673 7.79958 18.5504 7.6296C18.7735 7.17251 18.8642 6.68521 18.9398 6.19035C18.9473 6.14502 18.9473 6.09214 18.8717 6.08458C18.6903 6.25835 18.5807 6.47745 18.4748 6.7041C18.3161 7.04786 18.146 7.39161 17.9948 7.73914C17.7075 8.40021 17.2652 8.92907 16.6982 9.37104C16.5395 9.4957 16.3958 9.63925 16.2446 9.77146C16.1048 9.89612 16.0216 10.0472 15.9914 10.2285C15.9385 10.5421 15.8024 10.8178 15.5643 11.12ZM15.3375 14.297C14.9708 14.3498 14.6457 14.4103 14.3169 14.4367C13.988 14.4632 13.6591 14.4594 13.3114 14.4707C13.3114 14.6256 13.3076 14.7654 13.3114 14.9051C13.3189 15.0562 13.2622 15.2111 13.3227 15.3547C13.8444 15.4907 14.9519 15.4529 15.379 15.2753C15.3942 14.9656 15.3564 14.6483 15.3375 14.297ZM15.7268 6.32257C15.7759 6.51144 15.8591 6.61344 15.9233 6.71921C16.1123 7.03652 16.3051 7.35006 16.5017 7.66359C16.6907 7.96958 16.7587 8.29822 16.7209 8.65331C16.7096 8.7553 16.7209 8.8573 16.7209 8.97818C16.7663 8.95551 16.8041 8.95174 16.8268 8.92907C16.9591 8.79308 17.0876 8.65709 17.2048 8.53621C17.1972 8.1169 17.1556 7.90158 16.9704 7.66359C16.6453 7.23673 16.3127 6.81742 15.9158 6.45478C15.8704 6.417 15.8251 6.39056 15.7268 6.32257ZM17.6584 7.69759C17.8209 7.48983 17.923 7.30473 17.7793 7.06674C17.492 6.59833 17.1518 6.17524 16.7096 5.84659C16.6869 5.83148 16.6491 5.83148 16.6 5.82015C16.6264 5.98636 16.7323 6.08836 16.8079 6.20168C17.1178 6.67388 17.4845 7.11585 17.6584 7.69759ZM14.3395 8.32089C14.3206 8.33977 14.3017 8.35488 14.2791 8.37377C14.4681 8.59665 14.6457 8.82708 14.865 9.02351C14.9028 9.05751 14.9632 9.07262 15.0275 9.10284C15.0729 8.98573 15.1144 8.8913 15.1522 8.79686C14.8687 8.63065 14.6041 8.47577 14.3395 8.32089ZM16.2333 14.9996C16.0519 14.8711 15.9007 14.7994 15.7079 14.8107C15.689 14.9618 15.6777 15.0865 15.7419 15.2413C15.9045 15.1809 16.0821 15.1696 16.2333 14.9996ZM12.563 13.8021C12.6801 13.9003 12.7897 13.9608 12.9447 13.9343C12.9712 13.7945 12.9712 13.6623 12.8918 13.5377C12.7519 13.583 12.6385 13.6397 12.563 13.8021ZM13.0165 15.0374C12.8956 15.0714 12.7822 15.0676 12.7368 15.2187C12.8238 15.2489 12.9069 15.2753 13.0165 15.3131C13.0165 15.2073 13.0165 15.1318 13.0165 15.0374ZM15.6814 13.8248C15.81 13.7266 15.8704 13.6812 15.9612 13.6132C15.8591 13.5792 15.7948 13.5603 15.7079 13.5339C15.7003 13.6208 15.6928 13.6812 15.6814 13.8248Z" stroke="black" stroke-width="0.2" mask="url(#path-2-outside-1_2_5223)"/>
<mask id="path-3-outside-2_2_5223" maskUnits="userSpaceOnUse" x="0" y="10.9153" width="12" height="12" fill="black">
<rect fill="white" y="10.9153" width="12" height="12"/>
<path d="M1 13.6359C1.04158 13.4583 1.16254 13.4017 1.3213 13.4319C1.42336 13.4508 1.5292 13.4848 1.61992 13.5377C1.81648 13.651 2.00169 13.7794 2.19069 13.9041C2.26629 13.9532 2.34567 14.0061 2.44395 14.0741C2.48931 13.9456 2.47041 13.8399 2.47041 13.7416C2.46285 13.4734 2.51955 13.2203 2.65941 12.9899C2.83707 12.6953 3.02229 12.4044 3.21507 12.1211C3.26421 12.0455 3.34359 11.9813 3.42297 11.936C3.53258 11.8755 3.68378 11.9549 3.69134 12.0795C3.6989 12.1966 3.68756 12.3175 3.6611 12.4308C3.59684 12.7104 3.52124 12.9824 3.44942 13.2581C3.41541 13.379 3.38517 13.4999 3.44187 13.6963C3.5855 13.2619 3.78206 12.9295 4.0013 12.6046C4.06556 12.5026 4.1336 12.4006 4.21298 12.3137C4.2659 12.2533 4.33394 12.1966 4.40576 12.1589C4.57586 12.0644 4.74596 12.1475 4.78376 12.3364C4.81778 12.4951 4.77998 12.6424 4.73462 12.7935C4.64012 13.0995 4.5494 13.4092 4.45868 13.7152C4.4171 13.855 4.40576 13.991 4.43222 14.1156C4.71194 14.1912 4.97276 14.2592 5.26381 14.3385C5.30917 14.2781 5.37721 14.1987 5.43769 14.1156C5.60023 13.8927 5.75143 13.6661 5.91775 13.4508C5.99713 13.3488 6.10297 13.2694 6.20881 13.1901C6.27685 13.141 6.37891 13.1826 6.42049 13.2581C6.47719 13.3601 6.46207 13.4621 6.43939 13.5679C6.35245 13.9267 6.23149 14.2743 6.07273 14.6067C6.03115 14.6898 5.98957 14.7767 5.93665 14.8787C5.99335 14.9353 6.04249 14.9996 6.10297 15.0525C6.56791 15.4302 7.08576 15.7173 7.65654 15.91C7.79262 15.9553 7.9287 15.9968 8.06478 16.0422C8.80943 16.2764 9.34997 16.7448 9.68261 17.4512C9.71285 17.5154 9.74687 17.5758 9.78467 17.6438C9.87161 17.6438 9.95477 17.6401 10.0341 17.6438C10.1286 17.6476 10.2269 17.6438 10.3176 17.659C10.6767 17.7232 10.8166 18.0065 10.6238 18.32C10.5255 18.4787 10.3895 18.6185 10.2609 18.7809C10.295 18.8564 10.329 18.9395 10.363 19.0151C10.4197 19.0151 10.4575 19.0264 10.4877 19.0151C10.6578 18.9471 10.8317 18.9207 11.0132 18.932C11.085 18.9358 11.1568 18.9433 11.2248 18.9698C11.5272 19.0831 11.6558 19.3664 11.4101 19.6459C11.3156 19.7517 11.1946 19.831 11.085 19.9217C11.0321 19.967 10.9716 20.0048 10.9073 20.0539C11.0585 20.3561 11.24 20.6357 11.3382 20.9681C11.1039 20.8699 11.1039 20.8699 10.5558 20.2352C10.242 20.3561 9.95099 20.5374 9.64103 20.681C9.33107 20.8283 9.02111 20.9756 8.69981 21.1267C8.72249 21.4932 8.93039 21.8369 8.84345 22.2147C8.63555 21.9162 8.58641 21.5574 8.40875 21.2325C8.32182 21.2325 8.2311 21.2325 8.1366 21.2325C8.05344 21.2325 7.97028 21.2401 7.88712 21.225C7.68678 21.1947 7.58472 21.021 7.65276 20.8283C7.69812 20.7037 7.77372 20.5941 7.87956 20.5148C7.93626 20.4732 7.99674 20.4392 8.06478 20.3977C8.00052 20.2692 7.94004 20.1559 7.872 20.0237C7.7964 20.035 7.72836 20.0464 7.6641 20.0501C7.52424 20.0653 7.3806 20.0955 7.24074 20.0841C6.88542 20.0577 6.71154 19.7064 6.90054 19.408C6.97992 19.2795 7.0971 19.1738 7.20294 19.0491C7.14624 18.9887 7.0971 18.9207 7.03284 18.8678C6.64351 18.5542 6.24283 18.2596 5.78167 18.0518C4.76108 17.591 3.8501 16.979 3.08655 16.1555C2.46285 15.4869 1.83159 14.822 1.27216 14.093C1.15498 13.9494 1.0378 13.8134 1 13.6359ZM3.41919 12.3704C3.38139 12.3893 3.32847 12.4006 3.30957 12.4308C3.17727 12.6273 3.05631 12.8313 2.92779 13.0315C2.68587 13.4092 2.65185 13.8285 2.64429 14.2592C2.86731 14.4632 3.03741 14.7087 3.33981 14.8598C3.30201 14.7087 3.27555 14.5954 3.24531 14.4858C3.10545 13.9834 3.08655 13.481 3.27555 12.9824C3.32469 12.8501 3.36249 12.7104 3.39651 12.5744C3.41163 12.5064 3.40785 12.4346 3.41163 12.3666C3.42675 12.3553 3.44186 12.3477 3.4532 12.3364C3.44186 12.3326 3.42675 12.3288 3.41541 12.3213C3.41541 12.3402 3.41541 12.3553 3.41919 12.3704ZM1.50652 13.8625C1.67662 14.1496 1.88451 14.4103 2.10753 14.652C2.51955 15.0978 2.93157 15.5435 3.34737 15.9855C3.88034 16.5521 4.48136 17.0357 5.15419 17.4285C5.26759 17.4927 5.37721 17.5645 5.48683 17.6363C5.74009 17.8138 6.00847 17.9687 6.30331 18.0669C6.77958 18.2256 7.16136 18.524 7.48266 18.9018C7.6074 19.0453 7.7208 19.2002 7.83798 19.3475C7.87956 19.4004 7.9287 19.4533 7.9665 19.4986C8.56751 19.3097 9.48605 18.8224 9.73931 18.5618C9.64103 18.3011 9.53897 18.0367 9.43691 17.7723C9.14963 17.013 8.64689 16.4955 7.8531 16.2575C6.99882 16.0006 6.23527 15.5775 5.58511 14.9542C5.35075 14.7314 5.07104 14.5689 4.76486 14.4594C4.68926 14.4329 4.60232 14.4103 4.53428 14.482C4.59098 14.72 4.59476 14.7465 4.7573 14.9127C4.9652 15.128 5.17309 15.3358 5.39233 15.5398C5.65693 15.7853 5.87617 16.0648 6.06895 16.3633C6.12943 16.4577 6.21259 16.5559 6.18235 16.707C6.12943 16.673 6.08785 16.6541 6.05761 16.6239C5.96689 16.5295 5.87995 16.4313 5.79679 16.3293C5.66827 16.163 5.50951 16.0611 5.30539 15.9968C4.87448 15.8646 4.45112 15.706 4.0202 15.5738C3.49856 15.4113 3.03741 15.1544 2.66697 14.7465C2.58003 14.652 2.48175 14.5614 2.38725 14.4707C2.11887 14.2365 1.84293 14.0136 1.50652 13.8625ZM8.54105 20.749C8.78297 20.6394 8.98709 20.545 9.19121 20.4506C9.38399 20.3599 9.57677 20.2617 9.76577 20.1635C9.95855 20.0615 10.1778 19.9897 10.3403 19.831C10.2269 19.6044 10.1211 19.3891 10.0152 19.1775C9.98501 19.1209 9.93965 19.0718 9.91697 19.0378C9.36887 19.306 8.84345 19.5591 8.32182 19.8122C8.27268 19.8348 8.2311 19.8764 8.17818 19.9141C8.29536 20.1899 8.40876 20.4506 8.54105 20.749ZM4.89716 15.5058C4.814 15.3433 4.70438 15.2715 4.62878 15.1733C4.5116 15.0222 4.36418 14.8825 4.30748 14.7125C4.18652 14.3536 4.10714 13.9796 4.23566 13.5981C4.3226 13.3412 4.39442 13.0768 4.46624 12.8124C4.4927 12.7142 4.50404 12.6122 4.5305 12.4799C4.46624 12.5139 4.42466 12.5253 4.40576 12.5479C4.08068 12.9748 3.78206 13.413 3.62708 13.9343C3.5288 14.2667 3.48722 14.5803 3.67622 14.8938C3.7178 14.9618 3.7367 15.0449 3.7745 15.1356C4.12982 15.2564 4.48892 15.3735 4.89716 15.5058ZM6.18991 13.6208C6.15967 13.6208 6.14833 13.617 6.14077 13.6208C6.11809 13.6321 6.09541 13.6397 6.08029 13.6548C5.85727 13.9116 5.63803 14.1723 5.40367 14.4518C5.52085 14.5387 5.62669 14.618 5.75521 14.7162C5.99335 14.3725 6.09541 14.0023 6.18991 13.6208ZM11.1379 19.3286C10.8582 19.1926 10.7864 19.1889 10.5029 19.2909C10.5369 19.4231 10.5936 19.5439 10.6994 19.6611C10.8695 19.5893 11.0132 19.5024 11.1379 19.3286ZM10.0795 18.3276C10.1891 18.2445 10.2912 18.1727 10.2987 18.0292C10.1891 17.9234 10.0682 17.9234 9.92075 17.9234C9.92453 18.0934 9.97745 18.2105 10.0795 18.3276ZM7.24074 19.6271C7.43352 19.6988 7.56204 19.6837 7.61496 19.5855C7.5696 19.5364 7.51668 19.4835 7.45998 19.4231C7.38438 19.4911 7.32768 19.5439 7.24074 19.6271ZM8.1933 20.7868C8.17818 20.7754 8.16306 20.7679 8.14794 20.7565C8.14416 20.7679 8.12904 20.7792 8.13282 20.7868C8.1366 20.8056 8.14794 20.8208 8.15928 20.8359C8.16684 20.8208 8.17818 20.8019 8.1933 20.7868Z"/>
</mask>
<path d="M1 13.6359C1.04158 13.4583 1.16254 13.4017 1.3213 13.4319C1.42336 13.4508 1.5292 13.4848 1.61992 13.5377C1.81648 13.651 2.00169 13.7794 2.19069 13.9041C2.26629 13.9532 2.34567 14.0061 2.44395 14.0741C2.48931 13.9456 2.47041 13.8399 2.47041 13.7416C2.46285 13.4734 2.51955 13.2203 2.65941 12.9899C2.83707 12.6953 3.02229 12.4044 3.21507 12.1211C3.26421 12.0455 3.34359 11.9813 3.42297 11.936C3.53258 11.8755 3.68378 11.9549 3.69134 12.0795C3.6989 12.1966 3.68756 12.3175 3.6611 12.4308C3.59684 12.7104 3.52124 12.9824 3.44942 13.2581C3.41541 13.379 3.38517 13.4999 3.44187 13.6963C3.5855 13.2619 3.78206 12.9295 4.0013 12.6046C4.06556 12.5026 4.1336 12.4006 4.21298 12.3137C4.2659 12.2533 4.33394 12.1966 4.40576 12.1589C4.57586 12.0644 4.74596 12.1475 4.78376 12.3364C4.81778 12.4951 4.77998 12.6424 4.73462 12.7935C4.64012 13.0995 4.5494 13.4092 4.45868 13.7152C4.4171 13.855 4.40576 13.991 4.43222 14.1156C4.71194 14.1912 4.97276 14.2592 5.26381 14.3385C5.30917 14.2781 5.37721 14.1987 5.43769 14.1156C5.60023 13.8927 5.75143 13.6661 5.91775 13.4508C5.99713 13.3488 6.10297 13.2694 6.20881 13.1901C6.27685 13.141 6.37891 13.1826 6.42049 13.2581C6.47719 13.3601 6.46207 13.4621 6.43939 13.5679C6.35245 13.9267 6.23149 14.2743 6.07273 14.6067C6.03115 14.6898 5.98957 14.7767 5.93665 14.8787C5.99335 14.9353 6.04249 14.9996 6.10297 15.0525C6.56791 15.4302 7.08576 15.7173 7.65654 15.91C7.79262 15.9553 7.9287 15.9968 8.06478 16.0422C8.80943 16.2764 9.34997 16.7448 9.68261 17.4512C9.71285 17.5154 9.74687 17.5758 9.78467 17.6438C9.87161 17.6438 9.95477 17.6401 10.0341 17.6438C10.1286 17.6476 10.2269 17.6438 10.3176 17.659C10.6767 17.7232 10.8166 18.0065 10.6238 18.32C10.5255 18.4787 10.3895 18.6185 10.2609 18.7809C10.295 18.8564 10.329 18.9395 10.363 19.0151C10.4197 19.0151 10.4575 19.0264 10.4877 19.0151C10.6578 18.9471 10.8317 18.9207 11.0132 18.932C11.085 18.9358 11.1568 18.9433 11.2248 18.9698C11.5272 19.0831 11.6558 19.3664 11.4101 19.6459C11.3156 19.7517 11.1946 19.831 11.085 19.9217C11.0321 19.967 10.9716 20.0048 10.9073 20.0539C11.0585 20.3561 11.24 20.6357 11.3382 20.9681C11.1039 20.8699 11.1039 20.8699 10.5558 20.2352C10.242 20.3561 9.95099 20.5374 9.64103 20.681C9.33107 20.8283 9.02111 20.9756 8.69981 21.1267C8.72249 21.4932 8.93039 21.8369 8.84345 22.2147C8.63555 21.9162 8.58641 21.5574 8.40875 21.2325C8.32182 21.2325 8.2311 21.2325 8.1366 21.2325C8.05344 21.2325 7.97028 21.2401 7.88712 21.225C7.68678 21.1947 7.58472 21.021 7.65276 20.8283C7.69812 20.7037 7.77372 20.5941 7.87956 20.5148C7.93626 20.4732 7.99674 20.4392 8.06478 20.3977C8.00052 20.2692 7.94004 20.1559 7.872 20.0237C7.7964 20.035 7.72836 20.0464 7.6641 20.0501C7.52424 20.0653 7.3806 20.0955 7.24074 20.0841C6.88542 20.0577 6.71154 19.7064 6.90054 19.408C6.97992 19.2795 7.0971 19.1738 7.20294 19.0491C7.14624 18.9887 7.0971 18.9207 7.03284 18.8678C6.64351 18.5542 6.24283 18.2596 5.78167 18.0518C4.76108 17.591 3.8501 16.979 3.08655 16.1555C2.46285 15.4869 1.83159 14.822 1.27216 14.093C1.15498 13.9494 1.0378 13.8134 1 13.6359ZM3.41919 12.3704C3.38139 12.3893 3.32847 12.4006 3.30957 12.4308C3.17727 12.6273 3.05631 12.8313 2.92779 13.0315C2.68587 13.4092 2.65185 13.8285 2.64429 14.2592C2.86731 14.4632 3.03741 14.7087 3.33981 14.8598C3.30201 14.7087 3.27555 14.5954 3.24531 14.4858C3.10545 13.9834 3.08655 13.481 3.27555 12.9824C3.32469 12.8501 3.36249 12.7104 3.39651 12.5744C3.41163 12.5064 3.40785 12.4346 3.41163 12.3666C3.42675 12.3553 3.44186 12.3477 3.4532 12.3364C3.44186 12.3326 3.42675 12.3288 3.41541 12.3213C3.41541 12.3402 3.41541 12.3553 3.41919 12.3704ZM1.50652 13.8625C1.67662 14.1496 1.88451 14.4103 2.10753 14.652C2.51955 15.0978 2.93157 15.5435 3.34737 15.9855C3.88034 16.5521 4.48136 17.0357 5.15419 17.4285C5.26759 17.4927 5.37721 17.5645 5.48683 17.6363C5.74009 17.8138 6.00847 17.9687 6.30331 18.0669C6.77958 18.2256 7.16136 18.524 7.48266 18.9018C7.6074 19.0453 7.7208 19.2002 7.83798 19.3475C7.87956 19.4004 7.9287 19.4533 7.9665 19.4986C8.56751 19.3097 9.48605 18.8224 9.73931 18.5618C9.64103 18.3011 9.53897 18.0367 9.43691 17.7723C9.14963 17.013 8.64689 16.4955 7.8531 16.2575C6.99882 16.0006 6.23527 15.5775 5.58511 14.9542C5.35075 14.7314 5.07104 14.5689 4.76486 14.4594C4.68926 14.4329 4.60232 14.4103 4.53428 14.482C4.59098 14.72 4.59476 14.7465 4.7573 14.9127C4.9652 15.128 5.17309 15.3358 5.39233 15.5398C5.65693 15.7853 5.87617 16.0648 6.06895 16.3633C6.12943 16.4577 6.21259 16.5559 6.18235 16.707C6.12943 16.673 6.08785 16.6541 6.05761 16.6239C5.96689 16.5295 5.87995 16.4313 5.79679 16.3293C5.66827 16.163 5.50951 16.0611 5.30539 15.9968C4.87448 15.8646 4.45112 15.706 4.0202 15.5738C3.49856 15.4113 3.03741 15.1544 2.66697 14.7465C2.58003 14.652 2.48175 14.5614 2.38725 14.4707C2.11887 14.2365 1.84293 14.0136 1.50652 13.8625ZM8.54105 20.749C8.78297 20.6394 8.98709 20.545 9.19121 20.4506C9.38399 20.3599 9.57677 20.2617 9.76577 20.1635C9.95855 20.0615 10.1778 19.9897 10.3403 19.831C10.2269 19.6044 10.1211 19.3891 10.0152 19.1775C9.98501 19.1209 9.93965 19.0718 9.91697 19.0378C9.36887 19.306 8.84345 19.5591 8.32182 19.8122C8.27268 19.8348 8.2311 19.8764 8.17818 19.9141C8.29536 20.1899 8.40876 20.4506 8.54105 20.749ZM4.89716 15.5058C4.814 15.3433 4.70438 15.2715 4.62878 15.1733C4.5116 15.0222 4.36418 14.8825 4.30748 14.7125C4.18652 14.3536 4.10714 13.9796 4.23566 13.5981C4.3226 13.3412 4.39442 13.0768 4.46624 12.8124C4.4927 12.7142 4.50404 12.6122 4.5305 12.4799C4.46624 12.5139 4.42466 12.5253 4.40576 12.5479C4.08068 12.9748 3.78206 13.413 3.62708 13.9343C3.5288 14.2667 3.48722 14.5803 3.67622 14.8938C3.7178 14.9618 3.7367 15.0449 3.7745 15.1356C4.12982 15.2564 4.48892 15.3735 4.89716 15.5058ZM6.18991 13.6208C6.15967 13.6208 6.14833 13.617 6.14077 13.6208C6.11809 13.6321 6.09541 13.6397 6.08029 13.6548C5.85727 13.9116 5.63803 14.1723 5.40367 14.4518C5.52085 14.5387 5.62669 14.618 5.75521 14.7162C5.99335 14.3725 6.09541 14.0023 6.18991 13.6208ZM11.1379 19.3286C10.8582 19.1926 10.7864 19.1889 10.5029 19.2909C10.5369 19.4231 10.5936 19.5439 10.6994 19.6611C10.8695 19.5893 11.0132 19.5024 11.1379 19.3286ZM10.0795 18.3276C10.1891 18.2445 10.2912 18.1727 10.2987 18.0292C10.1891 17.9234 10.0682 17.9234 9.92075 17.9234C9.92453 18.0934 9.97745 18.2105 10.0795 18.3276ZM7.24074 19.6271C7.43352 19.6988 7.56204 19.6837 7.61496 19.5855C7.5696 19.5364 7.51668 19.4835 7.45998 19.4231C7.38438 19.4911 7.32768 19.5439 7.24074 19.6271ZM8.1933 20.7868C8.17818 20.7754 8.16306 20.7679 8.14794 20.7565C8.14416 20.7679 8.12904 20.7792 8.13282 20.7868C8.1366 20.8056 8.14794 20.8208 8.15928 20.8359C8.16684 20.8208 8.17818 20.8019 8.1933 20.7868Z" fill="#020304"/>
<path d="M1 13.6359C1.04158 13.4583 1.16254 13.4017 1.3213 13.4319C1.42336 13.4508 1.5292 13.4848 1.61992 13.5377C1.81648 13.651 2.00169 13.7794 2.19069 13.9041C2.26629 13.9532 2.34567 14.0061 2.44395 14.0741C2.48931 13.9456 2.47041 13.8399 2.47041 13.7416C2.46285 13.4734 2.51955 13.2203 2.65941 12.9899C2.83707 12.6953 3.02229 12.4044 3.21507 12.1211C3.26421 12.0455 3.34359 11.9813 3.42297 11.936C3.53258 11.8755 3.68378 11.9549 3.69134 12.0795C3.6989 12.1966 3.68756 12.3175 3.6611 12.4308C3.59684 12.7104 3.52124 12.9824 3.44942 13.2581C3.41541 13.379 3.38517 13.4999 3.44187 13.6963C3.5855 13.2619 3.78206 12.9295 4.0013 12.6046C4.06556 12.5026 4.1336 12.4006 4.21298 12.3137C4.2659 12.2533 4.33394 12.1966 4.40576 12.1589C4.57586 12.0644 4.74596 12.1475 4.78376 12.3364C4.81778 12.4951 4.77998 12.6424 4.73462 12.7935C4.64012 13.0995 4.5494 13.4092 4.45868 13.7152C4.4171 13.855 4.40576 13.991 4.43222 14.1156C4.71194 14.1912 4.97276 14.2592 5.26381 14.3385C5.30917 14.2781 5.37721 14.1987 5.43769 14.1156C5.60023 13.8927 5.75143 13.6661 5.91775 13.4508C5.99713 13.3488 6.10297 13.2694 6.20881 13.1901C6.27685 13.141 6.37891 13.1826 6.42049 13.2581C6.47719 13.3601 6.46207 13.4621 6.43939 13.5679C6.35245 13.9267 6.23149 14.2743 6.07273 14.6067C6.03115 14.6898 5.98957 14.7767 5.93665 14.8787C5.99335 14.9353 6.04249 14.9996 6.10297 15.0525C6.56791 15.4302 7.08576 15.7173 7.65654 15.91C7.79262 15.9553 7.9287 15.9968 8.06478 16.0422C8.80943 16.2764 9.34997 16.7448 9.68261 17.4512C9.71285 17.5154 9.74687 17.5758 9.78467 17.6438C9.87161 17.6438 9.95477 17.6401 10.0341 17.6438C10.1286 17.6476 10.2269 17.6438 10.3176 17.659C10.6767 17.7232 10.8166 18.0065 10.6238 18.32C10.5255 18.4787 10.3895 18.6185 10.2609 18.7809C10.295 18.8564 10.329 18.9395 10.363 19.0151C10.4197 19.0151 10.4575 19.0264 10.4877 19.0151C10.6578 18.9471 10.8317 18.9207 11.0132 18.932C11.085 18.9358 11.1568 18.9433 11.2248 18.9698C11.5272 19.0831 11.6558 19.3664 11.4101 19.6459C11.3156 19.7517 11.1946 19.831 11.085 19.9217C11.0321 19.967 10.9716 20.0048 10.9073 20.0539C11.0585 20.3561 11.24 20.6357 11.3382 20.9681C11.1039 20.8699 11.1039 20.8699 10.5558 20.2352C10.242 20.3561 9.95099 20.5374 9.64103 20.681C9.33107 20.8283 9.02111 20.9756 8.69981 21.1267C8.72249 21.4932 8.93039 21.8369 8.84345 22.2147C8.63555 21.9162 8.58641 21.5574 8.40875 21.2325C8.32182 21.2325 8.2311 21.2325 8.1366 21.2325C8.05344 21.2325 7.97028 21.2401 7.88712 21.225C7.68678 21.1947 7.58472 21.021 7.65276 20.8283C7.69812 20.7037 7.77372 20.5941 7.87956 20.5148C7.93626 20.4732 7.99674 20.4392 8.06478 20.3977C8.00052 20.2692 7.94004 20.1559 7.872 20.0237C7.7964 20.035 7.72836 20.0464 7.6641 20.0501C7.52424 20.0653 7.3806 20.0955 7.24074 20.0841C6.88542 20.0577 6.71154 19.7064 6.90054 19.408C6.97992 19.2795 7.0971 19.1738 7.20294 19.0491C7.14624 18.9887 7.0971 18.9207 7.03284 18.8678C6.64351 18.5542 6.24283 18.2596 5.78167 18.0518C4.76108 17.591 3.8501 16.979 3.08655 16.1555C2.46285 15.4869 1.83159 14.822 1.27216 14.093C1.15498 13.9494 1.0378 13.8134 1 13.6359ZM3.41919 12.3704C3.38139 12.3893 3.32847 12.4006 3.30957 12.4308C3.17727 12.6273 3.05631 12.8313 2.92779 13.0315C2.68587 13.4092 2.65185 13.8285 2.64429 14.2592C2.86731 14.4632 3.03741 14.7087 3.33981 14.8598C3.30201 14.7087 3.27555 14.5954 3.24531 14.4858C3.10545 13.9834 3.08655 13.481 3.27555 12.9824C3.32469 12.8501 3.36249 12.7104 3.39651 12.5744C3.41163 12.5064 3.40785 12.4346 3.41163 12.3666C3.42675 12.3553 3.44186 12.3477 3.4532 12.3364C3.44186 12.3326 3.42675 12.3288 3.41541 12.3213C3.41541 12.3402 3.41541 12.3553 3.41919 12.3704ZM1.50652 13.8625C1.67662 14.1496 1.88451 14.4103 2.10753 14.652C2.51955 15.0978 2.93157 15.5435 3.34737 15.9855C3.88034 16.5521 4.48136 17.0357 5.15419 17.4285C5.26759 17.4927 5.37721 17.5645 5.48683 17.6363C5.74009 17.8138 6.00847 17.9687 6.30331 18.0669C6.77958 18.2256 7.16136 18.524 7.48266 18.9018C7.6074 19.0453 7.7208 19.2002 7.83798 19.3475C7.87956 19.4004 7.9287 19.4533 7.9665 19.4986C8.56751 19.3097 9.48605 18.8224 9.73931 18.5618C9.64103 18.3011 9.53897 18.0367 9.43691 17.7723C9.14963 17.013 8.64689 16.4955 7.8531 16.2575C6.99882 16.0006 6.23527 15.5775 5.58511 14.9542C5.35075 14.7314 5.07104 14.5689 4.76486 14.4594C4.68926 14.4329 4.60232 14.4103 4.53428 14.482C4.59098 14.72 4.59476 14.7465 4.7573 14.9127C4.9652 15.128 5.17309 15.3358 5.39233 15.5398C5.65693 15.7853 5.87617 16.0648 6.06895 16.3633C6.12943 16.4577 6.21259 16.5559 6.18235 16.707C6.12943 16.673 6.08785 16.6541 6.05761 16.6239C5.96689 16.5295 5.87995 16.4313 5.79679 16.3293C5.66827 16.163 5.50951 16.0611 5.30539 15.9968C4.87448 15.8646 4.45112 15.706 4.0202 15.5738C3.49856 15.4113 3.03741 15.1544 2.66697 14.7465C2.58003 14.652 2.48175 14.5614 2.38725 14.4707C2.11887 14.2365 1.84293 14.0136 1.50652 13.8625ZM8.54105 20.749C8.78297 20.6394 8.98709 20.545 9.19121 20.4506C9.38399 20.3599 9.57677 20.2617 9.76577 20.1635C9.95855 20.0615 10.1778 19.9897 10.3403 19.831C10.2269 19.6044 10.1211 19.3891 10.0152 19.1775C9.98501 19.1209 9.93965 19.0718 9.91697 19.0378C9.36887 19.306 8.84345 19.5591 8.32182 19.8122C8.27268 19.8348 8.2311 19.8764 8.17818 19.9141C8.29536 20.1899 8.40876 20.4506 8.54105 20.749ZM4.89716 15.5058C4.814 15.3433 4.70438 15.2715 4.62878 15.1733C4.5116 15.0222 4.36418 14.8825 4.30748 14.7125C4.18652 14.3536 4.10714 13.9796 4.23566 13.5981C4.3226 13.3412 4.39442 13.0768 4.46624 12.8124C4.4927 12.7142 4.50404 12.6122 4.5305 12.4799C4.46624 12.5139 4.42466 12.5253 4.40576 12.5479C4.08068 12.9748 3.78206 13.413 3.62708 13.9343C3.5288 14.2667 3.48722 14.5803 3.67622 14.8938C3.7178 14.9618 3.7367 15.0449 3.7745 15.1356C4.12982 15.2564 4.48892 15.3735 4.89716 15.5058ZM6.18991 13.6208C6.15967 13.6208 6.14833 13.617 6.14077 13.6208C6.11809 13.6321 6.09541 13.6397 6.08029 13.6548C5.85727 13.9116 5.63803 14.1723 5.40367 14.4518C5.52085 14.5387 5.62669 14.618 5.75521 14.7162C5.99335 14.3725 6.09541 14.0023 6.18991 13.6208ZM11.1379 19.3286C10.8582 19.1926 10.7864 19.1889 10.5029 19.2909C10.5369 19.4231 10.5936 19.5439 10.6994 19.6611C10.8695 19.5893 11.0132 19.5024 11.1379 19.3286ZM10.0795 18.3276C10.1891 18.2445 10.2912 18.1727 10.2987 18.0292C10.1891 17.9234 10.0682 17.9234 9.92075 17.9234C9.92453 18.0934 9.97745 18.2105 10.0795 18.3276ZM7.24074 19.6271C7.43352 19.6988 7.56204 19.6837 7.61496 19.5855C7.5696 19.5364 7.51668 19.4835 7.45998 19.4231C7.38438 19.4911 7.32768 19.5439 7.24074 19.6271ZM8.1933 20.7868C8.17818 20.7754 8.16306 20.7679 8.14794 20.7565C8.14416 20.7679 8.12904 20.7792 8.13282 20.7868C8.1366 20.8056 8.14794 20.8208 8.15928 20.8359C8.16684 20.8208 8.17818 20.8019 8.1933 20.7868Z" stroke="black" stroke-width="0.2" mask="url(#path-3-outside-2_2_5223)"/>
<path d="M10.5709 14.7654L10.5226 14.7782C10.5298 14.8053 10.535 14.8341 10.5408 14.8659C10.5413 14.8689 10.5419 14.872 10.5424 14.8751C10.5488 14.9097 10.5559 14.9473 10.5669 14.9848C10.5892 15.0611 10.628 15.1387 10.7107 15.2018L10.7587 15.2384L10.7857 15.1844C10.7943 15.1673 10.8027 15.1528 10.8116 15.1377C10.8157 15.1306 10.8199 15.1235 10.8242 15.1158C10.837 15.0931 10.8502 15.0676 10.8576 15.0381L10.858 15.0383L10.8588 15.0314C10.9192 14.476 10.9655 13.9142 10.862 13.3511L10.862 13.3511L10.8619 13.3507C10.7822 12.9359 10.6965 12.5229 10.6106 12.1095C10.5783 11.954 10.546 11.7984 10.514 11.6426L10.5141 11.6426L10.5134 11.6399C10.503 11.6004 10.4876 11.5617 10.4696 11.5186C10.4659 11.5098 10.4621 11.5006 10.4581 11.4912C10.4426 11.4545 10.4252 11.4132 10.4059 11.3628L10.3588 11.2396L10.3124 11.3631C10.2974 11.403 10.2838 11.435 10.2715 11.464C10.2653 11.4784 10.2594 11.4922 10.2539 11.5058C10.2379 11.5449 10.2248 11.5825 10.2224 11.6233L10.2224 11.6233L10.2223 11.6244C10.1844 12.6851 10.2449 13.7444 10.5226 14.7783L10.5709 14.7654ZM10.5709 14.7654C10.295 13.7379 10.2345 12.6839 10.2723 11.6262L10.6963 15.1396C10.6983 15.1357 10.7003 15.1317 10.7024 15.1278C10.6247 15.048 10.6068 14.9496 10.5899 14.8566C10.5842 14.8253 10.5786 14.7945 10.5709 14.7654Z" fill="#020304" stroke="black" stroke-width="0.1"/>
<path d="M7.42099 5.01599L7.50035 5.05081L7.49078 4.96468C7.45153 4.61167 7.297 4.29184 6.65625 3.21833C6.4941 2.94382 6.26398 2.62082 6.04231 2.3438C5.82197 2.06843 5.60536 1.8326 5.4703 1.73733L5.40896 1.69406L5.39267 1.76733C5.39143 1.7729 5.38938 1.7794 5.38647 1.78786C5.38585 1.78963 5.38518 1.79158 5.38446 1.79363C5.38212 1.80029 5.37937 1.80815 5.37712 1.81551C5.37192 1.83254 5.36341 1.86393 5.3761 1.89487C5.76798 2.93252 6.36849 3.84349 7.05424 4.70297L7.05441 4.70318C7.14919 4.82063 7.25396 4.94271 7.42099 5.01599Z" fill="#020304" stroke="black" stroke-width="0.1"/>
<path d="M3.01929 4.9368L2.9695 4.92436L2.95836 4.97445C2.94436 5.03745 2.95531 5.08537 2.98203 5.12291C3.00034 5.14862 3.02727 5.16907 3.04449 5.18216C3.04859 5.18528 3.05215 5.18797 3.0549 5.19023L3.0549 5.19024L3.05573 5.19088C3.56374 5.5887 4.0973 5.9509 4.70857 6.19147C4.82235 6.23723 4.93595 6.28363 5.04955 6.33004C5.24422 6.40957 5.43892 6.4891 5.63467 6.56545C5.75659 6.61494 5.88322 6.66099 6.01045 6.69567L6.01044 6.6957L6.01236 6.69615C6.04645 6.70401 6.08066 6.70085 6.11146 6.69645C6.12339 6.69475 6.13463 6.6929 6.14581 6.69107C6.16614 6.68774 6.18627 6.68444 6.21001 6.68207L6.26974 6.6761L6.25307 6.61843C6.1983 6.42896 6.06559 6.35581 5.95673 6.29581L5.95366 6.29412C5.95358 6.29408 5.95351 6.29403 5.95344 6.29399C5.74984 6.17917 5.54183 6.06634 5.33383 5.95352C5.15387 5.85591 4.97391 5.7583 4.7968 5.65939L4.79655 5.65924C4.31351 5.39318 3.80804 5.18052 3.28793 5.00598C3.22505 4.98415 3.16043 4.96946 3.09776 4.95521C3.07116 4.94917 3.04491 4.9432 3.01929 4.9368Z" fill="#020304" stroke="black" stroke-width="0.1"/>
<path d="M11.4893 4.96575L11.4841 4.99654L13.7688 2.20126L13.8135 2.22364C13.8136 2.22341 13.8137 2.22319 13.8138 2.22296C13.8216 2.20706 13.8227 2.191 13.8221 2.17856C13.8216 2.16594 13.8191 2.15329 13.8165 2.14224C13.814 2.13157 13.8116 2.1225 13.8092 2.11356C13.8057 2.10048 13.8023 2.08768 13.7989 2.07057L13.7832 1.99229L13.7196 2.04056C13.4167 2.27048 13.172 2.53436 12.9442 2.8076C12.4171 3.43663 11.9471 4.11091 11.5264 4.81901C11.5098 4.84454 11.5028 4.87314 11.4987 4.89712C11.4966 4.90951 11.4951 4.92207 11.4937 4.93337L11.4937 4.93346C11.4922 4.94519 11.4909 4.95566 11.4893 4.96575Z" fill="#020304" stroke="black" stroke-width="0.1"/>
<path d="M5.49439 8.68352C5.32625 8.68912 5.16018 8.70095 4.99311 8.71285C4.93483 8.717 4.87643 8.72116 4.81778 8.72507C4.08068 8.78173 3.35493 8.91017 2.64429 9.11038L5.49439 8.68352ZM5.49439 8.68352C5.50441 8.68327 5.51443 8.683 5.52444 8.68272M5.49439 8.68352L5.52444 8.68272M5.52444 8.68272C5.66937 8.67873 5.81388 8.67475 5.95177 8.76662L5.52444 8.68272ZM5.99623 8.7895L6.01667 8.74978L5.97949 8.72501C5.82787 8.62399 5.66804 8.62857 5.52513 8.63266C5.51438 8.63297 5.50373 8.63327 5.49318 8.63353L5.49273 8.63354C5.32355 8.63918 5.15612 8.65111 4.98878 8.66303C4.93068 8.66717 4.8726 8.67131 4.81445 8.67518L4.81445 8.67518L4.81395 8.67522C4.07358 8.73213 3.34456 8.86114 2.63073 9.06225L2.63073 9.06224L2.62959 9.06258C2.59791 9.07233 2.57034 9.08886 2.54522 9.1056C2.53491 9.11247 2.52542 9.11906 2.51599 9.12562C2.50052 9.13637 2.48519 9.14702 2.4666 9.15863L2.37292 9.21715L2.47871 9.24893C2.79613 9.34429 3.29436 9.36053 3.85858 9.31272C4.42447 9.26476 5.06258 9.15182 5.66278 8.98478L5.64937 8.93661L5.66266 8.98481C5.67713 8.98082 5.69294 8.97717 5.70963 8.97331C5.80433 8.95142 5.92756 8.92293 5.99623 8.7895Z" fill="#020304" stroke="black" stroke-width="0.1"/>
<path d="M7.22813 14.2368L7.22491 14.195C7.22405 14.1838 7.22274 14.1722 7.22126 14.1595L7.22084 14.1558C7.21951 14.1444 7.21807 14.1321 7.21694 14.1197C7.21443 14.0921 7.21313 14.0612 7.21771 14.0292L7.26721 14.0363M7.22813 14.2368L7.42725 14.1791C7.67352 13.7702 7.89974 13.3495 8.01879 12.8736C8.08908 12.5926 8.16241 12.3135 8.23594 12.0336C8.27702 11.8772 8.31817 11.7205 8.35889 11.5632L8.31048 11.5507M7.22813 14.2368L7.26979 14.2409M7.22813 14.2368L7.26979 14.2409M7.26721 14.0363L7.21769 14.0294C7.22213 13.9976 7.22652 13.9657 7.23092 13.9338C7.27489 13.6145 7.31991 13.2876 7.43178 12.9732L7.43179 12.9731C7.45101 12.9192 7.47017 12.8653 7.48933 12.8114C7.6056 12.4841 7.7219 12.1567 7.85217 11.8377C7.91223 11.6907 7.99833 11.552 8.08048 11.4197C8.10432 11.3813 8.12783 11.3435 8.15028 11.3061C8.16353 11.2834 8.18358 11.2505 8.21425 11.2263C8.24764 11.1998 8.29152 11.1851 8.34629 11.1956L8.37241 11.2005L8.38289 11.225C8.41065 11.2897 8.4099 11.3523 8.39989 11.4092C8.39331 11.4465 8.38164 11.4856 8.37121 11.5207C8.36665 11.5359 8.36232 11.5505 8.35876 11.5637L8.31048 11.5507M7.26721 14.0363C7.26172 14.0747 7.2662 14.1131 7.27051 14.1501C7.27213 14.164 7.27373 14.1777 7.27477 14.1912L7.26721 14.0363ZM8.31048 11.5507C8.26986 11.7076 8.22876 11.8641 8.1877 12.0204C8.11411 12.3005 8.04064 12.5802 7.97028 12.8615C7.8531 13.3299 7.63008 13.7454 7.38439 14.1534L7.5365 12.8279C7.65279 12.5006 7.76866 12.1745 7.89846 11.8566C7.95676 11.7139 8.03979 11.5801 8.12155 11.4484C8.1458 11.4094 8.16995 11.3705 8.1933 11.3316C8.21976 11.2862 8.25756 11.2296 8.33694 11.2447C8.37495 11.3333 8.34926 11.4193 8.32437 11.5026C8.31956 11.5187 8.31477 11.5347 8.31048 11.5507ZM7.26979 14.2409C7.28558 14.2425 7.29651 14.2448 7.30508 14.2466L7.30558 14.2467L7.30637 14.2469C7.30993 14.2476 7.31608 14.2489 7.3217 14.2495C7.32178 14.2495 7.32188 14.2495 7.32201 14.2495C7.32512 14.2498 7.34289 14.2517 7.35941 14.2403M7.26979 14.2409L7.35941 14.2403M7.35941 14.2403C7.37781 14.2292 7.40935 14.2089 7.42722 14.1792L7.35941 14.2403Z" fill="#020304" stroke="black" stroke-width="0.1"/>
<path d="M9.27109 0.915219L9.33082 0.959991C9.3451 0.970695 9.35611 0.977872 9.36679 0.984836C9.37263 0.988642 9.37837 0.992385 9.38449 0.996606C9.39191 1.00172 9.40094 1.00831 9.40868 1.01639C9.41666 1.02471 9.42544 1.03681 9.42901 1.05331M9.27109 0.915219L9.57677 2.32592L9.62677 2.32635C9.63048 1.9039 9.53397 1.49647 9.43921 1.09638C9.43581 1.08201 9.43241 1.06765 9.42901 1.05331M9.27109 0.915219L9.25242 0.987499C9.14477 1.40439 9.10812 2.0778 9.13038 2.71157C9.14153 3.02913 9.16753 3.33836 9.20727 3.60244C9.24681 3.86514 9.30057 4.08772 9.36927 4.229L9.39995 4.2921L9.44958 4.2425C9.4551 4.23698 9.4612 4.23148 9.46831 4.2251L9.46908 4.22441C9.47562 4.21853 9.48322 4.21172 9.49021 4.20472C9.50289 4.19205 9.52285 4.17024 9.52773 4.14034M9.27109 0.915219L9.52773 4.14034M9.42901 1.05331C9.42909 1.05367 9.42917 1.05404 9.42924 1.05441L9.38021 1.06422L9.42887 1.05271C9.42892 1.05291 9.42896 1.05311 9.42901 1.05331ZM9.30083 1L9.34925 1.0125C9.34774 1.01835 9.34624 1.02424 9.34476 1.0302C9.34365 1.02947 9.34252 1.02873 9.34137 1.02798C9.3299 1.02048 9.31624 1.01154 9.30083 1ZM9.30083 1L9.27085 1.04001C9.27662 1.04434 9.28241 1.04848 9.288 1.05238C9.29216 1.03449 9.29644 1.01702 9.30083 1ZM9.41423 4.20713L9.37889 4.17177C9.38346 4.1672 9.38816 4.1628 9.39265 4.15869C9.39968 4.17585 9.40688 4.19201 9.41423 4.20713ZM9.41423 4.20713L9.4592 4.18527C9.45702 4.18078 9.45485 4.17619 9.45269 4.1715C9.44724 4.17682 9.44131 4.18214 9.43529 4.18755C9.4282 4.19391 9.42097 4.2004 9.41423 4.20713ZM9.60407 3.67974C9.60407 3.67967 9.60407 3.6796 9.60408 3.67953L9.55409 3.67828L9.60406 3.67996C9.60407 3.67989 9.60407 3.67981 9.60407 3.67974ZM9.60407 3.67974C9.60101 3.80114 9.57433 3.92369 9.54887 4.04067C9.54152 4.07441 9.53428 4.10768 9.52773 4.14034M9.60407 3.67974L9.52773 4.14034M9.52773 4.14034C9.52782 4.13978 9.52791 4.13922 9.52799 4.13866L9.47849 4.13158L9.52752 4.14139C9.52759 4.14104 9.52766 4.14069 9.52773 4.14034Z" fill="#020304" stroke="black" stroke-width="0.1"/>
<path d="M5.24976 12.7128L5.26972 12.7826L5.32782 12.7391C5.35388 12.7195 5.37767 12.7037 5.40108 12.6881C5.40363 12.6864 5.40617 12.6847 5.40872 12.683C5.43423 12.666 5.45987 12.6487 5.48481 12.6279L5.48482 12.6279L5.48553 12.6273C5.80076 12.3545 6.04605 12.0286 6.24846 11.6737L6.24857 11.6735C6.46422 11.2916 6.67605 10.906 6.88407 10.5205L6.88415 10.5205L6.88546 10.5177C6.8883 10.5115 6.89159 10.5059 6.89612 10.4982C6.89898 10.4934 6.90233 10.4877 6.90636 10.4805C6.91521 10.4647 6.92591 10.4438 6.93133 10.4201C6.93701 10.3952 6.93706 10.3666 6.92405 10.3373C6.91137 10.3087 6.8884 10.2841 6.85679 10.2627L6.8329 10.2465L6.80692 10.2591C6.68776 10.3168 6.59736 10.4159 6.51523 10.5059C6.50405 10.5182 6.49302 10.5303 6.48209 10.5421L6.48209 10.5421L6.48161 10.5426C6.10469 10.9611 5.78162 11.4247 5.48963 11.8984L5.48962 11.8984C5.42639 12.0011 5.38059 12.1136 5.34049 12.2267C5.32277 12.2766 5.3066 12.3253 5.2906 12.3735C5.26947 12.4371 5.24862 12.4998 5.22486 12.5636C5.21205 12.5949 5.22101 12.6268 5.22702 12.6457C5.22977 12.6544 5.23315 12.6637 5.23632 12.6725C5.23711 12.6747 5.23789 12.6769 5.23865 12.679C5.24262 12.6901 5.24644 12.7012 5.24976 12.7128Z" fill="#020304" stroke="black" stroke-width="0.1"/>
<path d="M15.1598 5.53683L15.1431 5.48969C14.4542 5.73312 13.8155 6.0752 13.2082 6.47731L13.2082 6.4773L13.2072 6.47794C13.1186 6.53954 13.0342 6.60856 12.954 6.68101C12.9284 6.70155 12.9133 6.72874 12.902 6.75236C12.8969 6.76305 12.8926 6.7726 12.8885 6.7819C12.882 6.79666 12.8757 6.8108 12.8666 6.82788L12.8297 6.897L12.9079 6.90134C12.9283 6.90248 12.9446 6.90474 12.9618 6.90712C12.9726 6.90863 12.9839 6.91019 12.9967 6.91153C13.0246 6.91448 13.059 6.91596 13.0922 6.90151C13.1547 6.87814 13.2175 6.85486 13.2803 6.83153C13.5921 6.71581 13.9065 6.59912 14.2156 6.46674L14.2158 6.46666C14.5479 6.32283 14.8195 6.08449 15.0815 5.85455C15.0946 5.84306 15.1077 5.8316 15.1207 5.82017C15.1372 5.80607 15.155 5.79278 15.1744 5.77827C15.1765 5.77673 15.1785 5.77517 15.1806 5.7736C15.202 5.75763 15.2251 5.74014 15.2464 5.72059C15.2899 5.68084 15.3296 5.62981 15.3415 5.55613L15.3466 5.52439L15.3198 5.50656L15.314 5.50232L15.3049 5.49544C15.3017 5.49306 15.2967 5.48962 15.291 5.48667C15.2858 5.48404 15.2753 5.47928 15.2619 5.47928C15.2574 5.47928 15.2516 5.47916 15.2451 5.47903C15.2332 5.4788 15.2193 5.47852 15.2081 5.47883C15.1885 5.47935 15.165 5.48148 15.1422 5.49001L15.1598 5.53683ZM15.1598 5.53683C15.184 5.52775 15.2131 5.52838 15.2413 5.52898C15.2482 5.52913 15.2551 5.52928 15.2619 5.52928C15.2671 5.52928 15.2741 5.53468 15.2817 5.54051C15.2851 5.54313 15.2886 5.54583 15.2921 5.54817L12.9339 6.80306C12.9344 6.8019 12.9349 6.80075 12.9354 6.79961C12.9506 6.76552 12.9632 6.73715 12.9863 6.71921C13.0657 6.64743 13.1488 6.57944 13.2358 6.519C13.8406 6.11858 14.4756 5.7786 15.1598 5.53683Z" fill="#020304" stroke="black" stroke-width="0.1"/>
<path d="M8.38648 4.38766L8.41671 4.4217L8.45343 4.39479C8.52365 4.34332 8.54817 4.28003 8.55398 4.21793C8.55674 4.18837 8.55529 4.15934 8.55348 4.13369C8.55305 4.12758 8.55261 4.12174 8.55219 4.11611C8.55074 4.09685 8.54947 4.08006 8.54947 4.06359L8.54947 4.06316C8.54563 3.61437 8.45339 3.18509 8.19747 2.78982L8.15272 2.72072L8.11203 2.79229C8.0623 2.87976 8.0296 2.964 8.01437 3.06703C7.99929 3.169 8.00164 3.28718 8.01886 3.44204L8.01888 3.44217C8.05711 3.77845 8.13822 4.10805 8.38648 4.38766Z" fill="#020304" stroke="black" stroke-width="0.1"/>
<path d="M10.4769 4.45992L10.4722 4.42537C10.4423 4.20401 10.4924 3.94806 10.6012 3.70108C10.7102 3.45362 10.8797 3.21172 11.0929 3.01797L11.1372 2.97774L11.1689 3.02847C11.1724 3.03391 11.1766 3.03968 11.1818 3.0465C11.1829 3.04795 11.1841 3.04951 11.1854 3.05114C11.1895 3.05648 11.1943 3.06264 11.1984 3.0684C11.2039 3.07603 11.2104 3.08592 11.2151 3.09711C11.2198 3.10811 11.224 3.12338 11.2215 3.14091M10.4769 4.45992L11.1719 3.13431M10.4769 4.45992L10.5109 4.46748C10.5782 4.48241 10.6302 4.46433 10.671 4.43182C10.7016 4.40744 10.7268 4.37364 10.747 4.34666C10.7507 4.34163 10.7543 4.33683 10.7577 4.33238M10.4769 4.45992L10.7183 4.30157M11.2215 3.14091C11.2214 3.14145 11.2213 3.14199 11.2212 3.14253L11.1719 3.13431M11.2215 3.14091C11.2215 3.1406 11.2216 3.14029 11.2216 3.13998L11.1719 3.13431M11.2215 3.14091C11.1715 3.57774 11.0368 3.98357 10.7577 4.33238M11.1719 3.13431C11.1228 3.56495 10.9905 3.96159 10.7183 4.30157M10.7577 4.33238C10.7578 4.33224 10.7579 4.3321 10.758 4.33195L10.7183 4.30157M10.7577 4.33238C10.7576 4.33252 10.7575 4.33267 10.7573 4.33282L10.7183 4.30157M11.1266 3.05498L11.1602 3.09199C11.1589 3.09316 11.1576 3.09433 11.1563 3.09551C11.1532 3.09122 11.1498 3.08684 11.1463 3.08237C11.1396 3.07361 11.1325 3.06448 11.1266 3.05498ZM11.1266 3.05498L11.0842 3.08149C11.0859 3.08426 11.0877 3.08697 11.0895 3.0896C11.1017 3.07789 11.114 3.06635 11.1266 3.05498Z" fill="#020304" stroke="black" stroke-width="0.1"/>
<path d="M5.02402 10.2205L4.95189 10.3132L5.06869 10.3009C5.54338 10.2512 5.99879 10.1203 6.38059 9.73092L6.42675 9.68385L6.36897 9.65209C6.34568 9.63929 6.32735 9.62721 6.30904 9.61514C6.29808 9.60791 6.28713 9.60069 6.27512 9.59333C6.24946 9.57758 6.21138 9.55602 6.16963 9.56361L6.16963 9.56361L6.16926 9.56368C5.72243 9.64837 5.32453 9.83438 5.02402 10.2205Z" fill="#020304" stroke="black" stroke-width="0.1"/>
<path d="M5.92929 7.83604L5.9567 7.81031L5.93959 7.77683C5.88854 7.67691 5.81869 7.6216 5.74192 7.59036C5.67307 7.56235 5.59934 7.55429 5.53631 7.54741C5.53205 7.54694 5.52783 7.54648 5.52367 7.54602C5.22728 7.5 4.928 7.51161 4.63014 7.56105C4.61688 7.56253 4.60679 7.56855 4.60036 7.57387C4.59339 7.57963 4.58883 7.58605 4.58615 7.59024C4.5809 7.59848 4.57682 7.60808 4.57408 7.61471C4.57264 7.61817 4.57129 7.62152 4.56997 7.62478C4.56516 7.63667 4.56081 7.64743 4.55484 7.65818L4.52997 7.70291L4.57526 7.72673C4.87112 7.88234 5.19251 7.9398 5.5085 7.97023L5.5085 7.97024L5.5089 7.97027C5.64591 7.98235 5.79062 7.96621 5.92929 7.83604Z" fill="#020304" stroke="black" stroke-width="0.1"/>
<path d="M13.4831 5.18749L13.5121 5.10786L13.4284 5.121C12.9573 5.19491 12.6472 5.40644 12.4054 5.73777L12.4053 5.73771L12.4036 5.74039C12.388 5.76493 12.3734 5.79669 12.3726 5.83132C12.3718 5.86893 12.3876 5.90466 12.4224 5.93119C12.4424 5.94747 12.468 5.95626 12.4899 5.96039C12.5122 5.96461 12.5385 5.96545 12.5616 5.95887L12.5616 5.95894L12.5641 5.95806C12.8969 5.84337 13.2079 5.68002 13.4133 5.36454C13.4304 5.3399 13.4406 5.31389 13.4499 5.28657C13.4534 5.27624 13.4567 5.26601 13.4602 5.25527C13.4665 5.2356 13.4734 5.21423 13.4831 5.18749Z" fill="#020304" stroke="black" stroke-width="0.1"/>
<path d="M12.7898 8.93364L12.7117 8.8938L12.7172 8.9813C12.7199 9.02581 12.7201 9.06169 12.7202 9.09322C12.7202 9.10333 12.7203 9.11301 12.7204 9.12237C12.7208 9.1586 12.7224 9.19515 12.736 9.22785L12.7358 9.22793L12.738 9.23202C12.8456 9.4351 13.0133 9.58672 13.2283 9.67423L13.2283 9.67423L13.2291 9.67455C13.3515 9.72189 13.4983 9.75435 13.6541 9.66356L13.6903 9.64242L13.6758 9.60305C13.5989 9.39463 13.4644 9.27237 13.3054 9.17959C13.2267 9.13367 13.1415 9.09469 13.0549 9.0562C13.0428 9.0508 13.0306 9.0454 13.0184 9.04C12.9429 9.00661 12.8666 8.9728 12.7898 8.93364Z" fill="#020304" stroke="black" stroke-width="0.1"/>
<path d="M11.9873 12.074L12.0801 12.1057L12.0513 12.012C11.9324 11.6248 11.772 11.3465 11.4655 11.1675L11.4656 11.1674L11.4626 11.166C11.4593 11.1643 11.4556 11.1621 11.4506 11.159C11.4496 11.1583 11.4484 11.1576 11.4472 11.1568C11.4432 11.1542 11.4382 11.151 11.4336 11.1483C11.4213 11.141 11.4013 11.1305 11.376 11.1305C11.3757 11.1305 11.3753 11.1305 11.375 11.1305C11.3604 11.1305 11.3387 11.1305 11.3178 11.1333C11.2993 11.1358 11.2697 11.1418 11.2479 11.1624C11.2262 11.1813 11.2144 11.2091 11.2086 11.231C11.2026 11.2539 11.1999 11.2826 11.207 11.3076L11.207 11.3076L11.2074 11.3089C11.2642 11.4888 11.35 11.6435 11.4776 11.772C11.605 11.9003 11.7718 12.0002 11.9873 12.074Z" fill="#020304" stroke="black" stroke-width="0.1"/>
<path d="M5.70941 4.62948L5.77099 4.62564C5.84486 4.62102 5.90434 4.64454 5.95385 4.67573C5.98744 4.6969 6.01969 4.72411 6.04751 4.74759C6.05822 4.75662 6.06827 4.76511 6.07749 4.77248L6.07757 4.77255C6.29046 4.9435 6.49547 5.12564 6.69596 5.3071L6.6624 5.34417M5.70941 4.62948L6.62427 5.5528C6.63687 5.5524 6.64878 5.55179 6.66077 5.55117C6.68123 5.55011 6.70192 5.54904 6.72666 5.54904H6.80199L6.77274 5.47963C6.76234 5.45496 6.7557 5.43323 6.7491 5.41168C6.74682 5.40424 6.74455 5.39681 6.74213 5.3893C6.73387 5.36361 6.72209 5.32994 6.69532 5.30653L6.6624 5.34417M5.70941 4.62948L5.72594 4.68893C5.78549 4.90321 5.88925 5.0614 6.06717 5.24309C6.19519 5.37489 6.342 5.48685 6.52682 5.54308C6.5268 5.54307 6.52677 5.54307 6.52675 5.54306L6.54144 5.49527M5.70941 4.62948L6.70842 5.44923M6.6624 5.34417C6.68117 5.36057 6.68974 5.38861 6.70077 5.42468C6.70317 5.4325 6.70567 5.4407 6.70842 5.44923M6.6624 5.34417C6.46206 5.16284 6.25795 4.98152 6.04627 4.81153C6.03497 4.8025 6.02367 4.79296 6.01221 4.78329C5.95883 4.73821 5.90215 4.69036 5.82683 4.67807C5.82528 4.6728 5.82377 4.66749 5.82228 4.66215L5.77411 4.67554L5.77723 4.72544C5.78122 4.72519 5.78515 4.72507 5.78903 4.72506C5.84756 4.90468 5.94345 5.0453 6.10297 5.20818C6.22771 5.33661 6.36757 5.44238 6.54144 5.49527M6.70842 5.44923C6.71445 5.44911 6.72054 5.44904 6.72666 5.44904V5.49904L6.68059 5.51846C6.67803 5.51239 6.67564 5.50639 6.67338 5.50047M6.70842 5.44923L6.67338 5.50047M6.54144 5.49527C6.57466 5.50548 6.61134 5.50361 6.65614 5.50133C6.66176 5.50104 6.6675 5.50075 6.67338 5.50047M6.54144 5.49527L6.52689 5.5431L6.67338 5.50047" fill="#020304" stroke="black" stroke-width="0.1"/>
<path d="M9.17241 12.4481L9.1925 12.5493L9.25948 12.4709C9.50853 12.1792 9.60362 11.9027 9.52717 11.577L9.52719 11.577L9.5268 11.5756C9.51839 11.544 9.50436 11.5075 9.47779 11.4789C9.44921 11.4481 9.40929 11.4301 9.35869 11.4327L9.33629 11.4339L9.32228 11.4514C9.21954 11.5798 9.15652 11.7077 9.13278 11.8667C9.10932 12.0239 9.12476 12.2081 9.17241 12.4481Z" fill="#020304" stroke="black" stroke-width="0.1"/>
<path d="M7.04341 11.6858L7.04803 11.7643L7.11713 11.7269C7.30743 11.6239 7.39731 11.4479 7.47683 11.2922C7.47976 11.2864 7.48268 11.2807 7.48559 11.275L7.4856 11.275L7.4861 11.274C7.53904 11.1644 7.59714 11.0312 7.54938 10.875L7.53141 10.8162L7.47752 10.8458C7.31608 10.9343 7.2 11.0428 7.12822 11.1827C7.05669 11.3221 7.03174 11.4876 7.04341 11.6858Z" fill="#020304" stroke="black" stroke-width="0.1"/>
<path d="M13.7953 12.8332L13.8258 12.9908L13.8902 12.8438C13.9017 12.8174 13.9157 12.7915 13.9306 12.764C13.9315 12.7624 13.9324 12.7608 13.9332 12.7592C13.9487 12.7307 13.9652 12.6999 13.9777 12.6685L13.9779 12.6686L13.9792 12.6643C14.0679 12.3689 14.2122 12.1095 14.3914 11.8595C14.4702 11.7508 14.5437 11.6338 14.6158 11.5189C14.645 11.4724 14.6739 11.4263 14.7029 11.3813L14.7029 11.3813L14.7034 11.3805L14.704 11.3796C14.718 11.3567 14.7389 11.3229 14.7443 11.286C14.7473 11.2658 14.746 11.2437 14.7368 11.2215C14.7278 11.1996 14.7125 11.1807 14.6924 11.1643L14.6651 11.1422L14.635 11.1603C14.2917 11.3673 14.0455 11.6029 13.9034 11.8801C13.7608 12.1581 13.7255 12.473 13.7953 12.8332Z" fill="#020304" stroke="black" stroke-width="0.1"/>
<path d="M7.35931 16.4889L7.28482 16.5102L7.33488 16.5693C7.35029 16.5875 7.36262 16.6048 7.37495 16.6221C7.37795 16.6263 7.38095 16.6305 7.38399 16.6347C7.39832 16.6546 7.41554 16.6776 7.43755 16.6941L7.43742 16.6943L7.44148 16.6968C7.46289 16.7099 7.48428 16.723 7.50566 16.736C7.68756 16.8474 7.869 16.9584 8.05659 17.0572L8.05669 17.0573C8.36411 17.2184 8.63329 17.4017 8.80373 17.7025L8.80371 17.7025L8.80436 17.7036C8.81927 17.7284 8.83847 17.7483 8.85862 17.7679C8.86369 17.7729 8.86888 17.7779 8.87427 17.783C8.89104 17.7992 8.90963 17.817 8.93179 17.8406L9.00936 17.9229L9.01804 17.8101C9.0207 17.7756 9.02423 17.7471 9.02749 17.7209C9.02876 17.7107 9.02998 17.7008 9.0311 17.6911C9.03488 17.658 9.03748 17.6256 9.033 17.5928C9.01616 17.4079 8.91766 17.255 8.8054 17.1273L8.80538 17.1273C8.54941 16.8366 8.23066 16.6383 7.85376 16.5451L7.85376 16.5451L7.85357 16.5451C7.82401 16.5379 7.79421 16.5288 7.76211 16.5189C7.75818 16.5177 7.75421 16.5165 7.75021 16.5152C7.71412 16.5042 7.67549 16.4926 7.63496 16.4839C7.55305 16.4662 7.46209 16.4596 7.35931 16.4889Z" fill="#020304" stroke="black" stroke-width="0.1"/>
<path d="M6.62456 15.8427L6.51517 15.7872L6.55458 15.9034C6.63285 16.1341 6.73323 16.2616 6.87669 16.3521C6.89601 16.3655 6.92773 16.3859 6.96717 16.3859C7.01115 16.3859 7.04964 16.3615 7.08342 16.3187L7.09839 16.2998L7.09286 16.2763C7.04129 16.0572 6.85781 15.9611 6.62456 15.8427Z" fill="#020304" stroke="black" stroke-width="0.1"/>
</svg>
