<svg width="20" height="21" viewBox="0 0 20 21" fill="none" xmlns="http://www.w3.org/2000/svg">
<mask id="path-1-outside-1_2_5185" maskUnits="userSpaceOnUse" x="0" y="7.77702" width="20" height="13" fill="black">
<rect fill="white" y="7.77702" width="20" height="13"/>
<path d="M1.15227 9.37481C1.11447 9.28793 1.06911 9.20482 1.04265 9.11416C0.98595 8.93284 1.10313 8.76285 1.29591 8.77796C1.43577 8.78929 1.57563 8.83462 1.70415 8.89129C1.844 8.95173 1.97253 9.04239 2.10483 9.11794C2.42234 9.02728 2.48282 9.01972 2.78522 9.1746C3.00446 9.28793 3.21236 9.43525 3.41648 9.57502C3.52231 9.6468 3.61681 9.74124 3.73021 9.83567C3.97969 9.74501 4.21027 9.82812 4.42951 9.96033C4.72813 10.1379 5.00785 10.3381 5.24977 10.5874C5.59374 10.9349 5.93016 11.2863 6.27036 11.6376C6.32706 11.698 6.3951 11.7584 6.42156 11.834C6.50472 12.072 6.6975 12.1324 6.9054 12.2042C7.20779 12.3062 7.51019 12.4195 7.80503 12.548C8.92012 13.039 9.69502 14.1987 9.72904 15.4151C9.7366 15.7022 9.7366 15.9855 9.72904 16.2726C9.7177 16.7637 9.7744 17.2472 9.82354 17.7307C9.82732 17.7874 9.85 17.8441 9.86512 17.9121C10.0277 17.9838 10.1902 17.9725 10.3716 17.9574C10.3792 17.8516 10.3943 17.761 10.3905 17.6703C10.3754 17.1226 10.3452 16.5748 10.3376 16.0308C10.3338 15.6984 10.3452 15.366 10.3679 15.0336C10.3905 14.6558 10.5304 14.3196 10.7421 14.0061C10.9197 13.7492 11.1352 13.5301 11.3695 13.3261C11.6115 13.1146 11.8609 12.9106 12.0953 12.6915C12.4393 12.3742 12.8475 12.2004 13.3049 12.1286C13.5166 12.0984 13.7283 12.0644 13.9437 12.0531C14.1176 12.0455 14.2348 11.9738 14.3255 11.834C14.4087 11.7056 14.4956 11.5733 14.5939 11.4562C14.7224 11.3014 14.8547 11.1465 14.9945 11.0029C15.1646 10.8329 15.3763 10.7196 15.6145 10.6705C15.7694 10.6365 15.9017 10.5761 16.0189 10.4665C16.2986 10.2172 16.6162 10.0359 16.9828 9.94523C17.1113 9.91123 17.221 9.84323 17.3268 9.76768C17.5196 9.62791 17.7199 9.49947 17.924 9.37481C18.1433 9.2426 18.3814 9.17082 18.6384 9.2086C18.7632 9.22749 18.869 9.2086 18.9786 9.14061C19.1034 9.06506 19.2432 9.03484 19.3907 9.04617C19.6061 9.06128 19.746 9.21238 19.7271 9.42392C19.7157 9.52592 19.6817 9.63547 19.6288 9.72613C19.5645 9.83945 19.4738 9.93767 19.3907 10.0359C19.179 10.2776 18.9673 10.5194 18.7518 10.7574C18.3285 11.2258 17.9505 11.7282 17.5536 12.2193C17.2777 12.5631 16.9639 12.8728 16.6502 13.1826C16.5179 13.3148 16.3553 13.4243 16.189 13.5188C15.8564 13.7039 15.5162 13.8701 15.176 14.0476C14.9643 14.1572 14.7526 14.263 14.5485 14.3838C14.2008 14.5878 13.9437 14.8825 13.7623 15.2413C13.5468 15.6606 13.4334 16.1064 13.3767 16.571C13.3729 16.605 13.3843 16.639 13.3956 16.6919C13.6224 16.6957 13.8417 16.7486 14.0458 16.843C14.1441 16.8883 14.2423 16.9337 14.3255 16.9979C14.6619 17.2472 14.7035 17.6854 14.4238 17.9989C14.2839 18.1538 14.11 18.2558 13.9135 18.32C13.732 18.3805 13.5468 18.4183 13.3616 18.4636C13.3049 18.4787 13.2482 18.49 13.1802 18.5014C13.1235 18.7507 13.1461 19.0038 13.131 19.2493C13.1121 19.4911 13.1272 19.7366 13.0932 20.0539C12.942 19.8424 12.9496 19.6724 12.9118 19.5175C12.874 19.3664 12.8437 19.2153 12.8211 19.0642C12.7946 18.9018 12.7757 18.7356 12.753 18.5656C12.5149 18.4976 12.2919 18.5429 12.0688 18.5278C11.8307 18.5127 11.5926 18.5014 11.3544 18.4976C11.1276 18.4938 10.9046 18.4976 10.6627 18.4976C10.5417 18.7129 10.6136 19.0038 10.4283 19.2342C10.3641 19.1662 10.3905 19.0982 10.3905 19.0415C10.3943 18.9811 10.4057 18.9244 10.4094 18.864C10.4132 18.7922 10.4208 18.7205 10.417 18.6487C10.4132 18.592 10.4019 18.5354 10.3943 18.4863C10.1637 18.4031 10.16 18.4107 9.91048 18.4522C9.92182 18.6713 9.93694 18.8942 9.9445 19.1171C9.95206 19.3286 9.99364 19.544 9.91426 19.7442C9.83866 19.7555 9.82732 19.7139 9.81976 19.6611C9.76306 19.2493 9.70636 18.8376 9.64588 18.4145C9.31324 18.3049 8.97304 18.3389 8.64797 18.286C8.31911 18.2332 7.99025 18.2105 7.63871 18.1727C7.61603 18.2672 7.58957 18.3427 7.58579 18.4183C7.55933 18.9924 7.33253 19.5024 7.04903 19.9897C7.03769 20.0048 7.01123 20.0124 6.96965 20.035C6.91673 19.9633 6.93942 19.8839 6.95076 19.8084C7.00746 19.4457 7.06793 19.0793 7.12085 18.7167C7.14731 18.5165 7.15865 18.3163 7.17755 18.1009C7.03392 18.0594 6.90917 18.0292 6.792 17.9838C6.58032 17.9083 6.36108 17.8403 6.16074 17.7421C6.036 17.6816 5.9226 17.5834 5.83566 17.4739C5.69958 17.3039 5.72982 17.1037 5.90748 16.9715C5.99064 16.9072 6.0927 16.8544 6.19098 16.8317C6.44802 16.7788 6.70506 16.7448 6.96587 16.707C7.02257 16.6995 7.08306 16.6995 7.16243 16.6957C7.16621 16.6239 7.17755 16.5559 7.16999 16.4879C7.13219 16.1064 7.02257 15.7438 6.87894 15.3887C6.76932 15.1167 6.58788 14.8976 6.34974 14.7314C6.10404 14.5614 5.85456 14.4027 5.59752 14.2516C5.10235 13.9645 4.62607 13.651 4.16491 13.311C3.84739 13.0768 3.55256 12.8162 3.29174 12.5215C3.02336 12.2193 2.76254 11.9095 2.49794 11.6036C2.13884 11.188 1.77975 10.7763 1.42443 10.3608C1.32237 10.2436 1.22409 10.1265 1.13715 9.99811C0.94815 9.73368 0.95571 9.65057 1.15227 9.37481ZM12.7568 17.9801C12.7795 17.9045 12.7908 17.8705 12.7946 17.8403C12.8475 17.4172 12.8929 16.9903 12.9496 16.5673C13.0063 16.1177 13.1083 15.6795 13.2973 15.264C13.5317 14.754 13.8757 14.3385 14.3671 14.0552C14.5712 13.9381 14.7866 13.8323 14.9983 13.7265C15.3158 13.5641 15.6409 13.413 15.9471 13.2355C16.1399 13.1221 16.3213 12.9786 16.4839 12.8275C16.8732 12.4611 17.221 12.0531 17.5423 11.6225C17.7426 11.3542 17.958 11.1012 18.1773 10.8518C18.4986 10.4854 18.8312 10.1303 19.1563 9.76768C19.2395 9.67324 19.3415 9.58636 19.3529 9.43526C19.1941 9.38237 19.092 9.47303 18.99 9.54858C18.6914 9.78279 18.3965 10.0246 18.1055 10.2701C17.6783 10.6327 17.2588 10.9992 16.8354 11.3656C16.7825 11.4109 16.7258 11.4562 16.6653 11.5091C16.6955 11.5545 16.722 11.5922 16.7485 11.63C16.8845 11.8227 16.8581 12.0115 16.7296 12.1929C16.688 12.2495 16.6426 12.3062 16.5897 12.3553C16.378 12.5706 16.1361 12.7331 15.8526 12.8426C15.331 13.0428 14.8018 13.2166 14.3217 13.5112C14.1819 13.5981 14.0193 13.6472 13.8643 13.7114C13.8303 13.7265 13.785 13.7152 13.7472 13.719C13.7434 13.6812 13.7358 13.6661 13.7396 13.6585C14.0571 13.243 14.4427 12.9219 14.953 12.7633C15.2365 12.6764 15.5162 12.5706 15.7921 12.4611C16.0832 12.3477 16.344 12.1891 16.4876 11.902C16.4347 11.7962 16.3553 11.7849 16.2684 11.8076C16.0529 11.8718 15.8337 11.9322 15.622 12.0115C15.1609 12.1815 14.6884 12.2949 14.2045 12.3553C13.887 12.3968 13.5657 12.4346 13.252 12.4875C12.9647 12.5328 12.6963 12.6386 12.4771 12.8275C12.0915 13.1637 11.706 13.4999 11.3355 13.855C10.9538 14.2214 10.7232 14.6709 10.6892 15.2073C10.6816 15.3509 10.6627 15.4907 10.6627 15.6342C10.6589 16.3482 10.6551 17.0621 10.6551 17.7761C10.6551 17.8441 10.6778 17.9083 10.6892 17.9876C11.3884 17.9914 12.0651 18.0216 12.7568 17.9801ZM1.50759 9.88856C1.55673 9.95278 1.59831 10.0208 1.65123 10.085C2.11994 10.6214 2.60378 11.1503 3.05738 11.698C3.69619 12.4648 4.45597 13.0844 5.30269 13.6094C5.50302 13.7341 5.71092 13.8512 5.91504 13.9796C6.12672 14.1119 6.3384 14.2441 6.54252 14.3876C6.9054 14.6407 7.15109 14.9769 7.30985 15.3924C7.54421 16.012 7.65383 16.6504 7.65383 17.3114C7.65383 17.4512 7.63115 17.5947 7.67273 17.727C8.23217 17.8592 9.2452 17.9347 9.55894 17.8705C9.55516 17.8252 9.55894 17.7798 9.55138 17.7345C9.46066 17.1679 9.42664 16.6013 9.42664 16.0308C9.42664 15.7211 9.40018 15.4151 9.38128 15.1053C9.36616 14.8409 9.28678 14.5916 9.17338 14.3536C8.80672 13.6094 8.27753 13.039 7.47239 12.767C7.01124 12.6122 6.54252 12.4762 6.07758 12.3326C5.53326 12.1626 4.98895 11.9964 4.44463 11.8264C4.36147 11.8 4.27831 11.7358 4.16869 11.8151C4.24051 11.9435 4.35013 12.0342 4.45597 12.1286C4.80373 12.4384 5.20062 12.6802 5.61642 12.8917C5.94906 13.0579 6.25524 13.2619 6.5274 13.5112C6.63702 13.6132 6.76932 13.6925 6.89028 13.8588C6.79956 13.855 6.7542 13.8625 6.7164 13.8474C5.95662 13.5339 5.21197 13.1864 4.55425 12.6877C4.34635 12.5291 4.15357 12.3515 3.97213 12.1626C3.77557 11.9624 3.66595 11.732 3.87763 11.46C3.10274 10.8972 2.43368 10.221 1.50759 9.88856ZM5.1855 11.6678C5.14014 11.6111 5.12125 11.5809 5.09857 11.5545C4.52023 11.0067 3.94567 10.459 3.36734 9.91122C3.26528 9.81301 3.15944 9.7148 3.04226 9.63169C2.86838 9.51081 2.68316 9.39748 2.50172 9.29171C2.46014 9.26904 2.39966 9.2766 2.28248 9.26527C2.57732 9.53347 2.8268 9.75635 3.08762 9.96033C3.6206 10.3796 4.11577 10.8405 4.57315 11.3429C4.72813 11.5205 4.90201 11.6413 5.1855 11.6678ZM16.1512 11.4411C16.3629 11.4713 16.4952 11.4222 16.6162 11.3014C17.1567 10.765 17.701 10.2361 18.2453 9.69968C18.2567 9.68835 18.2567 9.66568 18.268 9.63546C18.2264 9.63924 18.1924 9.63546 18.1622 9.6468C17.8182 9.81301 17.4931 10.0132 17.2247 10.289C16.9072 10.6101 16.5973 10.9425 16.2873 11.2674C16.2457 11.3127 16.2117 11.3618 16.1512 11.4411ZM4.05151 10.0397C4.03639 10.0586 4.02127 10.0774 4.00993 10.0963C4.09309 10.1794 4.17247 10.2663 4.25563 10.3456C4.50889 10.5799 4.76215 10.8103 5.01919 11.0369C5.21575 11.2107 5.40096 11.3958 5.52948 11.6262C5.65422 11.8491 5.83566 11.9284 6.08136 11.9322C6.07002 11.8982 6.07002 11.8718 6.05868 11.8567C5.70336 11.4789 5.3556 11.0898 4.98139 10.7234C4.75459 10.5005 4.48999 10.3192 4.23673 10.1228C4.18003 10.085 4.11199 10.0661 4.05151 10.0397ZM13.2595 17.9083C13.5355 17.9083 13.7887 17.829 14.008 17.659C14.1063 17.5796 14.1025 17.4625 14.0004 17.387C13.7963 17.2434 13.5657 17.1679 13.3314 17.0923C13.2255 17.4814 13.2104 17.625 13.2595 17.9083ZM7.19645 16.9752C6.85248 17.0621 6.49716 17.0772 6.17586 17.2623C6.42534 17.4965 6.7353 17.6136 7.20023 17.6552C7.24559 17.4361 7.24559 17.217 7.19645 16.9752ZM2.9591 10.3305C2.97422 10.2965 2.98178 10.2852 2.98178 10.2814C2.61512 9.94523 2.25224 9.60147 1.87425 9.2766C1.74195 9.16327 1.57185 9.09528 1.41309 9.01595C1.37151 8.99706 1.31103 9.01973 1.23543 9.0235C1.30347 9.22749 1.36395 9.38614 1.55295 9.4617C1.99898 9.63546 2.38832 9.91122 2.7701 10.1945C2.8268 10.2436 2.89106 10.2852 2.9591 10.3305ZM16.567 10.527C16.0567 10.7347 15.4973 11.29 15.2478 11.7358C15.4973 11.7244 15.6938 11.6565 15.811 11.5091C16.0643 11.188 16.3138 10.8556 16.567 10.527ZM14.4956 11.9511C14.6544 11.9473 14.764 11.9209 14.8509 11.8264C15.0399 11.6187 15.2024 11.3958 15.3461 11.1314C15.0588 11.2371 14.8358 11.4525 14.4956 11.9511ZM3.85873 11.1843C3.87763 11.1691 3.89653 11.1503 3.91921 11.1351C3.69997 10.8972 3.4694 10.6743 3.21992 10.4665C3.1859 10.4401 3.15188 10.4023 3.09518 10.4627C3.34844 10.7045 3.6017 10.9463 3.85873 11.1843Z"/>
</mask>
<path d="M1.15227 9.37481C1.11447 9.28793 1.06911 9.20482 1.04265 9.11416C0.98595 8.93284 1.10313 8.76285 1.29591 8.77796C1.43577 8.78929 1.57563 8.83462 1.70415 8.89129C1.844 8.95173 1.97253 9.04239 2.10483 9.11794C2.42234 9.02728 2.48282 9.01972 2.78522 9.1746C3.00446 9.28793 3.21236 9.43525 3.41648 9.57502C3.52231 9.6468 3.61681 9.74124 3.73021 9.83567C3.97969 9.74501 4.21027 9.82812 4.42951 9.96033C4.72813 10.1379 5.00785 10.3381 5.24977 10.5874C5.59374 10.9349 5.93016 11.2863 6.27036 11.6376C6.32706 11.698 6.3951 11.7584 6.42156 11.834C6.50472 12.072 6.6975 12.1324 6.9054 12.2042C7.20779 12.3062 7.51019 12.4195 7.80503 12.548C8.92012 13.039 9.69502 14.1987 9.72904 15.4151C9.7366 15.7022 9.7366 15.9855 9.72904 16.2726C9.7177 16.7637 9.7744 17.2472 9.82354 17.7307C9.82732 17.7874 9.85 17.8441 9.86512 17.9121C10.0277 17.9838 10.1902 17.9725 10.3716 17.9574C10.3792 17.8516 10.3943 17.761 10.3905 17.6703C10.3754 17.1226 10.3452 16.5748 10.3376 16.0308C10.3338 15.6984 10.3452 15.366 10.3679 15.0336C10.3905 14.6558 10.5304 14.3196 10.7421 14.0061C10.9197 13.7492 11.1352 13.5301 11.3695 13.3261C11.6115 13.1146 11.8609 12.9106 12.0953 12.6915C12.4393 12.3742 12.8475 12.2004 13.3049 12.1286C13.5166 12.0984 13.7283 12.0644 13.9437 12.0531C14.1176 12.0455 14.2348 11.9738 14.3255 11.834C14.4087 11.7056 14.4956 11.5733 14.5939 11.4562C14.7224 11.3014 14.8547 11.1465 14.9945 11.0029C15.1646 10.8329 15.3763 10.7196 15.6145 10.6705C15.7694 10.6365 15.9017 10.5761 16.0189 10.4665C16.2986 10.2172 16.6162 10.0359 16.9828 9.94523C17.1113 9.91123 17.221 9.84323 17.3268 9.76768C17.5196 9.62791 17.7199 9.49947 17.924 9.37481C18.1433 9.2426 18.3814 9.17082 18.6384 9.2086C18.7632 9.22749 18.869 9.2086 18.9786 9.14061C19.1034 9.06506 19.2432 9.03484 19.3907 9.04617C19.6061 9.06128 19.746 9.21238 19.7271 9.42392C19.7157 9.52592 19.6817 9.63547 19.6288 9.72613C19.5645 9.83945 19.4738 9.93767 19.3907 10.0359C19.179 10.2776 18.9673 10.5194 18.7518 10.7574C18.3285 11.2258 17.9505 11.7282 17.5536 12.2193C17.2777 12.5631 16.9639 12.8728 16.6502 13.1826C16.5179 13.3148 16.3553 13.4243 16.189 13.5188C15.8564 13.7039 15.5162 13.8701 15.176 14.0476C14.9643 14.1572 14.7526 14.263 14.5485 14.3838C14.2008 14.5878 13.9437 14.8825 13.7623 15.2413C13.5468 15.6606 13.4334 16.1064 13.3767 16.571C13.3729 16.605 13.3843 16.639 13.3956 16.6919C13.6224 16.6957 13.8417 16.7486 14.0458 16.843C14.1441 16.8883 14.2423 16.9337 14.3255 16.9979C14.6619 17.2472 14.7035 17.6854 14.4238 17.9989C14.2839 18.1538 14.11 18.2558 13.9135 18.32C13.732 18.3805 13.5468 18.4183 13.3616 18.4636C13.3049 18.4787 13.2482 18.49 13.1802 18.5014C13.1235 18.7507 13.1461 19.0038 13.131 19.2493C13.1121 19.4911 13.1272 19.7366 13.0932 20.0539C12.942 19.8424 12.9496 19.6724 12.9118 19.5175C12.874 19.3664 12.8437 19.2153 12.8211 19.0642C12.7946 18.9018 12.7757 18.7356 12.753 18.5656C12.5149 18.4976 12.2919 18.5429 12.0688 18.5278C11.8307 18.5127 11.5926 18.5014 11.3544 18.4976C11.1276 18.4938 10.9046 18.4976 10.6627 18.4976C10.5417 18.7129 10.6136 19.0038 10.4283 19.2342C10.3641 19.1662 10.3905 19.0982 10.3905 19.0415C10.3943 18.9811 10.4057 18.9244 10.4094 18.864C10.4132 18.7922 10.4208 18.7205 10.417 18.6487C10.4132 18.592 10.4019 18.5354 10.3943 18.4863C10.1637 18.4031 10.16 18.4107 9.91048 18.4522C9.92182 18.6713 9.93694 18.8942 9.9445 19.1171C9.95206 19.3286 9.99364 19.544 9.91426 19.7442C9.83866 19.7555 9.82732 19.7139 9.81976 19.6611C9.76306 19.2493 9.70636 18.8376 9.64588 18.4145C9.31324 18.3049 8.97304 18.3389 8.64797 18.286C8.31911 18.2332 7.99025 18.2105 7.63871 18.1727C7.61603 18.2672 7.58957 18.3427 7.58579 18.4183C7.55933 18.9924 7.33253 19.5024 7.04903 19.9897C7.03769 20.0048 7.01123 20.0124 6.96965 20.035C6.91673 19.9633 6.93942 19.8839 6.95076 19.8084C7.00746 19.4457 7.06793 19.0793 7.12085 18.7167C7.14731 18.5165 7.15865 18.3163 7.17755 18.1009C7.03392 18.0594 6.90917 18.0292 6.792 17.9838C6.58032 17.9083 6.36108 17.8403 6.16074 17.7421C6.036 17.6816 5.9226 17.5834 5.83566 17.4739C5.69958 17.3039 5.72982 17.1037 5.90748 16.9715C5.99064 16.9072 6.0927 16.8544 6.19098 16.8317C6.44802 16.7788 6.70506 16.7448 6.96587 16.707C7.02257 16.6995 7.08306 16.6995 7.16243 16.6957C7.16621 16.6239 7.17755 16.5559 7.16999 16.4879C7.13219 16.1064 7.02257 15.7438 6.87894 15.3887C6.76932 15.1167 6.58788 14.8976 6.34974 14.7314C6.10404 14.5614 5.85456 14.4027 5.59752 14.2516C5.10235 13.9645 4.62607 13.651 4.16491 13.311C3.84739 13.0768 3.55256 12.8162 3.29174 12.5215C3.02336 12.2193 2.76254 11.9095 2.49794 11.6036C2.13884 11.188 1.77975 10.7763 1.42443 10.3608C1.32237 10.2436 1.22409 10.1265 1.13715 9.99811C0.94815 9.73368 0.95571 9.65057 1.15227 9.37481ZM12.7568 17.9801C12.7795 17.9045 12.7908 17.8705 12.7946 17.8403C12.8475 17.4172 12.8929 16.9903 12.9496 16.5673C13.0063 16.1177 13.1083 15.6795 13.2973 15.264C13.5317 14.754 13.8757 14.3385 14.3671 14.0552C14.5712 13.9381 14.7866 13.8323 14.9983 13.7265C15.3158 13.5641 15.6409 13.413 15.9471 13.2355C16.1399 13.1221 16.3213 12.9786 16.4839 12.8275C16.8732 12.4611 17.221 12.0531 17.5423 11.6225C17.7426 11.3542 17.958 11.1012 18.1773 10.8518C18.4986 10.4854 18.8312 10.1303 19.1563 9.76768C19.2395 9.67324 19.3415 9.58636 19.3529 9.43526C19.1941 9.38237 19.092 9.47303 18.99 9.54858C18.6914 9.78279 18.3965 10.0246 18.1055 10.2701C17.6783 10.6327 17.2588 10.9992 16.8354 11.3656C16.7825 11.4109 16.7258 11.4562 16.6653 11.5091C16.6955 11.5545 16.722 11.5922 16.7485 11.63C16.8845 11.8227 16.8581 12.0115 16.7296 12.1929C16.688 12.2495 16.6426 12.3062 16.5897 12.3553C16.378 12.5706 16.1361 12.7331 15.8526 12.8426C15.331 13.0428 14.8018 13.2166 14.3217 13.5112C14.1819 13.5981 14.0193 13.6472 13.8643 13.7114C13.8303 13.7265 13.785 13.7152 13.7472 13.719C13.7434 13.6812 13.7358 13.6661 13.7396 13.6585C14.0571 13.243 14.4427 12.9219 14.953 12.7633C15.2365 12.6764 15.5162 12.5706 15.7921 12.4611C16.0832 12.3477 16.344 12.1891 16.4876 11.902C16.4347 11.7962 16.3553 11.7849 16.2684 11.8076C16.0529 11.8718 15.8337 11.9322 15.622 12.0115C15.1609 12.1815 14.6884 12.2949 14.2045 12.3553C13.887 12.3968 13.5657 12.4346 13.252 12.4875C12.9647 12.5328 12.6963 12.6386 12.4771 12.8275C12.0915 13.1637 11.706 13.4999 11.3355 13.855C10.9538 14.2214 10.7232 14.6709 10.6892 15.2073C10.6816 15.3509 10.6627 15.4907 10.6627 15.6342C10.6589 16.3482 10.6551 17.0621 10.6551 17.7761C10.6551 17.8441 10.6778 17.9083 10.6892 17.9876C11.3884 17.9914 12.0651 18.0216 12.7568 17.9801ZM1.50759 9.88856C1.55673 9.95278 1.59831 10.0208 1.65123 10.085C2.11994 10.6214 2.60378 11.1503 3.05738 11.698C3.69619 12.4648 4.45597 13.0844 5.30269 13.6094C5.50302 13.7341 5.71092 13.8512 5.91504 13.9796C6.12672 14.1119 6.3384 14.2441 6.54252 14.3876C6.9054 14.6407 7.15109 14.9769 7.30985 15.3924C7.54421 16.012 7.65383 16.6504 7.65383 17.3114C7.65383 17.4512 7.63115 17.5947 7.67273 17.727C8.23217 17.8592 9.2452 17.9347 9.55894 17.8705C9.55516 17.8252 9.55894 17.7798 9.55138 17.7345C9.46066 17.1679 9.42664 16.6013 9.42664 16.0308C9.42664 15.7211 9.40018 15.4151 9.38128 15.1053C9.36616 14.8409 9.28678 14.5916 9.17338 14.3536C8.80672 13.6094 8.27753 13.039 7.47239 12.767C7.01124 12.6122 6.54252 12.4762 6.07758 12.3326C5.53326 12.1626 4.98895 11.9964 4.44463 11.8264C4.36147 11.8 4.27831 11.7358 4.16869 11.8151C4.24051 11.9435 4.35013 12.0342 4.45597 12.1286C4.80373 12.4384 5.20062 12.6802 5.61642 12.8917C5.94906 13.0579 6.25524 13.2619 6.5274 13.5112C6.63702 13.6132 6.76932 13.6925 6.89028 13.8588C6.79956 13.855 6.7542 13.8625 6.7164 13.8474C5.95662 13.5339 5.21197 13.1864 4.55425 12.6877C4.34635 12.5291 4.15357 12.3515 3.97213 12.1626C3.77557 11.9624 3.66595 11.732 3.87763 11.46C3.10274 10.8972 2.43368 10.221 1.50759 9.88856ZM5.1855 11.6678C5.14014 11.6111 5.12125 11.5809 5.09857 11.5545C4.52023 11.0067 3.94567 10.459 3.36734 9.91122C3.26528 9.81301 3.15944 9.7148 3.04226 9.63169C2.86838 9.51081 2.68316 9.39748 2.50172 9.29171C2.46014 9.26904 2.39966 9.2766 2.28248 9.26527C2.57732 9.53347 2.8268 9.75635 3.08762 9.96033C3.6206 10.3796 4.11577 10.8405 4.57315 11.3429C4.72813 11.5205 4.90201 11.6413 5.1855 11.6678ZM16.1512 11.4411C16.3629 11.4713 16.4952 11.4222 16.6162 11.3014C17.1567 10.765 17.701 10.2361 18.2453 9.69968C18.2567 9.68835 18.2567 9.66568 18.268 9.63546C18.2264 9.63924 18.1924 9.63546 18.1622 9.6468C17.8182 9.81301 17.4931 10.0132 17.2247 10.289C16.9072 10.6101 16.5973 10.9425 16.2873 11.2674C16.2457 11.3127 16.2117 11.3618 16.1512 11.4411ZM4.05151 10.0397C4.03639 10.0586 4.02127 10.0774 4.00993 10.0963C4.09309 10.1794 4.17247 10.2663 4.25563 10.3456C4.50889 10.5799 4.76215 10.8103 5.01919 11.0369C5.21575 11.2107 5.40096 11.3958 5.52948 11.6262C5.65422 11.8491 5.83566 11.9284 6.08136 11.9322C6.07002 11.8982 6.07002 11.8718 6.05868 11.8567C5.70336 11.4789 5.3556 11.0898 4.98139 10.7234C4.75459 10.5005 4.48999 10.3192 4.23673 10.1228C4.18003 10.085 4.11199 10.0661 4.05151 10.0397ZM13.2595 17.9083C13.5355 17.9083 13.7887 17.829 14.008 17.659C14.1063 17.5796 14.1025 17.4625 14.0004 17.387C13.7963 17.2434 13.5657 17.1679 13.3314 17.0923C13.2255 17.4814 13.2104 17.625 13.2595 17.9083ZM7.19645 16.9752C6.85248 17.0621 6.49716 17.0772 6.17586 17.2623C6.42534 17.4965 6.7353 17.6136 7.20023 17.6552C7.24559 17.4361 7.24559 17.217 7.19645 16.9752ZM2.9591 10.3305C2.97422 10.2965 2.98178 10.2852 2.98178 10.2814C2.61512 9.94523 2.25224 9.60147 1.87425 9.2766C1.74195 9.16327 1.57185 9.09528 1.41309 9.01595C1.37151 8.99706 1.31103 9.01973 1.23543 9.0235C1.30347 9.22749 1.36395 9.38614 1.55295 9.4617C1.99898 9.63546 2.38832 9.91122 2.7701 10.1945C2.8268 10.2436 2.89106 10.2852 2.9591 10.3305ZM16.567 10.527C16.0567 10.7347 15.4973 11.29 15.2478 11.7358C15.4973 11.7244 15.6938 11.6565 15.811 11.5091C16.0643 11.188 16.3138 10.8556 16.567 10.527ZM14.4956 11.9511C14.6544 11.9473 14.764 11.9209 14.8509 11.8264C15.0399 11.6187 15.2024 11.3958 15.3461 11.1314C15.0588 11.2371 14.8358 11.4525 14.4956 11.9511ZM3.85873 11.1843C3.87763 11.1691 3.89653 11.1503 3.91921 11.1351C3.69997 10.8972 3.4694 10.6743 3.21992 10.4665C3.1859 10.4401 3.15188 10.4023 3.09518 10.4627C3.34844 10.7045 3.6017 10.9463 3.85873 11.1843Z" fill="#020304"/>
<path d="M1.15227 9.37481C1.11447 9.28793 1.06911 9.20482 1.04265 9.11416C0.98595 8.93284 1.10313 8.76285 1.29591 8.77796C1.43577 8.78929 1.57563 8.83462 1.70415 8.89129C1.844 8.95173 1.97253 9.04239 2.10483 9.11794C2.42234 9.02728 2.48282 9.01972 2.78522 9.1746C3.00446 9.28793 3.21236 9.43525 3.41648 9.57502C3.52231 9.6468 3.61681 9.74124 3.73021 9.83567C3.97969 9.74501 4.21027 9.82812 4.42951 9.96033C4.72813 10.1379 5.00785 10.3381 5.24977 10.5874C5.59374 10.9349 5.93016 11.2863 6.27036 11.6376C6.32706 11.698 6.3951 11.7584 6.42156 11.834C6.50472 12.072 6.6975 12.1324 6.9054 12.2042C7.20779 12.3062 7.51019 12.4195 7.80503 12.548C8.92012 13.039 9.69502 14.1987 9.72904 15.4151C9.7366 15.7022 9.7366 15.9855 9.72904 16.2726C9.7177 16.7637 9.7744 17.2472 9.82354 17.7307C9.82732 17.7874 9.85 17.8441 9.86512 17.9121C10.0277 17.9838 10.1902 17.9725 10.3716 17.9574C10.3792 17.8516 10.3943 17.761 10.3905 17.6703C10.3754 17.1226 10.3452 16.5748 10.3376 16.0308C10.3338 15.6984 10.3452 15.366 10.3679 15.0336C10.3905 14.6558 10.5304 14.3196 10.7421 14.0061C10.9197 13.7492 11.1352 13.5301 11.3695 13.3261C11.6115 13.1146 11.8609 12.9106 12.0953 12.6915C12.4393 12.3742 12.8475 12.2004 13.3049 12.1286C13.5166 12.0984 13.7283 12.0644 13.9437 12.0531C14.1176 12.0455 14.2348 11.9738 14.3255 11.834C14.4087 11.7056 14.4956 11.5733 14.5939 11.4562C14.7224 11.3014 14.8547 11.1465 14.9945 11.0029C15.1646 10.8329 15.3763 10.7196 15.6145 10.6705C15.7694 10.6365 15.9017 10.5761 16.0189 10.4665C16.2986 10.2172 16.6162 10.0359 16.9828 9.94523C17.1113 9.91123 17.221 9.84323 17.3268 9.76768C17.5196 9.62791 17.7199 9.49947 17.924 9.37481C18.1433 9.2426 18.3814 9.17082 18.6384 9.2086C18.7632 9.22749 18.869 9.2086 18.9786 9.14061C19.1034 9.06506 19.2432 9.03484 19.3907 9.04617C19.6061 9.06128 19.746 9.21238 19.7271 9.42392C19.7157 9.52592 19.6817 9.63547 19.6288 9.72613C19.5645 9.83945 19.4738 9.93767 19.3907 10.0359C19.179 10.2776 18.9673 10.5194 18.7518 10.7574C18.3285 11.2258 17.9505 11.7282 17.5536 12.2193C17.2777 12.5631 16.9639 12.8728 16.6502 13.1826C16.5179 13.3148 16.3553 13.4243 16.189 13.5188C15.8564 13.7039 15.5162 13.8701 15.176 14.0476C14.9643 14.1572 14.7526 14.263 14.5485 14.3838C14.2008 14.5878 13.9437 14.8825 13.7623 15.2413C13.5468 15.6606 13.4334 16.1064 13.3767 16.571C13.3729 16.605 13.3843 16.639 13.3956 16.6919C13.6224 16.6957 13.8417 16.7486 14.0458 16.843C14.1441 16.8883 14.2423 16.9337 14.3255 16.9979C14.6619 17.2472 14.7035 17.6854 14.4238 17.9989C14.2839 18.1538 14.11 18.2558 13.9135 18.32C13.732 18.3805 13.5468 18.4183 13.3616 18.4636C13.3049 18.4787 13.2482 18.49 13.1802 18.5014C13.1235 18.7507 13.1461 19.0038 13.131 19.2493C13.1121 19.4911 13.1272 19.7366 13.0932 20.0539C12.942 19.8424 12.9496 19.6724 12.9118 19.5175C12.874 19.3664 12.8437 19.2153 12.8211 19.0642C12.7946 18.9018 12.7757 18.7356 12.753 18.5656C12.5149 18.4976 12.2919 18.5429 12.0688 18.5278C11.8307 18.5127 11.5926 18.5014 11.3544 18.4976C11.1276 18.4938 10.9046 18.4976 10.6627 18.4976C10.5417 18.7129 10.6136 19.0038 10.4283 19.2342C10.3641 19.1662 10.3905 19.0982 10.3905 19.0415C10.3943 18.9811 10.4057 18.9244 10.4094 18.864C10.4132 18.7922 10.4208 18.7205 10.417 18.6487C10.4132 18.592 10.4019 18.5354 10.3943 18.4863C10.1637 18.4031 10.16 18.4107 9.91048 18.4522C9.92182 18.6713 9.93694 18.8942 9.9445 19.1171C9.95206 19.3286 9.99364 19.544 9.91426 19.7442C9.83866 19.7555 9.82732 19.7139 9.81976 19.6611C9.76306 19.2493 9.70636 18.8376 9.64588 18.4145C9.31324 18.3049 8.97304 18.3389 8.64797 18.286C8.31911 18.2332 7.99025 18.2105 7.63871 18.1727C7.61603 18.2672 7.58957 18.3427 7.58579 18.4183C7.55933 18.9924 7.33253 19.5024 7.04903 19.9897C7.03769 20.0048 7.01123 20.0124 6.96965 20.035C6.91673 19.9633 6.93942 19.8839 6.95076 19.8084C7.00746 19.4457 7.06793 19.0793 7.12085 18.7167C7.14731 18.5165 7.15865 18.3163 7.17755 18.1009C7.03392 18.0594 6.90917 18.0292 6.792 17.9838C6.58032 17.9083 6.36108 17.8403 6.16074 17.7421C6.036 17.6816 5.9226 17.5834 5.83566 17.4739C5.69958 17.3039 5.72982 17.1037 5.90748 16.9715C5.99064 16.9072 6.0927 16.8544 6.19098 16.8317C6.44802 16.7788 6.70506 16.7448 6.96587 16.707C7.02257 16.6995 7.08306 16.6995 7.16243 16.6957C7.16621 16.6239 7.17755 16.5559 7.16999 16.4879C7.13219 16.1064 7.02257 15.7438 6.87894 15.3887C6.76932 15.1167 6.58788 14.8976 6.34974 14.7314C6.10404 14.5614 5.85456 14.4027 5.59752 14.2516C5.10235 13.9645 4.62607 13.651 4.16491 13.311C3.84739 13.0768 3.55256 12.8162 3.29174 12.5215C3.02336 12.2193 2.76254 11.9095 2.49794 11.6036C2.13884 11.188 1.77975 10.7763 1.42443 10.3608C1.32237 10.2436 1.22409 10.1265 1.13715 9.99811C0.94815 9.73368 0.95571 9.65057 1.15227 9.37481ZM12.7568 17.9801C12.7795 17.9045 12.7908 17.8705 12.7946 17.8403C12.8475 17.4172 12.8929 16.9903 12.9496 16.5673C13.0063 16.1177 13.1083 15.6795 13.2973 15.264C13.5317 14.754 13.8757 14.3385 14.3671 14.0552C14.5712 13.9381 14.7866 13.8323 14.9983 13.7265C15.3158 13.5641 15.6409 13.413 15.9471 13.2355C16.1399 13.1221 16.3213 12.9786 16.4839 12.8275C16.8732 12.4611 17.221 12.0531 17.5423 11.6225C17.7426 11.3542 17.958 11.1012 18.1773 10.8518C18.4986 10.4854 18.8312 10.1303 19.1563 9.76768C19.2395 9.67324 19.3415 9.58636 19.3529 9.43526C19.1941 9.38237 19.092 9.47303 18.99 9.54858C18.6914 9.78279 18.3965 10.0246 18.1055 10.2701C17.6783 10.6327 17.2588 10.9992 16.8354 11.3656C16.7825 11.4109 16.7258 11.4562 16.6653 11.5091C16.6955 11.5545 16.722 11.5922 16.7485 11.63C16.8845 11.8227 16.8581 12.0115 16.7296 12.1929C16.688 12.2495 16.6426 12.3062 16.5897 12.3553C16.378 12.5706 16.1361 12.7331 15.8526 12.8426C15.331 13.0428 14.8018 13.2166 14.3217 13.5112C14.1819 13.5981 14.0193 13.6472 13.8643 13.7114C13.8303 13.7265 13.785 13.7152 13.7472 13.719C13.7434 13.6812 13.7358 13.6661 13.7396 13.6585C14.0571 13.243 14.4427 12.9219 14.953 12.7633C15.2365 12.6764 15.5162 12.5706 15.7921 12.4611C16.0832 12.3477 16.344 12.1891 16.4876 11.902C16.4347 11.7962 16.3553 11.7849 16.2684 11.8076C16.0529 11.8718 15.8337 11.9322 15.622 12.0115C15.1609 12.1815 14.6884 12.2949 14.2045 12.3553C13.887 12.3968 13.5657 12.4346 13.252 12.4875C12.9647 12.5328 12.6963 12.6386 12.4771 12.8275C12.0915 13.1637 11.706 13.4999 11.3355 13.855C10.9538 14.2214 10.7232 14.6709 10.6892 15.2073C10.6816 15.3509 10.6627 15.4907 10.6627 15.6342C10.6589 16.3482 10.6551 17.0621 10.6551 17.7761C10.6551 17.8441 10.6778 17.9083 10.6892 17.9876C11.3884 17.9914 12.0651 18.0216 12.7568 17.9801ZM1.50759 9.88856C1.55673 9.95278 1.59831 10.0208 1.65123 10.085C2.11994 10.6214 2.60378 11.1503 3.05738 11.698C3.69619 12.4648 4.45597 13.0844 5.30269 13.6094C5.50302 13.7341 5.71092 13.8512 5.91504 13.9796C6.12672 14.1119 6.3384 14.2441 6.54252 14.3876C6.9054 14.6407 7.15109 14.9769 7.30985 15.3924C7.54421 16.012 7.65383 16.6504 7.65383 17.3114C7.65383 17.4512 7.63115 17.5947 7.67273 17.727C8.23217 17.8592 9.2452 17.9347 9.55894 17.8705C9.55516 17.8252 9.55894 17.7798 9.55138 17.7345C9.46066 17.1679 9.42664 16.6013 9.42664 16.0308C9.42664 15.7211 9.40018 15.4151 9.38128 15.1053C9.36616 14.8409 9.28678 14.5916 9.17338 14.3536C8.80672 13.6094 8.27753 13.039 7.47239 12.767C7.01124 12.6122 6.54252 12.4762 6.07758 12.3326C5.53326 12.1626 4.98895 11.9964 4.44463 11.8264C4.36147 11.8 4.27831 11.7358 4.16869 11.8151C4.24051 11.9435 4.35013 12.0342 4.45597 12.1286C4.80373 12.4384 5.20062 12.6802 5.61642 12.8917C5.94906 13.0579 6.25524 13.2619 6.5274 13.5112C6.63702 13.6132 6.76932 13.6925 6.89028 13.8588C6.79956 13.855 6.7542 13.8625 6.7164 13.8474C5.95662 13.5339 5.21197 13.1864 4.55425 12.6877C4.34635 12.5291 4.15357 12.3515 3.97213 12.1626C3.77557 11.9624 3.66595 11.732 3.87763 11.46C3.10274 10.8972 2.43368 10.221 1.50759 9.88856ZM5.1855 11.6678C5.14014 11.6111 5.12125 11.5809 5.09857 11.5545C4.52023 11.0067 3.94567 10.459 3.36734 9.91122C3.26528 9.81301 3.15944 9.7148 3.04226 9.63169C2.86838 9.51081 2.68316 9.39748 2.50172 9.29171C2.46014 9.26904 2.39966 9.2766 2.28248 9.26527C2.57732 9.53347 2.8268 9.75635 3.08762 9.96033C3.6206 10.3796 4.11577 10.8405 4.57315 11.3429C4.72813 11.5205 4.90201 11.6413 5.1855 11.6678ZM16.1512 11.4411C16.3629 11.4713 16.4952 11.4222 16.6162 11.3014C17.1567 10.765 17.701 10.2361 18.2453 9.69968C18.2567 9.68835 18.2567 9.66568 18.268 9.63546C18.2264 9.63924 18.1924 9.63546 18.1622 9.6468C17.8182 9.81301 17.4931 10.0132 17.2247 10.289C16.9072 10.6101 16.5973 10.9425 16.2873 11.2674C16.2457 11.3127 16.2117 11.3618 16.1512 11.4411ZM4.05151 10.0397C4.03639 10.0586 4.02127 10.0774 4.00993 10.0963C4.09309 10.1794 4.17247 10.2663 4.25563 10.3456C4.50889 10.5799 4.76215 10.8103 5.01919 11.0369C5.21575 11.2107 5.40096 11.3958 5.52948 11.6262C5.65422 11.8491 5.83566 11.9284 6.08136 11.9322C6.07002 11.8982 6.07002 11.8718 6.05868 11.8567C5.70336 11.4789 5.3556 11.0898 4.98139 10.7234C4.75459 10.5005 4.48999 10.3192 4.23673 10.1228C4.18003 10.085 4.11199 10.0661 4.05151 10.0397ZM13.2595 17.9083C13.5355 17.9083 13.7887 17.829 14.008 17.659C14.1063 17.5796 14.1025 17.4625 14.0004 17.387C13.7963 17.2434 13.5657 17.1679 13.3314 17.0923C13.2255 17.4814 13.2104 17.625 13.2595 17.9083ZM7.19645 16.9752C6.85248 17.0621 6.49716 17.0772 6.17586 17.2623C6.42534 17.4965 6.7353 17.6136 7.20023 17.6552C7.24559 17.4361 7.24559 17.217 7.19645 16.9752ZM2.9591 10.3305C2.97422 10.2965 2.98178 10.2852 2.98178 10.2814C2.61512 9.94523 2.25224 9.60147 1.87425 9.2766C1.74195 9.16327 1.57185 9.09528 1.41309 9.01595C1.37151 8.99706 1.31103 9.01973 1.23543 9.0235C1.30347 9.22749 1.36395 9.38614 1.55295 9.4617C1.99898 9.63546 2.38832 9.91122 2.7701 10.1945C2.8268 10.2436 2.89106 10.2852 2.9591 10.3305ZM16.567 10.527C16.0567 10.7347 15.4973 11.29 15.2478 11.7358C15.4973 11.7244 15.6938 11.6565 15.811 11.5091C16.0643 11.188 16.3138 10.8556 16.567 10.527ZM14.4956 11.9511C14.6544 11.9473 14.764 11.9209 14.8509 11.8264C15.0399 11.6187 15.2024 11.3958 15.3461 11.1314C15.0588 11.2371 14.8358 11.4525 14.4956 11.9511ZM3.85873 11.1843C3.87763 11.1691 3.89653 11.1503 3.91921 11.1351C3.69997 10.8972 3.4694 10.6743 3.21992 10.4665C3.1859 10.4401 3.15188 10.4023 3.09518 10.4627C3.34844 10.7045 3.6017 10.9463 3.85873 11.1843Z" stroke="black" stroke-width="0.2" mask="url(#path-1-outside-1_2_5185)"/>
<path d="M10.4178 5.28285L10.4179 5.28285C12.4145 5.31732 13.96 6.89601 13.937 8.88809L13.937 8.88821C13.9102 10.8316 12.3145 12.3602 10.3447 12.3297C8.48521 12.3257 6.81723 10.8199 6.84406 8.74711L10.4178 5.28285ZM10.4178 5.28285C8.62428 5.25221 6.87091 6.62736 6.84406 8.7471L10.4178 5.28285ZM10.1108 11.8378L10.1137 11.7879C9.43912 11.749 8.77886 11.43 8.27999 10.964C7.78767 10.5042 7.45694 9.90544 7.42157 9.29929C7.43513 9.29119 7.44808 9.29032 7.4618 9.29247C7.48512 9.29613 7.50981 9.30863 7.53959 9.3245L7.54005 9.32474C7.72791 9.42237 7.91225 9.52763 8.09707 9.63694C8.16737 9.67857 8.23801 9.72284 8.30934 9.76753C8.44049 9.84971 8.57395 9.93333 8.71184 10.0047C9.39193 10.3618 10.1107 10.4421 10.8582 10.285L10.8582 10.285C11.2751 10.1971 11.6648 10.0519 12.0426 9.85747L12.0427 9.85742C12.3613 9.69259 12.6853 9.56261 13.0341 9.49957L13.0345 9.49948C13.0706 9.49262 13.1074 9.4899 13.1502 9.48804C13.1624 9.48751 13.1753 9.48705 13.1887 9.48657C13.203 9.48605 13.2179 9.48551 13.2335 9.48484C12.9743 10.8718 11.6075 11.8722 10.1136 11.7879L10.1108 11.8378ZM10.1108 11.8378C8.7349 11.7584 7.42703 10.5383 7.37033 9.2766L10.1108 11.8378ZM13.3616 8.71375L13.3607 8.66375C13.3456 8.66401 13.3308 8.66384 13.3162 8.66327C13.315 8.67838 13.3135 8.69338 13.3119 8.70827L13.3616 8.71375ZM12.8421 8.48387C12.7667 8.43069 12.6952 8.37715 12.6234 8.32335C12.5726 8.28529 12.5216 8.2471 12.4689 8.20883C11.7195 7.65202 10.8745 7.4995 9.96908 7.60258L9.96892 7.6026C9.54391 7.65234 9.14479 7.76728 8.76458 7.96685L8.76447 7.96691C8.50079 8.10619 8.23695 8.23427 7.96866 8.36266L7.96866 8.36266L7.96824 8.36287C7.78139 8.45447 7.60064 8.5343 7.40192 8.53624C7.38864 8.27619 7.45323 7.9688 7.57915 7.66079C7.71215 7.33547 7.91218 7.01294 8.15547 6.74938L12.8421 8.48387ZM11.3431 9.17838V9.22838C11.3433 9.22838 11.3435 9.22838 11.3437 9.22838C11.344 9.22838 11.3442 9.22837 11.3444 9.22837L11.3431 9.17838ZM10.3376 8.24622C10.6942 8.24622 10.979 8.5396 10.9756 8.90566C10.9684 9.25625 10.6919 9.52881 10.3414 9.52881C9.98017 9.52881 9.69641 9.23837 9.70343 8.87716C9.71047 8.53344 9.99893 8.24622 10.3376 8.24622Z" fill="#020304" stroke="black" stroke-width="0.1"/>
<path d="M7.54981 6.27152L7.49093 6.26662C7.48076 6.26577 7.47084 6.26533 7.46054 6.26492L7.45765 6.2648C7.44852 6.26444 7.43871 6.26406 7.42935 6.26334C7.40943 6.26181 7.38437 6.25844 7.36129 6.24546C7.36108 6.24534 7.36087 6.24522 7.36066 6.2451L7.38546 6.20168C7.09062 6.04302 6.79956 5.88059 6.55764 5.64638L7.54981 6.27152ZM7.54981 6.27152L7.5449 6.21263C7.5438 6.19937 7.54382 6.18839 7.54384 6.17617C7.54385 6.16889 7.54387 6.16117 7.54364 6.15227C7.54318 6.1339 7.54177 6.10414 7.52533 6.07949L7.52542 6.07944L7.52344 6.07686C7.46826 6.00474 7.4144 5.9296 7.36009 5.85383C7.22541 5.66595 7.08801 5.47427 6.92107 5.31561C6.38657 4.80419 5.81728 4.32998 5.1943 3.92374C5.08597 3.85031 4.96667 3.785 4.84818 3.7277L4.84821 3.72763L4.84563 3.72656C4.84363 3.72572 4.84031 3.72425 4.83629 3.72247C4.82773 3.71867 4.81602 3.71347 4.80731 3.71014C4.79195 3.70427 4.77195 3.69808 4.74978 3.6977C4.72638 3.6973 4.70169 3.70341 4.67883 3.72019C4.65682 3.73633 4.63967 3.76001 4.62604 3.78953L4.61188 3.82019L4.63503 3.84477C4.65781 3.86896 4.67988 3.89464 4.70313 3.92168C4.70978 3.92941 4.71652 3.93726 4.7234 3.94521C4.75378 3.98031 4.78626 4.01677 4.82212 4.05064C5.38908 4.59835 5.95604 5.14228 6.523 5.68244L7.54981 6.27152Z" fill="#020304" stroke="black" stroke-width="0.1"/>
<path d="M10.039 3.78405L9.98906 3.7817C9.97348 4.11248 10.044 4.42616 10.2085 4.80864L10.2566 4.92029L10.301 4.80715C10.4191 4.50647 10.4817 4.27391 10.4896 4.02432C10.5388 3.20462 10.573 2.38541 10.4894 1.56159L10.4397 1.56663M10.039 3.78405L9.98905 3.78178C9.99443 3.66361 9.9992 3.54521 10.004 3.42666C10.0159 3.12955 10.028 2.83149 10.0496 2.53383L10.0496 2.53369C10.0723 2.23348 10.1018 1.9328 10.1313 1.63277C10.146 1.48306 10.1606 1.33352 10.1744 1.18427L10.1745 1.18335L10.1745 1.18335C10.1754 1.17592 10.1759 1.16817 10.1766 1.15949C10.1766 1.15869 10.1767 1.15789 10.1767 1.15708C10.1773 1.1493 10.1779 1.14072 10.1788 1.13214C10.1806 1.11315 10.1839 1.09125 10.1918 1.06911C10.2089 1.02123 10.2447 0.98121 10.311 0.953795L10.3577 0.934469L10.3765 0.98142C10.3808 0.992266 10.3857 1.00156 10.3917 1.01291C10.3947 1.01871 10.398 1.02505 10.4017 1.0324C10.411 1.051 10.4218 1.07501 10.425 1.10255C10.4514 1.25403 10.4742 1.40959 10.4894 1.56165L10.4397 1.56663M10.039 3.78405C10.0444 3.66532 10.0492 3.54658 10.054 3.42785C10.0659 3.13106 10.0779 2.83426 10.0995 2.53746L10.4397 4.02203M10.039 3.78405C10.0248 4.08611 10.0842 4.37481 10.2266 4.72246C10.2205 4.73829 10.2143 4.75433 10.2079 4.7706L10.2545 4.78888L10.3004 4.76911C10.2935 4.75317 10.2868 4.73737 10.2803 4.72169C10.3806 4.45573 10.4327 4.24533 10.4397 4.02203M10.4397 1.56663C10.5228 2.38636 10.4888 3.20231 10.4397 4.02203M10.4397 1.56663C10.4246 1.41553 10.4019 1.26065 10.3754 1.10955C10.373 1.08502 10.3609 1.06209 10.3487 1.03868C10.3428 1.02749 10.3369 1.01619 10.3319 1.00456L10.4397 4.02203" fill="#020304" stroke="black" stroke-width="0.1"/>
<path d="M13.3692 6.19412C13.3652 6.20012 13.3603 6.20613 13.3554 6.21228C13.3323 6.24095 13.3067 6.27279 13.3503 6.32255C13.3581 6.32144 13.3669 6.32098 13.376 6.3205C13.398 6.31936 13.4223 6.3181 13.441 6.30744C13.5039 6.26651 13.5679 6.22689 13.6319 6.18727C13.8101 6.07698 13.9883 5.96665 14.1441 5.82769L13.3692 6.19412ZM13.3692 6.19412C13.5884 5.88058 13.8303 5.58971 14.1138 5.33284L13.3692 6.19412ZM15.9171 3.83698L15.9256 3.78228L15.6182 4.28268L15.657 4.31428C15.6571 4.31421 15.6571 4.31414 15.6572 4.31407C15.7423 4.20962 15.8154 4.09798 15.8837 3.98797L15.8838 3.988L15.885 3.98588C15.899 3.96065 15.9047 3.93242 15.9082 3.90837C15.9099 3.89702 15.9112 3.88533 15.9124 3.87438L15.9127 3.87158C15.9141 3.8595 15.9154 3.84815 15.9171 3.83698Z" fill="#020304" stroke="black" stroke-width="0.1"/>
<path d="M9.29072 1.94257L9.25412 1.8621L9.20401 1.93493C9.07105 2.1282 9.04379 2.32907 9.0516 2.52435L9.0516 2.52435L9.05165 2.52524C9.05513 2.58527 9.05856 2.64537 9.062 2.70553C9.08837 3.16725 9.11494 3.63242 9.16526 4.0917L9.16529 4.09195C9.186 4.27234 9.24089 4.45389 9.2937 4.62858C9.30993 4.68225 9.32596 4.73526 9.34074 4.7874L9.34073 4.78741L9.34095 4.78814C9.35052 4.82 9.37293 4.84461 9.3913 4.86296C9.3998 4.87146 9.40754 4.87876 9.41503 4.88582C9.42674 4.89687 9.43784 4.90734 9.45028 4.92089L9.506 4.98164L9.53412 4.90415C9.66203 4.55165 9.68126 4.21079 9.63111 3.87138C9.56011 3.36178 9.47534 2.84941 9.39102 2.33971C9.37646 2.25173 9.36192 2.16382 9.34746 2.07603L9.34747 2.07603L9.34732 2.0752C9.34224 2.04732 9.33117 2.02239 9.32063 2.00134C9.31586 1.9918 9.31158 1.9837 9.30756 1.97611C9.30159 1.96482 9.29622 1.95466 9.29072 1.94257Z" fill="#020304" stroke="black" stroke-width="0.1"/>
<path d="M16.5746 6.74186L16.5604 6.69391C16.0234 6.85263 15.4903 7.01512 14.9571 7.18138C14.6393 7.27826 14.3618 7.45208 14.0996 7.64197L14.0995 7.64188L14.0969 7.64404C14.079 7.659 14.0658 7.67854 14.0521 7.69952C14.0489 7.70437 14.0456 7.70953 14.042 7.71508C14.0291 7.73516 14.0129 7.76026 13.9896 7.79367L13.9282 7.88197L14.0353 7.87202C14.9245 7.78943 15.66 7.43493 16.3805 7.08768C16.4928 7.03355 16.6047 6.97959 16.7168 6.92687L16.7168 6.92689L16.7179 6.92636C16.7538 6.90843 16.7821 6.87894 16.8096 6.84866C16.8153 6.84236 16.8211 6.83586 16.8271 6.82914C16.8514 6.80203 16.8788 6.77147 16.9154 6.73638L17.0248 6.63144L16.8744 6.65071C16.8236 6.65721 16.7813 6.66138 16.7433 6.66511C16.7266 6.66675 16.7108 6.66831 16.6954 6.66994C16.6462 6.6752 16.6027 6.68123 16.5602 6.69396L16.5746 6.74186ZM16.5746 6.74186C16.6238 6.72711 16.6762 6.72196 16.7474 6.71495C16.7642 6.7133 16.782 6.71155 16.8011 6.70954L14.1289 7.68247C14.3898 7.49359 14.6619 7.3236 14.9719 7.22916C15.5048 7.06295 16.0378 6.90051 16.5746 6.74186Z" fill="#020304" stroke="black" stroke-width="0.1"/>
<path d="M3.81593 7.81276L3.85542 7.81013C3.89217 7.80768 3.92803 7.80369 3.96512 7.79957C3.98428 7.79744 4.00376 7.79527 4.02387 7.79326C4.0814 7.78752 4.14137 7.78341 4.20226 7.78746L4.20266 7.78749L4.20266 7.78749C4.75879 7.82908 5.31112 7.87823 5.86345 7.93494L5.86372 7.93496C5.97885 7.9474 6.09042 7.98693 6.19614 8.02438C6.22535 8.03473 6.25411 8.04492 6.28239 8.05434L6.283 8.05455L6.283 8.05455C6.32833 8.07031 6.3723 8.08889 6.41397 8.10687C6.42009 8.10951 6.42615 8.11213 6.43215 8.11473C6.46755 8.13005 6.50103 8.14455 6.53385 8.15705L6.56731 8.16978L6.56603 8.20556C6.56371 8.27038 6.54017 8.31563 6.49682 8.34027C6.46404 8.3589 6.42491 8.36132 6.4017 8.36275C6.39924 8.3629 6.39696 8.36304 6.39488 8.36319C6.07743 8.38585 5.74967 8.40164 5.4282 8.33197M3.81593 7.81276L5.43877 8.2831M3.81593 7.81276L3.80942 7.85179C3.80578 7.8736 3.8003 7.90797 3.80564 7.94001L3.81047 7.969L3.83815 7.97888C3.84881 7.98269 3.85995 7.98685 3.87148 7.99116C3.91287 8.00662 3.95936 8.024 4.00731 8.03363M3.81593 7.81276L4.0175 7.98468M5.4282 8.33197C5.42819 8.33197 5.42819 8.33197 5.42818 8.33196L5.43877 8.2831M5.4282 8.33197C5.42821 8.33197 5.42821 8.33197 5.42822 8.33197L5.43877 8.2831M5.4282 8.33197C5.1922 8.28103 4.95522 8.23196 4.718 8.18285L4.71789 8.18283C4.48089 8.13376 4.24364 8.08464 4.00731 8.03363M5.43877 8.2831C5.20252 8.2321 4.96533 8.18299 4.72813 8.13389C4.49094 8.08478 4.25375 8.03567 4.0175 7.98468M4.00731 8.03363C4.00744 8.03365 4.00757 8.03368 4.0077 8.03371L4.0175 7.98468M4.00731 8.03363C4.00719 8.0336 4.00707 8.03358 4.00695 8.03355L4.0175 7.98468" fill="#020304" stroke="black" stroke-width="0.1"/>
<path d="M11.5245 2.28813L11.5745 2.29091C11.5766 2.2523 11.5733 2.21564 11.568 2.17252C11.5664 2.15897 11.5645 2.14483 11.5625 2.12966C11.5581 2.09566 11.553 2.05646 11.5478 2.00714L11.533 1.86693L11.4562 1.98511C11.3567 2.13795 11.3024 2.22538 11.2508 2.42332C11.2004 2.61661 11.1517 2.91821 11.0593 3.50044L11.0593 3.50044L11.0593 3.5009C10.9945 3.93506 10.9751 4.37164 11.0634 4.83969L11.0793 4.924L11.1448 4.8686C11.1608 4.8551 11.1742 4.84553 11.1875 4.83612C11.1933 4.83194 11.1992 4.82779 11.2052 4.82335C11.2207 4.81178 11.2461 4.79247 11.2551 4.76106L11.2551 4.76106L11.2553 4.76017C11.2773 4.67747 11.3021 4.59385 11.3271 4.50948C11.3903 4.29598 11.4549 4.0777 11.4797 3.85763L11.4797 3.85748C11.5224 3.4679 11.5395 3.07351 11.5565 2.68157C11.5622 2.55091 11.5679 2.42052 11.5745 2.29067L11.5245 2.28813ZM11.5245 2.28813C11.5179 2.41881 11.5122 2.54972 11.5065 2.68069C11.4895 3.07221 11.4725 3.46424 11.43 3.85204C11.4058 4.06745 11.3431 4.27903 11.2804 4.49087C11.2551 4.57622 11.2298 4.66161 11.207 4.74731C11.2022 4.76427 11.1849 4.77657 11.1601 4.79417C11.1591 4.79489 11.1581 4.79562 11.1571 4.79636C11.1586 4.80461 11.1601 4.81288 11.1616 4.82115L11.1125 4.83042L11.0802 4.79224C11.0878 4.78587 11.0953 4.77992 11.1024 4.77443C11.0272 4.33459 11.0471 3.92143 11.1087 3.50828C11.2795 2.43221 11.2992 2.32567 11.4553 2.07883C11.453 2.06004 11.4507 2.03969 11.4483 2.01761L11.4981 2.01237L11.54 2.03964C11.5283 2.05754 11.5174 2.0744 11.5071 2.09053C11.5092 2.10721 11.5112 2.12258 11.5131 2.13688C11.5214 2.20106 11.527 2.24379 11.5245 2.28813Z" fill="#020304" stroke="black" stroke-width="0.1"/>
<path d="M17.0502 9.04873L17.1353 8.98635L17.0331 8.95998C16.6229 8.85414 16.0722 8.83835 15.5867 8.88783C15.3436 8.9126 15.115 8.95391 14.927 9.00931C14.7412 9.06408 14.5874 9.13474 14.5014 9.22278L14.4365 9.28922L14.5277 9.30681C15.0844 9.41424 15.6318 9.36403 16.1773 9.28453L16.1773 9.28454L16.1781 9.28442L16.1782 9.28439C16.4124 9.24665 16.6475 9.20875 16.8827 9.16326L16.8827 9.16329L16.8844 9.16289C16.9216 9.15433 16.9521 9.13115 16.9762 9.11091C16.9857 9.10294 16.9943 9.09535 17.0026 9.08802C17.0182 9.07433 17.0327 9.06152 17.0502 9.04873Z" fill="#020304" stroke="black" stroke-width="0.1"/>
<path d="M12.3145 4.08626L12.3628 4.09931C12.3668 4.08442 12.3709 4.06953 12.3749 4.05466C12.4728 3.69264 12.57 3.33299 12.6286 2.94151L12.6403 2.86341L12.5647 2.88625C12.3835 2.94098 12.3176 3.07304 12.2622 3.18379C12.261 3.1863 12.2597 3.18879 12.2585 3.19128L12.2584 3.19126L12.2575 3.19338C12.2369 3.23974 12.2163 3.28613 12.1956 3.33256C12.0533 3.65255 11.91 3.97466 11.784 4.30255L11.784 4.30275C11.6872 4.55801 11.6373 4.82794 11.6258 5.14215L11.6222 5.2381L11.7029 5.18596C11.7257 5.17119 11.7458 5.16039 11.7651 5.15002C11.7713 5.1467 11.7774 5.14343 11.7835 5.14009C11.8061 5.12762 11.8332 5.11185 11.8518 5.08711L11.8518 5.08711L11.8523 5.08636C12.0688 4.78656 12.266 4.4707 12.3629 4.09887L12.3145 4.08626ZM12.3145 4.08626C12.22 4.44891 12.0273 4.75867 11.8118 5.0571C11.7978 5.07569 11.7739 5.08857 11.7425 5.1054C11.7375 5.10808 11.7324 5.11086 11.727 5.11377C11.7265 5.1244 11.7261 5.13507 11.7257 5.14581L11.6757 5.14398L11.6486 5.10199C11.6589 5.09535 11.6689 5.08927 11.6784 5.08371C11.6937 4.79966 11.7424 4.55347 11.8307 4.32048C11.9561 3.99389 12.0989 3.67306 12.2413 3.35297C12.2619 3.30652 12.2826 3.26009 12.3032 3.21365C12.304 3.21214 12.3047 3.21063 12.3055 3.20912C12.3547 3.1107 12.405 3.01016 12.5255 2.95439C12.5269 2.94518 12.5283 2.93596 12.5297 2.92671L12.5791 2.93411L12.5936 2.98198C12.5856 2.98439 12.5779 2.98698 12.5705 2.98974C12.5117 3.3569 12.4197 3.69718 12.3264 4.04243C12.3224 4.05703 12.3185 4.07164 12.3145 4.08626Z" fill="#020304" stroke="black" stroke-width="0.1"/>
<path d="M12.345 5.40199C12.3384 5.43299 12.3364 5.46404 12.3354 5.50008C12.335 5.51543 12.3348 5.53083 12.3346 5.54759C12.3342 5.57287 12.3338 5.60124 12.3326 5.63721L12.3283 5.77099L12.4193 5.6728C12.4541 5.63522 12.4845 5.60364 12.5115 5.57551C12.5554 5.52987 12.5906 5.49333 12.6217 5.45504L12.6217 5.45506L12.6226 5.45396C13.0018 4.96019 13.2382 4.39879 13.4317 3.81875C13.4351 3.80844 13.4391 3.79751 13.4432 3.78604C13.4573 3.74658 13.4737 3.7007 13.481 3.65158C13.4909 3.58455 13.4848 3.50985 13.4451 3.42007L13.4139 3.34946L13.3622 3.40683C13.339 3.43265 13.318 3.45437 13.2981 3.47496C13.2894 3.48401 13.2808 3.49285 13.2724 3.50171C13.2455 3.53004 13.2204 3.55806 13.199 3.59009L13.199 3.59008L13.1982 3.59133C13.1223 3.71271 13.0493 3.83591 12.9766 3.95851L12.9765 3.95876C12.9037 4.08162 12.8312 4.20387 12.756 4.32416L12.7559 4.3243C12.548 4.65905 12.4215 5.02375 12.345 5.40199ZM12.345 5.40199C12.345 5.40189 12.345 5.40179 12.345 5.40169L12.3939 5.41217M12.345 5.40199C12.345 5.40208 12.3449 5.40217 12.3449 5.40226L12.3939 5.41217M12.3939 5.41217C12.4695 5.03819 12.5943 4.67932 12.7984 4.35068C12.874 4.22979 12.9467 4.10702 13.0195 3.98426C13.0923 3.86149 13.165 3.73872 13.2406 3.61784C13.2652 3.58104 13.2961 3.54902 13.3334 3.51039C13.3426 3.50092 13.3521 3.49106 13.362 3.48063C13.3595 3.47407 13.3567 3.46737 13.3537 3.46051L13.3994 3.44029L13.4366 3.47375C13.4307 3.4803 13.4248 3.48666 13.4191 3.49283C13.454 3.60695 13.4251 3.68782 13.3972 3.76608C13.3928 3.77839 13.3884 3.79063 13.3843 3.80293C13.1915 4.3809 12.9571 4.9362 12.5829 5.4235C12.5529 5.46038 12.5202 5.49444 12.4777 5.53855C12.4642 5.55259 12.4497 5.56764 12.434 5.58413C12.4336 5.60159 12.4332 5.62045 12.4326 5.64043L12.3826 5.63882L12.3459 5.60484C12.3596 5.59011 12.3723 5.57649 12.3843 5.5638C12.3844 5.558 12.3845 5.55239 12.3846 5.54696C12.3855 5.48752 12.386 5.44893 12.3939 5.41217Z" fill="#020304" stroke="black" stroke-width="0.1"/>
<path d="M7.43504 3.3517L7.36565 3.29776L7.35474 3.38497C7.35166 3.40959 7.34649 3.43062 7.34151 3.4509C7.34107 3.45269 7.34063 3.45448 7.34019 3.45626C7.34003 3.45694 7.33986 3.45763 7.33969 3.45833C7.33521 3.47659 7.32877 3.50283 7.33218 3.52668L7.33058 3.52691L7.33548 3.53874C7.384 3.65594 7.4316 3.77407 7.47931 3.89249C7.60908 4.21461 7.73972 4.53887 7.89238 4.85231L7.89245 4.85246C7.94621 4.96191 8.02119 5.06007 8.09949 5.15264C8.13118 5.19009 8.16278 5.22596 8.19395 5.26134C8.24168 5.31551 8.28841 5.36855 8.33291 5.42442L8.33266 5.42462L8.33668 5.42864C8.34559 5.43754 8.35552 5.44149 8.3618 5.44336C8.3683 5.4453 8.37434 5.44601 8.37876 5.44633C8.3874 5.44696 8.39669 5.44648 8.40407 5.446C8.40838 5.44572 8.41263 5.44541 8.41687 5.44509C8.42912 5.44418 8.44134 5.44327 8.45519 5.44327H8.50162L8.50505 5.39697C8.51985 5.19726 8.44944 5.01177 8.38623 4.84524C8.38069 4.83062 8.37519 4.81615 8.36982 4.80183C8.19722 4.32284 7.92166 3.89895 7.61813 3.49703L7.61814 3.49703L7.61754 3.49626C7.59203 3.46382 7.56057 3.43962 7.52983 3.41817C7.51942 3.4109 7.50928 3.40407 7.49924 3.39729C7.47806 3.383 7.45727 3.36897 7.43504 3.3517Z" fill="#020304" stroke="black" stroke-width="0.1"/>
<path d="M5.26751 5.41237L5.14006 5.35158L5.20086 5.47903C5.28154 5.64817 5.39417 5.78762 5.51607 5.91473C5.577 5.97825 5.64061 6.03906 5.70384 6.09888C5.71268 6.10725 5.72152 6.11559 5.73033 6.12392C5.78481 6.17539 5.83869 6.22629 5.89103 6.2786L5.89128 6.27884C6.17297 6.5565 6.5038 6.74451 6.85819 6.89693C6.88732 6.91066 6.91851 6.90345 6.93438 6.89937C6.94273 6.89722 6.95138 6.89457 6.95875 6.8923C6.95991 6.89194 6.96104 6.89159 6.96213 6.89126C6.97081 6.88861 6.97788 6.88654 6.98427 6.88512L7.04546 6.87153L7.01861 6.81489C6.89488 6.55385 6.66429 6.30258 6.36299 6.0678C6.06119 5.83264 5.68551 5.61175 5.26751 5.41237Z" fill="#020304" stroke="black" stroke-width="0.1"/>
<path d="M7.72529 5.64436C7.74354 5.65854 7.77279 5.67862 7.80727 5.68398C7.82572 5.68684 7.84626 5.6856 7.86672 5.6767C7.88704 5.66787 7.9039 5.65296 7.91753 5.6339L7.9325 5.61294L7.92414 5.58858C7.83442 5.32739 7.57401 4.914 7.28878 4.53678C7.14552 4.34731 6.99476 4.16534 6.85404 4.01427C6.71404 3.86399 6.58152 3.74161 6.47482 3.67384L6.43427 3.64809L7.75589 5.60482M7.72529 5.64436C7.72526 5.64434 7.72523 5.64432 7.7252 5.6443L7.75589 5.60482M7.72529 5.64436C7.72531 5.64438 7.72534 5.6444 7.72537 5.64443L7.75589 5.60482M7.72529 5.64436C7.4088 5.40047 7.12699 5.12731 6.9296 4.7676M7.75589 5.60482C7.44215 5.36306 7.16621 5.09485 6.97343 4.74354M6.9296 4.7676C6.92961 4.76761 6.92962 4.76763 6.92963 4.76765L6.97343 4.74354M6.9296 4.7676L6.97343 4.74354M6.9296 4.7676L6.97343 4.74354M6.42121 3.75826C6.42543 3.76094 6.42972 3.76373 6.43406 3.76662C6.43252 3.75265 6.43492 3.73805 6.44378 3.72272L6.42121 3.75826ZM6.42737 3.86947C6.42753 3.86972 6.42768 3.86997 6.42783 3.87022L6.4707 3.84448L6.42689 3.86859C6.42705 3.86888 6.42721 3.86918 6.42737 3.86947Z" fill="#020304" stroke="black" stroke-width="0.1"/>
<path d="M8.24728 3.3194L8.19828 3.32936C8.2223 3.44754 8.24989 3.56561 8.27738 3.6833L8.27986 3.69389C8.30823 3.81532 8.33639 3.93637 8.36078 4.05823C8.43042 4.41003 8.58484 4.72541 8.75973 5.02558L8.75973 5.02558L8.76007 5.02614C8.77398 5.04931 8.7909 5.06931 8.8112 5.09242C8.81516 5.09693 8.8193 5.10162 8.82365 5.10655C8.84209 5.1274 8.86437 5.15261 8.89292 5.18714L8.97516 5.28663L8.9814 5.15771C8.99874 4.79954 8.93713 4.39059 8.82539 4.0112C8.71373 3.63209 8.55081 3.27842 8.36261 3.03217L8.36264 3.03214L8.36128 3.03051C8.34235 3.0078 8.31645 2.99762 8.29748 2.99114C8.28806 2.98792 8.28011 2.98549 8.2724 2.98313C8.26079 2.97958 8.24972 2.97619 8.23498 2.97053L8.15948 2.9415L8.16727 3.02202C8.17077 3.05808 8.1732 3.09336 8.17558 3.12778C8.18048 3.19885 8.18514 3.2663 8.19833 3.32961L8.24728 3.3194ZM8.24728 3.3194C8.23477 3.25939 8.23054 3.19772 8.22582 3.12892C8.22456 3.11047 8.22326 3.09151 8.22175 3.07193L8.80294 5.00041C8.62906 4.70198 8.47786 4.39223 8.40982 4.04847C8.38455 3.92222 8.35529 3.79696 8.32614 3.67219C8.2986 3.55431 8.27115 3.43685 8.24728 3.3194Z" fill="#020304" stroke="black" stroke-width="0.1"/>
<path d="M12.9469 5.72686L12.9143 5.83911L13.018 5.78516C13.3047 5.63604 13.5032 5.39747 13.6849 5.15916L13.6849 5.15916L13.6851 5.15881C14.0685 4.64667 14.2073 4.36981 14.2504 4.00524L14.2667 3.8676L14.1663 3.96314C13.613 4.48952 13.1549 5.01092 12.9469 5.72686Z" fill="#020304" stroke="black" stroke-width="0.1"/>
<path d="M13.7221 7.04282L13.6715 7.1359L15.4708 6.01279L15.475 5.96296C15.4746 5.96293 15.4743 5.9629 15.4739 5.96287C15.4647 5.96206 15.4549 5.96068 15.4436 5.95901C15.4426 5.95887 15.4416 5.95873 15.4406 5.95858C15.4301 5.95703 15.4183 5.95528 15.4064 5.95407C15.3809 5.95147 15.3491 5.95058 15.3177 5.96202L15.3176 5.96204C14.8786 6.12225 14.4669 6.34329 14.0824 6.60577C13.944 6.69542 13.8409 6.82461 13.7221 7.04282ZM14.11 6.64741C14.4918 6.38676 14.9001 6.16767 15.3348 6.00901L14.11 6.64741ZM15.399 6.17522C15.1193 6.37921 14.8434 6.57942 14.5599 6.77586L15.5048 6.05812C15.4938 6.07042 15.4831 6.08352 15.4723 6.09678C15.4499 6.12422 15.427 6.1523 15.399 6.17522Z" fill="#020304" stroke="black" stroke-width="0.1"/>
<path d="M14.2353 8.57904L14.1779 8.62136L14.2373 8.6609C14.2565 8.67368 14.2703 8.68487 14.2822 8.69448C14.283 8.69514 14.2838 8.69579 14.2846 8.69644C14.2905 8.7012 14.2973 8.70664 14.3039 8.71112C14.3103 8.71545 14.32 8.72141 14.3323 8.72446L14.332 8.72559L14.3428 8.72593C14.9625 8.74516 15.5265 8.56421 16.0675 8.29772L16.0677 8.29759C16.0999 8.28151 16.1164 8.249 16.1259 8.22908C16.1304 8.21984 16.134 8.2116 16.1374 8.20389C16.1435 8.19006 16.1489 8.17792 16.1566 8.16474L16.1951 8.09879L16.1193 8.08988C15.8224 8.05498 15.4692 8.09096 15.1328 8.17801C14.7964 8.26505 14.4725 8.40422 14.2353 8.57904ZM16.0901 8.18723C16.0769 8.21683 16.0652 8.24296 16.0454 8.25286C15.5086 8.51729 14.953 8.69484 14.3444 8.67595L16.0901 8.18723Z" fill="#020304" stroke="black" stroke-width="0.1"/>
<path d="M6.58376 7.74004L6.69661 7.7408L6.62136 7.6567C6.32414 7.32449 5.96089 7.15134 5.26598 6.97298L5.26598 6.97298L5.26567 6.9729C5.26254 6.97212 5.25945 6.97135 5.25639 6.97058C5.12911 6.93878 5.05564 6.92041 4.99226 6.92041C4.92612 6.92041 4.87196 6.94031 4.78567 6.972C4.78345 6.97282 4.7812 6.97364 4.77894 6.97447L4.70063 7.00322L4.76289 7.05873C4.96203 7.23628 5.27543 7.40516 5.60732 7.53001C5.93941 7.65494 6.29611 7.73809 6.58376 7.74004Z" fill="#020304" stroke="black" stroke-width="0.1"/>
<path d="M6.45792 9.27374L6.36656 9.29841C5.65272 9.49122 5.01349 9.33993 4.3846 9.14684L4.33611 9.13195L4.35169 9.08368C4.37546 9.01005 4.42036 8.97151 4.4736 8.95422C4.511 8.94207 4.55356 8.94099 4.58479 8.9402L6.45792 9.27374ZM6.45792 9.27374L6.38605 9.21217M6.45792 9.27374L6.38605 9.21217M6.38605 9.21217C6.2501 9.09572 6.11576 9.07468 6.00418 9.0572C5.97537 9.05269 5.94809 9.04842 5.92268 9.0428C5.49033 8.93582 5.0469 8.90532 4.60402 8.93959L6.38605 9.21217Z" fill="#020304" stroke="black" stroke-width="0.1"/>
<path d="M9.14604 18.6901L9.1328 18.6642L9.10383 18.6629C9.0767 18.6617 9.05162 18.6658 9.02974 18.6772C9.00742 18.6888 8.99229 18.7059 8.98221 18.7241C8.96636 18.7527 8.96166 18.7883 8.95866 18.811C8.95827 18.8139 8.95791 18.8167 8.95756 18.8191L8.95748 18.8191L8.95724 18.822C8.94565 18.9591 8.94999 19.0673 8.98047 19.1679C9.01101 19.2688 9.06649 19.3578 9.14998 19.4587L9.21233 19.5341L9.2369 19.4394C9.27697 19.2849 9.29507 19.1726 9.28112 19.0595C9.26722 18.9468 9.22206 18.8382 9.14604 18.6901Z" fill="#020304" stroke="black" stroke-width="0.1"/>
<path d="M11.1764 16.4376L11.1448 16.35C11.0183 15.9982 11.0637 15.4904 11.239 14.9685L11.2864 14.9845M11.1764 16.4376L11.4142 15.8808C11.5231 15.4568 11.669 15.0499 11.8926 14.6738L11.8926 14.6738L11.893 14.6731C11.9996 14.4867 12.0984 14.293 12.1929 14.104L12.193 14.104L12.1939 14.1019C12.2072 14.0722 12.2057 14.041 12.2031 14.0173C12.2021 14.0076 12.2006 13.9973 12.1993 13.9877C12.1989 13.9853 12.1986 13.9829 12.1983 13.9806C12.1966 13.9687 12.1951 13.9573 12.1943 13.9458L12.1883 13.8616L12.1173 13.9074C11.8695 14.0674 11.6891 14.2132 11.5508 14.3797C11.4121 14.5467 11.3179 14.7321 11.239 14.9686L11.2864 14.9845M11.1764 16.4376L11.232 16.3629M11.1764 16.4376L11.232 16.3629M11.2864 14.9845C11.4363 14.5349 11.6393 14.2834 12.0973 13.9802L11.3458 15.953C11.322 16.0587 11.2974 16.1681 11.2272 16.2812C11.2309 16.2931 11.2348 16.3047 11.2389 16.3161L11.1919 16.333L11.1518 16.3032C11.1592 16.2933 11.1661 16.2834 11.1727 16.2736C11.0761 15.94 11.1225 15.4723 11.2864 14.9845ZM11.232 16.3629C11.3369 16.222 11.368 16.0833 11.3954 15.9609M11.232 16.3629L11.3954 15.9609M11.3954 15.9609C11.4016 15.9333 11.4076 15.9066 11.4142 15.8808L11.3954 15.9609Z" fill="#020304" stroke="black" stroke-width="0.1"/>
<path d="M12.4622 13.4744L12.4436 13.5623L12.5281 13.5318C12.6822 13.4761 12.7754 13.4404 12.8395 13.3893C12.9067 13.3357 12.9392 13.2676 12.9841 13.1648L13.0193 13.084L12.9319 13.0952C12.8506 13.1056 12.7841 13.1156 12.7301 13.1293C12.6757 13.143 12.6304 13.1613 12.5932 13.1904C12.518 13.2494 12.4901 13.3423 12.4622 13.4744Z" fill="#020304" stroke="black" stroke-width="0.1"/>
<path d="M7.94577 13.8855L7.90141 13.907L7.92227 13.9517C7.92738 13.9626 7.9323 13.9738 7.93726 13.9852C7.95506 14.0257 7.97353 14.0677 8.00397 14.1051C8.23552 14.4066 8.35786 14.7495 8.42871 15.1221C8.46477 15.3193 8.50648 15.5163 8.54851 15.7131C8.55146 15.7269 8.5544 15.7407 8.55734 15.7545C8.59651 15.9377 8.63563 16.1208 8.67067 16.3046L8.67073 16.3049C8.71342 16.5221 8.79095 16.7233 8.89504 16.9159L8.89514 16.9161C8.90579 16.9356 8.92272 16.9663 8.94938 16.9861C8.96404 16.997 8.98219 17.0051 9.00379 17.0068C9.02504 17.0084 9.04594 17.0035 9.066 16.9941L9.07398 16.9904L9.0802 16.9842C9.0802 16.9842 9.08066 16.9837 9.08206 16.9828L9.08918 16.9782L9.08936 16.9781C9.09194 16.9765 9.09834 16.9724 9.10413 16.9666C9.10977 16.961 9.1188 16.9498 9.12088 16.9332C9.17447 16.6563 9.17831 16.3783 9.12024 16.1036L9.12021 16.1034C9.03324 15.6991 8.94237 15.2904 8.84008 14.8891C8.74748 14.519 8.57261 14.1829 8.25499 13.9399L8.25497 13.9399C8.25196 13.9376 8.24884 13.9352 8.2456 13.9327C8.21719 13.9107 8.1799 13.8819 8.13474 13.8666C8.08038 13.8483 8.01863 13.8502 7.94577 13.8855Z" fill="#020304" stroke="black" stroke-width="0.1"/>
<path d="M8.05393 7.5336L8.042 7.64488L8.13285 7.57951C8.16456 7.5567 8.19097 7.53857 8.2143 7.52256C8.22554 7.51485 8.23607 7.50762 8.24613 7.5006C8.27588 7.47984 8.30146 7.4609 8.32354 7.43897C8.91406 6.8901 9.59194 6.5335 10.4029 6.44789C10.5373 6.43633 10.6902 6.40905 10.8173 6.3312L10.8538 6.30884L10.8374 6.26932C10.831 6.25399 10.8273 6.24146 10.8237 6.22887C10.8227 6.22543 10.8217 6.22198 10.8207 6.21847C10.8185 6.21126 10.8154 6.20125 10.8105 6.19198C10.8055 6.18252 10.7968 6.16998 10.7814 6.16168C10.4915 5.99361 10.1828 5.94171 9.85465 6.04042C9.21427 6.22823 8.67613 6.57374 8.25731 7.09981L8.25731 7.09981L8.25697 7.10024C8.24943 7.10993 8.24169 7.11965 8.23383 7.12952C8.16004 7.22224 8.07599 7.32783 8.05393 7.5336Z" fill="#020304" stroke="black" stroke-width="0.1"/>
<path d="M11.4073 6.37544L11.4144 6.32595C11.3864 6.32195 11.3574 6.33168 11.3368 6.34231C11.3155 6.35323 11.2912 6.3712 11.277 6.39596L11.2769 6.39592L11.2757 6.39841C11.2647 6.42035 11.2618 6.44876 11.2624 6.47114C11.2629 6.49305 11.2671 6.52352 11.2826 6.54674L11.2826 6.54676L11.2837 6.54828C11.3364 6.62119 11.3992 6.67917 11.4793 6.70972C11.5598 6.74046 11.6516 6.74115 11.7576 6.71058L11.8101 6.69546L11.7904 6.64451C11.7562 6.556 11.7096 6.48231 11.6467 6.42746C11.5833 6.37226 11.5059 6.33842 11.4141 6.3259L11.4073 6.37544ZM11.4073 6.37544C11.5576 6.39592 11.6584 6.47802 11.7239 6.61619C11.7259 6.61564 11.7279 6.61508 11.7299 6.6145L11.7438 6.66254L11.6971 6.68057C11.6963 6.67853 11.6955 6.6765 11.6947 6.67448C11.526 6.70766 11.414 6.64332 11.3242 6.51899C11.3091 6.49633 11.3091 6.44344 11.3204 6.42078C11.3355 6.39434 11.3809 6.37167 11.4073 6.37544Z" fill="#020304" stroke="black" stroke-width="0.1"/>
<path d="M12.5065 10.231L12.4889 10.2713C12.4827 10.2853 12.4769 10.3001 12.4707 10.3158L12.4693 10.3195C12.4637 10.3339 12.4577 10.3491 12.4513 10.3642C12.4375 10.3968 12.4204 10.4316 12.3958 10.463C11.7823 11.2789 10.9736 11.7185 9.93474 11.6724L12.5065 10.231ZM12.5065 10.231L12.4688 10.2083M12.5065 10.231L12.4688 10.2083M12.4688 10.2083C12.4478 10.1957 12.4406 10.1903 12.4368 10.1839L12.4107 10.1404L12.3676 10.1672C12.3251 10.1935 12.2831 10.2201 12.2412 10.2467C12.1733 10.2896 12.1056 10.3326 12.0356 10.3745L12.0356 10.3745L12.0352 10.3748C11.9801 10.4084 11.9251 10.4422 11.8702 10.476C11.6718 10.598 11.4736 10.7198 11.273 10.8348M12.4688 10.2083L12.0613 10.4174C12.0064 10.451 11.9516 10.4847 11.8967 10.5184C11.6982 10.6405 11.4991 10.7629 11.2977 10.8783M11.2977 10.8783L11.2732 10.8347C11.2732 10.8347 11.2731 10.8348 11.273 10.8348M11.2977 10.8783L11.2729 10.8349C11.2729 10.8349 11.273 10.8348 11.273 10.8348M11.2977 10.8783C10.9084 11.0974 10.4888 11.2069 10.0352 11.2069C9.8781 11.2069 9.71866 11.2232 9.56054 11.2393L11.273 10.8348M11.273 10.8348C10.8913 11.0496 10.4803 11.1569 10.0352 11.1569C9.8753 11.1569 9.7125 11.1735 9.55403 11.1897C9.51089 11.1941 9.46808 11.1985 9.42573 11.2025L9.43042 11.2523C9.42592 11.2526 9.42131 11.2529 9.41664 11.2532C9.37433 11.256 9.32799 11.259 9.32458 11.3203L11.273 10.8348Z" fill="#020304" stroke="black" stroke-width="0.1"/>
<path d="M8.96099 11.0227L9.00959 11.0234L9.01166 10.9748C9.01999 10.7791 8.88678 10.6735 8.78052 10.5892C8.77436 10.5844 8.76829 10.5796 8.76235 10.5748L8.76236 10.5748L8.76111 10.5738C8.75438 10.5688 8.74748 10.5633 8.73985 10.5571C8.73906 10.5564 8.73826 10.5558 8.73745 10.5551C8.73069 10.5497 8.72334 10.5437 8.71589 10.538C8.69937 10.5252 8.67956 10.5112 8.65709 10.5014C8.63398 10.4914 8.60697 10.4852 8.5769 10.4894C8.54696 10.4937 8.51854 10.5076 8.49139 10.53L8.46449 10.5522L8.47605 10.5851C8.5073 10.6741 8.53455 10.7458 8.56216 10.8028C8.58979 10.8598 8.61918 10.9051 8.65613 10.9391C8.73236 11.0094 8.82892 11.0208 8.96099 11.0227Z" fill="#020304" stroke="black" stroke-width="0.1"/>
</svg>
