<svg width="18" height="18" viewBox="0 0 18 18" fill="none" xmlns="http://www.w3.org/2000/svg">
<mask id="path-1-outside-1_2_5475" maskUnits="userSpaceOnUse" x="0" y="0" width="18" height="18" fill="black">
<rect fill="white" width="18" height="18"/>
<path d="M9.36004 3.39283C9.43186 3.29461 9.481 3.22662 9.53014 3.15862C9.87034 2.71287 10.2483 2.30867 10.7322 2.01024C10.7586 1.99513 10.7851 1.97625 10.8116 1.95736C11.5638 1.38317 12.4294 1.10363 13.3668 1.01675C13.741 0.982751 14.1077 0.994083 14.4668 1.11119C14.6596 1.17163 14.8486 1.23585 15.0376 1.30385C15.8465 1.58716 16.4513 2.12735 16.9654 2.78842C17.041 2.88663 17.109 2.99619 17.1695 3.10574C17.5815 3.87258 17.8234 4.68853 17.865 5.56114C17.9179 6.70573 17.6836 7.78233 17.1166 8.78716C17.0485 8.90426 16.9843 9.02514 16.9162 9.14225C16.2812 10.2604 15.5138 11.2841 14.584 12.1794C13.6806 13.0482 12.8036 13.9435 11.9569 14.8652C11.8586 14.9748 11.7565 15.0805 11.6469 15.1825C11.3823 15.4243 11.1404 15.6887 10.9212 15.972C10.804 16.1194 10.6679 16.2516 10.5356 16.3876C10.3277 16.5953 10.116 16.8031 9.90814 17.0109C9.86278 17.0562 9.8212 17.1053 9.77584 17.1469C9.54148 17.3735 9.28066 17.3811 9.0463 17.162C8.61917 16.7578 8.19581 16.3422 7.77245 15.9343C7.40957 15.583 7.0467 15.2316 6.6876 14.8766C5.85222 14.0568 5.07355 13.188 4.35157 12.2701C3.84506 11.6279 3.33098 10.9895 2.82446 10.3435C2.61656 10.0791 2.42756 9.80332 2.23478 9.52756C1.84167 8.96471 1.55061 8.35274 1.36917 7.69167C1.31247 7.48013 1.25199 7.26858 1.18773 7.06082C0.945813 6.2902 0.949592 5.51958 1.13103 4.73763C1.33515 3.86502 1.72449 3.09062 2.33684 2.422C2.63924 2.09335 2.99834 1.84025 3.4028 1.64382C4.22683 1.24718 5.10001 1.1263 6.00342 1.19807C6.22266 1.21696 6.44568 1.26984 6.65358 1.34162C7.45493 1.61738 8.16179 2.05558 8.77037 2.63732C8.89888 2.7582 8.99338 2.91308 9.103 3.05663C9.18238 3.15484 9.23908 3.2795 9.36004 3.39283ZM15.7255 4.07279C15.7482 4.06901 15.7671 4.06523 15.7898 4.06145C15.9183 4.33344 16.0317 4.61297 16.1564 4.88873C16.3076 5.21738 16.3265 5.55358 16.2434 5.90111C16.164 6.22598 16.0771 6.55085 16.0052 6.87572C15.975 7.00794 15.9637 7.14392 15.9674 7.27992C15.9674 7.35924 16.0015 7.44613 16.043 7.51413C16.1186 7.64634 16.2812 7.66523 16.3984 7.56701C16.4362 7.53302 16.4702 7.49146 16.4966 7.44613C16.5836 7.31014 16.61 7.15526 16.6176 6.9966C16.6214 6.86061 16.6289 6.72462 16.6478 6.59241C16.6705 6.4413 16.7537 6.32798 16.9011 6.24109C16.9124 6.2902 16.9276 6.32042 16.9238 6.34686C16.9049 6.56974 16.9389 6.78506 16.9994 6.9966C17.075 7.25725 17.1392 7.52168 17.0674 7.79744C17.1128 7.74078 17.1468 7.68412 17.1657 7.6199C17.2904 7.21948 17.3849 6.8115 17.4227 6.39597C17.5097 5.37604 17.3547 4.39387 16.9087 3.46838C16.8368 3.31727 16.7575 3.16617 16.6592 3.03018C16.1716 2.36155 15.563 1.84781 14.7616 1.56827C14.2929 1.40206 13.8204 1.33029 13.3252 1.38317C13.1778 1.39828 13.0304 1.42095 12.883 1.44361C12.3009 1.54183 11.7565 1.7307 11.2614 2.05557C11.0951 2.16512 10.925 2.27467 10.7549 2.38044C10.5016 2.5391 10.2748 2.7242 10.0631 2.93197C9.8212 3.17373 9.56794 3.40794 9.37894 3.71014C9.34114 3.67614 9.31468 3.65725 9.29578 3.63459C8.8951 3.20395 8.48687 2.78086 7.99169 2.44844C7.54943 2.15379 7.08072 1.91581 6.58176 1.73826C6.20754 1.60605 5.82198 1.55316 5.42509 1.59094C5.29657 1.60227 5.17183 1.60983 5.04331 1.61738C4.31755 1.67405 3.66362 1.92336 3.05882 2.31622C2.94542 2.388 2.84336 2.48621 2.74508 2.58065C2.17053 3.13595 1.79253 3.80458 1.58085 4.56386C1.42209 5.14183 1.33515 5.72735 1.43343 6.33175C1.51659 6.84928 1.69047 7.34414 1.84545 7.84277C1.84923 7.85033 1.87569 7.85411 1.90593 7.86166C2.00043 7.68034 2.07603 7.4839 2.15163 7.29125C2.35196 6.79261 2.39732 6.28265 2.28014 5.75379C2.23478 5.5498 2.2121 5.34204 2.20076 5.13427C2.18942 4.9114 2.26502 4.70363 2.39354 4.51476C2.42378 4.4732 2.46536 4.4392 2.50316 4.40521C2.54096 4.37498 2.62034 4.40521 2.63168 4.45432C2.64302 4.50342 2.65058 4.55631 2.65058 4.6092C2.65058 4.92273 2.75642 5.20227 2.93408 5.45914C2.987 5.53847 3.03992 5.61402 3.08906 5.69712C3.20246 5.87467 3.27428 6.0711 3.3083 6.27887C3.34988 6.52819 3.34232 6.7775 3.31586 7.02682C3.2894 7.26858 3.28184 7.50657 3.34232 7.74456C3.38768 7.91833 3.45572 8.08076 3.57668 8.22053C3.66362 8.31874 3.79214 8.3263 3.88664 8.23942C3.93955 8.19031 3.98869 8.12986 4.02271 8.06565C4.08697 7.93343 4.14367 7.79744 4.18903 7.66145C4.29865 7.32525 4.26841 7.00416 4.08319 6.69818C4.01137 6.58107 3.94333 6.46397 3.87529 6.34686C3.62204 5.90489 3.75812 5.48558 3.94333 5.06628C4.06051 5.11916 4.03783 5.2136 4.05295 5.29293C4.08319 5.45536 4.16635 5.5838 4.31377 5.66691C4.45363 5.74624 4.60105 5.68957 4.62373 5.52714C4.63885 5.42514 4.63507 5.31937 4.61995 5.21738C4.60105 5.08517 4.55569 4.95295 4.52923 4.82074C4.47631 4.58275 4.45741 4.34477 4.49521 4.10301C4.53679 3.83102 4.71067 3.53637 4.94503 3.36261C4.94503 3.46838 4.95259 3.55904 4.94881 3.6497C4.93369 3.90657 4.99039 4.14833 5.11891 4.37121C5.16049 4.44298 5.19829 4.51853 5.23987 4.59031C5.42131 4.92273 5.47423 5.27782 5.42509 5.6518C5.39485 5.87089 5.34193 6.08244 5.26255 6.28643C5.21719 6.40353 5.16805 6.52063 5.13403 6.64151C5.01685 7.06082 5.06599 7.45369 5.36083 7.78989C5.6103 8.08076 5.7426 8.4094 5.7804 8.78716C5.79174 8.90048 5.81442 9.01381 5.84088 9.12714C5.85978 9.20646 5.88246 9.28957 5.91648 9.36512C6.00342 9.56533 6.12816 9.57667 6.26802 9.4029C6.31338 9.34624 6.35496 9.28202 6.38142 9.21402C6.44568 9.05537 6.48348 8.89293 6.43434 8.72294C6.37764 8.53406 6.32094 8.34141 6.26046 8.15253C6.12816 7.74833 6.07524 7.33658 6.17352 6.91727C6.26802 6.49797 6.38142 6.08621 6.48726 5.67068C6.49482 5.63669 6.52884 5.60646 6.56664 5.5498C6.58554 5.62535 6.60444 5.65935 6.60822 5.69712C6.61956 5.90489 6.64224 6.11266 6.63468 6.32042C6.62712 6.60752 6.67248 6.8795 6.77832 7.14771C6.88794 7.41969 6.98244 7.69923 7.0656 7.97876C7.17143 8.32252 7.19033 8.67761 7.14497 9.0327C7.12229 9.2178 7.08828 9.40668 7.06938 9.59178C7.05804 9.71644 7.05048 9.84109 7.05426 9.96575C7.06182 10.1131 7.1034 10.2566 7.19412 10.3775C7.33775 10.5702 7.55699 10.5664 7.68929 10.3624C7.71953 10.3208 7.73843 10.268 7.75355 10.2188C7.79891 10.0866 7.80269 9.95064 7.78379 9.81465C7.76111 9.6711 7.73843 9.52378 7.71575 9.38023C7.66661 9.06292 7.74599 8.79471 7.98791 8.50762C8.01059 8.54539 8.05217 8.57562 8.05217 8.60961C8.07485 8.91182 8.21093 9.16869 8.37725 9.41423C8.41883 9.47467 8.45663 9.53889 8.48309 9.60688C8.59649 9.85998 8.65697 10.1206 8.58893 10.4002C8.55113 10.5626 8.50955 10.725 8.47175 10.8875C8.40371 11.1632 8.36213 11.439 8.37725 11.7261C8.38481 11.8659 8.43017 11.9905 8.52089 12.1001C8.67209 12.2776 8.84219 12.2965 9.01606 12.1454C9.09544 12.0774 9.16348 11.9943 9.2164 11.9036C9.41296 11.5825 9.40162 11.2539 9.2353 10.9177C8.94802 10.336 8.8951 9.7391 9.14836 9.12714C9.24664 8.88537 9.2542 8.64361 9.20506 8.39052C9.17104 8.21675 9.15592 8.03921 9.13702 7.86166C9.13324 7.82766 9.15214 7.78989 9.16348 7.74078C9.31468 7.79366 9.37894 7.90699 9.4432 8.00899C9.71914 8.47362 9.84766 8.96848 9.79096 9.50867C9.73048 10.1055 9.69268 10.1811 10.0669 10.7855C10.2483 11.0801 10.3126 11.4012 10.2597 11.7488C10.2332 11.9225 10.2332 12.1038 10.2294 12.2814C10.2257 12.4098 10.2672 12.5307 10.3353 12.6365C10.4298 12.7762 10.5507 12.8065 10.6868 12.7158C10.7624 12.6629 10.8342 12.5987 10.8947 12.5269C11.1707 12.1983 11.2274 11.813 11.1555 11.405C11.0913 11.0423 10.9628 10.7024 10.8267 10.3586C10.7208 10.0866 10.6112 9.81465 10.5318 9.53133C10.3882 9.01381 10.4525 8.51517 10.736 8.05431C10.7738 7.9901 10.8153 7.92966 10.8531 7.86544C11.027 7.57457 11.148 7.26481 11.1933 6.92861C11.2236 6.71329 11.2727 6.49796 11.3218 6.28264C11.3332 6.22976 11.371 6.18065 11.4201 6.07866C11.4466 6.21465 11.473 6.29398 11.473 6.37331C11.4768 6.64907 11.5524 6.90972 11.6696 7.15904C11.6961 7.2157 11.7187 7.27614 11.7376 7.33658C11.8095 7.57835 11.8019 7.81255 11.6809 8.03543C11.6318 8.12609 11.5751 8.21675 11.5335 8.31119C11.3785 8.66628 11.3332 9.03647 11.4504 9.41045C11.5071 9.59555 11.6431 9.69754 11.7906 9.68243C11.9229 9.6711 12.0287 9.56155 12.0552 9.3689C12.0741 9.22535 12.0778 9.07425 12.0589 8.93071C12.0211 8.63984 12.0816 8.36785 12.1686 8.09964C12.1799 8.06564 12.2101 8.03543 12.2404 7.9901C12.2593 8.0392 12.282 8.06565 12.282 8.09209C12.2971 8.3943 12.3954 8.65872 12.5692 8.90804C12.7469 9.16491 12.7582 9.45956 12.6789 9.75421C12.6448 9.88642 12.5919 10.0111 12.5503 10.1395C12.4899 10.3284 12.4407 10.5248 12.4634 10.725C12.471 10.8081 12.4899 10.8913 12.5201 10.9668C12.5617 11.0726 12.6789 11.1141 12.7847 11.0726C12.8338 11.0537 12.8868 11.0272 12.917 10.9895C13.0039 10.8837 13.0947 10.7817 13.1551 10.6608C13.329 10.3171 13.3328 9.9582 13.2421 9.59178C13.1778 9.33868 13.106 9.08558 13.0531 8.83249C12.9813 8.48495 13.0115 8.14497 13.1703 7.82388C13.2043 7.75967 13.2345 7.69167 13.2648 7.62367C13.3895 7.30636 13.45 6.98149 13.3706 6.64151C13.3441 6.52063 13.3328 6.3922 13.3215 6.26754C13.3101 6.12777 13.3366 5.99555 13.4046 5.87467C13.4651 5.77268 13.5067 5.6518 13.6428 5.57625C13.6919 5.71224 13.6617 5.82556 13.6617 5.93511C13.6654 6.05222 13.673 6.16554 13.7297 6.26754C13.7675 6.33176 13.8091 6.4073 13.8922 6.38842C13.9452 6.37708 13.9981 6.32042 14.0245 6.26754C14.1001 6.10133 14.1304 5.92378 14.0737 5.74623C14.0245 5.58758 13.9641 5.42892 13.9036 5.27404C13.8091 5.0285 13.828 4.80185 13.9905 4.53365C14.0094 4.58275 14.0321 4.61675 14.0359 4.65452C14.051 4.86984 14.1379 5.05872 14.24 5.24005C14.308 5.35715 14.3761 5.47425 14.4441 5.59514C14.5348 5.75001 14.5915 5.92 14.6104 6.09755C14.6445 6.36575 14.5878 6.61507 14.4517 6.84928C14.3232 7.07593 14.1984 7.31014 14.0964 7.54812C13.9678 7.84655 13.9452 8.15631 14.0472 8.46606C14.0775 8.56428 14.1266 8.6625 14.1909 8.74183C14.3043 8.8816 14.463 8.8967 14.618 8.80227C14.7276 8.73427 14.8108 8.63983 14.875 8.53028C14.9657 8.37163 15.0073 8.20164 15.0073 8.02032C15.0073 7.82011 15.0035 7.62367 15.0035 7.42346C14.9998 7.04571 15.1018 6.70196 15.3248 6.3922C15.374 6.3242 15.4193 6.25243 15.4685 6.18443C15.6235 5.96156 15.7066 5.71979 15.7104 5.44781C15.7142 5.2816 15.7066 5.11539 15.7066 4.9454C15.7066 4.68475 15.7066 4.42409 15.7066 4.16344C15.7104 4.14833 15.7217 4.11056 15.7255 4.07279Z"/>
</mask>
<path d="M9.36004 3.39283C9.43186 3.29461 9.481 3.22662 9.53014 3.15862C9.87034 2.71287 10.2483 2.30867 10.7322 2.01024C10.7586 1.99513 10.7851 1.97625 10.8116 1.95736C11.5638 1.38317 12.4294 1.10363 13.3668 1.01675C13.741 0.982751 14.1077 0.994083 14.4668 1.11119C14.6596 1.17163 14.8486 1.23585 15.0376 1.30385C15.8465 1.58716 16.4513 2.12735 16.9654 2.78842C17.041 2.88663 17.109 2.99619 17.1695 3.10574C17.5815 3.87258 17.8234 4.68853 17.865 5.56114C17.9179 6.70573 17.6836 7.78233 17.1166 8.78716C17.0485 8.90426 16.9843 9.02514 16.9162 9.14225C16.2812 10.2604 15.5138 11.2841 14.584 12.1794C13.6806 13.0482 12.8036 13.9435 11.9569 14.8652C11.8586 14.9748 11.7565 15.0805 11.6469 15.1825C11.3823 15.4243 11.1404 15.6887 10.9212 15.972C10.804 16.1194 10.6679 16.2516 10.5356 16.3876C10.3277 16.5953 10.116 16.8031 9.90814 17.0109C9.86278 17.0562 9.8212 17.1053 9.77584 17.1469C9.54148 17.3735 9.28066 17.3811 9.0463 17.162C8.61917 16.7578 8.19581 16.3422 7.77245 15.9343C7.40957 15.583 7.0467 15.2316 6.6876 14.8766C5.85222 14.0568 5.07355 13.188 4.35157 12.2701C3.84506 11.6279 3.33098 10.9895 2.82446 10.3435C2.61656 10.0791 2.42756 9.80332 2.23478 9.52756C1.84167 8.96471 1.55061 8.35274 1.36917 7.69167C1.31247 7.48013 1.25199 7.26858 1.18773 7.06082C0.945813 6.2902 0.949592 5.51958 1.13103 4.73763C1.33515 3.86502 1.72449 3.09062 2.33684 2.422C2.63924 2.09335 2.99834 1.84025 3.4028 1.64382C4.22683 1.24718 5.10001 1.1263 6.00342 1.19807C6.22266 1.21696 6.44568 1.26984 6.65358 1.34162C7.45493 1.61738 8.16179 2.05558 8.77037 2.63732C8.89888 2.7582 8.99338 2.91308 9.103 3.05663C9.18238 3.15484 9.23908 3.2795 9.36004 3.39283ZM15.7255 4.07279C15.7482 4.06901 15.7671 4.06523 15.7898 4.06145C15.9183 4.33344 16.0317 4.61297 16.1564 4.88873C16.3076 5.21738 16.3265 5.55358 16.2434 5.90111C16.164 6.22598 16.0771 6.55085 16.0052 6.87572C15.975 7.00794 15.9637 7.14392 15.9674 7.27992C15.9674 7.35924 16.0015 7.44613 16.043 7.51413C16.1186 7.64634 16.2812 7.66523 16.3984 7.56701C16.4362 7.53302 16.4702 7.49146 16.4966 7.44613C16.5836 7.31014 16.61 7.15526 16.6176 6.9966C16.6214 6.86061 16.6289 6.72462 16.6478 6.59241C16.6705 6.4413 16.7537 6.32798 16.9011 6.24109C16.9124 6.2902 16.9276 6.32042 16.9238 6.34686C16.9049 6.56974 16.9389 6.78506 16.9994 6.9966C17.075 7.25725 17.1392 7.52168 17.0674 7.79744C17.1128 7.74078 17.1468 7.68412 17.1657 7.6199C17.2904 7.21948 17.3849 6.8115 17.4227 6.39597C17.5097 5.37604 17.3547 4.39387 16.9087 3.46838C16.8368 3.31727 16.7575 3.16617 16.6592 3.03018C16.1716 2.36155 15.563 1.84781 14.7616 1.56827C14.2929 1.40206 13.8204 1.33029 13.3252 1.38317C13.1778 1.39828 13.0304 1.42095 12.883 1.44361C12.3009 1.54183 11.7565 1.7307 11.2614 2.05557C11.0951 2.16512 10.925 2.27467 10.7549 2.38044C10.5016 2.5391 10.2748 2.7242 10.0631 2.93197C9.8212 3.17373 9.56794 3.40794 9.37894 3.71014C9.34114 3.67614 9.31468 3.65725 9.29578 3.63459C8.8951 3.20395 8.48687 2.78086 7.99169 2.44844C7.54943 2.15379 7.08072 1.91581 6.58176 1.73826C6.20754 1.60605 5.82198 1.55316 5.42509 1.59094C5.29657 1.60227 5.17183 1.60983 5.04331 1.61738C4.31755 1.67405 3.66362 1.92336 3.05882 2.31622C2.94542 2.388 2.84336 2.48621 2.74508 2.58065C2.17053 3.13595 1.79253 3.80458 1.58085 4.56386C1.42209 5.14183 1.33515 5.72735 1.43343 6.33175C1.51659 6.84928 1.69047 7.34414 1.84545 7.84277C1.84923 7.85033 1.87569 7.85411 1.90593 7.86166C2.00043 7.68034 2.07603 7.4839 2.15163 7.29125C2.35196 6.79261 2.39732 6.28265 2.28014 5.75379C2.23478 5.5498 2.2121 5.34204 2.20076 5.13427C2.18942 4.9114 2.26502 4.70363 2.39354 4.51476C2.42378 4.4732 2.46536 4.4392 2.50316 4.40521C2.54096 4.37498 2.62034 4.40521 2.63168 4.45432C2.64302 4.50342 2.65058 4.55631 2.65058 4.6092C2.65058 4.92273 2.75642 5.20227 2.93408 5.45914C2.987 5.53847 3.03992 5.61402 3.08906 5.69712C3.20246 5.87467 3.27428 6.0711 3.3083 6.27887C3.34988 6.52819 3.34232 6.7775 3.31586 7.02682C3.2894 7.26858 3.28184 7.50657 3.34232 7.74456C3.38768 7.91833 3.45572 8.08076 3.57668 8.22053C3.66362 8.31874 3.79214 8.3263 3.88664 8.23942C3.93955 8.19031 3.98869 8.12986 4.02271 8.06565C4.08697 7.93343 4.14367 7.79744 4.18903 7.66145C4.29865 7.32525 4.26841 7.00416 4.08319 6.69818C4.01137 6.58107 3.94333 6.46397 3.87529 6.34686C3.62204 5.90489 3.75812 5.48558 3.94333 5.06628C4.06051 5.11916 4.03783 5.2136 4.05295 5.29293C4.08319 5.45536 4.16635 5.5838 4.31377 5.66691C4.45363 5.74624 4.60105 5.68957 4.62373 5.52714C4.63885 5.42514 4.63507 5.31937 4.61995 5.21738C4.60105 5.08517 4.55569 4.95295 4.52923 4.82074C4.47631 4.58275 4.45741 4.34477 4.49521 4.10301C4.53679 3.83102 4.71067 3.53637 4.94503 3.36261C4.94503 3.46838 4.95259 3.55904 4.94881 3.6497C4.93369 3.90657 4.99039 4.14833 5.11891 4.37121C5.16049 4.44298 5.19829 4.51853 5.23987 4.59031C5.42131 4.92273 5.47423 5.27782 5.42509 5.6518C5.39485 5.87089 5.34193 6.08244 5.26255 6.28643C5.21719 6.40353 5.16805 6.52063 5.13403 6.64151C5.01685 7.06082 5.06599 7.45369 5.36083 7.78989C5.6103 8.08076 5.7426 8.4094 5.7804 8.78716C5.79174 8.90048 5.81442 9.01381 5.84088 9.12714C5.85978 9.20646 5.88246 9.28957 5.91648 9.36512C6.00342 9.56533 6.12816 9.57667 6.26802 9.4029C6.31338 9.34624 6.35496 9.28202 6.38142 9.21402C6.44568 9.05537 6.48348 8.89293 6.43434 8.72294C6.37764 8.53406 6.32094 8.34141 6.26046 8.15253C6.12816 7.74833 6.07524 7.33658 6.17352 6.91727C6.26802 6.49797 6.38142 6.08621 6.48726 5.67068C6.49482 5.63669 6.52884 5.60646 6.56664 5.5498C6.58554 5.62535 6.60444 5.65935 6.60822 5.69712C6.61956 5.90489 6.64224 6.11266 6.63468 6.32042C6.62712 6.60752 6.67248 6.8795 6.77832 7.14771C6.88794 7.41969 6.98244 7.69923 7.0656 7.97876C7.17143 8.32252 7.19033 8.67761 7.14497 9.0327C7.12229 9.2178 7.08828 9.40668 7.06938 9.59178C7.05804 9.71644 7.05048 9.84109 7.05426 9.96575C7.06182 10.1131 7.1034 10.2566 7.19412 10.3775C7.33775 10.5702 7.55699 10.5664 7.68929 10.3624C7.71953 10.3208 7.73843 10.268 7.75355 10.2188C7.79891 10.0866 7.80269 9.95064 7.78379 9.81465C7.76111 9.6711 7.73843 9.52378 7.71575 9.38023C7.66661 9.06292 7.74599 8.79471 7.98791 8.50762C8.01059 8.54539 8.05217 8.57562 8.05217 8.60961C8.07485 8.91182 8.21093 9.16869 8.37725 9.41423C8.41883 9.47467 8.45663 9.53889 8.48309 9.60688C8.59649 9.85998 8.65697 10.1206 8.58893 10.4002C8.55113 10.5626 8.50955 10.725 8.47175 10.8875C8.40371 11.1632 8.36213 11.439 8.37725 11.7261C8.38481 11.8659 8.43017 11.9905 8.52089 12.1001C8.67209 12.2776 8.84219 12.2965 9.01606 12.1454C9.09544 12.0774 9.16348 11.9943 9.2164 11.9036C9.41296 11.5825 9.40162 11.2539 9.2353 10.9177C8.94802 10.336 8.8951 9.7391 9.14836 9.12714C9.24664 8.88537 9.2542 8.64361 9.20506 8.39052C9.17104 8.21675 9.15592 8.03921 9.13702 7.86166C9.13324 7.82766 9.15214 7.78989 9.16348 7.74078C9.31468 7.79366 9.37894 7.90699 9.4432 8.00899C9.71914 8.47362 9.84766 8.96848 9.79096 9.50867C9.73048 10.1055 9.69268 10.1811 10.0669 10.7855C10.2483 11.0801 10.3126 11.4012 10.2597 11.7488C10.2332 11.9225 10.2332 12.1038 10.2294 12.2814C10.2257 12.4098 10.2672 12.5307 10.3353 12.6365C10.4298 12.7762 10.5507 12.8065 10.6868 12.7158C10.7624 12.6629 10.8342 12.5987 10.8947 12.5269C11.1707 12.1983 11.2274 11.813 11.1555 11.405C11.0913 11.0423 10.9628 10.7024 10.8267 10.3586C10.7208 10.0866 10.6112 9.81465 10.5318 9.53133C10.3882 9.01381 10.4525 8.51517 10.736 8.05431C10.7738 7.9901 10.8153 7.92966 10.8531 7.86544C11.027 7.57457 11.148 7.26481 11.1933 6.92861C11.2236 6.71329 11.2727 6.49796 11.3218 6.28264C11.3332 6.22976 11.371 6.18065 11.4201 6.07866C11.4466 6.21465 11.473 6.29398 11.473 6.37331C11.4768 6.64907 11.5524 6.90972 11.6696 7.15904C11.6961 7.2157 11.7187 7.27614 11.7376 7.33658C11.8095 7.57835 11.8019 7.81255 11.6809 8.03543C11.6318 8.12609 11.5751 8.21675 11.5335 8.31119C11.3785 8.66628 11.3332 9.03647 11.4504 9.41045C11.5071 9.59555 11.6431 9.69754 11.7906 9.68243C11.9229 9.6711 12.0287 9.56155 12.0552 9.3689C12.0741 9.22535 12.0778 9.07425 12.0589 8.93071C12.0211 8.63984 12.0816 8.36785 12.1686 8.09964C12.1799 8.06564 12.2101 8.03543 12.2404 7.9901C12.2593 8.0392 12.282 8.06565 12.282 8.09209C12.2971 8.3943 12.3954 8.65872 12.5692 8.90804C12.7469 9.16491 12.7582 9.45956 12.6789 9.75421C12.6448 9.88642 12.5919 10.0111 12.5503 10.1395C12.4899 10.3284 12.4407 10.5248 12.4634 10.725C12.471 10.8081 12.4899 10.8913 12.5201 10.9668C12.5617 11.0726 12.6789 11.1141 12.7847 11.0726C12.8338 11.0537 12.8868 11.0272 12.917 10.9895C13.0039 10.8837 13.0947 10.7817 13.1551 10.6608C13.329 10.3171 13.3328 9.9582 13.2421 9.59178C13.1778 9.33868 13.106 9.08558 13.0531 8.83249C12.9813 8.48495 13.0115 8.14497 13.1703 7.82388C13.2043 7.75967 13.2345 7.69167 13.2648 7.62367C13.3895 7.30636 13.45 6.98149 13.3706 6.64151C13.3441 6.52063 13.3328 6.3922 13.3215 6.26754C13.3101 6.12777 13.3366 5.99555 13.4046 5.87467C13.4651 5.77268 13.5067 5.6518 13.6428 5.57625C13.6919 5.71224 13.6617 5.82556 13.6617 5.93511C13.6654 6.05222 13.673 6.16554 13.7297 6.26754C13.7675 6.33176 13.8091 6.4073 13.8922 6.38842C13.9452 6.37708 13.9981 6.32042 14.0245 6.26754C14.1001 6.10133 14.1304 5.92378 14.0737 5.74623C14.0245 5.58758 13.9641 5.42892 13.9036 5.27404C13.8091 5.0285 13.828 4.80185 13.9905 4.53365C14.0094 4.58275 14.0321 4.61675 14.0359 4.65452C14.051 4.86984 14.1379 5.05872 14.24 5.24005C14.308 5.35715 14.3761 5.47425 14.4441 5.59514C14.5348 5.75001 14.5915 5.92 14.6104 6.09755C14.6445 6.36575 14.5878 6.61507 14.4517 6.84928C14.3232 7.07593 14.1984 7.31014 14.0964 7.54812C13.9678 7.84655 13.9452 8.15631 14.0472 8.46606C14.0775 8.56428 14.1266 8.6625 14.1909 8.74183C14.3043 8.8816 14.463 8.8967 14.618 8.80227C14.7276 8.73427 14.8108 8.63983 14.875 8.53028C14.9657 8.37163 15.0073 8.20164 15.0073 8.02032C15.0073 7.82011 15.0035 7.62367 15.0035 7.42346C14.9998 7.04571 15.1018 6.70196 15.3248 6.3922C15.374 6.3242 15.4193 6.25243 15.4685 6.18443C15.6235 5.96156 15.7066 5.71979 15.7104 5.44781C15.7142 5.2816 15.7066 5.11539 15.7066 4.9454C15.7066 4.68475 15.7066 4.42409 15.7066 4.16344C15.7104 4.14833 15.7217 4.11056 15.7255 4.07279Z" fill="#020304"/>
<path d="M9.36004 3.39283C9.43186 3.29461 9.481 3.22662 9.53014 3.15862C9.87034 2.71287 10.2483 2.30867 10.7322 2.01024C10.7586 1.99513 10.7851 1.97625 10.8116 1.95736C11.5638 1.38317 12.4294 1.10363 13.3668 1.01675C13.741 0.982751 14.1077 0.994083 14.4668 1.11119C14.6596 1.17163 14.8486 1.23585 15.0376 1.30385C15.8465 1.58716 16.4513 2.12735 16.9654 2.78842C17.041 2.88663 17.109 2.99619 17.1695 3.10574C17.5815 3.87258 17.8234 4.68853 17.865 5.56114C17.9179 6.70573 17.6836 7.78233 17.1166 8.78716C17.0485 8.90426 16.9843 9.02514 16.9162 9.14225C16.2812 10.2604 15.5138 11.2841 14.584 12.1794C13.6806 13.0482 12.8036 13.9435 11.9569 14.8652C11.8586 14.9748 11.7565 15.0805 11.6469 15.1825C11.3823 15.4243 11.1404 15.6887 10.9212 15.972C10.804 16.1194 10.6679 16.2516 10.5356 16.3876C10.3277 16.5953 10.116 16.8031 9.90814 17.0109C9.86278 17.0562 9.8212 17.1053 9.77584 17.1469C9.54148 17.3735 9.28066 17.3811 9.0463 17.162C8.61917 16.7578 8.19581 16.3422 7.77245 15.9343C7.40957 15.583 7.0467 15.2316 6.6876 14.8766C5.85222 14.0568 5.07355 13.188 4.35157 12.2701C3.84506 11.6279 3.33098 10.9895 2.82446 10.3435C2.61656 10.0791 2.42756 9.80332 2.23478 9.52756C1.84167 8.96471 1.55061 8.35274 1.36917 7.69167C1.31247 7.48013 1.25199 7.26858 1.18773 7.06082C0.945813 6.2902 0.949592 5.51958 1.13103 4.73763C1.33515 3.86502 1.72449 3.09062 2.33684 2.422C2.63924 2.09335 2.99834 1.84025 3.4028 1.64382C4.22683 1.24718 5.10001 1.1263 6.00342 1.19807C6.22266 1.21696 6.44568 1.26984 6.65358 1.34162C7.45493 1.61738 8.16179 2.05558 8.77037 2.63732C8.89888 2.7582 8.99338 2.91308 9.103 3.05663C9.18238 3.15484 9.23908 3.2795 9.36004 3.39283ZM15.7255 4.07279C15.7482 4.06901 15.7671 4.06523 15.7898 4.06145C15.9183 4.33344 16.0317 4.61297 16.1564 4.88873C16.3076 5.21738 16.3265 5.55358 16.2434 5.90111C16.164 6.22598 16.0771 6.55085 16.0052 6.87572C15.975 7.00794 15.9637 7.14392 15.9674 7.27992C15.9674 7.35924 16.0015 7.44613 16.043 7.51413C16.1186 7.64634 16.2812 7.66523 16.3984 7.56701C16.4362 7.53302 16.4702 7.49146 16.4966 7.44613C16.5836 7.31014 16.61 7.15526 16.6176 6.9966C16.6214 6.86061 16.6289 6.72462 16.6478 6.59241C16.6705 6.4413 16.7537 6.32798 16.9011 6.24109C16.9124 6.2902 16.9276 6.32042 16.9238 6.34686C16.9049 6.56974 16.9389 6.78506 16.9994 6.9966C17.075 7.25725 17.1392 7.52168 17.0674 7.79744C17.1128 7.74078 17.1468 7.68412 17.1657 7.6199C17.2904 7.21948 17.3849 6.8115 17.4227 6.39597C17.5097 5.37604 17.3547 4.39387 16.9087 3.46838C16.8368 3.31727 16.7575 3.16617 16.6592 3.03018C16.1716 2.36155 15.563 1.84781 14.7616 1.56827C14.2929 1.40206 13.8204 1.33029 13.3252 1.38317C13.1778 1.39828 13.0304 1.42095 12.883 1.44361C12.3009 1.54183 11.7565 1.7307 11.2614 2.05557C11.0951 2.16512 10.925 2.27467 10.7549 2.38044C10.5016 2.5391 10.2748 2.7242 10.0631 2.93197C9.8212 3.17373 9.56794 3.40794 9.37894 3.71014C9.34114 3.67614 9.31468 3.65725 9.29578 3.63459C8.8951 3.20395 8.48687 2.78086 7.99169 2.44844C7.54943 2.15379 7.08072 1.91581 6.58176 1.73826C6.20754 1.60605 5.82198 1.55316 5.42509 1.59094C5.29657 1.60227 5.17183 1.60983 5.04331 1.61738C4.31755 1.67405 3.66362 1.92336 3.05882 2.31622C2.94542 2.388 2.84336 2.48621 2.74508 2.58065C2.17053 3.13595 1.79253 3.80458 1.58085 4.56386C1.42209 5.14183 1.33515 5.72735 1.43343 6.33175C1.51659 6.84928 1.69047 7.34414 1.84545 7.84277C1.84923 7.85033 1.87569 7.85411 1.90593 7.86166C2.00043 7.68034 2.07603 7.4839 2.15163 7.29125C2.35196 6.79261 2.39732 6.28265 2.28014 5.75379C2.23478 5.5498 2.2121 5.34204 2.20076 5.13427C2.18942 4.9114 2.26502 4.70363 2.39354 4.51476C2.42378 4.4732 2.46536 4.4392 2.50316 4.40521C2.54096 4.37498 2.62034 4.40521 2.63168 4.45432C2.64302 4.50342 2.65058 4.55631 2.65058 4.6092C2.65058 4.92273 2.75642 5.20227 2.93408 5.45914C2.987 5.53847 3.03992 5.61402 3.08906 5.69712C3.20246 5.87467 3.27428 6.0711 3.3083 6.27887C3.34988 6.52819 3.34232 6.7775 3.31586 7.02682C3.2894 7.26858 3.28184 7.50657 3.34232 7.74456C3.38768 7.91833 3.45572 8.08076 3.57668 8.22053C3.66362 8.31874 3.79214 8.3263 3.88664 8.23942C3.93955 8.19031 3.98869 8.12986 4.02271 8.06565C4.08697 7.93343 4.14367 7.79744 4.18903 7.66145C4.29865 7.32525 4.26841 7.00416 4.08319 6.69818C4.01137 6.58107 3.94333 6.46397 3.87529 6.34686C3.62204 5.90489 3.75812 5.48558 3.94333 5.06628C4.06051 5.11916 4.03783 5.2136 4.05295 5.29293C4.08319 5.45536 4.16635 5.5838 4.31377 5.66691C4.45363 5.74624 4.60105 5.68957 4.62373 5.52714C4.63885 5.42514 4.63507 5.31937 4.61995 5.21738C4.60105 5.08517 4.55569 4.95295 4.52923 4.82074C4.47631 4.58275 4.45741 4.34477 4.49521 4.10301C4.53679 3.83102 4.71067 3.53637 4.94503 3.36261C4.94503 3.46838 4.95259 3.55904 4.94881 3.6497C4.93369 3.90657 4.99039 4.14833 5.11891 4.37121C5.16049 4.44298 5.19829 4.51853 5.23987 4.59031C5.42131 4.92273 5.47423 5.27782 5.42509 5.6518C5.39485 5.87089 5.34193 6.08244 5.26255 6.28643C5.21719 6.40353 5.16805 6.52063 5.13403 6.64151C5.01685 7.06082 5.06599 7.45369 5.36083 7.78989C5.6103 8.08076 5.7426 8.4094 5.7804 8.78716C5.79174 8.90048 5.81442 9.01381 5.84088 9.12714C5.85978 9.20646 5.88246 9.28957 5.91648 9.36512C6.00342 9.56533 6.12816 9.57667 6.26802 9.4029C6.31338 9.34624 6.35496 9.28202 6.38142 9.21402C6.44568 9.05537 6.48348 8.89293 6.43434 8.72294C6.37764 8.53406 6.32094 8.34141 6.26046 8.15253C6.12816 7.74833 6.07524 7.33658 6.17352 6.91727C6.26802 6.49797 6.38142 6.08621 6.48726 5.67068C6.49482 5.63669 6.52884 5.60646 6.56664 5.5498C6.58554 5.62535 6.60444 5.65935 6.60822 5.69712C6.61956 5.90489 6.64224 6.11266 6.63468 6.32042C6.62712 6.60752 6.67248 6.8795 6.77832 7.14771C6.88794 7.41969 6.98244 7.69923 7.0656 7.97876C7.17143 8.32252 7.19033 8.67761 7.14497 9.0327C7.12229 9.2178 7.08828 9.40668 7.06938 9.59178C7.05804 9.71644 7.05048 9.84109 7.05426 9.96575C7.06182 10.1131 7.1034 10.2566 7.19412 10.3775C7.33775 10.5702 7.55699 10.5664 7.68929 10.3624C7.71953 10.3208 7.73843 10.268 7.75355 10.2188C7.79891 10.0866 7.80269 9.95064 7.78379 9.81465C7.76111 9.6711 7.73843 9.52378 7.71575 9.38023C7.66661 9.06292 7.74599 8.79471 7.98791 8.50762C8.01059 8.54539 8.05217 8.57562 8.05217 8.60961C8.07485 8.91182 8.21093 9.16869 8.37725 9.41423C8.41883 9.47467 8.45663 9.53889 8.48309 9.60688C8.59649 9.85998 8.65697 10.1206 8.58893 10.4002C8.55113 10.5626 8.50955 10.725 8.47175 10.8875C8.40371 11.1632 8.36213 11.439 8.37725 11.7261C8.38481 11.8659 8.43017 11.9905 8.52089 12.1001C8.67209 12.2776 8.84219 12.2965 9.01606 12.1454C9.09544 12.0774 9.16348 11.9943 9.2164 11.9036C9.41296 11.5825 9.40162 11.2539 9.2353 10.9177C8.94802 10.336 8.8951 9.7391 9.14836 9.12714C9.24664 8.88537 9.2542 8.64361 9.20506 8.39052C9.17104 8.21675 9.15592 8.03921 9.13702 7.86166C9.13324 7.82766 9.15214 7.78989 9.16348 7.74078C9.31468 7.79366 9.37894 7.90699 9.4432 8.00899C9.71914 8.47362 9.84766 8.96848 9.79096 9.50867C9.73048 10.1055 9.69268 10.1811 10.0669 10.7855C10.2483 11.0801 10.3126 11.4012 10.2597 11.7488C10.2332 11.9225 10.2332 12.1038 10.2294 12.2814C10.2257 12.4098 10.2672 12.5307 10.3353 12.6365C10.4298 12.7762 10.5507 12.8065 10.6868 12.7158C10.7624 12.6629 10.8342 12.5987 10.8947 12.5269C11.1707 12.1983 11.2274 11.813 11.1555 11.405C11.0913 11.0423 10.9628 10.7024 10.8267 10.3586C10.7208 10.0866 10.6112 9.81465 10.5318 9.53133C10.3882 9.01381 10.4525 8.51517 10.736 8.05431C10.7738 7.9901 10.8153 7.92966 10.8531 7.86544C11.027 7.57457 11.148 7.26481 11.1933 6.92861C11.2236 6.71329 11.2727 6.49796 11.3218 6.28264C11.3332 6.22976 11.371 6.18065 11.4201 6.07866C11.4466 6.21465 11.473 6.29398 11.473 6.37331C11.4768 6.64907 11.5524 6.90972 11.6696 7.15904C11.6961 7.2157 11.7187 7.27614 11.7376 7.33658C11.8095 7.57835 11.8019 7.81255 11.6809 8.03543C11.6318 8.12609 11.5751 8.21675 11.5335 8.31119C11.3785 8.66628 11.3332 9.03647 11.4504 9.41045C11.5071 9.59555 11.6431 9.69754 11.7906 9.68243C11.9229 9.6711 12.0287 9.56155 12.0552 9.3689C12.0741 9.22535 12.0778 9.07425 12.0589 8.93071C12.0211 8.63984 12.0816 8.36785 12.1686 8.09964C12.1799 8.06564 12.2101 8.03543 12.2404 7.9901C12.2593 8.0392 12.282 8.06565 12.282 8.09209C12.2971 8.3943 12.3954 8.65872 12.5692 8.90804C12.7469 9.16491 12.7582 9.45956 12.6789 9.75421C12.6448 9.88642 12.5919 10.0111 12.5503 10.1395C12.4899 10.3284 12.4407 10.5248 12.4634 10.725C12.471 10.8081 12.4899 10.8913 12.5201 10.9668C12.5617 11.0726 12.6789 11.1141 12.7847 11.0726C12.8338 11.0537 12.8868 11.0272 12.917 10.9895C13.0039 10.8837 13.0947 10.7817 13.1551 10.6608C13.329 10.3171 13.3328 9.9582 13.2421 9.59178C13.1778 9.33868 13.106 9.08558 13.0531 8.83249C12.9813 8.48495 13.0115 8.14497 13.1703 7.82388C13.2043 7.75967 13.2345 7.69167 13.2648 7.62367C13.3895 7.30636 13.45 6.98149 13.3706 6.64151C13.3441 6.52063 13.3328 6.3922 13.3215 6.26754C13.3101 6.12777 13.3366 5.99555 13.4046 5.87467C13.4651 5.77268 13.5067 5.6518 13.6428 5.57625C13.6919 5.71224 13.6617 5.82556 13.6617 5.93511C13.6654 6.05222 13.673 6.16554 13.7297 6.26754C13.7675 6.33176 13.8091 6.4073 13.8922 6.38842C13.9452 6.37708 13.9981 6.32042 14.0245 6.26754C14.1001 6.10133 14.1304 5.92378 14.0737 5.74623C14.0245 5.58758 13.9641 5.42892 13.9036 5.27404C13.8091 5.0285 13.828 4.80185 13.9905 4.53365C14.0094 4.58275 14.0321 4.61675 14.0359 4.65452C14.051 4.86984 14.1379 5.05872 14.24 5.24005C14.308 5.35715 14.3761 5.47425 14.4441 5.59514C14.5348 5.75001 14.5915 5.92 14.6104 6.09755C14.6445 6.36575 14.5878 6.61507 14.4517 6.84928C14.3232 7.07593 14.1984 7.31014 14.0964 7.54812C13.9678 7.84655 13.9452 8.15631 14.0472 8.46606C14.0775 8.56428 14.1266 8.6625 14.1909 8.74183C14.3043 8.8816 14.463 8.8967 14.618 8.80227C14.7276 8.73427 14.8108 8.63983 14.875 8.53028C14.9657 8.37163 15.0073 8.20164 15.0073 8.02032C15.0073 7.82011 15.0035 7.62367 15.0035 7.42346C14.9998 7.04571 15.1018 6.70196 15.3248 6.3922C15.374 6.3242 15.4193 6.25243 15.4685 6.18443C15.6235 5.96156 15.7066 5.71979 15.7104 5.44781C15.7142 5.2816 15.7066 5.11539 15.7066 4.9454C15.7066 4.68475 15.7066 4.42409 15.7066 4.16344C15.7104 4.14833 15.7217 4.11056 15.7255 4.07279Z" stroke="black" stroke-width="0.2" mask="url(#path-1-outside-1_2_5475)"/>
<path d="M13.3978 2.79663L13.3948 2.74868L13.3468 2.74977C13.2556 2.75184 13.183 2.77486 13.1257 2.8157C13.0686 2.85633 13.0307 2.91175 13.0037 2.97195L13.0037 2.97194L13.0032 2.97317C12.8895 3.2457 12.7932 3.54489 12.9519 3.85387L12.952 3.85406C13.0514 4.04558 13.066 4.2437 13.0089 4.45138C13.0008 4.47731 13.0066 4.50278 13.0107 4.51934C13.0128 4.52749 13.0148 4.53467 13.0168 4.54185C13.0201 4.55372 13.0234 4.5656 13.0269 4.58191L13.0437 4.6602L13.1066 4.61075C13.1247 4.5966 13.1415 4.5853 13.1589 4.57366C13.1654 4.56929 13.172 4.56486 13.1787 4.56022C13.2017 4.54442 13.2266 4.52606 13.2465 4.50142C13.5124 4.19244 13.6179 3.83752 13.4665 3.43928L13.4197 3.45705L13.4665 3.43937C13.4049 3.27647 13.3835 3.11472 13.4051 2.94586L13.4051 2.94587L13.4052 2.94451C13.4076 2.92084 13.4063 2.89723 13.4044 2.87399C13.4037 2.86561 13.4029 2.85739 13.4021 2.84903C13.4006 2.8329 13.399 2.8162 13.3978 2.79663Z" fill="#020304" stroke="black" stroke-width="0.1"/>
<path d="M8.28318 5.92662L8.29191 5.86118L8.22655 5.87051C8.09648 5.88908 8.03643 5.97785 7.9935 6.04132C7.98441 6.05475 7.9761 6.06705 7.96804 6.07731C7.77566 6.306 7.72772 6.56883 7.81134 6.85554C7.86233 7.03574 7.94824 7.19911 8.04838 7.34922L8.04853 7.34944C8.15253 7.50355 8.20023 7.66385 8.16573 7.84404C8.16015 7.86984 8.16221 7.89396 8.16567 7.91866C8.16729 7.9302 8.16899 7.94069 8.17083 7.95204C8.1736 7.96908 8.17668 7.98806 8.18026 8.01546L8.19555 8.13267L8.26901 8.04006C8.39527 7.88088 8.47462 7.72522 8.50392 7.56566C8.53332 7.40561 8.51161 7.24573 8.44244 7.07969C8.41117 7.00162 8.37206 6.92344 8.32502 6.84902L8.32501 6.84899C8.1694 6.60308 8.12554 6.35742 8.25172 6.09381C8.26726 6.06475 8.27273 6.03386 8.27575 6.00675C8.27705 5.99502 8.27799 5.98289 8.27887 5.9715C8.27902 5.9695 8.27918 5.96753 8.27933 5.96558C8.28038 5.95212 8.28148 5.93934 8.28318 5.92662Z" fill="#020304" stroke="black" stroke-width="0.1"/>
<path d="M3.65984 2.54667L3.62802 2.50809C3.37336 2.71816 3.29328 3.03858 3.45348 3.33004L3.45356 3.33018C3.5694 3.53931 3.66677 3.75629 3.75312 3.97764L3.75311 3.97764L3.75328 3.97805C3.76289 4.00207 3.77579 4.0227 3.79118 4.04577C3.7956 4.05239 3.80026 4.05927 3.80526 4.06664C3.81813 4.08564 3.83322 4.1079 3.85202 4.13742L3.90007 4.21287L3.93917 4.13242C3.95916 4.09129 3.97711 4.05642 3.99376 4.02409C4.00395 4.0043 4.01364 3.98546 4.02302 3.96673C4.04679 3.91921 4.06706 3.87501 4.08151 3.82794M3.65984 2.54667L3.62731 2.50869C3.65206 2.48749 3.68385 2.48127 3.70449 2.4776C3.71054 2.47653 3.71615 2.4756 3.72144 2.47473C3.73795 2.472 3.75129 2.4698 3.765 2.46523L3.82787 2.44429L3.83075 2.5105C3.83321 2.56691 3.83292 2.62336 3.83265 2.67681C3.83251 2.70624 3.83236 2.73476 3.83268 2.76187C3.83362 2.84047 3.8383 2.9122 3.85569 2.97999C3.8731 3.04786 3.90397 3.11454 3.94066 3.18324C3.95549 3.21099 3.97226 3.24077 3.98935 3.27112C4.01218 3.31168 4.0356 3.35325 4.05571 3.39238C4.13068 3.53408 4.13445 3.6806 4.08151 3.82794M3.65984 2.54667C3.67591 2.5329 3.70034 2.52889 3.72721 2.52448C3.72854 2.52426 3.72987 2.52404 3.73121 2.52382M3.65984 2.54667C3.4217 2.7431 3.34988 3.03775 3.4973 3.30595C3.61448 3.5175 3.71276 3.73659 3.7997 3.95947C3.80933 3.98353 3.82356 4.00452 3.84629 4.03806C3.85124 4.04536 3.85659 4.05326 3.86239 4.06192C3.85806 4.07065 3.85366 4.07958 3.84923 4.08871L3.8942 4.11057L3.93637 4.08371C3.93066 4.07473 3.92521 4.06632 3.92005 4.05843M4.08151 3.82794C4.08137 3.82834 4.08123 3.82874 4.08108 3.82914L4.03406 3.81214M4.08151 3.82794C4.08164 3.82753 4.08176 3.82712 4.08189 3.82671L4.03406 3.81214M4.03406 3.81214C4.01588 3.87184 3.98699 3.92797 3.94985 4.00014C3.94043 4.01843 3.93049 4.03776 3.92005 4.05843M4.03406 3.81214C4.0832 3.67615 4.07942 3.54394 4.01138 3.4155C3.99111 3.37605 3.96903 3.3369 3.94693 3.29771C3.89073 3.19806 3.83439 3.09816 3.80726 2.99242C3.78152 2.8921 3.78207 2.78652 3.78265 2.6745C3.78284 2.63846 3.78303 2.60176 3.78236 2.56435L3.92005 4.05843M3.92005 4.05843L3.73121 2.52382M3.73121 2.52382C3.7311 2.52084 3.73098 2.51784 3.73085 2.51484L3.7808 2.51267L3.73121 2.52382Z" fill="#020304" stroke="black" stroke-width="0.1"/>
<path d="M13.8961 2.16268L13.9154 2.05561L13.8216 2.11068C13.6986 2.18287 13.6127 2.2593 13.5632 2.34807C13.5129 2.43822 13.5032 2.53541 13.5217 2.64209L13.5217 2.64209L13.5218 2.6425C13.5545 2.8225 13.6527 2.98253 13.835 3.15698L13.8819 3.20186L13.9133 3.14505C13.9977 2.99241 14.0293 2.82442 13.9531 2.65485C13.892 2.51466 13.8567 2.38126 13.8961 2.16268Z" fill="#020304" stroke="black" stroke-width="0.1"/>
</svg>
