<svg width="18" height="19" viewBox="0 0 18 19" fill="none" xmlns="http://www.w3.org/2000/svg">
<mask id="path-1-outside-1_2_5556" maskUnits="userSpaceOnUse" x="-3.8147e-06" y="3.14886" width="15" height="16" fill="black">
<rect fill="white" x="-3.8147e-06" y="3.14886" width="15" height="16"/>
<path d="M9.13073 9.06473C9.10427 9.06096 9.07403 9.04585 9.04757 9.04963C8.74517 9.08362 8.48435 8.97785 8.23865 8.82675C7.95138 8.64543 7.69056 8.43389 7.46754 8.17701C7.27854 7.96169 7.13112 7.71993 7.03662 7.45173C6.82872 6.86999 6.94968 6.35246 7.37304 5.91804C7.80774 5.46851 8.34449 5.34386 8.94551 5.52518C9.17987 5.59317 9.39532 5.71028 9.58054 5.86894C9.61834 5.90293 9.65992 5.93315 9.71662 5.97471C9.74686 5.86516 9.77332 5.77827 9.79978 5.68761C9.97366 5.13609 10.2912 4.69789 10.7977 4.39569C11.2097 4.14637 11.652 4.09349 12.1131 4.20304C12.5856 4.31259 13.009 4.52791 13.3945 4.81122C13.8066 5.11343 14.0182 5.54029 14.1203 6.02759C14.2677 6.74532 13.9993 7.51972 13.4399 8.0108C13.4021 8.0448 13.3681 8.0788 13.3341 8.1128C13.3567 8.1959 13.421 8.18079 13.4664 8.1959C13.7952 8.30922 14.0636 8.50944 14.2791 8.77387C14.5134 9.06474 14.6646 9.39716 14.7327 9.76358C14.7856 10.0393 14.7478 10.3075 14.6117 10.5531C14.3244 11.0706 13.9048 11.4333 13.3152 11.5919C13.0657 11.6599 12.8086 11.6561 12.5554 11.6184C11.9959 11.539 11.5008 11.3086 11.0736 10.946C10.8695 10.7722 10.7145 10.5606 10.6654 10.2924C10.6578 10.2547 10.6352 10.2169 10.62 10.1791C10.5898 10.1904 10.5671 10.1942 10.5596 10.2056C10.2269 10.8402 9.83002 11.4333 9.42935 12.0226C8.88881 12.8121 8.32181 13.5789 7.75482 14.3495C7.30122 14.969 6.83628 15.5772 6.37134 16.1892C5.86483 16.8616 5.31673 17.5 4.74595 18.1157C4.70438 18.1611 4.65523 18.2064 4.60609 18.2442C4.42088 18.3839 4.35284 18.3764 4.15628 18.2366C4.0202 18.1384 3.87656 18.0477 3.73292 17.9608C3.09032 17.5567 2.44017 17.1562 1.80135 16.752C1.51785 16.5707 1.26459 16.3478 0.999996 16.125C1.08694 15.7925 1.30995 15.5583 1.52541 15.2977C2.14533 15.5054 2.65563 15.8756 3.12812 16.2534C3.23396 16.2496 3.23018 16.1854 3.25286 16.1439C3.27554 16.0985 3.29066 16.0494 3.30956 15.989C3.04874 15.8039 2.78792 15.6263 2.53467 15.4412C2.28897 15.2599 2.04705 15.0748 1.82781 14.8293C1.94499 14.5308 2.03949 14.2211 2.35323 14.0209C2.90511 14.3269 3.4343 14.6668 3.93704 15.0786C4.02398 15.0106 4.06178 14.9199 4.1147 14.8104C4.05422 14.765 3.99752 14.7235 3.9446 14.6819C3.61952 14.4288 3.29822 14.1758 2.97314 13.9189C2.90889 13.866 2.84841 13.8056 2.78415 13.7489C2.71233 13.6847 2.70477 13.6053 2.74257 13.5185C2.76903 13.4618 2.79549 13.4014 2.82951 13.3522C2.92401 13.2125 3.01851 13.0765 3.12434 12.9443C3.24908 12.7818 3.35492 12.7592 3.53636 12.8612C3.65354 12.9292 3.77072 13.0047 3.87656 13.0916C4.4171 13.5298 4.95007 13.9755 5.48683 14.4175C5.50195 14.4288 5.52463 14.4364 5.55865 14.4515C5.59645 14.41 5.64181 14.3684 5.67205 14.3193C5.76655 14.1682 5.85349 14.0133 5.94799 13.8622C6.06517 13.6771 6.18234 13.4882 6.3033 13.3069C6.61326 12.8309 6.94212 12.3701 7.23318 11.8828C7.6452 11.199 8.13281 10.5644 8.59019 9.91091C8.77541 9.64648 8.95307 9.37449 9.13451 9.10251C9.13829 9.09873 9.13073 9.08362 9.13073 9.06473ZM10.6616 9.70691C10.7826 9.91846 10.8922 10.1073 11.0018 10.2962C11.1001 10.47 11.2286 10.6249 11.3912 10.7457C11.7011 10.9724 12.0413 11.1424 12.4193 11.2255C13.2887 11.4144 13.9048 11.0139 14.2904 10.4133C14.4 10.2396 14.4454 10.0469 14.4189 9.84291C14.3395 9.31027 14.0976 8.87208 13.644 8.56232C13.3681 8.37344 13.0581 8.27523 12.7104 8.33189C12.6159 8.347 12.5214 8.34322 12.4269 8.33945C12.4042 8.33945 12.3702 8.30167 12.3626 8.279C12.355 8.25634 12.3739 8.21101 12.3928 8.19968C12.5667 8.10146 12.7444 8.00702 12.922 7.90881C13.232 7.73882 13.455 7.49705 13.5684 7.16463C13.6213 7.00597 13.6856 6.84731 13.7121 6.68488C13.8066 6.06536 13.6629 5.51762 13.164 5.10209C12.8275 4.82633 12.4344 4.63746 12.0111 4.52413C11.6444 4.42969 11.2967 4.46746 10.964 4.64501C10.3328 4.98499 10.0228 5.52518 9.93586 6.20891C9.92452 6.28069 9.93208 6.35624 9.91318 6.42423C9.90562 6.45446 9.86026 6.49601 9.82624 6.49978C9.79222 6.50356 9.7393 6.48468 9.71662 6.45446C9.6826 6.40535 9.67126 6.33735 9.64102 6.28446C9.59944 6.21269 9.56165 6.12958 9.49739 6.08425C9.08915 5.80471 8.64689 5.65361 8.14793 5.80094C7.53936 5.97848 7.05174 6.65466 7.33146 7.36484C7.38816 7.50839 7.46376 7.65193 7.54692 7.78037C7.7397 8.07502 7.99674 8.30545 8.28401 8.50566C8.49569 8.65298 8.72249 8.75876 8.98709 8.76631C9.12317 8.77009 9.26303 8.79275 9.39911 8.80786C9.44825 8.81542 9.49739 8.83053 9.56543 8.84942C9.55031 8.91363 9.54274 8.96274 9.52762 9.01185C9.41422 9.32916 9.26303 9.62381 9.05891 9.89579C8.73761 10.3264 8.42387 10.7571 8.11013 11.1915C7.97405 11.3804 7.84931 11.573 7.7208 11.7657C7.41084 12.2379 7.10466 12.7176 6.79092 13.1898C6.72666 13.2842 6.65106 13.3749 6.58302 13.4656C6.41293 13.6922 6.24661 13.9189 6.08029 14.1493C5.98957 14.2777 5.90641 14.41 5.81569 14.5422C5.66827 14.7575 5.56999 14.7726 5.34697 14.6177C5.32807 14.6064 5.31295 14.5913 5.29783 14.5799C4.67036 14.1644 4.11092 13.6658 3.55904 13.1634C3.51368 13.1218 3.46454 13.0916 3.40784 13.05C3.3209 13.1634 3.24908 13.2654 3.16592 13.3598C3.08654 13.4542 2.99583 13.5411 2.89755 13.6431C3.01095 13.7149 3.10166 13.7716 3.23018 13.7904C3.23018 13.6771 3.23018 13.5865 3.23018 13.4429C3.28688 13.526 3.3209 13.56 3.33602 13.6016C3.36626 13.6885 3.38516 13.7829 3.41162 13.8736C3.43808 13.9718 3.50612 14.0209 3.61574 14.0398C3.61574 13.9 3.61574 13.7753 3.61574 13.6091C3.8123 13.8018 3.79718 14.036 3.9068 14.2626C3.9257 14.1455 3.93704 14.07 3.95216 13.9793C3.98996 14.002 4.02776 14.0133 4.0391 14.036C4.07312 14.1115 4.0958 14.1909 4.12604 14.2702C4.12982 14.2853 4.14872 14.2929 4.16006 14.3042C4.21298 14.2777 4.18274 14.1682 4.28858 14.1946C4.36795 14.3646 4.37173 14.5535 4.38307 14.7386C4.39819 14.9955 4.247 15.1541 4.04666 15.2599C3.8879 15.343 3.74426 15.2372 3.60818 15.1541C3.58172 15.139 3.55526 15.1164 3.53258 15.0975C3.21884 14.8482 2.9051 14.5988 2.58759 14.3533C2.54223 14.3193 2.48931 14.2929 2.42883 14.2589C2.36457 14.3797 2.31543 14.478 2.27007 14.5611C2.31543 14.7159 2.36079 14.8444 2.39481 14.9766C2.42505 15.1013 2.51199 15.1541 2.65185 15.1844C2.63673 15.0786 2.62539 14.9955 2.61405 14.9162C2.60271 14.8293 2.58003 14.7424 2.62539 14.6102C2.76147 14.8784 2.80683 15.1239 2.86353 15.3581C2.92778 15.4148 2.98826 15.4639 3.09032 15.4828C3.07142 15.3279 3.05252 15.1957 3.03362 15.0295C3.16592 15.1315 3.19238 15.2486 3.21128 15.3543C3.24152 15.5394 3.31334 15.6868 3.4532 15.8114C3.5855 15.9323 3.58928 16.023 3.49478 16.1703C3.4343 16.2647 3.36248 16.3554 3.30578 16.4385C3.39272 16.8011 3.47588 17.1449 3.56282 17.4962C3.60062 17.5264 3.63842 17.5642 3.68 17.5944C3.72536 17.6284 3.77828 17.6511 3.86522 17.7002C3.80852 17.4773 3.76316 17.296 3.72158 17.1147C3.68 16.9371 3.58928 16.7671 3.62708 16.5178C3.68378 16.6123 3.72158 16.6614 3.74426 16.7143C3.90302 17.0693 4.04666 17.4282 4.12604 17.806C4.14116 17.8702 4.15628 17.9269 4.25834 17.9306C4.25078 17.8589 4.247 17.7909 4.23944 17.7229C4.23188 17.6511 4.21676 17.5793 4.20542 17.5075C4.19408 17.4358 4.1903 17.364 4.17896 17.2884C4.16762 17.2167 4.15628 17.1449 4.14116 17.0731C4.12982 17.0089 4.1147 16.9447 4.14872 16.8616C4.31126 17.0353 4.27346 17.262 4.39442 17.4395C4.42844 17.398 4.45867 17.3716 4.47757 17.3376C4.74217 16.8578 5.06347 16.4158 5.39233 15.9814C5.56243 15.7585 5.76655 15.5546 5.95555 15.3468C5.98201 15.3166 6.01981 15.2864 6.07272 15.3543C5.96311 15.5583 5.86861 15.7812 5.73631 15.9814C5.34697 16.5669 4.88581 17.0996 4.42088 17.6511C4.42088 17.7946 4.42088 17.7946 4.48514 17.908C4.5116 17.8891 4.53806 17.8702 4.55696 17.8513C5.04079 17.3527 5.47927 16.8125 5.89885 16.261C6.48474 15.4941 7.05552 14.7122 7.63008 13.9378C8.00429 13.4316 8.38607 12.9292 8.75273 12.4154C9.15719 11.8526 9.54275 11.2784 9.93964 10.7117C10.1778 10.3944 10.4084 10.0696 10.6616 9.70691ZM2.77281 16.3063C2.78415 16.3705 2.78415 16.4121 2.79549 16.4461C2.84463 16.6047 2.9051 16.7634 2.93912 16.9258C2.97692 17.1033 3.08654 17.1902 3.26798 17.2507C3.23774 16.9674 3.22262 16.7029 3.14324 16.4423C3.02606 16.3969 2.91267 16.3554 2.77281 16.3063ZM2.72366 16.888C2.68587 16.65 2.65563 16.4461 2.62161 16.2421C2.61405 16.2043 2.59515 16.159 2.56869 16.1325C2.47797 16.0532 2.37591 15.9814 2.25495 15.9436C2.24739 15.9776 2.23605 15.9965 2.23983 16.0154C2.30409 16.2232 2.37591 16.4309 2.43261 16.6425C2.46663 16.7823 2.55735 16.8465 2.72366 16.888ZM1.75599 15.6301C1.86183 15.9436 1.94877 16.2194 2.04705 16.4914C2.06595 16.5405 2.11509 16.5934 2.20959 16.5518C2.15667 16.3441 2.09997 16.1363 2.05461 15.9248C2.02437 15.7737 1.94499 15.6792 1.75599 15.6301ZM1.59723 15.649C1.53297 15.7434 1.47627 15.7888 1.48383 15.8152C1.52541 15.9512 1.58211 16.0834 1.64259 16.2156C1.65393 16.2421 1.70307 16.2496 1.76355 16.2836C1.74087 16.0645 1.65771 15.8983 1.59723 15.649ZM2.20959 14.9086C2.19447 14.8406 2.19447 14.8066 2.17935 14.7802C2.16423 14.7575 2.13021 14.7311 2.11131 14.7348C2.08485 14.7386 2.05083 14.7688 2.04705 14.7953C2.04327 14.8179 2.06595 14.8519 2.08863 14.8708C2.11131 14.8859 2.14533 14.8897 2.20959 14.9086ZM1.37044 15.9739C1.35532 15.9663 1.34398 15.9588 1.32886 15.955C1.32508 15.955 1.30995 15.9701 1.30995 15.9739C1.31751 15.9852 1.32885 15.9965 1.34019 16.0079C1.34775 15.9965 1.3591 15.9852 1.37044 15.9739Z"/>
</mask>
<path d="M9.13073 9.06473C9.10427 9.06096 9.07403 9.04585 9.04757 9.04963C8.74517 9.08362 8.48435 8.97785 8.23865 8.82675C7.95138 8.64543 7.69056 8.43389 7.46754 8.17701C7.27854 7.96169 7.13112 7.71993 7.03662 7.45173C6.82872 6.86999 6.94968 6.35246 7.37304 5.91804C7.80774 5.46851 8.34449 5.34386 8.94551 5.52518C9.17987 5.59317 9.39532 5.71028 9.58054 5.86894C9.61834 5.90293 9.65992 5.93315 9.71662 5.97471C9.74686 5.86516 9.77332 5.77827 9.79978 5.68761C9.97366 5.13609 10.2912 4.69789 10.7977 4.39569C11.2097 4.14637 11.652 4.09349 12.1131 4.20304C12.5856 4.31259 13.009 4.52791 13.3945 4.81122C13.8066 5.11343 14.0182 5.54029 14.1203 6.02759C14.2677 6.74532 13.9993 7.51972 13.4399 8.0108C13.4021 8.0448 13.3681 8.0788 13.3341 8.1128C13.3567 8.1959 13.421 8.18079 13.4664 8.1959C13.7952 8.30922 14.0636 8.50944 14.2791 8.77387C14.5134 9.06474 14.6646 9.39716 14.7327 9.76358C14.7856 10.0393 14.7478 10.3075 14.6117 10.5531C14.3244 11.0706 13.9048 11.4333 13.3152 11.5919C13.0657 11.6599 12.8086 11.6561 12.5554 11.6184C11.9959 11.539 11.5008 11.3086 11.0736 10.946C10.8695 10.7722 10.7145 10.5606 10.6654 10.2924C10.6578 10.2547 10.6352 10.2169 10.62 10.1791C10.5898 10.1904 10.5671 10.1942 10.5596 10.2056C10.2269 10.8402 9.83002 11.4333 9.42935 12.0226C8.88881 12.8121 8.32181 13.5789 7.75482 14.3495C7.30122 14.969 6.83628 15.5772 6.37134 16.1892C5.86483 16.8616 5.31673 17.5 4.74595 18.1157C4.70438 18.1611 4.65523 18.2064 4.60609 18.2442C4.42088 18.3839 4.35284 18.3764 4.15628 18.2366C4.0202 18.1384 3.87656 18.0477 3.73292 17.9608C3.09032 17.5567 2.44017 17.1562 1.80135 16.752C1.51785 16.5707 1.26459 16.3478 0.999996 16.125C1.08694 15.7925 1.30995 15.5583 1.52541 15.2977C2.14533 15.5054 2.65563 15.8756 3.12812 16.2534C3.23396 16.2496 3.23018 16.1854 3.25286 16.1439C3.27554 16.0985 3.29066 16.0494 3.30956 15.989C3.04874 15.8039 2.78792 15.6263 2.53467 15.4412C2.28897 15.2599 2.04705 15.0748 1.82781 14.8293C1.94499 14.5308 2.03949 14.2211 2.35323 14.0209C2.90511 14.3269 3.4343 14.6668 3.93704 15.0786C4.02398 15.0106 4.06178 14.9199 4.1147 14.8104C4.05422 14.765 3.99752 14.7235 3.9446 14.6819C3.61952 14.4288 3.29822 14.1758 2.97314 13.9189C2.90889 13.866 2.84841 13.8056 2.78415 13.7489C2.71233 13.6847 2.70477 13.6053 2.74257 13.5185C2.76903 13.4618 2.79549 13.4014 2.82951 13.3522C2.92401 13.2125 3.01851 13.0765 3.12434 12.9443C3.24908 12.7818 3.35492 12.7592 3.53636 12.8612C3.65354 12.9292 3.77072 13.0047 3.87656 13.0916C4.4171 13.5298 4.95007 13.9755 5.48683 14.4175C5.50195 14.4288 5.52463 14.4364 5.55865 14.4515C5.59645 14.41 5.64181 14.3684 5.67205 14.3193C5.76655 14.1682 5.85349 14.0133 5.94799 13.8622C6.06517 13.6771 6.18234 13.4882 6.3033 13.3069C6.61326 12.8309 6.94212 12.3701 7.23318 11.8828C7.6452 11.199 8.13281 10.5644 8.59019 9.91091C8.77541 9.64648 8.95307 9.37449 9.13451 9.10251C9.13829 9.09873 9.13073 9.08362 9.13073 9.06473ZM10.6616 9.70691C10.7826 9.91846 10.8922 10.1073 11.0018 10.2962C11.1001 10.47 11.2286 10.6249 11.3912 10.7457C11.7011 10.9724 12.0413 11.1424 12.4193 11.2255C13.2887 11.4144 13.9048 11.0139 14.2904 10.4133C14.4 10.2396 14.4454 10.0469 14.4189 9.84291C14.3395 9.31027 14.0976 8.87208 13.644 8.56232C13.3681 8.37344 13.0581 8.27523 12.7104 8.33189C12.6159 8.347 12.5214 8.34322 12.4269 8.33945C12.4042 8.33945 12.3702 8.30167 12.3626 8.279C12.355 8.25634 12.3739 8.21101 12.3928 8.19968C12.5667 8.10146 12.7444 8.00702 12.922 7.90881C13.232 7.73882 13.455 7.49705 13.5684 7.16463C13.6213 7.00597 13.6856 6.84731 13.7121 6.68488C13.8066 6.06536 13.6629 5.51762 13.164 5.10209C12.8275 4.82633 12.4344 4.63746 12.0111 4.52413C11.6444 4.42969 11.2967 4.46746 10.964 4.64501C10.3328 4.98499 10.0228 5.52518 9.93586 6.20891C9.92452 6.28069 9.93208 6.35624 9.91318 6.42423C9.90562 6.45446 9.86026 6.49601 9.82624 6.49978C9.79222 6.50356 9.7393 6.48468 9.71662 6.45446C9.6826 6.40535 9.67126 6.33735 9.64102 6.28446C9.59944 6.21269 9.56165 6.12958 9.49739 6.08425C9.08915 5.80471 8.64689 5.65361 8.14793 5.80094C7.53936 5.97848 7.05174 6.65466 7.33146 7.36484C7.38816 7.50839 7.46376 7.65193 7.54692 7.78037C7.7397 8.07502 7.99674 8.30545 8.28401 8.50566C8.49569 8.65298 8.72249 8.75876 8.98709 8.76631C9.12317 8.77009 9.26303 8.79275 9.39911 8.80786C9.44825 8.81542 9.49739 8.83053 9.56543 8.84942C9.55031 8.91363 9.54274 8.96274 9.52762 9.01185C9.41422 9.32916 9.26303 9.62381 9.05891 9.89579C8.73761 10.3264 8.42387 10.7571 8.11013 11.1915C7.97405 11.3804 7.84931 11.573 7.7208 11.7657C7.41084 12.2379 7.10466 12.7176 6.79092 13.1898C6.72666 13.2842 6.65106 13.3749 6.58302 13.4656C6.41293 13.6922 6.24661 13.9189 6.08029 14.1493C5.98957 14.2777 5.90641 14.41 5.81569 14.5422C5.66827 14.7575 5.56999 14.7726 5.34697 14.6177C5.32807 14.6064 5.31295 14.5913 5.29783 14.5799C4.67036 14.1644 4.11092 13.6658 3.55904 13.1634C3.51368 13.1218 3.46454 13.0916 3.40784 13.05C3.3209 13.1634 3.24908 13.2654 3.16592 13.3598C3.08654 13.4542 2.99583 13.5411 2.89755 13.6431C3.01095 13.7149 3.10166 13.7716 3.23018 13.7904C3.23018 13.6771 3.23018 13.5865 3.23018 13.4429C3.28688 13.526 3.3209 13.56 3.33602 13.6016C3.36626 13.6885 3.38516 13.7829 3.41162 13.8736C3.43808 13.9718 3.50612 14.0209 3.61574 14.0398C3.61574 13.9 3.61574 13.7753 3.61574 13.6091C3.8123 13.8018 3.79718 14.036 3.9068 14.2626C3.9257 14.1455 3.93704 14.07 3.95216 13.9793C3.98996 14.002 4.02776 14.0133 4.0391 14.036C4.07312 14.1115 4.0958 14.1909 4.12604 14.2702C4.12982 14.2853 4.14872 14.2929 4.16006 14.3042C4.21298 14.2777 4.18274 14.1682 4.28858 14.1946C4.36795 14.3646 4.37173 14.5535 4.38307 14.7386C4.39819 14.9955 4.247 15.1541 4.04666 15.2599C3.8879 15.343 3.74426 15.2372 3.60818 15.1541C3.58172 15.139 3.55526 15.1164 3.53258 15.0975C3.21884 14.8482 2.9051 14.5988 2.58759 14.3533C2.54223 14.3193 2.48931 14.2929 2.42883 14.2589C2.36457 14.3797 2.31543 14.478 2.27007 14.5611C2.31543 14.7159 2.36079 14.8444 2.39481 14.9766C2.42505 15.1013 2.51199 15.1541 2.65185 15.1844C2.63673 15.0786 2.62539 14.9955 2.61405 14.9162C2.60271 14.8293 2.58003 14.7424 2.62539 14.6102C2.76147 14.8784 2.80683 15.1239 2.86353 15.3581C2.92778 15.4148 2.98826 15.4639 3.09032 15.4828C3.07142 15.3279 3.05252 15.1957 3.03362 15.0295C3.16592 15.1315 3.19238 15.2486 3.21128 15.3543C3.24152 15.5394 3.31334 15.6868 3.4532 15.8114C3.5855 15.9323 3.58928 16.023 3.49478 16.1703C3.4343 16.2647 3.36248 16.3554 3.30578 16.4385C3.39272 16.8011 3.47588 17.1449 3.56282 17.4962C3.60062 17.5264 3.63842 17.5642 3.68 17.5944C3.72536 17.6284 3.77828 17.6511 3.86522 17.7002C3.80852 17.4773 3.76316 17.296 3.72158 17.1147C3.68 16.9371 3.58928 16.7671 3.62708 16.5178C3.68378 16.6123 3.72158 16.6614 3.74426 16.7143C3.90302 17.0693 4.04666 17.4282 4.12604 17.806C4.14116 17.8702 4.15628 17.9269 4.25834 17.9306C4.25078 17.8589 4.247 17.7909 4.23944 17.7229C4.23188 17.6511 4.21676 17.5793 4.20542 17.5075C4.19408 17.4358 4.1903 17.364 4.17896 17.2884C4.16762 17.2167 4.15628 17.1449 4.14116 17.0731C4.12982 17.0089 4.1147 16.9447 4.14872 16.8616C4.31126 17.0353 4.27346 17.262 4.39442 17.4395C4.42844 17.398 4.45867 17.3716 4.47757 17.3376C4.74217 16.8578 5.06347 16.4158 5.39233 15.9814C5.56243 15.7585 5.76655 15.5546 5.95555 15.3468C5.98201 15.3166 6.01981 15.2864 6.07272 15.3543C5.96311 15.5583 5.86861 15.7812 5.73631 15.9814C5.34697 16.5669 4.88581 17.0996 4.42088 17.6511C4.42088 17.7946 4.42088 17.7946 4.48514 17.908C4.5116 17.8891 4.53806 17.8702 4.55696 17.8513C5.04079 17.3527 5.47927 16.8125 5.89885 16.261C6.48474 15.4941 7.05552 14.7122 7.63008 13.9378C8.00429 13.4316 8.38607 12.9292 8.75273 12.4154C9.15719 11.8526 9.54275 11.2784 9.93964 10.7117C10.1778 10.3944 10.4084 10.0696 10.6616 9.70691ZM2.77281 16.3063C2.78415 16.3705 2.78415 16.4121 2.79549 16.4461C2.84463 16.6047 2.9051 16.7634 2.93912 16.9258C2.97692 17.1033 3.08654 17.1902 3.26798 17.2507C3.23774 16.9674 3.22262 16.7029 3.14324 16.4423C3.02606 16.3969 2.91267 16.3554 2.77281 16.3063ZM2.72366 16.888C2.68587 16.65 2.65563 16.4461 2.62161 16.2421C2.61405 16.2043 2.59515 16.159 2.56869 16.1325C2.47797 16.0532 2.37591 15.9814 2.25495 15.9436C2.24739 15.9776 2.23605 15.9965 2.23983 16.0154C2.30409 16.2232 2.37591 16.4309 2.43261 16.6425C2.46663 16.7823 2.55735 16.8465 2.72366 16.888ZM1.75599 15.6301C1.86183 15.9436 1.94877 16.2194 2.04705 16.4914C2.06595 16.5405 2.11509 16.5934 2.20959 16.5518C2.15667 16.3441 2.09997 16.1363 2.05461 15.9248C2.02437 15.7737 1.94499 15.6792 1.75599 15.6301ZM1.59723 15.649C1.53297 15.7434 1.47627 15.7888 1.48383 15.8152C1.52541 15.9512 1.58211 16.0834 1.64259 16.2156C1.65393 16.2421 1.70307 16.2496 1.76355 16.2836C1.74087 16.0645 1.65771 15.8983 1.59723 15.649ZM2.20959 14.9086C2.19447 14.8406 2.19447 14.8066 2.17935 14.7802C2.16423 14.7575 2.13021 14.7311 2.11131 14.7348C2.08485 14.7386 2.05083 14.7688 2.04705 14.7953C2.04327 14.8179 2.06595 14.8519 2.08863 14.8708C2.11131 14.8859 2.14533 14.8897 2.20959 14.9086ZM1.37044 15.9739C1.35532 15.9663 1.34398 15.9588 1.32886 15.955C1.32508 15.955 1.30995 15.9701 1.30995 15.9739C1.31751 15.9852 1.32885 15.9965 1.34019 16.0079C1.34775 15.9965 1.3591 15.9852 1.37044 15.9739Z" fill="#FD0202"/>
<path d="M9.13073 9.06473C9.10427 9.06096 9.07403 9.04585 9.04757 9.04963C8.74517 9.08362 8.48435 8.97785 8.23865 8.82675C7.95138 8.64543 7.69056 8.43389 7.46754 8.17701C7.27854 7.96169 7.13112 7.71993 7.03662 7.45173C6.82872 6.86999 6.94968 6.35246 7.37304 5.91804C7.80774 5.46851 8.34449 5.34386 8.94551 5.52518C9.17987 5.59317 9.39532 5.71028 9.58054 5.86894C9.61834 5.90293 9.65992 5.93315 9.71662 5.97471C9.74686 5.86516 9.77332 5.77827 9.79978 5.68761C9.97366 5.13609 10.2912 4.69789 10.7977 4.39569C11.2097 4.14637 11.652 4.09349 12.1131 4.20304C12.5856 4.31259 13.009 4.52791 13.3945 4.81122C13.8066 5.11343 14.0182 5.54029 14.1203 6.02759C14.2677 6.74532 13.9993 7.51972 13.4399 8.0108C13.4021 8.0448 13.3681 8.0788 13.3341 8.1128C13.3567 8.1959 13.421 8.18079 13.4664 8.1959C13.7952 8.30922 14.0636 8.50944 14.2791 8.77387C14.5134 9.06474 14.6646 9.39716 14.7327 9.76358C14.7856 10.0393 14.7478 10.3075 14.6117 10.5531C14.3244 11.0706 13.9048 11.4333 13.3152 11.5919C13.0657 11.6599 12.8086 11.6561 12.5554 11.6184C11.9959 11.539 11.5008 11.3086 11.0736 10.946C10.8695 10.7722 10.7145 10.5606 10.6654 10.2924C10.6578 10.2547 10.6352 10.2169 10.62 10.1791C10.5898 10.1904 10.5671 10.1942 10.5596 10.2056C10.2269 10.8402 9.83002 11.4333 9.42935 12.0226C8.88881 12.8121 8.32181 13.5789 7.75482 14.3495C7.30122 14.969 6.83628 15.5772 6.37134 16.1892C5.86483 16.8616 5.31673 17.5 4.74595 18.1157C4.70438 18.1611 4.65523 18.2064 4.60609 18.2442C4.42088 18.3839 4.35284 18.3764 4.15628 18.2366C4.0202 18.1384 3.87656 18.0477 3.73292 17.9608C3.09032 17.5567 2.44017 17.1562 1.80135 16.752C1.51785 16.5707 1.26459 16.3478 0.999996 16.125C1.08694 15.7925 1.30995 15.5583 1.52541 15.2977C2.14533 15.5054 2.65563 15.8756 3.12812 16.2534C3.23396 16.2496 3.23018 16.1854 3.25286 16.1439C3.27554 16.0985 3.29066 16.0494 3.30956 15.989C3.04874 15.8039 2.78792 15.6263 2.53467 15.4412C2.28897 15.2599 2.04705 15.0748 1.82781 14.8293C1.94499 14.5308 2.03949 14.2211 2.35323 14.0209C2.90511 14.3269 3.4343 14.6668 3.93704 15.0786C4.02398 15.0106 4.06178 14.9199 4.1147 14.8104C4.05422 14.765 3.99752 14.7235 3.9446 14.6819C3.61952 14.4288 3.29822 14.1758 2.97314 13.9189C2.90889 13.866 2.84841 13.8056 2.78415 13.7489C2.71233 13.6847 2.70477 13.6053 2.74257 13.5185C2.76903 13.4618 2.79549 13.4014 2.82951 13.3522C2.92401 13.2125 3.01851 13.0765 3.12434 12.9443C3.24908 12.7818 3.35492 12.7592 3.53636 12.8612C3.65354 12.9292 3.77072 13.0047 3.87656 13.0916C4.4171 13.5298 4.95007 13.9755 5.48683 14.4175C5.50195 14.4288 5.52463 14.4364 5.55865 14.4515C5.59645 14.41 5.64181 14.3684 5.67205 14.3193C5.76655 14.1682 5.85349 14.0133 5.94799 13.8622C6.06517 13.6771 6.18234 13.4882 6.3033 13.3069C6.61326 12.8309 6.94212 12.3701 7.23318 11.8828C7.6452 11.199 8.13281 10.5644 8.59019 9.91091C8.77541 9.64648 8.95307 9.37449 9.13451 9.10251C9.13829 9.09873 9.13073 9.08362 9.13073 9.06473ZM10.6616 9.70691C10.7826 9.91846 10.8922 10.1073 11.0018 10.2962C11.1001 10.47 11.2286 10.6249 11.3912 10.7457C11.7011 10.9724 12.0413 11.1424 12.4193 11.2255C13.2887 11.4144 13.9048 11.0139 14.2904 10.4133C14.4 10.2396 14.4454 10.0469 14.4189 9.84291C14.3395 9.31027 14.0976 8.87208 13.644 8.56232C13.3681 8.37344 13.0581 8.27523 12.7104 8.33189C12.6159 8.347 12.5214 8.34322 12.4269 8.33945C12.4042 8.33945 12.3702 8.30167 12.3626 8.279C12.355 8.25634 12.3739 8.21101 12.3928 8.19968C12.5667 8.10146 12.7444 8.00702 12.922 7.90881C13.232 7.73882 13.455 7.49705 13.5684 7.16463C13.6213 7.00597 13.6856 6.84731 13.7121 6.68488C13.8066 6.06536 13.6629 5.51762 13.164 5.10209C12.8275 4.82633 12.4344 4.63746 12.0111 4.52413C11.6444 4.42969 11.2967 4.46746 10.964 4.64501C10.3328 4.98499 10.0228 5.52518 9.93586 6.20891C9.92452 6.28069 9.93208 6.35624 9.91318 6.42423C9.90562 6.45446 9.86026 6.49601 9.82624 6.49978C9.79222 6.50356 9.7393 6.48468 9.71662 6.45446C9.6826 6.40535 9.67126 6.33735 9.64102 6.28446C9.59944 6.21269 9.56165 6.12958 9.49739 6.08425C9.08915 5.80471 8.64689 5.65361 8.14793 5.80094C7.53936 5.97848 7.05174 6.65466 7.33146 7.36484C7.38816 7.50839 7.46376 7.65193 7.54692 7.78037C7.7397 8.07502 7.99674 8.30545 8.28401 8.50566C8.49569 8.65298 8.72249 8.75876 8.98709 8.76631C9.12317 8.77009 9.26303 8.79275 9.39911 8.80786C9.44825 8.81542 9.49739 8.83053 9.56543 8.84942C9.55031 8.91363 9.54274 8.96274 9.52762 9.01185C9.41422 9.32916 9.26303 9.62381 9.05891 9.89579C8.73761 10.3264 8.42387 10.7571 8.11013 11.1915C7.97405 11.3804 7.84931 11.573 7.7208 11.7657C7.41084 12.2379 7.10466 12.7176 6.79092 13.1898C6.72666 13.2842 6.65106 13.3749 6.58302 13.4656C6.41293 13.6922 6.24661 13.9189 6.08029 14.1493C5.98957 14.2777 5.90641 14.41 5.81569 14.5422C5.66827 14.7575 5.56999 14.7726 5.34697 14.6177C5.32807 14.6064 5.31295 14.5913 5.29783 14.5799C4.67036 14.1644 4.11092 13.6658 3.55904 13.1634C3.51368 13.1218 3.46454 13.0916 3.40784 13.05C3.3209 13.1634 3.24908 13.2654 3.16592 13.3598C3.08654 13.4542 2.99583 13.5411 2.89755 13.6431C3.01095 13.7149 3.10166 13.7716 3.23018 13.7904C3.23018 13.6771 3.23018 13.5865 3.23018 13.4429C3.28688 13.526 3.3209 13.56 3.33602 13.6016C3.36626 13.6885 3.38516 13.7829 3.41162 13.8736C3.43808 13.9718 3.50612 14.0209 3.61574 14.0398C3.61574 13.9 3.61574 13.7753 3.61574 13.6091C3.8123 13.8018 3.79718 14.036 3.9068 14.2626C3.9257 14.1455 3.93704 14.07 3.95216 13.9793C3.98996 14.002 4.02776 14.0133 4.0391 14.036C4.07312 14.1115 4.0958 14.1909 4.12604 14.2702C4.12982 14.2853 4.14872 14.2929 4.16006 14.3042C4.21298 14.2777 4.18274 14.1682 4.28858 14.1946C4.36795 14.3646 4.37173 14.5535 4.38307 14.7386C4.39819 14.9955 4.247 15.1541 4.04666 15.2599C3.8879 15.343 3.74426 15.2372 3.60818 15.1541C3.58172 15.139 3.55526 15.1164 3.53258 15.0975C3.21884 14.8482 2.9051 14.5988 2.58759 14.3533C2.54223 14.3193 2.48931 14.2929 2.42883 14.2589C2.36457 14.3797 2.31543 14.478 2.27007 14.5611C2.31543 14.7159 2.36079 14.8444 2.39481 14.9766C2.42505 15.1013 2.51199 15.1541 2.65185 15.1844C2.63673 15.0786 2.62539 14.9955 2.61405 14.9162C2.60271 14.8293 2.58003 14.7424 2.62539 14.6102C2.76147 14.8784 2.80683 15.1239 2.86353 15.3581C2.92778 15.4148 2.98826 15.4639 3.09032 15.4828C3.07142 15.3279 3.05252 15.1957 3.03362 15.0295C3.16592 15.1315 3.19238 15.2486 3.21128 15.3543C3.24152 15.5394 3.31334 15.6868 3.4532 15.8114C3.5855 15.9323 3.58928 16.023 3.49478 16.1703C3.4343 16.2647 3.36248 16.3554 3.30578 16.4385C3.39272 16.8011 3.47588 17.1449 3.56282 17.4962C3.60062 17.5264 3.63842 17.5642 3.68 17.5944C3.72536 17.6284 3.77828 17.6511 3.86522 17.7002C3.80852 17.4773 3.76316 17.296 3.72158 17.1147C3.68 16.9371 3.58928 16.7671 3.62708 16.5178C3.68378 16.6123 3.72158 16.6614 3.74426 16.7143C3.90302 17.0693 4.04666 17.4282 4.12604 17.806C4.14116 17.8702 4.15628 17.9269 4.25834 17.9306C4.25078 17.8589 4.247 17.7909 4.23944 17.7229C4.23188 17.6511 4.21676 17.5793 4.20542 17.5075C4.19408 17.4358 4.1903 17.364 4.17896 17.2884C4.16762 17.2167 4.15628 17.1449 4.14116 17.0731C4.12982 17.0089 4.1147 16.9447 4.14872 16.8616C4.31126 17.0353 4.27346 17.262 4.39442 17.4395C4.42844 17.398 4.45867 17.3716 4.47757 17.3376C4.74217 16.8578 5.06347 16.4158 5.39233 15.9814C5.56243 15.7585 5.76655 15.5546 5.95555 15.3468C5.98201 15.3166 6.01981 15.2864 6.07272 15.3543C5.96311 15.5583 5.86861 15.7812 5.73631 15.9814C5.34697 16.5669 4.88581 17.0996 4.42088 17.6511C4.42088 17.7946 4.42088 17.7946 4.48514 17.908C4.5116 17.8891 4.53806 17.8702 4.55696 17.8513C5.04079 17.3527 5.47927 16.8125 5.89885 16.261C6.48474 15.4941 7.05552 14.7122 7.63008 13.9378C8.00429 13.4316 8.38607 12.9292 8.75273 12.4154C9.15719 11.8526 9.54275 11.2784 9.93964 10.7117C10.1778 10.3944 10.4084 10.0696 10.6616 9.70691ZM2.77281 16.3063C2.78415 16.3705 2.78415 16.4121 2.79549 16.4461C2.84463 16.6047 2.9051 16.7634 2.93912 16.9258C2.97692 17.1033 3.08654 17.1902 3.26798 17.2507C3.23774 16.9674 3.22262 16.7029 3.14324 16.4423C3.02606 16.3969 2.91267 16.3554 2.77281 16.3063ZM2.72366 16.888C2.68587 16.65 2.65563 16.4461 2.62161 16.2421C2.61405 16.2043 2.59515 16.159 2.56869 16.1325C2.47797 16.0532 2.37591 15.9814 2.25495 15.9436C2.24739 15.9776 2.23605 15.9965 2.23983 16.0154C2.30409 16.2232 2.37591 16.4309 2.43261 16.6425C2.46663 16.7823 2.55735 16.8465 2.72366 16.888ZM1.75599 15.6301C1.86183 15.9436 1.94877 16.2194 2.04705 16.4914C2.06595 16.5405 2.11509 16.5934 2.20959 16.5518C2.15667 16.3441 2.09997 16.1363 2.05461 15.9248C2.02437 15.7737 1.94499 15.6792 1.75599 15.6301ZM1.59723 15.649C1.53297 15.7434 1.47627 15.7888 1.48383 15.8152C1.52541 15.9512 1.58211 16.0834 1.64259 16.2156C1.65393 16.2421 1.70307 16.2496 1.76355 16.2836C1.74087 16.0645 1.65771 15.8983 1.59723 15.649ZM2.20959 14.9086C2.19447 14.8406 2.19447 14.8066 2.17935 14.7802C2.16423 14.7575 2.13021 14.7311 2.11131 14.7348C2.08485 14.7386 2.05083 14.7688 2.04705 14.7953C2.04327 14.8179 2.06595 14.8519 2.08863 14.8708C2.11131 14.8859 2.14533 14.8897 2.20959 14.9086ZM1.37044 15.9739C1.35532 15.9663 1.34398 15.9588 1.32886 15.955C1.32508 15.955 1.30995 15.9701 1.30995 15.9739C1.31751 15.9852 1.32885 15.9965 1.34019 16.0079C1.34775 15.9965 1.3591 15.9852 1.37044 15.9739Z" stroke="#BC0202" stroke-width="0.2" mask="url(#path-1-outside-1_2_5556)"/>
<path d="M14.2674 1.57174C13.7498 2.17272 13.3471 2.85265 12.9763 3.54478L12.9763 3.54478L12.9759 3.54542C12.9302 3.63367 12.9048 3.73285 12.881 3.82584C12.8736 3.85464 12.8664 3.88284 12.8588 3.90995L12.8587 3.90992L12.8581 3.91264C12.8521 3.9398 12.8556 3.96593 12.8592 3.98544C12.8609 3.995 12.8625 4.00245 12.8639 4.00893C12.866 4.01842 12.8676 4.02584 12.8686 4.03479L12.8729 4.07399L12.9121 4.07888C12.919 4.07974 12.9249 4.08061 12.9301 4.08141L12.9451 4.0836L12.9457 4.08366C12.953 4.0846 12.9715 4.08691 12.9898 4.07777L12.9898 4.07784L12.9922 4.07646C12.9999 4.07207 13.007 4.0685 13.0154 4.06434C13.0202 4.06192 13.0255 4.05931 13.0315 4.05621C13.0456 4.04888 13.0623 4.03961 13.0777 4.02706C13.2937 3.86574 13.4339 3.64662 13.5622 3.43159L13.5622 3.43155C13.8347 2.97404 14.0994 2.51284 14.3641 2.04813L14.3642 2.04791C14.4339 1.92402 14.4879 1.79684 14.5373 1.67153L14.5374 1.67115C14.5508 1.6364 14.5511 1.59929 14.5497 1.56861C14.5489 1.55371 14.5479 1.54119 14.547 1.52962C14.5457 1.51356 14.5445 1.49934 14.5445 1.4832V1.4332H14.4945C14.4877 1.4332 14.4831 1.43258 14.4768 1.43174C14.4744 1.43142 14.4718 1.43107 14.4687 1.43071C14.4643 1.43019 14.4557 1.42925 14.4464 1.43038C14.4364 1.43162 14.4235 1.43553 14.4121 1.44582C14.3977 1.45801 14.3839 1.46877 14.3694 1.48001C14.36 1.48736 14.3502 1.49493 14.3399 1.50324C14.3151 1.52315 14.2894 1.54535 14.2674 1.57174ZM14.2674 1.57174C14.2675 1.57164 14.2675 1.57155 14.2676 1.57145L14.3055 1.60408M14.2674 1.57174C14.2673 1.57185 14.2672 1.57195 14.2671 1.57206L14.3055 1.60408M14.3055 1.60408C14.3315 1.57291 14.3646 1.5471 14.3988 1.52051C14.414 1.50865 14.4294 1.49664 14.4445 1.48393M14.3055 1.60408C13.7914 2.20093 13.3908 2.87711 13.0203 3.5684C12.9775 3.65109 12.9541 3.74239 12.9306 3.83418C12.9229 3.86399 12.9153 3.89385 12.9069 3.92349C12.9018 3.94644 12.9071 3.9711 12.9122 3.99517C12.9146 4.00676 12.917 4.01821 12.9183 4.02926C12.9271 4.03037 12.9344 4.03148 12.9404 4.03239C12.9548 4.03461 12.9621 4.03571 12.9674 4.03304C12.9762 4.02801 12.9855 4.02339 12.9947 4.01877C13.0132 4.00954 13.0317 4.0003 13.0468 3.98771C13.2547 3.83283 13.3908 3.62129 13.5193 3.40597L14.4445 1.48393M14.4445 1.48393C14.4445 1.48368 14.4445 1.48344 14.4445 1.4832H14.4454L14.4445 1.48393Z" fill="#FD0202" stroke="#BC0202" stroke-width="0.1"/>
<path d="M11.0656 3.92572L11.0118 3.87199C10.9982 3.85834 10.9857 3.84761 10.9729 3.83655C10.9675 3.83186 10.962 3.82711 10.9563 3.82206C10.9388 3.80646 10.9191 3.78765 10.9053 3.76287M11.0656 3.92572L10.9489 3.73841M11.0656 3.92572L11.0936 3.85507C11.1924 3.60633 11.196 3.36935 11.1452 3.13475M11.0656 3.92572L10.7372 1.62675C10.6982 1.47904 10.6344 1.33955 10.5703 1.19918C10.5475 1.1493 10.5247 1.0993 10.5029 1.04879M10.9053 3.76287C10.9053 3.76282 10.9052 3.76276 10.9052 3.7627L10.9489 3.73841M10.9053 3.76287C10.9053 3.76293 10.9054 3.76299 10.9054 3.76305L10.9489 3.73841M10.9053 3.76287C10.7901 3.55955 10.6976 3.34394 10.6396 3.1161L10.6394 3.11538L10.6394 3.11538C10.5235 2.62913 10.4621 2.13348 10.401 1.64046C10.3801 1.47148 10.3592 1.3028 10.3361 1.13492L10.3359 1.1331L10.3359 1.1331C10.3334 1.10801 10.336 1.08331 10.339 1.0628C10.3405 1.05265 10.3419 1.0444 10.3432 1.03698C10.3449 1.02711 10.3463 1.01871 10.3473 1.00927L10.3502 0.983778L10.3725 0.971209C10.4112 0.94949 10.4516 0.942331 10.4883 0.95966C10.5218 0.975489 10.5395 1.00613 10.549 1.02954M10.9489 3.73841C10.8355 3.5382 10.7448 3.32665 10.6881 3.10378C10.5728 2.62047 10.5119 2.12881 10.4509 1.63656C10.4299 1.46704 10.4089 1.29746 10.3857 1.12812C10.383 1.10179 10.3878 1.07362 10.3921 1.04746C10.394 1.03609 10.3959 1.02509 10.397 1.01479C10.4575 0.980797 10.4877 1.01102 10.5029 1.04879M10.549 1.02954C10.5489 1.02935 10.5488 1.02916 10.5488 1.02898L10.5029 1.04879M10.549 1.02954C10.5491 1.02977 10.5492 1.02999 10.5493 1.03021L10.5029 1.04879M10.549 1.02954C10.5698 1.07769 10.5919 1.12615 10.6143 1.17506C10.679 1.31655 10.7453 1.46177 10.7856 1.61398L10.7856 1.61402C10.9181 2.11742 11.0355 2.62818 11.1452 3.13475M11.1452 3.13475L11.0963 3.14533L11.1452 3.13473C11.1452 3.13474 11.1452 3.13474 11.1452 3.13475Z" fill="#FD0202" stroke="#BC0202" stroke-width="0.1"/>
<path d="M16.8851 4.22271L16.9728 4.15027L16.8601 4.13462C16.5749 4.09504 16.3874 4.16317 16.2079 4.23189L16.2078 4.23191C15.7432 4.40556 15.2776 4.57956 14.8195 4.76874C14.6758 4.82737 14.5439 4.91327 14.4169 4.99606C14.3756 5.02296 14.3348 5.04954 14.2942 5.07474L14.2941 5.07479C14.2694 5.09025 14.2532 5.1121 14.2403 5.13223C14.2344 5.14134 14.2285 5.15131 14.2227 5.16114C14.2221 5.16226 14.2214 5.16339 14.2207 5.16451C14.2141 5.17571 14.2072 5.18731 14.1992 5.1997L14.1551 5.26829L14.2362 5.2765C14.5416 5.3074 14.8035 5.27663 15.0621 5.16704C15.6301 4.92861 16.1842 4.67079 16.7159 4.35951L16.716 4.35954L16.7175 4.35855C16.7413 4.34343 16.7623 4.32649 16.7872 4.30543C16.795 4.29886 16.8031 4.29189 16.8119 4.28436C16.8318 4.26735 16.8551 4.24745 16.8851 4.22271Z" fill="#FD0202" stroke="#BC0202" stroke-width="0.1"/>
<path d="M11.8486 3.70667L11.8836 3.78163L11.9337 3.7158C12.0795 3.52418 12.1626 3.24167 12.1828 2.96291C12.2031 2.68442 12.1614 2.39925 12.0467 2.20224L12.0064 2.13295L11.9619 2.19964C11.9504 2.21683 11.939 2.23096 11.9267 2.24628C11.9197 2.25488 11.9125 2.26386 11.9047 2.27397C11.8856 2.29903 11.8647 2.32983 11.8565 2.36742C11.8034 2.59117 11.7577 2.81529 11.7235 3.04347L11.7235 3.04347L11.7235 3.04369C11.6913 3.26429 11.7402 3.47463 11.8486 3.70667Z" fill="#FD0202" stroke="#BC0202" stroke-width="0.1"/>
<path d="M9.42178 3.19064L9.37668 3.21223C9.40468 3.27073 9.4324 3.32966 9.46021 3.38878C9.55547 3.59129 9.65179 3.79604 9.76386 3.9935L9.76394 3.99364C9.8464 4.13787 9.98917 4.23438 10.1166 4.31679L10.1551 4.34167L10.1832 4.30551C10.1928 4.29317 10.2016 4.28402 10.2097 4.27554C10.2112 4.27399 10.2126 4.27247 10.2141 4.27095C10.2179 4.26694 10.2242 4.26028 10.2289 4.25314L10.229 4.25305C10.2314 4.2495 10.2438 4.23091 10.2382 4.20762C10.1787 3.73773 9.93309 3.37377 9.58417 3.0745C9.56413 3.05493 9.53606 3.03692 9.50296 3.03288C9.46566 3.02834 9.42925 3.04258 9.402 3.07587L9.40199 3.07587L9.40165 3.0763C9.38912 3.09195 9.37881 3.11351 9.37308 3.13451C9.36786 3.15361 9.36296 3.18482 9.37707 3.21302L9.42178 3.19064ZM9.42178 3.19064C9.41044 3.16798 9.42556 3.12643 9.44068 3.10754L10.1438 4.2748C10.0152 4.1917 9.88294 4.10104 9.80734 3.96882C9.69631 3.77319 9.60109 3.57078 9.50597 3.36858C9.47803 3.30919 9.4501 3.24982 9.42178 3.19064Z" fill="#FD0202" stroke="#BC0202" stroke-width="0.1"/>
<path d="M15.9637 6.1312L16.054 6.07838L15.9562 6.04129C15.5035 5.86969 14.9386 5.92749 14.558 6.17453L14.5017 6.21108L14.5528 6.25457C14.6943 6.37484 14.9213 6.41695 15.1699 6.39471C15.4206 6.37229 15.7026 6.28389 15.9637 6.1312Z" fill="#FD0202" stroke="#BC0202" stroke-width="0.1"/>
<path d="M13.7986 4.55145L13.7888 4.62418L13.8601 4.60669C14.0868 4.55104 14.2351 4.44289 14.3579 4.30442C14.3844 4.27515 14.4118 4.24592 14.4395 4.21633C14.6007 4.04408 14.7729 3.86001 14.8669 3.58853L14.8975 3.50001L14.8069 3.52383C14.7819 3.5304 14.7614 3.5338 14.7417 3.53708C14.735 3.53818 14.7285 3.53926 14.7219 3.54045C14.6989 3.54458 14.6686 3.55077 14.6441 3.57139C14.6202 3.59065 14.5961 3.60993 14.572 3.62925C14.3841 3.7798 14.1936 3.93247 14.015 4.09411C13.8944 4.20226 13.8262 4.34665 13.7986 4.55145Z" fill="#FD0202" stroke="#BC0202" stroke-width="0.1"/>
<path d="M12.6801 7.30061C12.2492 7.5537 11.7843 7.61415 11.3004 7.47438M12.6801 7.30061L12.7054 7.34372C12.2628 7.60372 11.7837 7.66602 11.2866 7.52241L11.2865 7.52239C10.9703 7.4304 10.7678 7.2121 10.6997 6.89561L10.6996 6.89545L10.6996 6.89545C10.6298 6.56601 10.6451 6.23131 10.766 5.91168L11.3004 7.47438M12.6801 7.30061C13.0468 7.08529 13.2282 6.75664 13.232 6.23912M12.6801 7.30061L12.7054 7.34372L13.232 6.23912M11.3004 7.47438C11.0018 7.3875 10.8128 7.18351 10.7486 6.88508L11.3004 7.47438ZM13.232 6.23912L13.282 6.24079C13.282 6.24057 13.282 6.24035 13.282 6.24013M13.232 6.23912L13.1364 6.90652C13.2326 6.724 13.28 6.50426 13.282 6.24013M13.232 6.23912L13.282 6.23949C13.282 6.2397 13.282 6.23991 13.282 6.24013M13.232 6.23912C13.2396 6.01247 13.1148 5.74426 12.8502 5.54783C12.7217 5.45339 12.5894 5.36651 12.4495 5.29473C11.7918 4.96609 11.0699 5.2494 10.8128 5.92936L10.766 5.91167C11.0336 5.20383 11.7878 4.9082 12.4719 5.25001L12.4724 5.25025L12.4724 5.25025C12.6154 5.32363 12.75 5.41212 12.8798 5.50754L12.88 5.50768C13.1553 5.71203 13.2899 5.99459 13.282 6.24013M12.0702 7.17586L12.0702 7.17587C12.2312 7.14661 12.3837 7.09198 12.5211 7.00523L12.5214 7.00509C12.9668 6.72733 12.9963 6.06615 12.5775 5.79388C12.5362 5.76765 12.497 5.74108 12.4586 5.71504C12.3758 5.65903 12.2967 5.60542 12.2087 5.5627C11.8695 5.40226 11.4945 5.48483 11.2717 5.76763L12.0702 7.17586ZM12.0702 7.17586L12.0693 7.17603M12.0702 7.17586L12.0693 7.17603M12.0693 7.17603C11.9882 7.19224 11.9065 7.19829 11.8357 7.20354M12.0693 7.17603L11.8357 7.20354M11.8357 7.20354C11.8114 7.20533 11.7884 7.20704 11.7672 7.20902M11.8357 7.20354L11.7672 7.20902M11.7672 7.20902C11.5199 7.20515 11.3373 7.18535 11.1751 7.04054C11.0639 6.94014 10.998 6.83462 10.9913 6.70144C10.9766 6.35608 11.0574 6.03987 11.2717 5.76765L11.7672 7.20902Z" fill="#FD0202" stroke="#BC0202" stroke-width="0.1"/>
<path d="M12.9107 8.82296L12.8982 8.77456C12.8914 8.77632 12.8846 8.77807 12.8778 8.77983C12.6808 8.83084 12.4769 8.88364 12.2869 8.96183L12.2869 8.96183L12.2866 8.96195C11.8654 9.13833 11.6408 9.65732 11.798 10.0722L11.798 10.0722C11.8845 10.2993 12.0647 10.4735 12.2714 10.5731C12.4778 10.6725 12.7157 10.7 12.9198 10.6267C13.1725 10.5373 13.3879 10.4007 13.5642 10.201C13.6988 10.0502 13.7503 9.86786 13.7582 9.67878L13.7583 9.67878V9.67669C13.7583 9.4952 13.6803 9.30095 13.563 9.1401C13.4458 8.97936 13.2848 8.84568 13.1114 8.79053C13.0508 8.77038 12.9681 8.75593 12.8978 8.77465L12.9107 8.82296ZM12.9107 8.82296C12.9674 8.80785 13.0392 8.81919 13.0959 8.83808L13.5268 10.1678C13.3567 10.3604 13.1488 10.4926 12.9031 10.5795C12.5251 10.7155 12.0073 10.4813 11.8447 10.0544C11.6973 9.66536 11.909 9.17428 12.3059 9.00807C12.4927 8.93121 12.6936 8.87917 12.8916 8.82791C12.898 8.82626 12.9043 8.82461 12.9107 8.82296ZM12.8313 9.13273C12.6045 9.12895 12.4609 9.17428 12.3286 9.29138C12.1245 9.4727 12.0602 9.79757 12.1925 10.0016C12.3588 10.2622 12.6537 10.3415 12.9409 10.1904C13.0317 10.1413 13.1186 10.0771 13.198 10.0091C13.3605 9.87312 13.3983 9.6918 13.3303 9.49915C13.266 9.29894 13.0317 9.1365 12.8313 9.13273ZM12.8313 9.13273L12.8304 9.18272C12.9183 9.18437 13.0173 9.2213 13.1026 9.28283C13.1879 9.34433 13.2546 9.42687 13.2827 9.51443L13.2827 9.51444L13.2831 9.5158C13.3145 9.60472 13.3206 9.68818 13.302 9.76343C13.2836 9.83839 13.2399 9.90881 13.1659 9.97077L13.1659 9.97076L13.1655 9.97114C13.0879 10.0376 13.004 10.0994 12.9174 10.1463C12.7835 10.2167 12.6507 10.232 12.5338 10.202C12.4168 10.1719 12.3117 10.0954 12.2347 9.97467L12.2347 9.97467L12.2345 9.97436C12.1769 9.8856 12.1603 9.76725 12.1835 9.64747C12.2066 9.52794 12.2686 9.41152 12.3618 9.32876L12.3286 9.29139L12.3617 9.32882C12.4822 9.22215 12.6125 9.17909 12.8305 9.18272L12.8313 9.13273Z" fill="#FD0202" stroke="#BC0202" stroke-width="0.1"/>
<path d="M8.73206 8.17409C9.27986 8.19391 9.70525 7.81108 9.72124 7.27567L9.72125 7.27531C9.73319 6.75033 9.36492 6.35248 8.85257 6.33648L8.85254 6.33647C8.33647 6.32061 7.90625 6.69441 7.89006 7.19306C7.87033 7.70026 8.25842 8.15787 8.73206 8.17409ZM8.73206 8.17409C8.73208 8.17409 8.7321 8.17409 8.73212 8.17409L8.73383 8.12412L8.73202 8.17409C8.73203 8.17409 8.73205 8.17409 8.73206 8.17409ZM8.52215 6.77003L8.5222 6.76999C8.59227 6.71664 8.66273 6.69702 8.74181 6.72133C8.76663 6.72896 8.79235 6.73658 8.81777 6.74411L8.81791 6.74415C8.84342 6.75171 8.86863 6.75917 8.89287 6.76663C9.01715 6.80569 9.10726 6.86732 9.16672 6.94975C9.22544 7.03117 9.25748 7.13732 9.25837 7.27218C9.25469 7.28838 9.25156 7.30765 9.24851 7.32646C9.24701 7.33566 9.24554 7.34474 9.24403 7.35331C9.23856 7.38429 9.23167 7.41547 9.22021 7.44492L9.2202 7.44492L9.21995 7.4456C9.10125 7.76419 8.6829 7.83691 8.45764 7.58114C8.22999 7.32213 8.26309 6.96679 8.52215 6.77003Z" fill="#FD0202" stroke="#BC0202" stroke-width="0.1"/>
<path d="M7.84353 13.2657C8.00995 13.0503 8.17447 12.8339 8.33885 12.6177L8.33894 12.6176C8.50338 12.4013 8.66769 12.1852 8.83387 11.97C9.03079 11.7154 9.16515 11.427 9.28999 11.1396L9.29017 11.1397L9.29156 11.1355C9.29872 11.1141 9.29781 11.0911 9.29687 11.0756C9.29647 11.069 9.29602 11.0632 9.2956 11.0578C9.29481 11.0476 9.29413 11.0389 9.29413 11.0291V10.9625L9.00977 11.233L8.9722 11.2001C8.97211 11.2002 8.97202 11.2003 8.97193 11.2004C8.40265 11.849 7.91356 12.5577 7.44458 13.2758L7.44458 13.2758L7.44439 13.2761C7.4091 13.331 7.3774 13.3902 7.35339 13.45C7.34134 13.4777 7.34098 13.505 7.34199 13.529C7.34237 13.5382 7.34293 13.5468 7.3435 13.5556C7.34459 13.5725 7.34572 13.5899 7.34572 13.6129V13.6974L7.41981 13.6567C7.43812 13.6466 7.4549 13.6379 7.47058 13.6298C7.47259 13.6288 7.47458 13.6278 7.47656 13.6267C7.48991 13.6198 7.50277 13.6132 7.51462 13.6067C7.5418 13.5919 7.56766 13.576 7.58983 13.5538L7.58983 13.5538L7.59057 13.5531C7.67781 13.4621 7.76625 13.3661 7.84353 13.2657ZM7.84353 13.2657L7.80396 13.2351L7.84358 13.2656C7.84356 13.2657 7.84355 13.2657 7.84353 13.2657ZM9.19413 11.0291C9.19413 11.0354 9.19438 11.042 9.19473 11.0485L9.24413 11.0291H9.19413Z" fill="#FD0202" stroke="#BC0202" stroke-width="0.1"/>
<path d="M11.917 8.39054L11.9806 8.3151L11.8821 8.30843C11.6357 8.29173 11.4776 8.43169 11.3423 8.55566L11.3423 8.55566L11.342 8.55592C11.2316 8.65862 11.1188 8.78121 11.0851 8.94512L11.0851 8.94512L11.085 8.94572C11.0659 9.04518 11.0455 9.17379 11.1579 9.29513L11.1906 9.33041L11.2271 9.29912C11.3136 9.22506 11.3681 9.13633 11.4146 9.05203C11.4238 9.03532 11.4327 9.01892 11.4413 9.00286C11.4774 8.93602 11.5103 8.87499 11.5544 8.82087L11.917 8.39054Z" fill="#FD0202" stroke="#BC0202" stroke-width="0.1"/>
<path d="M10.9357 8.0378L11.0001 8.03038L10.9766 7.97C10.9468 7.89348 10.9013 7.83709 10.8574 7.78875C10.8457 7.77591 10.8344 7.76392 10.8236 7.7524C10.7921 7.71885 10.7643 7.68927 10.741 7.6544L10.7411 7.65432L10.7387 7.65125C10.6568 7.54702 10.582 7.43874 10.5067 7.32575L10.5067 7.32575L10.5064 7.32537C10.4838 7.29211 10.4689 7.25403 10.451 7.20826C10.4467 7.1971 10.4421 7.18548 10.4373 7.17337C10.4135 7.11429 10.3832 7.04833 10.3272 6.99016L10.2797 6.94084L10.2472 7.00114C10.238 7.01807 10.2299 7.03084 10.2219 7.04329C10.2192 7.0475 10.2165 7.05167 10.2138 7.05595C10.2043 7.07112 10.1923 7.09132 10.1888 7.116L10.1887 7.11599L10.1885 7.11809C10.1604 7.39925 10.2655 7.63865 10.4338 7.84215C10.5509 7.98813 10.7229 8.06234 10.9357 8.0378Z" fill="#FD0202" stroke="#BC0202" stroke-width="0.1"/>
<path d="M6.2472 14.8891L6.23632 14.9332L6.27924 14.9482C6.31682 14.9614 6.34782 14.9719 6.37371 14.9788C6.39948 14.9857 6.42384 14.9901 6.44756 14.9887C6.49911 14.9856 6.53283 14.9557 6.56751 14.9229C6.64472 14.8555 6.70708 14.7796 6.74341 14.6875C6.78005 14.5947 6.78861 14.4894 6.76438 14.3663L6.75107 14.2987L6.69093 14.3323C6.45805 14.4625 6.31156 14.6278 6.2472 14.8891Z" fill="#FD0202" stroke="#BC0202" stroke-width="0.1"/>
</svg>
