<svg width="18" height="21" viewBox="0 0 18 21" fill="none" xmlns="http://www.w3.org/2000/svg">
<path d="M9.42455 6.57079C9.23933 6.89188 9.09192 7.20163 8.95962 7.52272C8.71014 8.12335 8.55138 8.75421 8.3397 9.36617C8.10534 10.0499 8.06376 10.7601 8.04864 11.4703C8.04108 11.7687 8.10156 12.0709 8.13936 12.3731C8.17716 12.664 8.21118 12.9548 8.26788 13.2419C8.3397 13.6197 8.42286 13.9974 8.51736 14.3752C8.68746 15.0438 8.8689 15.7087 9.04655 16.3773C9.07301 16.4793 9.10326 16.5775 9.1335 16.687C9.16752 16.6682 9.20531 16.6568 9.21287 16.6342C9.48503 16.0902 9.88949 15.652 10.3355 15.244C10.5207 15.074 10.7249 14.9229 10.9176 14.7567C11.2654 14.4507 11.6207 14.1523 11.9571 13.8312C12.1083 13.6877 12.2255 13.5101 12.354 13.3439C12.3843 13.3061 12.3956 13.2533 12.4296 13.1853C12.3616 13.1701 12.3162 13.155 12.2671 13.1513C12.0327 13.121 11.8097 13.0531 11.5943 12.9662C11.2163 12.8113 10.8307 12.8037 10.4414 12.9133C10.1654 12.9888 9.88949 13.0682 9.61355 13.1324C9.34139 13.1966 9.06546 13.1853 8.79708 13.1022C8.58918 13.0379 8.4153 12.9284 8.28678 12.7471C8.1696 12.5809 8.16582 12.4184 8.28678 12.256C8.33592 12.188 8.40018 12.1313 8.46444 12.0747C8.57784 11.9802 8.69124 11.882 8.81598 11.8065C9.02387 11.6856 9.17885 11.5231 9.31871 11.338C9.62867 10.9263 9.92729 10.507 10.1881 10.065C10.362 9.76659 10.5472 9.47194 10.7286 9.17729C10.9706 8.79198 11.2805 8.46333 11.6132 8.15357C11.908 7.87781 12.252 7.71915 12.6602 7.68138C13.2045 7.63227 13.7186 7.70026 14.1798 8.0138C14.7921 8.42555 15.4498 8.77309 16.0924 9.13573C16.357 9.28683 16.6254 9.44172 16.8825 9.60037C17.0563 9.70615 17.1886 9.85347 17.2982 10.0272C17.4041 10.1972 17.4041 10.3672 17.3247 10.5334C17.2642 10.6656 17.1924 10.7979 17.1017 10.9112C16.701 11.4249 16.1869 11.7762 15.533 11.9084C15.2117 11.9727 14.8866 12.0293 14.5653 12.0898C14.4066 12.12 14.2554 12.1578 14.1079 12.256C14.1004 12.3089 14.0853 12.3655 14.0777 12.426C14.0172 13.2419 13.7488 13.971 13.2197 14.6094C12.8568 15.0476 12.5128 15.4971 12.1575 15.9391C11.5262 16.7135 11.0764 17.5861 10.7438 18.5191C10.6455 18.7949 10.5434 19.0707 10.4376 19.3427C10.3393 19.5958 10.2183 19.8413 10.0634 20.0679C9.76097 20.5137 9.30737 20.7215 8.80464 20.8537C8.72904 20.8726 8.63454 20.8612 8.55516 20.8386C8.4342 20.8008 8.32458 20.7366 8.2074 20.6875C8.1318 20.6535 8.05242 20.6119 7.97304 20.6044C7.64796 20.5741 7.64796 20.5817 7.42495 20.4155C7.36069 20.4797 7.29643 20.5477 7.22839 20.6119C6.94867 20.8688 6.63871 20.8952 6.33253 20.6724C6.18889 20.5704 6.02635 20.4797 5.94697 20.3059C5.93563 20.2795 5.90539 20.2568 5.88271 20.2379C5.56898 19.9584 5.36864 19.6033 5.2061 19.2256C4.90748 18.5305 4.64666 17.8241 4.55216 17.0724C4.5068 16.7097 4.469 16.3433 4.45766 15.9806C4.42742 15.0514 4.40852 14.1221 4.3934 13.1928C4.38584 12.6866 4.30268 12.1955 4.14014 11.7158C4.11747 11.6478 4.07967 11.5874 4.04565 11.5156C3.93981 11.5458 3.85287 11.5723 3.76215 11.5987C3.34257 11.7158 2.91922 11.7347 2.5072 11.5987C2.18968 11.4929 1.89106 11.4967 1.5811 11.61C1.32784 11.7045 1.05946 11.7158 0.798646 11.6554C0.655007 11.6214 0.511368 11.5798 0.379069 11.5156C0.14093 11.3985 0.0539908 11.1869 0.13715 10.9376C0.17495 10.8205 0.242986 10.711 0.311026 10.6052C0.809983 9.84969 1.24468 9.06396 1.53952 8.20646C1.74364 7.60961 2.00824 7.04298 2.30308 6.4839C2.3749 6.34413 2.4505 6.20436 2.54122 6.0797C2.65084 5.9286 2.76802 5.77373 2.90787 5.64907C3.31233 5.28264 3.71679 5.15042 4.29134 5.50929C4.51436 5.64906 4.73738 5.79261 4.94528 5.95505C5.3195 6.24592 5.68994 6.54434 6.04526 6.85787C6.47617 7.23185 6.94489 7.55294 7.43251 7.85137C7.45519 7.86648 7.48921 7.87026 7.53835 7.88537C7.72735 7.30362 7.9428 6.74078 8.29434 6.2157C8.2263 6.1817 8.18094 6.15526 8.13558 6.14392C7.93147 6.08726 7.72734 6.03437 7.52322 5.97771C7.25485 5.90216 7.00537 5.79639 6.77101 5.64529C6.55555 5.50552 6.31741 5.41863 6.06037 5.39218C5.72396 5.35819 5.42534 5.23731 5.14562 5.05599C5.01332 4.96911 4.8848 4.87844 4.75628 4.78401C4.59374 4.66312 4.45388 4.52713 4.37829 4.3307C4.34427 4.24381 4.26866 4.17582 4.2233 4.09649C4.10235 3.88117 4.14392 3.68852 4.35182 3.54875C4.57862 3.39387 4.81298 3.2541 5.04734 3.11056C5.81089 2.63836 6.59713 2.20395 7.38714 1.77708C7.59126 1.66754 7.78026 1.52776 7.97682 1.4031C8.45688 1.09712 8.95206 0.813809 9.48125 0.594711C10.1768 0.307618 10.895 0.247174 11.6358 0.379388C11.9534 0.436052 12.2444 0.568261 12.4826 0.787358C12.6451 0.934682 12.8039 1.09334 12.9399 1.26333C13.333 1.74686 13.6355 2.28327 13.8698 2.86124C14.2062 3.70741 14.5011 4.56868 14.8072 5.42618C14.9206 5.74349 14.9849 6.07214 15 6.40834C15.0151 6.66144 14.9773 6.91076 14.8639 7.14119C14.6787 7.50761 14.3612 7.6625 13.9681 7.53784C13.4729 7.37918 12.9513 7.3414 12.4599 7.17519C12.2217 7.09586 11.9571 7.08075 11.7039 7.10719C10.9252 7.1903 10.2108 7.00898 9.54174 6.62367C9.5115 6.601 9.47747 6.59345 9.42455 6.57079ZM10.3658 0.764694C10.0596 0.787359 9.82145 0.870472 9.58709 0.961133C9.04278 1.17645 8.53248 1.45221 8.04108 1.76197C6.98269 2.42304 5.90539 3.04633 4.7903 3.60163C4.66934 3.66207 4.58996 3.74518 4.55216 3.86228C4.63532 4.01716 4.76384 4.08138 4.9037 4.14182C5.20988 4.27403 5.5274 4.34581 5.86004 4.34959C5.98855 4.34959 6.11329 4.34581 6.24181 4.34959C6.55177 4.35337 6.85795 4.39869 7.13011 4.55735C7.51567 4.78023 7.9239 4.82933 8.3586 4.75378C8.42286 4.74245 8.48334 4.7349 8.5476 4.72356C9.1902 4.63668 9.74207 4.82178 10.2032 5.26375C10.2713 5.32797 10.3355 5.39975 10.3998 5.47152C10.5812 5.68306 10.8118 5.79261 11.0877 5.82661C11.3712 5.86061 11.6547 5.90593 11.9382 5.94748C12.509 6.03059 13.0155 6.24591 13.4389 6.64255C13.5523 6.7521 13.6695 6.85788 13.798 6.94854C13.8887 7.01276 13.9983 7.06564 14.1079 7.09208C14.2554 7.13363 14.3536 7.07697 14.4217 6.94476C14.4897 6.81255 14.5162 6.669 14.5124 6.52168C14.5011 6.2157 14.4481 5.92104 14.3461 5.63017C14.0361 4.74245 13.7299 3.85095 13.42 2.96323C13.2234 2.40415 12.9286 1.89796 12.5468 1.44466C12.4334 1.30867 12.3011 1.18779 12.1688 1.0669C12.1272 1.02913 12.063 1.01401 12.0138 0.991349C11.908 1.25955 11.8211 1.51643 11.7039 1.76197C11.5791 2.01884 11.3108 2.27194 11.1104 2.35505C11.2389 1.8073 11.6245 1.39555 11.8324 0.878027C11.753 0.855362 11.6888 0.832695 11.6321 0.817585C11.4166 1.07824 11.2163 1.32 11.0121 1.56176C10.8118 1.79597 10.5774 1.9924 10.3204 2.15861C10.0634 2.32482 9.77609 2.42682 9.49259 2.44949C9.50393 2.41927 9.50393 2.38527 9.52283 2.36638C9.69671 2.21528 9.86303 2.04528 10.0558 1.92062C10.5018 1.62975 10.8761 1.25956 11.2654 0.904473C11.3032 0.870475 11.3297 0.828911 11.3637 0.787358C11.2163 0.696697 11.1029 0.764696 10.9895 0.813804C10.6379 0.961128 10.3166 1.16511 10.0104 1.39177C9.71183 1.61086 9.42455 1.83752 9.13728 2.0755C8.88024 2.28704 8.6043 2.45326 8.28678 2.55148C8.06376 2.61947 7.84074 2.68369 7.61772 2.74413C7.5837 2.75547 7.54212 2.74413 7.44763 2.74413C7.53078 2.66858 7.56858 2.62324 7.61772 2.59302C7.8861 2.42303 8.15826 2.26061 8.42664 2.0944C8.61186 1.97729 8.80086 1.85641 8.97474 1.72419C9.36786 1.42199 9.77232 1.1349 10.2032 0.889359C10.2486 0.855361 10.2864 0.821357 10.3658 0.764694ZM10.8496 11.2398C10.8345 11.2134 10.8194 11.2058 10.8231 11.1983C11.0651 10.3597 11.4242 9.55882 11.6736 8.6862C11.6056 8.74287 11.5602 8.77687 11.5187 8.81842C11.273 9.06774 11.0764 9.35105 10.8874 9.64192C10.7211 9.89879 10.5699 10.1632 10.3998 10.4125C9.93485 11.0887 9.45479 11.7498 8.74038 12.2069C8.64588 12.2673 8.55894 12.3467 8.53248 12.46C8.60052 12.6111 8.72148 12.6715 8.85378 12.7168C9.0579 12.7886 9.26958 12.7999 9.48125 12.7584C9.61733 12.732 9.74963 12.698 9.88193 12.6602C10.0747 12.6111 10.2675 12.5469 10.464 12.5053C10.8534 12.4184 11.2427 12.426 11.6207 12.5657C11.7303 12.6073 11.84 12.6375 11.9496 12.6829C12.2898 12.8151 12.6149 12.7697 12.9248 12.5884C13.0344 12.5242 13.1365 12.4524 13.2386 12.3769C13.3331 12.3089 13.42 12.2333 13.5107 12.1578C13.832 11.8858 14.1987 11.7158 14.6182 11.6478C14.898 11.5987 15.1777 11.5345 15.4574 11.4665C16.0206 11.3343 16.4402 10.9943 16.7728 10.541C16.8446 10.4428 16.9089 10.3332 16.9467 10.2048C16.5687 9.97435 16.2021 9.75147 15.8316 9.52482C15.2004 9.13951 14.5691 8.75798 13.9416 8.36889C13.7337 8.24045 13.5145 8.13469 13.2688 8.10447C13.2234 8.09691 13.1743 8.11202 13.1214 8.11957C13.1214 8.35378 13.197 8.55021 13.2574 8.74664C13.3595 9.06774 13.42 9.39639 13.4502 9.72881C13.454 9.78169 13.4616 9.83457 13.3746 9.85346C13.3217 9.74391 13.2612 9.63437 13.2083 9.52105C13.1554 9.40772 13.1025 9.29439 13.0609 9.17351C13.0231 9.06396 13.0004 8.95063 12.9777 8.84108C12.9551 8.71642 12.9399 8.59177 12.921 8.47089C12.9059 8.35379 12.9475 8.22913 12.9021 8.1158C12.8114 8.11202 12.8001 8.16868 12.7774 8.21401C12.6262 8.53132 12.5582 8.86753 12.543 9.21507C12.5279 9.52105 12.4485 9.81192 12.3389 10.0952C12.3276 10.1255 12.2898 10.1481 12.2482 10.1935C12.1915 10.0386 12.1688 9.90635 12.1613 9.77414C12.1499 9.62681 12.1461 9.48326 12.1537 9.33594C12.1613 9.19995 12.1877 9.06774 12.218 8.93552C12.252 8.79575 12.3049 8.65598 12.354 8.51999C12.3994 8.39911 12.4939 8.29712 12.5317 8.16113C12.3314 8.18002 12.3276 8.17624 12.2595 8.29712C12.1046 8.57288 11.976 8.85997 11.8929 9.16218C11.8248 9.40394 11.7644 9.64571 11.6925 9.88747C11.6132 10.1595 11.5111 10.4239 11.341 10.6543C11.2163 10.8205 11.0877 10.9905 10.9592 11.1567C10.9365 11.1869 10.8912 11.2096 10.8496 11.2398ZM3.49755 5.78505C3.46731 5.79261 3.45219 5.79261 3.44841 5.80017C3.42195 5.83039 3.39549 5.86438 3.37659 5.89837C3.24429 6.1968 3.17625 6.51412 3.11955 6.83521C3.04773 7.2243 2.97213 7.61716 2.85495 7.99492C2.75668 8.3009 2.57901 8.55777 2.36733 8.79197C2.35599 8.80331 2.32954 8.79953 2.29174 8.80331C2.29552 8.73153 2.29552 8.65976 2.30308 8.59176C2.31442 8.51999 2.33331 8.44823 2.34843 8.37645C2.36355 8.30468 2.37868 8.2329 2.3938 8.16113C2.4127 8.08936 2.43159 8.01758 2.45049 7.94959C2.46939 7.87782 2.49586 7.80981 2.51854 7.74182C2.54122 7.67382 2.5639 7.60205 2.5828 7.53406C2.60548 7.45473 2.62815 7.37162 2.65083 7.29229C2.66973 7.22052 2.68864 7.15252 2.70754 7.08075C2.72644 7.00897 2.74533 6.94098 2.76801 6.86921C2.78691 6.79743 2.8096 6.72944 2.83228 6.65766C2.85496 6.58967 2.88141 6.5179 2.90409 6.4499C2.92299 6.38946 2.95701 6.32902 2.93055 6.20814C2.83227 6.36679 2.75667 6.48012 2.69241 6.59722C2.42403 7.09586 2.16322 7.59827 1.96666 8.1309C1.69828 8.85241 1.34674 9.52483 0.904485 10.1595C0.802426 10.3068 0.707928 10.4579 0.617209 10.609C0.571849 10.6807 0.545384 10.7601 0.605864 10.8507C0.783523 10.8772 0.961183 10.8583 1.1275 10.7903C1.29382 10.7261 1.46014 10.6543 1.62268 10.5788C1.8268 10.4843 2.03092 10.405 2.25772 10.3937C2.61682 10.3748 2.93811 10.2577 3.23673 10.065C3.53157 9.87236 3.85665 9.74769 4.20063 9.66837C4.469 9.60793 4.74116 9.56259 5.01332 9.52482C5.28926 9.48704 5.55763 9.43793 5.80333 9.29816C6.07927 9.14328 6.38167 9.09796 6.69541 9.12818C6.90709 9.15085 7.11499 9.17729 7.32667 9.19617C7.45141 9.20751 7.58371 9.22261 7.70467 9.20372C7.93147 9.16973 8.0184 8.95819 7.87854 8.78064C7.80294 8.68243 7.70089 8.59933 7.60261 8.52755C7.37203 8.36134 7.13767 8.19513 6.89953 8.04025C6.46105 7.76071 6.06038 7.43584 5.66726 7.09964C5.3384 6.81633 5.00954 6.54056 4.66934 6.26858C4.48034 6.11748 4.27245 5.98904 4.07211 5.85305C4.03809 5.83038 3.99651 5.81149 3.95115 5.86438C4.00407 5.95882 4.06455 6.05703 4.11747 6.15903C4.17039 6.26102 4.22331 6.36302 4.26488 6.47257C4.30268 6.57078 4.32914 6.67277 4.34804 6.77477C4.37072 6.88809 4.38584 7.00142 4.3934 7.11474C4.40096 7.22051 4.44632 7.33384 4.37829 7.48117C4.33671 7.42072 4.31025 7.39429 4.29513 7.36029C4.20063 7.12609 4.10613 6.89565 4.01919 6.66145C3.93603 6.43479 3.86799 6.20436 3.78483 5.97771C3.77349 5.94371 3.76971 5.89083 3.69033 5.8946C3.65631 5.9966 3.66009 6.10992 3.66387 6.21947C3.67143 6.55567 3.67143 6.88809 3.69033 7.22051C3.70545 7.53027 3.62607 7.82115 3.53157 8.11202C3.52401 8.13469 3.48999 8.14979 3.44463 8.19135C3.31233 7.3754 3.36147 6.58211 3.49755 5.78505ZM4.87724 10.9981C4.9226 11.0812 4.95662 11.1416 4.99442 11.2058C5.44045 11.9916 5.70506 12.8302 5.80712 13.7217C5.8865 14.4356 5.96587 15.1534 6.05281 15.8673C6.11707 16.4151 6.28717 16.925 6.58579 17.3934C6.80503 17.7372 7.03183 18.0772 7.25863 18.4172C7.28131 18.4512 7.30777 18.4851 7.36447 18.4587C7.37203 18.4323 7.38337 18.4021 7.38337 18.3756C7.39093 18.2925 7.39848 18.2094 7.39848 18.1263C7.40604 17.4463 7.35691 16.7701 7.22461 16.1015C7.12255 15.5802 7.00159 15.0589 6.91465 14.5338C6.82393 13.9785 6.75211 13.4195 6.70297 12.8566C6.63871 12.154 6.73321 11.4627 6.90709 10.779C6.93355 10.6807 6.97135 10.5863 6.96379 10.4654C6.75211 10.5297 6.56311 10.5901 6.37411 10.6467C6.0377 10.745 5.68994 10.7752 5.34218 10.8167C5.17964 10.8432 5.02466 10.8696 4.87724 10.9981ZM7.69332 10.0612C7.60638 10.1066 7.53456 10.1443 7.45896 10.1783C7.33045 10.235 7.26997 10.3332 7.25485 10.4692C7.22839 10.677 7.17925 10.881 7.15657 11.0887C7.09609 11.5874 7.04695 12.086 7.09231 12.5884C7.18303 13.5555 7.33422 14.515 7.5459 15.4631C7.716 16.2073 7.8294 16.959 7.83696 17.7259C7.84452 18.4172 7.85208 18.4209 7.57237 19.048C7.71222 19.3918 7.71601 19.762 7.59127 20.1322C7.64419 20.0868 7.68577 20.0453 7.70467 19.9924C7.76893 19.8149 7.84074 19.6411 7.88232 19.4598C7.9617 19.1311 8.08266 18.8214 8.2074 18.5116C8.2263 18.4625 8.24898 18.4172 8.33592 18.4436C8.33592 18.5532 8.3397 18.6665 8.33592 18.7798C8.33214 18.9045 8.32836 19.0291 8.31324 19.1538C8.29812 19.2671 8.27922 19.3804 8.2452 19.49C8.21118 19.6109 8.15448 19.7242 8.1129 19.8413C8.07888 19.9433 7.9806 20.0226 7.97682 20.1473C8.28678 20.1057 8.43798 20.034 8.57784 19.8262C8.66478 19.6978 8.7366 19.5542 8.7933 19.4107C8.91426 19.082 8.96718 18.742 8.93694 18.3945C8.9067 18.0394 8.87646 17.6843 8.80086 17.3406C8.63076 16.5662 8.44554 15.7918 8.23386 15.0287C8.02596 14.2732 7.83696 13.5139 7.72356 12.7357C7.61394 12.0067 7.57992 11.2814 7.67064 10.5523C7.6971 10.3974 7.72356 10.2426 7.69332 10.0612ZM7.17925 19.932C7.20949 19.8526 7.23973 19.796 7.25106 19.7393C7.2813 19.5466 7.24351 19.3615 7.16035 19.1916C7.04317 18.9573 6.91465 18.7307 6.77857 18.5078C6.58201 18.1867 6.36655 17.877 6.16999 17.5521C5.89405 17.0988 5.72017 16.6077 5.66348 16.0789C5.58032 15.3422 5.49338 14.6056 5.4329 13.869C5.36108 12.9737 5.12294 12.1238 4.76762 11.304C4.74494 11.2474 4.70714 11.1983 4.67312 11.1378C4.5257 11.1832 4.42364 11.2663 4.3178 11.3645C4.3556 11.4589 4.38585 11.5458 4.41987 11.6289C4.57106 11.9991 4.6769 12.3806 4.71092 12.7773C4.74116 13.1097 4.75628 13.4459 4.7714 13.7783C4.81676 14.6434 4.84322 15.5122 4.9037 16.3735C5.00576 17.8052 5.51228 19.0933 6.33253 20.2719C6.41569 20.3928 6.52531 20.4004 6.66517 20.3815C6.10574 19.5958 5.76932 18.8214 5.90162 18.3265C6.02635 18.6136 6.13597 18.9045 6.27961 19.1802C6.49129 19.5882 6.67651 19.8224 6.84283 19.9584C6.85039 19.7922 6.68785 19.6638 6.74833 19.4711C6.94867 19.5806 7.02805 19.7733 7.17925 19.932ZM8.7177 20.3475C8.7366 20.355 8.75928 20.3702 8.77439 20.3664C9.20531 20.2342 9.56441 20.0151 9.76853 19.5958C9.87437 19.3804 9.97265 19.1613 10.0672 18.9385C10.2146 18.5834 10.3544 18.2207 10.5018 17.8619C10.7929 17.1517 11.1785 16.4944 11.6623 15.89C12.0516 15.4065 12.4259 14.9116 12.8341 14.447C13.3104 13.9068 13.609 13.2797 13.8169 12.6035C13.832 12.5582 13.866 12.5091 13.798 12.4524C13.6241 12.5771 13.454 12.7168 13.265 12.8302C13.076 12.9435 12.8757 13.0342 12.6753 13.1361C12.5997 13.5441 12.3767 13.869 12.097 14.1636C12.0025 14.2619 11.9118 14.3639 11.8097 14.4583C11.4922 14.7529 11.1785 15.0476 10.8534 15.3309C10.5207 15.6218 10.2146 15.9391 9.93863 16.2866C9.73829 16.5435 9.53417 16.7966 9.32627 17.0459C9.25823 17.1252 9.24312 17.2008 9.25824 17.3028C9.30738 17.6125 9.3603 17.9223 9.38676 18.2321C9.44724 19.0102 9.30737 19.728 8.72904 20.3135C8.72148 20.3248 8.72148 20.3361 8.7177 20.3475ZM8.19228 8.40289C8.34726 8.0478 8.472 7.71537 8.63076 7.39806C8.7933 7.07697 8.98986 6.77099 9.17508 6.45367C9.05034 6.34412 8.89914 6.3328 8.75928 6.28369C8.70258 6.2648 8.63832 6.27235 8.5854 6.2648C8.34726 6.6841 7.9995 7.66249 7.905 8.16868C7.98816 8.23668 8.0751 8.30845 8.19228 8.40289ZM6.92977 4.99555C6.73699 4.82178 6.53665 4.70845 6.30229 4.69712C5.97721 4.67823 5.65214 4.65178 5.29304 4.57623C5.34218 4.6329 5.36486 4.67068 5.3951 4.68579C5.51984 4.73867 5.64458 4.80289 5.77688 4.82933C6.11707 4.90111 6.46105 4.95399 6.80503 5.01443C6.83527 5.01443 6.86551 5.0031 6.92977 4.99555ZM2.76423 10.6883C2.80581 10.711 2.82471 10.7299 2.85117 10.7336C2.99103 10.7525 3.12711 10.7223 3.24051 10.643C3.52023 10.4579 3.82641 10.3219 4.13258 10.1783C4.16282 10.1632 4.1855 10.133 4.24598 10.0801C3.93225 10.0952 3.68277 10.1519 3.45975 10.303C3.35391 10.371 3.25563 10.4541 3.14979 10.5145C3.03261 10.5788 2.90787 10.6279 2.76423 10.6883ZM11.22 6.37813C10.9403 6.1817 10.2221 5.86815 9.92351 5.80394C9.99911 5.94748 9.99911 5.95126 10.2335 6.06837C10.5359 6.21947 10.8307 6.39324 11.22 6.37813ZM8.94071 5.29775C8.5665 5.17686 8.14692 5.17687 7.79538 5.30531C8.09778 5.43752 8.3964 5.38086 8.68746 5.37708C8.7744 5.37708 8.88024 5.40352 8.94071 5.29775ZM2.04226 10.8167C1.63402 10.8243 1.32784 11.1114 0.930942 11.1756C1.01788 11.2738 1.11239 11.2663 1.20688 11.2398C1.49416 11.1605 1.76632 11.0509 2.01202 10.8847C2.02714 10.8734 2.02714 10.847 2.04226 10.8167ZM5.96965 9.79303C5.57653 9.75526 5.35352 9.80814 5.12672 9.97435C5.15696 10.0348 5.21366 10.0235 5.25902 10.0159C5.48204 9.97813 5.70505 9.93658 5.96965 9.79303Z" fill="#020304"/>
<path d="M8.91047 2.94057C8.93052 3.04409 8.87377 3.09153 8.81855 3.13767C8.81131 3.14373 8.80409 3.14976 8.79708 3.15589C8.62698 3.31077 8.32836 3.45432 8.0562 3.52231C8.1318 3.38254 8.26032 3.26166 8.51736 3.103C8.53104 3.09403 8.54462 3.08491 8.55818 3.07581C8.66455 3.00442 8.76967 2.93387 8.91047 2.94057Z" fill="#020304"/>
<path d="M8.91047 2.94057C8.93052 3.04409 8.87377 3.09153 8.81855 3.13767C8.81131 3.14373 8.80409 3.14976 8.79708 3.15589C8.62698 3.31077 8.32836 3.45432 8.0562 3.52231C8.1318 3.38254 8.26032 3.26166 8.51736 3.103C8.53104 3.09403 8.54462 3.08491 8.55818 3.07581C8.66455 3.00442 8.76967 2.93387 8.91047 2.94057Z" stroke="black"/>
<path d="M6.23803 3.41653C6.37411 3.23143 6.53287 3.11054 6.73699 3.04254C6.77097 3.03284 6.80808 3.03716 6.8453 3.04149C6.86604 3.0439 6.88681 3.04632 6.90709 3.04632C6.9206 3.13405 6.87379 3.16753 6.83131 3.1979C6.82623 3.20153 6.82121 3.20512 6.81637 3.20875C6.65005 3.3183 6.47995 3.37875 6.23803 3.41653Z" fill="#020304"/>
<path d="M6.23803 3.41653C6.37411 3.23143 6.53287 3.11054 6.73699 3.04254C6.77097 3.03284 6.80808 3.03716 6.8453 3.04149C6.86604 3.0439 6.88681 3.04632 6.90709 3.04632C6.9206 3.13405 6.87379 3.16753 6.83131 3.1979C6.82623 3.20153 6.82121 3.20512 6.81637 3.20875C6.65005 3.3183 6.47995 3.37875 6.23803 3.41653Z" stroke="black"/>
<path d="M10.7286 2.86502C10.7249 3.10678 10.585 3.25412 10.2373 3.38255C10.3733 3.15968 10.5019 2.97835 10.7286 2.86502Z" fill="#020304"/>
<path d="M10.7286 2.86502C10.7249 3.10678 10.585 3.25412 10.2373 3.38255C10.3733 3.15968 10.5019 2.97835 10.7286 2.86502Z" stroke="black"/>
<path d="M5.98478 3.62809C5.81468 3.83963 5.62568 3.89251 5.38754 3.86984C5.603 3.63186 5.73908 3.57142 5.98478 3.62809Z" fill="#020304"/>
<path d="M5.98478 3.62809C5.81468 3.83963 5.62568 3.89251 5.38754 3.86984C5.603 3.63186 5.73908 3.57142 5.98478 3.62809Z" stroke="black"/>
<path d="M7.03939 4.07004C7.17547 3.90382 7.29265 3.81316 7.44763 3.77539C7.47787 3.76783 7.53457 3.79427 7.54969 3.82072C7.56481 3.84716 7.54969 3.90383 7.52701 3.9265C7.40605 4.03983 7.26241 4.08137 7.03939 4.07004Z" fill="#020304"/>
<path d="M7.03939 4.07004C7.17547 3.90382 7.29265 3.81316 7.44763 3.77539C7.47787 3.76783 7.53457 3.79427 7.54969 3.82072C7.56481 3.84716 7.54969 3.90383 7.52701 3.9265C7.40605 4.03983 7.26241 4.08137 7.03939 4.07004Z" stroke="black"/>
<path d="M12.1877 11.6251C12.0932 11.3834 12.0743 11.1454 12.1877 10.881C12.2036 10.8944 12.2194 10.9058 12.2341 10.9164C12.265 10.9387 12.2909 10.9574 12.3011 10.983C12.3918 11.2172 12.3125 11.4249 12.1877 11.6251Z" fill="#020304"/>
<path d="M12.1877 11.6251C12.0932 11.3834 12.0743 11.1454 12.1877 10.881C12.2036 10.8944 12.2194 10.9058 12.2341 10.9164C12.265 10.9387 12.2909 10.9574 12.3011 10.983C12.3918 11.2172 12.3125 11.4249 12.1877 11.6251Z" stroke="black"/>
<path d="M10.1276 12.1918C10.2713 11.8442 10.3507 11.746 10.5812 11.6251C10.5926 11.8556 10.5056 11.9727 10.1276 12.1918Z" fill="#020304"/>
<path d="M10.1276 12.1918C10.2713 11.8442 10.3507 11.746 10.5812 11.6251C10.5926 11.8556 10.5056 11.9727 10.1276 12.1918Z" stroke="black"/>
<path d="M2.03092 9.38126C2.04982 9.66835 2.00446 9.74012 1.75876 9.85345C1.77766 9.66079 1.84192 9.51347 2.03092 9.38126Z" fill="#020304"/>
<path d="M2.03092 9.38126C2.04982 9.66835 2.00446 9.74012 1.75876 9.85345C1.77766 9.66079 1.84192 9.51347 2.03092 9.38126Z" stroke="black"/>
<path d="M3.36525 9.09419C3.30477 8.89398 3.32745 8.76176 3.40683 8.62955C3.51645 8.77309 3.51645 8.7731 3.36525 9.09419Z" fill="#020304"/>
<path d="M3.36525 9.09419C3.30477 8.89398 3.32745 8.76176 3.40683 8.62955C3.51645 8.77309 3.51645 8.7731 3.36525 9.09419Z" stroke="black"/>
<path d="M11.5867 15.2667C11.5812 15.2971 11.5782 15.322 11.5757 15.3427C11.5713 15.3787 11.5684 15.4024 11.5565 15.4216C11.5431 15.4448 11.5298 15.4681 11.5165 15.4914C11.3069 15.8579 11.0957 16.2272 10.8042 16.5397C10.6039 16.7588 10.4451 17.0006 10.3015 17.2575C10.2732 17.3075 10.2451 17.3575 10.217 17.4076C10.1326 17.5577 10.0483 17.7079 9.95753 17.8581C9.93975 17.8885 9.9083 17.9139 9.87468 17.941C9.85827 17.9542 9.84135 17.9679 9.82523 17.9827C9.77059 17.859 9.8002 17.7633 9.82948 17.6686C9.83059 17.665 9.83169 17.6614 9.83279 17.6579C10.0369 16.9855 10.3506 16.3811 10.8761 15.8975C10.9749 15.8072 11.0714 15.7133 11.1681 15.6192C11.2453 15.5441 11.3226 15.4689 11.4015 15.3951C11.4273 15.3717 11.459 15.3511 11.5001 15.3244C11.5252 15.3081 11.5538 15.2896 11.5867 15.2667Z" fill="#020304"/>
<path d="M11.5867 15.2667C11.5812 15.2971 11.5782 15.322 11.5757 15.3427C11.5713 15.3787 11.5684 15.4024 11.5565 15.4216C11.5431 15.4448 11.5298 15.4681 11.5165 15.4914C11.3069 15.8579 11.0957 16.2272 10.8042 16.5397C10.6039 16.7588 10.4451 17.0006 10.3015 17.2575C10.2732 17.3075 10.2451 17.3575 10.217 17.4076C10.1326 17.5577 10.0483 17.7079 9.95753 17.8581C9.93975 17.8885 9.9083 17.9139 9.87468 17.941C9.85827 17.9542 9.84135 17.9679 9.82523 17.9827C9.77059 17.859 9.8002 17.7633 9.82948 17.6686C9.83059 17.665 9.83169 17.6614 9.83279 17.6579C10.0369 16.9855 10.3506 16.3811 10.8761 15.8975C10.9749 15.8072 11.0714 15.7133 11.1681 15.6192C11.2453 15.5441 11.3226 15.4689 11.4015 15.3951C11.4273 15.3717 11.459 15.3511 11.5001 15.3244C11.5252 15.3081 11.5538 15.2896 11.5867 15.2667Z" stroke="black"/>
</svg>
