<svg width="15" height="21" viewBox="0 0 15 21" fill="none" xmlns="http://www.w3.org/2000/svg">
<mask id="path-1-outside-1_2_5153" maskUnits="userSpaceOnUse" x="0" y="0" width="15" height="21" fill="black">
<rect fill="white" width="15" height="21"/>
<path d="M5.85367 3.47432C5.78563 3.08901 5.71759 2.75281 5.67223 2.40906C5.63065 2.10308 5.61931 1.79332 5.59663 1.48734C5.59285 1.44201 5.59285 1.3929 5.60041 1.34379C5.61175 1.23802 5.66467 1.16625 5.77429 1.14736C5.95195 1.11714 6.12582 1.08692 6.30348 1.06803C6.9423 0.996257 7.5849 1.00003 8.23128 1.00003C8.54123 1.00003 8.85119 1.00003 9.16115 1.00381C9.25565 1.00381 9.35392 1.00759 9.44464 1.02648C9.55804 1.04914 9.64121 1.12091 9.64499 1.24557C9.65255 1.37401 9.65632 1.50623 9.6412 1.63466C9.57695 2.23529 9.50512 2.83592 9.4333 3.45166C9.46733 3.46299 9.50891 3.48188 9.55427 3.49321C9.68657 3.53099 9.74705 3.62543 9.75461 3.75764C9.76217 3.85208 9.76217 3.94652 9.76217 4.04473C9.75839 4.67558 9.75082 5.30643 9.74704 5.93728C9.74704 5.98639 9.74705 6.03172 9.74327 6.08083C9.71681 6.42081 9.83021 6.70035 10.0646 6.95344C10.7639 7.70139 11.448 8.46068 12.1889 9.16708C12.6009 9.55995 12.9827 9.98681 13.3607 10.4174C13.8105 10.9274 14.0222 11.5394 14.0524 12.2118C14.0827 12.8955 13.992 13.5641 13.8634 14.2328C13.7576 14.7918 13.6215 15.3471 13.5081 15.9062C13.4287 16.2915 13.3796 16.6806 13.2964 17.0621C13.2322 17.353 13.1452 17.6363 13.0507 17.9197C12.9222 18.3012 12.7937 18.6865 12.7106 19.0831C12.6161 19.5327 12.5971 19.5704 12.1662 19.6838C11.5236 19.8538 10.8735 19.9973 10.2233 20.1371C9.40685 20.3108 8.57903 20.3939 7.73988 20.3751C7.66806 20.3751 7.59624 20.3751 7.52442 20.3826C6.88182 20.443 6.243 20.3751 5.60041 20.3146C5.01829 20.2617 4.44752 20.1484 3.8843 19.9897C3.5252 19.8878 3.19634 19.7329 2.89016 19.5176C2.69739 19.3816 2.56887 19.204 2.49705 18.9811C2.12283 17.8517 1.80153 16.7071 1.51048 15.5549C1.24588 14.5161 1.05688 13.4621 1.00396 12.3893C0.99262 12.1173 1.00774 11.8416 1.02286 11.5696C1.04176 11.1918 1.18539 10.8519 1.40085 10.5459C1.68813 10.1341 2.02455 9.76394 2.42145 9.45795C2.73141 9.21619 3.04893 8.98576 3.35888 8.744C3.5819 8.56645 3.79736 8.38135 4.01282 8.19248C4.19048 8.03382 4.36436 7.87139 4.53446 7.70517C4.697 7.54652 4.85576 7.38786 5.00695 7.22165C5.34337 6.859 5.51347 6.42081 5.53615 5.92973C5.56639 5.37065 5.58529 4.81158 5.61175 4.2525C5.61931 4.09762 5.63821 3.94652 5.65333 3.79164C5.66467 3.64809 5.71759 3.53099 5.85367 3.47432ZM5.84989 3.87852C5.84233 3.9163 5.83099 3.94274 5.83099 3.96163C5.83855 4.0674 5.85367 4.17317 5.86501 4.27894C5.93305 4.94379 6.00487 5.60486 5.91037 6.27348C5.86123 6.63613 5.74783 6.97233 5.52481 7.25565C5.32447 7.50496 5.10901 7.74295 4.88599 7.97716C4.72345 8.15092 4.53823 8.30203 4.37192 8.47201C4.13 8.71756 3.8654 8.94043 3.58568 9.14442C3.2795 9.37107 2.98089 9.60528 2.67849 9.83948C2.33073 10.1152 2.03589 10.4401 1.77885 10.8028C1.58985 11.0747 1.47645 11.3732 1.47267 11.7018C1.46889 12.0682 1.46133 12.4422 1.50291 12.8049C1.59741 13.6321 1.74861 14.4519 1.95651 15.2603C2.19465 16.1933 2.46303 17.1188 2.70873 18.0481C2.75787 18.2294 2.79945 18.4183 2.81079 18.6072C2.82213 18.8754 2.94687 19.0529 3.16611 19.1889C3.43071 19.3513 3.70664 19.4836 4.01282 19.5629C4.46264 19.6762 4.91623 19.7782 5.38117 19.8084C5.97463 19.8462 6.5643 19.9331 7.16154 19.8991C7.51686 19.8764 7.87596 19.8764 8.23128 19.8613C8.49209 19.85 8.75669 19.85 9.01373 19.816C9.94738 19.6951 10.8697 19.51 11.7807 19.2796C11.9054 19.2493 12.0264 19.2078 12.1662 19.1662C12.2494 18.5467 12.4951 17.9876 12.6879 17.4135C12.7483 17.2321 12.7937 17.047 12.8353 16.8619C13.0205 16.0271 13.2095 15.1923 13.3834 14.3536C13.5081 13.7492 13.6102 13.1373 13.6177 12.514C13.6253 11.766 13.3834 11.1163 12.8731 10.5648C12.616 10.2852 12.3628 9.99814 12.102 9.72238C11.9394 9.54861 11.7618 9.38996 11.5917 9.21997C11.4216 9.05375 11.2553 8.88755 11.0965 8.73267C10.9793 8.75533 10.8886 8.778 10.7941 8.79311C10.779 8.79688 10.7639 8.76666 10.7336 8.744C10.7639 8.71 10.7941 8.67978 10.8243 8.64578C10.8584 8.60423 10.8924 8.56268 10.9377 8.50979C10.692 8.30958 10.5673 8.01871 10.2649 7.91294C10.246 7.90538 10.2195 7.88649 10.2158 7.87138C10.1666 7.61829 9.93982 7.49741 9.79619 7.31609C9.78485 7.30098 9.75461 7.2972 9.72059 7.28587C9.68657 7.30853 9.65255 7.33875 9.61475 7.36142C9.57695 7.38408 9.53915 7.40675 9.49757 7.42941C9.43709 7.27076 9.43709 7.27076 9.53537 7.01388C9.28589 6.65879 9.24809 6.24704 9.27455 5.82396C9.29723 5.49153 9.33125 5.15911 9.36905 4.83046C9.39929 4.53581 9.44465 4.24494 9.48245 3.93518C9.41441 3.93518 9.35771 3.93518 9.28967 3.93518C9.22541 4.18072 9.19517 4.42627 9.16871 4.67181C9.14225 4.91735 9.05909 5.01556 8.81717 5.05334C8.19348 5.15911 7.56978 5.24221 6.93474 5.20066C6.77976 5.19311 6.62856 5.15911 6.47737 5.13266C6.31105 5.10244 6.20899 5.00045 6.17119 4.82668C6.11071 4.54715 6.03133 4.27516 5.95951 3.9994C5.94817 3.95407 5.95195 3.88608 5.84989 3.87852ZM9.05153 3.4781C9.19139 2.82836 9.16493 2.17485 9.23675 1.51C8.90789 1.46467 8.59793 1.44956 8.28419 1.50622C8.27285 1.70643 8.2653 1.8802 8.25018 2.05397C8.2464 2.11063 8.21994 2.16729 8.12544 2.17107C8.0007 2.0653 7.98936 1.91798 8.0007 1.75932C8.00826 1.66866 8.06495 1.57422 7.96289 1.46845C7.56978 1.46089 7.15776 1.41556 6.74196 1.44201C6.7344 1.49489 6.72307 1.52889 6.72685 1.55911C6.77977 2.17485 6.83268 2.79059 6.88938 3.40255C6.88938 3.42144 6.91206 3.44033 6.93474 3.48188C7.01412 3.4781 7.10106 3.47055 7.2069 3.46299C7.22202 3.327 7.23336 3.2099 7.2447 3.09279C7.25226 2.98702 7.25226 2.87747 7.27116 2.7717C7.2825 2.71126 7.3203 2.65837 7.35432 2.58282C7.52064 2.87369 7.40724 3.19856 7.55466 3.47055C7.84193 3.48566 8.12165 3.50455 8.42405 3.47055C8.43917 3.29678 8.45807 3.13057 8.47319 2.96813C8.50343 2.68104 8.50721 2.66215 8.62817 2.45439C8.78315 2.79059 8.72645 3.13812 8.79071 3.47432C8.88143 3.4781 8.96081 3.4781 9.05153 3.4781ZM6.48114 4.83046C6.8289 4.95134 7.17288 4.93246 7.51686 4.90601C7.73988 4.8909 7.96668 4.86446 8.18969 4.83802C8.36735 4.81535 8.54501 4.79646 8.71889 4.75869C8.77937 4.74358 8.86631 4.69069 8.87765 4.64159C8.92301 4.41116 9.00239 4.1845 8.96459 3.92385C8.87765 3.92385 8.80205 3.92385 8.72645 3.92385C8.63951 4.0334 8.67731 4.2185 8.511 4.27139C8.36736 4.18828 8.42784 4.00696 8.33334 3.88608C8.06874 3.86719 7.80413 3.82941 7.54332 3.88985C7.51308 4.27138 7.51308 4.27139 7.36566 4.41493C7.19178 4.27516 7.2636 4.03718 7.17288 3.87852C7.07082 3.85208 6.99144 3.83319 6.91962 3.89363C6.85536 4.03718 6.9612 4.22983 6.78732 4.35071C6.61722 4.23361 6.6399 4.0334 6.5643 3.86719C6.44712 3.86719 6.32995 3.86719 6.19387 3.86719C6.26569 4.20339 6.36774 4.50559 6.48114 4.83046ZM6.09937 3.4781C6.22789 3.49321 6.36397 3.50454 6.51895 3.46677C6.52651 3.40633 6.53407 3.34967 6.53785 3.293C6.54541 2.70371 6.54918 2.11063 6.55296 1.52133C6.55296 1.49111 6.53028 1.45712 6.51516 1.41556C6.38664 1.39668 6.25813 1.37401 6.12961 1.3589C6.08425 1.35512 6.04267 1.36268 6.00109 1.36646C5.93683 1.75554 5.99731 3.02857 6.09937 3.4781Z"/>
</mask>
<path d="M5.85367 3.47432C5.78563 3.08901 5.71759 2.75281 5.67223 2.40906C5.63065 2.10308 5.61931 1.79332 5.59663 1.48734C5.59285 1.44201 5.59285 1.3929 5.60041 1.34379C5.61175 1.23802 5.66467 1.16625 5.77429 1.14736C5.95195 1.11714 6.12582 1.08692 6.30348 1.06803C6.9423 0.996257 7.5849 1.00003 8.23128 1.00003C8.54123 1.00003 8.85119 1.00003 9.16115 1.00381C9.25565 1.00381 9.35392 1.00759 9.44464 1.02648C9.55804 1.04914 9.64121 1.12091 9.64499 1.24557C9.65255 1.37401 9.65632 1.50623 9.6412 1.63466C9.57695 2.23529 9.50512 2.83592 9.4333 3.45166C9.46733 3.46299 9.50891 3.48188 9.55427 3.49321C9.68657 3.53099 9.74705 3.62543 9.75461 3.75764C9.76217 3.85208 9.76217 3.94652 9.76217 4.04473C9.75839 4.67558 9.75082 5.30643 9.74704 5.93728C9.74704 5.98639 9.74705 6.03172 9.74327 6.08083C9.71681 6.42081 9.83021 6.70035 10.0646 6.95344C10.7639 7.70139 11.448 8.46068 12.1889 9.16708C12.6009 9.55995 12.9827 9.98681 13.3607 10.4174C13.8105 10.9274 14.0222 11.5394 14.0524 12.2118C14.0827 12.8955 13.992 13.5641 13.8634 14.2328C13.7576 14.7918 13.6215 15.3471 13.5081 15.9062C13.4287 16.2915 13.3796 16.6806 13.2964 17.0621C13.2322 17.353 13.1452 17.6363 13.0507 17.9197C12.9222 18.3012 12.7937 18.6865 12.7106 19.0831C12.6161 19.5327 12.5971 19.5704 12.1662 19.6838C11.5236 19.8538 10.8735 19.9973 10.2233 20.1371C9.40685 20.3108 8.57903 20.3939 7.73988 20.3751C7.66806 20.3751 7.59624 20.3751 7.52442 20.3826C6.88182 20.443 6.243 20.3751 5.60041 20.3146C5.01829 20.2617 4.44752 20.1484 3.8843 19.9897C3.5252 19.8878 3.19634 19.7329 2.89016 19.5176C2.69739 19.3816 2.56887 19.204 2.49705 18.9811C2.12283 17.8517 1.80153 16.7071 1.51048 15.5549C1.24588 14.5161 1.05688 13.4621 1.00396 12.3893C0.99262 12.1173 1.00774 11.8416 1.02286 11.5696C1.04176 11.1918 1.18539 10.8519 1.40085 10.5459C1.68813 10.1341 2.02455 9.76394 2.42145 9.45795C2.73141 9.21619 3.04893 8.98576 3.35888 8.744C3.5819 8.56645 3.79736 8.38135 4.01282 8.19248C4.19048 8.03382 4.36436 7.87139 4.53446 7.70517C4.697 7.54652 4.85576 7.38786 5.00695 7.22165C5.34337 6.859 5.51347 6.42081 5.53615 5.92973C5.56639 5.37065 5.58529 4.81158 5.61175 4.2525C5.61931 4.09762 5.63821 3.94652 5.65333 3.79164C5.66467 3.64809 5.71759 3.53099 5.85367 3.47432ZM5.84989 3.87852C5.84233 3.9163 5.83099 3.94274 5.83099 3.96163C5.83855 4.0674 5.85367 4.17317 5.86501 4.27894C5.93305 4.94379 6.00487 5.60486 5.91037 6.27348C5.86123 6.63613 5.74783 6.97233 5.52481 7.25565C5.32447 7.50496 5.10901 7.74295 4.88599 7.97716C4.72345 8.15092 4.53823 8.30203 4.37192 8.47201C4.13 8.71756 3.8654 8.94043 3.58568 9.14442C3.2795 9.37107 2.98089 9.60528 2.67849 9.83948C2.33073 10.1152 2.03589 10.4401 1.77885 10.8028C1.58985 11.0747 1.47645 11.3732 1.47267 11.7018C1.46889 12.0682 1.46133 12.4422 1.50291 12.8049C1.59741 13.6321 1.74861 14.4519 1.95651 15.2603C2.19465 16.1933 2.46303 17.1188 2.70873 18.0481C2.75787 18.2294 2.79945 18.4183 2.81079 18.6072C2.82213 18.8754 2.94687 19.0529 3.16611 19.1889C3.43071 19.3513 3.70664 19.4836 4.01282 19.5629C4.46264 19.6762 4.91623 19.7782 5.38117 19.8084C5.97463 19.8462 6.5643 19.9331 7.16154 19.8991C7.51686 19.8764 7.87596 19.8764 8.23128 19.8613C8.49209 19.85 8.75669 19.85 9.01373 19.816C9.94738 19.6951 10.8697 19.51 11.7807 19.2796C11.9054 19.2493 12.0264 19.2078 12.1662 19.1662C12.2494 18.5467 12.4951 17.9876 12.6879 17.4135C12.7483 17.2321 12.7937 17.047 12.8353 16.8619C13.0205 16.0271 13.2095 15.1923 13.3834 14.3536C13.5081 13.7492 13.6102 13.1373 13.6177 12.514C13.6253 11.766 13.3834 11.1163 12.8731 10.5648C12.616 10.2852 12.3628 9.99814 12.102 9.72238C11.9394 9.54861 11.7618 9.38996 11.5917 9.21997C11.4216 9.05375 11.2553 8.88755 11.0965 8.73267C10.9793 8.75533 10.8886 8.778 10.7941 8.79311C10.779 8.79688 10.7639 8.76666 10.7336 8.744C10.7639 8.71 10.7941 8.67978 10.8243 8.64578C10.8584 8.60423 10.8924 8.56268 10.9377 8.50979C10.692 8.30958 10.5673 8.01871 10.2649 7.91294C10.246 7.90538 10.2195 7.88649 10.2158 7.87138C10.1666 7.61829 9.93982 7.49741 9.79619 7.31609C9.78485 7.30098 9.75461 7.2972 9.72059 7.28587C9.68657 7.30853 9.65255 7.33875 9.61475 7.36142C9.57695 7.38408 9.53915 7.40675 9.49757 7.42941C9.43709 7.27076 9.43709 7.27076 9.53537 7.01388C9.28589 6.65879 9.24809 6.24704 9.27455 5.82396C9.29723 5.49153 9.33125 5.15911 9.36905 4.83046C9.39929 4.53581 9.44465 4.24494 9.48245 3.93518C9.41441 3.93518 9.35771 3.93518 9.28967 3.93518C9.22541 4.18072 9.19517 4.42627 9.16871 4.67181C9.14225 4.91735 9.05909 5.01556 8.81717 5.05334C8.19348 5.15911 7.56978 5.24221 6.93474 5.20066C6.77976 5.19311 6.62856 5.15911 6.47737 5.13266C6.31105 5.10244 6.20899 5.00045 6.17119 4.82668C6.11071 4.54715 6.03133 4.27516 5.95951 3.9994C5.94817 3.95407 5.95195 3.88608 5.84989 3.87852ZM9.05153 3.4781C9.19139 2.82836 9.16493 2.17485 9.23675 1.51C8.90789 1.46467 8.59793 1.44956 8.28419 1.50622C8.27285 1.70643 8.2653 1.8802 8.25018 2.05397C8.2464 2.11063 8.21994 2.16729 8.12544 2.17107C8.0007 2.0653 7.98936 1.91798 8.0007 1.75932C8.00826 1.66866 8.06495 1.57422 7.96289 1.46845C7.56978 1.46089 7.15776 1.41556 6.74196 1.44201C6.7344 1.49489 6.72307 1.52889 6.72685 1.55911C6.77977 2.17485 6.83268 2.79059 6.88938 3.40255C6.88938 3.42144 6.91206 3.44033 6.93474 3.48188C7.01412 3.4781 7.10106 3.47055 7.2069 3.46299C7.22202 3.327 7.23336 3.2099 7.2447 3.09279C7.25226 2.98702 7.25226 2.87747 7.27116 2.7717C7.2825 2.71126 7.3203 2.65837 7.35432 2.58282C7.52064 2.87369 7.40724 3.19856 7.55466 3.47055C7.84193 3.48566 8.12165 3.50455 8.42405 3.47055C8.43917 3.29678 8.45807 3.13057 8.47319 2.96813C8.50343 2.68104 8.50721 2.66215 8.62817 2.45439C8.78315 2.79059 8.72645 3.13812 8.79071 3.47432C8.88143 3.4781 8.96081 3.4781 9.05153 3.4781ZM6.48114 4.83046C6.8289 4.95134 7.17288 4.93246 7.51686 4.90601C7.73988 4.8909 7.96668 4.86446 8.18969 4.83802C8.36735 4.81535 8.54501 4.79646 8.71889 4.75869C8.77937 4.74358 8.86631 4.69069 8.87765 4.64159C8.92301 4.41116 9.00239 4.1845 8.96459 3.92385C8.87765 3.92385 8.80205 3.92385 8.72645 3.92385C8.63951 4.0334 8.67731 4.2185 8.511 4.27139C8.36736 4.18828 8.42784 4.00696 8.33334 3.88608C8.06874 3.86719 7.80413 3.82941 7.54332 3.88985C7.51308 4.27138 7.51308 4.27139 7.36566 4.41493C7.19178 4.27516 7.2636 4.03718 7.17288 3.87852C7.07082 3.85208 6.99144 3.83319 6.91962 3.89363C6.85536 4.03718 6.9612 4.22983 6.78732 4.35071C6.61722 4.23361 6.6399 4.0334 6.5643 3.86719C6.44712 3.86719 6.32995 3.86719 6.19387 3.86719C6.26569 4.20339 6.36774 4.50559 6.48114 4.83046ZM6.09937 3.4781C6.22789 3.49321 6.36397 3.50454 6.51895 3.46677C6.52651 3.40633 6.53407 3.34967 6.53785 3.293C6.54541 2.70371 6.54918 2.11063 6.55296 1.52133C6.55296 1.49111 6.53028 1.45712 6.51516 1.41556C6.38664 1.39668 6.25813 1.37401 6.12961 1.3589C6.08425 1.35512 6.04267 1.36268 6.00109 1.36646C5.93683 1.75554 5.99731 3.02857 6.09937 3.4781Z" fill="#020304"/>
<path d="M5.85367 3.47432C5.78563 3.08901 5.71759 2.75281 5.67223 2.40906C5.63065 2.10308 5.61931 1.79332 5.59663 1.48734C5.59285 1.44201 5.59285 1.3929 5.60041 1.34379C5.61175 1.23802 5.66467 1.16625 5.77429 1.14736C5.95195 1.11714 6.12582 1.08692 6.30348 1.06803C6.9423 0.996257 7.5849 1.00003 8.23128 1.00003C8.54123 1.00003 8.85119 1.00003 9.16115 1.00381C9.25565 1.00381 9.35392 1.00759 9.44464 1.02648C9.55804 1.04914 9.64121 1.12091 9.64499 1.24557C9.65255 1.37401 9.65632 1.50623 9.6412 1.63466C9.57695 2.23529 9.50512 2.83592 9.4333 3.45166C9.46733 3.46299 9.50891 3.48188 9.55427 3.49321C9.68657 3.53099 9.74705 3.62543 9.75461 3.75764C9.76217 3.85208 9.76217 3.94652 9.76217 4.04473C9.75839 4.67558 9.75082 5.30643 9.74704 5.93728C9.74704 5.98639 9.74705 6.03172 9.74327 6.08083C9.71681 6.42081 9.83021 6.70035 10.0646 6.95344C10.7639 7.70139 11.448 8.46068 12.1889 9.16708C12.6009 9.55995 12.9827 9.98681 13.3607 10.4174C13.8105 10.9274 14.0222 11.5394 14.0524 12.2118C14.0827 12.8955 13.992 13.5641 13.8634 14.2328C13.7576 14.7918 13.6215 15.3471 13.5081 15.9062C13.4287 16.2915 13.3796 16.6806 13.2964 17.0621C13.2322 17.353 13.1452 17.6363 13.0507 17.9197C12.9222 18.3012 12.7937 18.6865 12.7106 19.0831C12.6161 19.5327 12.5971 19.5704 12.1662 19.6838C11.5236 19.8538 10.8735 19.9973 10.2233 20.1371C9.40685 20.3108 8.57903 20.3939 7.73988 20.3751C7.66806 20.3751 7.59624 20.3751 7.52442 20.3826C6.88182 20.443 6.243 20.3751 5.60041 20.3146C5.01829 20.2617 4.44752 20.1484 3.8843 19.9897C3.5252 19.8878 3.19634 19.7329 2.89016 19.5176C2.69739 19.3816 2.56887 19.204 2.49705 18.9811C2.12283 17.8517 1.80153 16.7071 1.51048 15.5549C1.24588 14.5161 1.05688 13.4621 1.00396 12.3893C0.99262 12.1173 1.00774 11.8416 1.02286 11.5696C1.04176 11.1918 1.18539 10.8519 1.40085 10.5459C1.68813 10.1341 2.02455 9.76394 2.42145 9.45795C2.73141 9.21619 3.04893 8.98576 3.35888 8.744C3.5819 8.56645 3.79736 8.38135 4.01282 8.19248C4.19048 8.03382 4.36436 7.87139 4.53446 7.70517C4.697 7.54652 4.85576 7.38786 5.00695 7.22165C5.34337 6.859 5.51347 6.42081 5.53615 5.92973C5.56639 5.37065 5.58529 4.81158 5.61175 4.2525C5.61931 4.09762 5.63821 3.94652 5.65333 3.79164C5.66467 3.64809 5.71759 3.53099 5.85367 3.47432ZM5.84989 3.87852C5.84233 3.9163 5.83099 3.94274 5.83099 3.96163C5.83855 4.0674 5.85367 4.17317 5.86501 4.27894C5.93305 4.94379 6.00487 5.60486 5.91037 6.27348C5.86123 6.63613 5.74783 6.97233 5.52481 7.25565C5.32447 7.50496 5.10901 7.74295 4.88599 7.97716C4.72345 8.15092 4.53823 8.30203 4.37192 8.47201C4.13 8.71756 3.8654 8.94043 3.58568 9.14442C3.2795 9.37107 2.98089 9.60528 2.67849 9.83948C2.33073 10.1152 2.03589 10.4401 1.77885 10.8028C1.58985 11.0747 1.47645 11.3732 1.47267 11.7018C1.46889 12.0682 1.46133 12.4422 1.50291 12.8049C1.59741 13.6321 1.74861 14.4519 1.95651 15.2603C2.19465 16.1933 2.46303 17.1188 2.70873 18.0481C2.75787 18.2294 2.79945 18.4183 2.81079 18.6072C2.82213 18.8754 2.94687 19.0529 3.16611 19.1889C3.43071 19.3513 3.70664 19.4836 4.01282 19.5629C4.46264 19.6762 4.91623 19.7782 5.38117 19.8084C5.97463 19.8462 6.5643 19.9331 7.16154 19.8991C7.51686 19.8764 7.87596 19.8764 8.23128 19.8613C8.49209 19.85 8.75669 19.85 9.01373 19.816C9.94738 19.6951 10.8697 19.51 11.7807 19.2796C11.9054 19.2493 12.0264 19.2078 12.1662 19.1662C12.2494 18.5467 12.4951 17.9876 12.6879 17.4135C12.7483 17.2321 12.7937 17.047 12.8353 16.8619C13.0205 16.0271 13.2095 15.1923 13.3834 14.3536C13.5081 13.7492 13.6102 13.1373 13.6177 12.514C13.6253 11.766 13.3834 11.1163 12.8731 10.5648C12.616 10.2852 12.3628 9.99814 12.102 9.72238C11.9394 9.54861 11.7618 9.38996 11.5917 9.21997C11.4216 9.05375 11.2553 8.88755 11.0965 8.73267C10.9793 8.75533 10.8886 8.778 10.7941 8.79311C10.779 8.79688 10.7639 8.76666 10.7336 8.744C10.7639 8.71 10.7941 8.67978 10.8243 8.64578C10.8584 8.60423 10.8924 8.56268 10.9377 8.50979C10.692 8.30958 10.5673 8.01871 10.2649 7.91294C10.246 7.90538 10.2195 7.88649 10.2158 7.87138C10.1666 7.61829 9.93982 7.49741 9.79619 7.31609C9.78485 7.30098 9.75461 7.2972 9.72059 7.28587C9.68657 7.30853 9.65255 7.33875 9.61475 7.36142C9.57695 7.38408 9.53915 7.40675 9.49757 7.42941C9.43709 7.27076 9.43709 7.27076 9.53537 7.01388C9.28589 6.65879 9.24809 6.24704 9.27455 5.82396C9.29723 5.49153 9.33125 5.15911 9.36905 4.83046C9.39929 4.53581 9.44465 4.24494 9.48245 3.93518C9.41441 3.93518 9.35771 3.93518 9.28967 3.93518C9.22541 4.18072 9.19517 4.42627 9.16871 4.67181C9.14225 4.91735 9.05909 5.01556 8.81717 5.05334C8.19348 5.15911 7.56978 5.24221 6.93474 5.20066C6.77976 5.19311 6.62856 5.15911 6.47737 5.13266C6.31105 5.10244 6.20899 5.00045 6.17119 4.82668C6.11071 4.54715 6.03133 4.27516 5.95951 3.9994C5.94817 3.95407 5.95195 3.88608 5.84989 3.87852ZM9.05153 3.4781C9.19139 2.82836 9.16493 2.17485 9.23675 1.51C8.90789 1.46467 8.59793 1.44956 8.28419 1.50622C8.27285 1.70643 8.2653 1.8802 8.25018 2.05397C8.2464 2.11063 8.21994 2.16729 8.12544 2.17107C8.0007 2.0653 7.98936 1.91798 8.0007 1.75932C8.00826 1.66866 8.06495 1.57422 7.96289 1.46845C7.56978 1.46089 7.15776 1.41556 6.74196 1.44201C6.7344 1.49489 6.72307 1.52889 6.72685 1.55911C6.77977 2.17485 6.83268 2.79059 6.88938 3.40255C6.88938 3.42144 6.91206 3.44033 6.93474 3.48188C7.01412 3.4781 7.10106 3.47055 7.2069 3.46299C7.22202 3.327 7.23336 3.2099 7.2447 3.09279C7.25226 2.98702 7.25226 2.87747 7.27116 2.7717C7.2825 2.71126 7.3203 2.65837 7.35432 2.58282C7.52064 2.87369 7.40724 3.19856 7.55466 3.47055C7.84193 3.48566 8.12165 3.50455 8.42405 3.47055C8.43917 3.29678 8.45807 3.13057 8.47319 2.96813C8.50343 2.68104 8.50721 2.66215 8.62817 2.45439C8.78315 2.79059 8.72645 3.13812 8.79071 3.47432C8.88143 3.4781 8.96081 3.4781 9.05153 3.4781ZM6.48114 4.83046C6.8289 4.95134 7.17288 4.93246 7.51686 4.90601C7.73988 4.8909 7.96668 4.86446 8.18969 4.83802C8.36735 4.81535 8.54501 4.79646 8.71889 4.75869C8.77937 4.74358 8.86631 4.69069 8.87765 4.64159C8.92301 4.41116 9.00239 4.1845 8.96459 3.92385C8.87765 3.92385 8.80205 3.92385 8.72645 3.92385C8.63951 4.0334 8.67731 4.2185 8.511 4.27139C8.36736 4.18828 8.42784 4.00696 8.33334 3.88608C8.06874 3.86719 7.80413 3.82941 7.54332 3.88985C7.51308 4.27138 7.51308 4.27139 7.36566 4.41493C7.19178 4.27516 7.2636 4.03718 7.17288 3.87852C7.07082 3.85208 6.99144 3.83319 6.91962 3.89363C6.85536 4.03718 6.9612 4.22983 6.78732 4.35071C6.61722 4.23361 6.6399 4.0334 6.5643 3.86719C6.44712 3.86719 6.32995 3.86719 6.19387 3.86719C6.26569 4.20339 6.36774 4.50559 6.48114 4.83046ZM6.09937 3.4781C6.22789 3.49321 6.36397 3.50454 6.51895 3.46677C6.52651 3.40633 6.53407 3.34967 6.53785 3.293C6.54541 2.70371 6.54918 2.11063 6.55296 1.52133C6.55296 1.49111 6.53028 1.45712 6.51516 1.41556C6.38664 1.39668 6.25813 1.37401 6.12961 1.3589C6.08425 1.35512 6.04267 1.36268 6.00109 1.36646C5.93683 1.75554 5.99731 3.02857 6.09937 3.4781Z" stroke="black" stroke-width="0.2" mask="url(#path-1-outside-1_2_5153)"/>
<mask id="path-2-outside-2_2_5153" maskUnits="userSpaceOnUse" x="1.1257" y="8.72615" width="12" height="11" fill="black">
<rect fill="white" x="1.1257" y="8.72615" width="12" height="11"/>
<path d="M8.06118 10.2248C8.322 9.73748 8.322 9.73748 8.50722 9.72615C8.48454 9.90747 8.40138 10.0624 8.34468 10.2286C8.511 10.3268 8.511 10.3268 8.72645 10.3419C8.83607 10.2361 8.80205 10.0435 8.97215 9.95658C9.11201 10.1115 8.98349 10.2701 8.99105 10.425C9.25943 10.6063 9.47489 10.6856 9.74327 10.7008C9.76973 10.4817 9.73949 10.255 9.78107 10.0435C9.87179 10.0095 9.90959 10.0586 9.93227 10.1152C9.95873 10.1795 9.97385 10.2512 9.98519 10.3192C10.0079 10.459 10.0268 10.5988 10.0494 10.7348C10.314 10.7876 10.5371 10.7536 10.7676 10.6139C10.881 10.5459 10.9793 10.4628 11.0889 10.3872C11.1872 10.3192 11.2817 10.2437 11.3838 10.187C11.5652 10.0888 11.758 10.0775 11.9205 10.2172C12.3515 10.5836 12.7332 10.9841 12.9071 11.5431C12.9789 11.7736 13.0205 12.0078 12.9865 12.2458C12.9411 12.5744 12.8806 12.9031 12.8239 13.2317C12.6614 14.1459 12.4989 15.0563 12.2607 15.9553C12.136 16.4275 12.0264 16.9035 11.9016 17.3719C11.8449 17.591 11.7769 17.8063 11.6937 18.0141C11.5199 18.4523 11.1948 18.7318 10.7374 18.8489C9.78863 19.0945 8.82852 19.2493 7.8495 19.2758C7.68318 19.2796 7.51686 19.2833 7.35054 19.2909C6.94609 19.306 6.54163 19.2796 6.14473 19.2002C5.69113 19.1096 5.23375 19.0189 4.78016 18.9282C4.74614 18.9207 4.70834 18.9169 4.67432 18.9094C4.09598 18.7771 3.6953 18.4561 3.53276 17.8592C3.26439 16.8846 2.96577 15.9213 2.75787 14.9278C2.61801 14.2668 2.44413 13.6095 2.28915 12.9522C2.24757 12.7784 2.20221 12.6046 2.16441 12.4309C2.06613 12.0116 2.16063 11.63 2.38365 11.2712C2.47815 11.1201 2.56887 10.969 2.65581 10.8141C2.73897 10.6705 2.85237 10.5837 3.01491 10.5459C3.30219 10.4817 3.58569 10.5157 3.86163 10.6025C4.13378 10.6894 4.40216 10.7801 4.66676 10.8859C5.41519 11.1843 6.13339 11.105 6.8289 10.7196C6.9234 10.6668 7.01035 10.6101 7.10485 10.5534C7.36945 10.3872 7.64916 10.2588 7.97046 10.2474C7.99692 10.2512 8.03094 10.2323 8.06118 10.2248ZM5.67602 13.1977C4.82174 13.5981 4.38326 14.3461 4.45886 15.2074C4.51934 15.8949 4.99562 16.4955 5.65333 16.707C6.39799 16.9488 7.20312 16.6731 7.66806 16.0158C7.6983 15.9742 7.70964 15.9213 7.73232 15.8571C7.66806 15.8609 7.63026 15.8533 7.60002 15.8647C6.98767 16.0611 6.26191 15.7664 5.86123 15.1809C5.51347 14.671 5.42654 14.1119 5.57396 13.515C5.59663 13.4281 5.63066 13.3413 5.67602 13.1977ZM10.4652 17.1452C10.5635 17.0508 10.6013 17.0281 10.6278 16.9904C10.8395 16.7146 10.9869 16.4086 11.0852 16.0724C11.38 15.0903 11.6106 14.0968 11.7202 13.0768C11.7504 12.7935 11.7353 12.5064 11.7353 12.2231C11.7353 12.1816 11.69 12.1438 11.637 12.0569C11.5992 12.2533 11.5728 12.3893 11.5501 12.5291C11.4669 13.0202 11.3913 13.515 11.2931 14.0023C11.1532 14.6898 10.968 15.366 10.7034 16.0195C10.5711 16.352 10.4917 16.6957 10.4652 17.1452ZM3.05649 12.038C3.48363 11.7471 3.90698 11.8 4.32656 12.038C4.43996 12.1022 4.55336 12.1664 4.67054 12.2307C5.02964 12.4309 5.41142 12.4762 5.8121 12.3969C5.89526 12.3818 5.97841 12.3667 6.05779 12.344C6.09559 12.3327 6.12961 12.3024 6.19009 12.2609C6.11449 12.2269 6.07669 12.2004 6.03133 12.1891C5.46433 12.0493 4.9049 11.8907 4.38704 11.6111C4.1867 11.5016 3.95612 11.4714 3.72555 11.4978C3.50631 11.5205 3.30597 11.5923 3.14343 11.7434C3.06405 11.8227 3.00357 11.9058 3.05649 12.038ZM8.5866 11.4034C8.5677 11.3732 8.55635 11.3467 8.54123 11.3354C8.133 11.1125 7.72854 11.0936 7.32786 11.3505C7.10863 11.4903 6.88561 11.6263 6.66637 11.7698C6.63613 11.7887 6.62479 11.8378 6.60211 11.8793C6.73063 11.936 6.83268 11.9209 6.93474 11.8793C7.0557 11.834 7.18045 11.7887 7.29385 11.7282C7.56978 11.5809 7.86084 11.4903 8.17836 11.4827C8.31822 11.4789 8.46186 11.4789 8.5866 11.4034ZM9.62987 14.0892C9.46355 14.2441 9.49379 14.4141 9.43331 14.5463C9.36527 14.5878 9.30479 14.6294 9.18383 14.7087C9.40307 14.7427 9.42953 14.8636 9.44087 15.0034C9.44843 15.0865 9.43709 15.1809 9.53159 15.2829C9.59207 15.1129 9.64121 14.9732 9.69035 14.8409C9.76973 14.8069 9.83399 14.7805 9.91337 14.7503C9.82265 14.6898 9.75461 14.6483 9.69413 14.6067C9.69035 14.5161 9.68657 14.4443 9.67901 14.3763C9.67145 14.297 9.65255 14.2176 9.62987 14.0892ZM10.8546 11.6603C10.4841 11.5205 10.1288 11.4903 9.75461 11.4676C9.88313 11.6867 9.97763 11.7547 10.2384 11.8038C10.4539 11.8454 10.6505 11.8151 10.8546 11.6603ZM5.09767 17.8214C5.21485 17.7761 5.32069 17.7345 5.49457 17.6665C5.32069 17.6401 5.21864 17.625 5.12414 17.6099C5.08256 17.5306 5.04476 17.4626 4.98806 17.3568C4.92758 17.5532 4.82174 17.6703 4.65542 17.7194C4.64408 17.7232 4.63274 17.7308 4.62896 17.7383C4.61384 17.7685 4.60628 17.7988 4.58738 17.8365C4.68944 17.8441 4.77638 17.8554 4.84442 17.8592C4.93514 17.9574 4.85954 18.0934 4.99184 18.1765C5.02963 18.0519 5.06365 17.9348 5.09767 17.8214ZM9.28589 18.033C9.53159 18.1652 9.72437 18.1274 9.91337 18.0443C10.0268 17.9914 10.1439 17.9234 10.1477 17.7459C9.82643 17.7157 9.56561 17.8139 9.28589 18.033ZM6.96877 13.4357C7.02547 13.2884 7.04059 13.2053 7.08595 13.1486C7.13131 13.0957 7.2069 13.0693 7.25982 13.0391C7.17288 12.9219 7.0935 12.8162 7.00656 12.7029C6.95364 12.8162 6.87048 12.8502 6.77599 12.8728C6.74953 12.8804 6.73062 12.9219 6.70416 12.9484C6.7722 12.9862 6.8289 13.0202 6.88182 13.0504C6.9045 13.1599 6.92719 13.2582 6.96877 13.4357ZM6.92719 17.6817C6.99523 17.8025 7.06327 17.9159 7.13887 18.0519C7.19935 17.9121 7.25604 17.7912 7.31274 17.6665C7.25982 17.6061 7.19934 17.5381 7.1313 17.4626C7.05948 17.5419 6.98767 17.6174 6.92719 17.6817ZM7.78524 14.4896C7.80792 14.467 7.85706 14.4367 7.87596 14.3914C7.90242 14.331 7.83438 14.2592 7.75878 14.2592C7.6983 14.2592 7.64538 14.2856 7.63404 14.3536C7.61892 14.4254 7.67562 14.4896 7.78524 14.4896ZM8.54123 13.3828C8.51855 13.413 8.4732 13.4508 8.46186 13.4999C8.44674 13.5604 8.48076 13.6132 8.55258 13.6246C8.62062 13.6359 8.6622 13.5981 8.6811 13.5339C8.69622 13.4735 8.62817 13.3904 8.54123 13.3828Z"/>
</mask>
<path d="M8.06118 10.2248C8.322 9.73748 8.322 9.73748 8.50722 9.72615C8.48454 9.90747 8.40138 10.0624 8.34468 10.2286C8.511 10.3268 8.511 10.3268 8.72645 10.3419C8.83607 10.2361 8.80205 10.0435 8.97215 9.95658C9.11201 10.1115 8.98349 10.2701 8.99105 10.425C9.25943 10.6063 9.47489 10.6856 9.74327 10.7008C9.76973 10.4817 9.73949 10.255 9.78107 10.0435C9.87179 10.0095 9.90959 10.0586 9.93227 10.1152C9.95873 10.1795 9.97385 10.2512 9.98519 10.3192C10.0079 10.459 10.0268 10.5988 10.0494 10.7348C10.314 10.7876 10.5371 10.7536 10.7676 10.6139C10.881 10.5459 10.9793 10.4628 11.0889 10.3872C11.1872 10.3192 11.2817 10.2437 11.3838 10.187C11.5652 10.0888 11.758 10.0775 11.9205 10.2172C12.3515 10.5836 12.7332 10.9841 12.9071 11.5431C12.9789 11.7736 13.0205 12.0078 12.9865 12.2458C12.9411 12.5744 12.8806 12.9031 12.8239 13.2317C12.6614 14.1459 12.4989 15.0563 12.2607 15.9553C12.136 16.4275 12.0264 16.9035 11.9016 17.3719C11.8449 17.591 11.7769 17.8063 11.6937 18.0141C11.5199 18.4523 11.1948 18.7318 10.7374 18.8489C9.78863 19.0945 8.82852 19.2493 7.8495 19.2758C7.68318 19.2796 7.51686 19.2833 7.35054 19.2909C6.94609 19.306 6.54163 19.2796 6.14473 19.2002C5.69113 19.1096 5.23375 19.0189 4.78016 18.9282C4.74614 18.9207 4.70834 18.9169 4.67432 18.9094C4.09598 18.7771 3.6953 18.4561 3.53276 17.8592C3.26439 16.8846 2.96577 15.9213 2.75787 14.9278C2.61801 14.2668 2.44413 13.6095 2.28915 12.9522C2.24757 12.7784 2.20221 12.6046 2.16441 12.4309C2.06613 12.0116 2.16063 11.63 2.38365 11.2712C2.47815 11.1201 2.56887 10.969 2.65581 10.8141C2.73897 10.6705 2.85237 10.5837 3.01491 10.5459C3.30219 10.4817 3.58569 10.5157 3.86163 10.6025C4.13378 10.6894 4.40216 10.7801 4.66676 10.8859C5.41519 11.1843 6.13339 11.105 6.8289 10.7196C6.9234 10.6668 7.01035 10.6101 7.10485 10.5534C7.36945 10.3872 7.64916 10.2588 7.97046 10.2474C7.99692 10.2512 8.03094 10.2323 8.06118 10.2248ZM5.67602 13.1977C4.82174 13.5981 4.38326 14.3461 4.45886 15.2074C4.51934 15.8949 4.99562 16.4955 5.65333 16.707C6.39799 16.9488 7.20312 16.6731 7.66806 16.0158C7.6983 15.9742 7.70964 15.9213 7.73232 15.8571C7.66806 15.8609 7.63026 15.8533 7.60002 15.8647C6.98767 16.0611 6.26191 15.7664 5.86123 15.1809C5.51347 14.671 5.42654 14.1119 5.57396 13.515C5.59663 13.4281 5.63066 13.3413 5.67602 13.1977ZM10.4652 17.1452C10.5635 17.0508 10.6013 17.0281 10.6278 16.9904C10.8395 16.7146 10.9869 16.4086 11.0852 16.0724C11.38 15.0903 11.6106 14.0968 11.7202 13.0768C11.7504 12.7935 11.7353 12.5064 11.7353 12.2231C11.7353 12.1816 11.69 12.1438 11.637 12.0569C11.5992 12.2533 11.5728 12.3893 11.5501 12.5291C11.4669 13.0202 11.3913 13.515 11.2931 14.0023C11.1532 14.6898 10.968 15.366 10.7034 16.0195C10.5711 16.352 10.4917 16.6957 10.4652 17.1452ZM3.05649 12.038C3.48363 11.7471 3.90698 11.8 4.32656 12.038C4.43996 12.1022 4.55336 12.1664 4.67054 12.2307C5.02964 12.4309 5.41142 12.4762 5.8121 12.3969C5.89526 12.3818 5.97841 12.3667 6.05779 12.344C6.09559 12.3327 6.12961 12.3024 6.19009 12.2609C6.11449 12.2269 6.07669 12.2004 6.03133 12.1891C5.46433 12.0493 4.9049 11.8907 4.38704 11.6111C4.1867 11.5016 3.95612 11.4714 3.72555 11.4978C3.50631 11.5205 3.30597 11.5923 3.14343 11.7434C3.06405 11.8227 3.00357 11.9058 3.05649 12.038ZM8.5866 11.4034C8.5677 11.3732 8.55635 11.3467 8.54123 11.3354C8.133 11.1125 7.72854 11.0936 7.32786 11.3505C7.10863 11.4903 6.88561 11.6263 6.66637 11.7698C6.63613 11.7887 6.62479 11.8378 6.60211 11.8793C6.73063 11.936 6.83268 11.9209 6.93474 11.8793C7.0557 11.834 7.18045 11.7887 7.29385 11.7282C7.56978 11.5809 7.86084 11.4903 8.17836 11.4827C8.31822 11.4789 8.46186 11.4789 8.5866 11.4034ZM9.62987 14.0892C9.46355 14.2441 9.49379 14.4141 9.43331 14.5463C9.36527 14.5878 9.30479 14.6294 9.18383 14.7087C9.40307 14.7427 9.42953 14.8636 9.44087 15.0034C9.44843 15.0865 9.43709 15.1809 9.53159 15.2829C9.59207 15.1129 9.64121 14.9732 9.69035 14.8409C9.76973 14.8069 9.83399 14.7805 9.91337 14.7503C9.82265 14.6898 9.75461 14.6483 9.69413 14.6067C9.69035 14.5161 9.68657 14.4443 9.67901 14.3763C9.67145 14.297 9.65255 14.2176 9.62987 14.0892ZM10.8546 11.6603C10.4841 11.5205 10.1288 11.4903 9.75461 11.4676C9.88313 11.6867 9.97763 11.7547 10.2384 11.8038C10.4539 11.8454 10.6505 11.8151 10.8546 11.6603ZM5.09767 17.8214C5.21485 17.7761 5.32069 17.7345 5.49457 17.6665C5.32069 17.6401 5.21864 17.625 5.12414 17.6099C5.08256 17.5306 5.04476 17.4626 4.98806 17.3568C4.92758 17.5532 4.82174 17.6703 4.65542 17.7194C4.64408 17.7232 4.63274 17.7308 4.62896 17.7383C4.61384 17.7685 4.60628 17.7988 4.58738 17.8365C4.68944 17.8441 4.77638 17.8554 4.84442 17.8592C4.93514 17.9574 4.85954 18.0934 4.99184 18.1765C5.02963 18.0519 5.06365 17.9348 5.09767 17.8214ZM9.28589 18.033C9.53159 18.1652 9.72437 18.1274 9.91337 18.0443C10.0268 17.9914 10.1439 17.9234 10.1477 17.7459C9.82643 17.7157 9.56561 17.8139 9.28589 18.033ZM6.96877 13.4357C7.02547 13.2884 7.04059 13.2053 7.08595 13.1486C7.13131 13.0957 7.2069 13.0693 7.25982 13.0391C7.17288 12.9219 7.0935 12.8162 7.00656 12.7029C6.95364 12.8162 6.87048 12.8502 6.77599 12.8728C6.74953 12.8804 6.73062 12.9219 6.70416 12.9484C6.7722 12.9862 6.8289 13.0202 6.88182 13.0504C6.9045 13.1599 6.92719 13.2582 6.96877 13.4357ZM6.92719 17.6817C6.99523 17.8025 7.06327 17.9159 7.13887 18.0519C7.19935 17.9121 7.25604 17.7912 7.31274 17.6665C7.25982 17.6061 7.19934 17.5381 7.1313 17.4626C7.05948 17.5419 6.98767 17.6174 6.92719 17.6817ZM7.78524 14.4896C7.80792 14.467 7.85706 14.4367 7.87596 14.3914C7.90242 14.331 7.83438 14.2592 7.75878 14.2592C7.6983 14.2592 7.64538 14.2856 7.63404 14.3536C7.61892 14.4254 7.67562 14.4896 7.78524 14.4896ZM8.54123 13.3828C8.51855 13.413 8.4732 13.4508 8.46186 13.4999C8.44674 13.5604 8.48076 13.6132 8.55258 13.6246C8.62062 13.6359 8.6622 13.5981 8.6811 13.5339C8.69622 13.4735 8.62817 13.3904 8.54123 13.3828Z" fill="#020304"/>
<path d="M8.06118 10.2248C8.322 9.73748 8.322 9.73748 8.50722 9.72615C8.48454 9.90747 8.40138 10.0624 8.34468 10.2286C8.511 10.3268 8.511 10.3268 8.72645 10.3419C8.83607 10.2361 8.80205 10.0435 8.97215 9.95658C9.11201 10.1115 8.98349 10.2701 8.99105 10.425C9.25943 10.6063 9.47489 10.6856 9.74327 10.7008C9.76973 10.4817 9.73949 10.255 9.78107 10.0435C9.87179 10.0095 9.90959 10.0586 9.93227 10.1152C9.95873 10.1795 9.97385 10.2512 9.98519 10.3192C10.0079 10.459 10.0268 10.5988 10.0494 10.7348C10.314 10.7876 10.5371 10.7536 10.7676 10.6139C10.881 10.5459 10.9793 10.4628 11.0889 10.3872C11.1872 10.3192 11.2817 10.2437 11.3838 10.187C11.5652 10.0888 11.758 10.0775 11.9205 10.2172C12.3515 10.5836 12.7332 10.9841 12.9071 11.5431C12.9789 11.7736 13.0205 12.0078 12.9865 12.2458C12.9411 12.5744 12.8806 12.9031 12.8239 13.2317C12.6614 14.1459 12.4989 15.0563 12.2607 15.9553C12.136 16.4275 12.0264 16.9035 11.9016 17.3719C11.8449 17.591 11.7769 17.8063 11.6937 18.0141C11.5199 18.4523 11.1948 18.7318 10.7374 18.8489C9.78863 19.0945 8.82852 19.2493 7.8495 19.2758C7.68318 19.2796 7.51686 19.2833 7.35054 19.2909C6.94609 19.306 6.54163 19.2796 6.14473 19.2002C5.69113 19.1096 5.23375 19.0189 4.78016 18.9282C4.74614 18.9207 4.70834 18.9169 4.67432 18.9094C4.09598 18.7771 3.6953 18.4561 3.53276 17.8592C3.26439 16.8846 2.96577 15.9213 2.75787 14.9278C2.61801 14.2668 2.44413 13.6095 2.28915 12.9522C2.24757 12.7784 2.20221 12.6046 2.16441 12.4309C2.06613 12.0116 2.16063 11.63 2.38365 11.2712C2.47815 11.1201 2.56887 10.969 2.65581 10.8141C2.73897 10.6705 2.85237 10.5837 3.01491 10.5459C3.30219 10.4817 3.58569 10.5157 3.86163 10.6025C4.13378 10.6894 4.40216 10.7801 4.66676 10.8859C5.41519 11.1843 6.13339 11.105 6.8289 10.7196C6.9234 10.6668 7.01035 10.6101 7.10485 10.5534C7.36945 10.3872 7.64916 10.2588 7.97046 10.2474C7.99692 10.2512 8.03094 10.2323 8.06118 10.2248ZM5.67602 13.1977C4.82174 13.5981 4.38326 14.3461 4.45886 15.2074C4.51934 15.8949 4.99562 16.4955 5.65333 16.707C6.39799 16.9488 7.20312 16.6731 7.66806 16.0158C7.6983 15.9742 7.70964 15.9213 7.73232 15.8571C7.66806 15.8609 7.63026 15.8533 7.60002 15.8647C6.98767 16.0611 6.26191 15.7664 5.86123 15.1809C5.51347 14.671 5.42654 14.1119 5.57396 13.515C5.59663 13.4281 5.63066 13.3413 5.67602 13.1977ZM10.4652 17.1452C10.5635 17.0508 10.6013 17.0281 10.6278 16.9904C10.8395 16.7146 10.9869 16.4086 11.0852 16.0724C11.38 15.0903 11.6106 14.0968 11.7202 13.0768C11.7504 12.7935 11.7353 12.5064 11.7353 12.2231C11.7353 12.1816 11.69 12.1438 11.637 12.0569C11.5992 12.2533 11.5728 12.3893 11.5501 12.5291C11.4669 13.0202 11.3913 13.515 11.2931 14.0023C11.1532 14.6898 10.968 15.366 10.7034 16.0195C10.5711 16.352 10.4917 16.6957 10.4652 17.1452ZM3.05649 12.038C3.48363 11.7471 3.90698 11.8 4.32656 12.038C4.43996 12.1022 4.55336 12.1664 4.67054 12.2307C5.02964 12.4309 5.41142 12.4762 5.8121 12.3969C5.89526 12.3818 5.97841 12.3667 6.05779 12.344C6.09559 12.3327 6.12961 12.3024 6.19009 12.2609C6.11449 12.2269 6.07669 12.2004 6.03133 12.1891C5.46433 12.0493 4.9049 11.8907 4.38704 11.6111C4.1867 11.5016 3.95612 11.4714 3.72555 11.4978C3.50631 11.5205 3.30597 11.5923 3.14343 11.7434C3.06405 11.8227 3.00357 11.9058 3.05649 12.038ZM8.5866 11.4034C8.5677 11.3732 8.55635 11.3467 8.54123 11.3354C8.133 11.1125 7.72854 11.0936 7.32786 11.3505C7.10863 11.4903 6.88561 11.6263 6.66637 11.7698C6.63613 11.7887 6.62479 11.8378 6.60211 11.8793C6.73063 11.936 6.83268 11.9209 6.93474 11.8793C7.0557 11.834 7.18045 11.7887 7.29385 11.7282C7.56978 11.5809 7.86084 11.4903 8.17836 11.4827C8.31822 11.4789 8.46186 11.4789 8.5866 11.4034ZM9.62987 14.0892C9.46355 14.2441 9.49379 14.4141 9.43331 14.5463C9.36527 14.5878 9.30479 14.6294 9.18383 14.7087C9.40307 14.7427 9.42953 14.8636 9.44087 15.0034C9.44843 15.0865 9.43709 15.1809 9.53159 15.2829C9.59207 15.1129 9.64121 14.9732 9.69035 14.8409C9.76973 14.8069 9.83399 14.7805 9.91337 14.7503C9.82265 14.6898 9.75461 14.6483 9.69413 14.6067C9.69035 14.5161 9.68657 14.4443 9.67901 14.3763C9.67145 14.297 9.65255 14.2176 9.62987 14.0892ZM10.8546 11.6603C10.4841 11.5205 10.1288 11.4903 9.75461 11.4676C9.88313 11.6867 9.97763 11.7547 10.2384 11.8038C10.4539 11.8454 10.6505 11.8151 10.8546 11.6603ZM5.09767 17.8214C5.21485 17.7761 5.32069 17.7345 5.49457 17.6665C5.32069 17.6401 5.21864 17.625 5.12414 17.6099C5.08256 17.5306 5.04476 17.4626 4.98806 17.3568C4.92758 17.5532 4.82174 17.6703 4.65542 17.7194C4.64408 17.7232 4.63274 17.7308 4.62896 17.7383C4.61384 17.7685 4.60628 17.7988 4.58738 17.8365C4.68944 17.8441 4.77638 17.8554 4.84442 17.8592C4.93514 17.9574 4.85954 18.0934 4.99184 18.1765C5.02963 18.0519 5.06365 17.9348 5.09767 17.8214ZM9.28589 18.033C9.53159 18.1652 9.72437 18.1274 9.91337 18.0443C10.0268 17.9914 10.1439 17.9234 10.1477 17.7459C9.82643 17.7157 9.56561 17.8139 9.28589 18.033ZM6.96877 13.4357C7.02547 13.2884 7.04059 13.2053 7.08595 13.1486C7.13131 13.0957 7.2069 13.0693 7.25982 13.0391C7.17288 12.9219 7.0935 12.8162 7.00656 12.7029C6.95364 12.8162 6.87048 12.8502 6.77599 12.8728C6.74953 12.8804 6.73062 12.9219 6.70416 12.9484C6.7722 12.9862 6.8289 13.0202 6.88182 13.0504C6.9045 13.1599 6.92719 13.2582 6.96877 13.4357ZM6.92719 17.6817C6.99523 17.8025 7.06327 17.9159 7.13887 18.0519C7.19935 17.9121 7.25604 17.7912 7.31274 17.6665C7.25982 17.6061 7.19934 17.5381 7.1313 17.4626C7.05948 17.5419 6.98767 17.6174 6.92719 17.6817ZM7.78524 14.4896C7.80792 14.467 7.85706 14.4367 7.87596 14.3914C7.90242 14.331 7.83438 14.2592 7.75878 14.2592C7.6983 14.2592 7.64538 14.2856 7.63404 14.3536C7.61892 14.4254 7.67562 14.4896 7.78524 14.4896ZM8.54123 13.3828C8.51855 13.413 8.4732 13.4508 8.46186 13.4999C8.44674 13.5604 8.48076 13.6132 8.55258 13.6246C8.62062 13.6359 8.6622 13.5981 8.6811 13.5339C8.69622 13.4735 8.62817 13.3904 8.54123 13.3828Z" stroke="black" stroke-width="0.2" mask="url(#path-2-outside-2_2_5153)"/>
<path d="M10.4434 8.74467C10.4514 8.14208 9.95569 7.65104 9.35327 7.65896L9.35325 7.65896C8.77101 7.66688 8.2746 8.16487 8.2985 8.74606L8.2985 8.7461C8.32614 9.40514 8.81427 9.80208 9.36798 9.81393L9.36798 9.81394H9.36905C9.95225 9.81394 10.4393 9.32714 10.4434 8.74467ZM10.4434 8.74467L10.3934 8.74401M10.4434 8.74467C10.4434 8.74456 10.4434 8.74446 10.4434 8.74435L10.3934 8.74401M10.3934 8.74401C10.3896 9.29931 9.92471 9.76394 9.36905 9.76394C8.83985 9.75261 8.37492 9.37486 8.34846 8.74401C8.32578 8.19249 8.79827 7.71652 9.35393 7.70896C9.92849 7.7014 10.401 8.16982 10.3934 8.74401Z" fill="#020304" stroke="black" stroke-width="0.1"/>
<path d="M3.62953 9.96346L3.60994 9.98838L3.62412 10.0167C3.62651 10.0215 3.62877 10.0264 3.63135 10.0321L3.63164 10.0327C3.63403 10.0379 3.63678 10.0439 3.63972 10.0498C3.64576 10.0619 3.65429 10.077 3.66752 10.0902L3.68356 10.1062L3.70619 10.1047C3.71885 10.1039 3.73202 10.1036 3.74647 10.1034C3.74779 10.1034 3.74912 10.1034 3.75046 10.1034C3.76341 10.1032 3.77745 10.1031 3.79135 10.1024C3.82185 10.1009 3.85685 10.0967 3.89012 10.0813L3.89012 10.0813L3.89062 10.0811C3.90845 10.0726 3.92636 10.0642 3.94431 10.0557C4.07704 9.99311 4.21228 9.92934 4.33851 9.84753C4.73667 9.59118 5.07647 9.2704 5.38825 8.92083L5.3884 8.92066C5.59605 8.68573 5.70818 8.39768 5.79563 8.11271L5.79563 8.11271L5.7959 8.11178C5.80439 8.0821 5.79502 8.0522 5.78972 8.03586C5.78744 8.02885 5.78534 8.0228 5.78344 8.01731C5.77939 8.00562 5.77623 7.99652 5.77417 7.98623L5.76367 7.93372L5.712 7.9478C5.70285 7.9503 5.69347 7.95244 5.68342 7.95467C5.6822 7.95494 5.68097 7.95521 5.67972 7.95549C5.67104 7.95741 5.66165 7.95949 5.65273 7.96178C5.63351 7.9667 5.60787 7.9745 5.58731 7.99162L5.5873 7.99161L5.58629 7.9925C5.54187 8.03156 5.49663 8.07032 5.45119 8.10924C5.30605 8.23357 5.1589 8.35963 5.03024 8.50281L5.02999 8.5031C5.01711 8.51765 5.00425 8.53219 4.99139 8.54673C4.59981 8.9894 4.21578 9.42354 3.76524 9.80116L3.76508 9.8013C3.73648 9.82548 3.71222 9.85425 3.6907 9.88211C3.68079 9.89494 3.67111 9.90804 3.66183 9.92061L3.65933 9.92399C3.64916 9.93777 3.63941 9.9509 3.62953 9.96346Z" fill="#020304" stroke="black" stroke-width="0.1"/>
<path d="M6.08424 6.97234L6.0373 6.95511C6.03622 6.95807 6.03513 6.96104 6.03404 6.96401C5.95249 7.18618 5.86212 7.4324 5.93771 7.71073L5.94755 7.74696L5.98509 7.74762C6.10912 7.74979 6.19236 7.70074 6.25364 7.63293C6.29715 7.58479 6.3312 7.52449 6.36089 7.4719C6.37025 7.45533 6.37918 7.43952 6.38783 7.4251C6.56016 7.1432 6.62891 6.8365 6.50167 6.48682L6.48083 6.42954L6.42873 6.46119C6.22437 6.58532 6.1044 6.76181 6.03701 6.95594L6.08424 6.97234ZM6.08424 6.97234C6.14356 6.80148 6.24474 6.64672 6.41157 6.53182L6.34506 7.3992C6.33494 7.41606 6.32506 7.43355 6.31508 7.4512C6.24683 7.57196 6.17394 7.70092 5.98597 7.69762C5.91457 7.43475 6.00007 7.20175 6.08277 6.97634L6.08424 6.97234Z" fill="#020304" stroke="black" stroke-width="0.1"/>
<path d="M8.39397 6.27871L8.32929 6.2033L8.30726 6.30018C8.24943 6.55446 8.2536 6.75421 8.38028 6.92302L8.38027 6.92303L8.38117 6.92416C8.54506 7.12985 8.73028 7.31959 8.96342 7.45607C8.98026 7.46754 8.99827 7.4653 9.00189 7.46485L9.00212 7.46482C9.00913 7.46397 9.01594 7.46199 9.0198 7.46086C9.02266 7.46002 9.02542 7.45917 9.02823 7.45831C9.03519 7.45617 9.04246 7.45394 9.05231 7.45148L9.09425 7.44101L9.08994 7.398C9.08932 7.39174 9.08924 7.38411 9.08947 7.374C9.08953 7.3713 9.08962 7.36826 9.08971 7.36503C9.08994 7.35744 9.09019 7.34873 9.09019 7.34064C9.09019 7.31718 9.08844 7.28567 9.07357 7.25594C9.03556 7.17998 8.99166 7.09955 8.93431 7.03399C8.79577 6.87308 8.67485 6.71137 8.59088 6.518L8.59088 6.518L8.5907 6.5176C8.57204 6.47564 8.5426 6.44037 8.51 6.40491C8.49917 6.39314 8.488 6.38134 8.47636 6.36905C8.45148 6.34279 8.42444 6.31424 8.39397 6.27871Z" fill="#020304" stroke="black" stroke-width="0.1"/>
<path d="M11.5834 9.66652L11.6679 9.6614L11.6226 9.58987C11.5647 9.49841 11.5206 9.43281 11.4711 9.38824C11.4186 9.34088 11.3625 9.31907 11.2864 9.30668C11.0773 9.2687 10.8618 9.23784 10.6074 9.24555L10.5047 9.24865L10.5705 9.32754C10.5897 9.35056 10.6046 9.3709 10.6189 9.39036C10.6249 9.39865 10.6309 9.40679 10.637 9.4149C10.6562 9.44034 10.6778 9.46661 10.7068 9.48504L10.7068 9.48504L10.7072 9.48531C10.8002 9.5431 10.9567 9.59169 11.1173 9.62407C11.279 9.65668 11.4528 9.67443 11.5834 9.66652Z" fill="#020304" stroke="black" stroke-width="0.1"/>
<path d="M8.19656 8.36879L8.29336 8.33962L8.21143 8.28039L8.20715 8.2773C8.12214 8.21584 8.07166 8.17933 7.99492 8.15517C7.9215 8.13205 7.8239 8.12023 7.64468 8.09853L7.63657 8.09754C7.63454 8.09727 7.63252 8.097 7.63053 8.09674C7.55148 8.0862 7.50269 8.07969 7.45062 8.08674C7.39968 8.09363 7.34665 8.11338 7.25688 8.14681C7.25459 8.14766 7.25227 8.14852 7.24993 8.14939L7.18627 8.1731L7.22783 8.22684C7.32983 8.35876 7.44073 8.43807 7.59744 8.45969C7.74929 8.48064 7.93879 8.44645 8.19656 8.36879Z" fill="#020304" stroke="black" stroke-width="0.1"/>
<path d="M7.92149 7.39816L7.87643 7.41636L7.89334 7.46192C7.93655 7.57831 7.97464 7.66042 8.06165 7.70952C8.10361 7.7332 8.1539 7.74755 8.21527 7.75784C8.27665 7.76814 8.35249 7.77488 8.44703 7.78149L8.47671 7.78357L8.49269 7.75847C8.50941 7.73222 8.51925 7.7055 8.52128 7.6784C8.52334 7.65105 8.5172 7.62648 8.50671 7.60518C8.48693 7.56497 8.45072 7.53518 8.42469 7.51474L8.42469 7.51474L8.42434 7.51447C8.2898 7.41075 8.12586 7.31559 7.92149 7.39816Z" fill="#020304" stroke="black" stroke-width="0.1"/>
<path d="M8.10527 8.89601L8.13192 8.84615L8.07919 8.82579C7.90004 8.75662 7.7534 8.84159 7.63237 8.91171C7.62326 8.917 7.61429 8.92219 7.60546 8.92723L7.60545 8.9272L7.60377 8.92824C7.57298 8.94748 7.55871 8.98182 7.55063 9.00247C7.54725 9.01108 7.54446 9.01873 7.5419 9.02572C7.53652 9.04043 7.53222 9.0522 7.52589 9.0638L7.49527 9.1199L7.55709 9.13612C7.63267 9.15594 7.69528 9.17057 7.74822 9.17609C7.8018 9.18167 7.84958 9.17842 7.89371 9.15903C7.93782 9.13964 7.97256 9.10665 8.00479 9.06349C8.03665 9.02083 8.06844 8.9649 8.10527 8.89601Z" fill="#020304" stroke="black" stroke-width="0.1"/>
<path d="M8.20555 9.42003L8.21105 9.34413L8.13921 9.3692C8.02113 9.41041 7.94543 9.43862 7.881 9.48016C7.81568 9.52227 7.76436 9.57644 7.69041 9.6636L7.6904 9.66359L7.68951 9.6647C7.67172 9.68692 7.66836 9.71491 7.66692 9.73122C7.66621 9.73935 7.66581 9.74786 7.66546 9.75526C7.66541 9.75632 7.66536 9.75735 7.66531 9.75836C7.6649 9.76696 7.66448 9.7743 7.66373 9.78108L7.65711 9.84066L7.7169 9.83649C7.88072 9.82507 8.00095 9.79718 8.08165 9.72893C8.16482 9.6586 8.19579 9.55468 8.20555 9.42003Z" fill="#020304" stroke="black" stroke-width="0.1"/>
<mask id="path-12-outside-3_2_5153" maskUnits="userSpaceOnUse" x="9.25735" y="8.81304" width="2" height="2" fill="black">
<rect fill="white" x="9.25735" y="8.81304" width="2" height="2"/>
<path d="M10.2573 9.81304C10.5824 9.90748 10.5975 9.92637 10.6429 10.1644C10.4615 10.119 10.4615 10.119 10.2573 9.81304Z"/>
</mask>
<path d="M10.2573 9.81304C10.5824 9.90748 10.5975 9.92637 10.6429 10.1644C10.4615 10.119 10.4615 10.119 10.2573 9.81304Z" fill="#020304"/>
<path d="M10.2573 9.81304L10.2852 9.71701L10.0221 9.64056L10.1742 9.86854L10.2573 9.81304ZM10.6429 10.1644L10.6187 10.2614L10.7704 10.2993L10.7411 10.1456L10.6429 10.1644ZM10.2294 9.90907C10.3112 9.93282 10.3689 9.95054 10.4118 9.9674C10.4547 9.98421 10.4753 9.99736 10.4872 10.0083C10.5086 10.0282 10.5204 10.0559 10.5447 10.1831L10.7411 10.1456C10.72 10.0348 10.7016 9.93414 10.6229 9.86142C10.5847 9.8261 10.5377 9.80195 10.4849 9.78122C10.4322 9.76054 10.366 9.74049 10.2852 9.71701L10.2294 9.90907ZM10.6671 10.0673C10.5725 10.0437 10.5526 10.0368 10.526 10.0125C10.4893 9.97911 10.4467 9.91662 10.3405 9.75755L10.1742 9.86854C10.2722 10.0154 10.3316 10.106 10.3913 10.1604C10.461 10.2239 10.5319 10.2397 10.6187 10.2614L10.6671 10.0673Z" fill="black" mask="url(#path-12-outside-3_2_5153)"/>
<path d="M9.34805 10.4363L9.40034 10.5055L9.43403 10.4255C9.44447 10.4008 9.45601 10.3786 9.46804 10.3555C9.47237 10.3472 9.47677 10.3388 9.4812 10.3301C9.49706 10.2989 9.51318 10.2642 9.52026 10.2265L9.5203 10.2265L9.52061 10.2243C9.52631 10.1844 9.5318 10.1327 9.51833 10.0844C9.50366 10.0317 9.46769 9.98708 9.40153 9.96259L9.36657 9.94965L9.34419 9.97947C9.34362 9.98023 9.34305 9.98098 9.34249 9.98173C9.30707 10.0289 9.27811 10.0675 9.25839 10.1005C9.23805 10.1346 9.22372 10.1687 9.22409 10.2069C9.22445 10.2449 9.23931 10.279 9.26011 10.3133C9.28039 10.3467 9.31001 10.3859 9.34641 10.4341L9.34805 10.4363Z" fill="#020304" stroke="black" stroke-width="0.1"/>
</svg>
