<svg width="20" height="16" viewBox="0 0 20 16" fill="none" xmlns="http://www.w3.org/2000/svg">
<mask id="path-1-outside-1_2_5128" maskUnits="userSpaceOnUse" x="0" y="0" width="20" height="16" fill="black">
<rect fill="white" width="20" height="16"/>
<path d="M6.68042 14.3565C6.54812 14.4434 6.4385 14.5152 6.32888 14.587C5.92065 14.8552 5.50485 15.1083 5.05125 15.2934C4.79799 15.3991 4.53717 15.4822 4.25745 15.4709C3.84543 15.4558 3.5884 15.2178 3.57706 14.8023C3.57328 14.6398 3.59596 14.4698 3.62998 14.3074C3.664 14.145 3.72448 13.9863 3.78496 13.8352C4.01175 13.2724 4.30281 12.7397 4.66569 12.2147C4.53339 11.9276 4.37464 11.6216 4.2499 11.308C4.12138 10.9907 4.02687 10.6583 3.9097 10.3108C3.83032 10.2881 3.74338 10.2617 3.65266 10.2428C3.1537 10.1294 2.65475 10.0123 2.18225 9.81213C1.94411 9.71014 1.70597 9.59304 1.48673 9.45327C1.35066 9.36639 1.22591 9.24173 1.13142 9.10951C0.949977 8.86397 0.961314 8.56177 1.13519 8.30867C1.25237 8.13868 1.40357 8.00269 1.58501 7.90825C1.84961 7.77226 2.11799 7.64383 2.39393 7.54183C2.7946 7.39451 3.2104 7.29251 3.63754 7.2283C3.75472 7.21319 3.86812 7.18296 3.98908 7.1603C4.58631 5.1582 5.79969 3.68118 7.70857 2.83501C9.60612 1.99262 11.5037 2.08328 13.3748 2.98234C13.4428 2.9219 13.5033 2.86901 13.5638 2.81612C14.1723 2.24194 14.8452 1.75463 15.5823 1.35422C15.8658 1.20311 16.1568 1.0709 16.4781 1.01801C17.1358 0.904688 17.4156 1.34288 17.3437 1.86041C17.3059 2.13239 17.2228 2.39304 17.1207 2.64614C16.8712 3.25432 16.5386 3.81717 16.1871 4.3687C16.0472 4.58779 15.8998 4.80689 15.7448 5.0411C16.1719 5.67572 16.5046 6.35568 16.7011 7.07342C17.0376 7.1603 17.3513 7.23207 17.6575 7.31896C17.9674 7.40584 18.2623 7.5305 18.542 7.69671C18.7272 7.80626 18.9011 7.93092 19.0258 8.11224C19.2299 8.39933 19.2337 8.71665 19.0334 9.00752C18.9011 9.1964 18.7196 9.33239 18.5269 9.44949C18.2093 9.64215 17.8654 9.77436 17.5138 9.88769C17.3097 9.9519 17.1056 10.0123 16.8864 10.0766C16.8637 10.1521 16.8297 10.2277 16.8145 10.307C16.2816 12.7851 14.3122 14.7683 11.8287 15.3122C10.1126 15.6862 8.49481 15.4256 6.98282 14.5303C6.88832 14.4774 6.79382 14.4207 6.68042 14.3565ZM15.1324 4.93533C15.0531 4.83711 14.9964 4.76156 14.9321 4.69356C13.3937 3.01256 11.0009 2.32882 8.80099 2.93323C5.81858 3.75673 3.9286 6.65033 4.38219 9.70636C4.38975 9.76303 4.41999 9.81213 4.44645 9.88769C4.99455 9.95568 5.53509 10.0388 6.0794 10.0879C7.478 10.2201 8.88037 10.2692 10.2865 10.2503C10.468 10.2466 10.5965 10.1937 10.725 10.0652C12.2143 8.5391 13.6394 6.95631 14.917 5.24886C14.9813 5.15442 15.0455 5.05621 15.1324 4.93533ZM16.2967 10.2239C16.1606 10.2428 16.0548 10.2579 15.9527 10.273C15.6125 10.3297 15.2761 10.4014 14.9321 10.4468C13.6809 10.6168 12.426 10.7339 11.1635 10.749C10.9329 10.7527 10.7666 10.8207 10.6003 10.987C9.7044 11.8747 8.76697 12.7208 7.78417 13.5104C7.62541 13.6388 7.46666 13.7597 7.3079 13.8881C7.27766 13.9145 7.26253 13.9561 7.23985 13.9901C8.8917 15.0403 11.2202 15.2216 13.1631 14.2356C14.1308 13.7446 14.9094 13.0457 15.5067 12.1429C15.93 11.5045 16.2702 10.6847 16.2967 10.2239ZM16.4781 9.55148C16.5386 9.21528 16.5726 8.86019 16.5537 8.50888C16.4932 7.47006 16.1833 6.50678 15.6352 5.61906C15.5936 5.55484 15.5369 5.49818 15.4802 5.42641C15.106 5.90615 14.7545 6.37079 14.3916 6.8241C13.4806 7.96869 12.4978 9.05285 11.4886 10.1106C11.481 10.1181 11.4734 10.1294 11.4734 10.1408C11.4734 10.1521 11.481 10.1634 11.4848 10.1748C12.15 10.2654 15.7221 9.85369 16.4781 9.55148ZM6.69176 13.6123C6.74468 13.5783 6.78626 13.5557 6.82406 13.5292C7.88245 12.7322 8.86903 11.8558 9.82158 10.9416C9.85182 10.9152 9.86316 10.8698 9.89718 10.8019C9.50785 10.7905 9.15253 10.783 8.79721 10.7754C8.44189 10.7641 8.08279 10.7603 7.72747 10.7414C7.3835 10.7263 7.03952 10.6999 6.69554 10.6734C6.34022 10.6432 5.9849 10.5979 5.62959 10.5676C5.27805 10.5374 4.93407 10.443 4.57498 10.4505C4.69971 11.4403 5.71274 12.9551 6.69176 13.6123ZM13.5751 3.08433C13.7868 3.2241 13.9455 3.32231 14.0967 3.43186C14.2517 3.54141 14.4029 3.65474 14.5503 3.77562C14.6978 3.8965 14.8338 4.02872 14.9737 4.15715C15.1136 4.28181 15.2194 4.44047 15.3744 4.55002C15.4159 4.51224 15.4462 4.49335 15.4651 4.46691C15.8733 3.88139 16.2551 3.28076 16.5575 2.6348C16.6369 2.46481 16.7087 2.28727 16.7654 2.10595C16.807 1.96995 16.8259 1.82641 16.8334 1.68664C16.841 1.56198 16.7541 1.47887 16.6331 1.49021C16.5046 1.50154 16.3685 1.51665 16.2513 1.56576C15.9678 1.68286 15.6768 1.79619 15.4122 1.95107C14.8149 2.30238 14.2253 2.68013 13.5751 3.08433ZM3.80386 9.75547C3.80386 9.65726 3.80764 9.60815 3.80386 9.56282C3.7585 8.94708 3.76228 8.33134 3.86812 7.7156C3.87568 7.66271 3.86056 7.60605 3.853 7.5305C3.2482 7.70049 2.66986 7.87426 2.12555 8.14246C2.03861 8.18401 1.95923 8.23312 1.87607 8.28223C1.81559 8.32001 1.75511 8.36156 1.70219 8.40689C1.43381 8.62976 1.43381 8.79975 1.69841 9.0113C1.75511 9.05663 1.81559 9.0944 1.87607 9.1284C2.46953 9.45327 3.10834 9.61193 3.80386 9.75547ZM4.17808 14.8665C4.38219 14.9269 4.54095 14.8703 4.69593 14.8098C5.22135 14.6134 5.69007 14.3225 6.1739 13.9863C6.01892 13.839 5.88285 13.7106 5.75055 13.5783C5.62581 13.4499 5.50485 13.3215 5.38389 13.1893C5.25915 13.0495 5.14197 12.9022 5.00589 12.7397C4.95297 12.8077 4.91517 12.8493 4.88871 12.8984C4.72239 13.2006 4.55607 13.499 4.40109 13.8088C4.31415 13.9901 4.2499 14.1828 4.18564 14.3754C4.14028 14.5265 4.10626 14.6927 4.17808 14.8665ZM16.8561 7.69293C16.8939 8.27467 16.9279 8.84508 16.9657 9.44571C17.4496 9.3135 17.907 9.15862 18.319 8.89041C18.3984 8.83753 18.4664 8.77331 18.5307 8.70154C18.6138 8.6071 18.6214 8.50133 18.5269 8.41822C18.4059 8.30867 18.2736 8.2029 18.13 8.12357C17.7633 7.92336 17.3702 7.7987 16.9695 7.68538C16.9431 7.67405 16.9053 7.68916 16.8561 7.69293Z"/>
</mask>
<path d="M6.68042 14.3565C6.54812 14.4434 6.4385 14.5152 6.32888 14.587C5.92065 14.8552 5.50485 15.1083 5.05125 15.2934C4.79799 15.3991 4.53717 15.4822 4.25745 15.4709C3.84543 15.4558 3.5884 15.2178 3.57706 14.8023C3.57328 14.6398 3.59596 14.4698 3.62998 14.3074C3.664 14.145 3.72448 13.9863 3.78496 13.8352C4.01175 13.2724 4.30281 12.7397 4.66569 12.2147C4.53339 11.9276 4.37464 11.6216 4.2499 11.308C4.12138 10.9907 4.02687 10.6583 3.9097 10.3108C3.83032 10.2881 3.74338 10.2617 3.65266 10.2428C3.1537 10.1294 2.65475 10.0123 2.18225 9.81213C1.94411 9.71014 1.70597 9.59304 1.48673 9.45327C1.35066 9.36639 1.22591 9.24173 1.13142 9.10951C0.949977 8.86397 0.961314 8.56177 1.13519 8.30867C1.25237 8.13868 1.40357 8.00269 1.58501 7.90825C1.84961 7.77226 2.11799 7.64383 2.39393 7.54183C2.7946 7.39451 3.2104 7.29251 3.63754 7.2283C3.75472 7.21319 3.86812 7.18296 3.98908 7.1603C4.58631 5.1582 5.79969 3.68118 7.70857 2.83501C9.60612 1.99262 11.5037 2.08328 13.3748 2.98234C13.4428 2.9219 13.5033 2.86901 13.5638 2.81612C14.1723 2.24194 14.8452 1.75463 15.5823 1.35422C15.8658 1.20311 16.1568 1.0709 16.4781 1.01801C17.1358 0.904688 17.4156 1.34288 17.3437 1.86041C17.3059 2.13239 17.2228 2.39304 17.1207 2.64614C16.8712 3.25432 16.5386 3.81717 16.1871 4.3687C16.0472 4.58779 15.8998 4.80689 15.7448 5.0411C16.1719 5.67572 16.5046 6.35568 16.7011 7.07342C17.0376 7.1603 17.3513 7.23207 17.6575 7.31896C17.9674 7.40584 18.2623 7.5305 18.542 7.69671C18.7272 7.80626 18.9011 7.93092 19.0258 8.11224C19.2299 8.39933 19.2337 8.71665 19.0334 9.00752C18.9011 9.1964 18.7196 9.33239 18.5269 9.44949C18.2093 9.64215 17.8654 9.77436 17.5138 9.88769C17.3097 9.9519 17.1056 10.0123 16.8864 10.0766C16.8637 10.1521 16.8297 10.2277 16.8145 10.307C16.2816 12.7851 14.3122 14.7683 11.8287 15.3122C10.1126 15.6862 8.49481 15.4256 6.98282 14.5303C6.88832 14.4774 6.79382 14.4207 6.68042 14.3565ZM15.1324 4.93533C15.0531 4.83711 14.9964 4.76156 14.9321 4.69356C13.3937 3.01256 11.0009 2.32882 8.80099 2.93323C5.81858 3.75673 3.9286 6.65033 4.38219 9.70636C4.38975 9.76303 4.41999 9.81213 4.44645 9.88769C4.99455 9.95568 5.53509 10.0388 6.0794 10.0879C7.478 10.2201 8.88037 10.2692 10.2865 10.2503C10.468 10.2466 10.5965 10.1937 10.725 10.0652C12.2143 8.5391 13.6394 6.95631 14.917 5.24886C14.9813 5.15442 15.0455 5.05621 15.1324 4.93533ZM16.2967 10.2239C16.1606 10.2428 16.0548 10.2579 15.9527 10.273C15.6125 10.3297 15.2761 10.4014 14.9321 10.4468C13.6809 10.6168 12.426 10.7339 11.1635 10.749C10.9329 10.7527 10.7666 10.8207 10.6003 10.987C9.7044 11.8747 8.76697 12.7208 7.78417 13.5104C7.62541 13.6388 7.46666 13.7597 7.3079 13.8881C7.27766 13.9145 7.26253 13.9561 7.23985 13.9901C8.8917 15.0403 11.2202 15.2216 13.1631 14.2356C14.1308 13.7446 14.9094 13.0457 15.5067 12.1429C15.93 11.5045 16.2702 10.6847 16.2967 10.2239ZM16.4781 9.55148C16.5386 9.21528 16.5726 8.86019 16.5537 8.50888C16.4932 7.47006 16.1833 6.50678 15.6352 5.61906C15.5936 5.55484 15.5369 5.49818 15.4802 5.42641C15.106 5.90615 14.7545 6.37079 14.3916 6.8241C13.4806 7.96869 12.4978 9.05285 11.4886 10.1106C11.481 10.1181 11.4734 10.1294 11.4734 10.1408C11.4734 10.1521 11.481 10.1634 11.4848 10.1748C12.15 10.2654 15.7221 9.85369 16.4781 9.55148ZM6.69176 13.6123C6.74468 13.5783 6.78626 13.5557 6.82406 13.5292C7.88245 12.7322 8.86903 11.8558 9.82158 10.9416C9.85182 10.9152 9.86316 10.8698 9.89718 10.8019C9.50785 10.7905 9.15253 10.783 8.79721 10.7754C8.44189 10.7641 8.08279 10.7603 7.72747 10.7414C7.3835 10.7263 7.03952 10.6999 6.69554 10.6734C6.34022 10.6432 5.9849 10.5979 5.62959 10.5676C5.27805 10.5374 4.93407 10.443 4.57498 10.4505C4.69971 11.4403 5.71274 12.9551 6.69176 13.6123ZM13.5751 3.08433C13.7868 3.2241 13.9455 3.32231 14.0967 3.43186C14.2517 3.54141 14.4029 3.65474 14.5503 3.77562C14.6978 3.8965 14.8338 4.02872 14.9737 4.15715C15.1136 4.28181 15.2194 4.44047 15.3744 4.55002C15.4159 4.51224 15.4462 4.49335 15.4651 4.46691C15.8733 3.88139 16.2551 3.28076 16.5575 2.6348C16.6369 2.46481 16.7087 2.28727 16.7654 2.10595C16.807 1.96995 16.8259 1.82641 16.8334 1.68664C16.841 1.56198 16.7541 1.47887 16.6331 1.49021C16.5046 1.50154 16.3685 1.51665 16.2513 1.56576C15.9678 1.68286 15.6768 1.79619 15.4122 1.95107C14.8149 2.30238 14.2253 2.68013 13.5751 3.08433ZM3.80386 9.75547C3.80386 9.65726 3.80764 9.60815 3.80386 9.56282C3.7585 8.94708 3.76228 8.33134 3.86812 7.7156C3.87568 7.66271 3.86056 7.60605 3.853 7.5305C3.2482 7.70049 2.66986 7.87426 2.12555 8.14246C2.03861 8.18401 1.95923 8.23312 1.87607 8.28223C1.81559 8.32001 1.75511 8.36156 1.70219 8.40689C1.43381 8.62976 1.43381 8.79975 1.69841 9.0113C1.75511 9.05663 1.81559 9.0944 1.87607 9.1284C2.46953 9.45327 3.10834 9.61193 3.80386 9.75547ZM4.17808 14.8665C4.38219 14.9269 4.54095 14.8703 4.69593 14.8098C5.22135 14.6134 5.69007 14.3225 6.1739 13.9863C6.01892 13.839 5.88285 13.7106 5.75055 13.5783C5.62581 13.4499 5.50485 13.3215 5.38389 13.1893C5.25915 13.0495 5.14197 12.9022 5.00589 12.7397C4.95297 12.8077 4.91517 12.8493 4.88871 12.8984C4.72239 13.2006 4.55607 13.499 4.40109 13.8088C4.31415 13.9901 4.2499 14.1828 4.18564 14.3754C4.14028 14.5265 4.10626 14.6927 4.17808 14.8665ZM16.8561 7.69293C16.8939 8.27467 16.9279 8.84508 16.9657 9.44571C17.4496 9.3135 17.907 9.15862 18.319 8.89041C18.3984 8.83753 18.4664 8.77331 18.5307 8.70154C18.6138 8.6071 18.6214 8.50133 18.5269 8.41822C18.4059 8.30867 18.2736 8.2029 18.13 8.12357C17.7633 7.92336 17.3702 7.7987 16.9695 7.68538C16.9431 7.67405 16.9053 7.68916 16.8561 7.69293Z" fill="#020304"/>
<path d="M6.68042 14.3565C6.54812 14.4434 6.4385 14.5152 6.32888 14.587C5.92065 14.8552 5.50485 15.1083 5.05125 15.2934C4.79799 15.3991 4.53717 15.4822 4.25745 15.4709C3.84543 15.4558 3.5884 15.2178 3.57706 14.8023C3.57328 14.6398 3.59596 14.4698 3.62998 14.3074C3.664 14.145 3.72448 13.9863 3.78496 13.8352C4.01175 13.2724 4.30281 12.7397 4.66569 12.2147C4.53339 11.9276 4.37464 11.6216 4.2499 11.308C4.12138 10.9907 4.02687 10.6583 3.9097 10.3108C3.83032 10.2881 3.74338 10.2617 3.65266 10.2428C3.1537 10.1294 2.65475 10.0123 2.18225 9.81213C1.94411 9.71014 1.70597 9.59304 1.48673 9.45327C1.35066 9.36639 1.22591 9.24173 1.13142 9.10951C0.949977 8.86397 0.961314 8.56177 1.13519 8.30867C1.25237 8.13868 1.40357 8.00269 1.58501 7.90825C1.84961 7.77226 2.11799 7.64383 2.39393 7.54183C2.7946 7.39451 3.2104 7.29251 3.63754 7.2283C3.75472 7.21319 3.86812 7.18296 3.98908 7.1603C4.58631 5.1582 5.79969 3.68118 7.70857 2.83501C9.60612 1.99262 11.5037 2.08328 13.3748 2.98234C13.4428 2.9219 13.5033 2.86901 13.5638 2.81612C14.1723 2.24194 14.8452 1.75463 15.5823 1.35422C15.8658 1.20311 16.1568 1.0709 16.4781 1.01801C17.1358 0.904688 17.4156 1.34288 17.3437 1.86041C17.3059 2.13239 17.2228 2.39304 17.1207 2.64614C16.8712 3.25432 16.5386 3.81717 16.1871 4.3687C16.0472 4.58779 15.8998 4.80689 15.7448 5.0411C16.1719 5.67572 16.5046 6.35568 16.7011 7.07342C17.0376 7.1603 17.3513 7.23207 17.6575 7.31896C17.9674 7.40584 18.2623 7.5305 18.542 7.69671C18.7272 7.80626 18.9011 7.93092 19.0258 8.11224C19.2299 8.39933 19.2337 8.71665 19.0334 9.00752C18.9011 9.1964 18.7196 9.33239 18.5269 9.44949C18.2093 9.64215 17.8654 9.77436 17.5138 9.88769C17.3097 9.9519 17.1056 10.0123 16.8864 10.0766C16.8637 10.1521 16.8297 10.2277 16.8145 10.307C16.2816 12.7851 14.3122 14.7683 11.8287 15.3122C10.1126 15.6862 8.49481 15.4256 6.98282 14.5303C6.88832 14.4774 6.79382 14.4207 6.68042 14.3565ZM15.1324 4.93533C15.0531 4.83711 14.9964 4.76156 14.9321 4.69356C13.3937 3.01256 11.0009 2.32882 8.80099 2.93323C5.81858 3.75673 3.9286 6.65033 4.38219 9.70636C4.38975 9.76303 4.41999 9.81213 4.44645 9.88769C4.99455 9.95568 5.53509 10.0388 6.0794 10.0879C7.478 10.2201 8.88037 10.2692 10.2865 10.2503C10.468 10.2466 10.5965 10.1937 10.725 10.0652C12.2143 8.5391 13.6394 6.95631 14.917 5.24886C14.9813 5.15442 15.0455 5.05621 15.1324 4.93533ZM16.2967 10.2239C16.1606 10.2428 16.0548 10.2579 15.9527 10.273C15.6125 10.3297 15.2761 10.4014 14.9321 10.4468C13.6809 10.6168 12.426 10.7339 11.1635 10.749C10.9329 10.7527 10.7666 10.8207 10.6003 10.987C9.7044 11.8747 8.76697 12.7208 7.78417 13.5104C7.62541 13.6388 7.46666 13.7597 7.3079 13.8881C7.27766 13.9145 7.26253 13.9561 7.23985 13.9901C8.8917 15.0403 11.2202 15.2216 13.1631 14.2356C14.1308 13.7446 14.9094 13.0457 15.5067 12.1429C15.93 11.5045 16.2702 10.6847 16.2967 10.2239ZM16.4781 9.55148C16.5386 9.21528 16.5726 8.86019 16.5537 8.50888C16.4932 7.47006 16.1833 6.50678 15.6352 5.61906C15.5936 5.55484 15.5369 5.49818 15.4802 5.42641C15.106 5.90615 14.7545 6.37079 14.3916 6.8241C13.4806 7.96869 12.4978 9.05285 11.4886 10.1106C11.481 10.1181 11.4734 10.1294 11.4734 10.1408C11.4734 10.1521 11.481 10.1634 11.4848 10.1748C12.15 10.2654 15.7221 9.85369 16.4781 9.55148ZM6.69176 13.6123C6.74468 13.5783 6.78626 13.5557 6.82406 13.5292C7.88245 12.7322 8.86903 11.8558 9.82158 10.9416C9.85182 10.9152 9.86316 10.8698 9.89718 10.8019C9.50785 10.7905 9.15253 10.783 8.79721 10.7754C8.44189 10.7641 8.08279 10.7603 7.72747 10.7414C7.3835 10.7263 7.03952 10.6999 6.69554 10.6734C6.34022 10.6432 5.9849 10.5979 5.62959 10.5676C5.27805 10.5374 4.93407 10.443 4.57498 10.4505C4.69971 11.4403 5.71274 12.9551 6.69176 13.6123ZM13.5751 3.08433C13.7868 3.2241 13.9455 3.32231 14.0967 3.43186C14.2517 3.54141 14.4029 3.65474 14.5503 3.77562C14.6978 3.8965 14.8338 4.02872 14.9737 4.15715C15.1136 4.28181 15.2194 4.44047 15.3744 4.55002C15.4159 4.51224 15.4462 4.49335 15.4651 4.46691C15.8733 3.88139 16.2551 3.28076 16.5575 2.6348C16.6369 2.46481 16.7087 2.28727 16.7654 2.10595C16.807 1.96995 16.8259 1.82641 16.8334 1.68664C16.841 1.56198 16.7541 1.47887 16.6331 1.49021C16.5046 1.50154 16.3685 1.51665 16.2513 1.56576C15.9678 1.68286 15.6768 1.79619 15.4122 1.95107C14.8149 2.30238 14.2253 2.68013 13.5751 3.08433ZM3.80386 9.75547C3.80386 9.65726 3.80764 9.60815 3.80386 9.56282C3.7585 8.94708 3.76228 8.33134 3.86812 7.7156C3.87568 7.66271 3.86056 7.60605 3.853 7.5305C3.2482 7.70049 2.66986 7.87426 2.12555 8.14246C2.03861 8.18401 1.95923 8.23312 1.87607 8.28223C1.81559 8.32001 1.75511 8.36156 1.70219 8.40689C1.43381 8.62976 1.43381 8.79975 1.69841 9.0113C1.75511 9.05663 1.81559 9.0944 1.87607 9.1284C2.46953 9.45327 3.10834 9.61193 3.80386 9.75547ZM4.17808 14.8665C4.38219 14.9269 4.54095 14.8703 4.69593 14.8098C5.22135 14.6134 5.69007 14.3225 6.1739 13.9863C6.01892 13.839 5.88285 13.7106 5.75055 13.5783C5.62581 13.4499 5.50485 13.3215 5.38389 13.1893C5.25915 13.0495 5.14197 12.9022 5.00589 12.7397C4.95297 12.8077 4.91517 12.8493 4.88871 12.8984C4.72239 13.2006 4.55607 13.499 4.40109 13.8088C4.31415 13.9901 4.2499 14.1828 4.18564 14.3754C4.14028 14.5265 4.10626 14.6927 4.17808 14.8665ZM16.8561 7.69293C16.8939 8.27467 16.9279 8.84508 16.9657 9.44571C17.4496 9.3135 17.907 9.15862 18.319 8.89041C18.3984 8.83753 18.4664 8.77331 18.5307 8.70154C18.6138 8.6071 18.6214 8.50133 18.5269 8.41822C18.4059 8.30867 18.2736 8.2029 18.13 8.12357C17.7633 7.92336 17.3702 7.7987 16.9695 7.68538C16.9431 7.67405 16.9053 7.68916 16.8561 7.69293Z" stroke="black" stroke-width="0.2" mask="url(#path-1-outside-1_2_5128)"/>
<path d="M12.7116 3.83021L12.676 3.82512C12.6504 3.82147 12.6234 3.81811 12.5958 3.81468C12.5417 3.80794 12.4851 3.8009 12.4318 3.79074L12.4305 3.7905C11.5859 3.60747 10.7473 3.67807 9.91339 3.89205L9.91326 3.89208C8.5127 4.24761 7.44109 5.06691 6.61151 6.22984L6.61148 6.22988C6.18001 6.83354 5.86646 7.48366 5.7508 8.21823L5.75077 8.21842C5.74293 8.26695 5.7371 8.31608 5.73114 8.36625C5.73007 8.3753 5.72899 8.38437 5.72789 8.39349C5.72082 8.45244 5.71308 8.51255 5.70137 8.57116C5.67452 8.71773 5.56352 8.81002 5.42581 8.80053L5.42569 8.80052C5.29439 8.79114 5.18725 8.69104 5.18271 8.53679L5.1827 8.53654L12.7116 3.83021ZM12.7116 3.83021L12.7277 3.79799L12.7618 3.73L12.7804 3.69266L12.747 3.66762C12.7335 3.65745 12.7219 3.64725 12.709 3.63584C12.7015 3.62924 12.6936 3.62225 12.6846 3.61464C12.6625 3.59599 12.6358 3.57567 12.6036 3.5631C12.4711 3.50635 12.3366 3.45252 12.1974 3.4139L12.197 3.41379C11.5698 3.24562 10.9389 3.22278 10.3009 3.32967L10.3009 3.32968C9.51538 3.4624 8.75959 3.67165 8.07501 4.10353L8.07493 4.10358C7.18055 4.67029 6.44936 5.39332 5.8858 6.29519C5.54221 6.84459 5.31685 7.43239 5.20611 8.06584L12.7116 3.83021ZM6.5708 6.2008C6.1361 6.80899 5.81858 7.46628 5.7014 8.21046L12.683 3.77562C12.6555 3.7717 12.6276 3.76823 12.5996 3.76474C12.5465 3.75815 12.493 3.7515 12.4411 3.74162C11.5868 3.55652 10.7401 3.6283 9.90096 3.84362C8.48725 4.20248 7.40618 5.02976 6.5708 6.2008Z" fill="#020304" stroke="black" stroke-width="0.1"/>
<path d="M9.51802 4.90542L9.52685 4.86129C9.55578 4.71675 9.66081 4.66972 9.73418 4.63685C9.74278 4.63301 9.75094 4.62935 9.75849 4.62576C10.0892 4.46818 10.4428 4.37604 10.8038 4.34532C11.7421 4.26149 12.6457 4.41403 13.5141 4.76418M9.51802 4.90542L13.8208 5.07132L13.8664 5.05089C13.8664 5.05072 13.8663 5.05056 13.8662 5.05039C13.7933 4.88792 13.6517 4.81767 13.5141 4.76418M9.51802 4.90542L9.56098 4.91883L9.51802 4.90542ZM13.5141 4.76418C13.5142 4.76421 13.5143 4.76425 13.5144 4.76429L13.4957 4.81067L13.5138 4.76406C13.5139 4.7641 13.514 4.76414 13.5141 4.76418ZM13.7714 5.29385C13.7717 5.29377 13.7721 5.29368 13.7724 5.29359L13.7603 5.24508L13.7701 5.29411C13.7705 5.29403 13.771 5.29394 13.7714 5.29385ZM13.1612 5.2241C13.1613 5.22414 13.1614 5.22418 13.1615 5.22422L13.1782 5.17709L13.1608 5.22398C13.161 5.22402 13.1611 5.22406 13.1612 5.2241ZM9.93499 4.90091L9.92364 4.85222L9.93275 4.90138C9.93313 4.90131 9.9335 4.90124 9.93388 4.90117C9.93425 4.90108 9.93462 4.901 9.93499 4.90091Z" fill="#020304" stroke="black" stroke-width="0.1"/>
<path d="M6.37802 12.6604L6.3659 12.7089C6.4057 12.7189 6.4456 12.7158 6.48016 12.7108C6.49521 12.7087 6.51037 12.7059 6.52447 12.7034C6.52666 12.703 6.52882 12.7026 6.53095 12.7022C6.54729 12.6992 6.56225 12.6966 6.57664 12.695L6.62341 12.6895L6.62072 12.6424C6.61328 12.5122 6.60844 12.4283 6.59145 12.3599C6.57362 12.288 6.54294 12.2347 6.49022 12.1625L6.49022 12.1625C6.31864 11.9277 6.17642 11.6735 6.04474 11.4103C6.02409 11.3691 5.99403 11.3352 5.96497 11.3062C5.95153 11.2928 5.93934 11.2813 5.92775 11.2703C5.91178 11.2553 5.89696 11.2413 5.88159 11.2248L5.84999 11.191L5.81383 11.2199C5.80049 11.2306 5.78964 11.2383 5.77936 11.2457C5.77595 11.2482 5.77261 11.2506 5.76926 11.253C5.75662 11.2623 5.74244 11.2731 5.73041 11.2881L5.73015 11.2879L5.72705 11.2929C5.70636 11.326 5.68543 11.3696 5.68543 11.4176H5.68538L5.68547 11.4197C5.70088 11.7892 5.7897 12.135 6.00017 12.4466L6.00022 12.4467C6.08526 12.5722 6.2085 12.6717 6.36651 12.7091L6.37802 12.6604ZM6.37802 12.6604C6.23438 12.6264 6.12098 12.5358 6.04161 12.4186C5.83749 12.1164 5.75055 11.7802 5.73543 11.4176C5.73543 11.3836 5.75055 11.3496 5.76945 11.3194C5.77879 11.3077 5.79102 11.2989 5.80792 11.2868C5.81837 11.2793 5.83061 11.2705 5.84505 11.2589C5.86091 11.2759 5.87813 11.2922 5.89538 11.3086C5.9357 11.3467 5.9762 11.3851 6.00003 11.4327C6.13232 11.6971 6.27596 11.954 6.44984 12.192C6.5519 12.3318 6.55569 12.3809 6.57081 12.6453C6.55257 12.6474 6.53403 12.6508 6.51544 12.6542C6.46854 12.6627 6.42134 12.6712 6.37802 12.6604Z" fill="#020304" stroke="black" stroke-width="0.1"/>
</svg>
