<svg width="20" height="23" viewBox="0 0 20 23" fill="none" xmlns="http://www.w3.org/2000/svg">
<path d="M6.81129 10.8274C6.81613 10.8261 6.82104 10.8248 6.82603 10.8235C6.83095 10.8221 6.83598 10.8208 6.8411 10.8194C6.8615 10.8138 6.88326 10.8078 6.90482 10.803L6.90547 10.8029L6.90547 10.8029C7.01167 10.7808 7.1179 10.758 7.22423 10.7352C7.57041 10.6609 7.91776 10.5864 8.26911 10.5342L8.26924 10.5342C8.6167 10.4835 8.96703 10.453 9.31624 10.4226C9.48876 10.4076 9.66101 10.3926 9.8325 10.3752L6.81129 10.8274ZM6.81129 10.8274C7.5164 10.4553 8.26851 10.1995 9.04483 10.0012L9.04496 10.0012C9.71399 9.82841 10.3924 9.73877 11.0771 9.79485C12.5009 9.915 13.7915 10.3803 14.913 11.2799L14.9137 11.2804C14.9204 11.2856 14.9261 11.2899 14.9312 11.2936C14.9321 11.2942 14.933 11.2949 14.9338 11.2955C14.9208 11.2919 14.9087 11.2877 14.8972 11.2824L14.8965 11.2821C13.9162 10.8492 12.8911 10.5875 11.8368 10.4359L11.8367 10.4359C11.1723 10.3411 10.5028 10.3067 9.83254 10.3752L6.81129 10.8274ZM4.91824 11.7526L4.91183 11.7701L4.91845 11.7875C5.00361 12.0119 5.1163 12.1986 5.26803 12.3659C5.6268 12.7777 6.04429 13.1226 6.54739 13.3491L6.5475 13.3491C7.37753 13.7203 8.23379 14.0212 9.15265 14.105L9.15273 14.105C10.2537 14.2036 11.3478 14.143 12.427 13.8885C13.627 13.6068 14.6692 13.0056 15.629 12.2588L15.6295 12.2584C15.7605 12.1536 15.8468 12.0635 15.8587 11.9532C15.8647 11.8975 15.8513 11.8422 15.8243 11.7844C15.7976 11.727 15.7562 11.6643 15.7027 11.5927C15.4645 11.2702 15.1694 11.0063 14.8582 10.7598L14.8581 10.7597C14.1221 10.1804 13.2841 9.80774 12.3914 9.55339C11.5009 9.29857 10.6014 9.21838 9.68614 9.36321L9.68608 9.36322C8.61502 9.53402 7.59727 9.86423 6.6254 10.3385C6.2261 10.5323 5.84549 10.7567 5.4875 11.0193L5.48738 11.0194C5.23572 11.2051 5.03575 11.4316 4.91824 11.7526ZM9.15719 14.0552C8.24621 13.9721 7.39572 13.6737 6.56791 13.3035L12.4155 13.8399C11.342 14.093 10.2534 14.1534 9.15719 14.0552ZM7.3843 11.1083L7.38449 11.1083C7.42817 11.098 7.47072 11.0867 7.51283 11.0756C7.65078 11.0391 7.78407 11.0038 7.93743 11.0087C7.96522 11.5792 8.09796 12.1075 8.4563 12.5636C8.68401 12.8567 8.96591 13.0844 9.29769 13.2464C9.62465 13.4078 9.97614 13.5046 10.3479 13.5046C11.034 13.5046 11.6286 13.2575 12.1178 12.7802C12.5961 12.3135 12.8277 11.7329 12.8638 11.0775C12.9846 11.0853 13.1631 11.1175 13.374 11.1668C13.6136 11.2229 13.891 11.3003 14.1654 11.3859C14.4398 11.4716 14.7104 11.5654 14.9364 11.6543C15.1315 11.7312 15.2902 11.8032 15.3895 11.8621C15.3895 11.8622 15.3895 11.8622 15.3894 11.8623C15.3796 11.8755 15.3714 11.8855 15.3633 11.8928C14.5445 12.4659 13.7104 12.9984 12.769 13.3395C12.1763 13.5532 11.5691 13.6768 10.9396 13.6992L10.9291 13.6995C10.7438 13.7032 10.5544 13.7069 10.3686 13.7144L10.3682 13.7144C9.20134 13.7706 8.09334 13.527 7.00933 13.1095C6.39344 12.8708 5.87398 12.5014 5.41712 12.0299C5.35559 11.9647 5.2972 11.892 5.24178 11.8183C5.24092 11.8163 5.23957 11.812 5.23785 11.8027C5.23759 11.8013 5.2373 11.7996 5.237 11.7979C5.91709 11.4673 6.64477 11.2792 7.3843 11.1083ZM10.3969 13.0835C9.21657 13.0871 8.23665 12.112 8.26092 10.9651C8.89744 10.8438 9.69278 10.7705 10.4573 10.7658C11.222 10.7612 11.9512 10.8254 12.4587 10.9765C12.5155 11.9728 11.7111 13.0798 10.3969 13.0835H10.3969Z" fill="#020304" stroke="black" stroke-width="0.1"/>
<path d="M5.54263 10.3873L5.46069 10.5192L5.60421 10.4599C5.62871 10.4497 5.65084 10.4409 5.67035 10.4331C5.69232 10.4243 5.71097 10.4169 5.72594 10.4104C5.75494 10.3979 5.77869 10.3855 5.80074 10.3666C5.87374 10.3179 5.94669 10.2684 6.01944 10.219L6.01954 10.2189C6.09324 10.1689 6.16672 10.119 6.24017 10.07C7.99364 8.91812 9.89615 8.59918 11.936 9.04966C12.6452 9.20718 13.3139 9.46983 13.9571 9.80436C14.0645 9.86183 14.1729 9.91221 14.2897 9.95113L14.2904 9.95133C14.4007 9.98643 14.5156 9.92171 14.5588 9.82644C14.6023 9.73423 14.5781 9.63375 14.5031 9.57376L14.5029 9.57363C14.392 9.4857 14.2723 9.40075 14.1442 9.33093L14.1441 9.33088C12.6731 8.53313 11.109 8.18673 9.43437 8.39973L9.4342 8.39975C8.26956 8.55189 7.21061 8.9629 6.26596 9.66331L6.26587 9.66338C6.10503 9.7832 5.95481 9.92136 5.80777 10.0566C5.76248 10.0982 5.71749 10.1396 5.67259 10.1801L5.67255 10.18L5.67072 10.1819C5.6482 10.2044 5.63199 10.2319 5.61474 10.2626C5.61142 10.2686 5.608 10.2747 5.60441 10.2812C5.58866 10.3096 5.56972 10.3437 5.54263 10.3873ZM14.1203 9.37483C14.245 9.44282 14.3622 9.52593 14.4718 9.61281L14.1203 9.37483Z" fill="#020304" stroke="black" stroke-width="0.1"/>
<path d="M14.2073 13.8369L14.1918 13.9073C14.1583 14.06 14.0503 14.1274 13.9665 14.1797C13.9521 14.1888 13.9383 14.1973 13.9258 14.2058C13.9257 14.2059 13.9255 14.206 13.9254 14.2061L13.8973 14.1648C13.4286 14.4972 12.9107 14.7389 12.3664 14.9127C10.8279 15.4038 9.28193 15.434 7.73592 14.9618L14.2073 13.8369ZM14.2073 13.8369L14.1359 13.8471M14.2073 13.8369L14.1359 13.8471M5.85544 13.8791C5.82238 13.7886 5.84282 13.7005 5.91265 13.6308C5.98888 13.5546 6.09996 13.5361 6.2025 13.592L6.20362 13.5926L6.20361 13.5926C6.27831 13.6358 6.3486 13.6866 6.41446 13.7408M5.85544 13.8791L9.09194 14.8367C8.10094 14.7054 7.19185 14.3795 6.41446 13.7408M5.85544 13.8791C5.87158 13.9273 5.89743 13.9813 5.94008 14.0198L5.85544 13.8791ZM6.41446 13.7408L6.38269 13.7794M6.41446 13.7408C6.41445 13.7408 6.41444 13.7408 6.41443 13.7408L6.38269 13.7794M6.38269 13.7794C6.31843 13.7266 6.25039 13.6775 6.17857 13.6359L6.38269 13.7794ZM14.1359 13.8471C14.1165 13.8498 14.0979 13.8509 14.0784 13.852C14.0739 13.8522 14.0694 13.8525 14.0648 13.8528C14.0422 13.8542 14.0152 13.8562 13.9911 13.8642L13.991 13.8639M14.1359 13.8471L13.991 13.8639M13.991 13.8639L13.9855 13.8665M13.991 13.8639L13.9855 13.8665M13.9855 13.8665C13.9095 13.9025 13.8346 13.9395 13.76 13.9763L13.7599 13.9764C13.6852 14.0132 13.611 14.0498 13.5358 14.0855L13.9855 13.8665Z" fill="#020304" stroke="black" stroke-width="0.1"/>
<path d="M9.95002 22.2307L9.94321 22.1887C9.93699 22.1504 9.93007 22.1114 9.92307 22.072C9.90518 21.9713 9.88678 21.8679 9.87848 21.7655C9.87847 21.7655 9.87847 21.7655 9.87847 21.7654L9.95002 22.2307ZM9.95002 22.2307H9.99256M9.95002 22.2307H9.99256M9.99256 22.2307C9.99369 22.2307 9.99484 22.2307 9.99603 22.2307C10.0201 22.2307 10.057 22.2308 10.0905 22.2141L10.1075 22.2056L10.1146 22.1879C10.1188 22.1774 10.1229 22.1688 10.1277 22.1588C10.1316 22.1508 10.1358 22.1419 10.1408 22.1306C10.1503 22.1091 10.1605 22.0825 10.1633 22.0536M9.99256 22.2307L10.2315 21.3408M9.97442 15.5276L9.97442 15.5276C10.1233 15.5186 10.251 15.6103 10.2869 15.7625M9.97442 15.5276L10.3147 16.0195M9.97442 15.5276L9.97401 15.5277M9.97442 15.5276L9.97401 15.5277M10.2869 15.7625C10.3069 15.8465 10.3147 15.9373 10.3147 16.0195M10.2869 15.7625C10.2869 15.7625 10.2869 15.7625 10.2869 15.7625L10.2383 15.774L10.2869 15.7624C10.2869 15.7624 10.2869 15.7624 10.2869 15.7625ZM10.3147 16.0195L10.3147 16.0194L10.2647 16.0195H10.3147C10.3147 16.0195 10.3147 16.0195 10.3147 16.0195ZM10.2315 21.3408C10.2315 21.3407 10.2315 21.3407 10.2315 21.3407L10.1816 21.3383L10.2315 21.3409C10.2315 21.3408 10.2315 21.3408 10.2315 21.3408ZM10.2315 21.3408C10.2218 21.5448 10.1983 21.7489 10.1753 21.9487C10.1712 21.9838 10.1672 22.0188 10.1633 22.0536M10.1633 22.0536C10.1633 22.0534 10.1633 22.0532 10.1633 22.053L10.1135 22.0485L10.1632 22.0541C10.1632 22.0539 10.1632 22.0538 10.1633 22.0536ZM9.97401 15.5277C9.84625 15.5365 9.72917 15.6135 9.7015 15.761L9.75065 15.7702L9.97401 15.5277ZM9.70895 17.7591C9.73517 18.736 9.76149 19.7169 9.79895 20.6941L9.67041 16.126C9.67041 16.1261 9.67041 16.1263 9.67042 16.1264C9.67788 16.6556 9.69269 17.1809 9.70759 17.7095L9.70822 17.7321L9.70823 17.7322L9.70895 17.7591Z" fill="#020304" stroke="black" stroke-width="0.1"/>
<path d="M10.1488 0.926708L10.1887 0.962992C10.3123 1.07521 10.3113 1.20654 10.3107 1.3061C10.3105 1.32285 10.3104 1.33871 10.3109 1.35342L10.261 1.35509M10.1488 0.926708L10.1967 7.94312C10.2345 7.85624 10.2534 7.75802 10.2534 7.66736L10.3034 7.66823C10.3034 7.66809 10.3034 7.66795 10.3034 7.6678C10.3298 6.14564 10.3563 4.62318 10.3676 3.10069L10.3676 3.10064C10.3704 2.6726 10.3507 2.24403 10.3311 1.81699C10.324 1.66214 10.3169 1.50749 10.3109 1.35314L10.261 1.35509M10.1488 0.926708L10.1156 0.969291C10.0157 1.09768 10.0121 1.23014 10.0091 1.3426C10.0085 1.36284 10.008 1.38243 10.0069 1.40124C9.99656 1.56961 9.98525 1.73821 9.97393 1.90697C9.93989 2.41443 9.90575 2.92335 9.89722 3.43185L10.1488 0.926708ZM10.261 1.35509C10.267 1.51021 10.2741 1.66533 10.2812 1.82045C10.3008 2.24707 10.3204 2.67369 10.3176 3.10031L10.0238 1.91129C10.0351 1.74226 10.0464 1.57323 10.0568 1.4042C10.058 1.38323 10.0587 1.36217 10.0593 1.34103C10.0622 1.24243 10.0652 1.14209 10.1264 1.04154C10.1248 1.04003 10.1231 1.03852 10.1215 1.03701L10.1551 1L10.1946 1.03071C10.193 1.03267 10.1915 1.03463 10.1901 1.03659C10.2608 1.12277 10.2606 1.21551 10.2604 1.30246C10.2604 1.32028 10.2604 1.33786 10.261 1.35509ZM10.2084 8.01002C10.2218 7.9979 10.2354 7.98183 10.2431 7.96188L9.8573 6.99984C9.85552 7.23733 9.85374 7.47482 9.85185 7.7123H9.85185V7.71269L9.85185 7.7176C9.85183 7.78208 9.8518 7.87003 9.88233 7.94011C9.89638 7.9735 9.92422 8.00343 9.95229 8.02488C9.9801 8.04613 10.0166 8.0655 10.0527 8.0685C10.0883 8.07147 10.1292 8.05878 10.1611 8.04232C10.1778 8.03367 10.1943 8.02283 10.2084 8.01002Z" fill="#020304" stroke="black" stroke-width="0.1"/>
<path d="M18.9305 17.7778L18.8295 17.7442C18.7912 17.7314 18.7604 17.723 18.7329 17.7155C18.7204 17.7121 18.7086 17.7089 18.6971 17.7056C18.6628 17.6956 18.6287 17.6838 18.6008 17.6589C18.5824 17.6434 18.5641 17.6279 18.5457 17.6123C18.3908 17.4814 18.235 17.3498 18.0914 17.2029C17.3883 16.4927 16.6889 15.7786 15.9932 15.057M18.9305 17.7778L16.0292 15.0222M18.9305 17.7778L18.8919 17.6786C18.7953 17.4306 18.6735 17.2789 18.5586 17.1359C18.5436 17.1173 18.5287 17.0987 18.514 17.0802L18.5138 17.0799C17.5223 15.847 16.4554 14.6711 15.3895 13.5039L15.3526 13.5377L15.3896 13.504C15.352 13.4628 15.3082 13.4149 15.2598 13.3746L15.2598 13.3746L15.2591 13.374C15.2196 13.3424 15.1794 13.3142 15.1346 13.2898L15.1346 13.2897L15.1322 13.2886C15.0261 13.2379 14.8937 13.2607 14.8107 13.3436C14.7287 13.4256 14.6853 13.5526 14.7542 13.6657L14.7969 13.6397M18.9305 17.7778L14.7969 13.6397M15.9932 15.057C15.9932 15.057 15.9932 15.057 15.9932 15.0569L16.0292 15.0222M15.9932 15.057C15.9932 15.057 15.9933 15.057 15.9933 15.057L16.0292 15.0222M15.9932 15.057C15.6449 14.6976 15.3081 14.3269 14.9719 13.9569L14.9717 13.9567M16.0292 15.0222C15.6814 14.6634 15.345 14.2932 15.0086 13.923L15.0086 13.923M14.9717 13.9567L15.0086 13.923M14.9717 13.9567C14.8903 13.8676 14.8163 13.7704 14.7539 13.6652L14.7969 13.6397M14.9717 13.9567L14.9716 13.9566L15.0086 13.923M15.0086 13.923L14.7969 13.6397M18.8205 17.6365C18.7314 17.431 18.6245 17.2979 18.5197 17.1674C18.5047 17.1487 18.4897 17.13 18.4748 17.1112L18.8205 17.6365ZM18.8205 17.6365C18.8333 17.6403 18.8469 17.6446 18.8611 17.6493L18.8453 17.6967L18.7987 17.7149C18.7938 17.7022 18.7888 17.6899 18.7837 17.6778C18.7696 17.6737 18.7566 17.6701 18.7445 17.6669C18.6924 17.6526 18.6582 17.6433 18.6336 17.6212L18.8205 17.6365Z" fill="#020304" stroke="black" stroke-width="0.1"/>
<path d="M1.30956 17.7352L1.32077 17.6381C1.34164 17.4573 1.41222 17.3594 1.47082 17.2781C1.48072 17.2643 1.49028 17.2511 1.4992 17.238L1.49962 17.2373L1.49963 17.2373C1.54166 17.1775 1.58369 17.1177 1.62576 17.0577C1.93158 16.6222 2.23885 16.1845 2.55489 15.7556L2.55502 15.7555C2.9424 15.2343 3.33482 14.7179 3.72659 14.2023C3.93131 13.9329 4.13585 13.6637 4.3394 13.3942L4.3395 13.3941C4.4121 13.2986 4.48878 13.2066 4.57333 13.1182M1.30956 17.7352L4.60987 13.1523M1.30956 17.7352L1.39486 17.6875C1.42586 17.6701 1.45029 17.6575 1.47186 17.6464C1.48304 17.6407 1.49345 17.6353 1.50361 17.6299C1.53198 17.6147 1.55723 17.5996 1.57966 17.5772C1.67078 17.4861 1.76219 17.391 1.84995 17.2919L1.30956 17.7352ZM4.57333 13.1182C4.57347 13.1181 4.57361 13.1179 4.57375 13.1178L4.60987 13.1523M4.57333 13.1182C4.57318 13.1184 4.57303 13.1185 4.57289 13.1187L4.60987 13.1523M4.57333 13.1182C4.61583 13.0716 4.67427 13.03 4.73338 13.0046M4.60987 13.1523C4.64767 13.1108 4.7006 13.073 4.75352 13.0503M4.73338 13.0046C4.73323 13.0046 4.73307 13.0047 4.73292 13.0048L4.75352 13.0503M4.73338 13.0046C4.73353 13.0045 4.73368 13.0044 4.73383 13.0044L4.75352 13.0503M4.73338 13.0046L4.75352 13.0503M1.37044 17.6438C1.37299 17.6217 1.37631 17.601 1.38029 17.5815C1.36951 17.5872 1.35807 17.5935 1.34602 17.6002L1.37044 17.6438ZM1.37044 17.6438L1.42011 17.6496C1.42152 17.6374 1.42317 17.6256 1.42504 17.6144C1.40886 17.6228 1.39079 17.6324 1.37044 17.6438ZM4.84861 13.7548C4.84875 13.7546 4.84889 13.7544 4.84903 13.7543L4.81021 13.7227L4.84817 13.7553C4.84831 13.7551 4.84846 13.755 4.84861 13.7548Z" fill="#020304" stroke="black" stroke-width="0.1"/>
<path d="M1.60207 5.00965L1.69071 5.08749C1.73938 5.13024 1.78022 5.16344 1.81628 5.19277C1.82581 5.20052 1.835 5.20799 1.84392 5.2153C1.8861 5.24988 1.9227 5.28121 1.9557 5.31827C2.01753 5.38624 2.07974 5.45428 2.1421 5.52247C2.38406 5.7871 2.62813 6.05403 2.86011 6.32801L2.86028 6.32821C3.67681 7.30288 4.48577 8.28132 5.2946 9.2596C5.37977 9.36023 5.45674 9.47187 5.52553 9.58262L5.5262 9.5837L5.52618 9.58371C5.60405 9.71645 5.56265 9.85846 5.45489 9.93337L5.45408 9.93394L5.45408 9.93393C5.3549 10 5.23252 9.99287 5.12998 9.90826C5.12996 9.90825 5.12994 9.90823 5.12992 9.90821L5.16176 9.86965C5.0975 9.81677 5.0408 9.75255 4.99166 9.68833L1.60207 5.00965ZM1.60207 5.00965L1.60777 5.12748C1.6138 5.25188 1.64316 5.34141 1.6823 5.41338C1.71196 5.46792 1.74777 5.51265 1.77873 5.55133C1.78714 5.56183 1.79519 5.57189 1.80266 5.58157C2.80123 7.00279 3.87143 8.36706 4.95227 9.71914L1.60207 5.00965Z" fill="#020304" stroke="black" stroke-width="0.1"/>
<path d="M12.4381 2.42187L12.4185 2.32387L12.3518 2.39833C12.3286 2.42426 12.3104 2.44316 12.2952 2.45888C12.2898 2.46451 12.2848 2.46973 12.28 2.47473C12.2635 2.49211 12.2469 2.51033 12.2373 2.53286L12.2372 2.53284L12.2364 2.535C12.191 2.65607 12.1452 2.78198 12.1069 2.90826L12.1068 2.90863C11.6997 4.28911 11.422 5.69897 11.1446 7.10708C11.1073 7.29656 11.07 7.486 11.0324 7.67534C11.02 7.72543 11.0159 7.77925 11.02 7.82933C11.0227 7.88174 11.0461 7.93106 11.0781 7.96978C11.1103 8.00877 11.1543 8.04064 11.2029 8.05523L11.2029 8.05526L11.2046 8.0557C11.2984 8.08037 11.4234 8.03269 11.4677 7.9204C11.518 7.79672 11.5567 7.66919 11.5837 7.53783C11.6251 7.34313 11.6669 7.14835 11.7088 6.95345C11.8389 6.3473 11.9693 5.74003 12.0866 5.13075L12.0866 5.13075C12.201 4.53628 12.2957 3.93616 12.3899 3.33868C12.4048 3.24413 12.4197 3.14964 12.4347 3.05526L12.4347 3.05526L12.4348 3.05465C12.4613 2.87272 12.4891 2.67648 12.4381 2.42187Z" fill="#020304" stroke="black" stroke-width="0.1"/>
<path d="M18.3161 5.41596C18.3917 5.3404 18.471 5.26863 18.5542 5.20441L18.3161 5.41596ZM18.3161 5.41596C17.1821 6.55677 16.1464 7.78447 15.122 9.01973C15.0766 9.07639 15.0351 9.13306 15.001 9.19728C14.9519 9.29549 14.9746 9.40504 15.0464 9.45415C15.1258 9.50704 15.2089 9.50326 15.2808 9.45037C15.3564 9.39371 15.4244 9.32571 15.4849 9.25394L18.3161 5.41596ZM18.7658 5.20967L18.8286 5.11635L18.7172 5.13225C18.6733 5.13852 18.6413 5.1407 18.6159 5.14242C18.612 5.14269 18.6082 5.14295 18.6045 5.14321C18.5915 5.14414 18.5781 5.14523 18.5662 5.14749C18.5539 5.14982 18.5398 5.15392 18.5265 5.1628L18.5264 5.1627L18.5236 5.16484C18.4384 5.23063 18.3575 5.3039 18.2807 5.38059L18.2806 5.38071C17.1449 6.52328 16.1079 7.75253 15.0835 8.98781L15.0835 8.98781L15.083 8.98848C15.0369 9.04607 14.993 9.10557 14.9568 9.17387L14.9568 9.17386L14.9563 9.1749C14.8989 9.28972 14.9208 9.42885 15.0182 9.49542L15.0187 9.49576C15.0657 9.5271 15.1163 9.54313 15.1676 9.54191C15.2189 9.54069 15.2674 9.52232 15.3104 9.49063L15.3107 9.49038C15.39 9.43099 15.4606 9.36025 15.5229 9.28644C15.7722 8.9995 16.0218 8.71225 16.2677 8.42118C17.0124 7.54098 17.7505 6.65207 18.4283 5.71364C18.4946 5.62366 18.5558 5.52965 18.6258 5.42204C18.6682 5.35693 18.7138 5.28685 18.7658 5.20967Z" fill="#020304" stroke="black" stroke-width="0.1"/>
<path d="M7.58138 20.7309L7.56535 20.6042C7.52732 20.3035 7.55748 20.0791 7.58576 19.8686C7.58911 19.8437 7.59243 19.819 7.5956 19.7944L7.64519 19.8008M7.58138 20.7309L7.89377 20.0973C7.89378 20.0973 7.89379 20.0972 7.8938 20.0972M7.58138 20.7309L7.65563 20.627C7.68896 20.5803 7.71459 20.549 7.73465 20.5245C7.73671 20.5219 7.73871 20.5195 7.74065 20.5171C7.76048 20.4928 7.779 20.4699 7.78989 20.4427L7.7899 20.4427L7.79022 20.4419C7.82985 20.3375 7.85934 20.2267 7.88737 20.1213C7.88952 20.1133 7.89167 20.1052 7.8938 20.0972M7.58138 20.7309L7.8938 20.0972M7.64519 19.8008L7.59557 19.7947C7.75451 18.5088 7.97397 17.2308 8.21599 15.961L8.21608 15.9606L8.21608 15.9606C8.23525 15.8648 8.25862 15.7709 8.29415 15.6802L8.34071 15.6984M7.64519 19.8008C7.80395 18.5165 8.02319 17.2397 8.26511 15.9704C8.28401 15.876 8.30669 15.7853 8.34071 15.6984M7.64519 19.8008C7.64199 19.8256 7.63867 19.8504 7.63533 19.8753C7.60949 20.0678 7.58275 20.267 7.60688 20.5246C7.59686 20.5378 7.58601 20.5524 7.57428 20.5688L7.61496 20.5979L7.66456 20.5916C7.66232 20.5739 7.66033 20.5565 7.65857 20.5394C7.67293 20.521 7.68531 20.5058 7.69593 20.4928C7.72019 20.4632 7.73521 20.4448 7.74347 20.4241L8.56373 15.5511M8.34071 15.6984L8.29405 15.6805C8.33963 15.562 8.45832 15.4918 8.56806 15.5013L8.56925 15.5014L8.56925 15.5014C8.69611 15.5155 8.80489 15.6264 8.81396 15.767L8.81402 15.7679L8.81402 15.7679C8.818 15.8555 8.81002 15.9426 8.79428 16.0251L8.79423 16.0254C8.78498 16.0724 8.77574 16.1194 8.76649 16.1664C8.50756 17.4827 8.24836 18.8004 7.8938 20.0972M8.34071 15.6984C8.37851 15.6002 8.47679 15.5435 8.56373 15.5511M8.56373 15.5511C8.66579 15.5624 8.75651 15.6531 8.76407 15.7702C8.76785 15.8533 8.76029 15.9364 8.74517 16.0157L8.56373 15.5511Z" fill="#020304" stroke="black" stroke-width="0.1"/>
<path d="M7.80396 3.13809L7.75439 3.14462C7.89445 4.20761 8.08367 5.26273 8.29548 6.31355L8.29552 6.31376C8.3764 6.70635 8.46392 7.09685 8.55122 7.48634C8.57827 7.60705 8.6053 7.72766 8.6321 7.8482L8.6321 7.84821L8.63227 7.84894C8.65149 7.92958 8.67985 8.02139 8.7357 8.09439L8.73569 8.0944L8.73638 8.09525C8.761 8.12601 8.80019 8.14406 8.83469 8.15336C8.87002 8.16289 8.91076 8.16605 8.94541 8.15805L8.94541 8.15806L8.94629 8.15784C8.98094 8.14919 9.01592 8.1247 9.04142 8.09975C9.05478 8.08668 9.06731 8.0718 9.0771 8.05605C9.08641 8.04108 9.09521 8.02216 9.09729 8.00134C9.1091 7.89112 9.1053 7.77618 9.08135 7.66825C9.07214 7.62339 9.06293 7.57852 9.05371 7.53364C8.85504 6.56601 8.65566 5.59495 8.44246 4.63075L8.4424 4.63048C8.33865 4.17363 8.21546 3.72228 8.09219 3.27059C8.07138 3.19437 8.05058 3.11814 8.02987 3.04188L8.02987 3.04188L8.02975 3.04144C8.02605 3.02832 8.02254 3.01462 8.01891 3.00049C7.99101 2.89187 7.95665 2.75807 7.78851 2.67405L7.70915 2.6344L7.71632 2.72282C7.7191 2.75701 7.72166 2.79147 7.72424 2.82613C7.73206 2.93134 7.74002 3.03832 7.75441 3.14479L7.80396 3.13809ZM7.80396 3.13809C7.78978 3.03325 7.78199 2.92841 7.77419 2.82358C7.77307 2.80849 7.77195 2.79341 7.7708 2.77833M7.80396 3.13809C7.94382 4.19958 8.13282 5.25351 8.3445 6.30367C8.42528 6.69579 8.51267 7.08572 8.59994 7.47512C8.62701 7.5959 8.65407 7.71662 8.68091 7.83735C8.69981 7.91668 8.72627 7.99979 8.77541 8.064C8.80565 8.10178 8.88503 8.12067 8.93417 8.10933C8.97953 8.098 9.04379 8.03756 9.04757 7.99601C9.05891 7.89024 9.05513 7.78069 9.03245 7.67869L7.7708 2.77833M7.7708 2.77833C7.76237 2.77323 7.75339 2.76829 7.74381 2.76351L7.76616 2.71878L7.7708 2.77833Z" fill="#020304" stroke="black" stroke-width="0.1"/>
<path d="M12.4601 20.4133L12.3977 20.3765C12.315 20.3278 12.2694 20.2699 12.2416 20.2094C12.222 20.1667 12.2111 20.1209 12.2019 20.0826L12.4601 20.4133ZM12.4601 20.4133L12.4724 20.3419M12.4601 20.4133L12.4724 20.3419M12.4724 20.3419C12.5095 20.1257 12.4826 19.9403 12.4578 19.77C12.4538 19.7424 12.4498 19.7152 12.4462 19.6884L12.4461 19.6879C12.2607 18.4023 12.0261 17.1281 11.7538 15.8617L11.7538 15.8617L11.7534 15.8601C11.7493 15.8435 11.7463 15.8266 11.7429 15.8076C11.7421 15.803 11.7413 15.7983 11.7404 15.7934C11.7361 15.7695 11.7309 15.7429 11.7221 15.7166L11.6747 15.7324L11.7222 15.7169C11.6937 15.6294 11.65 15.5603 11.5906 15.5172C11.5299 15.4732 11.4577 15.4599 11.3811 15.4757L11.3811 15.4757L11.3794 15.4761C11.3113 15.4925 11.2571 15.5332 11.2232 15.5938C11.19 15.6532 11.1782 15.7284 11.1864 15.8128L11.1864 15.8128L11.1865 15.8139C11.1972 15.9025 11.2143 15.9878 11.2315 16.0735C11.2331 16.0814 11.2347 16.0894 11.2363 16.0973L11.2363 16.0973L11.2365 16.0985C11.2931 16.3504 11.3485 16.6031 11.4039 16.856C11.5111 17.3454 11.6185 17.8358 11.7357 18.3242L11.7357 18.3242M12.4724 20.3419L11.7357 18.3242M11.7357 18.3242C11.8397 18.7541 11.9563 19.18 12.0728 19.6055C12.1132 19.753 12.1535 19.9005 12.1934 20.0481L11.7357 18.3242Z" fill="#020304" stroke="black" stroke-width="0.1"/>
<path d="M14.4044 19.0259L14.4776 19.1072L14.4912 18.9987C14.4949 18.9691 14.4986 18.9438 14.502 18.9217C14.5026 18.9173 14.5033 18.9129 14.5039 18.9087C14.5065 18.8921 14.5088 18.8769 14.5106 18.8634C14.5149 18.8304 14.5172 18.7995 14.509 18.7687C14.482 18.6534 14.4437 18.5386 14.4063 18.4263L14.4059 18.4251L14.4059 18.4251L14.4057 18.4245C14.061 17.4367 13.6408 16.4795 13.2215 15.5244L13.2211 15.5235L13.2211 15.5235L13.2209 15.523C13.185 15.4433 13.1374 15.3682 13.0865 15.3016L13.0865 15.3016L13.0863 15.3014C13.008 15.2001 12.8822 15.1719 12.7755 15.2136C12.6545 15.2602 12.5763 15.398 12.6088 15.5326L12.6088 15.5326L12.6091 15.5334C12.6364 15.6387 12.6753 15.7437 12.722 15.841L12.722 15.841C13.1189 16.6645 13.5159 17.4844 13.9204 18.3043C13.9932 18.453 14.0801 18.5959 14.1652 18.7358C14.1789 18.7583 14.1925 18.7807 14.206 18.803L14.206 18.803L14.2072 18.8049C14.2286 18.837 14.2538 18.8651 14.2847 18.8978C14.2926 18.9062 14.3008 18.9148 14.3096 18.924C14.3358 18.9516 14.3666 18.9839 14.4044 19.0259Z" fill="#020304" stroke="black" stroke-width="0.1"/>
<path d="M6.10441 4.06194L6.17028 4.11011C6.32409 4.22258 6.37561 4.34788 6.42042 4.45685C6.42442 4.46658 6.42837 4.47618 6.43233 4.48563C6.46831 4.56559 6.50441 4.6455 6.54051 4.72542C6.72405 5.1317 6.90767 5.53814 7.07539 5.95243C7.25557 6.39488 7.42539 6.83944 7.59519 7.28397C7.67492 7.49271 7.75466 7.70144 7.83546 7.90994L7.8355 7.91005C7.87381 8.00961 7.9088 8.11426 7.93222 8.22351L7.93237 8.22418L7.93236 8.22418C7.9433 8.27883 7.92499 8.33357 7.89764 8.37653C7.87001 8.41991 7.82914 8.45792 7.78377 8.47939C7.68816 8.52465 7.56319 8.48891 7.5011 8.38951C7.45379 8.31846 7.41424 8.23948 7.3864 8.1563M6.10441 4.06194L7.43352 8.13955M6.10441 4.06194L6.0914 4.1425C6.05683 4.35672 6.11516 4.51729 6.16704 4.66013C6.17546 4.68329 6.1837 4.70598 6.19135 4.72835M6.10441 4.06194L6.23905 4.71332M7.3864 8.1563C7.38629 8.15599 7.38619 8.15568 7.38609 8.15537L7.43352 8.13955M7.3864 8.1563C7.38651 8.1566 7.38662 8.15689 7.38673 8.15719L7.43352 8.13955M7.3864 8.1563C7.3667 8.10404 7.34699 8.05178 7.32728 7.99952C6.92007 6.91973 6.51273 5.83962 6.19135 4.72835M7.43352 8.13955C7.41378 8.08718 7.39403 8.03481 7.37428 7.98244C6.96675 6.90181 6.55992 5.82303 6.23905 4.71332M6.19135 4.72835C6.19147 4.72872 6.1916 4.72909 6.19173 4.72946L6.23905 4.71332M6.19135 4.72835C6.19124 4.72797 6.19113 4.72759 6.19102 4.72721L6.23905 4.71332M6.14077 4.15047C6.15709 4.16241 6.17216 4.17447 6.18612 4.18664C6.18725 4.17737 6.18859 4.16797 6.19013 4.15843L6.14077 4.15047ZM6.14077 4.15047L6.11125 4.19083C6.11902 4.19651 6.12648 4.20221 6.13364 4.20794C6.13525 4.18926 6.13759 4.17012 6.14077 4.15047Z" fill="#020304" stroke="black" stroke-width="0.1"/>
<path d="M4.42174 12.3482L4.41645 12.3588C4.41282 12.366 4.40883 12.3757 4.40369 12.3887C4.40278 12.391 4.40183 12.3933 4.40086 12.3958C4.39662 12.4066 4.39181 12.4188 4.38654 12.4311C4.37368 12.4613 4.35623 12.497 4.33055 12.5273M4.42174 12.3482L4.29236 12.4951M4.42174 12.3482V12.3364C4.42174 12.1475 4.2563 12.0017 4.08585 12.0503L4.0858 12.0502L4.08186 12.0517C3.96667 12.0953 3.85585 12.1626 3.76464 12.2418C2.90289 12.9708 2.0449 13.6998 1.18691 14.4326C1.11296 14.4948 1.04294 14.5648 0.98066 14.6387L0.980599 14.6387L0.978905 14.6409C0.958205 14.6685 0.953972 14.7022 0.952462 14.7258C0.951738 14.7372 0.951564 14.7487 0.951413 14.7588C0.951397 14.7599 0.95138 14.761 0.951364 14.762C0.951185 14.7734 0.950958 14.7828 0.950206 14.7911L0.945641 14.8412L0.99585 14.8454C1.00556 14.8462 1.01594 14.8477 1.02813 14.8494L1.02839 14.8494C1.03996 14.851 1.0532 14.8528 1.06633 14.8539C1.09082 14.8559 1.12469 14.8563 1.15504 14.8401C1.24549 14.7968 1.32731 14.7421 1.40386 14.6848M4.42174 12.3482L1.40386 14.6848M4.33055 12.5273C4.33054 12.5273 4.33053 12.5274 4.33052 12.5274L4.29236 12.4951M4.33055 12.5273C4.33057 12.5273 4.33058 12.5273 4.33059 12.5273L4.29236 12.4951M4.33055 12.5273C4.26613 12.6038 4.18668 12.667 4.10972 12.7209M4.29236 12.4951C4.23188 12.5668 4.15628 12.6273 4.08068 12.6802M4.10972 12.7209C4.10985 12.7208 4.10997 12.7207 4.1101 12.7206L4.08068 12.6802M4.10972 12.7209C3.20653 13.378 2.30709 14.0314 1.40386 14.6848M4.10972 12.7209C4.10959 12.721 4.10947 12.721 4.10934 12.7211L4.08068 12.6802M4.08068 12.6802L1.40386 14.6848" fill="#020304" stroke="black" stroke-width="0.1"/>
<path d="M14.3208 3.87722L14.3139 3.99846C14.3113 4.0432 14.3105 4.08089 14.3098 4.11539C14.3095 4.13131 14.3092 4.14655 14.3087 4.16149C14.3073 4.20751 14.3044 4.25001 14.2934 4.29165L14.2928 4.29376L14.2928 4.29375L14.2926 4.29444C14.1907 4.62261 14.0882 4.95243 13.9668 5.27489C13.9668 5.27491 13.9668 5.27492 13.9668 5.27493L13.92 5.25731C13.669 5.92512 13.4113 6.59068 13.1538 7.25573C13.0777 7.45216 13.0017 7.64854 12.9258 7.84492L14.3208 3.87722ZM14.3208 3.87722L14.2305 3.95843C14.1976 3.98801 14.1716 4.00856 14.15 4.02561C14.1476 4.02744 14.1454 4.02924 14.1431 4.031C14.1214 4.04818 14.1 4.06529 14.0841 4.08647L14.0839 4.0863L14.0811 4.09098C14.0199 4.1942 13.9626 4.30105 13.9093 4.40765L13.9091 4.40803C13.4961 5.25104 13.1373 6.11705 12.7793 6.98124C12.6746 7.23408 12.5699 7.48675 12.4639 7.73865L12.4639 7.73865L12.4638 7.73899C12.4363 7.80582 12.4127 7.88034 12.397 7.95117L12.397 7.95117L12.3968 7.95189C12.3697 8.08261 12.4289 8.19901 12.5447 8.24279C12.6534 8.2868 12.7799 8.24018 12.8476 8.12784L14.3208 3.87722Z" fill="#020304" stroke="black" stroke-width="0.1"/>
<path d="M5.68614 19.4628L5.70559 19.3073C5.71278 19.2499 5.71658 19.2029 5.71995 19.1613C5.72094 19.1491 5.72189 19.1374 5.72287 19.126C5.72713 19.0768 5.73213 19.0329 5.74495 18.99C6.05906 17.8516 6.42606 16.7363 6.82315 15.6251C6.85498 15.5338 6.90224 15.4435 6.95254 15.3623M5.68614 19.4628L6.95254 15.3623M5.68614 19.4628L5.79205 19.3473M5.68614 19.4628L5.79205 19.3473M6.95254 15.3623C6.98326 15.3127 7.026 15.2804 7.07558 15.2649C7.12416 15.2497 7.1763 15.2516 7.22637 15.2646M6.95254 15.3623L7.22637 15.2646M5.79205 19.3473C5.82294 19.3137 5.84847 19.2891 5.87051 19.2679C5.87729 19.2614 5.88373 19.2552 5.88991 19.2491C5.9145 19.225 5.93812 19.2003 5.95196 19.168C6.06155 18.9414 6.16771 18.714 6.26262 18.4826L6.26272 18.4823M5.79205 19.3473L6.26272 18.4823M6.26272 18.4823C6.6105 17.621 6.9545 16.7597 7.29471 15.8984C7.34593 15.7723 7.37308 15.6395 7.3922 15.5097C7.41184 15.3903 7.32758 15.289 7.22637 15.2646M6.26272 18.4823L7.22637 15.2646" fill="#020304" stroke="black" stroke-width="0.1"/>
<path d="M19.0015 14.7312L19.1468 14.7613L19.0493 14.6494C19.0159 14.6111 18.9872 14.5769 18.9612 14.5459C18.9107 14.4857 18.8706 14.4379 18.8266 14.3965L18.8266 14.3965L18.8253 14.3953C18.0641 13.7292 17.2615 13.1088 16.4484 12.5078C16.4013 12.4726 16.3449 12.4361 16.287 12.4113L16.287 12.4113L16.2864 12.4111C16.159 12.3584 16.0202 12.3875 15.9403 12.495C15.8557 12.6035 15.868 12.7491 15.9757 12.8523L15.9757 12.8523L15.976 12.8525C16.0467 12.9193 16.1248 12.9777 16.2056 13.0315L16.2056 13.0315L16.2059 13.0318C16.9506 13.5191 17.6991 14.0064 18.4476 14.49C18.5595 14.5632 18.6748 14.6246 18.7921 14.6852L18.7927 14.6854C18.819 14.6986 18.8475 14.7042 18.878 14.7094C18.8856 14.7107 18.8936 14.7119 18.902 14.7133C18.9289 14.7177 18.9606 14.7228 19.0015 14.7312Z" fill="#020304" stroke="black" stroke-width="0.1"/>
<path d="M4.22356 17.5914L4.22037 17.6393L4.26808 17.6445C4.35346 17.6537 4.41303 17.6264 4.45625 17.5819C4.48721 17.5501 4.50995 17.5082 4.52777 17.4753C4.53177 17.468 4.53551 17.461 4.53905 17.4548C5.04628 16.6943 5.50411 15.904 5.94263 15.103C5.98289 15.0306 6.01483 14.9428 6.03098 14.8586C6.05851 14.7331 5.98925 14.6111 5.88375 14.568C5.78326 14.5269 5.64443 14.548 5.56802 14.6482L5.56801 14.6482L5.56722 14.6493C5.49878 14.7442 5.42858 14.8492 5.37741 14.9592C5.08741 15.5551 4.80301 16.1567 4.51953 16.7563C4.47408 16.8524 4.42866 16.9485 4.38324 17.0445L4.38323 17.0445L4.38287 17.0453C4.32943 17.1636 4.2796 17.2861 4.23736 17.4127L4.23735 17.4127L4.23701 17.4138C4.22727 17.4455 4.22536 17.4787 4.22488 17.508C4.22469 17.5193 4.22469 17.5297 4.2247 17.5397C4.22471 17.5577 4.22472 17.5741 4.22356 17.5914Z" fill="#020304" stroke="black" stroke-width="0.1"/>
<path d="M15.7754 5.77516L15.791 5.7103L15.7244 5.71355C15.5615 5.72149 15.4931 5.82604 15.4464 5.89737C15.4404 5.90652 15.4348 5.91513 15.4293 5.92291C14.8682 6.66193 14.387 7.45718 13.9258 8.25816L13.9258 8.25816L13.9255 8.25859C13.889 8.32346 13.8598 8.40167 13.8514 8.47779L13.8514 8.47779L13.8513 8.47834C13.842 8.57182 13.889 8.67089 13.9935 8.69772C14.026 8.70745 14.0649 8.7092 14.1 8.70481C14.1343 8.70053 14.1746 8.68919 14.2026 8.66425L14.2027 8.66427L14.2039 8.66313C14.2837 8.58736 14.3507 8.49644 14.4054 8.40275L14.4055 8.40252C14.4587 8.31021 14.5119 8.21799 14.5651 8.1258C14.8557 7.62206 15.1457 7.11943 15.4302 6.61143L15.4304 6.61114C15.5335 6.42414 15.6211 6.22606 15.7078 6.03034L15.7083 6.02927L15.7083 6.02927L15.7086 6.02844C15.7323 5.97232 15.7457 5.91003 15.7595 5.84612C15.7646 5.82262 15.7697 5.79889 15.7754 5.77516Z" fill="#020304" stroke="black" stroke-width="0.1"/>
<path d="M4.80625 5.72661L4.86824 5.78856C4.88638 5.80669 4.90313 5.82208 4.9195 5.83711C4.9263 5.84336 4.93304 5.84956 4.93979 5.85586C4.9619 5.87651 4.98376 5.8981 5.00184 5.92294L5.00291 5.92442L5.00288 5.92443C5.03098 5.96615 5.05931 6.00795 5.0877 6.04986C5.19253 6.20455 5.29833 6.36068 5.39696 6.519L5.39749 6.51984L5.39748 6.51985C5.71526 7.05325 6.02802 7.58919 6.33971 8.12331C6.41005 8.24383 6.48032 8.36426 6.55059 8.48454L6.55083 8.48494L6.55083 8.48494C6.59765 8.56683 6.64102 8.66114 6.66882 8.7564L6.669 8.75702L6.669 8.75702C6.69361 8.84557 6.66299 8.93965 6.57672 8.99712C6.53323 9.0261 6.47911 9.0399 6.42722 9.03757C6.37525 9.03524 6.32115 9.01639 6.28196 8.97461L6.28179 8.97444C6.23009 8.91879 6.1859 8.85869 6.14964 8.7903C6.14959 8.79021 6.14955 8.79013 6.1495 8.79004L6.19368 8.76663C5.72875 7.91291 5.27893 7.04785 4.89715 6.15258L4.80625 5.72661ZM4.80625 5.72661L4.78446 5.8115C4.74591 5.96178 4.79872 6.06726 4.83851 6.14673C4.8431 6.15589 4.84751 6.1647 4.85159 6.1732L4.80625 5.72661ZM6.549 8.95551C6.48096 9.00084 6.37512 9.00084 6.31842 8.9404L4.82242 5.88343C4.81432 5.87577 4.80598 5.86772 4.79755 5.8593L4.83289 5.82393L4.88133 5.83636C4.87886 5.84598 4.87686 5.85532 4.8753 5.8644C4.87907 5.86788 4.88279 5.87129 4.88643 5.87464C4.91633 5.9021 4.94199 5.92568 4.96141 5.95237C4.98969 5.99435 5.01814 6.03633 5.04661 6.07835C5.15136 6.23293 5.25645 6.38802 5.35453 6.54544C5.67217 7.07862 5.98479 7.61432 6.29648 8.14842C6.36683 8.26897 6.43712 8.38943 6.50742 8.50976C6.55278 8.58909 6.59436 8.67975 6.62082 8.77041C6.63972 8.83841 6.61704 8.91018 6.549 8.95551Z" fill="#020304" stroke="black" stroke-width="0.1"/>
<path d="M2.14155 8.73641L2.10545 8.771C2.79135 9.48676 3.52993 10.1453 4.28268 10.7842L4.28304 10.7845C4.33452 10.8274 4.39727 10.8562 4.45033 10.8789C4.50119 10.9007 4.55793 10.9027 4.60808 10.8899C4.65795 10.8771 4.70589 10.8484 4.735 10.8035C4.78341 10.7287 4.80238 10.634 4.74184 10.5478C4.69405 10.4763 4.63456 10.4089 4.57097 10.3533L4.57066 10.3531C4.4075 10.2128 4.24035 10.0761 4.06923 9.94687L4.06922 9.94686C3.52871 9.53891 2.98802 9.13082 2.44352 8.72648L2.44352 8.72647L2.4426 8.72582C2.42971 8.7167 2.4163 8.70633 2.40211 8.69535C2.32513 8.63581 2.22504 8.5584 2.06 8.56557L1.97272 8.56936L2.0202 8.6427C2.03497 8.6655 2.046 8.6839 2.05573 8.70011C2.05938 8.70621 2.06285 8.71199 2.06626 8.71759C2.07814 8.73705 2.09024 8.75582 2.1062 8.77177L2.14155 8.73641ZM2.14155 8.73641C2.1272 8.72207 2.11588 8.70319 2.09897 8.67499C2.09709 8.67186 2.09514 8.66861 2.09311 8.66524M2.14155 8.73641C2.82572 9.45036 3.56282 10.1077 4.31504 10.7461C4.36039 10.7838 4.4171 10.8103 4.47002 10.8329C4.5494 10.8669 4.65145 10.8405 4.69303 10.7763C4.73461 10.7121 4.74595 10.6403 4.70059 10.5761C4.65523 10.5081 4.59854 10.4439 4.53806 10.391L2.09311 8.66524M2.09311 8.66524C2.08385 8.66498 2.07427 8.66505 2.06434 8.66548L2.06217 8.61552L2.10414 8.58835C2.11078 8.5986 2.11682 8.60819 2.12232 8.6171C2.23215 8.62812 2.30338 8.68281 2.36895 8.73316C2.38404 8.74474 2.39882 8.75609 2.41371 8.76663C2.95802 9.17082 3.49856 9.5788 4.0391 9.98677L2.09311 8.66524Z" fill="#020304" stroke="black" stroke-width="0.1"/>
<path d="M15.6784 17.0307L15.7241 17.0444L15.7399 16.9994C15.7931 16.8482 15.7241 16.7317 15.6712 16.6425C15.6664 16.6344 15.6617 16.6264 15.6572 16.6187C15.3208 15.9766 14.9769 15.3383 14.6331 14.7003C14.5921 14.6225 14.5317 14.5506 14.4732 14.492C14.3884 14.4074 14.2669 14.4003 14.1822 14.4601L14.1822 14.4601L14.182 14.4603C14.134 14.4945 14.1023 14.5384 14.0875 14.5883C14.0729 14.6376 14.0758 14.6893 14.0914 14.7386C14.1156 14.8189 14.1554 14.9024 14.2032 14.9741C14.5888 15.571 14.9782 16.1679 15.3713 16.7648L15.3715 16.765C15.4268 16.848 15.4935 16.9223 15.5582 16.9907L15.5581 16.9907L15.5592 16.9917C15.5814 17.014 15.6124 17.0191 15.6285 17.0218C15.6349 17.0228 15.6406 17.0236 15.6458 17.0244C15.6583 17.0262 15.668 17.0276 15.6784 17.0307Z" fill="#020304" stroke="black" stroke-width="0.1"/>
<path d="M16.2598 10.3419L16.2852 10.3849C16.3697 10.335 16.4515 10.2806 16.5261 10.2178C17.0667 9.77205 17.6073 9.3225 18.1441 8.87295L18.1441 8.87295L18.1445 8.87259C18.2272 8.8017 18.3015 8.71565 18.3691 8.63674L18.3694 8.63698L18.3728 8.63194C18.3893 8.60713 18.3907 8.57665 18.3915 8.55519C18.3918 8.5485 18.392 8.54164 18.3922 8.53444C18.3928 8.51401 18.3934 8.49089 18.3961 8.46139L18.4045 8.36937L18.3229 8.4127C18.2859 8.43233 18.2545 8.44793 18.2253 8.46245C18.2062 8.47193 18.188 8.48096 18.1698 8.49034C18.1264 8.51275 18.0872 8.53517 18.0513 8.56448C17.5588 8.91686 17.0708 9.2715 16.5823 9.62654C16.4375 9.73177 16.2926 9.83703 16.1476 9.94228C16.1063 9.9712 16.0698 10.0077 16.0369 10.0406L16.0354 10.0421C15.9858 10.0917 15.9525 10.1454 15.9443 10.2019C15.9357 10.2607 15.9552 10.3148 15.9957 10.3601L15.9957 10.3601L15.9966 10.361C16.0332 10.3999 16.0773 10.4255 16.1298 10.4295C16.1811 10.4334 16.2331 10.4161 16.2855 10.3847L16.2598 10.3419ZM16.2598 10.3419C16.1653 10.3985 16.0934 10.391 16.033 10.3267L18.112 8.83462C17.5752 9.28415 17.0347 9.73367 16.4941 10.1794C16.4223 10.2399 16.3429 10.2927 16.2598 10.3419Z" fill="#020304" stroke="black" stroke-width="0.1"/>
<path d="M10.3392 10.9114L10.3392 10.9114C9.98004 10.9195 9.68238 11.2166 9.6742 11.5722C9.66593 11.9317 9.99388 12.2429 10.3668 12.2429C10.7308 12.2429 11.0254 11.9485 11.0254 11.5847C11.0254 11.2131 10.7115 10.9032 10.3392 10.9114Z" fill="#020304" stroke="black" stroke-width="0.1"/>
<path d="M9.47172 11.3223L9.57344 11.2882L9.48187 11.2323C9.45881 11.2182 9.44199 11.2058 9.4262 11.1942C9.41996 11.1896 9.41389 11.1851 9.40765 11.1807C9.38868 11.1673 9.36268 11.1501 9.32937 11.1494C9.11762 11.1343 8.90135 11.1229 8.68847 11.1229C8.67662 11.1229 8.66513 11.1225 8.65241 11.1219C8.64593 11.1217 8.63914 11.1214 8.63182 11.1211C8.61138 11.1205 8.5886 11.1202 8.56543 11.1227C8.51762 11.1279 8.46696 11.1449 8.42442 11.1925L8.38963 11.2313L8.42992 11.2644C8.55497 11.3672 8.69263 11.4244 8.86251 11.4335C9.0304 11.4424 9.22728 11.4044 9.47172 11.3223Z" fill="#020304" stroke="black" stroke-width="0.1"/>
<path d="M11.6432 10.9832C11.4466 10.9872 11.2931 11.0404 11.108 11.1781L11.0098 11.2512L11.1311 11.2678C11.3938 11.3037 11.5712 11.3195 11.7081 11.3106C11.848 11.3016 11.9455 11.2668 12.0484 11.2043L12.0991 11.1735L12.0601 11.1287C11.9425 10.9938 11.786 10.9793 11.6432 10.9832ZM11.6432 10.9832C11.6432 10.9832 11.6431 10.9832 11.6431 10.9832L11.6444 11.0332L11.6434 10.9832C11.6433 10.9832 11.6433 10.9832 11.6432 10.9832ZM11.1379 11.2183L11.1447 11.1687C11.1629 11.1712 11.1806 11.1736 11.198 11.1759C11.1783 11.1889 11.1583 11.203 11.1379 11.2183ZM11.1379 11.2183L11.1677 11.2584C11.1822 11.2476 11.1963 11.2375 11.2103 11.2279C11.1869 11.2249 11.1628 11.2217 11.1379 11.2183ZM12.0224 11.1616L11.9847 11.1944C11.9825 11.1919 11.9802 11.1894 11.9779 11.1869C11.9927 11.1791 12.0075 11.1707 12.0224 11.1616ZM12.0224 11.1616L11.9964 11.1189C11.9929 11.121 11.9894 11.1231 11.9859 11.1252C11.9985 11.136 12.0107 11.1481 12.0224 11.1616Z" fill="#020304" stroke="black" stroke-width="0.1"/>
<path d="M12.0319 11.8746L12.0996 11.856L12.0599 11.7981C11.958 11.6497 11.8089 11.6044 11.6773 11.5669C11.5239 11.5214 11.3837 11.5391 11.2218 11.6023L11.1415 11.6336L11.2085 11.6878C11.3487 11.8009 11.4681 11.8735 11.5981 11.9039C11.7286 11.9344 11.8635 11.9211 12.0319 11.8746Z" fill="#020304" stroke="black" stroke-width="0.1"/>
<path d="M8.65636 11.8646L8.54242 11.9429L8.68013 11.9556C8.90821 11.9764 9.07353 11.9744 9.20736 11.9374C9.34382 11.8997 9.44329 11.827 9.54224 11.7162L9.59779 11.654L9.51678 11.6343C9.20126 11.5575 8.95169 11.6614 8.65636 11.8646Z" fill="#020304" stroke="black" stroke-width="0.1"/>
<path d="M11.1025 12.8758L11.185 12.8975L11.1636 12.8149C11.1242 12.6631 11.0975 12.5695 11.0589 12.4956C11.0193 12.4195 10.9684 12.3665 10.8884 12.2922L10.8884 12.2922L10.8876 12.2915C10.8716 12.2772 10.8412 12.2503 10.8 12.2469C10.7541 12.2431 10.7133 12.2682 10.6765 12.3116L10.657 12.3344L10.6681 12.3624C10.6789 12.3897 10.6882 12.4167 10.698 12.4451C10.7042 12.4633 10.7107 12.4821 10.7179 12.5019C10.7356 12.5506 10.7564 12.6015 10.7856 12.6498C10.8455 12.7489 10.9384 12.8328 11.1025 12.8758Z" fill="#020304" stroke="black" stroke-width="0.1"/>
<path d="M11.1456 11.8973L11.0501 11.8579L11.0785 11.9573C11.1164 12.0901 11.1516 12.1825 11.2078 12.2536C11.2647 12.3257 11.3395 12.3712 11.4452 12.4193C11.4474 12.4204 11.4503 12.4219 11.4535 12.4236C11.4621 12.4281 11.4734 12.434 11.4831 12.4384C11.4982 12.4452 11.5183 12.4527 11.5406 12.4539C11.5646 12.4551 11.5902 12.449 11.613 12.4306C11.6345 12.4132 11.6498 12.3879 11.6611 12.3576L11.6692 12.3356L11.6575 12.3153C11.5487 12.126 11.3915 11.9987 11.1456 11.8973Z" fill="#020304" stroke="black" stroke-width="0.1"/>
<path d="M9.74649 12.842L9.75917 12.9319L9.82837 12.8731C9.94023 12.7781 10.0134 12.7085 10.0476 12.6273C10.083 12.5434 10.0737 12.455 10.0491 12.334L10.0331 12.2553L9.96959 12.3044C9.86294 12.3866 9.79164 12.4496 9.75701 12.5318C9.72221 12.6145 9.72771 12.7087 9.74649 12.842Z" fill="#020304" stroke="black" stroke-width="0.1"/>
<path d="M9.11491 12.5024L9.04128 12.619L9.17255 12.5766C9.42488 12.4952 9.56723 12.3997 9.67724 12.2531C9.67813 12.2519 9.67906 12.2507 9.68003 12.2494C9.69515 12.2294 9.71951 12.1971 9.72578 12.1595C9.72951 12.1372 9.72706 12.1136 9.71591 12.0901C9.70515 12.0674 9.68751 12.0474 9.66469 12.0291L9.64131 12.0104L9.61378 12.0222C9.41545 12.1072 9.27256 12.2526 9.11491 12.5024Z" fill="#020304" stroke="black" stroke-width="0.1"/>
<path d="M10.474 12.9598L10.5172 12.9971L10.5485 12.9493C10.6258 12.8312 10.6046 12.7097 10.5649 12.6024L10.5649 12.6023L10.5639 12.6C10.5571 12.5841 10.5521 12.5656 10.5458 12.5423L10.5457 12.5417C10.5398 12.52 10.5329 12.494 10.5223 12.4696C10.5114 12.4444 10.4957 12.4183 10.4708 12.3969C10.4454 12.3752 10.4135 12.3609 10.3743 12.355L10.3285 12.348L10.3181 12.3932C10.2845 12.5384 10.2675 12.6386 10.2906 12.7244C10.3144 12.8126 10.3782 12.8772 10.474 12.9598Z" fill="#020304" stroke="black" stroke-width="0.1"/>
</svg>
