<svg width="16" height="24" viewBox="0 0 16 24" fill="none" xmlns="http://www.w3.org/2000/svg">
<mask id="path-1-outside-1_2_5573" maskUnits="userSpaceOnUse" x="1.73265" y="4.2684" width="12" height="20" fill="black">
<rect fill="white" x="1.73265" y="4.2684" width="12" height="20"/>
<path d="M9.67505 7.24805C9.78467 7.27449 9.86405 7.29338 9.94721 7.31604C10.1438 7.37271 10.3139 7.4747 10.4575 7.61825C10.7108 7.8789 10.6654 8.27554 10.4235 8.48708C10.3365 8.56263 10.2383 8.62308 10.1249 8.70618C10.0871 9.09905 10.106 9.50324 10.1967 9.89988C10.2194 10.0019 10.2572 10.1039 10.3139 10.1908C10.5142 10.5232 10.7372 10.8329 11.0888 11.0407C11.6709 11.392 12.1698 11.8453 12.6159 12.3553C12.9258 12.7104 13.13 13.1146 13.2358 13.5754C13.4475 14.5085 13.4248 15.4378 13.2131 16.3708C13.0392 17.1301 12.7898 17.8592 12.4533 18.558C12.0716 19.3513 11.6973 20.1484 11.2437 20.9039C10.9451 21.3987 10.6314 21.8822 10.3139 22.362C10.0757 22.7209 9.78467 23.042 9.46338 23.3328C9.27438 23.5028 9.06648 23.6464 8.82834 23.7446C8.40876 23.9221 8.0043 23.9108 7.61118 23.6766C7.10845 23.3782 6.63595 23.0344 6.27685 22.5773C5.759 21.9162 5.25626 21.2401 4.76864 20.5601C4.41332 20.0652 4.14116 19.5213 3.91814 18.9509C3.77073 18.5693 3.61575 18.1916 3.46833 17.8138C3.15837 17.0206 2.96937 16.197 2.85219 15.3547C2.81817 15.1053 2.77659 14.8598 2.75769 14.6067C2.73879 14.3158 2.72746 14.0212 2.73502 13.7303C2.74635 13.345 2.87487 12.9899 3.12435 12.6877C3.65355 12.038 4.25078 11.4676 5.0408 11.1238C5.28272 11.018 5.51329 10.8896 5.75521 10.7838C6.13699 10.6138 6.33733 10.3116 6.42427 9.92255C6.43939 9.8621 6.45073 9.80167 6.45829 9.73745C6.49231 9.40503 6.49231 9.0726 6.48853 8.7364C6.40537 8.69107 6.33355 8.65329 6.26173 8.60796C6.11432 8.51352 6.00847 8.38509 5.94421 8.22643C5.82325 7.93178 5.91775 7.6258 6.19369 7.46337C6.33733 7.38026 6.49987 7.32737 6.67375 7.2556C6.66619 7.16494 6.65863 7.06295 6.65485 6.96095C6.63973 6.7003 6.62461 6.43966 6.60949 6.179C6.60571 6.13745 6.60949 6.0959 6.61327 6.05435C6.64729 5.57837 6.85897 5.3555 7.33525 5.29506C7.57717 5.26484 7.81908 5.26106 8.06478 5.27995C8.35962 5.30261 8.65824 5.29506 8.95308 5.30261C9.03624 5.30261 9.12318 5.30261 9.20634 5.30261C9.36887 5.30639 9.48983 5.38572 9.57299 5.51793C9.67127 5.67281 9.72419 5.8428 9.72419 6.02412C9.72041 6.35655 9.70907 6.69275 9.70151 7.02517C9.69773 7.09317 9.68639 7.15361 9.67505 7.24805ZM6.87409 8.82329C6.87409 8.93661 6.87409 9.01594 6.87409 9.09904C6.87031 9.31814 6.88165 9.53724 6.85897 9.75634C6.79093 10.4023 6.51877 10.9123 5.88374 11.188C5.67962 11.2749 5.49062 11.3958 5.2865 11.4827C4.5872 11.7773 4.03911 12.2646 3.53637 12.8124C3.26043 13.1146 3.12057 13.4621 3.11301 13.8663C3.11301 13.9796 3.10923 14.0967 3.12057 14.2101C3.23775 15.2942 3.45321 16.3557 3.83498 17.3832C4.058 17.98 4.3037 18.5693 4.55318 19.1586C4.66658 19.4268 4.81022 19.6875 4.95386 19.9406C5.41124 20.7452 5.97446 21.4781 6.51499 22.226C6.84763 22.6831 7.29366 23.0193 7.76994 23.3177C8.08746 23.5179 8.41254 23.5217 8.73384 23.3479C8.90772 23.2535 9.07026 23.1288 9.21767 22.9966C9.56543 22.6869 9.84515 22.3204 10.106 21.9351C10.8355 20.8548 11.4554 19.7139 12.0224 18.5467C12.3929 17.7912 12.6764 17.013 12.8578 16.1895C13.009 15.4982 13.0581 14.8107 12.9674 14.1043C12.8843 13.4659 12.6764 12.8879 12.219 12.412C12.0375 12.2231 11.8637 12.0229 11.6671 11.8491C11.24 11.4751 10.8015 11.1125 10.3592 10.7536C10.1173 10.5572 9.97745 10.3116 9.90941 10.017C9.83381 9.69589 9.83759 9.3748 9.88295 9.04993C9.89429 8.95927 9.92831 8.86862 9.88295 8.75907C9.74309 8.75907 9.60701 8.76285 9.47093 8.75907C9.32351 8.75151 9.17232 8.76662 9.0249 8.64574C9.10428 8.61552 9.16854 8.58152 9.2328 8.57019C9.42936 8.52864 9.62969 8.50219 9.82625 8.46064C9.96233 8.43042 10.0871 8.36998 10.1891 8.27176C10.3403 8.12821 10.3403 7.94689 10.1891 7.80713C10.0795 7.70513 9.94343 7.64091 9.79223 7.62202C9.67505 7.60691 9.56166 7.5918 9.44448 7.58803C8.7225 7.57669 8.00052 7.56536 7.28233 7.56536C7.08199 7.56536 6.88165 7.59936 6.68509 7.63336C6.57169 7.65602 6.46207 7.70513 6.36379 7.7618C6.25417 7.82601 6.22771 7.94311 6.26929 8.064C6.32221 8.2151 6.42805 8.31331 6.57547 8.35864C6.70777 8.4002 6.84385 8.41531 6.97993 8.44175C7.18783 8.4833 7.39572 8.52108 7.60362 8.56641C7.6452 8.57396 7.67922 8.61552 7.72836 8.64952C7.45998 8.82328 7.18405 8.82706 6.87409 8.82329ZM8.55996 7.22538C8.6469 7.24805 8.71872 7.26316 8.78298 7.18005C8.84724 7.09695 8.91906 7.01762 8.99466 6.94962C9.0249 6.92318 9.07403 6.87407 9.12695 6.92696C9.11183 7.04028 8.9871 7.10828 8.98332 7.24049C9.13452 7.2556 9.26681 7.27072 9.39533 7.23672C9.41045 7.21028 9.42557 7.19138 9.42935 7.17249C9.44069 6.82874 9.45959 6.48498 9.45581 6.14123C9.45581 5.96368 9.39156 5.85414 9.26682 5.68415C9.1761 5.78992 9.09294 5.89569 9.006 5.99768C8.91906 6.10345 8.83212 6.20922 8.7414 6.31122C8.65068 6.41321 8.56374 6.51898 8.46924 6.62098C8.37852 6.72297 8.28024 6.81741 8.18952 6.9194C8.10258 7.01762 7.97784 7.08561 7.89468 7.22916C8.03832 7.22916 8.15172 7.22916 8.26512 7.22916C8.3445 7.14606 8.4201 7.05917 8.50326 6.97607C8.57508 6.90052 8.65068 6.82496 8.73006 6.75697C8.80944 6.6852 8.86992 6.5832 8.99466 6.55298C8.99088 6.59453 8.99844 6.6172 8.9871 6.63231C8.85102 6.82496 8.71115 7.01762 8.55996 7.22538ZM7.25209 7.21783C7.44487 7.24049 7.56582 7.2556 7.683 7.13472C8.12904 6.66253 8.58264 6.20167 9.03624 5.73325C9.07026 5.69925 9.12317 5.66904 9.10427 5.60482C8.77542 5.55571 8.77164 5.55571 8.5902 5.77103C8.18196 6.25833 7.76994 6.74564 7.25209 7.21783ZM6.85141 7.20272C6.92323 7.27449 6.97615 7.24049 7.02151 7.19138C7.11223 7.08939 7.19539 6.97984 7.28989 6.88163C7.66789 6.48876 8.04966 6.0959 8.43144 5.70303C8.45034 5.68414 8.46168 5.65392 8.48058 5.62748C8.25378 5.55193 8.25 5.54815 8.13282 5.69926C7.75482 6.19034 7.35793 6.66631 6.91189 7.10073C6.88543 7.13095 6.87031 7.1725 6.85141 7.20272ZM8.03832 5.57837C7.89846 5.52926 7.81152 5.56327 7.73592 5.65393C7.45243 6.00146 7.16515 6.34521 6.88165 6.68897C6.86275 6.71164 6.87787 6.76452 6.87787 6.8023C6.90433 6.79096 6.93457 6.78341 6.95347 6.76453C7.29744 6.40188 7.64142 6.03546 7.98162 5.66903C8.0043 5.65015 8.01564 5.61992 8.03832 5.57837ZM6.86653 6.34899C6.88165 6.36033 6.89677 6.37544 6.91189 6.38677C6.97237 6.31878 7.03663 6.25078 7.09711 6.179C7.15381 6.11479 7.20673 6.05435 7.25965 5.99013C7.32391 5.92213 7.38817 5.85414 7.44865 5.78236C7.50157 5.71814 7.58851 5.67281 7.60741 5.57082C7.41463 5.57838 7.4184 5.57837 7.35036 5.67281C7.22185 5.85035 7.09333 6.02412 6.96481 6.20167C6.93457 6.247 6.90055 6.29989 6.86653 6.34899ZM6.92323 5.98257C7.11223 5.79747 7.11223 5.79747 7.15759 5.64637C6.95725 5.74836 6.95725 5.74836 6.92323 5.98257Z"/>
</mask>
<path d="M9.67505 7.24805C9.78467 7.27449 9.86405 7.29338 9.94721 7.31604C10.1438 7.37271 10.3139 7.4747 10.4575 7.61825C10.7108 7.8789 10.6654 8.27554 10.4235 8.48708C10.3365 8.56263 10.2383 8.62308 10.1249 8.70618C10.0871 9.09905 10.106 9.50324 10.1967 9.89988C10.2194 10.0019 10.2572 10.1039 10.3139 10.1908C10.5142 10.5232 10.7372 10.8329 11.0888 11.0407C11.6709 11.392 12.1698 11.8453 12.6159 12.3553C12.9258 12.7104 13.13 13.1146 13.2358 13.5754C13.4475 14.5085 13.4248 15.4378 13.2131 16.3708C13.0392 17.1301 12.7898 17.8592 12.4533 18.558C12.0716 19.3513 11.6973 20.1484 11.2437 20.9039C10.9451 21.3987 10.6314 21.8822 10.3139 22.362C10.0757 22.7209 9.78467 23.042 9.46338 23.3328C9.27438 23.5028 9.06648 23.6464 8.82834 23.7446C8.40876 23.9221 8.0043 23.9108 7.61118 23.6766C7.10845 23.3782 6.63595 23.0344 6.27685 22.5773C5.759 21.9162 5.25626 21.2401 4.76864 20.5601C4.41332 20.0652 4.14116 19.5213 3.91814 18.9509C3.77073 18.5693 3.61575 18.1916 3.46833 17.8138C3.15837 17.0206 2.96937 16.197 2.85219 15.3547C2.81817 15.1053 2.77659 14.8598 2.75769 14.6067C2.73879 14.3158 2.72746 14.0212 2.73502 13.7303C2.74635 13.345 2.87487 12.9899 3.12435 12.6877C3.65355 12.038 4.25078 11.4676 5.0408 11.1238C5.28272 11.018 5.51329 10.8896 5.75521 10.7838C6.13699 10.6138 6.33733 10.3116 6.42427 9.92255C6.43939 9.8621 6.45073 9.80167 6.45829 9.73745C6.49231 9.40503 6.49231 9.0726 6.48853 8.7364C6.40537 8.69107 6.33355 8.65329 6.26173 8.60796C6.11432 8.51352 6.00847 8.38509 5.94421 8.22643C5.82325 7.93178 5.91775 7.6258 6.19369 7.46337C6.33733 7.38026 6.49987 7.32737 6.67375 7.2556C6.66619 7.16494 6.65863 7.06295 6.65485 6.96095C6.63973 6.7003 6.62461 6.43966 6.60949 6.179C6.60571 6.13745 6.60949 6.0959 6.61327 6.05435C6.64729 5.57837 6.85897 5.3555 7.33525 5.29506C7.57717 5.26484 7.81908 5.26106 8.06478 5.27995C8.35962 5.30261 8.65824 5.29506 8.95308 5.30261C9.03624 5.30261 9.12318 5.30261 9.20634 5.30261C9.36887 5.30639 9.48983 5.38572 9.57299 5.51793C9.67127 5.67281 9.72419 5.8428 9.72419 6.02412C9.72041 6.35655 9.70907 6.69275 9.70151 7.02517C9.69773 7.09317 9.68639 7.15361 9.67505 7.24805ZM6.87409 8.82329C6.87409 8.93661 6.87409 9.01594 6.87409 9.09904C6.87031 9.31814 6.88165 9.53724 6.85897 9.75634C6.79093 10.4023 6.51877 10.9123 5.88374 11.188C5.67962 11.2749 5.49062 11.3958 5.2865 11.4827C4.5872 11.7773 4.03911 12.2646 3.53637 12.8124C3.26043 13.1146 3.12057 13.4621 3.11301 13.8663C3.11301 13.9796 3.10923 14.0967 3.12057 14.2101C3.23775 15.2942 3.45321 16.3557 3.83498 17.3832C4.058 17.98 4.3037 18.5693 4.55318 19.1586C4.66658 19.4268 4.81022 19.6875 4.95386 19.9406C5.41124 20.7452 5.97446 21.4781 6.51499 22.226C6.84763 22.6831 7.29366 23.0193 7.76994 23.3177C8.08746 23.5179 8.41254 23.5217 8.73384 23.3479C8.90772 23.2535 9.07026 23.1288 9.21767 22.9966C9.56543 22.6869 9.84515 22.3204 10.106 21.9351C10.8355 20.8548 11.4554 19.7139 12.0224 18.5467C12.3929 17.7912 12.6764 17.013 12.8578 16.1895C13.009 15.4982 13.0581 14.8107 12.9674 14.1043C12.8843 13.4659 12.6764 12.8879 12.219 12.412C12.0375 12.2231 11.8637 12.0229 11.6671 11.8491C11.24 11.4751 10.8015 11.1125 10.3592 10.7536C10.1173 10.5572 9.97745 10.3116 9.90941 10.017C9.83381 9.69589 9.83759 9.3748 9.88295 9.04993C9.89429 8.95927 9.92831 8.86862 9.88295 8.75907C9.74309 8.75907 9.60701 8.76285 9.47093 8.75907C9.32351 8.75151 9.17232 8.76662 9.0249 8.64574C9.10428 8.61552 9.16854 8.58152 9.2328 8.57019C9.42936 8.52864 9.62969 8.50219 9.82625 8.46064C9.96233 8.43042 10.0871 8.36998 10.1891 8.27176C10.3403 8.12821 10.3403 7.94689 10.1891 7.80713C10.0795 7.70513 9.94343 7.64091 9.79223 7.62202C9.67505 7.60691 9.56166 7.5918 9.44448 7.58803C8.7225 7.57669 8.00052 7.56536 7.28233 7.56536C7.08199 7.56536 6.88165 7.59936 6.68509 7.63336C6.57169 7.65602 6.46207 7.70513 6.36379 7.7618C6.25417 7.82601 6.22771 7.94311 6.26929 8.064C6.32221 8.2151 6.42805 8.31331 6.57547 8.35864C6.70777 8.4002 6.84385 8.41531 6.97993 8.44175C7.18783 8.4833 7.39572 8.52108 7.60362 8.56641C7.6452 8.57396 7.67922 8.61552 7.72836 8.64952C7.45998 8.82328 7.18405 8.82706 6.87409 8.82329ZM8.55996 7.22538C8.6469 7.24805 8.71872 7.26316 8.78298 7.18005C8.84724 7.09695 8.91906 7.01762 8.99466 6.94962C9.0249 6.92318 9.07403 6.87407 9.12695 6.92696C9.11183 7.04028 8.9871 7.10828 8.98332 7.24049C9.13452 7.2556 9.26681 7.27072 9.39533 7.23672C9.41045 7.21028 9.42557 7.19138 9.42935 7.17249C9.44069 6.82874 9.45959 6.48498 9.45581 6.14123C9.45581 5.96368 9.39156 5.85414 9.26682 5.68415C9.1761 5.78992 9.09294 5.89569 9.006 5.99768C8.91906 6.10345 8.83212 6.20922 8.7414 6.31122C8.65068 6.41321 8.56374 6.51898 8.46924 6.62098C8.37852 6.72297 8.28024 6.81741 8.18952 6.9194C8.10258 7.01762 7.97784 7.08561 7.89468 7.22916C8.03832 7.22916 8.15172 7.22916 8.26512 7.22916C8.3445 7.14606 8.4201 7.05917 8.50326 6.97607C8.57508 6.90052 8.65068 6.82496 8.73006 6.75697C8.80944 6.6852 8.86992 6.5832 8.99466 6.55298C8.99088 6.59453 8.99844 6.6172 8.9871 6.63231C8.85102 6.82496 8.71115 7.01762 8.55996 7.22538ZM7.25209 7.21783C7.44487 7.24049 7.56582 7.2556 7.683 7.13472C8.12904 6.66253 8.58264 6.20167 9.03624 5.73325C9.07026 5.69925 9.12317 5.66904 9.10427 5.60482C8.77542 5.55571 8.77164 5.55571 8.5902 5.77103C8.18196 6.25833 7.76994 6.74564 7.25209 7.21783ZM6.85141 7.20272C6.92323 7.27449 6.97615 7.24049 7.02151 7.19138C7.11223 7.08939 7.19539 6.97984 7.28989 6.88163C7.66789 6.48876 8.04966 6.0959 8.43144 5.70303C8.45034 5.68414 8.46168 5.65392 8.48058 5.62748C8.25378 5.55193 8.25 5.54815 8.13282 5.69926C7.75482 6.19034 7.35793 6.66631 6.91189 7.10073C6.88543 7.13095 6.87031 7.1725 6.85141 7.20272ZM8.03832 5.57837C7.89846 5.52926 7.81152 5.56327 7.73592 5.65393C7.45243 6.00146 7.16515 6.34521 6.88165 6.68897C6.86275 6.71164 6.87787 6.76452 6.87787 6.8023C6.90433 6.79096 6.93457 6.78341 6.95347 6.76453C7.29744 6.40188 7.64142 6.03546 7.98162 5.66903C8.0043 5.65015 8.01564 5.61992 8.03832 5.57837ZM6.86653 6.34899C6.88165 6.36033 6.89677 6.37544 6.91189 6.38677C6.97237 6.31878 7.03663 6.25078 7.09711 6.179C7.15381 6.11479 7.20673 6.05435 7.25965 5.99013C7.32391 5.92213 7.38817 5.85414 7.44865 5.78236C7.50157 5.71814 7.58851 5.67281 7.60741 5.57082C7.41463 5.57838 7.4184 5.57837 7.35036 5.67281C7.22185 5.85035 7.09333 6.02412 6.96481 6.20167C6.93457 6.247 6.90055 6.29989 6.86653 6.34899ZM6.92323 5.98257C7.11223 5.79747 7.11223 5.79747 7.15759 5.64637C6.95725 5.74836 6.95725 5.74836 6.92323 5.98257Z" fill="#020304"/>
<path d="M9.67505 7.24805C9.78467 7.27449 9.86405 7.29338 9.94721 7.31604C10.1438 7.37271 10.3139 7.4747 10.4575 7.61825C10.7108 7.8789 10.6654 8.27554 10.4235 8.48708C10.3365 8.56263 10.2383 8.62308 10.1249 8.70618C10.0871 9.09905 10.106 9.50324 10.1967 9.89988C10.2194 10.0019 10.2572 10.1039 10.3139 10.1908C10.5142 10.5232 10.7372 10.8329 11.0888 11.0407C11.6709 11.392 12.1698 11.8453 12.6159 12.3553C12.9258 12.7104 13.13 13.1146 13.2358 13.5754C13.4475 14.5085 13.4248 15.4378 13.2131 16.3708C13.0392 17.1301 12.7898 17.8592 12.4533 18.558C12.0716 19.3513 11.6973 20.1484 11.2437 20.9039C10.9451 21.3987 10.6314 21.8822 10.3139 22.362C10.0757 22.7209 9.78467 23.042 9.46338 23.3328C9.27438 23.5028 9.06648 23.6464 8.82834 23.7446C8.40876 23.9221 8.0043 23.9108 7.61118 23.6766C7.10845 23.3782 6.63595 23.0344 6.27685 22.5773C5.759 21.9162 5.25626 21.2401 4.76864 20.5601C4.41332 20.0652 4.14116 19.5213 3.91814 18.9509C3.77073 18.5693 3.61575 18.1916 3.46833 17.8138C3.15837 17.0206 2.96937 16.197 2.85219 15.3547C2.81817 15.1053 2.77659 14.8598 2.75769 14.6067C2.73879 14.3158 2.72746 14.0212 2.73502 13.7303C2.74635 13.345 2.87487 12.9899 3.12435 12.6877C3.65355 12.038 4.25078 11.4676 5.0408 11.1238C5.28272 11.018 5.51329 10.8896 5.75521 10.7838C6.13699 10.6138 6.33733 10.3116 6.42427 9.92255C6.43939 9.8621 6.45073 9.80167 6.45829 9.73745C6.49231 9.40503 6.49231 9.0726 6.48853 8.7364C6.40537 8.69107 6.33355 8.65329 6.26173 8.60796C6.11432 8.51352 6.00847 8.38509 5.94421 8.22643C5.82325 7.93178 5.91775 7.6258 6.19369 7.46337C6.33733 7.38026 6.49987 7.32737 6.67375 7.2556C6.66619 7.16494 6.65863 7.06295 6.65485 6.96095C6.63973 6.7003 6.62461 6.43966 6.60949 6.179C6.60571 6.13745 6.60949 6.0959 6.61327 6.05435C6.64729 5.57837 6.85897 5.3555 7.33525 5.29506C7.57717 5.26484 7.81908 5.26106 8.06478 5.27995C8.35962 5.30261 8.65824 5.29506 8.95308 5.30261C9.03624 5.30261 9.12318 5.30261 9.20634 5.30261C9.36887 5.30639 9.48983 5.38572 9.57299 5.51793C9.67127 5.67281 9.72419 5.8428 9.72419 6.02412C9.72041 6.35655 9.70907 6.69275 9.70151 7.02517C9.69773 7.09317 9.68639 7.15361 9.67505 7.24805ZM6.87409 8.82329C6.87409 8.93661 6.87409 9.01594 6.87409 9.09904C6.87031 9.31814 6.88165 9.53724 6.85897 9.75634C6.79093 10.4023 6.51877 10.9123 5.88374 11.188C5.67962 11.2749 5.49062 11.3958 5.2865 11.4827C4.5872 11.7773 4.03911 12.2646 3.53637 12.8124C3.26043 13.1146 3.12057 13.4621 3.11301 13.8663C3.11301 13.9796 3.10923 14.0967 3.12057 14.2101C3.23775 15.2942 3.45321 16.3557 3.83498 17.3832C4.058 17.98 4.3037 18.5693 4.55318 19.1586C4.66658 19.4268 4.81022 19.6875 4.95386 19.9406C5.41124 20.7452 5.97446 21.4781 6.51499 22.226C6.84763 22.6831 7.29366 23.0193 7.76994 23.3177C8.08746 23.5179 8.41254 23.5217 8.73384 23.3479C8.90772 23.2535 9.07026 23.1288 9.21767 22.9966C9.56543 22.6869 9.84515 22.3204 10.106 21.9351C10.8355 20.8548 11.4554 19.7139 12.0224 18.5467C12.3929 17.7912 12.6764 17.013 12.8578 16.1895C13.009 15.4982 13.0581 14.8107 12.9674 14.1043C12.8843 13.4659 12.6764 12.8879 12.219 12.412C12.0375 12.2231 11.8637 12.0229 11.6671 11.8491C11.24 11.4751 10.8015 11.1125 10.3592 10.7536C10.1173 10.5572 9.97745 10.3116 9.90941 10.017C9.83381 9.69589 9.83759 9.3748 9.88295 9.04993C9.89429 8.95927 9.92831 8.86862 9.88295 8.75907C9.74309 8.75907 9.60701 8.76285 9.47093 8.75907C9.32351 8.75151 9.17232 8.76662 9.0249 8.64574C9.10428 8.61552 9.16854 8.58152 9.2328 8.57019C9.42936 8.52864 9.62969 8.50219 9.82625 8.46064C9.96233 8.43042 10.0871 8.36998 10.1891 8.27176C10.3403 8.12821 10.3403 7.94689 10.1891 7.80713C10.0795 7.70513 9.94343 7.64091 9.79223 7.62202C9.67505 7.60691 9.56166 7.5918 9.44448 7.58803C8.7225 7.57669 8.00052 7.56536 7.28233 7.56536C7.08199 7.56536 6.88165 7.59936 6.68509 7.63336C6.57169 7.65602 6.46207 7.70513 6.36379 7.7618C6.25417 7.82601 6.22771 7.94311 6.26929 8.064C6.32221 8.2151 6.42805 8.31331 6.57547 8.35864C6.70777 8.4002 6.84385 8.41531 6.97993 8.44175C7.18783 8.4833 7.39572 8.52108 7.60362 8.56641C7.6452 8.57396 7.67922 8.61552 7.72836 8.64952C7.45998 8.82328 7.18405 8.82706 6.87409 8.82329ZM8.55996 7.22538C8.6469 7.24805 8.71872 7.26316 8.78298 7.18005C8.84724 7.09695 8.91906 7.01762 8.99466 6.94962C9.0249 6.92318 9.07403 6.87407 9.12695 6.92696C9.11183 7.04028 8.9871 7.10828 8.98332 7.24049C9.13452 7.2556 9.26681 7.27072 9.39533 7.23672C9.41045 7.21028 9.42557 7.19138 9.42935 7.17249C9.44069 6.82874 9.45959 6.48498 9.45581 6.14123C9.45581 5.96368 9.39156 5.85414 9.26682 5.68415C9.1761 5.78992 9.09294 5.89569 9.006 5.99768C8.91906 6.10345 8.83212 6.20922 8.7414 6.31122C8.65068 6.41321 8.56374 6.51898 8.46924 6.62098C8.37852 6.72297 8.28024 6.81741 8.18952 6.9194C8.10258 7.01762 7.97784 7.08561 7.89468 7.22916C8.03832 7.22916 8.15172 7.22916 8.26512 7.22916C8.3445 7.14606 8.4201 7.05917 8.50326 6.97607C8.57508 6.90052 8.65068 6.82496 8.73006 6.75697C8.80944 6.6852 8.86992 6.5832 8.99466 6.55298C8.99088 6.59453 8.99844 6.6172 8.9871 6.63231C8.85102 6.82496 8.71115 7.01762 8.55996 7.22538ZM7.25209 7.21783C7.44487 7.24049 7.56582 7.2556 7.683 7.13472C8.12904 6.66253 8.58264 6.20167 9.03624 5.73325C9.07026 5.69925 9.12317 5.66904 9.10427 5.60482C8.77542 5.55571 8.77164 5.55571 8.5902 5.77103C8.18196 6.25833 7.76994 6.74564 7.25209 7.21783ZM6.85141 7.20272C6.92323 7.27449 6.97615 7.24049 7.02151 7.19138C7.11223 7.08939 7.19539 6.97984 7.28989 6.88163C7.66789 6.48876 8.04966 6.0959 8.43144 5.70303C8.45034 5.68414 8.46168 5.65392 8.48058 5.62748C8.25378 5.55193 8.25 5.54815 8.13282 5.69926C7.75482 6.19034 7.35793 6.66631 6.91189 7.10073C6.88543 7.13095 6.87031 7.1725 6.85141 7.20272ZM8.03832 5.57837C7.89846 5.52926 7.81152 5.56327 7.73592 5.65393C7.45243 6.00146 7.16515 6.34521 6.88165 6.68897C6.86275 6.71164 6.87787 6.76452 6.87787 6.8023C6.90433 6.79096 6.93457 6.78341 6.95347 6.76453C7.29744 6.40188 7.64142 6.03546 7.98162 5.66903C8.0043 5.65015 8.01564 5.61992 8.03832 5.57837ZM6.86653 6.34899C6.88165 6.36033 6.89677 6.37544 6.91189 6.38677C6.97237 6.31878 7.03663 6.25078 7.09711 6.179C7.15381 6.11479 7.20673 6.05435 7.25965 5.99013C7.32391 5.92213 7.38817 5.85414 7.44865 5.78236C7.50157 5.71814 7.58851 5.67281 7.60741 5.57082C7.41463 5.57838 7.4184 5.57837 7.35036 5.67281C7.22185 5.85035 7.09333 6.02412 6.96481 6.20167C6.93457 6.247 6.90055 6.29989 6.86653 6.34899ZM6.92323 5.98257C7.11223 5.79747 7.11223 5.79747 7.15759 5.64637C6.95725 5.74836 6.95725 5.74836 6.92323 5.98257Z" stroke="black" stroke-width="0.2" mask="url(#path-1-outside-1_2_5573)"/>
<path d="M8.18832 0.943216L8.20003 0.987109C8.20367 1.00073 8.20781 1.01497 8.2121 1.02968C8.22397 1.07047 8.2369 1.11487 8.24287 1.1596L8.24312 1.16153L8.24308 1.16153C8.32637 2.04685 8.3718 2.93212 8.38316 3.81732M8.18832 0.943216L8.38316 3.81741C8.38316 3.81738 8.38316 3.81735 8.38316 3.81732M8.18832 0.943216L8.14351 0.950679M8.18832 0.943216L8.14351 0.950679M8.38316 3.81732C8.38531 3.94877 8.38251 4.08168 8.37973 4.21365M8.38316 3.81732L8.37973 4.21365M8.14351 0.950679C8.12627 0.953551 8.10914 0.953551 8.0919 0.950679L8.03819 0.941733L8.03384 0.99601C8.0313 1.02774 8.02823 1.0599 8.02515 1.09222C8.01937 1.15279 8.01354 1.21391 8.01105 1.27368L8.01104 1.27368L8.01102 1.2746L8.0105 1.29663C8.00312 1.61394 7.9958 1.92815 7.99211 2.24601L7.9921 2.24609L7.98076 3.38691L7.96943 4.52728L8.01942 4.52822L7.96943 4.52773L7.96943 4.5275C7.96754 4.62757 7.96914 4.68957 7.98673 4.75509C8.00343 4.81733 8.03428 4.88118 8.08419 4.98448L8.0878 4.99195L8.11564 5.04958L8.16482 5.00862C8.17057 5.00384 8.17617 5.0003 8.18421 4.99523C8.18789 4.99291 8.19208 4.99026 8.19703 4.98703C8.21005 4.97852 8.22888 4.9654 8.24245 4.94506L8.24246 4.94506M8.14351 0.950679L8.24246 4.94506M8.24246 4.94506L8.24304 4.94417M8.24246 4.94506L8.24304 4.94417M8.24304 4.94417C8.32685 4.81254 8.3756 4.66736 8.3756 4.50556C8.3756 4.40944 8.37766 4.31181 8.37973 4.21365M8.24304 4.94417L8.37973 4.21365" fill="#020304" stroke="black" stroke-width="0.1"/>
<path d="M13.826 10.8711L13.924 10.8851L13.877 10.7979C13.8689 10.7827 13.8635 10.7705 13.858 10.758C13.855 10.7513 13.852 10.7444 13.8485 10.737C13.8411 10.7215 13.8282 10.695 13.8018 10.6803C13.7212 10.6279 13.6409 10.5742 13.5605 10.5203C13.3426 10.3742 13.1232 10.2272 12.8926 10.1051C12.5012 9.89618 12.0912 9.71792 11.6827 9.54783C11.5246 9.48054 11.3565 9.43514 11.1937 9.39114C11.1426 9.37734 11.0921 9.36369 11.0425 9.34953C11.015 9.34115 10.9712 9.333 10.9326 9.35501C10.8889 9.37998 10.8741 9.42951 10.8763 9.48629L10.8773 9.5126L10.8995 9.52665C10.9716 9.57212 11.0517 9.62168 11.132 9.66756L11.1321 9.66761C11.1978 9.70496 11.2637 9.74104 11.3291 9.7769C11.4584 9.84775 11.5861 9.91773 11.7083 9.99496C12.3029 10.3758 12.9535 10.6342 13.6207 10.8426C13.6533 10.8541 13.6878 10.8582 13.7205 10.861C13.7297 10.8618 13.7388 10.8625 13.7479 10.8633C13.773 10.8652 13.7982 10.8671 13.826 10.8711ZM11.1568 9.62414C11.0774 9.57881 10.998 9.5297 10.9262 9.48437L11.1568 9.62414Z" fill="#020304" stroke="black" stroke-width="0.1"/>
<path d="M3.99753 3.90116L4.02436 3.85897C4.02197 3.85744 4.01911 3.85558 4.01598 3.85353C4.00842 3.8486 3.99923 3.8426 3.99092 3.83774C3.97841 3.83043 3.96241 3.82226 3.94418 3.818C3.92504 3.81352 3.90307 3.81328 3.8805 3.82237C3.8585 3.83123 3.84038 3.84719 3.82524 3.86736L3.80601 3.89298L3.82125 3.92116C3.9742 4.20394 4.18974 4.50116 4.43136 4.69203C4.92305 5.08513 5.42225 5.47062 5.92105 5.85582L5.92122 5.85594C5.92371 5.85786 5.92621 5.85981 5.92874 5.86176C5.96755 5.8918 6.0112 5.92559 6.06646 5.95246C6.12631 5.98158 6.19828 6.00203 6.29363 6.00609L6.38204 6.00985L6.33964 5.93218C6.32477 5.90492 6.31334 5.88164 6.30255 5.85965C6.29715 5.84863 6.2919 5.83794 6.28646 5.82724C6.27091 5.79664 6.25428 5.76711 6.23068 5.74117L6.23069 5.74116L6.23 5.74043C6.20833 5.71755 6.18664 5.69461 6.16491 5.67162C5.98628 5.48262 5.80504 5.29088 5.61168 5.11119C5.11891 4.64906 4.60224 4.21991 4.02402 3.85875L3.99753 3.90116ZM3.99753 3.90116C4.57208 4.26002 5.08616 4.68688 5.57756 5.14774L6.23645 5.95101C6.1027 5.9331 6.02972 5.87665 5.95864 5.82167C5.95635 5.8199 5.95406 5.81813 5.95178 5.81637C5.45282 5.43106 4.95386 5.04575 4.46246 4.65288C4.22811 4.46778 4.01643 4.17691 3.86523 3.89737C3.90683 3.84194 3.94844 3.86913 3.98713 3.89442C3.99062 3.8967 3.99409 3.89897 3.99753 3.90116Z" fill="#020304" stroke="black" stroke-width="0.1"/>
<path d="M2.42396 11.1134L2.46433 11.0394C2.46934 11.0302 2.47385 11.021 2.47836 11.0116C2.4792 11.0099 2.48006 11.0081 2.48094 11.0062C2.48453 10.9987 2.48834 10.9907 2.49211 10.9834C2.50076 10.9666 2.51406 10.9429 2.53686 10.9275M2.42396 11.1134L5.22602 9.94144L5.25029 9.98516C5.25036 9.98512 5.25044 9.98508 5.25051 9.98504C5.27753 9.96996 5.29708 9.94611 5.31421 9.92329C5.32104 9.91419 5.32761 9.90507 5.33451 9.8955C5.34695 9.87823 5.36049 9.85945 5.37866 9.83644L5.45891 9.73486L5.33121 9.75613C5.2939 9.76234 5.26277 9.76679 5.23469 9.77079C5.22029 9.77285 5.20669 9.77479 5.19347 9.77679C5.15561 9.78254 5.12186 9.78871 5.08926 9.79957L5.08926 9.79956L5.08854 9.79981C5.04377 9.81549 4.99896 9.83117 4.95413 9.84685C4.4806 10.0125 4.00413 10.1793 3.53394 10.3555L3.53378 10.3555C3.16906 10.4937 2.85117 10.7118 2.53903 10.9261L2.53686 10.9275M2.42396 11.1134H2.50822C2.52518 11.1134 2.53831 11.1143 2.55225 11.1153C2.56117 11.116 2.57042 11.1166 2.58122 11.1171C2.605 11.1181 2.63282 11.1176 2.66115 11.1067L2.42396 11.1134ZM2.53686 10.9275C2.53697 10.9275 2.53708 10.9274 2.5372 10.9273L2.56492 10.9689L2.53663 10.9277L2.53686 10.9275ZM4.66523 10.304C4.66528 10.304 4.66533 10.3039 4.66537 10.3039L4.66523 10.304Z" fill="#020304" stroke="black" stroke-width="0.1"/>
<path d="M12.4392 4.32397L12.5107 4.20768L12.381 4.25029C11.6614 4.48676 11.0732 4.92959 10.4941 5.36552C10.3901 5.44383 10.2863 5.52192 10.1822 5.59855L10.1822 5.59856C10.1717 5.60625 10.1619 5.61289 10.1513 5.62012C10.1438 5.62523 10.1358 5.63064 10.1268 5.63692C10.1071 5.65079 10.0858 5.66686 10.0666 5.68635C10.0263 5.72719 9.99693 5.78151 9.9993 5.85943L10.0003 5.89278L10.0315 5.90465C10.1289 5.94173 10.2104 5.89492 10.265 5.8635C10.2695 5.86094 10.2738 5.85848 10.2779 5.85617L10.2779 5.85618L10.2784 5.85588C10.3839 5.79494 10.4895 5.73431 10.595 5.67368C10.9729 5.45664 11.3506 5.2397 11.7236 5.00899C12.0127 4.83176 12.3022 4.54695 12.4392 4.32397ZM10.2534 5.81259C10.2496 5.81473 10.2458 5.8169 10.2419 5.81909C10.1848 5.85154 10.1237 5.88623 10.0493 5.85792C10.0461 5.75214 10.1136 5.7062 10.178 5.66239C10.1895 5.65458 10.2009 5.64683 10.2118 5.63882L10.2534 5.81259Z" fill="#020304" stroke="black" stroke-width="0.1"/>
<path d="M8.78601 4.95835L8.78935 5.00912L8.84005 5.0049C8.90185 4.99975 8.94219 4.97008 8.97036 4.93379C8.98366 4.91666 8.99412 4.8983 9.00286 4.88182C9.0067 4.87457 9.00998 4.86817 9.01307 4.86215C9.01771 4.85308 9.02191 4.84489 9.02689 4.83605L9.02702 4.83582C9.21608 4.49573 9.40134 4.15567 9.58649 3.81582L9.58666 3.81551L9.58666 3.81551L9.58693 3.81499C9.5939 3.80185 9.60121 3.78839 9.60867 3.77463C9.63604 3.72423 9.66549 3.67 9.68737 3.61394C9.80935 3.32433 9.90557 3.02488 9.94024 2.68992L9.95185 2.57783L9.86095 2.64444C9.68042 2.77674 9.48705 3.06208 9.32008 3.40717L9.32008 3.40717L9.31996 3.40742C9.10637 3.8551 8.96827 4.16706 8.886 4.40366C8.80355 4.64081 8.77595 4.80562 8.78601 4.95835ZM9.54261 3.79185C9.35744 4.13174 9.17227 4.47163 8.98332 4.81152L9.54275 3.79159L9.54261 3.79185Z" fill="#020304" stroke="black" stroke-width="0.1"/>
<path d="M6.80227 2.96052L6.75254 2.96576C6.75625 3.00093 6.75953 3.03691 6.76285 3.07339C6.77277 3.18207 6.78309 3.29526 6.80626 3.40525L6.80626 3.40525L6.80635 3.40568C6.9169 3.90855 7.10724 4.38776 7.29974 4.85927C7.30793 4.88289 7.32429 4.911 7.35108 4.93013C7.38142 4.95178 7.42158 4.95899 7.46455 4.94059L7.48837 4.93038L7.49377 4.90503C7.54746 4.65263 7.49533 4.26025 7.37994 3.86447C7.26405 3.46698 7.08137 3.05591 6.86509 2.76451L6.79027 2.6637L6.7753 2.78835C6.7705 2.82837 6.76503 2.85753 6.76052 2.88163C6.75992 2.88483 6.75933 2.88794 6.75877 2.89097C6.75425 2.91539 6.74974 2.94053 6.75257 2.96605L6.80227 2.96052ZM6.80227 2.96052C6.80016 2.94155 6.80393 2.9214 6.80966 2.89087C6.81113 2.88301 6.81273 2.87447 6.81439 2.86508M6.80227 2.96052C6.80613 2.99721 6.8095 3.03414 6.81288 3.0712C6.82273 3.17913 6.83267 3.28808 6.85519 3.39494C6.9648 3.89358 7.1538 4.36955 7.34658 4.84174C7.35792 4.87574 7.39194 4.91729 7.44486 4.89462L6.81439 2.86508M6.81439 2.86508C6.8046 2.85116 6.79473 2.8375 6.7848 2.82411L6.82494 2.79431L6.81439 2.86508Z" fill="#020304" stroke="black" stroke-width="0.1"/>
<path d="M10.1378 6.96565L10.1293 6.93153C10.1201 6.89466 10.1196 6.86116 10.1277 6.83063C10.1358 6.80009 10.1515 6.77599 10.1694 6.75661C10.1868 6.73771 10.2069 6.72261 10.2243 6.71022C10.2299 6.70628 10.2351 6.7027 10.2399 6.69932C10.2516 6.6912 10.2615 6.68431 10.271 6.6766L10.2719 6.6759L10.2719 6.67591C10.9165 6.17571 11.5351 5.86937 11.993 5.842L12.0907 5.83615L12.0381 5.91876C12.0296 5.9322 12.0233 5.94488 12.0162 5.95908C12.0137 5.96407 12.0111 5.96924 12.0083 5.9747C11.9988 5.99332 11.9856 6.01723 11.9644 6.03549M10.1378 6.96565L11.9317 5.99768M10.1378 6.96565L10.1728 6.96915C10.1796 6.96983 10.1877 6.97128 10.1981 6.97334C10.1998 6.97369 10.2016 6.97406 10.2036 6.97444C10.212 6.97615 10.2219 6.97813 10.2314 6.97964C10.2521 6.98293 10.2853 6.98682 10.3155 6.97259M10.1378 6.96565L10.295 6.92696M11.9644 6.03549C11.9644 6.03554 11.9643 6.0356 11.9642 6.03565L11.9317 5.99768M11.9644 6.03549L11.9646 6.03535L11.9317 5.99768M11.9644 6.03549L11.9621 6.03752C11.7257 6.24379 11.4831 6.45541 11.1858 6.59439M11.9317 5.99768L11.9317 5.99769C11.6936 6.20545 11.4554 6.41321 11.1644 6.5492C10.9017 6.67522 10.6292 6.78826 10.3591 6.90034C10.3377 6.90922 10.3163 6.91809 10.295 6.92696M11.1858 6.59439C11.1858 6.59436 11.1859 6.59432 11.186 6.59428L11.1644 6.5492L11.1855 6.5945C11.1856 6.59446 11.1857 6.59443 11.1858 6.59439ZM11.1858 6.59439C10.9219 6.72097 10.6483 6.83448 10.3785 6.94643C10.3574 6.95516 10.3364 6.96388 10.3155 6.97259M10.3155 6.97259C10.3161 6.9723 10.3167 6.97199 10.3173 6.97168L10.295 6.92696M10.3155 6.97259C10.315 6.97277 10.3146 6.97295 10.3142 6.97313L10.295 6.92696M11.996 5.89191L11.9989 5.94182C11.9886 5.94243 11.9782 5.9432 11.9678 5.94413C11.9687 5.94224 11.9696 5.94033 11.9706 5.9384C11.978 5.9236 11.9859 5.90775 11.996 5.89191ZM11.996 5.89191L11.9538 5.86505C11.947 5.87577 11.9409 5.88679 11.9355 5.8971C11.956 5.89483 11.9761 5.89309 11.996 5.89191Z" fill="#020304" stroke="black" stroke-width="0.1"/>
<path d="M5.78667 6.96183L5.88755 6.95937L5.82449 6.8806C5.80412 6.85515 5.78909 6.83266 5.77451 6.81084C5.76842 6.80172 5.7624 6.79272 5.75611 6.78366C5.73654 6.75553 5.71343 6.7257 5.67879 6.70644C5.28256 6.45 4.88519 6.19284 4.4763 5.95448L4.4762 5.95441C4.28076 5.84114 4.0611 5.77045 3.8177 5.7626L3.72529 5.75962L3.77339 5.83859C3.94075 6.11336 4.30928 6.37176 5.0231 6.71145L5.02316 6.71148C5.06335 6.73054 5.10387 6.75153 5.14532 6.773C5.32501 6.8661 5.52223 6.96827 5.78667 6.96183Z" fill="#020304" stroke="black" stroke-width="0.1"/>
<path d="M5.74102 3.74976L5.6163 3.66813L5.66657 3.80846C5.77855 4.12105 5.94854 4.3951 6.17232 4.63416L6.17233 4.63417C6.2101 4.67449 6.24635 4.71688 6.28363 4.76048C6.28646 4.76379 6.2893 4.76711 6.29214 4.77043C6.33214 4.81719 6.37342 4.8651 6.41757 4.91092C6.5061 5.0028 6.60792 5.08816 6.74118 5.14466L6.81253 5.17491L6.81068 5.09744L6.81051 5.09052C6.80879 5.01775 6.80775 4.97407 6.80071 4.93946C6.79306 4.90179 6.77837 4.8749 6.75748 4.83664C6.7568 4.83541 6.75613 4.83417 6.75544 4.83291L6.7554 4.83283C6.51306 4.39076 6.17457 4.0335 5.74102 3.74976Z" fill="#020304" stroke="black" stroke-width="0.1"/>
<path d="M10.741 7.68006L10.7622 7.62334C10.765 7.61597 10.7664 7.60948 10.7684 7.60047C10.7696 7.59524 10.7709 7.58916 10.7728 7.58156C10.7764 7.56714 10.7841 7.53795 10.8081 7.51875L10.8109 7.51647L10.811 7.51658C11.0681 7.34018 11.3501 7.20085 11.6605 7.13492L10.741 7.68006ZM10.741 7.68006L10.8007 7.6902M10.741 7.68006L10.8007 7.6902M10.8007 7.6902C11.0023 7.72446 11.2946 7.67104 11.569 7.57377C11.8439 7.4763 12.1132 7.3304 12.2665 7.16918L12.3272 7.10539M10.8007 7.6902L12.3272 7.10539M12.3272 7.10539L12.2414 7.08595M12.3272 7.10539L12.2414 7.08595M12.2414 7.08595C12.0581 7.04448 11.8883 7.08326 11.7356 7.11815M12.2414 7.08595L11.7356 7.11815M11.7356 7.11815C11.7101 7.12398 11.685 7.1297 11.6605 7.13492L11.7356 7.11815Z" fill="#020304" stroke="black" stroke-width="0.1"/>
<path d="M4.04183 7.40279L3.98195 7.41326L4.00378 7.47C4.00789 7.48068 4.01104 7.49049 4.01391 7.49988C4.01447 7.50173 4.01506 7.50367 4.01566 7.50566C4.01786 7.51296 4.02027 7.52095 4.0227 7.5278C4.02831 7.5436 4.03977 7.57122 4.07031 7.58413C4.28047 7.70596 4.51241 7.8065 4.76168 7.84153L4.76168 7.84153L4.76218 7.8416C4.89643 7.8591 5.03624 7.8569 5.17278 7.85476C5.21744 7.85405 5.26175 7.85336 5.3054 7.85336C5.32303 7.85336 5.33804 7.84623 5.34691 7.84121C5.35713 7.83543 5.36682 7.82802 5.37521 7.82027C5.38364 7.8125 5.39191 7.80333 5.39873 7.79338C5.40508 7.78411 5.41255 7.77075 5.41519 7.75491C5.42 7.72607 5.4078 7.69984 5.40036 7.68546C5.39546 7.67599 5.38776 7.6633 5.38189 7.65361C5.37911 7.64903 5.37673 7.64512 5.37526 7.64255L5.37685 7.64164L5.3672 7.632C5.36684 7.63164 5.36646 7.63126 5.36606 7.63085C5.35901 7.62375 5.34452 7.60916 5.3224 7.60145C4.92459 7.45003 4.50937 7.32102 4.04183 7.40279Z" fill="#020304" stroke="black" stroke-width="0.1"/>
<path d="M9.53738 5.0394C9.52732 5.05649 9.52665 5.07402 9.52792 5.08644C9.52919 5.09876 9.53279 5.11019 9.5358 5.11866C9.53792 5.12464 9.54061 5.1314 9.54285 5.13703C9.54369 5.13914 9.54446 5.1411 9.54513 5.1428C9.54799 5.15015 9.54986 5.15551 9.55095 5.15986L9.56528 5.21718L9.61944 5.19356C10.0494 5.00607 10.4892 4.52237 10.6748 3.99712L10.7239 3.85788L10.6003 3.9386C10.1255 4.2485 9.78727 4.60537 9.53738 5.0394ZM9.53738 5.0394C9.53748 5.03923 9.53759 5.03906 9.53769 5.03889L9.58056 5.06463M9.53738 5.0394C9.53733 5.0395 9.53728 5.03959 9.53722 5.03968L9.58056 5.06463M9.58056 5.06463C9.81362 4.65972 10.1249 4.32278 10.5564 4.02804C10.5648 4.00672 10.5729 3.98531 10.5805 3.96382L10.6276 3.98047L10.6549 4.02234C10.6354 4.03508 10.6161 4.04791 10.5971 4.06081C10.4087 4.52415 10.0248 4.94219 9.64542 5.12653C9.64633 5.12949 9.64719 5.13252 9.64796 5.13559L9.59945 5.14773L9.57947 5.1019C9.58046 5.10146 9.58145 5.10103 9.58245 5.10059C9.57756 5.08649 9.57506 5.07378 9.58056 5.06463Z" fill="#020304" stroke="black" stroke-width="0.1"/>
<path d="M10.9651 8.33551L10.8927 8.34498L10.9277 8.40905C10.9604 8.4689 10.9824 8.5088 11.0142 8.53745C11.044 8.56436 11.081 8.57978 11.1307 8.60056C11.134 8.60192 11.1373 8.60331 11.1407 8.60472C11.3013 8.67703 11.5186 8.73171 11.7248 8.76088C11.93 8.78991 12.1327 8.7949 12.2615 8.7622L12.3762 8.7331L12.2754 8.67115C12.0979 8.56195 11.8528 8.46779 11.6129 8.40608C11.374 8.3446 11.1333 8.31351 10.9651 8.33551Z" fill="#020304" stroke="black" stroke-width="0.1"/>
<path d="M4.19116 8.98985L4.11056 9.02896L4.18615 9.07703C4.19898 9.08519 4.20864 9.09296 4.21941 9.10162C4.22394 9.10526 4.22866 9.10906 4.23389 9.11311C4.24903 9.12482 4.2716 9.14119 4.30128 9.1449L4.30127 9.14499L4.30433 9.14518C4.66886 9.16819 5.02991 9.13012 5.36912 8.96257L5.36932 8.96246C5.39395 8.95016 5.41279 8.93007 5.42822 8.91278C5.43261 8.90786 5.43693 8.90292 5.44133 8.89788C5.45394 8.88345 5.46716 8.86832 5.48438 8.85111L5.56323 8.77231L5.45195 8.76583C4.99193 8.73901 4.58988 8.79642 4.19116 8.98985ZM5.40498 8.86348C5.40428 8.86428 5.40359 8.86507 5.40291 8.86585C5.38172 8.89012 5.36581 8.90832 5.34698 8.91774C5.01812 9.08017 4.66658 9.11795 4.30748 9.09528L5.40498 8.86348Z" fill="#020304" stroke="black" stroke-width="0.1"/>
<path d="M15.0853 11.6913L15.185 11.6967L15.1296 11.6136C14.9971 11.415 14.8555 11.2848 14.686 11.1863L14.686 11.1863L14.6842 11.1854C14.6826 11.1845 14.6809 11.1836 14.6791 11.1827C14.6496 11.167 14.6112 11.1466 14.5693 11.1393C14.5209 11.1308 14.4699 11.1396 14.4189 11.1785L14.3999 11.1929L14.3992 11.2167C14.3968 11.2927 14.4262 11.3494 14.4668 11.3933C14.5008 11.4303 14.5444 11.4597 14.5812 11.4845C14.5858 11.4876 14.5902 11.4906 14.5946 11.4935C14.724 11.5848 14.8624 11.6791 15.0853 11.6913Z" fill="#020304" stroke="black" stroke-width="0.1"/>
<path d="M13.3286 5.31763L13.39 5.23634L13.2881 5.23751C13.1217 5.23942 12.9964 5.25832 12.9014 5.30902C12.8034 5.36128 12.7439 5.44373 12.7014 5.55703L12.6756 5.6257L12.7489 5.62459C12.878 5.62264 12.9813 5.60402 13.0745 5.55455C13.1673 5.50528 13.2453 5.42797 13.3286 5.31763Z" fill="#020304" stroke="black" stroke-width="0.1"/>
<path d="M2.85688 7.21901L2.75215 7.25008L2.84411 7.30904C3.05012 7.44111 3.24228 7.50528 3.45777 7.45145L3.45788 7.45189L3.46421 7.44936C3.47852 7.44364 3.48894 7.4343 3.49601 7.42667C3.50322 7.4189 3.50945 7.41016 3.51465 7.40236C3.52013 7.39414 3.5243 7.38744 3.52837 7.38092C3.53384 7.37215 3.5391 7.36369 3.54708 7.3523L3.57823 7.30784L3.53136 7.28045C3.3168 7.15503 3.10925 7.14413 2.85688 7.21901Z" fill="#020304" stroke="black" stroke-width="0.1"/>
<path d="M10.462 1.65685L10.4539 1.56203L10.3804 1.62244C10.2046 1.76692 10.0916 1.92183 10.075 2.13698L10.0749 2.13697V2.14082C10.0749 2.17212 10.0941 2.19659 10.106 2.20956C10.1199 2.22474 10.1366 2.23765 10.1501 2.24665L10.1769 2.20635L10.1501 2.24665C10.1655 2.25695 10.1819 2.25778 10.1912 2.25742C10.2015 2.25702 10.2113 2.25479 10.2194 2.25222C10.2344 2.24746 10.2528 2.23851 10.2661 2.2253L10.2661 2.22539L10.2685 2.22273C10.4 2.0713 10.4823 1.89597 10.462 1.65685Z" fill="#020304" stroke="black" stroke-width="0.1"/>
<path d="M0.953584 11.755L0.924518 11.8276L1.00263 11.8235C1.14599 11.8159 1.24393 11.8045 1.32892 11.7645C1.4145 11.7241 1.48183 11.6572 1.57098 11.553L1.62738 11.487L1.54203 11.4713C1.47154 11.4583 1.42103 11.4496 1.37784 11.4502C1.33118 11.4508 1.29466 11.4619 1.25068 11.4829L1.25067 11.4829L1.24981 11.4833C1.13708 11.5396 1.01427 11.6034 0.953584 11.755Z" fill="#020304" stroke="black" stroke-width="0.1"/>
<path d="M3.03742 5.32528L3.05322 5.27784C3.04471 5.275 3.03547 5.27164 3.02558 5.26803C2.95527 5.24239 2.85226 5.20483 2.74534 5.26236L2.68146 5.29674L2.73632 5.34421C2.86113 5.45218 2.93814 5.51667 3.01937 5.55198C3.10262 5.58818 3.18709 5.5925 3.32021 5.59437L3.39775 5.59546L3.36674 5.52438C3.2929 5.35508 3.15908 5.31184 3.05271 5.27767L3.03742 5.32528ZM3.03742 5.32528C3.12999 5.35501 3.22835 5.38764 3.29455 5.49393C3.30325 5.4941 3.31227 5.49425 3.32162 5.49438L3.32091 5.54437L3.27508 5.56437C3.27188 5.55702 3.26855 5.55 3.26509 5.54327C3.06036 5.53762 3.0096 5.51267 2.81051 5.34213C2.80464 5.34445 2.79871 5.3472 2.79273 5.35042L2.76904 5.30639L2.80175 5.26858C2.80884 5.27472 2.81574 5.28067 2.82245 5.28646C2.88807 5.27219 2.94978 5.29423 3.00635 5.31443C3.01688 5.31819 3.02724 5.32189 3.03742 5.32528Z" fill="#020304" stroke="black" stroke-width="0.1"/>
<path d="M13.0009 4.04035L12.9587 4.10614L13.0361 4.11688C13.1669 4.13503 13.2598 4.08142 13.3321 4.03974C13.3463 4.03158 13.3596 4.02387 13.3723 4.01725L13.3723 4.01727L13.3734 4.01669C13.4432 3.97811 13.4866 3.95373 13.5203 3.91891C13.5515 3.88659 13.5733 3.84634 13.6057 3.78621C13.6079 3.78217 13.6101 3.77805 13.6124 3.77383L13.6711 3.66533L13.5534 3.70235C13.5433 3.70553 13.5332 3.7087 13.523 3.71187C13.3317 3.77159 13.1338 3.83336 13.0009 4.04035Z" fill="#020304" stroke="black" stroke-width="0.1"/>
<path d="M6.46208 2.28436L6.41784 2.30766C6.41948 2.31077 6.42116 2.314 6.42289 2.31732C6.43945 2.34913 6.46043 2.3894 6.49254 2.42042C6.53136 2.45793 6.58354 2.48015 6.65641 2.47788L6.69916 2.47654L6.70447 2.43411C6.7168 2.33555 6.70477 2.24695 6.66561 2.16814C6.6266 2.08962 6.56265 2.02484 6.47776 1.97031L6.43416 1.9423L6.40773 1.98687C6.37217 2.04684 6.36111 2.1048 6.36699 2.16069C6.37273 2.21514 6.39424 2.26444 6.41819 2.30831L6.46208 2.28436ZM6.46208 2.28436C6.42361 2.21388 6.39873 2.14068 6.42896 2.05785C6.42722 2.05671 6.42547 2.05557 6.42371 2.05444L6.45074 2.01237L6.49375 2.03788C6.49312 2.03893 6.4925 2.03999 6.4919 2.04104C6.62115 2.13889 6.67547 2.26311 6.65485 2.4279C6.53908 2.43152 6.50296 2.36247 6.46693 2.29361C6.46531 2.29052 6.4637 2.28744 6.46208 2.28436Z" fill="#020304" stroke="black" stroke-width="0.1"/>
<mask id="path-25-outside-2_2_5573" maskUnits="userSpaceOnUse" x="3.33672" y="10.8446" width="9" height="11" fill="black">
<rect fill="white" x="3.33672" y="10.8446" width="9" height="11"/>
<path d="M6.22771 11.8453C6.17101 11.902 6.13322 11.9473 6.08408 11.9813C5.57756 12.3251 5.24492 12.7973 5.02946 13.3601C4.85936 13.8134 4.76865 14.2818 4.67793 14.7691C4.72707 14.7654 4.76108 14.7729 4.77998 14.7616C5.2298 14.448 5.71742 14.4632 6.20882 14.6331C6.42806 14.7087 6.63217 14.822 6.84007 14.9316C7.19539 15.1167 7.56961 15.1393 7.95139 15.0562C8.24623 14.992 8.52216 14.8825 8.75652 14.6974C8.99844 14.5085 9.22901 14.3083 9.45203 14.1043C9.62969 13.9419 9.79223 13.7605 9.96989 13.5981C10.0871 13.4923 10.2118 13.3941 10.3479 13.3148C10.6503 13.1448 10.9602 13.1637 11.2513 13.3412C11.5121 13.4999 11.7087 13.7228 11.7616 14.0287C11.8032 14.2629 11.8372 14.5047 11.841 14.7427C11.8561 15.3433 11.7503 15.9288 11.5424 16.4955C11.2589 17.2623 10.9565 18.0178 10.6314 18.7658C10.4008 19.2946 10.0984 19.7895 9.76199 20.2579C9.5352 20.5752 9.25926 20.851 8.94552 21.089C8.48436 21.4403 7.99297 21.4592 7.48267 21.2212C7.27099 21.123 7.08955 20.9794 6.91945 20.817C6.55279 20.4657 6.23149 20.0766 5.95555 19.6535C5.65694 19.1964 5.3621 18.7356 5.08616 18.2671C4.68927 17.591 4.44357 16.8619 4.35285 16.0837C4.31883 15.7777 4.33394 15.4793 4.44356 15.1884C4.48136 15.0978 4.49271 15.0109 4.46625 14.9127C4.34529 14.4367 4.40955 13.9796 4.59477 13.5339C4.70061 13.2846 4.80645 13.0315 4.93875 12.7935C5.1353 12.4384 5.42258 12.1589 5.77412 11.9511C5.96312 11.8491 5.99336 11.8415 6.22771 11.8453ZM5.76656 14.9316C6.16723 15.2187 6.49987 15.5662 6.85897 15.8911C6.90433 15.9326 6.95347 15.9742 7.00639 16.0119C7.16515 16.1366 7.33903 16.2424 7.53559 16.2953C7.75861 16.3557 7.98541 16.4161 8.21599 16.4539C8.63556 16.5181 9.01734 16.4199 9.35376 16.163C9.38778 16.1366 9.4218 16.1102 9.45582 16.0875C10.1211 15.5889 10.5331 14.9165 10.8053 14.1534C10.862 13.9985 10.9073 13.8361 10.9035 13.6699C10.7561 13.6019 10.7599 13.6019 10.6994 13.6132C10.5369 13.6472 10.4084 13.7379 10.2912 13.8474C10.0908 14.0363 9.89808 14.2289 9.7053 14.4216C9.44448 14.6822 9.16853 14.9316 8.84346 15.1129C8.09502 15.5322 7.32769 15.6304 6.54901 15.1884C6.45829 15.1356 6.3638 15.0864 6.26552 15.0449C6.10298 14.9769 5.94799 14.9127 5.76656 14.9316ZM6.85141 19.8386C6.84763 19.8008 6.85141 19.7706 6.83629 19.7479C6.72667 19.5704 6.62461 19.3853 6.49609 19.2191C5.98202 18.5467 5.59268 17.8101 5.32808 17.0092C5.30162 16.9337 5.27516 16.8581 5.23358 16.7372C5.18822 17.1037 5.36588 17.6854 5.70986 18.3691C6.0992 19.1322 6.4772 19.6271 6.85141 19.8386ZM8.37852 19.476C8.47302 19.6044 8.43522 19.8046 8.58264 19.9595C8.64312 19.8084 8.63178 19.6762 8.6091 19.5477C8.5902 19.442 8.64312 19.374 8.70738 19.306C8.66958 19.2833 8.63178 19.2606 8.5902 19.2342C8.5713 19.1284 8.56374 19.0151 8.5335 18.9055C8.50326 18.796 8.55618 18.6524 8.38608 18.5618C8.38608 18.8149 8.38608 19.0378 8.38608 19.2531C8.27646 19.2984 8.18952 19.3324 8.06478 19.3815C8.18952 19.4193 8.27646 19.4457 8.37852 19.476ZM8.09881 20.7603C7.77751 20.5526 7.48267 20.4581 7.19917 20.3221C7.24453 20.5034 7.37683 20.613 7.52046 20.7074C7.67922 20.8056 7.84933 20.8208 8.09881 20.7603ZM7.56204 17.6967C7.65276 17.7496 7.72081 17.7798 7.77373 17.8252C7.83043 17.8743 7.79263 17.9876 7.89091 18.0254C7.92493 17.7949 7.92492 17.7949 8.08368 17.6741C8.0232 17.6514 7.96651 17.6287 7.92115 17.6098C7.87957 17.5192 7.84176 17.4361 7.78128 17.3039C7.7586 17.455 7.74349 17.5418 7.73215 17.6212C7.67545 17.6438 7.63764 17.6627 7.56204 17.6967ZM9.87161 16.9337C9.83381 16.8732 9.79979 16.8166 9.74309 16.7259C9.72797 16.809 9.72798 16.8657 9.7053 16.9072C9.67884 16.9526 9.62969 16.9828 9.58811 17.0205C9.63725 17.0772 9.69395 17.1225 9.73175 17.1792C9.76955 17.2359 9.78467 17.3076 9.83759 17.4285C9.85649 17.285 9.86783 17.2056 9.87917 17.1188C9.94721 17.081 10.0153 17.0394 10.1173 16.979C10.0115 16.9601 9.93965 16.945 9.87161 16.9337ZM5.31296 15.5851C5.3054 15.4869 5.23358 15.4264 5.16176 15.434C5.10506 15.4415 5.05592 15.5133 5.06726 15.5738C5.0786 15.6342 5.14286 15.6757 5.2109 15.6569C5.25248 15.6417 5.2865 15.604 5.31296 15.5851ZM9.93209 18.6713C9.87539 18.6184 9.84137 18.5693 9.79223 18.5505C9.73932 18.5278 9.69396 18.5731 9.67506 18.626C9.65238 18.6902 9.7242 18.7809 9.79223 18.7658C9.83381 18.7582 9.87161 18.7129 9.93209 18.6713ZM6.3071 16.469C6.26552 16.5257 6.22771 16.5597 6.21637 16.6012C6.20125 16.6541 6.23149 16.6995 6.29197 16.7108C6.35623 16.7221 6.4205 16.6655 6.4016 16.6012C6.39404 16.5597 6.35246 16.5295 6.3071 16.469ZM7.02529 18.4636C6.98371 18.5278 6.94969 18.5656 6.94213 18.6071C6.93835 18.6222 6.99505 18.6676 7.02529 18.6676C7.05553 18.6676 7.10845 18.6222 7.10845 18.6071C7.10089 18.5656 7.06309 18.5278 7.02529 18.4636ZM11.1417 14.6294C11.1152 14.686 11.085 14.7238 11.0888 14.7502C11.0963 14.7767 11.1379 14.7994 11.1681 14.822C11.187 14.7918 11.2286 14.7616 11.2248 14.7351C11.2248 14.7049 11.1833 14.6785 11.1417 14.6294ZM9.05136 17.8705C9.02112 17.8403 8.99844 17.8063 8.9682 17.7912C8.95308 17.7836 8.90772 17.8101 8.90016 17.8289C8.88126 17.8781 8.92662 17.9423 8.97576 17.9347C8.99844 17.9309 9.01734 17.9045 9.05136 17.8705ZM10.7939 16.1819C10.7599 16.1479 10.7372 16.129 10.7146 16.1102C10.6919 16.1366 10.6616 16.163 10.6541 16.1933C10.6503 16.2084 10.6881 16.2348 10.707 16.2575C10.7372 16.231 10.7637 16.2084 10.7939 16.1819Z"/>
</mask>
<path d="M6.22771 11.8453C6.17101 11.902 6.13322 11.9473 6.08408 11.9813C5.57756 12.3251 5.24492 12.7973 5.02946 13.3601C4.85936 13.8134 4.76865 14.2818 4.67793 14.7691C4.72707 14.7654 4.76108 14.7729 4.77998 14.7616C5.2298 14.448 5.71742 14.4632 6.20882 14.6331C6.42806 14.7087 6.63217 14.822 6.84007 14.9316C7.19539 15.1167 7.56961 15.1393 7.95139 15.0562C8.24623 14.992 8.52216 14.8825 8.75652 14.6974C8.99844 14.5085 9.22901 14.3083 9.45203 14.1043C9.62969 13.9419 9.79223 13.7605 9.96989 13.5981C10.0871 13.4923 10.2118 13.3941 10.3479 13.3148C10.6503 13.1448 10.9602 13.1637 11.2513 13.3412C11.5121 13.4999 11.7087 13.7228 11.7616 14.0287C11.8032 14.2629 11.8372 14.5047 11.841 14.7427C11.8561 15.3433 11.7503 15.9288 11.5424 16.4955C11.2589 17.2623 10.9565 18.0178 10.6314 18.7658C10.4008 19.2946 10.0984 19.7895 9.76199 20.2579C9.5352 20.5752 9.25926 20.851 8.94552 21.089C8.48436 21.4403 7.99297 21.4592 7.48267 21.2212C7.27099 21.123 7.08955 20.9794 6.91945 20.817C6.55279 20.4657 6.23149 20.0766 5.95555 19.6535C5.65694 19.1964 5.3621 18.7356 5.08616 18.2671C4.68927 17.591 4.44357 16.8619 4.35285 16.0837C4.31883 15.7777 4.33394 15.4793 4.44356 15.1884C4.48136 15.0978 4.49271 15.0109 4.46625 14.9127C4.34529 14.4367 4.40955 13.9796 4.59477 13.5339C4.70061 13.2846 4.80645 13.0315 4.93875 12.7935C5.1353 12.4384 5.42258 12.1589 5.77412 11.9511C5.96312 11.8491 5.99336 11.8415 6.22771 11.8453ZM5.76656 14.9316C6.16723 15.2187 6.49987 15.5662 6.85897 15.8911C6.90433 15.9326 6.95347 15.9742 7.00639 16.0119C7.16515 16.1366 7.33903 16.2424 7.53559 16.2953C7.75861 16.3557 7.98541 16.4161 8.21599 16.4539C8.63556 16.5181 9.01734 16.4199 9.35376 16.163C9.38778 16.1366 9.4218 16.1102 9.45582 16.0875C10.1211 15.5889 10.5331 14.9165 10.8053 14.1534C10.862 13.9985 10.9073 13.8361 10.9035 13.6699C10.7561 13.6019 10.7599 13.6019 10.6994 13.6132C10.5369 13.6472 10.4084 13.7379 10.2912 13.8474C10.0908 14.0363 9.89808 14.2289 9.7053 14.4216C9.44448 14.6822 9.16853 14.9316 8.84346 15.1129C8.09502 15.5322 7.32769 15.6304 6.54901 15.1884C6.45829 15.1356 6.3638 15.0864 6.26552 15.0449C6.10298 14.9769 5.94799 14.9127 5.76656 14.9316ZM6.85141 19.8386C6.84763 19.8008 6.85141 19.7706 6.83629 19.7479C6.72667 19.5704 6.62461 19.3853 6.49609 19.2191C5.98202 18.5467 5.59268 17.8101 5.32808 17.0092C5.30162 16.9337 5.27516 16.8581 5.23358 16.7372C5.18822 17.1037 5.36588 17.6854 5.70986 18.3691C6.0992 19.1322 6.4772 19.6271 6.85141 19.8386ZM8.37852 19.476C8.47302 19.6044 8.43522 19.8046 8.58264 19.9595C8.64312 19.8084 8.63178 19.6762 8.6091 19.5477C8.5902 19.442 8.64312 19.374 8.70738 19.306C8.66958 19.2833 8.63178 19.2606 8.5902 19.2342C8.5713 19.1284 8.56374 19.0151 8.5335 18.9055C8.50326 18.796 8.55618 18.6524 8.38608 18.5618C8.38608 18.8149 8.38608 19.0378 8.38608 19.2531C8.27646 19.2984 8.18952 19.3324 8.06478 19.3815C8.18952 19.4193 8.27646 19.4457 8.37852 19.476ZM8.09881 20.7603C7.77751 20.5526 7.48267 20.4581 7.19917 20.3221C7.24453 20.5034 7.37683 20.613 7.52046 20.7074C7.67922 20.8056 7.84933 20.8208 8.09881 20.7603ZM7.56204 17.6967C7.65276 17.7496 7.72081 17.7798 7.77373 17.8252C7.83043 17.8743 7.79263 17.9876 7.89091 18.0254C7.92493 17.7949 7.92492 17.7949 8.08368 17.6741C8.0232 17.6514 7.96651 17.6287 7.92115 17.6098C7.87957 17.5192 7.84176 17.4361 7.78128 17.3039C7.7586 17.455 7.74349 17.5418 7.73215 17.6212C7.67545 17.6438 7.63764 17.6627 7.56204 17.6967ZM9.87161 16.9337C9.83381 16.8732 9.79979 16.8166 9.74309 16.7259C9.72797 16.809 9.72798 16.8657 9.7053 16.9072C9.67884 16.9526 9.62969 16.9828 9.58811 17.0205C9.63725 17.0772 9.69395 17.1225 9.73175 17.1792C9.76955 17.2359 9.78467 17.3076 9.83759 17.4285C9.85649 17.285 9.86783 17.2056 9.87917 17.1188C9.94721 17.081 10.0153 17.0394 10.1173 16.979C10.0115 16.9601 9.93965 16.945 9.87161 16.9337ZM5.31296 15.5851C5.3054 15.4869 5.23358 15.4264 5.16176 15.434C5.10506 15.4415 5.05592 15.5133 5.06726 15.5738C5.0786 15.6342 5.14286 15.6757 5.2109 15.6569C5.25248 15.6417 5.2865 15.604 5.31296 15.5851ZM9.93209 18.6713C9.87539 18.6184 9.84137 18.5693 9.79223 18.5505C9.73932 18.5278 9.69396 18.5731 9.67506 18.626C9.65238 18.6902 9.7242 18.7809 9.79223 18.7658C9.83381 18.7582 9.87161 18.7129 9.93209 18.6713ZM6.3071 16.469C6.26552 16.5257 6.22771 16.5597 6.21637 16.6012C6.20125 16.6541 6.23149 16.6995 6.29197 16.7108C6.35623 16.7221 6.4205 16.6655 6.4016 16.6012C6.39404 16.5597 6.35246 16.5295 6.3071 16.469ZM7.02529 18.4636C6.98371 18.5278 6.94969 18.5656 6.94213 18.6071C6.93835 18.6222 6.99505 18.6676 7.02529 18.6676C7.05553 18.6676 7.10845 18.6222 7.10845 18.6071C7.10089 18.5656 7.06309 18.5278 7.02529 18.4636ZM11.1417 14.6294C11.1152 14.686 11.085 14.7238 11.0888 14.7502C11.0963 14.7767 11.1379 14.7994 11.1681 14.822C11.187 14.7918 11.2286 14.7616 11.2248 14.7351C11.2248 14.7049 11.1833 14.6785 11.1417 14.6294ZM9.05136 17.8705C9.02112 17.8403 8.99844 17.8063 8.9682 17.7912C8.95308 17.7836 8.90772 17.8101 8.90016 17.8289C8.88126 17.8781 8.92662 17.9423 8.97576 17.9347C8.99844 17.9309 9.01734 17.9045 9.05136 17.8705ZM10.7939 16.1819C10.7599 16.1479 10.7372 16.129 10.7146 16.1102C10.6919 16.1366 10.6616 16.163 10.6541 16.1933C10.6503 16.2084 10.6881 16.2348 10.707 16.2575C10.7372 16.231 10.7637 16.2084 10.7939 16.1819Z" fill="#020304"/>
<path d="M6.22771 11.8453C6.17101 11.902 6.13322 11.9473 6.08408 11.9813C5.57756 12.3251 5.24492 12.7973 5.02946 13.3601C4.85936 13.8134 4.76865 14.2818 4.67793 14.7691C4.72707 14.7654 4.76108 14.7729 4.77998 14.7616C5.2298 14.448 5.71742 14.4632 6.20882 14.6331C6.42806 14.7087 6.63217 14.822 6.84007 14.9316C7.19539 15.1167 7.56961 15.1393 7.95139 15.0562C8.24623 14.992 8.52216 14.8825 8.75652 14.6974C8.99844 14.5085 9.22901 14.3083 9.45203 14.1043C9.62969 13.9419 9.79223 13.7605 9.96989 13.5981C10.0871 13.4923 10.2118 13.3941 10.3479 13.3148C10.6503 13.1448 10.9602 13.1637 11.2513 13.3412C11.5121 13.4999 11.7087 13.7228 11.7616 14.0287C11.8032 14.2629 11.8372 14.5047 11.841 14.7427C11.8561 15.3433 11.7503 15.9288 11.5424 16.4955C11.2589 17.2623 10.9565 18.0178 10.6314 18.7658C10.4008 19.2946 10.0984 19.7895 9.76199 20.2579C9.5352 20.5752 9.25926 20.851 8.94552 21.089C8.48436 21.4403 7.99297 21.4592 7.48267 21.2212C7.27099 21.123 7.08955 20.9794 6.91945 20.817C6.55279 20.4657 6.23149 20.0766 5.95555 19.6535C5.65694 19.1964 5.3621 18.7356 5.08616 18.2671C4.68927 17.591 4.44357 16.8619 4.35285 16.0837C4.31883 15.7777 4.33394 15.4793 4.44356 15.1884C4.48136 15.0978 4.49271 15.0109 4.46625 14.9127C4.34529 14.4367 4.40955 13.9796 4.59477 13.5339C4.70061 13.2846 4.80645 13.0315 4.93875 12.7935C5.1353 12.4384 5.42258 12.1589 5.77412 11.9511C5.96312 11.8491 5.99336 11.8415 6.22771 11.8453ZM5.76656 14.9316C6.16723 15.2187 6.49987 15.5662 6.85897 15.8911C6.90433 15.9326 6.95347 15.9742 7.00639 16.0119C7.16515 16.1366 7.33903 16.2424 7.53559 16.2953C7.75861 16.3557 7.98541 16.4161 8.21599 16.4539C8.63556 16.5181 9.01734 16.4199 9.35376 16.163C9.38778 16.1366 9.4218 16.1102 9.45582 16.0875C10.1211 15.5889 10.5331 14.9165 10.8053 14.1534C10.862 13.9985 10.9073 13.8361 10.9035 13.6699C10.7561 13.6019 10.7599 13.6019 10.6994 13.6132C10.5369 13.6472 10.4084 13.7379 10.2912 13.8474C10.0908 14.0363 9.89808 14.2289 9.7053 14.4216C9.44448 14.6822 9.16853 14.9316 8.84346 15.1129C8.09502 15.5322 7.32769 15.6304 6.54901 15.1884C6.45829 15.1356 6.3638 15.0864 6.26552 15.0449C6.10298 14.9769 5.94799 14.9127 5.76656 14.9316ZM6.85141 19.8386C6.84763 19.8008 6.85141 19.7706 6.83629 19.7479C6.72667 19.5704 6.62461 19.3853 6.49609 19.2191C5.98202 18.5467 5.59268 17.8101 5.32808 17.0092C5.30162 16.9337 5.27516 16.8581 5.23358 16.7372C5.18822 17.1037 5.36588 17.6854 5.70986 18.3691C6.0992 19.1322 6.4772 19.6271 6.85141 19.8386ZM8.37852 19.476C8.47302 19.6044 8.43522 19.8046 8.58264 19.9595C8.64312 19.8084 8.63178 19.6762 8.6091 19.5477C8.5902 19.442 8.64312 19.374 8.70738 19.306C8.66958 19.2833 8.63178 19.2606 8.5902 19.2342C8.5713 19.1284 8.56374 19.0151 8.5335 18.9055C8.50326 18.796 8.55618 18.6524 8.38608 18.5618C8.38608 18.8149 8.38608 19.0378 8.38608 19.2531C8.27646 19.2984 8.18952 19.3324 8.06478 19.3815C8.18952 19.4193 8.27646 19.4457 8.37852 19.476ZM8.09881 20.7603C7.77751 20.5526 7.48267 20.4581 7.19917 20.3221C7.24453 20.5034 7.37683 20.613 7.52046 20.7074C7.67922 20.8056 7.84933 20.8208 8.09881 20.7603ZM7.56204 17.6967C7.65276 17.7496 7.72081 17.7798 7.77373 17.8252C7.83043 17.8743 7.79263 17.9876 7.89091 18.0254C7.92493 17.7949 7.92492 17.7949 8.08368 17.6741C8.0232 17.6514 7.96651 17.6287 7.92115 17.6098C7.87957 17.5192 7.84176 17.4361 7.78128 17.3039C7.7586 17.455 7.74349 17.5418 7.73215 17.6212C7.67545 17.6438 7.63764 17.6627 7.56204 17.6967ZM9.87161 16.9337C9.83381 16.8732 9.79979 16.8166 9.74309 16.7259C9.72797 16.809 9.72798 16.8657 9.7053 16.9072C9.67884 16.9526 9.62969 16.9828 9.58811 17.0205C9.63725 17.0772 9.69395 17.1225 9.73175 17.1792C9.76955 17.2359 9.78467 17.3076 9.83759 17.4285C9.85649 17.285 9.86783 17.2056 9.87917 17.1188C9.94721 17.081 10.0153 17.0394 10.1173 16.979C10.0115 16.9601 9.93965 16.945 9.87161 16.9337ZM5.31296 15.5851C5.3054 15.4869 5.23358 15.4264 5.16176 15.434C5.10506 15.4415 5.05592 15.5133 5.06726 15.5738C5.0786 15.6342 5.14286 15.6757 5.2109 15.6569C5.25248 15.6417 5.2865 15.604 5.31296 15.5851ZM9.93209 18.6713C9.87539 18.6184 9.84137 18.5693 9.79223 18.5505C9.73932 18.5278 9.69396 18.5731 9.67506 18.626C9.65238 18.6902 9.7242 18.7809 9.79223 18.7658C9.83381 18.7582 9.87161 18.7129 9.93209 18.6713ZM6.3071 16.469C6.26552 16.5257 6.22771 16.5597 6.21637 16.6012C6.20125 16.6541 6.23149 16.6995 6.29197 16.7108C6.35623 16.7221 6.4205 16.6655 6.4016 16.6012C6.39404 16.5597 6.35246 16.5295 6.3071 16.469ZM7.02529 18.4636C6.98371 18.5278 6.94969 18.5656 6.94213 18.6071C6.93835 18.6222 6.99505 18.6676 7.02529 18.6676C7.05553 18.6676 7.10845 18.6222 7.10845 18.6071C7.10089 18.5656 7.06309 18.5278 7.02529 18.4636ZM11.1417 14.6294C11.1152 14.686 11.085 14.7238 11.0888 14.7502C11.0963 14.7767 11.1379 14.7994 11.1681 14.822C11.187 14.7918 11.2286 14.7616 11.2248 14.7351C11.2248 14.7049 11.1833 14.6785 11.1417 14.6294ZM9.05136 17.8705C9.02112 17.8403 8.99844 17.8063 8.9682 17.7912C8.95308 17.7836 8.90772 17.8101 8.90016 17.8289C8.88126 17.8781 8.92662 17.9423 8.97576 17.9347C8.99844 17.9309 9.01734 17.9045 9.05136 17.8705ZM10.7939 16.1819C10.7599 16.1479 10.7372 16.129 10.7146 16.1102C10.6919 16.1366 10.6616 16.163 10.6541 16.1933C10.6503 16.2084 10.6881 16.2348 10.707 16.2575C10.7372 16.231 10.7637 16.2084 10.7939 16.1819Z" stroke="black" stroke-width="0.2" mask="url(#path-25-outside-2_2_5573)"/>
<path d="M8.09631 22.8531L8.03905 22.9027L8.10716 22.9358C8.1869 22.9746 8.25811 22.9902 8.32448 22.9885C8.39064 22.9869 8.44854 22.9683 8.50153 22.9438L8.50172 22.9437C8.61654 22.8902 8.73275 22.8284 8.83805 22.7543C9.08903 22.5807 9.29677 22.3651 9.47675 22.1278L9.47691 22.1276C9.5738 21.9985 9.66775 21.8657 9.76128 21.7331C9.76729 21.7245 9.7733 21.716 9.7793 21.7075C9.86691 21.5832 9.95429 21.4593 10.0441 21.3378L10.0442 21.3377C10.2573 21.0473 10.3803 20.7195 10.4717 20.3844L10.472 20.3845L10.4728 20.3795C10.4769 20.3551 10.4703 20.3326 10.4653 20.3176C10.4625 20.3093 10.4601 20.3029 10.4579 20.2969C10.4549 20.2887 10.4521 20.2812 10.4487 20.27L10.4302 20.2084L10.3751 20.2415C10.3666 20.2466 10.3583 20.2512 10.35 20.2557C10.3487 20.2564 10.3474 20.2571 10.346 20.2579C10.3391 20.2616 10.3319 20.2655 10.3252 20.2694C10.309 20.2788 10.2906 20.2908 10.2755 20.309L10.2755 20.309L10.2745 20.3103C10.2481 20.344 10.2216 20.3778 10.1951 20.4117C10.0734 20.5669 9.95014 20.724 9.83467 20.8862L9.83455 20.8864C9.72188 21.046 9.61345 21.206 9.50536 21.3655C9.36789 21.5684 9.23098 21.7704 9.08663 21.9698C8.85227 22.2857 8.57069 22.5558 8.22357 22.7518C8.2007 22.7624 8.18174 22.7772 8.16337 22.7931C8.15504 22.8004 8.14615 22.8084 8.13686 22.8169C8.13554 22.8181 8.13421 22.8193 8.13288 22.8205C8.12196 22.8304 8.11003 22.8412 8.09631 22.8531Z" fill="#020304" stroke="black" stroke-width="0.1"/>
<path d="M9.30914 9.88124C9.30129 9.76385 9.27787 9.64742 9.25126 9.53343L9.25135 9.53341L9.25045 9.53042C9.24187 9.50182 9.22427 9.47752 9.2089 9.45783C9.20343 9.45084 9.19816 9.44431 9.19299 9.4379C9.18195 9.42424 9.17139 9.41116 9.16051 9.39545L9.10844 9.32029L9.07326 9.40468C9.06661 9.42063 9.06113 9.43271 9.05628 9.44342C9.05446 9.44746 9.05272 9.4513 9.05104 9.45507C9.04533 9.4679 9.03944 9.48181 9.03636 9.49721L9.03608 9.49716L9.03559 9.5025C9.03187 9.54339 9.02721 9.58439 9.02248 9.62604L9.02244 9.62631C9.01775 9.66755 9.01299 9.70944 9.00917 9.75142C8.9507 10.2979 9.1474 10.7448 9.57946 11.091C9.82316 11.2881 10.1016 11.431 10.4293 11.5196L10.5696 11.5575L9.25926 9.88478M9.30914 9.88124C9.30914 9.88131 9.30915 9.88138 9.30915 9.88145L9.25926 9.88478M9.30914 9.88124C9.30913 9.88117 9.30913 9.88111 9.30912 9.88104L9.25926 9.88478M9.30914 9.88124C9.3418 10.3157 9.5727 10.6321 9.91961 10.8829M9.25926 9.88478C9.29328 10.3381 9.5352 10.6667 9.89052 10.9236M9.91961 10.8829C9.91954 10.8829 9.91947 10.8828 9.91941 10.8828L9.89052 10.9236M9.91961 10.8829C9.91968 10.883 9.91974 10.883 9.91981 10.8831L9.89052 10.9236M9.91961 10.8829L9.89052 10.9236M9.11941 9.42392C9.13097 9.44061 9.14296 9.45555 9.15421 9.46949C9.15765 9.46174 9.16146 9.45297 9.16555 9.44316L9.11941 9.42392ZM9.11941 9.42392L9.0783 9.45239C9.0841 9.46075 9.09015 9.46892 9.09614 9.47671C9.09779 9.47298 9.09961 9.46897 9.10159 9.46459C9.1065 9.45374 9.11244 9.44063 9.11941 9.42392ZM10.4424 11.4713C10.418 11.4647 10.3938 11.4578 10.3699 11.4506C10.3715 11.4531 10.373 11.4558 10.3747 11.4585C10.3826 11.4717 10.392 11.4875 10.4024 11.5014L10.4424 11.4713ZM10.4424 11.4713L10.4554 11.4231C10.4376 11.4182 10.4198 11.4132 10.4022 11.4081C10.408 11.4168 10.4133 11.4256 10.4185 11.4344C10.4262 11.4472 10.4338 11.4598 10.4424 11.4713ZM10.4115 11.3396C10.4109 11.339 10.4103 11.3384 10.4097 11.3378L10.3744 11.3731L10.413 11.3414C10.4125 11.3408 10.412 11.3402 10.4115 11.3396Z" fill="#020304" stroke="black" stroke-width="0.1"/>
<path d="M7.35244 9.42321L7.33847 9.38135L7.2952 9.39C7.29262 9.39051 7.28981 9.39105 7.2868 9.39163C7.27011 9.39485 7.24737 9.39923 7.22494 9.4067L7.19608 9.41632L7.19135 9.44637C7.17988 9.51935 7.16776 9.59268 7.1556 9.6663C7.12399 9.85758 7.09205 10.0509 7.0701 10.2456L7.07009 10.2457C7.04024 10.5141 6.98115 10.7612 6.82567 10.9817L6.82565 10.9817L6.82493 10.9827C6.82294 10.9857 6.82094 10.9887 6.81893 10.9917C6.76133 11.0779 6.69313 11.18 6.68071 11.3L6.67736 11.3324L6.70565 11.3486C6.71418 11.3534 6.72019 11.3574 6.72606 11.3613C6.72826 11.3627 6.73044 11.3642 6.73272 11.3656L6.7329 11.3657C6.73587 11.3676 6.74244 11.3719 6.74981 11.3747C6.75434 11.3764 6.77568 11.3838 6.79641 11.3717C7.14341 11.2184 7.36872 10.963 7.39271 10.5754L7.39273 10.5751C7.40657 10.3316 7.4043 10.0874 7.40204 9.84505C7.4012 9.75472 7.40036 9.66467 7.40036 9.57502C7.40036 9.54195 7.38944 9.51163 7.3795 9.48778C7.37528 9.47764 7.37141 9.46898 7.36786 9.46104C7.36185 9.44757 7.35676 9.43618 7.35244 9.42321Z" fill="#020304" stroke="black" stroke-width="0.1"/>
<path d="M8.1744 10.153L8.22433 10.1503C8.22399 10.1439 8.22365 10.1376 8.22331 10.1312C8.21624 9.9965 8.20824 9.84426 8.10852 9.66412L8.05471 9.56691L8.01764 9.67166C7.96076 9.83239 7.91684 10.0885 7.89123 10.3473C7.86557 10.6066 7.85771 10.8745 7.87513 11.0603M8.1744 10.153L8.22429 10.1496C8.2433 10.4308 8.24708 10.7155 8.24708 10.9954C8.24708 11.0973 8.24047 11.1677 8.21469 11.2375C8.18945 11.3058 8.1469 11.3703 8.08317 11.4621L8.04191 11.5215L8.00091 11.4619C7.91036 11.3303 7.88671 11.1914 7.87513 11.0603M8.1744 10.153C8.17408 10.147 8.17376 10.1409 8.17344 10.1349C8.16724 10.0176 8.16073 9.89427 8.09662 9.75181M8.1744 10.153L8.09662 9.75181M7.87513 11.0603C7.87513 11.0604 7.87514 11.0604 7.87514 11.0605L7.92492 11.0558L7.87512 11.0602C7.87512 11.0603 7.87512 11.0603 7.87513 11.0603ZM8.0421 11.4336L8.00103 11.405C8.00525 11.399 8.00935 11.3931 8.01332 11.3873C8.02201 11.4028 8.03157 11.4183 8.0421 11.4336ZM8.0421 11.4336L8.08329 11.4052C8.07962 11.3999 8.07607 11.3945 8.07265 11.3891C8.06317 11.4031 8.053 11.4179 8.0421 11.4336ZM8.09662 9.75181C8.10162 9.73533 8.10672 9.7197 8.11191 9.70502L8.06478 9.68834M8.09662 9.75181C8.08729 9.73107 8.07673 9.70993 8.06478 9.68834M8.06478 9.68834L8.02103 9.71255C8.02913 9.72717 8.03654 9.74156 8.04333 9.75574C8.05026 9.73168 8.05742 9.70914 8.06478 9.68834Z" fill="#020304" stroke="black" stroke-width="0.1"/>
<path d="M11.3004 12.4044L11.2693 12.4435C11.4338 12.5743 11.5816 12.7112 11.7068 12.873C11.8186 13.0206 11.9694 13.1347 12.175 13.2316L12.2671 13.275L12.2451 13.1756C12.1638 12.8078 11.9993 12.5337 11.7355 12.366L11.7087 12.4082M11.3004 12.4044L11.2696 12.4437C11.239 12.4197 11.2128 12.3911 11.1866 12.3602C11.1745 12.3458 11.1634 12.3322 11.1518 12.318C11.1363 12.299 11.1201 12.2791 11.0999 12.2556L11.0421 12.1881L11.1298 12.1737C11.3802 12.1326 11.5483 12.2431 11.6926 12.338C11.7072 12.3476 11.7216 12.357 11.7357 12.3661L11.7087 12.4082M11.3004 12.4044C11.263 12.375 11.2312 12.3361 11.1916 12.2877C11.1865 12.2814 11.1812 12.2749 11.1758 12.2683C11.166 12.2694 11.1561 12.2708 11.146 12.2724L11.1379 12.2231L11.1759 12.1905C11.1832 12.199 11.1904 12.2076 11.1975 12.2162C11.3953 12.203 11.5333 12.2935 11.6656 12.3801C11.68 12.3896 11.6943 12.399 11.7087 12.4082M11.3004 12.4044C11.4668 12.5366 11.618 12.6764 11.7465 12.8426C11.8418 12.9685 11.9678 13.0699 12.1383 13.1578L12.1813 13.1235M11.7087 12.4082C11.9434 12.5574 12.0978 12.7969 12.1813 13.1235M12.1813 13.1235C12.1932 13.1295 12.2053 13.1353 12.2176 13.1411L12.1963 13.1864L12.1813 13.1235Z" fill="#020304" stroke="black" stroke-width="0.1"/>
<path d="M10.6609 19.8387L10.6685 19.7547C10.7 19.4084 10.8392 19.1851 11.0489 19.0072L11.0663 18.9924L11.089 18.9959C11.1358 19.0033 11.1711 19.0245 11.1888 19.0617C11.2037 19.0932 11.2009 19.1277 11.1991 19.1475M10.6609 19.8387L11.1492 19.1435M10.6609 19.8387L10.7383 19.8051C10.7682 19.7921 10.7918 19.7831 10.8125 19.7752C10.8212 19.7719 10.8294 19.7688 10.8374 19.7656C10.8629 19.7555 10.8875 19.7446 10.9094 19.7257M10.6609 19.8387L10.8771 19.6875M11.1991 19.1475C11.1991 19.1477 11.1991 19.1479 11.199 19.1481L11.1492 19.1435M11.1991 19.1475C11.1991 19.1473 11.1991 19.1472 11.1991 19.147L11.1492 19.1435M11.1991 19.1475C11.183 19.3785 11.0906 19.5765 10.9094 19.7257M11.1492 19.1435C11.1341 19.3626 11.0472 19.5477 10.8771 19.6875M10.9094 19.7257C10.9096 19.7255 10.9098 19.7253 10.91 19.7251L10.8771 19.6875M10.9094 19.7257C10.9092 19.7258 10.909 19.726 10.9088 19.7261L10.8771 19.6875M10.7183 19.7593C10.7201 19.7399 10.7222 19.7209 10.7247 19.7023C10.7163 19.7057 10.7076 19.7094 10.6984 19.7134L10.7183 19.7593ZM10.7183 19.7593L10.7681 19.7638C10.7689 19.755 10.7698 19.7463 10.7707 19.7377C10.7553 19.7437 10.738 19.7507 10.7183 19.7593Z" fill="#020304" stroke="black" stroke-width="0.1"/>
<path d="M9.27438 15.8457L9.295 15.8913C9.74834 15.6861 10.0028 15.3858 10.0349 14.977L10.0401 14.9097L9.97417 14.9243C9.96727 14.9259 9.96004 14.9271 9.95198 14.9283C9.95049 14.9286 9.94894 14.9288 9.94734 14.9291C9.94081 14.9301 9.93351 14.9312 9.92666 14.9325C9.91081 14.9355 9.88671 14.9409 9.86685 14.9567C9.83629 14.9812 9.80396 15.0057 9.77094 15.0307C9.68644 15.0948 9.59738 15.1624 9.5219 15.2406L9.5218 15.2407C9.26395 15.5094 8.95967 15.6813 8.59316 15.7436L8.59316 15.7436L8.59219 15.7437C8.5481 15.7521 8.50607 15.7666 8.46562 15.782C8.45122 15.7875 8.43728 15.793 8.42345 15.7984C8.39713 15.8088 8.3712 15.819 8.3432 15.8287L8.25476 15.8595L8.3295 15.9159C8.43513 15.9956 8.59216 16.0272 8.76062 16.0213C8.93055 16.0154 9.11936 15.9713 9.2951 15.8912L9.27438 15.8457ZM9.27438 15.8457C8.96437 15.9869 8.61356 16.0119 8.41358 15.9095C8.40121 15.9142 8.38866 15.9188 8.37604 15.9232L8.35962 15.876L8.38974 15.8361C8.39836 15.8426 8.40757 15.8487 8.41735 15.8545C8.42601 15.8512 8.43458 15.8478 8.44308 15.8444C8.49721 15.8231 8.54853 15.8029 8.60154 15.7929C8.97954 15.7286 9.29328 15.5511 9.55788 15.2753C9.63051 15.2001 9.71462 15.1363 9.79796 15.0731C9.83173 15.0475 9.86537 15.0219 9.89807 14.9958C9.90715 14.9885 9.91971 14.9848 9.93408 14.982C9.93447 14.9777 9.93483 14.9735 9.93516 14.9692L9.98501 14.9731L9.99585 15.0219C9.99028 15.0232 9.9848 15.0242 9.97959 15.0251C9.93267 15.3844 9.69651 15.6546 9.27438 15.8457Z" fill="#020304" stroke="black" stroke-width="0.1"/>
</svg>
