<svg width="15" height="24" viewBox="0 0 15 24" fill="none" xmlns="http://www.w3.org/2000/svg">
<mask id="path-1-outside-1_2_5431" maskUnits="userSpaceOnUse" x="0" y="0" width="15" height="24" fill="black">
<rect fill="white" width="15" height="24"/>
<path d="M6.69856 7.89574C6.7413 7.94366 6.77691 7.97683 6.79828 8.01369C6.89445 8.20906 6.94432 8.41548 6.93007 8.63665C6.91583 8.87994 6.90513 9.12692 6.89801 9.3702C6.89089 9.60243 6.89801 9.83465 6.99774 10.0558C7.61391 9.67246 7.66734 9.80885 8.01995 10.0116C8.03419 9.98947 8.05556 9.96736 8.05912 9.94524C8.08049 9.83097 8.11255 9.71301 8.11611 9.59874C8.11967 9.40338 8.10542 9.20801 8.10186 9.01265C8.0983 8.88732 8.0983 8.7583 8.10542 8.63297C8.12323 8.34177 8.29063 8.15008 8.51145 7.99158C8.53994 7.96946 8.57913 7.96209 8.61831 7.95103C8.66461 7.93998 8.71803 7.9879 8.71447 8.03582C8.70734 8.10217 8.6931 8.1722 8.67885 8.23855C8.61474 8.51133 8.61475 8.76936 8.7216 9.04213C8.87831 9.43655 8.93885 9.85309 8.88187 10.2807C8.87474 10.3249 8.88187 10.3728 8.88187 10.4244C8.97091 10.3986 8.98516 10.3249 9.00653 10.2659C9.15612 9.86414 9.30571 9.46235 9.44462 9.05688C9.5301 8.80622 9.60133 8.55188 9.68325 8.30122C9.76873 8.03951 9.87558 7.78884 10.1178 7.6119C10.0822 7.30964 10.0465 7.00738 10.0074 6.70881C9.9753 6.46552 9.93612 6.22592 9.89338 5.98263C9.83283 5.62139 9.80435 5.26384 9.96462 4.93577C9.94681 4.89522 9.94325 4.8731 9.93257 4.86204C9.44106 4.35335 9.1027 3.73777 8.76434 3.12218C8.57557 2.77937 8.44734 2.40707 8.37967 2.02003C8.34761 1.8394 8.34762 1.65141 8.3405 1.46341C8.33693 1.40444 8.34761 1.34546 8.3583 1.29016C8.37611 1.19432 8.4331 1.14272 8.50789 1.13535C8.58269 1.12797 8.64324 1.17589 8.67173 1.26805C8.67885 1.29754 8.68597 1.32334 8.68953 1.35283C8.85337 2.1859 9.23804 2.89364 9.83284 3.48343C10.0465 3.69354 10.2709 3.89627 10.4811 4.11006C10.6378 4.26857 10.8016 4.42339 10.8586 4.65193C10.8657 4.67773 10.8871 4.70354 10.9049 4.72566C11.0509 4.91734 11.1008 5.14588 11.1257 5.38179C11.2005 6.20749 11.0723 7.00001 10.7589 7.78147C10.9298 8.13166 10.9227 8.50765 10.8265 8.88732C10.7375 9.2375 10.6449 9.58768 10.5202 9.9268C10.2567 10.6567 9.77941 11.2243 9.14543 11.6519C9.03858 11.7257 9.03859 11.7257 9.08845 11.8694C9.13119 11.8473 9.17748 11.8362 9.2131 11.8067C9.41612 11.6446 9.6227 11.4824 9.81859 11.3128C10.1641 11.0142 10.4989 10.7083 10.8444 10.4134C11.1471 10.1517 11.4641 9.91575 11.8915 9.88257C11.8951 9.79779 11.8986 9.73144 11.8986 9.66509C11.8915 8.89837 11.9698 8.13903 12.18 7.4018C12.2334 7.21381 12.2904 7.02581 12.4008 6.86362C12.4507 6.78989 12.4542 6.71987 12.4222 6.64246C12.3438 6.46552 12.2726 6.28121 12.1764 6.11165C12.0126 5.81307 11.8274 5.52555 11.6564 5.23066C11.4961 4.95051 11.3394 4.67036 11.1934 4.38653C11.0759 4.16167 11.0011 3.91838 10.969 3.66035C10.9476 3.49448 10.9548 3.32861 10.9939 3.16273C11.0046 3.1185 11.026 3.07057 11.0509 3.03003C11.1044 2.95262 11.2219 2.95261 11.2718 3.03739C11.3038 3.09637 11.3287 3.16273 11.343 3.22539C11.457 3.79306 11.7134 4.29069 12.0589 4.74777C12.2049 4.94314 12.3509 5.1385 12.4934 5.33387C12.6893 5.60296 12.8603 5.88311 12.9956 6.18906C13.0668 6.34756 13.131 6.51343 13.1488 6.69037C13.1523 6.73092 13.1559 6.77146 13.1701 6.80464C13.3304 7.16219 13.2805 7.5345 13.2236 7.90311C13.1274 8.5445 12.9101 9.15272 12.6822 9.75724C12.6501 9.83834 12.6145 9.91944 12.5682 9.99316C12.5041 10.0927 12.4649 10.1922 12.4542 10.3175C12.4471 10.4097 12.4008 10.5055 12.3545 10.5866C12.2975 10.6862 12.2263 10.782 12.1479 10.8668C11.6564 11.4123 11.1008 11.8731 10.4241 12.168C10.3707 12.1901 10.3208 12.2196 10.2709 12.2454C10.2638 12.2491 10.2638 12.2638 10.2531 12.2896C10.3528 12.3154 10.4526 12.3412 10.5523 12.3597C11.2575 12.4887 11.9235 12.7246 12.5397 13.1043C12.6786 13.1891 12.814 13.2849 12.9386 13.3918C13.0526 13.4876 13.1345 13.6056 13.1452 13.7641C13.1488 13.812 13.163 13.8599 13.1844 13.9005C13.3732 14.2359 13.48 14.6045 13.5762 14.9695C13.7471 15.6219 13.9074 16.278 13.9679 16.9526C13.9964 17.2733 13.9929 17.5977 14 17.9184C14 17.9774 13.9858 18.0363 13.9715 18.0916C13.7151 19.0832 13.2948 19.9826 12.5825 20.7272C12.1693 21.1585 11.8381 21.6488 11.6208 22.2127C11.603 22.257 11.5852 22.3086 11.5531 22.3381C11.5211 22.3676 11.4712 22.3934 11.4285 22.3934C11.3644 22.3934 11.3323 22.3381 11.3181 22.2754C11.3109 22.2459 11.3145 22.2164 11.3181 22.1869C11.3465 21.9031 11.4 21.6266 11.5282 21.3686C11.7633 20.8968 12.0161 20.436 12.3296 20.0121C12.497 19.7873 12.6644 19.5587 12.8211 19.3228C13.0846 18.9321 13.2699 18.5045 13.3447 18.029C13.3696 17.8778 13.3589 17.7525 13.2556 17.6198C12.9244 17.1959 12.7783 16.6872 12.6786 16.1638C12.6216 15.8652 12.6003 15.5629 12.5611 15.2607C12.5255 14.951 12.4898 14.6377 12.4542 14.3281C12.4507 14.2912 12.4364 14.2543 12.4257 14.1954C12.0019 14.1917 11.6101 14.0442 11.1934 13.9521C11.2539 14.0111 11.3181 14.07 11.3715 14.1364C11.4819 14.2728 11.5959 14.4055 11.692 14.5492C11.7918 14.6967 11.8345 14.8663 11.8131 15.0506C11.806 15.128 11.8096 15.2054 11.8203 15.2828C11.8523 15.585 11.9129 15.8836 11.9235 16.1859C11.9414 16.7425 11.9307 17.3028 11.9271 17.8594C11.9235 18.1432 11.8986 18.4271 11.7276 18.6703C11.7063 18.6998 11.6992 18.7441 11.6956 18.7809C11.5887 19.5219 11.2504 20.1485 10.7696 20.7051C10.6413 20.8526 10.506 20.9889 10.3778 21.1327C10.2424 21.2838 10.1 21.4313 9.97174 21.5898C9.68681 21.9326 9.49448 22.3233 9.45174 22.7767C9.44818 22.8246 9.43749 22.8726 9.41968 22.9168C9.39475 22.9758 9.34845 23.0089 9.28077 22.9979C9.21666 22.9905 9.17393 22.9536 9.16681 22.8873C9.15969 22.8209 9.15969 22.7509 9.16681 22.6809C9.20243 22.257 9.2879 21.8441 9.49804 21.4755C9.67256 21.1732 9.86133 20.8784 10.0501 20.5798C10.278 20.2185 10.5131 19.861 10.7411 19.496C10.8978 19.2454 10.9975 18.9726 11.0438 18.6777C11.0581 18.5893 11.0581 18.5082 11.0331 18.4197C10.8942 17.9515 10.8764 17.476 10.9227 16.9932C10.9476 16.7019 11.0011 16.4107 11.0402 16.1195C11.0723 15.8873 11.1044 15.6551 11.1364 15.4155C11.0723 15.3823 11.026 15.3528 10.9726 15.3344C10.7909 15.2607 10.6271 15.1611 10.4811 15.0321C10.1997 14.7778 9.92901 14.5161 9.65476 14.258C9.58708 14.1917 9.52297 14.1253 9.4268 14.0295C9.43037 14.1696 9.48379 14.2507 9.51941 14.3354C9.8364 15.0542 9.90408 15.8099 9.7901 16.5766C9.70106 17.1922 9.44105 17.7341 9.00296 18.1764C8.79282 18.3902 8.57557 18.6003 8.36187 18.8104C8.08049 19.0832 7.85611 19.3965 7.69583 19.7578C7.65665 19.8462 7.61035 19.9347 7.56405 20.0195C7.52844 20.0821 7.47145 20.119 7.39665 20.108C7.33254 20.0969 7.30048 20.049 7.27911 19.9937C7.11527 19.5735 6.88733 19.1901 6.62733 18.8252C6.44568 18.5745 6.24978 18.3312 6.06458 18.0806C5.61581 17.4871 5.34156 16.8162 5.23114 16.0753C5.15635 15.5814 5.22403 15.0985 5.34869 14.623C5.39855 14.4276 5.46978 14.2359 5.53746 14.0111C5.45197 14.0332 5.41992 14.0885 5.37717 14.129C5.13142 14.3649 4.89279 14.6008 4.64347 14.8331C4.44402 15.0174 4.21963 15.1722 3.96319 15.2607C3.93826 15.268 3.91689 15.2902 3.88483 15.316C3.91332 15.6367 3.96319 15.9537 4.01661 16.2707C4.11634 16.8531 4.14839 17.4392 4.04866 18.0253C4.03798 18.0842 4.03443 18.1432 4.01306 18.1985C3.92401 18.4013 3.96319 18.6003 4.01306 18.7994C4.07004 19.0279 4.16976 19.2417 4.29442 19.4407C4.49388 19.7651 4.70401 20.0785 4.90703 20.3991C5.10648 20.7125 5.3095 21.0184 5.49471 21.3391C5.72265 21.7335 5.82238 22.1722 5.84375 22.6293C5.84732 22.6883 5.85087 22.7509 5.8295 22.8025C5.81526 22.8431 5.76896 22.8873 5.73334 22.8947C5.69416 22.9021 5.63362 22.8762 5.61225 22.8431C5.58019 22.7878 5.55882 22.7177 5.55169 22.6514C5.51252 22.2054 5.32019 21.8257 5.04238 21.4903C4.87498 21.2875 4.68621 21.1032 4.51881 20.9042C4.31223 20.6609 4.10566 20.4139 3.90976 20.1596C3.59634 19.7504 3.42894 19.2712 3.33277 18.7662C3.3114 18.6593 3.28647 18.5635 3.22948 18.4676C3.17606 18.3791 3.15112 18.2686 3.12619 18.1653C3.10482 18.0695 3.09058 17.9737 3.08702 17.8741C3.05852 17.0632 3.03715 16.2486 3.13687 15.4376C3.144 15.3712 3.15825 15.3012 3.17606 15.2349C3.20099 15.1317 3.21879 15.0321 3.19386 14.9179C3.15825 14.7593 3.21167 14.6045 3.29715 14.4718C3.39688 14.317 3.51441 14.1732 3.62839 14.0295C3.68181 13.9631 3.74236 13.9042 3.83853 13.7973C3.58209 13.8747 3.38619 13.941 3.18318 13.9889C2.98729 14.0369 2.78784 14.0627 2.57413 14.0995C2.56345 14.1511 2.5492 14.2064 2.54208 14.2617C2.48509 14.7593 2.43878 15.2533 2.37824 15.7509C2.33193 16.1306 2.23221 16.4992 2.10042 16.8568C2.00782 17.1074 1.88316 17.336 1.71933 17.5461C1.64453 17.6382 1.63029 17.7304 1.6481 17.8447C1.70864 18.2575 1.83331 18.6445 2.05413 18.9984C2.21441 19.2528 2.38537 19.5034 2.56345 19.743C2.89825 20.189 3.17962 20.6646 3.42894 21.1622C3.56784 21.435 3.64619 21.7262 3.68181 22.0284C3.68537 22.0764 3.6925 22.1316 3.67826 22.1722C3.66401 22.2127 3.62126 22.257 3.58208 22.2643C3.54291 22.2717 3.48593 22.2533 3.45743 22.2238C3.41826 22.1832 3.39332 22.128 3.37551 22.0727C3.16537 21.5271 2.84838 21.0516 2.44591 20.6351C1.73357 19.8942 1.30261 19.0021 1.04617 18.0068C1.01768 17.8963 1.00699 17.7783 1.00343 17.6603C0.974938 16.8678 1.12809 16.1011 1.30618 15.3381C1.39878 14.9289 1.50919 14.5234 1.65878 14.129C1.70152 14.0184 1.75494 13.9152 1.79769 13.8083C1.81906 13.7567 1.84755 13.7014 1.85111 13.6461C1.86536 13.4876 1.94371 13.366 2.05769 13.2701C2.16454 13.1743 2.28208 13.0858 2.40673 13.0121C2.98017 12.6619 3.58921 12.4113 4.24812 12.2786C4.36209 12.2565 4.47607 12.2343 4.58648 12.2085C4.63991 12.1975 4.69333 12.1754 4.78237 12.1422C4.69333 12.0979 4.63991 12.0648 4.57936 12.039C3.90264 11.7441 3.35058 11.2833 2.85551 10.7378C2.77715 10.653 2.70947 10.5534 2.64893 10.4576C2.60619 10.3913 2.55988 10.3175 2.55988 10.2438C2.55632 10.0669 2.47797 9.92681 2.39605 9.78674C2.36756 9.73513 2.34263 9.68352 2.32126 9.62823C2.09687 9.01264 1.86892 8.40075 1.77988 7.74461C1.75494 7.55293 1.74782 7.35388 1.73714 7.15851C1.73358 7.09216 1.73714 7.01843 1.75139 6.95577C1.86536 6.48026 1.97577 6.00474 2.25714 5.59558C2.38892 5.4039 2.52071 5.20854 2.65606 5.02054C2.79852 4.82149 2.94455 4.62982 3.08702 4.43077C3.36127 4.04372 3.5536 3.62349 3.65332 3.15535C3.66757 3.089 3.68538 3.02265 3.71031 2.95999C3.73524 2.88995 3.80291 2.84203 3.86346 2.85309C3.92401 2.86415 3.97388 2.89365 3.99169 2.95631C4.01306 3.04109 4.03799 3.12587 4.04511 3.21433C4.0736 3.51291 4.02018 3.80044 3.89908 4.07321C3.79579 4.30544 3.68182 4.53398 3.55716 4.75146C3.3399 5.13113 3.11194 5.50711 2.89112 5.8831C2.75221 6.11901 2.62399 6.35861 2.55988 6.63139C2.83413 7.0811 2.93387 7.58979 3.01222 8.10217C3.09058 8.60717 3.13331 9.11217 3.11551 9.62455C3.11551 9.65404 3.12263 9.68353 3.12619 9.72776C3.15468 9.73882 3.19031 9.75724 3.22236 9.76461C3.52511 9.8199 3.78155 9.96736 4.01306 10.1627C4.40128 10.4982 4.78593 10.8373 5.17416 11.1727C5.37361 11.3423 5.57663 11.5045 5.77965 11.6704C5.81526 11.6998 5.858 11.7183 5.91855 11.7551C5.93992 11.6998 5.95417 11.6556 5.97198 11.6077C5.93993 11.5819 5.91143 11.5524 5.87937 11.534C5.26676 11.1285 4.80731 10.5903 4.52237 9.90101C4.34429 9.46604 4.21963 9.01633 4.14127 8.55188C4.08785 8.24224 4.11278 7.94735 4.25168 7.65246C4.06648 7.24698 3.96676 6.81202 3.90265 6.366C3.84566 5.97526 3.84565 5.58452 3.88483 5.19379C3.9062 4.98 3.95963 4.76989 4.1021 4.59664C4.25525 4.18379 4.58293 3.92208 4.88211 3.63456C4.97471 3.54609 5.06375 3.4613 5.15635 3.37283C5.64786 2.90838 5.97197 2.33703 6.19636 1.70301C6.24978 1.55556 6.27828 1.40075 6.31033 1.24962C6.35307 1.06163 6.4065 0.984214 6.4991 1.00265C6.65225 1.02845 6.64514 1.16483 6.66295 1.27542C6.69856 1.50396 6.65582 1.72513 6.61308 1.9463C6.54541 2.2928 6.42787 2.62455 6.2676 2.93787C6.03252 3.39864 5.76896 3.84098 5.46622 4.2612C5.33443 4.44182 5.1884 4.60769 5.03881 4.78831C5.19909 5.14956 5.16348 5.52555 5.10293 5.90523C5.03882 6.3107 4.97827 6.71618 4.92128 7.12534C4.90347 7.23961 4.90348 7.35757 4.89279 7.4829C5.13142 7.66721 5.23828 7.92523 5.32732 8.198C5.50896 8.75461 5.69417 9.31123 5.87937 9.86784C5.89718 9.91944 5.92567 9.97104 5.9791 10.0816C6.01472 9.66509 6.18212 9.36283 6.33527 9.05319C6.42431 8.87994 6.48485 8.69195 6.52047 8.50027C6.55253 8.32702 6.59883 8.15746 6.64157 7.9879C6.64513 7.97684 6.67006 7.94735 6.69856 7.89574ZM6.27471 11.0179C6.13937 10.8189 6.01115 10.6456 5.90074 10.465C5.70485 10.1406 5.5517 9.79411 5.41991 9.43655C5.28457 9.06056 5.15991 8.68089 5.02813 8.3049C4.98539 8.18694 4.93909 8.06899 4.88211 7.95472C4.82868 7.85151 4.75389 7.7483 4.61498 7.77778C4.47964 7.81096 4.44758 7.93629 4.44402 8.05425C4.43689 8.2275 4.42977 8.40812 4.46182 8.57768C4.53662 8.99053 4.65416 9.39232 4.80375 9.78674C5.03526 10.4023 5.42704 10.8778 5.96842 11.2317C6.00759 11.2575 6.04677 11.2759 6.09308 11.2981C6.15719 11.1985 6.21417 11.1101 6.27471 11.0179ZM8.89968 11.3939C8.93886 11.3791 8.96735 11.3755 8.99228 11.3607C9.49091 11.0437 9.8827 10.6272 10.1213 10.0706C10.3137 9.63192 10.4383 9.17115 10.5345 8.70301C10.5701 8.53345 10.5915 8.35651 10.5559 8.17957C10.5416 8.11322 10.5274 8.04319 10.4989 7.98421C10.4419 7.86257 10.3101 7.83677 10.2139 7.93261C10.1534 7.99159 10.1035 8.06899 10.0679 8.1464C10.0038 8.28647 9.95393 8.4376 9.90407 8.58136C9.76872 8.96472 9.64406 9.35546 9.49091 9.73513C9.29502 10.2254 9.07064 10.6972 8.70735 11.1027C8.77502 11.2022 8.83913 11.2981 8.89968 11.3939ZM12.8353 13.7751C12.7605 13.683 12.7285 13.624 12.6786 13.5835C12.5718 13.5024 12.4614 13.425 12.3474 13.3549C11.7277 12.9789 11.0509 12.7873 10.3493 12.6546C9.95393 12.5808 9.5479 12.6398 9.17393 12.4887C9.11694 12.555 9.10269 12.6066 9.16324 12.6509C9.1953 12.673 9.23092 12.6877 9.26653 12.6988C9.58352 12.7909 9.86489 12.9531 10.1605 13.0969C10.5309 13.2775 10.9049 13.4508 11.286 13.6093C11.5887 13.7346 11.9022 13.8231 12.2298 13.8526C12.4186 13.871 12.6074 13.8562 12.8353 13.7751ZM2.17166 13.6793C2.44235 13.7641 2.67742 13.7788 2.91962 13.7346C3.29003 13.6609 3.64264 13.5429 3.99169 13.4065C4.59005 13.1706 5.12429 12.7909 5.74046 12.5882C5.81526 12.5624 5.82594 12.4961 5.77608 12.4186C5.64786 12.4408 5.52676 12.4776 5.40566 12.4776C5.0673 12.4776 4.73963 12.5403 4.4084 12.603C3.77086 12.7209 3.16893 12.9347 2.61331 13.2775C2.49221 13.3512 2.37824 13.4434 2.26427 13.5355C2.22865 13.5613 2.2144 13.6093 2.17166 13.6793ZM9.11337 12.0758C9.1205 12.098 9.12762 12.1164 9.13831 12.1385C9.27009 12.1274 9.40544 12.1311 9.53366 12.1053C10.5523 11.9136 11.3466 11.346 12.0162 10.5682C12.0731 10.5019 12.1088 10.4207 12.1479 10.3433C12.1764 10.2844 12.1408 10.2143 12.0767 10.2106C11.9734 10.207 11.8666 10.2033 11.7633 10.2217C11.5389 10.2622 11.3537 10.3839 11.1792 10.524C10.8159 10.8115 10.4526 11.1027 10.0964 11.3976C9.81147 11.6335 9.52297 11.8547 9.18461 12.0058C9.15612 12.0169 9.13831 12.05 9.11337 12.0758ZM5.85444 12.0242C5.88293 11.9468 5.85444 11.9173 5.80102 11.8952C5.48046 11.7551 5.20266 11.545 4.93553 11.3239C4.6221 11.0658 4.30868 10.8078 3.99169 10.5535C3.86347 10.4502 3.72811 10.3581 3.59277 10.2622C3.44674 10.1627 3.27935 10.1148 3.10839 10.0927C3.01222 10.0816 2.91606 10.0779 2.83414 10.1664C2.85551 10.3397 2.96948 10.4613 3.07633 10.5829C3.37195 10.9073 3.69606 11.1948 4.06291 11.4344C4.46182 11.6962 4.89279 11.8842 5.35581 11.9837C5.5232 12.0205 5.6906 12.0316 5.85444 12.0242ZM8.97447 13.2886C9.05995 13.3697 9.12406 13.4434 9.1953 13.5061C9.51585 13.7862 9.83284 14.07 10.157 14.3465C10.3386 14.505 10.5238 14.6635 10.7126 14.8109C10.8194 14.892 10.937 14.9658 11.0581 15.0174C11.1507 15.0579 11.2611 15.0727 11.3644 15.0837C11.4641 15.0911 11.5246 15.01 11.489 14.9068C11.4498 14.7962 11.4071 14.6819 11.3359 14.5972C11.1863 14.4202 11.026 14.247 10.8515 14.0958C10.6378 13.9152 10.4027 13.7604 10.1819 13.5872C9.85064 13.3291 9.46955 13.1706 9.0742 13.0084C9.04215 13.1006 9.01365 13.1817 8.97447 13.2886ZM5.79745 12.9753C5.7369 12.9937 5.70129 13.0047 5.66567 13.0158C4.97827 13.2996 4.40484 13.753 3.86346 14.2543C3.76017 14.3502 3.67113 14.4755 3.59277 14.5972C3.54647 14.6672 3.5251 14.7557 3.50729 14.8404C3.48948 14.9252 3.5536 14.9916 3.64264 14.9916C3.68894 14.9916 3.7388 14.9805 3.7851 14.9731C3.97743 14.9363 4.14128 14.8331 4.29087 14.7077C4.5295 14.5124 4.761 14.306 4.99607 14.1069C5.25251 13.8857 5.50539 13.6609 5.76183 13.4434C5.80457 13.4065 5.85444 13.377 5.89006 13.3475C5.85444 13.2038 5.82951 13.1006 5.79745 12.9753ZM13.6652 17.6382C13.7079 17.3544 13.6901 16.9747 13.5833 16.466C13.4159 15.6772 13.2556 14.8847 12.9351 14.129C12.8745 14.1364 12.8247 14.1364 12.7819 14.1474C12.7285 14.1585 12.6751 14.1806 12.6145 14.1991C12.6288 14.2728 12.6359 14.3281 12.6466 14.3834C12.7142 14.7483 12.7926 15.1095 12.8425 15.4781C12.903 15.9168 13.0027 16.3407 13.1452 16.7572C13.2307 17.0079 13.3518 17.2401 13.5085 17.4539C13.5441 17.5092 13.5904 17.5571 13.6652 17.6382ZM2.06125 14.0148C2.00426 14.1696 1.95084 14.3023 1.90454 14.4423C1.70508 15.0247 1.5733 15.6256 1.44152 16.2264C1.3596 16.5914 1.32042 16.96 1.30618 17.3286C1.30262 17.3839 1.28481 17.4466 1.36672 17.4908C1.39522 17.4613 1.43083 17.4355 1.45933 17.3986C1.60892 17.207 1.73001 16.9968 1.81549 16.7646C1.96865 16.3628 2.07906 15.9463 2.13604 15.5187C2.19303 15.1022 2.24646 14.6856 2.35331 14.2801C2.37112 14.2175 2.36399 14.1511 2.37112 14.0848C2.26783 14.0627 2.18591 14.0442 2.06125 14.0148ZM4.69689 7.43498C4.70758 7.39811 4.71826 7.37968 4.71826 7.36125C4.70402 6.83044 4.75744 6.30701 4.82867 5.78358C4.85361 5.61033 4.84648 5.4334 4.84292 5.25646C4.83936 5.09427 4.77169 4.9542 4.65415 4.84362C4.50456 4.70354 4.34429 4.72934 4.2695 4.92839C4.21607 5.07215 4.17689 5.22697 4.16621 5.38179C4.11278 6.08216 4.21251 6.7641 4.4547 7.42392C4.46182 7.43866 4.47963 7.44972 4.50812 7.47552C4.56155 7.46446 4.63278 7.44972 4.69689 7.43498ZM10.5202 7.57873C10.5452 7.51607 10.5737 7.46815 10.5915 7.41286C10.8052 6.7641 10.8835 6.10059 10.8265 5.41865C10.8159 5.31176 10.7909 5.20854 10.7624 5.10533C10.7482 5.05004 10.7161 4.99843 10.6841 4.95051C10.6093 4.84729 10.5096 4.83256 10.4063 4.9026C10.2389 5.01318 10.1605 5.17905 10.1498 5.37073C10.1391 5.53661 10.1534 5.70249 10.1676 5.86836C10.1926 6.17063 10.2353 6.4692 10.2602 6.77146C10.278 7.02212 10.2816 7.27646 10.2887 7.54187C10.3671 7.54924 10.4383 7.56399 10.5202 7.57873ZM6.93363 16.4218C6.87308 16.8199 7.19719 18.0548 7.47856 18.486C7.82049 18.0326 8.10542 16.9821 8.01638 16.5176C7.61747 16.7351 7.43582 16.842 6.93363 16.4218ZM7.41089 13.565C7.06185 14.0295 6.80897 15.0174 6.91226 15.5629C6.95144 15.5224 6.9835 15.4892 7.01555 15.456C7.30048 15.1648 7.57117 15.1353 7.92377 15.3454C7.95939 15.3676 7.99857 15.3823 8.04487 15.4007C8.00925 14.7372 7.69939 13.8452 7.41089 13.565ZM2.94099 9.76093C2.90181 9.49922 2.86975 9.24856 2.82345 9.00159C2.75221 8.58874 2.67742 8.1722 2.59194 7.76304C2.54564 7.55293 2.47441 7.35019 2.39962 7.14746C2.37112 7.07005 2.31056 7 2.25714 6.93365C2.22508 6.89679 2.15385 6.90786 2.13604 6.95209C2.11467 7.0037 2.08975 7.06267 2.08619 7.11796C2.08262 7.27278 2.07906 7.43129 2.09687 7.58611C2.1681 8.2533 2.36043 8.88732 2.5955 9.51028C2.63468 9.61718 2.67386 9.73144 2.78071 9.81253C2.82345 9.79779 2.87688 9.77936 2.94099 9.76093ZM12.2441 9.90469C12.3474 9.78304 12.4008 9.64666 12.4471 9.50659C12.5646 9.14535 12.6822 8.78411 12.7783 8.41549C12.8674 8.07637 12.9208 7.72618 12.9173 7.37231C12.9173 7.27647 12.903 7.17694 12.8852 7.08479C12.8709 7.01475 12.7677 6.99263 12.7249 7.04792C12.6679 7.12533 12.6109 7.20643 12.5789 7.2949C12.5077 7.50501 12.4293 7.71881 12.3901 7.93998C12.2726 8.56294 12.1729 9.18958 12.066 9.81253C12.0624 9.82728 12.0803 9.84572 12.0909 9.87889C12.1372 9.88995 12.1907 9.89732 12.2441 9.90469ZM3.56072 18.3828C3.60346 18.3238 3.6462 18.2796 3.66044 18.2317C3.6925 18.1285 3.721 18.0253 3.73525 17.9184C3.80648 17.4539 3.8136 16.9858 3.7851 16.514C3.76373 16.1453 3.74949 15.773 3.72812 15.4044C3.72812 15.386 3.71387 15.3713 3.69606 15.3381C3.64264 15.3381 3.57853 15.3381 3.50729 15.3381C3.48948 15.4118 3.47167 15.4781 3.46099 15.5445C3.36126 16.3407 3.37908 17.1443 3.40045 17.9442C3.40401 18.0584 3.43962 18.1727 3.47167 18.287C3.48236 18.3165 3.52154 18.3386 3.56072 18.3828ZM11.4961 15.4229C11.4 15.4339 11.3394 15.4413 11.2896 15.445C11.2646 15.8468 11.2504 16.2264 11.2148 16.6061C11.172 17.0484 11.1898 17.4871 11.2433 17.9257C11.2611 18.0806 11.3074 18.2317 11.3537 18.3791C11.3644 18.416 11.4107 18.4455 11.4534 18.4934C11.489 18.4308 11.5246 18.3939 11.5353 18.3497C11.5603 18.2464 11.5816 18.1395 11.5887 18.0326C11.6279 17.3581 11.6101 16.6835 11.5674 16.0053C11.5567 15.821 11.5246 15.6403 11.4961 15.4229ZM8.96734 17.6898C9.14543 17.465 9.24516 17.2217 9.28077 16.96C9.38762 16.1269 9.36982 15.3049 9.08845 14.505C9.0742 14.4608 9.04214 14.4202 9.01721 14.376C8.99584 14.4829 9.00653 14.5787 9.02078 14.6746C9.06352 14.9547 9.1205 15.2312 9.11337 15.5187C9.10625 15.821 9.10981 16.1232 9.092 16.4255C9.08132 16.6393 9.04214 16.8531 9.01721 17.0632C8.99584 17.2364 8.97448 17.4097 8.9531 17.5866C8.94954 17.6198 8.96022 17.653 8.96734 17.6898ZM6.05034 17.4502C6.04321 17.3618 6.04677 17.2991 6.03252 17.2364C5.97554 17.0079 5.91499 16.783 5.85444 16.5582C5.67279 15.9205 5.6443 15.2717 5.75115 14.6156C5.75827 14.5787 5.78676 14.5271 5.72978 14.4976C5.35936 15.2091 5.52677 16.8162 6.05034 17.4502ZM6.23554 13.1485C6.24979 13.1632 6.26047 13.178 6.27471 13.1927C6.32102 13.1632 6.36733 13.1301 6.41719 13.1006C6.6024 12.9789 6.79828 12.8757 7.01198 12.8131C7.49994 12.673 7.95939 12.7098 8.36187 13.0637C8.4046 13.1006 8.4509 13.1374 8.50076 13.1669C8.53994 13.189 8.58625 13.2149 8.63968 13.1669C8.63968 13.0453 8.56132 12.9642 8.47228 12.8868C8.15529 12.6177 7.78843 12.5034 7.37884 12.555C6.92294 12.6103 6.53828 12.8057 6.23554 13.1485ZM8.34405 11.0879C8.29419 10.9368 8.18377 10.8963 8.07692 10.8631C7.64952 10.7378 7.22568 10.7488 6.80897 10.9073C6.77335 10.9221 6.74487 10.9589 6.67363 11.0179C6.79117 11.0032 6.85527 10.9995 6.91938 10.9884C7.28267 10.9258 7.64241 10.9479 7.99501 11.0548C8.10186 11.0916 8.20871 11.158 8.34405 11.0879ZM6.40294 15.2422C6.25691 15.6293 6.30677 16.0274 6.36376 16.4218C6.378 16.5287 6.41006 16.643 6.52404 16.7425C6.53828 16.6761 6.55253 16.6393 6.54897 16.6061C6.50267 16.1527 6.44924 15.6956 6.40294 15.2422ZM7.19363 11.8252C7.63528 11.8141 7.99858 11.8805 8.35475 11.9874C8.40105 12.0021 8.44734 12.0095 8.49365 12.0132C8.5257 12.0169 8.55775 12.0095 8.61118 12.0058C8.21583 11.6962 7.62816 11.6114 7.19363 11.8252ZM8.39748 15.0764C8.45091 14.6967 8.44378 14.5824 8.30488 14.1806C8.25857 14.0405 8.22652 13.8894 8.08405 13.7493C8.16597 14.1917 8.2372 14.5898 8.312 14.9879C8.31556 15.0137 8.33693 15.0395 8.35118 15.0653C8.35474 15.069 8.36899 15.069 8.39748 15.0764ZM8.03063 18.4271C8.30844 18.1174 8.45802 17.6567 8.43309 17.2143C8.40816 17.2328 8.37255 17.2438 8.36543 17.2659C8.25502 17.6419 8.08049 17.9995 8.03063 18.4271ZM7.46076 11.3497C7.53912 11.4197 7.63528 11.4086 7.72432 11.4234C7.81692 11.4381 7.91309 11.4566 8.0057 11.475C8.10899 11.4971 8.20871 11.5266 8.312 11.545C8.40104 11.5598 8.48653 11.6187 8.59694 11.5671C8.53639 11.4381 8.42598 11.3976 8.31913 11.3718C8.03775 11.3017 7.75282 11.2833 7.46076 11.3497ZM6.74486 13.8526C6.55609 14.118 6.50267 14.3207 6.55609 14.5898C6.6665 14.3539 6.75554 14.129 6.74486 13.8526ZM6.6487 17.4687C6.67719 17.852 6.7698 18.0953 6.95144 18.2391C6.9087 17.9589 6.80185 17.7193 6.6487 17.4687ZM6.75554 12.356C6.49554 12.3634 6.27115 12.4334 6.13225 12.6804C6.33883 12.5698 6.54897 12.4629 6.75554 12.356ZM8.45803 16.3776C8.55775 16.2301 8.56131 16.0716 8.52213 15.9094C8.51501 15.8762 8.47583 15.8505 8.42241 15.7878C8.41172 16.0163 8.39035 16.1969 8.45803 16.3776ZM6.32102 11.5745C6.51691 11.534 6.70924 11.5082 6.92294 11.3791C6.64513 11.3091 6.46705 11.4013 6.32102 11.5745ZM8.07692 12.179C8.25857 12.2565 8.41885 12.4002 8.65748 12.4186C8.50077 12.2048 8.29062 12.1864 8.07692 12.179ZM6.61664 11.9063C6.32815 11.9726 6.32815 11.9726 6.23554 12.0943C6.3602 12.0685 6.46705 12.0279 6.61664 11.9063ZM7.1224 12.168C7.26842 12.2233 7.3824 12.2233 7.52843 12.1532C7.37884 12.1127 7.26486 12.1016 7.1224 12.168Z"/>
</mask>
<path d="M6.69856 7.89574C6.7413 7.94366 6.77691 7.97683 6.79828 8.01369C6.89445 8.20906 6.94432 8.41548 6.93007 8.63665C6.91583 8.87994 6.90513 9.12692 6.89801 9.3702C6.89089 9.60243 6.89801 9.83465 6.99774 10.0558C7.61391 9.67246 7.66734 9.80885 8.01995 10.0116C8.03419 9.98947 8.05556 9.96736 8.05912 9.94524C8.08049 9.83097 8.11255 9.71301 8.11611 9.59874C8.11967 9.40338 8.10542 9.20801 8.10186 9.01265C8.0983 8.88732 8.0983 8.7583 8.10542 8.63297C8.12323 8.34177 8.29063 8.15008 8.51145 7.99158C8.53994 7.96946 8.57913 7.96209 8.61831 7.95103C8.66461 7.93998 8.71803 7.9879 8.71447 8.03582C8.70734 8.10217 8.6931 8.1722 8.67885 8.23855C8.61474 8.51133 8.61475 8.76936 8.7216 9.04213C8.87831 9.43655 8.93885 9.85309 8.88187 10.2807C8.87474 10.3249 8.88187 10.3728 8.88187 10.4244C8.97091 10.3986 8.98516 10.3249 9.00653 10.2659C9.15612 9.86414 9.30571 9.46235 9.44462 9.05688C9.5301 8.80622 9.60133 8.55188 9.68325 8.30122C9.76873 8.03951 9.87558 7.78884 10.1178 7.6119C10.0822 7.30964 10.0465 7.00738 10.0074 6.70881C9.9753 6.46552 9.93612 6.22592 9.89338 5.98263C9.83283 5.62139 9.80435 5.26384 9.96462 4.93577C9.94681 4.89522 9.94325 4.8731 9.93257 4.86204C9.44106 4.35335 9.1027 3.73777 8.76434 3.12218C8.57557 2.77937 8.44734 2.40707 8.37967 2.02003C8.34761 1.8394 8.34762 1.65141 8.3405 1.46341C8.33693 1.40444 8.34761 1.34546 8.3583 1.29016C8.37611 1.19432 8.4331 1.14272 8.50789 1.13535C8.58269 1.12797 8.64324 1.17589 8.67173 1.26805C8.67885 1.29754 8.68597 1.32334 8.68953 1.35283C8.85337 2.1859 9.23804 2.89364 9.83284 3.48343C10.0465 3.69354 10.2709 3.89627 10.4811 4.11006C10.6378 4.26857 10.8016 4.42339 10.8586 4.65193C10.8657 4.67773 10.8871 4.70354 10.9049 4.72566C11.0509 4.91734 11.1008 5.14588 11.1257 5.38179C11.2005 6.20749 11.0723 7.00001 10.7589 7.78147C10.9298 8.13166 10.9227 8.50765 10.8265 8.88732C10.7375 9.2375 10.6449 9.58768 10.5202 9.9268C10.2567 10.6567 9.77941 11.2243 9.14543 11.6519C9.03858 11.7257 9.03859 11.7257 9.08845 11.8694C9.13119 11.8473 9.17748 11.8362 9.2131 11.8067C9.41612 11.6446 9.6227 11.4824 9.81859 11.3128C10.1641 11.0142 10.4989 10.7083 10.8444 10.4134C11.1471 10.1517 11.4641 9.91575 11.8915 9.88257C11.8951 9.79779 11.8986 9.73144 11.8986 9.66509C11.8915 8.89837 11.9698 8.13903 12.18 7.4018C12.2334 7.21381 12.2904 7.02581 12.4008 6.86362C12.4507 6.78989 12.4542 6.71987 12.4222 6.64246C12.3438 6.46552 12.2726 6.28121 12.1764 6.11165C12.0126 5.81307 11.8274 5.52555 11.6564 5.23066C11.4961 4.95051 11.3394 4.67036 11.1934 4.38653C11.0759 4.16167 11.0011 3.91838 10.969 3.66035C10.9476 3.49448 10.9548 3.32861 10.9939 3.16273C11.0046 3.1185 11.026 3.07057 11.0509 3.03003C11.1044 2.95262 11.2219 2.95261 11.2718 3.03739C11.3038 3.09637 11.3287 3.16273 11.343 3.22539C11.457 3.79306 11.7134 4.29069 12.0589 4.74777C12.2049 4.94314 12.3509 5.1385 12.4934 5.33387C12.6893 5.60296 12.8603 5.88311 12.9956 6.18906C13.0668 6.34756 13.131 6.51343 13.1488 6.69037C13.1523 6.73092 13.1559 6.77146 13.1701 6.80464C13.3304 7.16219 13.2805 7.5345 13.2236 7.90311C13.1274 8.5445 12.9101 9.15272 12.6822 9.75724C12.6501 9.83834 12.6145 9.91944 12.5682 9.99316C12.5041 10.0927 12.4649 10.1922 12.4542 10.3175C12.4471 10.4097 12.4008 10.5055 12.3545 10.5866C12.2975 10.6862 12.2263 10.782 12.1479 10.8668C11.6564 11.4123 11.1008 11.8731 10.4241 12.168C10.3707 12.1901 10.3208 12.2196 10.2709 12.2454C10.2638 12.2491 10.2638 12.2638 10.2531 12.2896C10.3528 12.3154 10.4526 12.3412 10.5523 12.3597C11.2575 12.4887 11.9235 12.7246 12.5397 13.1043C12.6786 13.1891 12.814 13.2849 12.9386 13.3918C13.0526 13.4876 13.1345 13.6056 13.1452 13.7641C13.1488 13.812 13.163 13.8599 13.1844 13.9005C13.3732 14.2359 13.48 14.6045 13.5762 14.9695C13.7471 15.6219 13.9074 16.278 13.9679 16.9526C13.9964 17.2733 13.9929 17.5977 14 17.9184C14 17.9774 13.9858 18.0363 13.9715 18.0916C13.7151 19.0832 13.2948 19.9826 12.5825 20.7272C12.1693 21.1585 11.8381 21.6488 11.6208 22.2127C11.603 22.257 11.5852 22.3086 11.5531 22.3381C11.5211 22.3676 11.4712 22.3934 11.4285 22.3934C11.3644 22.3934 11.3323 22.3381 11.3181 22.2754C11.3109 22.2459 11.3145 22.2164 11.3181 22.1869C11.3465 21.9031 11.4 21.6266 11.5282 21.3686C11.7633 20.8968 12.0161 20.436 12.3296 20.0121C12.497 19.7873 12.6644 19.5587 12.8211 19.3228C13.0846 18.9321 13.2699 18.5045 13.3447 18.029C13.3696 17.8778 13.3589 17.7525 13.2556 17.6198C12.9244 17.1959 12.7783 16.6872 12.6786 16.1638C12.6216 15.8652 12.6003 15.5629 12.5611 15.2607C12.5255 14.951 12.4898 14.6377 12.4542 14.3281C12.4507 14.2912 12.4364 14.2543 12.4257 14.1954C12.0019 14.1917 11.6101 14.0442 11.1934 13.9521C11.2539 14.0111 11.3181 14.07 11.3715 14.1364C11.4819 14.2728 11.5959 14.4055 11.692 14.5492C11.7918 14.6967 11.8345 14.8663 11.8131 15.0506C11.806 15.128 11.8096 15.2054 11.8203 15.2828C11.8523 15.585 11.9129 15.8836 11.9235 16.1859C11.9414 16.7425 11.9307 17.3028 11.9271 17.8594C11.9235 18.1432 11.8986 18.4271 11.7276 18.6703C11.7063 18.6998 11.6992 18.7441 11.6956 18.7809C11.5887 19.5219 11.2504 20.1485 10.7696 20.7051C10.6413 20.8526 10.506 20.9889 10.3778 21.1327C10.2424 21.2838 10.1 21.4313 9.97174 21.5898C9.68681 21.9326 9.49448 22.3233 9.45174 22.7767C9.44818 22.8246 9.43749 22.8726 9.41968 22.9168C9.39475 22.9758 9.34845 23.0089 9.28077 22.9979C9.21666 22.9905 9.17393 22.9536 9.16681 22.8873C9.15969 22.8209 9.15969 22.7509 9.16681 22.6809C9.20243 22.257 9.2879 21.8441 9.49804 21.4755C9.67256 21.1732 9.86133 20.8784 10.0501 20.5798C10.278 20.2185 10.5131 19.861 10.7411 19.496C10.8978 19.2454 10.9975 18.9726 11.0438 18.6777C11.0581 18.5893 11.0581 18.5082 11.0331 18.4197C10.8942 17.9515 10.8764 17.476 10.9227 16.9932C10.9476 16.7019 11.0011 16.4107 11.0402 16.1195C11.0723 15.8873 11.1044 15.6551 11.1364 15.4155C11.0723 15.3823 11.026 15.3528 10.9726 15.3344C10.7909 15.2607 10.6271 15.1611 10.4811 15.0321C10.1997 14.7778 9.92901 14.5161 9.65476 14.258C9.58708 14.1917 9.52297 14.1253 9.4268 14.0295C9.43037 14.1696 9.48379 14.2507 9.51941 14.3354C9.8364 15.0542 9.90408 15.8099 9.7901 16.5766C9.70106 17.1922 9.44105 17.7341 9.00296 18.1764C8.79282 18.3902 8.57557 18.6003 8.36187 18.8104C8.08049 19.0832 7.85611 19.3965 7.69583 19.7578C7.65665 19.8462 7.61035 19.9347 7.56405 20.0195C7.52844 20.0821 7.47145 20.119 7.39665 20.108C7.33254 20.0969 7.30048 20.049 7.27911 19.9937C7.11527 19.5735 6.88733 19.1901 6.62733 18.8252C6.44568 18.5745 6.24978 18.3312 6.06458 18.0806C5.61581 17.4871 5.34156 16.8162 5.23114 16.0753C5.15635 15.5814 5.22403 15.0985 5.34869 14.623C5.39855 14.4276 5.46978 14.2359 5.53746 14.0111C5.45197 14.0332 5.41992 14.0885 5.37717 14.129C5.13142 14.3649 4.89279 14.6008 4.64347 14.8331C4.44402 15.0174 4.21963 15.1722 3.96319 15.2607C3.93826 15.268 3.91689 15.2902 3.88483 15.316C3.91332 15.6367 3.96319 15.9537 4.01661 16.2707C4.11634 16.8531 4.14839 17.4392 4.04866 18.0253C4.03798 18.0842 4.03443 18.1432 4.01306 18.1985C3.92401 18.4013 3.96319 18.6003 4.01306 18.7994C4.07004 19.0279 4.16976 19.2417 4.29442 19.4407C4.49388 19.7651 4.70401 20.0785 4.90703 20.3991C5.10648 20.7125 5.3095 21.0184 5.49471 21.3391C5.72265 21.7335 5.82238 22.1722 5.84375 22.6293C5.84732 22.6883 5.85087 22.7509 5.8295 22.8025C5.81526 22.8431 5.76896 22.8873 5.73334 22.8947C5.69416 22.9021 5.63362 22.8762 5.61225 22.8431C5.58019 22.7878 5.55882 22.7177 5.55169 22.6514C5.51252 22.2054 5.32019 21.8257 5.04238 21.4903C4.87498 21.2875 4.68621 21.1032 4.51881 20.9042C4.31223 20.6609 4.10566 20.4139 3.90976 20.1596C3.59634 19.7504 3.42894 19.2712 3.33277 18.7662C3.3114 18.6593 3.28647 18.5635 3.22948 18.4676C3.17606 18.3791 3.15112 18.2686 3.12619 18.1653C3.10482 18.0695 3.09058 17.9737 3.08702 17.8741C3.05852 17.0632 3.03715 16.2486 3.13687 15.4376C3.144 15.3712 3.15825 15.3012 3.17606 15.2349C3.20099 15.1317 3.21879 15.0321 3.19386 14.9179C3.15825 14.7593 3.21167 14.6045 3.29715 14.4718C3.39688 14.317 3.51441 14.1732 3.62839 14.0295C3.68181 13.9631 3.74236 13.9042 3.83853 13.7973C3.58209 13.8747 3.38619 13.941 3.18318 13.9889C2.98729 14.0369 2.78784 14.0627 2.57413 14.0995C2.56345 14.1511 2.5492 14.2064 2.54208 14.2617C2.48509 14.7593 2.43878 15.2533 2.37824 15.7509C2.33193 16.1306 2.23221 16.4992 2.10042 16.8568C2.00782 17.1074 1.88316 17.336 1.71933 17.5461C1.64453 17.6382 1.63029 17.7304 1.6481 17.8447C1.70864 18.2575 1.83331 18.6445 2.05413 18.9984C2.21441 19.2528 2.38537 19.5034 2.56345 19.743C2.89825 20.189 3.17962 20.6646 3.42894 21.1622C3.56784 21.435 3.64619 21.7262 3.68181 22.0284C3.68537 22.0764 3.6925 22.1316 3.67826 22.1722C3.66401 22.2127 3.62126 22.257 3.58208 22.2643C3.54291 22.2717 3.48593 22.2533 3.45743 22.2238C3.41826 22.1832 3.39332 22.128 3.37551 22.0727C3.16537 21.5271 2.84838 21.0516 2.44591 20.6351C1.73357 19.8942 1.30261 19.0021 1.04617 18.0068C1.01768 17.8963 1.00699 17.7783 1.00343 17.6603C0.974938 16.8678 1.12809 16.1011 1.30618 15.3381C1.39878 14.9289 1.50919 14.5234 1.65878 14.129C1.70152 14.0184 1.75494 13.9152 1.79769 13.8083C1.81906 13.7567 1.84755 13.7014 1.85111 13.6461C1.86536 13.4876 1.94371 13.366 2.05769 13.2701C2.16454 13.1743 2.28208 13.0858 2.40673 13.0121C2.98017 12.6619 3.58921 12.4113 4.24812 12.2786C4.36209 12.2565 4.47607 12.2343 4.58648 12.2085C4.63991 12.1975 4.69333 12.1754 4.78237 12.1422C4.69333 12.0979 4.63991 12.0648 4.57936 12.039C3.90264 11.7441 3.35058 11.2833 2.85551 10.7378C2.77715 10.653 2.70947 10.5534 2.64893 10.4576C2.60619 10.3913 2.55988 10.3175 2.55988 10.2438C2.55632 10.0669 2.47797 9.92681 2.39605 9.78674C2.36756 9.73513 2.34263 9.68352 2.32126 9.62823C2.09687 9.01264 1.86892 8.40075 1.77988 7.74461C1.75494 7.55293 1.74782 7.35388 1.73714 7.15851C1.73358 7.09216 1.73714 7.01843 1.75139 6.95577C1.86536 6.48026 1.97577 6.00474 2.25714 5.59558C2.38892 5.4039 2.52071 5.20854 2.65606 5.02054C2.79852 4.82149 2.94455 4.62982 3.08702 4.43077C3.36127 4.04372 3.5536 3.62349 3.65332 3.15535C3.66757 3.089 3.68538 3.02265 3.71031 2.95999C3.73524 2.88995 3.80291 2.84203 3.86346 2.85309C3.92401 2.86415 3.97388 2.89365 3.99169 2.95631C4.01306 3.04109 4.03799 3.12587 4.04511 3.21433C4.0736 3.51291 4.02018 3.80044 3.89908 4.07321C3.79579 4.30544 3.68182 4.53398 3.55716 4.75146C3.3399 5.13113 3.11194 5.50711 2.89112 5.8831C2.75221 6.11901 2.62399 6.35861 2.55988 6.63139C2.83413 7.0811 2.93387 7.58979 3.01222 8.10217C3.09058 8.60717 3.13331 9.11217 3.11551 9.62455C3.11551 9.65404 3.12263 9.68353 3.12619 9.72776C3.15468 9.73882 3.19031 9.75724 3.22236 9.76461C3.52511 9.8199 3.78155 9.96736 4.01306 10.1627C4.40128 10.4982 4.78593 10.8373 5.17416 11.1727C5.37361 11.3423 5.57663 11.5045 5.77965 11.6704C5.81526 11.6998 5.858 11.7183 5.91855 11.7551C5.93992 11.6998 5.95417 11.6556 5.97198 11.6077C5.93993 11.5819 5.91143 11.5524 5.87937 11.534C5.26676 11.1285 4.80731 10.5903 4.52237 9.90101C4.34429 9.46604 4.21963 9.01633 4.14127 8.55188C4.08785 8.24224 4.11278 7.94735 4.25168 7.65246C4.06648 7.24698 3.96676 6.81202 3.90265 6.366C3.84566 5.97526 3.84565 5.58452 3.88483 5.19379C3.9062 4.98 3.95963 4.76989 4.1021 4.59664C4.25525 4.18379 4.58293 3.92208 4.88211 3.63456C4.97471 3.54609 5.06375 3.4613 5.15635 3.37283C5.64786 2.90838 5.97197 2.33703 6.19636 1.70301C6.24978 1.55556 6.27828 1.40075 6.31033 1.24962C6.35307 1.06163 6.4065 0.984214 6.4991 1.00265C6.65225 1.02845 6.64514 1.16483 6.66295 1.27542C6.69856 1.50396 6.65582 1.72513 6.61308 1.9463C6.54541 2.2928 6.42787 2.62455 6.2676 2.93787C6.03252 3.39864 5.76896 3.84098 5.46622 4.2612C5.33443 4.44182 5.1884 4.60769 5.03881 4.78831C5.19909 5.14956 5.16348 5.52555 5.10293 5.90523C5.03882 6.3107 4.97827 6.71618 4.92128 7.12534C4.90347 7.23961 4.90348 7.35757 4.89279 7.4829C5.13142 7.66721 5.23828 7.92523 5.32732 8.198C5.50896 8.75461 5.69417 9.31123 5.87937 9.86784C5.89718 9.91944 5.92567 9.97104 5.9791 10.0816C6.01472 9.66509 6.18212 9.36283 6.33527 9.05319C6.42431 8.87994 6.48485 8.69195 6.52047 8.50027C6.55253 8.32702 6.59883 8.15746 6.64157 7.9879C6.64513 7.97684 6.67006 7.94735 6.69856 7.89574ZM6.27471 11.0179C6.13937 10.8189 6.01115 10.6456 5.90074 10.465C5.70485 10.1406 5.5517 9.79411 5.41991 9.43655C5.28457 9.06056 5.15991 8.68089 5.02813 8.3049C4.98539 8.18694 4.93909 8.06899 4.88211 7.95472C4.82868 7.85151 4.75389 7.7483 4.61498 7.77778C4.47964 7.81096 4.44758 7.93629 4.44402 8.05425C4.43689 8.2275 4.42977 8.40812 4.46182 8.57768C4.53662 8.99053 4.65416 9.39232 4.80375 9.78674C5.03526 10.4023 5.42704 10.8778 5.96842 11.2317C6.00759 11.2575 6.04677 11.2759 6.09308 11.2981C6.15719 11.1985 6.21417 11.1101 6.27471 11.0179ZM8.89968 11.3939C8.93886 11.3791 8.96735 11.3755 8.99228 11.3607C9.49091 11.0437 9.8827 10.6272 10.1213 10.0706C10.3137 9.63192 10.4383 9.17115 10.5345 8.70301C10.5701 8.53345 10.5915 8.35651 10.5559 8.17957C10.5416 8.11322 10.5274 8.04319 10.4989 7.98421C10.4419 7.86257 10.3101 7.83677 10.2139 7.93261C10.1534 7.99159 10.1035 8.06899 10.0679 8.1464C10.0038 8.28647 9.95393 8.4376 9.90407 8.58136C9.76872 8.96472 9.64406 9.35546 9.49091 9.73513C9.29502 10.2254 9.07064 10.6972 8.70735 11.1027C8.77502 11.2022 8.83913 11.2981 8.89968 11.3939ZM12.8353 13.7751C12.7605 13.683 12.7285 13.624 12.6786 13.5835C12.5718 13.5024 12.4614 13.425 12.3474 13.3549C11.7277 12.9789 11.0509 12.7873 10.3493 12.6546C9.95393 12.5808 9.5479 12.6398 9.17393 12.4887C9.11694 12.555 9.10269 12.6066 9.16324 12.6509C9.1953 12.673 9.23092 12.6877 9.26653 12.6988C9.58352 12.7909 9.86489 12.9531 10.1605 13.0969C10.5309 13.2775 10.9049 13.4508 11.286 13.6093C11.5887 13.7346 11.9022 13.8231 12.2298 13.8526C12.4186 13.871 12.6074 13.8562 12.8353 13.7751ZM2.17166 13.6793C2.44235 13.7641 2.67742 13.7788 2.91962 13.7346C3.29003 13.6609 3.64264 13.5429 3.99169 13.4065C4.59005 13.1706 5.12429 12.7909 5.74046 12.5882C5.81526 12.5624 5.82594 12.4961 5.77608 12.4186C5.64786 12.4408 5.52676 12.4776 5.40566 12.4776C5.0673 12.4776 4.73963 12.5403 4.4084 12.603C3.77086 12.7209 3.16893 12.9347 2.61331 13.2775C2.49221 13.3512 2.37824 13.4434 2.26427 13.5355C2.22865 13.5613 2.2144 13.6093 2.17166 13.6793ZM9.11337 12.0758C9.1205 12.098 9.12762 12.1164 9.13831 12.1385C9.27009 12.1274 9.40544 12.1311 9.53366 12.1053C10.5523 11.9136 11.3466 11.346 12.0162 10.5682C12.0731 10.5019 12.1088 10.4207 12.1479 10.3433C12.1764 10.2844 12.1408 10.2143 12.0767 10.2106C11.9734 10.207 11.8666 10.2033 11.7633 10.2217C11.5389 10.2622 11.3537 10.3839 11.1792 10.524C10.8159 10.8115 10.4526 11.1027 10.0964 11.3976C9.81147 11.6335 9.52297 11.8547 9.18461 12.0058C9.15612 12.0169 9.13831 12.05 9.11337 12.0758ZM5.85444 12.0242C5.88293 11.9468 5.85444 11.9173 5.80102 11.8952C5.48046 11.7551 5.20266 11.545 4.93553 11.3239C4.6221 11.0658 4.30868 10.8078 3.99169 10.5535C3.86347 10.4502 3.72811 10.3581 3.59277 10.2622C3.44674 10.1627 3.27935 10.1148 3.10839 10.0927C3.01222 10.0816 2.91606 10.0779 2.83414 10.1664C2.85551 10.3397 2.96948 10.4613 3.07633 10.5829C3.37195 10.9073 3.69606 11.1948 4.06291 11.4344C4.46182 11.6962 4.89279 11.8842 5.35581 11.9837C5.5232 12.0205 5.6906 12.0316 5.85444 12.0242ZM8.97447 13.2886C9.05995 13.3697 9.12406 13.4434 9.1953 13.5061C9.51585 13.7862 9.83284 14.07 10.157 14.3465C10.3386 14.505 10.5238 14.6635 10.7126 14.8109C10.8194 14.892 10.937 14.9658 11.0581 15.0174C11.1507 15.0579 11.2611 15.0727 11.3644 15.0837C11.4641 15.0911 11.5246 15.01 11.489 14.9068C11.4498 14.7962 11.4071 14.6819 11.3359 14.5972C11.1863 14.4202 11.026 14.247 10.8515 14.0958C10.6378 13.9152 10.4027 13.7604 10.1819 13.5872C9.85064 13.3291 9.46955 13.1706 9.0742 13.0084C9.04215 13.1006 9.01365 13.1817 8.97447 13.2886ZM5.79745 12.9753C5.7369 12.9937 5.70129 13.0047 5.66567 13.0158C4.97827 13.2996 4.40484 13.753 3.86346 14.2543C3.76017 14.3502 3.67113 14.4755 3.59277 14.5972C3.54647 14.6672 3.5251 14.7557 3.50729 14.8404C3.48948 14.9252 3.5536 14.9916 3.64264 14.9916C3.68894 14.9916 3.7388 14.9805 3.7851 14.9731C3.97743 14.9363 4.14128 14.8331 4.29087 14.7077C4.5295 14.5124 4.761 14.306 4.99607 14.1069C5.25251 13.8857 5.50539 13.6609 5.76183 13.4434C5.80457 13.4065 5.85444 13.377 5.89006 13.3475C5.85444 13.2038 5.82951 13.1006 5.79745 12.9753ZM13.6652 17.6382C13.7079 17.3544 13.6901 16.9747 13.5833 16.466C13.4159 15.6772 13.2556 14.8847 12.9351 14.129C12.8745 14.1364 12.8247 14.1364 12.7819 14.1474C12.7285 14.1585 12.6751 14.1806 12.6145 14.1991C12.6288 14.2728 12.6359 14.3281 12.6466 14.3834C12.7142 14.7483 12.7926 15.1095 12.8425 15.4781C12.903 15.9168 13.0027 16.3407 13.1452 16.7572C13.2307 17.0079 13.3518 17.2401 13.5085 17.4539C13.5441 17.5092 13.5904 17.5571 13.6652 17.6382ZM2.06125 14.0148C2.00426 14.1696 1.95084 14.3023 1.90454 14.4423C1.70508 15.0247 1.5733 15.6256 1.44152 16.2264C1.3596 16.5914 1.32042 16.96 1.30618 17.3286C1.30262 17.3839 1.28481 17.4466 1.36672 17.4908C1.39522 17.4613 1.43083 17.4355 1.45933 17.3986C1.60892 17.207 1.73001 16.9968 1.81549 16.7646C1.96865 16.3628 2.07906 15.9463 2.13604 15.5187C2.19303 15.1022 2.24646 14.6856 2.35331 14.2801C2.37112 14.2175 2.36399 14.1511 2.37112 14.0848C2.26783 14.0627 2.18591 14.0442 2.06125 14.0148ZM4.69689 7.43498C4.70758 7.39811 4.71826 7.37968 4.71826 7.36125C4.70402 6.83044 4.75744 6.30701 4.82867 5.78358C4.85361 5.61033 4.84648 5.4334 4.84292 5.25646C4.83936 5.09427 4.77169 4.9542 4.65415 4.84362C4.50456 4.70354 4.34429 4.72934 4.2695 4.92839C4.21607 5.07215 4.17689 5.22697 4.16621 5.38179C4.11278 6.08216 4.21251 6.7641 4.4547 7.42392C4.46182 7.43866 4.47963 7.44972 4.50812 7.47552C4.56155 7.46446 4.63278 7.44972 4.69689 7.43498ZM10.5202 7.57873C10.5452 7.51607 10.5737 7.46815 10.5915 7.41286C10.8052 6.7641 10.8835 6.10059 10.8265 5.41865C10.8159 5.31176 10.7909 5.20854 10.7624 5.10533C10.7482 5.05004 10.7161 4.99843 10.6841 4.95051C10.6093 4.84729 10.5096 4.83256 10.4063 4.9026C10.2389 5.01318 10.1605 5.17905 10.1498 5.37073C10.1391 5.53661 10.1534 5.70249 10.1676 5.86836C10.1926 6.17063 10.2353 6.4692 10.2602 6.77146C10.278 7.02212 10.2816 7.27646 10.2887 7.54187C10.3671 7.54924 10.4383 7.56399 10.5202 7.57873ZM6.93363 16.4218C6.87308 16.8199 7.19719 18.0548 7.47856 18.486C7.82049 18.0326 8.10542 16.9821 8.01638 16.5176C7.61747 16.7351 7.43582 16.842 6.93363 16.4218ZM7.41089 13.565C7.06185 14.0295 6.80897 15.0174 6.91226 15.5629C6.95144 15.5224 6.9835 15.4892 7.01555 15.456C7.30048 15.1648 7.57117 15.1353 7.92377 15.3454C7.95939 15.3676 7.99857 15.3823 8.04487 15.4007C8.00925 14.7372 7.69939 13.8452 7.41089 13.565ZM2.94099 9.76093C2.90181 9.49922 2.86975 9.24856 2.82345 9.00159C2.75221 8.58874 2.67742 8.1722 2.59194 7.76304C2.54564 7.55293 2.47441 7.35019 2.39962 7.14746C2.37112 7.07005 2.31056 7 2.25714 6.93365C2.22508 6.89679 2.15385 6.90786 2.13604 6.95209C2.11467 7.0037 2.08975 7.06267 2.08619 7.11796C2.08262 7.27278 2.07906 7.43129 2.09687 7.58611C2.1681 8.2533 2.36043 8.88732 2.5955 9.51028C2.63468 9.61718 2.67386 9.73144 2.78071 9.81253C2.82345 9.79779 2.87688 9.77936 2.94099 9.76093ZM12.2441 9.90469C12.3474 9.78304 12.4008 9.64666 12.4471 9.50659C12.5646 9.14535 12.6822 8.78411 12.7783 8.41549C12.8674 8.07637 12.9208 7.72618 12.9173 7.37231C12.9173 7.27647 12.903 7.17694 12.8852 7.08479C12.8709 7.01475 12.7677 6.99263 12.7249 7.04792C12.6679 7.12533 12.6109 7.20643 12.5789 7.2949C12.5077 7.50501 12.4293 7.71881 12.3901 7.93998C12.2726 8.56294 12.1729 9.18958 12.066 9.81253C12.0624 9.82728 12.0803 9.84572 12.0909 9.87889C12.1372 9.88995 12.1907 9.89732 12.2441 9.90469ZM3.56072 18.3828C3.60346 18.3238 3.6462 18.2796 3.66044 18.2317C3.6925 18.1285 3.721 18.0253 3.73525 17.9184C3.80648 17.4539 3.8136 16.9858 3.7851 16.514C3.76373 16.1453 3.74949 15.773 3.72812 15.4044C3.72812 15.386 3.71387 15.3713 3.69606 15.3381C3.64264 15.3381 3.57853 15.3381 3.50729 15.3381C3.48948 15.4118 3.47167 15.4781 3.46099 15.5445C3.36126 16.3407 3.37908 17.1443 3.40045 17.9442C3.40401 18.0584 3.43962 18.1727 3.47167 18.287C3.48236 18.3165 3.52154 18.3386 3.56072 18.3828ZM11.4961 15.4229C11.4 15.4339 11.3394 15.4413 11.2896 15.445C11.2646 15.8468 11.2504 16.2264 11.2148 16.6061C11.172 17.0484 11.1898 17.4871 11.2433 17.9257C11.2611 18.0806 11.3074 18.2317 11.3537 18.3791C11.3644 18.416 11.4107 18.4455 11.4534 18.4934C11.489 18.4308 11.5246 18.3939 11.5353 18.3497C11.5603 18.2464 11.5816 18.1395 11.5887 18.0326C11.6279 17.3581 11.6101 16.6835 11.5674 16.0053C11.5567 15.821 11.5246 15.6403 11.4961 15.4229ZM8.96734 17.6898C9.14543 17.465 9.24516 17.2217 9.28077 16.96C9.38762 16.1269 9.36982 15.3049 9.08845 14.505C9.0742 14.4608 9.04214 14.4202 9.01721 14.376C8.99584 14.4829 9.00653 14.5787 9.02078 14.6746C9.06352 14.9547 9.1205 15.2312 9.11337 15.5187C9.10625 15.821 9.10981 16.1232 9.092 16.4255C9.08132 16.6393 9.04214 16.8531 9.01721 17.0632C8.99584 17.2364 8.97448 17.4097 8.9531 17.5866C8.94954 17.6198 8.96022 17.653 8.96734 17.6898ZM6.05034 17.4502C6.04321 17.3618 6.04677 17.2991 6.03252 17.2364C5.97554 17.0079 5.91499 16.783 5.85444 16.5582C5.67279 15.9205 5.6443 15.2717 5.75115 14.6156C5.75827 14.5787 5.78676 14.5271 5.72978 14.4976C5.35936 15.2091 5.52677 16.8162 6.05034 17.4502ZM6.23554 13.1485C6.24979 13.1632 6.26047 13.178 6.27471 13.1927C6.32102 13.1632 6.36733 13.1301 6.41719 13.1006C6.6024 12.9789 6.79828 12.8757 7.01198 12.8131C7.49994 12.673 7.95939 12.7098 8.36187 13.0637C8.4046 13.1006 8.4509 13.1374 8.50076 13.1669C8.53994 13.189 8.58625 13.2149 8.63968 13.1669C8.63968 13.0453 8.56132 12.9642 8.47228 12.8868C8.15529 12.6177 7.78843 12.5034 7.37884 12.555C6.92294 12.6103 6.53828 12.8057 6.23554 13.1485ZM8.34405 11.0879C8.29419 10.9368 8.18377 10.8963 8.07692 10.8631C7.64952 10.7378 7.22568 10.7488 6.80897 10.9073C6.77335 10.9221 6.74487 10.9589 6.67363 11.0179C6.79117 11.0032 6.85527 10.9995 6.91938 10.9884C7.28267 10.9258 7.64241 10.9479 7.99501 11.0548C8.10186 11.0916 8.20871 11.158 8.34405 11.0879ZM6.40294 15.2422C6.25691 15.6293 6.30677 16.0274 6.36376 16.4218C6.378 16.5287 6.41006 16.643 6.52404 16.7425C6.53828 16.6761 6.55253 16.6393 6.54897 16.6061C6.50267 16.1527 6.44924 15.6956 6.40294 15.2422ZM7.19363 11.8252C7.63528 11.8141 7.99858 11.8805 8.35475 11.9874C8.40105 12.0021 8.44734 12.0095 8.49365 12.0132C8.5257 12.0169 8.55775 12.0095 8.61118 12.0058C8.21583 11.6962 7.62816 11.6114 7.19363 11.8252ZM8.39748 15.0764C8.45091 14.6967 8.44378 14.5824 8.30488 14.1806C8.25857 14.0405 8.22652 13.8894 8.08405 13.7493C8.16597 14.1917 8.2372 14.5898 8.312 14.9879C8.31556 15.0137 8.33693 15.0395 8.35118 15.0653C8.35474 15.069 8.36899 15.069 8.39748 15.0764ZM8.03063 18.4271C8.30844 18.1174 8.45802 17.6567 8.43309 17.2143C8.40816 17.2328 8.37255 17.2438 8.36543 17.2659C8.25502 17.6419 8.08049 17.9995 8.03063 18.4271ZM7.46076 11.3497C7.53912 11.4197 7.63528 11.4086 7.72432 11.4234C7.81692 11.4381 7.91309 11.4566 8.0057 11.475C8.10899 11.4971 8.20871 11.5266 8.312 11.545C8.40104 11.5598 8.48653 11.6187 8.59694 11.5671C8.53639 11.4381 8.42598 11.3976 8.31913 11.3718C8.03775 11.3017 7.75282 11.2833 7.46076 11.3497ZM6.74486 13.8526C6.55609 14.118 6.50267 14.3207 6.55609 14.5898C6.6665 14.3539 6.75554 14.129 6.74486 13.8526ZM6.6487 17.4687C6.67719 17.852 6.7698 18.0953 6.95144 18.2391C6.9087 17.9589 6.80185 17.7193 6.6487 17.4687ZM6.75554 12.356C6.49554 12.3634 6.27115 12.4334 6.13225 12.6804C6.33883 12.5698 6.54897 12.4629 6.75554 12.356ZM8.45803 16.3776C8.55775 16.2301 8.56131 16.0716 8.52213 15.9094C8.51501 15.8762 8.47583 15.8505 8.42241 15.7878C8.41172 16.0163 8.39035 16.1969 8.45803 16.3776ZM6.32102 11.5745C6.51691 11.534 6.70924 11.5082 6.92294 11.3791C6.64513 11.3091 6.46705 11.4013 6.32102 11.5745ZM8.07692 12.179C8.25857 12.2565 8.41885 12.4002 8.65748 12.4186C8.50077 12.2048 8.29062 12.1864 8.07692 12.179ZM6.61664 11.9063C6.32815 11.9726 6.32815 11.9726 6.23554 12.0943C6.3602 12.0685 6.46705 12.0279 6.61664 11.9063ZM7.1224 12.168C7.26842 12.2233 7.3824 12.2233 7.52843 12.1532C7.37884 12.1127 7.26486 12.1016 7.1224 12.168Z" fill="#020304"/>
<path d="M6.69856 7.89574C6.7413 7.94366 6.77691 7.97683 6.79828 8.01369C6.89445 8.20906 6.94432 8.41548 6.93007 8.63665C6.91583 8.87994 6.90513 9.12692 6.89801 9.3702C6.89089 9.60243 6.89801 9.83465 6.99774 10.0558C7.61391 9.67246 7.66734 9.80885 8.01995 10.0116C8.03419 9.98947 8.05556 9.96736 8.05912 9.94524C8.08049 9.83097 8.11255 9.71301 8.11611 9.59874C8.11967 9.40338 8.10542 9.20801 8.10186 9.01265C8.0983 8.88732 8.0983 8.7583 8.10542 8.63297C8.12323 8.34177 8.29063 8.15008 8.51145 7.99158C8.53994 7.96946 8.57913 7.96209 8.61831 7.95103C8.66461 7.93998 8.71803 7.9879 8.71447 8.03582C8.70734 8.10217 8.6931 8.1722 8.67885 8.23855C8.61474 8.51133 8.61475 8.76936 8.7216 9.04213C8.87831 9.43655 8.93885 9.85309 8.88187 10.2807C8.87474 10.3249 8.88187 10.3728 8.88187 10.4244C8.97091 10.3986 8.98516 10.3249 9.00653 10.2659C9.15612 9.86414 9.30571 9.46235 9.44462 9.05688C9.5301 8.80622 9.60133 8.55188 9.68325 8.30122C9.76873 8.03951 9.87558 7.78884 10.1178 7.6119C10.0822 7.30964 10.0465 7.00738 10.0074 6.70881C9.9753 6.46552 9.93612 6.22592 9.89338 5.98263C9.83283 5.62139 9.80435 5.26384 9.96462 4.93577C9.94681 4.89522 9.94325 4.8731 9.93257 4.86204C9.44106 4.35335 9.1027 3.73777 8.76434 3.12218C8.57557 2.77937 8.44734 2.40707 8.37967 2.02003C8.34761 1.8394 8.34762 1.65141 8.3405 1.46341C8.33693 1.40444 8.34761 1.34546 8.3583 1.29016C8.37611 1.19432 8.4331 1.14272 8.50789 1.13535C8.58269 1.12797 8.64324 1.17589 8.67173 1.26805C8.67885 1.29754 8.68597 1.32334 8.68953 1.35283C8.85337 2.1859 9.23804 2.89364 9.83284 3.48343C10.0465 3.69354 10.2709 3.89627 10.4811 4.11006C10.6378 4.26857 10.8016 4.42339 10.8586 4.65193C10.8657 4.67773 10.8871 4.70354 10.9049 4.72566C11.0509 4.91734 11.1008 5.14588 11.1257 5.38179C11.2005 6.20749 11.0723 7.00001 10.7589 7.78147C10.9298 8.13166 10.9227 8.50765 10.8265 8.88732C10.7375 9.2375 10.6449 9.58768 10.5202 9.9268C10.2567 10.6567 9.77941 11.2243 9.14543 11.6519C9.03858 11.7257 9.03859 11.7257 9.08845 11.8694C9.13119 11.8473 9.17748 11.8362 9.2131 11.8067C9.41612 11.6446 9.6227 11.4824 9.81859 11.3128C10.1641 11.0142 10.4989 10.7083 10.8444 10.4134C11.1471 10.1517 11.4641 9.91575 11.8915 9.88257C11.8951 9.79779 11.8986 9.73144 11.8986 9.66509C11.8915 8.89837 11.9698 8.13903 12.18 7.4018C12.2334 7.21381 12.2904 7.02581 12.4008 6.86362C12.4507 6.78989 12.4542 6.71987 12.4222 6.64246C12.3438 6.46552 12.2726 6.28121 12.1764 6.11165C12.0126 5.81307 11.8274 5.52555 11.6564 5.23066C11.4961 4.95051 11.3394 4.67036 11.1934 4.38653C11.0759 4.16167 11.0011 3.91838 10.969 3.66035C10.9476 3.49448 10.9548 3.32861 10.9939 3.16273C11.0046 3.1185 11.026 3.07057 11.0509 3.03003C11.1044 2.95262 11.2219 2.95261 11.2718 3.03739C11.3038 3.09637 11.3287 3.16273 11.343 3.22539C11.457 3.79306 11.7134 4.29069 12.0589 4.74777C12.2049 4.94314 12.3509 5.1385 12.4934 5.33387C12.6893 5.60296 12.8603 5.88311 12.9956 6.18906C13.0668 6.34756 13.131 6.51343 13.1488 6.69037C13.1523 6.73092 13.1559 6.77146 13.1701 6.80464C13.3304 7.16219 13.2805 7.5345 13.2236 7.90311C13.1274 8.5445 12.9101 9.15272 12.6822 9.75724C12.6501 9.83834 12.6145 9.91944 12.5682 9.99316C12.5041 10.0927 12.4649 10.1922 12.4542 10.3175C12.4471 10.4097 12.4008 10.5055 12.3545 10.5866C12.2975 10.6862 12.2263 10.782 12.1479 10.8668C11.6564 11.4123 11.1008 11.8731 10.4241 12.168C10.3707 12.1901 10.3208 12.2196 10.2709 12.2454C10.2638 12.2491 10.2638 12.2638 10.2531 12.2896C10.3528 12.3154 10.4526 12.3412 10.5523 12.3597C11.2575 12.4887 11.9235 12.7246 12.5397 13.1043C12.6786 13.1891 12.814 13.2849 12.9386 13.3918C13.0526 13.4876 13.1345 13.6056 13.1452 13.7641C13.1488 13.812 13.163 13.8599 13.1844 13.9005C13.3732 14.2359 13.48 14.6045 13.5762 14.9695C13.7471 15.6219 13.9074 16.278 13.9679 16.9526C13.9964 17.2733 13.9929 17.5977 14 17.9184C14 17.9774 13.9858 18.0363 13.9715 18.0916C13.7151 19.0832 13.2948 19.9826 12.5825 20.7272C12.1693 21.1585 11.8381 21.6488 11.6208 22.2127C11.603 22.257 11.5852 22.3086 11.5531 22.3381C11.5211 22.3676 11.4712 22.3934 11.4285 22.3934C11.3644 22.3934 11.3323 22.3381 11.3181 22.2754C11.3109 22.2459 11.3145 22.2164 11.3181 22.1869C11.3465 21.9031 11.4 21.6266 11.5282 21.3686C11.7633 20.8968 12.0161 20.436 12.3296 20.0121C12.497 19.7873 12.6644 19.5587 12.8211 19.3228C13.0846 18.9321 13.2699 18.5045 13.3447 18.029C13.3696 17.8778 13.3589 17.7525 13.2556 17.6198C12.9244 17.1959 12.7783 16.6872 12.6786 16.1638C12.6216 15.8652 12.6003 15.5629 12.5611 15.2607C12.5255 14.951 12.4898 14.6377 12.4542 14.3281C12.4507 14.2912 12.4364 14.2543 12.4257 14.1954C12.0019 14.1917 11.6101 14.0442 11.1934 13.9521C11.2539 14.0111 11.3181 14.07 11.3715 14.1364C11.4819 14.2728 11.5959 14.4055 11.692 14.5492C11.7918 14.6967 11.8345 14.8663 11.8131 15.0506C11.806 15.128 11.8096 15.2054 11.8203 15.2828C11.8523 15.585 11.9129 15.8836 11.9235 16.1859C11.9414 16.7425 11.9307 17.3028 11.9271 17.8594C11.9235 18.1432 11.8986 18.4271 11.7276 18.6703C11.7063 18.6998 11.6992 18.7441 11.6956 18.7809C11.5887 19.5219 11.2504 20.1485 10.7696 20.7051C10.6413 20.8526 10.506 20.9889 10.3778 21.1327C10.2424 21.2838 10.1 21.4313 9.97174 21.5898C9.68681 21.9326 9.49448 22.3233 9.45174 22.7767C9.44818 22.8246 9.43749 22.8726 9.41968 22.9168C9.39475 22.9758 9.34845 23.0089 9.28077 22.9979C9.21666 22.9905 9.17393 22.9536 9.16681 22.8873C9.15969 22.8209 9.15969 22.7509 9.16681 22.6809C9.20243 22.257 9.2879 21.8441 9.49804 21.4755C9.67256 21.1732 9.86133 20.8784 10.0501 20.5798C10.278 20.2185 10.5131 19.861 10.7411 19.496C10.8978 19.2454 10.9975 18.9726 11.0438 18.6777C11.0581 18.5893 11.0581 18.5082 11.0331 18.4197C10.8942 17.9515 10.8764 17.476 10.9227 16.9932C10.9476 16.7019 11.0011 16.4107 11.0402 16.1195C11.0723 15.8873 11.1044 15.6551 11.1364 15.4155C11.0723 15.3823 11.026 15.3528 10.9726 15.3344C10.7909 15.2607 10.6271 15.1611 10.4811 15.0321C10.1997 14.7778 9.92901 14.5161 9.65476 14.258C9.58708 14.1917 9.52297 14.1253 9.4268 14.0295C9.43037 14.1696 9.48379 14.2507 9.51941 14.3354C9.8364 15.0542 9.90408 15.8099 9.7901 16.5766C9.70106 17.1922 9.44105 17.7341 9.00296 18.1764C8.79282 18.3902 8.57557 18.6003 8.36187 18.8104C8.08049 19.0832 7.85611 19.3965 7.69583 19.7578C7.65665 19.8462 7.61035 19.9347 7.56405 20.0195C7.52844 20.0821 7.47145 20.119 7.39665 20.108C7.33254 20.0969 7.30048 20.049 7.27911 19.9937C7.11527 19.5735 6.88733 19.1901 6.62733 18.8252C6.44568 18.5745 6.24978 18.3312 6.06458 18.0806C5.61581 17.4871 5.34156 16.8162 5.23114 16.0753C5.15635 15.5814 5.22403 15.0985 5.34869 14.623C5.39855 14.4276 5.46978 14.2359 5.53746 14.0111C5.45197 14.0332 5.41992 14.0885 5.37717 14.129C5.13142 14.3649 4.89279 14.6008 4.64347 14.8331C4.44402 15.0174 4.21963 15.1722 3.96319 15.2607C3.93826 15.268 3.91689 15.2902 3.88483 15.316C3.91332 15.6367 3.96319 15.9537 4.01661 16.2707C4.11634 16.8531 4.14839 17.4392 4.04866 18.0253C4.03798 18.0842 4.03443 18.1432 4.01306 18.1985C3.92401 18.4013 3.96319 18.6003 4.01306 18.7994C4.07004 19.0279 4.16976 19.2417 4.29442 19.4407C4.49388 19.7651 4.70401 20.0785 4.90703 20.3991C5.10648 20.7125 5.3095 21.0184 5.49471 21.3391C5.72265 21.7335 5.82238 22.1722 5.84375 22.6293C5.84732 22.6883 5.85087 22.7509 5.8295 22.8025C5.81526 22.8431 5.76896 22.8873 5.73334 22.8947C5.69416 22.9021 5.63362 22.8762 5.61225 22.8431C5.58019 22.7878 5.55882 22.7177 5.55169 22.6514C5.51252 22.2054 5.32019 21.8257 5.04238 21.4903C4.87498 21.2875 4.68621 21.1032 4.51881 20.9042C4.31223 20.6609 4.10566 20.4139 3.90976 20.1596C3.59634 19.7504 3.42894 19.2712 3.33277 18.7662C3.3114 18.6593 3.28647 18.5635 3.22948 18.4676C3.17606 18.3791 3.15112 18.2686 3.12619 18.1653C3.10482 18.0695 3.09058 17.9737 3.08702 17.8741C3.05852 17.0632 3.03715 16.2486 3.13687 15.4376C3.144 15.3712 3.15825 15.3012 3.17606 15.2349C3.20099 15.1317 3.21879 15.0321 3.19386 14.9179C3.15825 14.7593 3.21167 14.6045 3.29715 14.4718C3.39688 14.317 3.51441 14.1732 3.62839 14.0295C3.68181 13.9631 3.74236 13.9042 3.83853 13.7973C3.58209 13.8747 3.38619 13.941 3.18318 13.9889C2.98729 14.0369 2.78784 14.0627 2.57413 14.0995C2.56345 14.1511 2.5492 14.2064 2.54208 14.2617C2.48509 14.7593 2.43878 15.2533 2.37824 15.7509C2.33193 16.1306 2.23221 16.4992 2.10042 16.8568C2.00782 17.1074 1.88316 17.336 1.71933 17.5461C1.64453 17.6382 1.63029 17.7304 1.6481 17.8447C1.70864 18.2575 1.83331 18.6445 2.05413 18.9984C2.21441 19.2528 2.38537 19.5034 2.56345 19.743C2.89825 20.189 3.17962 20.6646 3.42894 21.1622C3.56784 21.435 3.64619 21.7262 3.68181 22.0284C3.68537 22.0764 3.6925 22.1316 3.67826 22.1722C3.66401 22.2127 3.62126 22.257 3.58208 22.2643C3.54291 22.2717 3.48593 22.2533 3.45743 22.2238C3.41826 22.1832 3.39332 22.128 3.37551 22.0727C3.16537 21.5271 2.84838 21.0516 2.44591 20.6351C1.73357 19.8942 1.30261 19.0021 1.04617 18.0068C1.01768 17.8963 1.00699 17.7783 1.00343 17.6603C0.974938 16.8678 1.12809 16.1011 1.30618 15.3381C1.39878 14.9289 1.50919 14.5234 1.65878 14.129C1.70152 14.0184 1.75494 13.9152 1.79769 13.8083C1.81906 13.7567 1.84755 13.7014 1.85111 13.6461C1.86536 13.4876 1.94371 13.366 2.05769 13.2701C2.16454 13.1743 2.28208 13.0858 2.40673 13.0121C2.98017 12.6619 3.58921 12.4113 4.24812 12.2786C4.36209 12.2565 4.47607 12.2343 4.58648 12.2085C4.63991 12.1975 4.69333 12.1754 4.78237 12.1422C4.69333 12.0979 4.63991 12.0648 4.57936 12.039C3.90264 11.7441 3.35058 11.2833 2.85551 10.7378C2.77715 10.653 2.70947 10.5534 2.64893 10.4576C2.60619 10.3913 2.55988 10.3175 2.55988 10.2438C2.55632 10.0669 2.47797 9.92681 2.39605 9.78674C2.36756 9.73513 2.34263 9.68352 2.32126 9.62823C2.09687 9.01264 1.86892 8.40075 1.77988 7.74461C1.75494 7.55293 1.74782 7.35388 1.73714 7.15851C1.73358 7.09216 1.73714 7.01843 1.75139 6.95577C1.86536 6.48026 1.97577 6.00474 2.25714 5.59558C2.38892 5.4039 2.52071 5.20854 2.65606 5.02054C2.79852 4.82149 2.94455 4.62982 3.08702 4.43077C3.36127 4.04372 3.5536 3.62349 3.65332 3.15535C3.66757 3.089 3.68538 3.02265 3.71031 2.95999C3.73524 2.88995 3.80291 2.84203 3.86346 2.85309C3.92401 2.86415 3.97388 2.89365 3.99169 2.95631C4.01306 3.04109 4.03799 3.12587 4.04511 3.21433C4.0736 3.51291 4.02018 3.80044 3.89908 4.07321C3.79579 4.30544 3.68182 4.53398 3.55716 4.75146C3.3399 5.13113 3.11194 5.50711 2.89112 5.8831C2.75221 6.11901 2.62399 6.35861 2.55988 6.63139C2.83413 7.0811 2.93387 7.58979 3.01222 8.10217C3.09058 8.60717 3.13331 9.11217 3.11551 9.62455C3.11551 9.65404 3.12263 9.68353 3.12619 9.72776C3.15468 9.73882 3.19031 9.75724 3.22236 9.76461C3.52511 9.8199 3.78155 9.96736 4.01306 10.1627C4.40128 10.4982 4.78593 10.8373 5.17416 11.1727C5.37361 11.3423 5.57663 11.5045 5.77965 11.6704C5.81526 11.6998 5.858 11.7183 5.91855 11.7551C5.93992 11.6998 5.95417 11.6556 5.97198 11.6077C5.93993 11.5819 5.91143 11.5524 5.87937 11.534C5.26676 11.1285 4.80731 10.5903 4.52237 9.90101C4.34429 9.46604 4.21963 9.01633 4.14127 8.55188C4.08785 8.24224 4.11278 7.94735 4.25168 7.65246C4.06648 7.24698 3.96676 6.81202 3.90265 6.366C3.84566 5.97526 3.84565 5.58452 3.88483 5.19379C3.9062 4.98 3.95963 4.76989 4.1021 4.59664C4.25525 4.18379 4.58293 3.92208 4.88211 3.63456C4.97471 3.54609 5.06375 3.4613 5.15635 3.37283C5.64786 2.90838 5.97197 2.33703 6.19636 1.70301C6.24978 1.55556 6.27828 1.40075 6.31033 1.24962C6.35307 1.06163 6.4065 0.984214 6.4991 1.00265C6.65225 1.02845 6.64514 1.16483 6.66295 1.27542C6.69856 1.50396 6.65582 1.72513 6.61308 1.9463C6.54541 2.2928 6.42787 2.62455 6.2676 2.93787C6.03252 3.39864 5.76896 3.84098 5.46622 4.2612C5.33443 4.44182 5.1884 4.60769 5.03881 4.78831C5.19909 5.14956 5.16348 5.52555 5.10293 5.90523C5.03882 6.3107 4.97827 6.71618 4.92128 7.12534C4.90347 7.23961 4.90348 7.35757 4.89279 7.4829C5.13142 7.66721 5.23828 7.92523 5.32732 8.198C5.50896 8.75461 5.69417 9.31123 5.87937 9.86784C5.89718 9.91944 5.92567 9.97104 5.9791 10.0816C6.01472 9.66509 6.18212 9.36283 6.33527 9.05319C6.42431 8.87994 6.48485 8.69195 6.52047 8.50027C6.55253 8.32702 6.59883 8.15746 6.64157 7.9879C6.64513 7.97684 6.67006 7.94735 6.69856 7.89574ZM6.27471 11.0179C6.13937 10.8189 6.01115 10.6456 5.90074 10.465C5.70485 10.1406 5.5517 9.79411 5.41991 9.43655C5.28457 9.06056 5.15991 8.68089 5.02813 8.3049C4.98539 8.18694 4.93909 8.06899 4.88211 7.95472C4.82868 7.85151 4.75389 7.7483 4.61498 7.77778C4.47964 7.81096 4.44758 7.93629 4.44402 8.05425C4.43689 8.2275 4.42977 8.40812 4.46182 8.57768C4.53662 8.99053 4.65416 9.39232 4.80375 9.78674C5.03526 10.4023 5.42704 10.8778 5.96842 11.2317C6.00759 11.2575 6.04677 11.2759 6.09308 11.2981C6.15719 11.1985 6.21417 11.1101 6.27471 11.0179ZM8.89968 11.3939C8.93886 11.3791 8.96735 11.3755 8.99228 11.3607C9.49091 11.0437 9.8827 10.6272 10.1213 10.0706C10.3137 9.63192 10.4383 9.17115 10.5345 8.70301C10.5701 8.53345 10.5915 8.35651 10.5559 8.17957C10.5416 8.11322 10.5274 8.04319 10.4989 7.98421C10.4419 7.86257 10.3101 7.83677 10.2139 7.93261C10.1534 7.99159 10.1035 8.06899 10.0679 8.1464C10.0038 8.28647 9.95393 8.4376 9.90407 8.58136C9.76872 8.96472 9.64406 9.35546 9.49091 9.73513C9.29502 10.2254 9.07064 10.6972 8.70735 11.1027C8.77502 11.2022 8.83913 11.2981 8.89968 11.3939ZM12.8353 13.7751C12.7605 13.683 12.7285 13.624 12.6786 13.5835C12.5718 13.5024 12.4614 13.425 12.3474 13.3549C11.7277 12.9789 11.0509 12.7873 10.3493 12.6546C9.95393 12.5808 9.5479 12.6398 9.17393 12.4887C9.11694 12.555 9.10269 12.6066 9.16324 12.6509C9.1953 12.673 9.23092 12.6877 9.26653 12.6988C9.58352 12.7909 9.86489 12.9531 10.1605 13.0969C10.5309 13.2775 10.9049 13.4508 11.286 13.6093C11.5887 13.7346 11.9022 13.8231 12.2298 13.8526C12.4186 13.871 12.6074 13.8562 12.8353 13.7751ZM2.17166 13.6793C2.44235 13.7641 2.67742 13.7788 2.91962 13.7346C3.29003 13.6609 3.64264 13.5429 3.99169 13.4065C4.59005 13.1706 5.12429 12.7909 5.74046 12.5882C5.81526 12.5624 5.82594 12.4961 5.77608 12.4186C5.64786 12.4408 5.52676 12.4776 5.40566 12.4776C5.0673 12.4776 4.73963 12.5403 4.4084 12.603C3.77086 12.7209 3.16893 12.9347 2.61331 13.2775C2.49221 13.3512 2.37824 13.4434 2.26427 13.5355C2.22865 13.5613 2.2144 13.6093 2.17166 13.6793ZM9.11337 12.0758C9.1205 12.098 9.12762 12.1164 9.13831 12.1385C9.27009 12.1274 9.40544 12.1311 9.53366 12.1053C10.5523 11.9136 11.3466 11.346 12.0162 10.5682C12.0731 10.5019 12.1088 10.4207 12.1479 10.3433C12.1764 10.2844 12.1408 10.2143 12.0767 10.2106C11.9734 10.207 11.8666 10.2033 11.7633 10.2217C11.5389 10.2622 11.3537 10.3839 11.1792 10.524C10.8159 10.8115 10.4526 11.1027 10.0964 11.3976C9.81147 11.6335 9.52297 11.8547 9.18461 12.0058C9.15612 12.0169 9.13831 12.05 9.11337 12.0758ZM5.85444 12.0242C5.88293 11.9468 5.85444 11.9173 5.80102 11.8952C5.48046 11.7551 5.20266 11.545 4.93553 11.3239C4.6221 11.0658 4.30868 10.8078 3.99169 10.5535C3.86347 10.4502 3.72811 10.3581 3.59277 10.2622C3.44674 10.1627 3.27935 10.1148 3.10839 10.0927C3.01222 10.0816 2.91606 10.0779 2.83414 10.1664C2.85551 10.3397 2.96948 10.4613 3.07633 10.5829C3.37195 10.9073 3.69606 11.1948 4.06291 11.4344C4.46182 11.6962 4.89279 11.8842 5.35581 11.9837C5.5232 12.0205 5.6906 12.0316 5.85444 12.0242ZM8.97447 13.2886C9.05995 13.3697 9.12406 13.4434 9.1953 13.5061C9.51585 13.7862 9.83284 14.07 10.157 14.3465C10.3386 14.505 10.5238 14.6635 10.7126 14.8109C10.8194 14.892 10.937 14.9658 11.0581 15.0174C11.1507 15.0579 11.2611 15.0727 11.3644 15.0837C11.4641 15.0911 11.5246 15.01 11.489 14.9068C11.4498 14.7962 11.4071 14.6819 11.3359 14.5972C11.1863 14.4202 11.026 14.247 10.8515 14.0958C10.6378 13.9152 10.4027 13.7604 10.1819 13.5872C9.85064 13.3291 9.46955 13.1706 9.0742 13.0084C9.04215 13.1006 9.01365 13.1817 8.97447 13.2886ZM5.79745 12.9753C5.7369 12.9937 5.70129 13.0047 5.66567 13.0158C4.97827 13.2996 4.40484 13.753 3.86346 14.2543C3.76017 14.3502 3.67113 14.4755 3.59277 14.5972C3.54647 14.6672 3.5251 14.7557 3.50729 14.8404C3.48948 14.9252 3.5536 14.9916 3.64264 14.9916C3.68894 14.9916 3.7388 14.9805 3.7851 14.9731C3.97743 14.9363 4.14128 14.8331 4.29087 14.7077C4.5295 14.5124 4.761 14.306 4.99607 14.1069C5.25251 13.8857 5.50539 13.6609 5.76183 13.4434C5.80457 13.4065 5.85444 13.377 5.89006 13.3475C5.85444 13.2038 5.82951 13.1006 5.79745 12.9753ZM13.6652 17.6382C13.7079 17.3544 13.6901 16.9747 13.5833 16.466C13.4159 15.6772 13.2556 14.8847 12.9351 14.129C12.8745 14.1364 12.8247 14.1364 12.7819 14.1474C12.7285 14.1585 12.6751 14.1806 12.6145 14.1991C12.6288 14.2728 12.6359 14.3281 12.6466 14.3834C12.7142 14.7483 12.7926 15.1095 12.8425 15.4781C12.903 15.9168 13.0027 16.3407 13.1452 16.7572C13.2307 17.0079 13.3518 17.2401 13.5085 17.4539C13.5441 17.5092 13.5904 17.5571 13.6652 17.6382ZM2.06125 14.0148C2.00426 14.1696 1.95084 14.3023 1.90454 14.4423C1.70508 15.0247 1.5733 15.6256 1.44152 16.2264C1.3596 16.5914 1.32042 16.96 1.30618 17.3286C1.30262 17.3839 1.28481 17.4466 1.36672 17.4908C1.39522 17.4613 1.43083 17.4355 1.45933 17.3986C1.60892 17.207 1.73001 16.9968 1.81549 16.7646C1.96865 16.3628 2.07906 15.9463 2.13604 15.5187C2.19303 15.1022 2.24646 14.6856 2.35331 14.2801C2.37112 14.2175 2.36399 14.1511 2.37112 14.0848C2.26783 14.0627 2.18591 14.0442 2.06125 14.0148ZM4.69689 7.43498C4.70758 7.39811 4.71826 7.37968 4.71826 7.36125C4.70402 6.83044 4.75744 6.30701 4.82867 5.78358C4.85361 5.61033 4.84648 5.4334 4.84292 5.25646C4.83936 5.09427 4.77169 4.9542 4.65415 4.84362C4.50456 4.70354 4.34429 4.72934 4.2695 4.92839C4.21607 5.07215 4.17689 5.22697 4.16621 5.38179C4.11278 6.08216 4.21251 6.7641 4.4547 7.42392C4.46182 7.43866 4.47963 7.44972 4.50812 7.47552C4.56155 7.46446 4.63278 7.44972 4.69689 7.43498ZM10.5202 7.57873C10.5452 7.51607 10.5737 7.46815 10.5915 7.41286C10.8052 6.7641 10.8835 6.10059 10.8265 5.41865C10.8159 5.31176 10.7909 5.20854 10.7624 5.10533C10.7482 5.05004 10.7161 4.99843 10.6841 4.95051C10.6093 4.84729 10.5096 4.83256 10.4063 4.9026C10.2389 5.01318 10.1605 5.17905 10.1498 5.37073C10.1391 5.53661 10.1534 5.70249 10.1676 5.86836C10.1926 6.17063 10.2353 6.4692 10.2602 6.77146C10.278 7.02212 10.2816 7.27646 10.2887 7.54187C10.3671 7.54924 10.4383 7.56399 10.5202 7.57873ZM6.93363 16.4218C6.87308 16.8199 7.19719 18.0548 7.47856 18.486C7.82049 18.0326 8.10542 16.9821 8.01638 16.5176C7.61747 16.7351 7.43582 16.842 6.93363 16.4218ZM7.41089 13.565C7.06185 14.0295 6.80897 15.0174 6.91226 15.5629C6.95144 15.5224 6.9835 15.4892 7.01555 15.456C7.30048 15.1648 7.57117 15.1353 7.92377 15.3454C7.95939 15.3676 7.99857 15.3823 8.04487 15.4007C8.00925 14.7372 7.69939 13.8452 7.41089 13.565ZM2.94099 9.76093C2.90181 9.49922 2.86975 9.24856 2.82345 9.00159C2.75221 8.58874 2.67742 8.1722 2.59194 7.76304C2.54564 7.55293 2.47441 7.35019 2.39962 7.14746C2.37112 7.07005 2.31056 7 2.25714 6.93365C2.22508 6.89679 2.15385 6.90786 2.13604 6.95209C2.11467 7.0037 2.08975 7.06267 2.08619 7.11796C2.08262 7.27278 2.07906 7.43129 2.09687 7.58611C2.1681 8.2533 2.36043 8.88732 2.5955 9.51028C2.63468 9.61718 2.67386 9.73144 2.78071 9.81253C2.82345 9.79779 2.87688 9.77936 2.94099 9.76093ZM12.2441 9.90469C12.3474 9.78304 12.4008 9.64666 12.4471 9.50659C12.5646 9.14535 12.6822 8.78411 12.7783 8.41549C12.8674 8.07637 12.9208 7.72618 12.9173 7.37231C12.9173 7.27647 12.903 7.17694 12.8852 7.08479C12.8709 7.01475 12.7677 6.99263 12.7249 7.04792C12.6679 7.12533 12.6109 7.20643 12.5789 7.2949C12.5077 7.50501 12.4293 7.71881 12.3901 7.93998C12.2726 8.56294 12.1729 9.18958 12.066 9.81253C12.0624 9.82728 12.0803 9.84572 12.0909 9.87889C12.1372 9.88995 12.1907 9.89732 12.2441 9.90469ZM3.56072 18.3828C3.60346 18.3238 3.6462 18.2796 3.66044 18.2317C3.6925 18.1285 3.721 18.0253 3.73525 17.9184C3.80648 17.4539 3.8136 16.9858 3.7851 16.514C3.76373 16.1453 3.74949 15.773 3.72812 15.4044C3.72812 15.386 3.71387 15.3713 3.69606 15.3381C3.64264 15.3381 3.57853 15.3381 3.50729 15.3381C3.48948 15.4118 3.47167 15.4781 3.46099 15.5445C3.36126 16.3407 3.37908 17.1443 3.40045 17.9442C3.40401 18.0584 3.43962 18.1727 3.47167 18.287C3.48236 18.3165 3.52154 18.3386 3.56072 18.3828ZM11.4961 15.4229C11.4 15.4339 11.3394 15.4413 11.2896 15.445C11.2646 15.8468 11.2504 16.2264 11.2148 16.6061C11.172 17.0484 11.1898 17.4871 11.2433 17.9257C11.2611 18.0806 11.3074 18.2317 11.3537 18.3791C11.3644 18.416 11.4107 18.4455 11.4534 18.4934C11.489 18.4308 11.5246 18.3939 11.5353 18.3497C11.5603 18.2464 11.5816 18.1395 11.5887 18.0326C11.6279 17.3581 11.6101 16.6835 11.5674 16.0053C11.5567 15.821 11.5246 15.6403 11.4961 15.4229ZM8.96734 17.6898C9.14543 17.465 9.24516 17.2217 9.28077 16.96C9.38762 16.1269 9.36982 15.3049 9.08845 14.505C9.0742 14.4608 9.04214 14.4202 9.01721 14.376C8.99584 14.4829 9.00653 14.5787 9.02078 14.6746C9.06352 14.9547 9.1205 15.2312 9.11337 15.5187C9.10625 15.821 9.10981 16.1232 9.092 16.4255C9.08132 16.6393 9.04214 16.8531 9.01721 17.0632C8.99584 17.2364 8.97448 17.4097 8.9531 17.5866C8.94954 17.6198 8.96022 17.653 8.96734 17.6898ZM6.05034 17.4502C6.04321 17.3618 6.04677 17.2991 6.03252 17.2364C5.97554 17.0079 5.91499 16.783 5.85444 16.5582C5.67279 15.9205 5.6443 15.2717 5.75115 14.6156C5.75827 14.5787 5.78676 14.5271 5.72978 14.4976C5.35936 15.2091 5.52677 16.8162 6.05034 17.4502ZM6.23554 13.1485C6.24979 13.1632 6.26047 13.178 6.27471 13.1927C6.32102 13.1632 6.36733 13.1301 6.41719 13.1006C6.6024 12.9789 6.79828 12.8757 7.01198 12.8131C7.49994 12.673 7.95939 12.7098 8.36187 13.0637C8.4046 13.1006 8.4509 13.1374 8.50076 13.1669C8.53994 13.189 8.58625 13.2149 8.63968 13.1669C8.63968 13.0453 8.56132 12.9642 8.47228 12.8868C8.15529 12.6177 7.78843 12.5034 7.37884 12.555C6.92294 12.6103 6.53828 12.8057 6.23554 13.1485ZM8.34405 11.0879C8.29419 10.9368 8.18377 10.8963 8.07692 10.8631C7.64952 10.7378 7.22568 10.7488 6.80897 10.9073C6.77335 10.9221 6.74487 10.9589 6.67363 11.0179C6.79117 11.0032 6.85527 10.9995 6.91938 10.9884C7.28267 10.9258 7.64241 10.9479 7.99501 11.0548C8.10186 11.0916 8.20871 11.158 8.34405 11.0879ZM6.40294 15.2422C6.25691 15.6293 6.30677 16.0274 6.36376 16.4218C6.378 16.5287 6.41006 16.643 6.52404 16.7425C6.53828 16.6761 6.55253 16.6393 6.54897 16.6061C6.50267 16.1527 6.44924 15.6956 6.40294 15.2422ZM7.19363 11.8252C7.63528 11.8141 7.99858 11.8805 8.35475 11.9874C8.40105 12.0021 8.44734 12.0095 8.49365 12.0132C8.5257 12.0169 8.55775 12.0095 8.61118 12.0058C8.21583 11.6962 7.62816 11.6114 7.19363 11.8252ZM8.39748 15.0764C8.45091 14.6967 8.44378 14.5824 8.30488 14.1806C8.25857 14.0405 8.22652 13.8894 8.08405 13.7493C8.16597 14.1917 8.2372 14.5898 8.312 14.9879C8.31556 15.0137 8.33693 15.0395 8.35118 15.0653C8.35474 15.069 8.36899 15.069 8.39748 15.0764ZM8.03063 18.4271C8.30844 18.1174 8.45802 17.6567 8.43309 17.2143C8.40816 17.2328 8.37255 17.2438 8.36543 17.2659C8.25502 17.6419 8.08049 17.9995 8.03063 18.4271ZM7.46076 11.3497C7.53912 11.4197 7.63528 11.4086 7.72432 11.4234C7.81692 11.4381 7.91309 11.4566 8.0057 11.475C8.10899 11.4971 8.20871 11.5266 8.312 11.545C8.40104 11.5598 8.48653 11.6187 8.59694 11.5671C8.53639 11.4381 8.42598 11.3976 8.31913 11.3718C8.03775 11.3017 7.75282 11.2833 7.46076 11.3497ZM6.74486 13.8526C6.55609 14.118 6.50267 14.3207 6.55609 14.5898C6.6665 14.3539 6.75554 14.129 6.74486 13.8526ZM6.6487 17.4687C6.67719 17.852 6.7698 18.0953 6.95144 18.2391C6.9087 17.9589 6.80185 17.7193 6.6487 17.4687ZM6.75554 12.356C6.49554 12.3634 6.27115 12.4334 6.13225 12.6804C6.33883 12.5698 6.54897 12.4629 6.75554 12.356ZM8.45803 16.3776C8.55775 16.2301 8.56131 16.0716 8.52213 15.9094C8.51501 15.8762 8.47583 15.8505 8.42241 15.7878C8.41172 16.0163 8.39035 16.1969 8.45803 16.3776ZM6.32102 11.5745C6.51691 11.534 6.70924 11.5082 6.92294 11.3791C6.64513 11.3091 6.46705 11.4013 6.32102 11.5745ZM8.07692 12.179C8.25857 12.2565 8.41885 12.4002 8.65748 12.4186C8.50077 12.2048 8.29062 12.1864 8.07692 12.179ZM6.61664 11.9063C6.32815 11.9726 6.32815 11.9726 6.23554 12.0943C6.3602 12.0685 6.46705 12.0279 6.61664 11.9063ZM7.1224 12.168C7.26842 12.2233 7.3824 12.2233 7.52843 12.1532C7.37884 12.1127 7.26486 12.1016 7.1224 12.168Z" stroke="black" stroke-width="0.2" mask="url(#path-1-outside-1_2_5431)"/>
</svg>
